<?xml version="1.0" encoding="UTF-8" standalone="yes"?><svg xmlns="http://www.w3.org/2000/svg" xmlns:xlink="http://www.w3.org/1999/xlink" height="966.6667px" style="width:1108px;height:966px;" version="1.1" viewBox="0 0 1108 966" width="1108.3333px"><defs/><g><line style="stroke: #A80036; stroke-width: 2.0833333333333335; stroke-dasharray: 5.0,5.0;" x1="125" x2="125" y1="173.877" y2="805.4362"/><line style="stroke: #A80036; stroke-width: 2.0833333333333335; stroke-dasharray: 5.0,5.0;" x1="546.875" x2="546.875" y1="173.877" y2="805.4362"/><line style="stroke: #A80036; stroke-width: 2.0833333333333335; stroke-dasharray: 5.0,5.0;" x1="888.5417" x2="888.5417" y1="173.877" y2="805.4362"/><text fill="#000000" font-family="CMU Serif" font-size="31.25" lengthAdjust="spacingAndGlyphs" textLength="204.1667" x="16.6667" y="166.507">External user</text><ellipse cx="125" cy="27.0833" fill="#FEFECE" rx="16.6667" ry="16.6667" style="stroke: #A80036; stroke-width: 4.166666666666667;"/><path d="M125,43.75 L125,100 M97.9167,60.4167 L152.0833,60.4167 M125,100 L97.9167,131.25 M125,100 L152.0833,131.25 " fill="#FEFECE" style="stroke: #A80036; stroke-width: 4.166666666666667;"/><text fill="#000000" font-family="CMU Serif" font-size="31.25" lengthAdjust="spacingAndGlyphs" textLength="204.1667" x="16.6667" y="832.3598">External user</text><ellipse cx="125" cy="860.5632" fill="#FEFECE" rx="16.6667" ry="16.6667" style="stroke: #A80036; stroke-width: 4.166666666666667;"/><path d="M125,877.2298 L125,933.4798 M97.9167,893.8965 L152.0833,893.8965 M125,933.4798 L97.9167,964.7298 M125,933.4798 L152.0833,964.7298 " fill="#FEFECE" style="stroke: #A80036; stroke-width: 4.166666666666667;"/><rect fill="#FEFECE" height="65.5436" style="stroke: #A80036; stroke-width: 3.125;" width="202.0833" x="446.875" y="106.25"/><text fill="#000000" font-family="CMU Serif" font-size="31.25" lengthAdjust="spacingAndGlyphs" textLength="172.9167" x="461.4583" y="149.8403">Yoda portal</text><rect fill="#FEFECE" height="65.5436" style="stroke: #A80036; stroke-width: 3.125;" width="202.0833" x="446.875" y="803.3529"/><text fill="#000000" font-family="CMU Serif" font-size="31.25" lengthAdjust="spacingAndGlyphs" textLength="172.9167" x="461.4583" y="846.9432">Yoda portal</text><rect fill="#FEFECE" height="65.5436" style="stroke: #A80036; stroke-width: 3.125;" width="437.5" x="669.7917" y="106.25"/><text fill="#000000" font-family="CMU Serif" font-size="31.25" lengthAdjust="spacingAndGlyphs" textLength="408.3333" x="684.375" y="149.8403">External user service &amp; DB</text><rect fill="#FEFECE" height="65.5436" style="stroke: #A80036; stroke-width: 3.125;" width="437.5" x="669.7917" y="803.3529"/><text fill="#000000" font-family="CMU Serif" font-size="31.25" lengthAdjust="spacingAndGlyphs" textLength="408.3333" x="684.375" y="846.9432">External user service &amp; DB</text><polygon fill="#A80036" points="522.9167,234.2936,543.75,242.627,522.9167,250.9603,531.25,242.627" style="stroke: #A80036; stroke-width: 2.0833333333333335;"/><line style="stroke: #A80036; stroke-width: 2.0833333333333335;" x1="125" x2="535.4167" y1="242.627" y2="242.627"/><text fill="#000000" font-family="CMU Serif" font-size="31.25" lengthAdjust="spacingAndGlyphs" textLength="372.9167" x="139.5833" y="232.0506">Request password reset</text><polygon fill="#A80036" points="863.5417,299.8372,884.375,308.1706,863.5417,316.5039,871.875,308.1706" style="stroke: #A80036; stroke-width: 2.0833333333333335;"/><line style="stroke: #A80036; stroke-width: 2.0833333333333335;" x1="547.9167" x2="876.0417" y1="308.1706" y2="308.1706"/><text fill="#000000" font-family="CMU Serif" font-size="31.25" lengthAdjust="spacingAndGlyphs" textLength="125" x="562.5" y="297.5942">Redirect</text><polygon fill="#A80036" points="147.9167,365.3809,127.0833,373.7142,147.9167,382.0475,139.5833,373.7142" style="stroke: #A80036; stroke-width: 2.0833333333333335;"/><line style="stroke: #A80036; stroke-width: 2.0833333333333335;" x1="135.4167" x2="886.4583" y1="373.7142" y2="373.7142"/><text fill="#000000" font-family="CMU Serif" font-size="31.25" lengthAdjust="spacingAndGlyphs" textLength="358.3333" x="160.4167" y="363.1378">Request e-mail address</text><polygon fill="#A80036" points="863.5417,430.9245,884.375,439.2578,863.5417,447.5911,871.875,439.2578" style="stroke: #A80036; stroke-width: 2.0833333333333335;"/><line style="stroke: #A80036; stroke-width: 2.0833333333333335;" x1="125" x2="876.0417" y1="439.2578" y2="439.2578"/><text fill="#000000" font-family="CMU Serif" font-size="31.25" lengthAdjust="spacingAndGlyphs" textLength="343.75" x="139.5833" y="428.6814">Provide e-mail address</text><polygon fill="#A80036" points="147.9167,496.4681,127.0833,504.8014,147.9167,513.1348,139.5833,504.8014" style="stroke: #A80036; stroke-width: 2.0833333333333335;"/><line style="stroke: #A80036; stroke-width: 2.0833333333333335;" x1="135.4167" x2="886.4583" y1="504.8014" y2="504.8014"/><text fill="#000000" font-family="CMU Serif" font-size="31.25" lengthAdjust="spacingAndGlyphs" textLength="502.0833" x="160.4167" y="494.2251">Send password reset link by mail</text><polygon fill="#A80036" points="863.5417,562.0117,884.375,570.3451,863.5417,578.6784,871.875,570.3451" style="stroke: #A80036; stroke-width: 2.0833333333333335;"/><line style="stroke: #A80036; stroke-width: 2.0833333333333335;" x1="125" x2="876.0417" y1="570.3451" y2="570.3451"/><text fill="#000000" font-family="CMU Serif" font-size="31.25" lengthAdjust="spacingAndGlyphs" textLength="368.75" x="139.5833" y="559.7687">Visit password reset link</text><polygon fill="#A80036" points="147.9167,627.5553,127.0833,635.8887,147.9167,644.222,139.5833,635.8887" style="stroke: #A80036; stroke-width: 2.0833333333333335;"/><line style="stroke: #A80036; stroke-width: 2.0833333333333335;" x1="135.4167" x2="886.4583" y1="635.8887" y2="635.8887"/><text fill="#000000" font-family="CMU Serif" font-size="31.25" lengthAdjust="spacingAndGlyphs" textLength="358.3333" x="160.4167" y="625.3123">Request new password</text><polygon fill="#A80036" points="863.5417,693.099,884.375,701.4323,863.5417,709.7656,871.875,701.4323" style="stroke: #A80036; stroke-width: 2.0833333333333335;"/><line style="stroke: #A80036; stroke-width: 2.0833333333333335;" x1="125" x2="876.0417" y1="701.4323" y2="701.4323"/><text fill="#000000" font-family="CMU Serif" font-size="31.25" lengthAdjust="spacingAndGlyphs" textLength="268.75" x="139.5833" y="690.8559">Provide password</text><polygon fill="#A80036" points="147.9167,758.6426,127.0833,766.9759,147.9167,775.3092,139.5833,766.9759" style="stroke: #A80036; stroke-width: 2.0833333333333335;"/><line style="stroke: #A80036; stroke-width: 2.0833333333333335; stroke-dasharray: 2.0,2.0;" x1="135.4167" x2="886.4583" y1="766.9759" y2="766.9759"/><text fill="#000000" font-family="CMU Serif" font-size="31.25" lengthAdjust="spacingAndGlyphs" textLength="41.6667" x="160.4167" y="756.3995">Ok</text></g></svg>