<?xml version="1.0" encoding="UTF-8" standalone="no"?>
<svg
   xmlns:dc="http://purl.org/dc/elements/1.1/"
   xmlns:cc="http://creativecommons.org/ns#"
   xmlns:rdf="http://www.w3.org/1999/02/22-rdf-syntax-ns#"
   xmlns:svg="http://www.w3.org/2000/svg"
   xmlns="http://www.w3.org/2000/svg"
   xmlns:sodipodi="http://sodipodi.sourceforge.net/DTD/sodipodi-0.dtd"
   width="489.89pt"
   height="159.05pt"
   viewBox="0 0 489.89 159.05"
   version="1.1"
   id="svg79"
   sodipodi:docname="yoda.svg">
  <metadata
     id="metadata83">
    <rdf:RDF>
      <cc:Work
         rdf:about="">
        <dc:format>image/svg+xml</dc:format>
        <dc:type
           rdf:resource="http://purl.org/dc/dcmitype/StillImage" />
        <dc:title></dc:title>
      </cc:Work>
    </rdf:RDF>
  </metadata>
  <defs
     id="defs8">
    <clipPath
       id="clip1">
      <path
         d="M 402 139 L 416 139 L 416 159.050781 L 402 159.050781 Z M 402 139 "
         id="path2" />
    </clipPath>
    <clipPath
       id="clip2">
      <path
         d="M 481 136 L 489.890625 136 L 489.890625 153 L 481 153 Z M 481 136 "
         id="path5" />
    </clipPath>
  </defs>
  <g
     id="surface1">
    <path
       style=" stroke:none;fill-rule:nonzero;fill:rgb(3.898621%,8.999634%,25.498962%);fill-opacity:1;"
       d="M 174.351563 115.222656 L 174.300781 107.160156 L 187.652344 105.425781 L 187.488281 79.941406 L 161.007813 35.433594 L 153.816406 33.65625 L 153.765625 25.769531 L 190.320313 25.53125 L 190.371094 33.421875 L 182.140625 35.300781 L 197.816406 65.570313 L 200.398438 73.207031 L 203.527344 65.828125 L 217.925781 35.070313 L 208.203125 33.304688 L 208.152344 25.417969 L 237.933594 25.226563 L 237.984375 33.113281 L 229.582031 34.992188 L 207.324219 79.695313 L 207.488281 105.300781 L 221.507813 106.855469 L 221.5625 114.921875 "
       id="path10" />
    <path
       style=" stroke:none;fill-rule:nonzero;fill:rgb(3.898621%,8.999634%,25.498962%);fill-opacity:1;"
       d="M 263.910156 107.878906 C 266.070313 107.867188 267.929688 107.375 269.492188 106.402344 C 271.054688 105.429688 272.347656 103.910156 273.378906 101.84375 C 274.402344 99.777344 275.148438 97.132813 275.621094 93.914063 C 276.09375 90.691406 276.3125 86.84375 276.28125 82.371094 C 276.253906 77.78125 276.003906 73.710938 275.527344 70.160156 C 275.054688 66.613281 274.308594 63.644531 273.292969 61.261719 C 272.273438 58.871094 270.949219 57.066406 269.3125 55.839844 C 267.679688 54.613281 265.679688 54.007813 263.328125 54.023438 C 261.167969 54.039063 259.296875 54.53125 257.714844 55.503906 C 256.132813 56.476563 254.816406 57.992188 253.773438 60.058594 C 252.722656 62.128906 251.957031 64.773438 251.46875 67.992188 C 250.980469 71.214844 250.75 75.058594 250.777344 79.53125 C 250.808594 84.125 251.070313 88.195313 251.5625 91.742188 C 252.054688 95.289063 252.828125 98.257813 253.882813 100.644531 C 254.9375 103.03125 256.285156 104.839844 257.925781 106.0625 C 259.558594 107.289063 261.554688 107.894531 263.910156 107.878906 M 231.128906 81.542969 C 231.09375 75.582031 231.980469 70.375 233.796875 65.929688 C 235.613281 61.480469 238.039063 57.777344 241.085938 54.8125 C 244.125 51.851563 247.652344 49.632813 251.664063 48.152344 C 255.675781 46.675781 259.863281 45.925781 264.214844 45.894531 C 269.316406 45.863281 273.835938 46.628906 277.769531 48.191406 C 281.703125 49.757813 285.011719 52.023438 287.703125 54.984375 C 290.390625 57.949219 292.433594 61.570313 293.835938 65.835938 C 295.238281 70.105469 295.953125 74.945313 295.988281 80.359375 C 296.027344 86.480469 295.140625 91.785156 293.324219 96.269531 C 291.507813 100.757813 289.082031 104.449219 286.039063 107.355469 C 282.996094 110.257813 279.476563 112.421875 275.484375 113.835938 C 271.488281 115.257813 267.316406 115.980469 262.960938 116.007813 C 257.859375 116.039063 253.34375 115.273438 249.410156 113.710938 C 245.472656 112.148438 242.152344 109.882813 239.445313 106.917969 C 236.738281 103.953125 234.683594 100.335938 233.285156 96.066406 C 231.882813 91.800781 231.164063 86.960938 231.128906 81.542969 "
       id="path12" />
    <path
       style=" stroke:none;fill-rule:nonzero;fill:rgb(3.898621%,8.999634%,25.498962%);fill-opacity:1;"
       d="M 338.484375 104.808594 C 340.878906 104.792969 343.003906 104.328125 344.863281 103.414063 C 346.71875 102.5 348.140625 101.472656 349.109375 100.328125 L 348.824219 55.945313 C 348.15625 55.246094 347.050781 54.625 345.519531 54.085938 C 343.984375 53.546875 342.15625 53.28125 340.039063 53.296875 C 337.917969 53.308594 335.921875 53.773438 334.042969 54.6875 C 332.167969 55.605469 330.527344 57.105469 329.128906 59.195313 C 327.726563 61.285156 326.617188 64.046875 325.796875 67.484375 C 324.972656 70.925781 324.542969 75.15625 324.496094 80.175781 C 324.445313 84.574219 324.742188 88.328125 325.390625 91.445313 C 326.039063 94.558594 326.96875 97.113281 328.175781 99.105469 C 329.386719 101.101563 330.867188 102.554688 332.621094 103.464844 C 334.375 104.375 336.328125 104.824219 338.484375 104.808594 M 331.078125 115.511719 C 327.429688 115.535156 324.023438 114.898438 320.855469 113.605469 C 317.6875 112.3125 314.917969 110.300781 312.542969 107.566406 C 310.175781 104.835938 308.304688 101.382813 306.945313 97.214844 C 305.585938 93.042969 304.886719 88.113281 304.851563 82.425781 C 304.816406 77.046875 305.578125 72.105469 307.136719 67.605469 C 308.699219 63.101563 310.96875 59.214844 313.949219 55.9375 C 316.933594 52.660156 320.574219 50.09375 324.878906 48.242188 C 329.183594 46.390625 334.0625 45.449219 339.519531 45.410156 C 341.167969 45.402344 342.765625 45.46875 344.316406 45.617188 C 345.867188 45.765625 347.347656 45.992188 348.765625 46.292969 L 348.636719 26.28125 L 337.855469 24.527344 L 337.8125 17.816406 L 362.691406 15.125 L 362.988281 15.121094 L 366.652344 17.867188 L 367.21875 105.800781 L 373.753906 105.761719 L 373.800781 113.175781 C 371.839844 113.621094 369.605469 114.097656 367.097656 114.605469 C 364.589844 115.109375 361.84375 115.371094 358.863281 115.394531 C 356.464844 115.40625 354.601563 114.890625 353.257813 113.839844 C 351.917969 112.789063 351.238281 110.871094 351.222656 108.082031 L 351.207031 105.789063 C 350.234375 107.050781 349.074219 108.265625 347.726563 109.429688 C 346.378906 110.597656 344.855469 111.625 343.15625 112.519531 C 341.453125 113.414063 339.597656 114.132813 337.578125 114.675781 C 335.5625 115.21875 333.394531 115.496094 331.078125 115.511719 "
       id="path14" />
    <path
       style=" stroke:none;fill-rule:nonzero;fill:rgb(3.898621%,8.999634%,25.498962%);fill-opacity:1;"
       d="M 409.898438 103.703125 C 410.605469 103.699219 411.410156 103.597656 412.308594 103.394531 C 413.210938 103.191406 414.148438 102.910156 415.132813 102.550781 C 416.109375 102.191406 417.066406 101.765625 418.003906 101.269531 C 418.945313 100.773438 419.765625 100.207031 420.464844 99.574219 L 420.339844 80.09375 C 416.535156 80.117188 413.347656 80.488281 410.78125 81.214844 C 408.21875 81.933594 406.175781 82.890625 404.648438 84.078125 C 403.128906 85.265625 402.050781 86.625 401.410156 88.160156 C 400.773438 89.695313 400.460938 91.324219 400.472656 93.050781 C 400.492188 96.542969 401.304688 99.195313 402.902344 101.011719 C 404.503906 102.824219 406.835938 103.722656 409.898438 103.703125 M 381.890625 95.996094 C 381.871094 93.09375 382.375 90.519531 383.398438 88.277344 C 384.425781 86.03125 385.84375 84.0625 387.65625 82.363281 C 389.472656 80.664063 391.613281 79.21875 394.078125 78.023438 C 396.539063 76.832031 399.199219 75.84375 402.058594 75.058594 C 404.921875 74.277344 407.898438 73.699219 410.996094 73.324219 C 414.09375 72.953125 417.195313 72.71875 420.292969 72.617188 L 420.273438 69.789063 C 420.246094 65.320313 419.3125 62.136719 417.476563 60.246094 C 415.640625 58.355469 412.640625 57.421875 408.484375 57.449219 C 406.363281 57.460938 404.238281 57.640625 402.101563 57.988281 C 399.964844 58.335938 397.917969 58.761719 395.957031 59.265625 C 393.996094 59.769531 392.1875 60.328125 390.523438 60.949219 C 388.859375 61.566406 387.441406 62.15625 386.269531 62.710938 L 386.207031 62.714844 L 382.683594 54.847656 C 383.503906 54.175781 384.890625 53.292969 386.847656 52.199219 C 388.800781 51.109375 391.148438 50.046875 393.890625 49.007813 C 396.628906 47.96875 399.664063 47.066406 402.996094 46.300781 C 406.324219 45.53125 409.757813 45.136719 413.289063 45.113281 C 417.644531 45.085938 421.347656 45.535156 424.390625 46.457031 C 427.4375 47.378906 429.921875 48.816406 431.839844 50.765625 C 433.753906 52.714844 435.160156 55.1875 436.0625 58.183594 C 436.964844 61.179688 437.429688 64.71875 437.453125 68.796875 L 437.691406 105.527344 L 444.988281 105.480469 L 445.035156 112.71875 C 444.292969 112.882813 443.371094 113.09375 442.273438 113.355469 C 441.179688 113.617188 439.960938 113.859375 438.632813 114.085938 C 437.300781 114.308594 435.867188 114.503906 434.335938 114.671875 C 432.808594 114.839844 431.238281 114.925781 429.628906 114.9375 C 428.214844 114.945313 427.011719 114.898438 426.007813 114.785156 C 425.011719 114.671875 424.199219 114.402344 423.59375 113.976563 C 422.980469 113.546875 422.535156 112.933594 422.257813 112.128906 C 421.972656 111.328125 421.828125 110.242188 421.820313 108.867188 L 421.796875 105.453125 C 421.136719 106.359375 420.222656 107.367188 419.054688 108.472656 C 417.882813 109.578125 416.464844 110.628906 414.804688 111.617188 C 413.140625 112.609375 411.253906 113.4375 409.140625 114.097656 C 407.027344 114.757813 404.691406 115.097656 402.140625 115.113281 C 399.355469 115.132813 396.742188 114.773438 394.308594 114.046875 C 391.867188 113.316406 389.734375 112.171875 387.898438 110.617188 C 386.0625 109.054688 384.609375 107.066406 383.535156 104.636719 C 382.460938 102.214844 381.910156 99.332031 381.890625 95.996094 "
       id="path16" />
    <path
       style="fill:#ffd400;fill-opacity:1;fill-rule:nonzero;stroke:none;stroke-width:1.02941"
       d="M 71.80754,47.492079 54.420194,17.373851 c -4.937941,2.123154 -9.530067,4.869582 -13.768332,8.062355 l 12.771093,22.055873"
       id="path18" />
    <path
       style="fill:#ffd400;fill-opacity:1;fill-rule:nonzero;stroke:none;stroke-width:1.02941"
       d="M 72.81282,56.50342 H 65.980929 L 80.847029,83.589719 95.709108,56.50342 H 88.764624 V 12.419824 c -2.589604,-0.301584 -5.207357,-0.50264 -7.877384,-0.50264 -2.738386,0 -5.424498,0.21714 -8.07442,0.534809"
       id="path20" />
    <path
       style="fill:#ffd400;fill-opacity:1;fill-rule:nonzero;stroke:none;stroke-width:1.02941"
       d="m 108.20676,47.492079 12.75099,-22.180527 c -4.24631,-3.176689 -8.84245,-5.919096 -13.78441,-8.026166 L 89.7498,47.492079"
       id="path22" />
    <path
       style="fill:#ffd400;fill-opacity:1;fill-rule:nonzero;stroke:none;stroke-width:1.02941"
       d="m 72.977686,121.46068 0.04021,24.1187 c 2.585584,0.30561 5.203335,0.50264 7.869342,0.50264 2.742408,0 5.428519,-0.21312 8.082462,-0.53481 l -0.04021,-24.08653"
       id="path24" />
    <path
       style="fill:#ffd400;fill-opacity:1;fill-rule:nonzero;stroke:none;stroke-width:1.02941"
       d="m 147.93146,79.001615 c 0,-2.742407 -0.21312,-5.428519 -0.53481,-8.082462 l -36.75308,0.0563 31.83927,-18.460986 c -2.12718,-4.937942 -4.86959,-9.530067 -8.06236,-13.772354 l -15.34864,8.894729 v 7.36268 l -5.92713,1.503901 -21.613552,35.896585 v 20.395152 l 11.025922,1.36317 v 7.30236 h -6.301099 l 11.102329,19.1687 c 4.93391,-2.12315 9.52604,-4.86958 13.76431,-8.06236 l -18.41273,-31.79504 31.83524,18.32427 c 3.18072,-4.25434 5.91508,-8.8505 8.02617,-13.79647 l -31.90361,-18.364492 36.76113,-0.0563 c 0.30159,-2.589605 0.50264,-5.207356 0.50264,-7.877384"
       id="path26" />
    <path
       style="fill:#ffd400;fill-opacity:1;fill-rule:nonzero;stroke:none;stroke-width:1.02941"
       d="m 59.132953,121.46068 v -7.30236 l 11.025925,-1.36317 V 92.400005 L 48.54533,56.50342 42.618192,54.999519 V 47.765515 L 27.233366,38.906976 c -3.180709,4.250329 -5.919096,8.850496 -8.026165,13.796481 l 31.903607,18.364478 -36.761127,0.0563 c -0.301583,2.585584 -0.50264,5.207357 -0.50264,7.877385 0,2.738385 0.213119,5.428518 0.534809,8.082461 l 36.753084,-0.0563 -31.839268,18.456959 c 2.123154,4.94197 4.869583,9.53409 8.062356,13.77638 l 31.774931,-18.42077 -18.312204,31.85133 c 4.246308,3.17669 8.842454,5.91909 13.784417,8.02617 l 11.074179,-19.25717"
       id="path28" />
    <path
       style="fill:#07143f;fill-opacity:1;fill-rule:nonzero;stroke:none;stroke-width:0.922971"
       d="m 181.24407,126.61864 c 0.48916,-0.004 0.89181,0.0352 1.21126,0.11328 l -0.22295,2.66407 c -0.34608,-0.0937 -0.70547,-0.14063 -1.07816,-0.14063 -0.97167,0.008 -1.76031,0.38672 -2.35929,1.13672 -0.59897,0.75 -0.89846,1.72266 -0.89181,2.91406 l 0.0399,7.02344 -2.43251,0.0195 -0.0732,-13.4414 1.90341,-0.0156 0.33276,2.36719 h 0.12646 c 0.37269,-0.80469 0.86518,-1.44531 1.47414,-1.92188 0.60895,-0.47265 1.2645,-0.71484 1.96996,-0.71875"
       id="path30" />
    <path
       style="fill:#07143f;fill-opacity:1;fill-rule:nonzero;stroke:none;stroke-width:0.922971"
       d="m 188.61478,128.72802 c -0.77534,0.004 -1.39095,0.29687 -1.85349,0.875 -0.46255,0.57812 -0.73873,1.42187 -0.8186,2.52344 l 5.19444,-0.0391 c -0.02,-1.10937 -0.2529,-1.94922 -0.69548,-2.51562 -0.44589,-0.57031 -1.05486,-0.85156 -1.82687,-0.84375 m 0.50913,11.75781 c -1.78028,0.0156 -3.17789,-0.58203 -4.18616,-1.79687 -1.01161,-1.21094 -1.52406,-2.88672 -1.53738,-5.02344 -0.01,-2.19531 0.44591,-3.92578 1.37099,-5.1875 0.92509,-1.26563 2.20289,-1.90235 3.83011,-1.91406 1.51075,-0.0117 2.70869,0.51953 3.59052,1.58984 0.88516,1.07031 1.33106,2.55078 1.34103,4.4375 l 0.007,1.54297 -7.63027,0.0586 c 0.0433,1.30469 0.3494,2.30469 0.91843,3 0.56902,0.69531 1.36766,1.03906 2.39589,1.03125 0.67551,-0.004 1.30777,-0.082 1.89011,-0.23828 0.58233,-0.15234 1.20793,-0.40625 1.87345,-0.76172 l 0.0133,2.32422 c -0.59232,0.33594 -1.19129,0.57422 -1.79692,0.71484 -0.60563,0.14454 -1.3011,0.21875 -2.07977,0.22266"
       id="path32" />
    <path
       style="fill:#07143f;fill-opacity:1;fill-rule:nonzero;stroke:none;stroke-width:0.922971"
       d="m 203.47933,136.31005 c 0.007,1.30859 -0.39599,2.32031 -1.2046,3.02734 -0.81194,0.70703 -1.97661,1.06641 -3.49402,1.07813 -1.52739,0.0117 -2.75196,-0.25 -3.68037,-0.78906 l -0.0133,-2.46485 c 1.35103,0.71875 2.60555,1.07422 3.76356,1.06641 1.49744,-0.0117 2.24282,-0.54688 2.23617,-1.60938 0,-0.33984 -0.0832,-0.625 -0.24957,-0.85156 -0.16971,-0.22266 -0.44257,-0.45703 -0.82525,-0.69531 -0.37936,-0.24219 -0.90845,-0.51172 -1.58729,-0.81641 -1.32107,-0.58984 -2.2162,-1.18359 -2.6854,-1.77734 -0.4692,-0.59766 -0.70545,-1.3711 -0.71211,-2.32813 -0.007,-1.15234 0.38268,-2.04687 1.17132,-2.6914 0.78533,-0.64063 1.86015,-0.96485 3.22116,-0.97657 1.34436,-0.0117 2.61885,0.30079 3.82345,0.92969 l -0.77534,2.15625 c -1.23788,-0.58594 -2.27943,-0.8789 -3.12132,-0.875 -1.28447,0.0117 -1.92338,0.44531 -1.91672,1.30469 0,0.42187 0.16971,0.77734 0.5058,1.06641 0.3361,0.28906 1.06817,0.68359 2.19624,1.18359 0.94837,0.42578 1.6372,0.8125 2.06646,1.16406 0.42926,0.35547 0.75205,0.76172 0.96169,1.22656 0.20964,0.46485 0.31613,1.02344 0.31945,1.67188"
       id="path34" />
    <path
       style="fill:#07143f;fill-opacity:1;fill-rule:nonzero;stroke:none;stroke-width:0.922971"
       d="m 210.09134,128.56396 c -0.77533,0.008 -1.39095,0.30078 -1.85349,0.8789 -0.46253,0.57813 -0.73873,1.41797 -0.8186,2.51953 l 5.19444,-0.0391 c -0.02,-1.10937 -0.2529,-1.94531 -0.69547,-2.51562 -0.4459,-0.56641 -1.05486,-0.84766 -1.82688,-0.84375 m 0.50914,11.76171 c -1.78029,0.0117 -3.1779,-0.58593 -4.18617,-1.79687 -1.0116,-1.21484 -1.52406,-2.88672 -1.53737,-5.02734 -0.01,-2.19532 0.44591,-3.92579 1.37098,-5.1875 0.92509,-1.26172 2.20291,-1.89844 3.83011,-1.91407 1.51075,-0.008 2.70871,0.51953 3.59053,1.58985 0.88515,1.07422 1.33105,2.55078 1.34104,4.4375 l 0.007,1.54687 -7.63028,0.0547 c 0.0433,1.30469 0.34941,2.30469 0.91843,3.00391 0.56903,0.69531 1.36766,1.03906 2.39591,1.03125 0.67883,-0.004 1.30775,-0.0859 1.89009,-0.23829 0.58233,-0.15234 1.20793,-0.41015 1.87346,-0.76171 l 0.0133,2.32031 c -0.59232,0.33594 -1.19129,0.57422 -1.79692,0.71875 -0.60564,0.14453 -1.30111,0.21484 -2.07978,0.22265"
       id="path36" />
    <path
       style="fill:#07143f;fill-opacity:1;fill-rule:nonzero;stroke:none;stroke-width:0.922971"
       d="m 220.81631,138.06005 c 0.88183,-0.008 1.59062,-0.30078 2.11971,-0.88281 0.53242,-0.58594 0.79863,-1.39844 0.79197,-2.44532 l -0.007,-1.16796 -1.47082,0.0859 c -1.1447,0.0586 -1.97661,0.28907 -2.49572,0.69532 -0.51911,0.40234 -0.77535,1.01953 -0.77202,1.84765 0.003,0.59766 0.1564,1.0586 0.46254,1.38672 0.30614,0.32422 0.76203,0.48828 1.37099,0.48047 m 3.63377,1.91797 -0.49581,-1.86719 h -0.0865 c -0.54573,0.82422 -1.09812,1.38281 -1.65716,1.68359 -0.55572,0.30079 -1.27449,0.45313 -2.14965,0.46094 -1.12474,0.008 -2.00324,-0.34375 -2.63881,-1.05078 -0.63559,-0.70703 -0.95837,-1.71484 -0.96502,-3.01953 -0.01,-1.38672 0.42593,-2.43359 1.29777,-3.14453 0.87184,-0.71094 2.20623,-1.10547 3.99982,-1.1836 l 1.97662,-0.0898 -0.003,-0.71484 c -0.007,-0.85938 -0.17968,-1.5 -0.52243,-1.92188 -0.34607,-0.42578 -0.87517,-0.63281 -1.59394,-0.6289 -0.58566,0.004 -1.14803,0.10937 -1.6871,0.3164 -0.53576,0.20703 -1.05155,0.44922 -1.54736,0.73047 l -0.79864,-2.03516 c 0.61895,-0.38671 1.29779,-0.67968 2.03652,-0.88671 0.73541,-0.20313 1.43088,-0.3086 2.08976,-0.3125 1.45417,-0.0117 2.55563,0.35546 3.30101,1.09375 0.74872,0.73828 1.12474,1.90625 1.1314,3.5039 l 0.0499,9.05469"
       id="path38" />
    <path
       style="fill:#07143f;fill-opacity:1;fill-rule:nonzero;stroke:none;stroke-width:0.922971"
       d="m 234.78573,126.2163 c 0.4925,-0.004 0.89514,0.0312 1.2146,0.11328 l -0.22629,2.66016 c -0.34275,-0.0937 -0.70546,-0.13672 -1.07482,-0.13672 -0.975,0.008 -1.76032,0.38672 -2.36263,1.13672 -0.59897,0.75 -0.89513,1.71875 -0.88847,2.91015 l 0.0366,7.02344 -2.42917,0.0195 -0.0765,-13.4414 1.90673,-0.0117 0.33277,2.36718 0.12312,-0.004 c 0.37602,-0.80078 0.86852,-1.44531 1.47747,-1.91797 0.60896,-0.47266 1.2645,-0.71484 1.96663,-0.71875"
       id="path40" />
    <path
       style="fill:#07143f;fill-opacity:1;fill-rule:nonzero;stroke:none;stroke-width:0.922971"
       d="m 242.2829,140.08739 c -1.73038,0.0117 -3.05144,-0.57031 -3.95989,-1.75 -0.90511,-1.18359 -1.36765,-2.88281 -1.37764,-5.10156 -0.0133,-2.26172 0.44923,-4.00391 1.38429,-5.22266 0.93507,-1.22265 2.29275,-1.83984 4.07304,-1.85546 1.20793,-0.008 2.29607,0.24609 3.26773,0.76562 l -0.7221,2.30078 c -1.03156,-0.46094 -1.88343,-0.6875 -2.55229,-0.68359 -1.97995,0.0156 -2.9616,1.5664 -2.94496,4.65234 0.007,1.50781 0.25956,2.63672 0.7587,3.39063 0.49582,0.7539 1.22124,1.1289 2.17295,1.12109 1.08481,-0.008 2.10639,-0.33203 3.0714,-0.97266 l 0.0133,2.49219 c -0.43258,0.30078 -0.89513,0.52344 -1.38761,0.65625 -0.4925,0.13281 -1.09147,0.19922 -1.79693,0.20703"
       id="path42" />
    <path
       style="fill:#07143f;fill-opacity:1;fill-rule:nonzero;stroke:none;stroke-width:0.922971"
       d="m 257.7065,139.72802 -2.44582,0.0156 -0.0433,-8.26172 c -0.007,-1.03906 -0.18967,-1.80859 -0.54573,-2.3164 -0.35938,-0.50781 -0.92508,-0.75781 -1.6971,-0.75391 -1.02158,0.008 -1.7703,0.3711 -2.24615,1.09375 -0.47585,0.71875 -0.70879,1.92188 -0.69881,3.60938 l 0.0333,6.67187 -2.42917,0.0156 -0.10316,-18.91016 2.43251,-0.0156 0.0233,4.80078 c 0.007,0.76562 -0.0333,1.58984 -0.10982,2.46484 h 0.1564 c 0.32611,-0.65234 0.78532,-1.15625 1.37432,-1.51562 0.58566,-0.36329 1.27449,-0.54688 2.05981,-0.55079 2.77525,-0.0234 4.17285,1.60938 4.18949,4.88672"
       id="path44" />
    <path
       style="fill:#07143f;fill-opacity:1;fill-rule:nonzero;stroke:none;stroke-width:0.922971"
       d="m 270.04204,137.56786 c 0.99829,-0.008 1.72704,-0.34375 2.17961,-1.00781 0.44923,-0.66406 0.67883,-1.73438 0.68548,-3.21875 l -0.003,-0.40234 c -0.007,-1.69141 -0.24958,-2.89454 -0.7221,-3.60157 -0.47585,-0.71093 -1.21126,-1.0625 -2.21288,-1.05468 -0.8552,0.008 -1.51074,0.41796 -1.96996,1.23828 -0.45589,0.8164 -0.68217,1.98047 -0.67551,3.48437 0.01,1.49219 0.23959,2.62891 0.69215,3.40625 0.45256,0.77735 1.12807,1.16406 2.02653,1.15625 m -0.63891,2.3125 c -1.43088,0.0117 -2.54897,-0.58594 -3.35426,-1.79687 -0.80861,-1.20703 -1.2179,-2.91016 -1.23122,-5.10547 -0.01,-2.20703 0.386,-3.92188 1.19129,-5.15625 0.80196,-1.23438 1.92337,-1.85547 3.35759,-1.86719 1.50409,-0.0117 2.65545,0.63281 3.44743,1.92969 h 0.12645 c -0.12312,-0.96094 -0.18634,-1.72266 -0.18968,-2.28516 l -0.0267,-4.89453 2.44249,-0.0195 0.10316,18.91016 -1.90341,0.0117 -0.4326,-1.75781 -0.11646,0.004 c -0.77201,1.33984 -1.91006,2.01953 -3.41416,2.02734"
       id="path46" />
    <path
       style="fill:#07143f;fill-opacity:1;fill-rule:nonzero;stroke:none;stroke-width:0.922971"
       d="m 281.74866,137.60302 c 0.88516,-0.008 1.59061,-0.30469 2.12304,-0.88672 0.53242,-0.58203 0.7953,-1.39844 0.78865,-2.44141 l -0.007,-1.16797 -1.46748,0.0859 c -1.14803,0.0547 -1.97994,0.28516 -2.49906,0.69141 -0.51578,0.40625 -0.77533,1.01953 -0.77201,1.84765 0.007,0.59766 0.15973,1.0625 0.46587,1.38672 0.30281,0.32813 0.76202,0.48828 1.36766,0.48438 m 3.63377,1.91406 -0.49582,-1.86719 h -0.0832 c -0.54906,0.82422 -1.10145,1.38672 -1.66049,1.6836 -0.55572,0.30078 -1.27116,0.45312 -2.14633,0.46093 -1.12807,0.008 -2.00657,-0.33984 -2.64214,-1.05078 -0.63558,-0.70703 -0.95504,-1.71484 -0.96501,-3.01562 -0.007,-1.38672 0.42593,-2.4336 1.29777,-3.14844 0.87184,-0.71094 2.20623,-1.10547 4.00315,-1.18359 l 1.97329,-0.0898 -0.003,-0.71484 c -0.003,-0.85938 -0.17968,-1.5 -0.52243,-1.92188 -0.34275,-0.42187 -0.87517,-0.63281 -1.59061,-0.625 -0.58899,0.004 -1.15137,0.10938 -1.68711,0.3125 -0.53576,0.21094 -1.05486,0.45313 -1.55069,0.73047 l -0.79529,-2.03515 c 0.61893,-0.38672 1.29445,-0.67969 2.03318,-0.88282 0.73541,-0.20703 1.43421,-0.30859 2.08975,-0.3164 1.45751,-0.008 2.55563,0.35547 3.30435,1.09375 0.74538,0.74219 1.12141,1.91015 1.13139,3.5039 l 0.0466,9.05469"
       id="path48" />
    <path
       style="fill:#07143f;fill-opacity:1;fill-rule:nonzero;stroke:none;stroke-width:0.922971"
       d="m 294.24061,137.38427 c 0.59232,-0.004 1.18797,-0.11719 1.78029,-0.33985 l 0.0133,2.15235 c -0.26954,0.13672 -0.61894,0.2539 -1.04155,0.35156 -0.42261,0.0977 -0.86186,0.14844 -1.31775,0.14844 -2.30605,0.0195 -3.46739,-1.39844 -3.4807,-4.25 l -0.0399,-7.24219 -1.56398,0.0117 -0.007,-1.26563 1.67048,-1.05859 0.81194,-2.84766 1.50409,-0.0117 0.0133,2.98828 3.26441,-0.0234 0.01,2.16406 -3.26109,0.0234 0.0399,7.19531 c 0.003,0.6875 0.15308,1.19531 0.44591,1.52344 0.29616,0.32422 0.68217,0.48437 1.15801,0.48047"
       id="path50" />
    <path
       style="fill:#07143f;fill-opacity:1;fill-rule:nonzero;stroke:none;stroke-width:0.922971"
       d="m 301.32182,137.45458 c 0.88182,-0.008 1.59061,-0.30469 2.12304,-0.88672 0.53242,-0.58203 0.7953,-1.39844 0.78864,-2.4414 l -0.007,-1.16797 -1.46749,0.0859 c -1.14803,0.0547 -1.97994,0.28516 -2.49906,0.69141 -0.51911,0.40625 -0.77533,1.02344 -0.77201,1.84766 0.003,0.60156 0.15974,1.0625 0.46255,1.38672 0.30614,0.32812 0.76203,0.48828 1.37098,0.48437 m 3.63378,1.91797 -0.49582,-1.86719 h -0.0832 c -0.54905,0.82031 -1.10144,1.38281 -1.65716,1.6836 -0.55904,0.29687 -1.27449,0.45312 -2.15298,0.45703 -1.12474,0.008 -2.00323,-0.33985 -2.63882,-1.04688 -0.63557,-0.71094 -0.95835,-1.71484 -0.96501,-3.01953 -0.01,-1.38672 0.42594,-2.43359 1.29778,-3.14844 0.87184,-0.71093 2.20622,-1.10547 3.99982,-1.18359 l 1.97662,-0.0859 -0.003,-0.71875 c -0.007,-0.85937 -0.17969,-1.5 -0.52243,-1.92187 -0.34276,-0.42188 -0.87518,-0.63282 -1.59394,-0.625 -0.58567,0.004 -1.14804,0.10937 -1.68712,0.3125 -0.53574,0.21093 -1.05153,0.45312 -1.54735,0.73047 l -0.79863,-2.03516 c 0.62226,-0.38672 1.29778,-0.67969 2.03652,-0.88281 0.7354,-0.20313 1.43088,-0.3086 2.08975,-0.31641 1.4575,-0.008 2.55562,0.35547 3.30434,1.09375 0.74539,0.74219 1.12142,1.91016 1.12808,3.50391 l 0.0532,9.05468"
       id="path52" />
    <path
       style="fill:#07143f;fill-opacity:1;fill-rule:nonzero;stroke:none;stroke-width:0.922971"
       d="m 324.18601,139.22411 -2.44248,0.0195 -0.0466,-8.28906 c -0.007,-1.02734 -0.17304,-1.79297 -0.50913,-2.29687 -0.33277,-0.50391 -0.85188,-0.75391 -1.55733,-0.7461 -0.9384,0.004 -1.6239,0.36719 -2.05981,1.08594 -0.43259,0.72266 -0.64556,1.91797 -0.6389,3.58594 l 0.0366,6.69531 -2.42918,0.0195 -0.0732,-13.44141 1.90341,-0.0156 0.34941,1.76172 h 0.12644 c 0.3128,-0.64453 0.77201,-1.14063 1.37432,-1.4961 0.6023,-0.35156 1.2645,-0.53125 1.98993,-0.53515 1.75698,-0.0156 2.92831,0.67969 3.51066,2.08984 l 0.16304,-0.004 c 0.3361,-0.66797 0.80862,-1.1875 1.42091,-1.56641 0.61228,-0.37891 1.31442,-0.57031 2.10971,-0.57422 1.36767,-0.0117 2.36263,0.38672 2.99488,1.19141 0.62892,0.80468 0.94838,2.03906 0.95503,3.69922 l 0.05,8.76171 -2.43251,0.0195 -0.0466,-8.28907 c -0.007,-1.02734 -0.17635,-1.79297 -0.51577,-2.29687 -0.3361,-0.50391 -0.85854,-0.75391 -1.56067,-0.75 -0.94505,0.008 -1.63719,0.35937 -2.06979,1.05859 -0.43592,0.69141 -0.64889,1.75781 -0.64223,3.19141"
       id="path54" />
    <path
       style="fill:#07143f;fill-opacity:1;fill-rule:nonzero;stroke:none;stroke-width:0.922971"
       d="m 337.80935,137.17724 c 0.88183,-0.004 1.59062,-0.30078 2.11971,-0.88282 0.53242,-0.58593 0.79863,-1.39843 0.79197,-2.44531 l -0.007,-1.16406 -1.47081,0.082 c -1.14471,0.0586 -1.97662,0.28906 -2.49574,0.69531 -0.51911,0.40235 -0.77533,1.01953 -0.77201,1.84766 0.003,0.59766 0.1564,1.0625 0.46255,1.38672 0.30614,0.32422 0.76203,0.48828 1.37098,0.48047 m 3.63378,1.91797 -0.49582,-1.86719 h -0.0832 c -0.54905,0.82422 -1.10144,1.38281 -1.66048,1.68359 -0.55572,0.30078 -1.27449,0.45313 -2.14966,0.46094 -1.12474,0.008 -2.00323,-0.34375 -2.63882,-1.05078 -0.63557,-0.70703 -0.95835,-1.71485 -0.96501,-3.01953 -0.01,-1.38282 0.42594,-2.4336 1.29778,-3.14453 0.87184,-0.71094 2.20622,-1.10547 3.99982,-1.1836 l 1.97662,-0.0898 -0.003,-0.71485 c -0.007,-0.85937 -0.17969,-1.5 -0.52243,-1.92187 -0.34608,-0.42578 -0.87518,-0.63281 -1.59394,-0.62891 -0.58567,0.004 -1.14804,0.10938 -1.68712,0.31641 -0.53574,0.20703 -1.05153,0.44922 -1.54735,0.73047 l -0.79863,-2.03516 c 0.61894,-0.38672 1.29778,-0.67969 2.03652,-0.88672 0.73541,-0.20312 1.43088,-0.30859 2.08976,-0.3125 1.45417,-0.0117 2.55561,0.35547 3.30101,1.09375 0.74872,0.74219 1.12474,1.90625 1.1314,3.50391 l 0.0499,9.05469"
       id="path56" />
    <path
       style="fill:#07143f;fill-opacity:1;fill-rule:nonzero;stroke:none;stroke-width:0.922971"
       d="m 356.11801,138.98583 -2.44249,0.0156 -0.0433,-8.26172 c -0.007,-1.03907 -0.18967,-1.8086 -0.54573,-2.31641 -0.35939,-0.50781 -0.92509,-0.75781 -1.69709,-0.75391 -1.02825,0.008 -1.78029,0.3711 -2.25281,1.08594 -0.47253,0.71875 -0.70213,1.91406 -0.69548,3.58985 l 0.0366,6.69531 -2.42917,0.0195 -0.0732,-13.44141 1.90341,-0.0156 0.3494,1.76172 h 0.12645 c 0.33942,-0.64453 0.82859,-1.14063 1.46083,-1.4961 0.63226,-0.35156 1.33439,-0.53125 2.10973,-0.53906 2.74529,-0.0195 4.12959,1.60938 4.14623,4.89063"
       id="path58" />
    <path
       style="fill:#07143f;fill-opacity:1;fill-rule:nonzero;stroke:none;stroke-width:0.922971"
       d="m 362.50374,136.99364 c 0.88515,-0.008 1.59061,-0.30468 2.12304,-0.88672 0.53242,-0.58203 0.7953,-1.39843 0.78865,-2.4414 l -0.003,-1.16797 -1.47081,0.0859 c -1.14803,0.0547 -1.97662,0.28515 -2.49573,0.6914 -0.51911,0.40625 -0.77533,1.01953 -0.77201,1.84766 0.003,0.60156 0.1564,1.0625 0.46254,1.38672 0.30615,0.32812 0.76203,0.48828 1.36766,0.48437 m 3.63377,1.91407 -0.49581,-1.86719 h -0.0832 c -0.54575,0.82422 -1.10146,1.38672 -1.65718,1.6875 -0.55571,0.29687 -1.27447,0.44922 -2.14965,0.45703 -1.12474,0.008 -2.00324,-0.33984 -2.64213,-1.05078 -0.63559,-0.70703 -0.95504,-1.71485 -0.96502,-3.01563 -0.007,-1.38672 0.42593,-2.43359 1.3011,-3.14843 0.87185,-0.71094 2.2029,-1.10547 3.99983,-1.1836 l 1.97661,-0.0898 -0.003,-0.71485 c -0.007,-0.85937 -0.17969,-1.5 -0.52244,-1.92187 -0.34607,-0.42188 -0.8785,-0.63281 -1.59393,-0.625 -0.589,0 -1.14805,0.10937 -1.68712,0.3125 -0.53576,0.21094 -1.05153,0.45312 -1.54735,0.73047 L 359.27,126.44286 c 0.61894,-0.38672 1.29777,-0.67969 2.03318,-0.88281 0.73874,-0.20313 1.43422,-0.30859 2.08976,-0.31641 1.45751,-0.008 2.55895,0.35547 3.30434,1.09375 0.74539,0.74219 1.12474,1.91016 1.13139,3.50391 l 0.0499,9.05469"
       id="path60" />
    <g
       clip-path="url(#clip1)"
       clip-rule="nonzero"
       id="g64"
       transform="matrix(0.85628955,0,0,1,24.605853,-14.221196)">
      <path
         style="fill:#07143f;fill-opacity:1;fill-rule:nonzero;stroke:none"
         d="m 405.74609,143.99219 c 0.004,0.84375 0.22657,1.48828 0.66016,1.9414 0.4375,0.44922 1.0625,0.67188 1.87109,0.66797 1.65235,-0.0117 2.47266,-0.89844 2.46094,-2.66797 -0.004,-0.87109 -0.21094,-1.54687 -0.625,-2.01953 -0.41406,-0.46875 -1.03516,-0.70312 -1.87109,-0.69531 -0.82422,0.004 -1.44922,0.24219 -1.8711,0.71484 -0.42187,0.47266 -0.63281,1.16016 -0.625,2.0586 m -1.15625,11.1875 c 0.004,0.61718 0.28516,1.08984 0.83985,1.41797 0.55859,0.32812 1.33984,0.48828 2.34375,0.48437 1.55468,-0.0117 2.71484,-0.24219 3.47265,-0.69141 0.75782,-0.45312 1.13672,-1.04687 1.13282,-1.78125 -0.008,-0.58593 -0.21875,-1 -0.63672,-1.24218 -0.41797,-0.2461 -1.19532,-0.36328 -2.32813,-0.35547 l -2.16406,0.0117 c -0.82031,0.008 -1.46875,0.20312 -1.94531,0.58984 -0.48047,0.38672 -0.71875,0.91016 -0.71485,1.56641 m 10.46094,-15.59766 0.0117,1.56641 -2.29688,0.4414 c 0.21485,0.28125 0.39063,0.62891 0.53125,1.04297 0.14063,0.41016 0.21094,0.84766 0.21485,1.3086 0.008,1.38671 -0.46094,2.48046 -1.41406,3.28125 -0.94922,0.79687 -2.26563,1.20312 -3.94141,1.21484 -0.42969,0.004 -0.81641,-0.0273 -1.16797,-0.0898 -0.61328,0.38281 -0.91797,0.83203 -0.91406,1.34375 0,0.30859 0.14844,0.53515 0.4375,0.6875 0.28515,0.15234 0.8164,0.22656 1.58594,0.22265 l 2.34375,-0.0156 c 1.48437,-0.0117 2.61328,0.30078 3.38671,0.92578 0.77344,0.6289 1.16407,1.53515 1.17188,2.72656 0.008,1.52344 -0.60938,2.70313 -1.86328,3.53516 -1.25,0.83593 -3.0625,1.26172 -5.4336,1.27734 -1.83203,0.0117 -3.23046,-0.30469 -4.19921,-0.94531 -0.96875,-0.64453 -1.45704,-1.5625 -1.46485,-2.76172 -0.008,-0.82813 0.25,-1.52344 0.76953,-2.08984 0.51953,-0.56641 1.25,-0.96094 2.1875,-1.1875 -0.38281,-0.16016 -0.69922,-0.41797 -0.94531,-0.77735 -0.25,-0.35937 -0.37891,-0.73828 -0.37891,-1.13281 -0.004,-0.50391 0.13282,-0.92969 0.41797,-1.27734 0.27735,-0.35157 0.69922,-0.69922 1.25391,-1.04297 -0.69922,-0.29688 -1.26563,-0.78125 -1.70313,-1.45313 -0.4375,-0.67187 -0.66015,-1.46484 -0.66406,-2.37109 -0.0117,-1.46094 0.44141,-2.59375 1.35547,-3.40235 0.91406,-0.80859 2.22266,-1.21484 3.92188,-1.22656 0.38281,-0.004 0.78125,0.0195 1.19921,0.0703 0.41797,0.0508 0.73047,0.10157 0.94532,0.15625"
         id="path62" />
    </g>
    <path
       style="fill:#07143f;fill-opacity:1;fill-rule:nonzero;stroke:none;stroke-width:0.922971"
       d="m 386.496,127.23583 c -0.77202,0.004 -1.38763,0.29688 -1.85017,0.875 -0.46254,0.57813 -0.73873,1.42188 -0.82192,2.52344 l 5.19776,-0.0391 c -0.02,-1.10938 -0.2529,-1.94922 -0.69547,-2.51954 -0.4459,-0.5664 -1.05487,-0.84765 -1.8302,-0.83984 m 0.51246,11.75781 c -1.78362,0.0156 -3.17789,-0.58203 -4.1895,-1.79687 -1.00828,-1.21094 -1.52073,-2.88672 -1.53404,-5.02344 -0.01,-2.19922 0.44591,-3.92578 1.37098,-5.1875 0.92509,-1.26562 2.19957,-1.90234 3.83011,-1.91406 1.51076,-0.0117 2.70871,0.51953 3.59053,1.58984 0.88182,1.07031 1.32773,2.55078 1.34104,4.4375 l 0.007,1.54297 -7.63028,0.0586 c 0.0399,1.30469 0.34608,2.30469 0.91843,3 0.56904,0.69532 1.36767,1.03907 2.3959,1.03125 0.67552,-0.004 1.30444,-0.082 1.8901,-0.23828 0.58234,-0.15234 1.2046,-0.40625 1.87346,-0.76172 l 0.0133,2.32422 c -0.59232,0.33594 -1.19129,0.57422 -1.79692,0.71485 -0.60896,0.14453 -1.30111,0.21875 -2.07977,0.22265"
       id="path66" />
    <path
       style="fill:#07143f;fill-opacity:1;fill-rule:nonzero;stroke:none;stroke-width:0.922971"
       d="m 403.34049,138.63036 -2.44248,0.0156 -0.0466,-8.28516 c -0.007,-1.03125 -0.17303,-1.79687 -0.50912,-2.30078 -0.33277,-0.50391 -0.85188,-0.75391 -1.55734,-0.74609 -0.93839,0.004 -1.62389,0.36718 -2.05981,1.08984 -0.43259,0.71875 -0.64556,1.91406 -0.63891,3.58203 l 0.0366,6.69531 -2.42918,0.0195 -0.0732,-13.4414 1.90341,-0.0156 0.3494,1.76172 h 0.12645 c 0.3128,-0.64453 0.77201,-1.14062 1.37431,-1.49609 0.60231,-0.35156 1.26451,-0.53125 1.98993,-0.53516 1.75699,-0.0156 2.92832,0.6836 3.51065,2.08985 l 0.16306,-0.004 c 0.33609,-0.66797 0.80862,-1.1875 1.4209,-1.56641 0.61228,-0.375 1.31441,-0.5664 2.10972,-0.57422 1.36766,-0.0117 2.36262,0.38672 2.99155,1.19141 0.63224,0.80859 0.9517,2.03906 0.95835,3.69922 l 0.0499,8.76172 -2.4325,0.0195 -0.0466,-8.28516 c -0.007,-1.03125 -0.17637,-1.79687 -0.51579,-2.30078 -0.33608,-0.5039 -0.85853,-0.7539 -1.56066,-0.75 -0.94504,0.008 -1.63719,0.35938 -2.06978,1.0586 -0.43592,0.6914 -0.64889,1.75781 -0.64223,3.1914"
       id="path68" />
    <path
       style="fill:#07143f;fill-opacity:1;fill-rule:nonzero;stroke:none;stroke-width:0.922971"
       d="m 417.92553,126.99755 c -0.77201,0.004 -1.39096,0.29687 -1.8535,0.875 -0.46254,0.57812 -0.73541,1.42187 -0.8186,2.52344 l 5.19444,-0.0391 c -0.02,-1.10937 -0.2529,-1.94921 -0.69547,-2.51562 -0.44591,-0.57031 -1.05487,-0.85156 -1.82687,-0.84375 m 0.50912,11.76172 c -1.78029,0.0117 -3.17789,-0.58594 -4.18617,-1.80078 -1.0116,-1.21094 -1.52405,-2.88672 -1.53404,-5.02344 -0.0133,-2.19531 0.44258,-3.92578 1.36766,-5.1875 0.92509,-1.26172 2.2029,-1.90234 3.83011,-1.91406 1.51075,-0.0117 2.7087,0.51953 3.59053,1.58984 0.88514,1.07031 1.33105,2.55078 1.34103,4.4375 l 0.007,1.54297 -7.63027,0.0586 c 0.0433,1.30469 0.3494,2.30469 0.91843,3 0.56903,0.69922 1.36766,1.04297 2.3959,1.03516 0.67884,-0.008 1.30776,-0.0859 1.89009,-0.23828 0.58235,-0.15625 1.20794,-0.41016 1.87346,-0.76172 l 0.0133,2.32031 c -0.58899,0.33594 -1.1913,0.57422 -1.79692,0.71875 -0.60563,0.14063 -1.30111,0.21485 -2.07978,0.22266"
       id="path70" />
    <path
       style="fill:#07143f;fill-opacity:1;fill-rule:nonzero;stroke:none;stroke-width:0.922971"
       d="m 435.1893,138.38817 -2.44248,0.0195 -0.0433,-8.26563 c -0.007,-1.03516 -0.18967,-1.80859 -0.54573,-2.31641 -0.35938,-0.50781 -0.92508,-0.75781 -1.69709,-0.7539 -1.02824,0.008 -1.78029,0.37109 -2.25281,1.08594 -0.47252,0.71875 -0.70213,1.91406 -0.69214,3.58984 l 0.0366,6.69922 -2.43251,0.0156 -0.0732,-13.4414 1.90342,-0.0117 0.35272,1.75781 h 0.12312 c 0.33942,-0.64453 0.82859,-1.14062 1.46084,-1.49609 0.63224,-0.35157 1.33438,-0.53125 2.10972,-0.53516 2.7453,-0.0234 4.1296,1.60938 4.14623,4.89063"
       id="path72" />
    <g
       clip-path="url(#clip2)"
       clip-rule="nonzero"
       id="g76"
       transform="matrix(0.85187488,0,0,1,26.76854,-14.221196)">
      <path
         style="fill:#07143f;fill-opacity:1;fill-rule:nonzero;stroke:none"
         d="m 487.78516,150.48828 c 0.69531,-0.004 1.39453,-0.11719 2.08593,-0.33984 l 0.0156,2.15234 c -0.31641,0.13672 -0.72266,0.25391 -1.21875,0.35156 -0.4961,0.0977 -1.01563,0.14844 -1.54688,0.15235 -2.70703,0.0156 -4.07031,-1.40235 -4.08984,-4.25391 l -0.0469,-7.24219 -1.83203,0.0117 -0.008,-1.26562 1.96094,-1.05469 0.95312,-2.85156 1.76172,-0.0117 0.0195,2.98828 3.83203,-0.0234 0.0117,2.16406 -3.82812,0.0234 0.043,7.19531 c 0.004,0.6875 0.18359,1.19532 0.52734,1.52344 0.34766,0.32422 0.80078,0.48438 1.35938,0.48047"
         id="path74" />
    </g>
  </g>
</svg>
