<?xml version="1.0" encoding="UTF-8" standalone="no"?><svg xmlns="http://www.w3.org/2000/svg" xmlns:xlink="http://www.w3.org/1999/xlink" contentScriptType="application/ecmascript" contentStyleType="text/css" height="3235.4167px" preserveAspectRatio="none" style="width:1906px;height:3235px;background:#282C34;" version="1.1" viewBox="0 0 1906 3235" width="1906.25px" zoomAndPan="magnify"><defs/><g><line style="stroke: #61AFEF; stroke-width: 2.0833333333333335; stroke-dasharray: 5.0,5.0;" x1="237.5" x2="237.5" y1="182.2103" y2="3044.8242"/><line style="stroke: #61AFEF; stroke-width: 2.0833333333333335; stroke-dasharray: 5.0,5.0;" x1="470.8333" x2="470.8333" y1="182.2103" y2="3044.8242"/><line style="stroke: #61AFEF; stroke-width: 2.0833333333333335; stroke-dasharray: 5.0,5.0;" x1="716.6667" x2="716.6667" y1="182.2103" y2="3044.8242"/><line style="stroke: #61AFEF; stroke-width: 2.0833333333333335; stroke-dasharray: 5.0,5.0;" x1="954.1667" x2="954.1667" y1="182.2103" y2="3044.8242"/><line style="stroke: #61AFEF; stroke-width: 2.0833333333333335; stroke-dasharray: 5.0,5.0;" x1="1193.75" x2="1193.75" y1="182.2103" y2="3044.8242"/><line style="stroke: #61AFEF; stroke-width: 2.0833333333333335; stroke-dasharray: 5.0,5.0;" x1="1664.5833" x2="1664.5833" y1="182.2103" y2="3044.8242"/><text fill="#ABB2BF" font-family="CMU Serif" font-size="31.25" lengthAdjust="spacingAndGlyphs" textLength="172.9167" x="145.8333" y="170.6736">Researcher</text><ellipse cx="238.5417" cy="27.0833" fill="#424856" rx="16.6667" ry="16.6667" style="stroke: #61AFEF; stroke-width: 4.166666666666667;"/><path d="M238.5417,43.75 L238.5417,100 M211.4583,60.4167 L265.625,60.4167 M238.5417,100 L211.4583,131.25 M238.5417,100 L265.625,131.25 " fill="none" style="stroke: #61AFEF; stroke-width: 4.166666666666667;"/><text fill="#ABB2BF" font-family="CMU Serif" font-size="31.25" lengthAdjust="spacingAndGlyphs" textLength="172.9167" x="145.8333" y="3075.9145">Researcher</text><ellipse cx="238.5417" cy="3108.2845" fill="#424856" rx="16.6667" ry="16.6667" style="stroke: #61AFEF; stroke-width: 4.166666666666667;"/><path d="M238.5417,3124.9512 L238.5417,3181.2012 M211.4583,3141.6178 L265.625,3141.6178 M238.5417,3181.2012 L211.4583,3212.4512 M238.5417,3181.2012 L265.625,3212.4512 " fill="none" style="stroke: #61AFEF; stroke-width: 4.166666666666667;"/><text fill="#ABB2BF" font-family="CMU Serif" font-size="31.25" lengthAdjust="spacingAndGlyphs" textLength="210.4167" x="360.4167" y="170.6736">Datamanager</text><ellipse cx="471.875" cy="27.0833" fill="#424856" rx="16.6667" ry="16.6667" style="stroke: #61AFEF; stroke-width: 4.166666666666667;"/><path d="M471.875,43.75 L471.875,100 M444.7917,60.4167 L498.9583,60.4167 M471.875,100 L444.7917,131.25 M471.875,100 L498.9583,131.25 " fill="none" style="stroke: #61AFEF; stroke-width: 4.166666666666667;"/><text fill="#ABB2BF" font-family="CMU Serif" font-size="31.25" lengthAdjust="spacingAndGlyphs" textLength="210.4167" x="360.4167" y="3075.9145">Datamanager</text><ellipse cx="471.875" cy="3108.2845" fill="#424856" rx="16.6667" ry="16.6667" style="stroke: #61AFEF; stroke-width: 4.166666666666667;"/><path d="M471.875,3124.9512 L471.875,3181.2012 M444.7917,3141.6178 L498.9583,3141.6178 M471.875,3181.2012 L444.7917,3212.4512 M471.875,3181.2012 L498.9583,3212.4512 " fill="none" style="stroke: #61AFEF; stroke-width: 4.166666666666667;"/><text fill="#ABB2BF" font-family="CMU Serif" font-size="31.25" lengthAdjust="spacingAndGlyphs" textLength="195.8333" x="612.5" y="170.6736">DACmember</text><ellipse cx="716.6667" cy="27.0833" fill="#424856" rx="16.6667" ry="16.6667" style="stroke: #61AFEF; stroke-width: 4.166666666666667;"/><path d="M716.6667,43.75 L716.6667,100 M689.5833,60.4167 L743.75,60.4167 M716.6667,100 L689.5833,131.25 M716.6667,100 L743.75,131.25 " fill="none" style="stroke: #61AFEF; stroke-width: 4.166666666666667;"/><text fill="#ABB2BF" font-family="CMU Serif" font-size="31.25" lengthAdjust="spacingAndGlyphs" textLength="195.8333" x="612.5" y="3075.9145">DACmember</text><ellipse cx="716.6667" cy="3108.2845" fill="#424856" rx="16.6667" ry="16.6667" style="stroke: #61AFEF; stroke-width: 4.166666666666667;"/><path d="M716.6667,3124.9512 L716.6667,3181.2012 M689.5833,3141.6178 L743.75,3141.6178 M716.6667,3181.2012 L689.5833,3212.4512 M716.6667,3181.2012 L743.75,3212.4512 " fill="none" style="stroke: #61AFEF; stroke-width: 4.166666666666667;"/><text fill="#ABB2BF" font-family="CMU Serif" font-size="31.25" lengthAdjust="spacingAndGlyphs" textLength="195.8333" x="850" y="170.6736">DACmember</text><ellipse cx="954.1667" cy="27.0833" fill="#424856" rx="16.6667" ry="16.6667" style="stroke: #61AFEF; stroke-width: 4.166666666666667;"/><path d="M954.1667,43.75 L954.1667,100 M927.0833,60.4167 L981.25,60.4167 M954.1667,100 L927.0833,131.25 M954.1667,100 L981.25,131.25 " fill="none" style="stroke: #61AFEF; stroke-width: 4.166666666666667;"/><text fill="#ABB2BF" font-family="CMU Serif" font-size="31.25" lengthAdjust="spacingAndGlyphs" textLength="195.8333" x="850" y="3075.9145">DACmember</text><ellipse cx="954.1667" cy="3108.2845" fill="#424856" rx="16.6667" ry="16.6667" style="stroke: #61AFEF; stroke-width: 4.166666666666667;"/><path d="M954.1667,3124.9512 L954.1667,3181.2012 M927.0833,3141.6178 L981.25,3141.6178 M954.1667,3181.2012 L927.0833,3212.4512 M954.1667,3181.2012 L981.25,3212.4512 " fill="none" style="stroke: #61AFEF; stroke-width: 4.166666666666667;"/><text fill="#ABB2BF" font-family="CMU Serif" font-size="31.25" lengthAdjust="spacingAndGlyphs" textLength="200" x="1087.5" y="170.6736">BODmember</text><ellipse cx="1193.75" cy="27.0833" fill="#424856" rx="16.6667" ry="16.6667" style="stroke: #61AFEF; stroke-width: 4.166666666666667;"/><path d="M1193.75,43.75 L1193.75,100 M1166.6667,60.4167 L1220.8333,60.4167 M1193.75,100 L1166.6667,131.25 M1193.75,100 L1220.8333,131.25 " fill="none" style="stroke: #61AFEF; stroke-width: 4.166666666666667;"/><text fill="#ABB2BF" font-family="CMU Serif" font-size="31.25" lengthAdjust="spacingAndGlyphs" textLength="200" x="1087.5" y="3075.9145">BODmember</text><ellipse cx="1193.75" cy="3108.2845" fill="#424856" rx="16.6667" ry="16.6667" style="stroke: #61AFEF; stroke-width: 4.166666666666667;"/><path d="M1193.75,3124.9512 L1193.75,3181.2012 M1166.6667,3141.6178 L1220.8333,3141.6178 M1193.75,3181.2012 L1166.6667,3212.4512 M1193.75,3181.2012 L1220.8333,3212.4512 " fill="none" style="stroke: #61AFEF; stroke-width: 4.166666666666667;"/><rect fill="#424856" height="73.877" style="stroke: #61AFEF; stroke-width: 3.125;" width="154.1667" x="1587.5" y="106.25"/><text fill="#ABB2BF" font-family="CMU Serif" font-size="31.25" lengthAdjust="spacingAndGlyphs" textLength="116.6667" x="1606.25" y="154.007">System</text><rect fill="#424856" height="73.877" style="stroke: #61AFEF; stroke-width: 3.125;" width="154.1667" x="1587.5" y="3042.7409"/><text fill="#ABB2BF" font-family="CMU Serif" font-size="31.25" lengthAdjust="spacingAndGlyphs" textLength="116.6667" x="1606.25" y="3090.4978">System</text><polygon fill="#61AFEF" points="1639.5833,251.9206,1660.4167,260.2539,1639.5833,268.5872,1647.9167,260.2539" style="stroke: #61AFEF; stroke-width: 2.0833333333333335;"/><line style="stroke: #61AFEF; stroke-width: 2.0833333333333335;" x1="238.5417" x2="1652.0833" y1="260.2539" y2="260.2539"/><text fill="#ABB2BF" font-family="CMU Serif" font-size="31.25" lengthAdjust="spacingAndGlyphs" textLength="310.4167" x="257.2917" y="244.5506">submit data request</text><polygon fill="#61AFEF" points="261.4583,325.7975,240.625,334.1309,261.4583,342.4642,253.125,334.1309" style="stroke: #61AFEF; stroke-width: 2.0833333333333335;"/><line style="stroke: #61AFEF; stroke-width: 2.0833333333333335; stroke-dasharray: 2.0,2.0;" x1="248.9583" x2="1662.5" y1="334.1309" y2="334.1309"/><text fill="#ABB2BF" font-family="CMU Serif" font-size="31.25" lengthAdjust="spacingAndGlyphs" textLength="252.0833" x="278.125" y="318.4275">confirm received</text><path d="M1558.3333,361.2142 L1558.3333,425.7975 L1768.75,425.7975 L1768.75,382.0475 L1747.9167,361.2142 L1558.3333,361.2142 " fill="#E5C07B" style="stroke: #282C34; stroke-width: 2.0833333333333335;"/><path d="M1747.9167,361.2142 L1747.9167,382.0475 L1768.75,382.0475 L1747.9167,361.2142 " fill="#E5C07B" style="stroke: #282C34; stroke-width: 2.0833333333333335;"/><text fill="#282C34" font-family="CMU Serif" font-size="31.25" lengthAdjust="spacingAndGlyphs" textLength="158.3333" x="1575" y="404.8045">Submitted</text><polygon fill="#61AFEF" points="1216.6667,486.0514,1195.8333,494.3848,1216.6667,502.7181,1208.3333,494.3848" style="stroke: #61AFEF; stroke-width: 2.0833333333333335;"/><line style="stroke: #61AFEF; stroke-width: 2.0833333333333335; stroke-dasharray: 2.0,2.0;" x1="1204.1667" x2="1662.5" y1="494.3848" y2="494.3848"/><text fill="#ABB2BF" font-family="CMU Serif" font-size="31.25" lengthAdjust="spacingAndGlyphs" textLength="404.1667" x="1233.3333" y="478.6814">request preliminary review</text><polygon fill="#61AFEF" points="1639.5833,559.9284,1660.4167,568.2617,1639.5833,576.5951,1647.9167,568.2617" style="stroke: #61AFEF; stroke-width: 2.0833333333333335;"/><line style="stroke: #61AFEF; stroke-width: 2.0833333333333335;" x1="1193.75" x2="1652.0833" y1="568.2617" y2="568.2617"/><text fill="#ABB2BF" font-family="CMU Serif" font-size="31.25" lengthAdjust="spacingAndGlyphs" textLength="277.0833" x="1212.5" y="552.5584">preliminary review</text><polygon fill="#61AFEF" points="261.4583,633.8053,240.625,642.1387,261.4583,650.472,253.125,642.1387" style="stroke: #61AFEF; stroke-width: 2.0833333333333335;"/><line style="stroke: #61AFEF; stroke-width: 2.0833333333333335; stroke-dasharray: 2.0,2.0;" x1="248.9583" x2="1662.5" y1="642.1387" y2="642.1387"/><text fill="#ABB2BF" font-family="CMU Serif" font-size="31.25" lengthAdjust="spacingAndGlyphs" textLength="322.9167" x="278.125" y="626.4353">1a: preliminary reject</text><polygon fill="#61AFEF" points="261.4583,707.6823,240.625,716.0156,261.4583,724.349,253.125,716.0156" style="stroke: #61AFEF; stroke-width: 2.0833333333333335;"/><line style="stroke: #61AFEF; stroke-width: 2.0833333333333335; stroke-dasharray: 2.0,2.0;" x1="248.9583" x2="1662.5" y1="716.0156" y2="716.0156"/><text fill="#ABB2BF" font-family="CMU Serif" font-size="31.25" lengthAdjust="spacingAndGlyphs" textLength="372.9167" x="278.125" y="700.3123">1b: preliminary resubmit</text><path d="M1468.75,743.099 L1468.75,807.6823 L1860.4167,807.6823 L1860.4167,763.9323 L1839.5833,743.099 L1468.75,743.099 " fill="#E5C07B" style="stroke: #282C34; stroke-width: 2.0833333333333335;"/><path d="M1839.5833,743.099 L1839.5833,763.9323 L1860.4167,763.9323 L1839.5833,743.099 " fill="#E5C07B" style="stroke: #282C34; stroke-width: 2.0833333333333335;"/><text fill="#282C34" font-family="CMU Serif" font-size="31.25" lengthAdjust="spacingAndGlyphs" textLength="339.5833" x="1485.4167" y="786.6892">1c: Preliminary Accept</text><polygon fill="#61AFEF" points="494.7917,867.9362,473.9583,876.2695,494.7917,884.6029,486.4583,876.2695" style="stroke: #61AFEF; stroke-width: 2.0833333333333335;"/><line style="stroke: #61AFEF; stroke-width: 2.0833333333333335; stroke-dasharray: 2.0,2.0;" x1="482.2917" x2="1662.5" y1="876.2695" y2="876.2695"/><text fill="#ABB2BF" font-family="CMU Serif" font-size="31.25" lengthAdjust="spacingAndGlyphs" textLength="443.75" x="511.4583" y="860.5662">request datamanager review</text><polygon fill="#61AFEF" points="1639.5833,941.8132,1660.4167,950.1465,1639.5833,958.4798,1647.9167,950.1465" style="stroke: #61AFEF; stroke-width: 2.0833333333333335;"/><line style="stroke: #61AFEF; stroke-width: 2.0833333333333335;" x1="471.875" x2="1652.0833" y1="950.1465" y2="950.1465"/><text fill="#ABB2BF" font-family="CMU Serif" font-size="31.25" lengthAdjust="spacingAndGlyphs" textLength="316.6667" x="490.625" y="934.4432">datamanager review</text><polygon fill="#61AFEF" points="1216.6667,1015.6901,1195.8333,1024.0234,1216.6667,1032.3568,1208.3333,1024.0234" style="stroke: #61AFEF; stroke-width: 2.0833333333333335;"/><line style="stroke: #61AFEF; stroke-width: 2.0833333333333335; stroke-dasharray: 2.0,2.0;" x1="1204.1667" x2="1662.5" y1="1024.0234" y2="1024.0234"/><text fill="#ABB2BF" font-family="CMU Serif" font-size="31.25" lengthAdjust="spacingAndGlyphs" textLength="362.5" x="1233.3333" y="1008.3201">2a: datamanager reject</text><polygon fill="#61AFEF" points="261.4583,1089.5671,240.625,1097.9004,261.4583,1106.2337,253.125,1097.9004" style="stroke: #61AFEF; stroke-width: 2.0833333333333335;"/><line style="stroke: #61AFEF; stroke-width: 2.0833333333333335; stroke-dasharray: 2.0,2.0;" x1="248.9583" x2="1662.5" y1="1097.9004" y2="1097.9004"/><text fill="#ABB2BF" font-family="CMU Serif" font-size="31.25" lengthAdjust="spacingAndGlyphs" textLength="593.75" x="278.125" y="1082.1971">2a: rejected after datamanager review</text><polygon fill="#61AFEF" points="1216.6667,1163.444,1195.8333,1171.7773,1216.6667,1180.1107,1208.3333,1171.7773" style="stroke: #61AFEF; stroke-width: 2.0833333333333335;"/><line style="stroke: #61AFEF; stroke-width: 2.0833333333333335; stroke-dasharray: 2.0,2.0;" x1="1204.1667" x2="1662.5" y1="1171.7773" y2="1171.7773"/><text fill="#ABB2BF" font-family="CMU Serif" font-size="31.25" lengthAdjust="spacingAndGlyphs" textLength="412.5" x="1233.3333" y="1156.074">2b: datamanager resubmit</text><polygon fill="#61AFEF" points="261.4583,1237.321,240.625,1245.6543,261.4583,1253.9876,253.125,1245.6543" style="stroke: #61AFEF; stroke-width: 2.0833333333333335;"/><line style="stroke: #61AFEF; stroke-width: 2.0833333333333335; stroke-dasharray: 2.0,2.0;" x1="248.9583" x2="1662.5" y1="1245.6543" y2="1245.6543"/><text fill="#ABB2BF" font-family="CMU Serif" font-size="31.25" lengthAdjust="spacingAndGlyphs" textLength="606.25" x="278.125" y="1229.951">2b: resubmit after datamanager review</text><polygon fill="#61AFEF" points="1216.6667,1311.1979,1195.8333,1319.5313,1216.6667,1327.8646,1208.3333,1319.5313" style="stroke: #61AFEF; stroke-width: 2.0833333333333335;"/><line style="stroke: #61AFEF; stroke-width: 2.0833333333333335; stroke-dasharray: 2.0,2.0;" x1="1204.1667" x2="1662.5" y1="1319.5313" y2="1319.5313"/><text fill="#ABB2BF" font-family="CMU Serif" font-size="31.25" lengthAdjust="spacingAndGlyphs" textLength="377.0833" x="1233.3333" y="1303.8279">2c: datamanager accept</text><path d="M1445.8333,1346.6146 L1445.8333,1411.1979 L1881.25,1411.1979 L1881.25,1367.4479 L1860.4167,1346.6146 L1445.8333,1346.6146 " fill="#E5C07B" style="stroke: #282C34; stroke-width: 2.0833333333333335;"/><path d="M1860.4167,1346.6146 L1860.4167,1367.4479 L1881.25,1367.4479 L1860.4167,1346.6146 " fill="#E5C07B" style="stroke: #282C34; stroke-width: 2.0833333333333335;"/><text fill="#282C34" font-family="CMU Serif" font-size="31.25" lengthAdjust="spacingAndGlyphs" textLength="383.3333" x="1462.5" y="1390.2049">2c: Datamanager Accept</text><polygon fill="#61AFEF" points="1639.5833,1471.4518,1660.4167,1479.7852,1639.5833,1488.1185,1647.9167,1479.7852" style="stroke: #61AFEF; stroke-width: 2.0833333333333335;"/><line style="stroke: #61AFEF; stroke-width: 2.0833333333333335;" x1="1193.75" x2="1652.0833" y1="1479.7852" y2="1479.7852"/><text fill="#ABB2BF" font-family="CMU Serif" font-size="31.25" lengthAdjust="spacingAndGlyphs" textLength="279.1667" x="1212.5" y="1464.0818">assign reviewer(s)</text><polygon fill="#61AFEF" points="739.5833,1545.3288,718.75,1553.6621,739.5833,1561.9954,731.25,1553.6621" style="stroke: #61AFEF; stroke-width: 2.0833333333333335;"/><line style="stroke: #61AFEF; stroke-width: 2.0833333333333335; stroke-dasharray: 2.0,2.0;" x1="727.0833" x2="1662.5" y1="1553.6621" y2="1553.6621"/><text fill="#ABB2BF" font-family="CMU Serif" font-size="31.25" lengthAdjust="spacingAndGlyphs" textLength="208.3333" x="756.25" y="1537.9588">please review</text><polygon fill="#61AFEF" points="977.0833,1619.2057,956.25,1627.5391,977.0833,1635.8724,968.75,1627.5391" style="stroke: #61AFEF; stroke-width: 2.0833333333333335;"/><line style="stroke: #61AFEF; stroke-width: 2.0833333333333335; stroke-dasharray: 2.0,2.0;" x1="964.5833" x2="1662.5" y1="1627.5391" y2="1627.5391"/><text fill="#ABB2BF" font-family="CMU Serif" font-size="31.25" lengthAdjust="spacingAndGlyphs" textLength="208.3333" x="993.75" y="1611.8357">please review</text><path d="M1533.3333,1654.6224 L1533.3333,1719.2057 L1795.8333,1719.2057 L1795.8333,1675.4557 L1775,1654.6224 L1533.3333,1654.6224 " fill="#E5C07B" style="stroke: #282C34; stroke-width: 2.0833333333333335;"/><path d="M1775,1654.6224 L1775,1675.4557 L1795.8333,1675.4557 L1775,1654.6224 " fill="#E5C07B" style="stroke: #282C34; stroke-width: 2.0833333333333335;"/><text fill="#282C34" font-family="CMU Serif" font-size="31.25" lengthAdjust="spacingAndGlyphs" textLength="210.4167" x="1550" y="1698.2127">Under Review</text><polygon fill="#61AFEF" points="1639.5833,1779.4596,1660.4167,1787.793,1639.5833,1796.1263,1647.9167,1787.793" style="stroke: #61AFEF; stroke-width: 2.0833333333333335;"/><line style="stroke: #61AFEF; stroke-width: 2.0833333333333335;" x1="716.6667" x2="1652.0833" y1="1787.793" y2="1787.793"/><text fill="#ABB2BF" font-family="CMU Serif" font-size="31.25" lengthAdjust="spacingAndGlyphs" textLength="100" x="735.4167" y="1772.0896">review</text><polygon fill="#61AFEF" points="1639.5833,1853.3366,1660.4167,1861.6699,1639.5833,1870.0033,1647.9167,1861.6699" style="stroke: #61AFEF; stroke-width: 2.0833333333333335;"/><line style="stroke: #61AFEF; stroke-width: 2.0833333333333335;" x1="954.1667" x2="1652.0833" y1="1861.6699" y2="1861.6699"/><text fill="#ABB2BF" font-family="CMU Serif" font-size="31.25" lengthAdjust="spacingAndGlyphs" textLength="100" x="972.9167" y="1845.9666">review</text><polygon fill="#61AFEF" points="1216.6667,1927.2135,1195.8333,1935.5469,1216.6667,1943.8802,1208.3333,1935.5469" style="stroke: #61AFEF; stroke-width: 2.0833333333333335;"/><line style="stroke: #61AFEF; stroke-width: 2.0833333333333335; stroke-dasharray: 2.0,2.0;" x1="1204.1667" x2="1662.5" y1="1935.5469" y2="1935.5469"/><text fill="#ABB2BF" font-family="CMU Serif" font-size="31.25" lengthAdjust="spacingAndGlyphs" textLength="281.25" x="1233.3333" y="1919.8435">request evaluation</text><polygon fill="#61AFEF" points="1639.5833,2001.0905,1660.4167,2009.4238,1639.5833,2017.7572,1647.9167,2009.4238" style="stroke: #61AFEF; stroke-width: 2.0833333333333335;"/><line style="stroke: #61AFEF; stroke-width: 2.0833333333333335;" x1="1193.75" x2="1652.0833" y1="2009.4238" y2="2009.4238"/><text fill="#ABB2BF" font-family="CMU Serif" font-size="31.25" lengthAdjust="spacingAndGlyphs" textLength="154.1667" x="1212.5" y="1993.7205">evaluation</text><polygon fill="#61AFEF" points="261.4583,2074.9674,240.625,2083.3008,261.4583,2091.6341,253.125,2083.3008" style="stroke: #61AFEF; stroke-width: 2.0833333333333335;"/><line style="stroke: #61AFEF; stroke-width: 2.0833333333333335; stroke-dasharray: 2.0,2.0;" x1="248.9583" x2="1662.5" y1="2083.3008" y2="2083.3008"/><text fill="#ABB2BF" font-family="CMU Serif" font-size="31.25" lengthAdjust="spacingAndGlyphs" textLength="183.3333" x="278.125" y="2067.5975">3a: rejected</text><polygon fill="#61AFEF" points="261.4583,2148.8444,240.625,2157.1777,261.4583,2165.5111,253.125,2157.1777" style="stroke: #61AFEF; stroke-width: 2.0833333333333335;"/><line style="stroke: #61AFEF; stroke-width: 2.0833333333333335; stroke-dasharray: 2.0,2.0;" x1="248.9583" x2="1662.5" y1="2157.1777" y2="2157.1777"/><text fill="#ABB2BF" font-family="CMU Serif" font-size="31.25" lengthAdjust="spacingAndGlyphs" textLength="195.8333" x="278.125" y="2141.4744">3b: resubmit</text><polygon fill="#61AFEF" points="261.4583,2222.7214,240.625,2231.0547,261.4583,2239.388,253.125,2231.0547" style="stroke: #61AFEF; stroke-width: 2.0833333333333335;"/><line style="stroke: #61AFEF; stroke-width: 2.0833333333333335; stroke-dasharray: 2.0,2.0;" x1="248.9583" x2="1662.5" y1="2231.0547" y2="2231.0547"/><text fill="#ABB2BF" font-family="CMU Serif" font-size="31.25" lengthAdjust="spacingAndGlyphs" textLength="200" x="278.125" y="2215.3514">3c: approved</text><path d="M1537.5,2258.138 L1537.5,2322.7214 L1791.6667,2322.7214 L1791.6667,2278.9714 L1770.8333,2258.138 L1537.5,2258.138 " fill="#E5C07B" style="stroke: #282C34; stroke-width: 2.0833333333333335;"/><path d="M1770.8333,2258.138 L1770.8333,2278.9714 L1791.6667,2278.9714 L1770.8333,2258.138 " fill="#E5C07B" style="stroke: #282C34; stroke-width: 2.0833333333333335;"/><text fill="#282C34" font-family="CMU Serif" font-size="31.25" lengthAdjust="spacingAndGlyphs" textLength="202.0833" x="1554.1667" y="2301.7283">3c: Approved</text><polygon fill="#61AFEF" points="494.7917,2382.9753,473.9583,2391.3086,494.7917,2399.6419,486.4583,2391.3086" style="stroke: #61AFEF; stroke-width: 2.0833333333333335;"/><line style="stroke: #61AFEF; stroke-width: 2.0833333333333335; stroke-dasharray: 2.0,2.0;" x1="482.2917" x2="1662.5" y1="2391.3086" y2="2391.3086"/><text fill="#ABB2BF" font-family="CMU Serif" font-size="31.25" lengthAdjust="spacingAndGlyphs" textLength="191.6667" x="511.4583" y="2375.6053">prepare DTA</text><polygon fill="#61AFEF" points="1639.5833,2456.8522,1660.4167,2465.1855,1639.5833,2473.5189,1647.9167,2465.1855" style="stroke: #61AFEF; stroke-width: 2.0833333333333335;"/><line style="stroke: #61AFEF; stroke-width: 2.0833333333333335;" x1="471.875" x2="1652.0833" y1="2465.1855" y2="2465.1855"/><text fill="#ABB2BF" font-family="CMU Serif" font-size="31.25" lengthAdjust="spacingAndGlyphs" textLength="318.75" x="490.625" y="2449.4822">upload unsigned DTA</text><polygon fill="#61AFEF" points="261.4583,2530.7292,240.625,2539.0625,261.4583,2547.3958,253.125,2539.0625" style="stroke: #61AFEF; stroke-width: 2.0833333333333335;"/><line style="stroke: #61AFEF; stroke-width: 2.0833333333333335; stroke-dasharray: 2.0,2.0;" x1="248.9583" x2="1662.5" y1="2539.0625" y2="2539.0625"/><text fill="#ABB2BF" font-family="CMU Serif" font-size="31.25" lengthAdjust="spacingAndGlyphs" textLength="241.6667" x="278.125" y="2523.3592">please sign DTA</text><path d="M16.6667,2566.1458 L16.6667,2630.7292 L460.4167,2630.7292 L460.4167,2586.9792 L439.5833,2566.1458 L16.6667,2566.1458 " fill="#E5C07B" style="stroke: #282C34; stroke-width: 2.0833333333333335;"/><path d="M439.5833,2566.1458 L439.5833,2586.9792 L460.4167,2586.9792 L439.5833,2566.1458 " fill="#E5C07B" style="stroke: #282C34; stroke-width: 2.0833333333333335;"/><text fill="#282C34" font-family="CMU Serif" font-size="31.25" lengthAdjust="spacingAndGlyphs" textLength="391.6667" x="33.3333" y="2609.7361">download DTA, sign, scan</text><polygon fill="#61AFEF" points="1639.5833,2690.9831,1660.4167,2699.3164,1639.5833,2707.6497,1647.9167,2699.3164" style="stroke: #61AFEF; stroke-width: 2.0833333333333335;"/><line style="stroke: #61AFEF; stroke-width: 2.0833333333333335;" x1="238.5417" x2="1652.0833" y1="2699.3164" y2="2699.3164"/><text fill="#ABB2BF" font-family="CMU Serif" font-size="31.25" lengthAdjust="spacingAndGlyphs" textLength="285.4167" x="257.2917" y="2683.6131">submit signed DTA</text><polygon fill="#61AFEF" points="494.7917,2764.86,473.9583,2773.1934,494.7917,2781.5267,486.4583,2773.1934" style="stroke: #61AFEF; stroke-width: 2.0833333333333335;"/><line style="stroke: #61AFEF; stroke-width: 2.0833333333333335; stroke-dasharray: 2.0,2.0;" x1="482.2917" x2="1662.5" y1="2773.1934" y2="2773.1934"/><text fill="#ABB2BF" font-family="CMU Serif" font-size="31.25" lengthAdjust="spacingAndGlyphs" textLength="281.25" x="511.4583" y="2757.49">review signed DTA</text><path d="M285.4167,2800.2767 L285.4167,2864.86 L656.25,2864.86 L656.25,2821.11 L635.4167,2800.2767 L285.4167,2800.2767 " fill="#E5C07B" style="stroke: #282C34; stroke-width: 2.0833333333333335;"/><path d="M635.4167,2800.2767 L635.4167,2821.11 L656.25,2821.11 L635.4167,2800.2767 " fill="#E5C07B" style="stroke: #282C34; stroke-width: 2.0833333333333335;"/><text fill="#282C34" font-family="CMU Serif" font-size="31.25" lengthAdjust="spacingAndGlyphs" textLength="318.75" x="302.0833" y="2843.867">prepare data in Yoda</text><polygon fill="#61AFEF" points="1639.5833,2925.1139,1660.4167,2933.4473,1639.5833,2941.7806,1647.9167,2933.4473" style="stroke: #61AFEF; stroke-width: 2.0833333333333335;"/><line style="stroke: #61AFEF; stroke-width: 2.0833333333333335;" x1="471.875" x2="1652.0833" y1="2933.4473" y2="2933.4473"/><text fill="#ABB2BF" font-family="CMU Serif" font-size="31.25" lengthAdjust="spacingAndGlyphs" textLength="164.5833" x="490.625" y="2917.7439">data ready</text><polygon fill="#61AFEF" points="261.4583,2998.9909,240.625,3007.3242,261.4583,3015.6576,253.125,3007.3242" style="stroke: #61AFEF; stroke-width: 2.0833333333333335;"/><line style="stroke: #61AFEF; stroke-width: 2.0833333333333335; stroke-dasharray: 2.0,2.0;" x1="248.9583" x2="1662.5" y1="3007.3242" y2="3007.3242"/><text fill="#ABB2BF" font-family="CMU Serif" font-size="31.25" lengthAdjust="spacingAndGlyphs" textLength="416.6667" x="278.125" y="2991.6209">data available for download</text><!--MD5=[88227bd1dbfc44ab8b75226a5db3f151]
@startuml





skinparam backgroundColor #282c34

skinparam {
  ActivityBackgroundColor        #424856
  ActivityBarColor               #abb2bf
  ActivityBorderColor            #61afef

  ActivityDiamondBackgroundColor #424856
  ActivityDiamondBorderColor     #61afef

  ActivityEndColor               #e06c75

  ActivityStartColor             #98c379
  ActivityStopColor              #e06c75

  ActorBackgroundColor        #424856
  ActorBorderColor            #61afef

  ActorStereotypeFontColor    #abb2bf

  AgentBackgroundColor       #424856
  AgentBorderColor           #61afef

  ArrowColor #61afef

  ArtifactBackgroundColor     #424856
  ArtifactBorderColor         #61afef

  BackgroundColor #282c34

  BoundaryBackgroundColor     #424856
  BoundaryBorderColor         #61afef

  CardBackgroundColor     #424856
  CardBorderColor         #61afef

  ClassBackgroundColor   #424856
  ClassBorderColor       #abb2bf

  CloudBackgroundColor        #424856
  CloudBorderColor            #61afef

  CollectionsBackgroundColor #424856
  CollectionsBorderColor     #61afef

  ComponentBackgroundColor       #424856
  ComponentBorderColor           #61afef

  ControlBackgroundColor #424856
  ControlBorderColor     #61afef
  ControlFontColor       #abb2bf

  ControlStereotypeFontColor #abb2bf

  DatabaseBackgroundColor       #424856
  DatabaseBorderColor           #61afef

  DefaultFontColor #abb2bf
  DefaultFontSize 15

  DefaultFontName CMU Serif

  Dpi 200

  EntityBackgroundColor #424856
  EntityBorderColor     #61afef

  FileBackgroundColor #424856
  FileBorderColor     #61afef

  FolderBackgroundColor #424856
  FolderBorderColor     #61afef

  FrameBackgroundColor       #424856
  FrameBorderColor           #61afef

  HexagonBackgroundColor #424856
  HexagonBorderColor     #61afef

  InterfaceBackgroundColor       #424856
  InterfaceBorderColor           #61afef

  LegendBackgroundColor   #424856
  LegendBorderColor       #abb2bf

  NodeBackgroundColor       #424856
  NodeBorderColor           #61afef

  NoteBackgroundColor   #e5c07b
  NoteBorderColor       #282c34

  NoteFontColor         #282c34

  ObjectBackgroundColor       #424856
  ObjectBorderColor           #61afef

  PackageBackgroundColor       #282c34
  PackageBorderColor           #61afef

  Padding 2
  ParticipantBackgroundColor #424856
  ParticipantBorderColor     #61afef

  PartitionBackgroundColor transparent
  PartitionBorderColor     #abb2bf

  PersonBackgroundColor #424856
  PersonBorderColor     #61afef

  QueueBackgroundColor       #424856
  QueueBorderColor           #61afef

  RectangleBackgroundColor       #424856
  RectangleBorderColor           #61afef

  SequenceBoxBackgroundColor #424856
  SequenceBoxBorderColor     #61afef

  SequenceDividerBackgroundColor   #424856
  SequenceDividerBorderColor       #abb2bf

  SequenceGroupBackgroundColor       #424856

  SequenceGroupBorderColor           #abb2bf

  SequenceLifeLineBackgroundColor   #282c34
  SequenceLifeLineBorderColor       #61afef

  SequenceNewpageSeparatorColor  #abb2bf

  SequenceReferenceBackgroundColor        transparent
  SequenceReferenceBorderColor            #abb2bf

  SequenceReferenceHeaderBackgroundColor #424856

  Shadowing false

  StackBackgroundColor       #424856
  StackBorderColor           #61afef

  StateBackgroundColor    #424856
  StateBorderColor        #61afef
  StateEndColor           #e06c75

  StateStartColor         #98c379

  StorageBackgroundColor #424856
  StorageBorderColor     #abb2bf

  SwimlaneBorderColor            #abb2bf

  UsecaseBackgroundColor       #424856
  UsecaseBorderColor           #61afef
}


actor "Researcher" as R
actor "Datamanager" as DM
actor "DACmember" as M1
actor "DACmember" as M2
actor "BODmember" as B
participant "System" as Y

R -> Y   : submit data request
Y - -> R  : confirm received
note over Y
 Submitted
end note
Y - -> B  : request preliminary review
B -> Y   : preliminary review
Y - -> R  : 1a: preliminary reject
Y - -> R  : 1b: preliminary resubmit
note over Y
 1c: Preliminary Accept
end note
Y - -> DM : request datamanager review
DM -> Y  : datamanager review
Y - -> B  : 2a: datamanager reject
Y - -> R  : 2a: rejected after datamanager review
Y - -> B  : 2b: datamanager resubmit
Y - -> R  : 2b: resubmit after datamanager review
Y - -> B  : 2c: datamanager accept
note over Y
 2c: Datamanager Accept
end note
B -> Y   : assign reviewer(s)
Y - -> M1 : please review
Y - -> M2 : please review
note over Y
 Under Review
end note
M1 -> Y  : review
M2 -> Y  : review
Y - -> B  : request evaluation
B -> Y   : evaluation
Y - -> R  : 3a: rejected
Y - -> R  : 3b: resubmit
Y - -> R  : 3c: approved
note over Y
 3c: Approved
end note
Y - -> DM : prepare DTA
DM -> Y  : upload unsigned DTA
Y - -> R  : please sign DTA
note over R
 download DTA, sign, scan
end note
R -> Y   : submit signed DTA
Y - -> DM : review signed DTA
note over DM
 prepare data in Yoda
end note
DM -> Y  : data ready
Y - -> R  : data available for download
@enduml

PlantUML version 1.2020.02(Sun Mar 01 11:22:07 CET 2020)
(GPL source distribution)
Java Runtime: OpenJDK Runtime Environment
JVM: OpenJDK 64-Bit Server VM
Java Version: 11.0.18+10-post-Debian-1deb11u1
Operating System: Linux
Default Encoding: UTF-8
Language: en
Country: US
--></g></svg>