<?xml version="1.0" encoding="UTF-8" standalone="yes"?><svg xmlns="http://www.w3.org/2000/svg" xmlns:xlink="http://www.w3.org/1999/xlink" height="1227.0833px" style="width:1670px;height:1227px;" version="1.1" viewBox="0 0 1670 1227" width="1670.8333px"><defs/><g><line style="stroke: #A80036; stroke-width: 2.0833333333333335; stroke-dasharray: 5.0,5.0;" x1="143.75" x2="143.75" y1="173.877" y2="1067.6107"/><line style="stroke: #A80036; stroke-width: 2.0833333333333335; stroke-dasharray: 5.0,5.0;" x1="467.7083" x2="467.7083" y1="173.877" y2="1067.6107"/><line style="stroke: #A80036; stroke-width: 2.0833333333333335; stroke-dasharray: 5.0,5.0;" x1="793.75" x2="793.75" y1="173.877" y2="1067.6107"/><line style="stroke: #A80036; stroke-width: 2.0833333333333335; stroke-dasharray: 5.0,5.0;" x1="1095.8333" x2="1095.8333" y1="173.877" y2="1067.6107"/><line style="stroke: #A80036; stroke-width: 2.0833333333333335; stroke-dasharray: 5.0,5.0;" x1="1572.9167" x2="1572.9167" y1="173.877" y2="1067.6107"/><text fill="#000000" font-family="CMU Serif" font-size="31.25" lengthAdjust="spacingAndGlyphs" textLength="241.6667" x="16.6667" y="166.507">Group manager</text><ellipse cx="143.75" cy="27.0833" fill="#FEFECE" rx="16.6667" ry="16.6667" style="stroke: #A80036; stroke-width: 4.166666666666667;"/><path d="M143.75,43.75 L143.75,100 M116.6667,60.4167 L170.8333,60.4167 M143.75,100 L116.6667,131.25 M143.75,100 L170.8333,131.25 " fill="#FEFECE" style="stroke: #A80036; stroke-width: 4.166666666666667;"/><text fill="#000000" font-family="CMU Serif" font-size="31.25" lengthAdjust="spacingAndGlyphs" textLength="241.6667" x="16.6667" y="1094.5343">Group manager</text><ellipse cx="143.75" cy="1122.7376" fill="#FEFECE" rx="16.6667" ry="16.6667" style="stroke: #A80036; stroke-width: 4.166666666666667;"/><path d="M143.75,1139.4043 L143.75,1195.6543 M116.6667,1156.071 L170.8333,1156.071 M143.75,1195.6543 L116.6667,1226.9043 M143.75,1195.6543 L170.8333,1226.9043 " fill="#FEFECE" style="stroke: #A80036; stroke-width: 4.166666666666667;"/><rect fill="#FEFECE" height="65.5436" style="stroke: #A80036; stroke-width: 3.125;" width="202.0833" x="367.7083" y="106.25"/><text fill="#000000" font-family="CMU Serif" font-size="31.25" lengthAdjust="spacingAndGlyphs" textLength="172.9167" x="382.2917" y="149.8403">Yoda portal</text><rect fill="#FEFECE" height="65.5436" style="stroke: #A80036; stroke-width: 3.125;" width="202.0833" x="367.7083" y="1065.5273"/><text fill="#000000" font-family="CMU Serif" font-size="31.25" lengthAdjust="spacingAndGlyphs" textLength="172.9167" x="382.2917" y="1109.1176">Yoda portal</text><rect fill="#FEFECE" height="65.5436" style="stroke: #A80036; stroke-width: 3.125;" width="125" x="731.25" y="106.25"/><text fill="#000000" font-family="CMU Serif" font-size="31.25" lengthAdjust="spacingAndGlyphs" textLength="95.8333" x="745.8333" y="149.8403">iRODS</text><rect fill="#FEFECE" height="65.5436" style="stroke: #A80036; stroke-width: 3.125;" width="125" x="731.25" y="1065.5273"/><text fill="#000000" font-family="CMU Serif" font-size="31.25" lengthAdjust="spacingAndGlyphs" textLength="95.8333" x="745.8333" y="1109.1176">iRODS</text><rect fill="#FEFECE" height="65.5436" style="stroke: #A80036; stroke-width: 3.125;" width="437.5" x="877.0833" y="106.25"/><text fill="#000000" font-family="CMU Serif" font-size="31.25" lengthAdjust="spacingAndGlyphs" textLength="408.3333" x="891.6667" y="149.8403">External user service &amp; DB</text><rect fill="#FEFECE" height="65.5436" style="stroke: #A80036; stroke-width: 3.125;" width="437.5" x="877.0833" y="1065.5273"/><text fill="#000000" font-family="CMU Serif" font-size="31.25" lengthAdjust="spacingAndGlyphs" textLength="408.3333" x="891.6667" y="1109.1176">External user service &amp; DB</text><text fill="#000000" font-family="CMU Serif" font-size="31.25" lengthAdjust="spacingAndGlyphs" textLength="204.1667" x="1464.5833" y="166.507">External user</text><ellipse cx="1572.9167" cy="27.0833" fill="#FEFECE" rx="16.6667" ry="16.6667" style="stroke: #A80036; stroke-width: 4.166666666666667;"/><path d="M1572.9167,43.75 L1572.9167,100 M1545.8333,60.4167 L1600,60.4167 M1572.9167,100 L1545.8333,131.25 M1572.9167,100 L1600,131.25 " fill="#FEFECE" style="stroke: #A80036; stroke-width: 4.166666666666667;"/><text fill="#000000" font-family="CMU Serif" font-size="31.25" lengthAdjust="spacingAndGlyphs" textLength="204.1667" x="1464.5833" y="1094.5343">External user</text><ellipse cx="1572.9167" cy="1122.7376" fill="#FEFECE" rx="16.6667" ry="16.6667" style="stroke: #A80036; stroke-width: 4.166666666666667;"/><path d="M1572.9167,1139.4043 L1572.9167,1195.6543 M1545.8333,1156.071 L1600,1156.071 M1572.9167,1195.6543 L1545.8333,1226.9043 M1572.9167,1195.6543 L1600,1226.9043 " fill="#FEFECE" style="stroke: #A80036; stroke-width: 4.166666666666667;"/><polygon fill="#A80036" points="443.75,234.2936,464.5833,242.627,443.75,250.9603,452.0833,242.627" style="stroke: #A80036; stroke-width: 2.0833333333333335;"/><line style="stroke: #A80036; stroke-width: 2.0833333333333335;" x1="143.75" x2="456.25" y1="242.627" y2="242.627"/><text fill="#000000" font-family="CMU Serif" font-size="31.25" lengthAdjust="spacingAndGlyphs" textLength="275" x="158.3333" y="232.0506">Add user to group</text><polygon fill="#A80036" points="768.75,299.8372,789.5833,308.1706,768.75,316.5039,777.0833,308.1706" style="stroke: #A80036; stroke-width: 2.0833333333333335;"/><line style="stroke: #A80036; stroke-width: 2.0833333333333335;" x1="468.75" x2="781.25" y1="308.1706" y2="308.1706"/><text fill="#000000" font-family="CMU Serif" font-size="31.25" lengthAdjust="spacingAndGlyphs" textLength="275" x="483.3333" y="297.5942">Add user to group</text><polygon fill="#A80036" points="1070.8333,365.3809,1091.6667,373.7142,1070.8333,382.0475,1079.1667,373.7142" style="stroke: #A80036; stroke-width: 2.0833333333333335;"/><line style="stroke: #A80036; stroke-width: 2.0833333333333335;" x1="793.75" x2="1083.3333" y1="373.7142" y2="373.7142"/><text fill="#000000" font-family="CMU Serif" font-size="31.25" lengthAdjust="spacingAndGlyphs" textLength="179.1667" x="808.3333" y="363.1378">Create user</text><polygon fill="#A80036" points="1547.9167,430.9245,1568.75,439.2578,1547.9167,447.5911,1556.25,439.2578" style="stroke: #A80036; stroke-width: 2.0833333333333335;"/><line style="stroke: #A80036; stroke-width: 2.0833333333333335;" x1="1095.8333" x2="1560.4167" y1="439.2578" y2="439.2578"/><text fill="#000000" font-family="CMU Serif" font-size="31.25" lengthAdjust="spacingAndGlyphs" textLength="427.0833" x="1110.4167" y="428.6814">Invite with hash URL by mail</text><polygon fill="#A80036" points="166.6667,496.4681,145.8333,504.8014,166.6667,513.1348,158.3333,504.8014" style="stroke: #A80036; stroke-width: 2.0833333333333335;"/><line style="stroke: #A80036; stroke-width: 2.0833333333333335;" x1="154.1667" x2="1093.75" y1="504.8014" y2="504.8014"/><text fill="#000000" font-family="CMU Serif" font-size="31.25" lengthAdjust="spacingAndGlyphs" textLength="460.4167" x="179.1667" y="494.2251">Confirm invitation sent by mail</text><polygon fill="#A80036" points="816.6667,562.0117,795.8333,570.3451,816.6667,578.6784,808.3333,570.3451" style="stroke: #A80036; stroke-width: 2.0833333333333335;"/><line style="stroke: #A80036; stroke-width: 2.0833333333333335; stroke-dasharray: 2.0,2.0;" x1="804.1667" x2="1093.75" y1="570.3451" y2="570.3451"/><text fill="#000000" font-family="CMU Serif" font-size="31.25" lengthAdjust="spacingAndGlyphs" textLength="41.6667" x="829.1667" y="559.7687">Ok</text><polygon fill="#A80036" points="491.6667,627.5553,470.8333,635.8887,491.6667,644.222,483.3333,635.8887" style="stroke: #A80036; stroke-width: 2.0833333333333335;"/><line style="stroke: #A80036; stroke-width: 2.0833333333333335; stroke-dasharray: 2.0,2.0;" x1="479.1667" x2="791.6667" y1="635.8887" y2="635.8887"/><text fill="#000000" font-family="CMU Serif" font-size="31.25" lengthAdjust="spacingAndGlyphs" textLength="41.6667" x="504.1667" y="625.3123">Ok</text><polygon fill="#A80036" points="166.6667,693.099,145.8333,701.4323,166.6667,709.7656,158.3333,701.4323" style="stroke: #A80036; stroke-width: 2.0833333333333335;"/><line style="stroke: #A80036; stroke-width: 2.0833333333333335; stroke-dasharray: 2.0,2.0;" x1="154.1667" x2="466.6667" y1="701.4323" y2="701.4323"/><text fill="#000000" font-family="CMU Serif" font-size="31.25" lengthAdjust="spacingAndGlyphs" textLength="41.6667" x="179.1667" y="690.8559">Ok</text><polygon fill="#A80036" points="1118.75,758.6426,1097.9167,766.9759,1118.75,775.3092,1110.4167,766.9759" style="stroke: #A80036; stroke-width: 2.0833333333333335;"/><line style="stroke: #A80036; stroke-width: 2.0833333333333335;" x1="1106.25" x2="1570.8333" y1="766.9759" y2="766.9759"/><text fill="#000000" font-family="CMU Serif" font-size="31.25" lengthAdjust="spacingAndGlyphs" textLength="279.1667" x="1131.25" y="756.3995">Visit invitation URL</text><polygon fill="#A80036" points="1547.9167,824.1862,1568.75,832.5195,1547.9167,840.8529,1556.25,832.5195" style="stroke: #A80036; stroke-width: 2.0833333333333335;"/><line style="stroke: #A80036; stroke-width: 2.0833333333333335;" x1="1095.8333" x2="1560.4167" y1="832.5195" y2="832.5195"/><text fill="#000000" font-family="CMU Serif" font-size="31.25" lengthAdjust="spacingAndGlyphs" textLength="283.3333" x="1110.4167" y="821.9432">Request password</text><polygon fill="#A80036" points="1118.75,889.7298,1097.9167,898.0632,1118.75,906.3965,1110.4167,898.0632" style="stroke: #A80036; stroke-width: 2.0833333333333335;"/><line style="stroke: #A80036; stroke-width: 2.0833333333333335;" x1="1106.25" x2="1570.8333" y1="898.0632" y2="898.0632"/><text fill="#000000" font-family="CMU Serif" font-size="31.25" lengthAdjust="spacingAndGlyphs" textLength="268.75" x="1131.25" y="887.4868">Provide password</text><polygon fill="#A80036" points="1547.9167,955.2734,1568.75,963.6068,1547.9167,971.9401,1556.25,963.6068" style="stroke: #A80036; stroke-width: 2.0833333333333335;"/><line style="stroke: #A80036; stroke-width: 2.0833333333333335; stroke-dasharray: 2.0,2.0;" x1="1095.8333" x2="1560.4167" y1="963.6068" y2="963.6068"/><text fill="#000000" font-family="CMU Serif" font-size="31.25" lengthAdjust="spacingAndGlyphs" textLength="41.6667" x="1110.4167" y="953.0304">Ok</text><polygon fill="#A80036" points="166.6667,1020.8171,145.8333,1029.1504,166.6667,1037.4837,158.3333,1029.1504" style="stroke: #A80036; stroke-width: 2.0833333333333335;"/><line style="stroke: #A80036; stroke-width: 2.0833333333333335;" x1="154.1667" x2="1093.75" y1="1029.1504" y2="1029.1504"/><text fill="#000000" font-family="CMU Serif" font-size="31.25" lengthAdjust="spacingAndGlyphs" textLength="447.9167" x="179.1667" y="1018.574">Confirm user creation by mail</text></g></svg>