<?xml version="1.0" encoding="UTF-8" standalone="yes"?><svg xmlns="http://www.w3.org/2000/svg" xmlns:xlink="http://www.w3.org/1999/xlink" height="704.1667px" style="width:1541px;height:704px;" version="1.1" viewBox="0 0 1541 704" width="1541.6667px"><defs/><g><line style="stroke: #A80036; stroke-width: 2.0833333333333335; stroke-dasharray: 5.0,5.0;" x1="143.75" x2="143.75" y1="173.877" y2="543.2617"/><line style="stroke: #A80036; stroke-width: 2.0833333333333335; stroke-dasharray: 5.0,5.0;" x1="467.7083" x2="467.7083" y1="173.877" y2="543.2617"/><line style="stroke: #A80036; stroke-width: 2.0833333333333335; stroke-dasharray: 5.0,5.0;" x1="793.75" x2="793.75" y1="173.877" y2="543.2617"/><line style="stroke: #A80036; stroke-width: 2.0833333333333335; stroke-dasharray: 5.0,5.0;" x1="1095.8333" x2="1095.8333" y1="173.877" y2="543.2617"/><line style="stroke: #A80036; stroke-width: 2.0833333333333335; stroke-dasharray: 5.0,5.0;" x1="1443.75" x2="1443.75" y1="173.877" y2="543.2617"/><text fill="#000000" font-family="CMU Serif" font-size="31.25" lengthAdjust="spacingAndGlyphs" textLength="241.6667" x="16.6667" y="166.507">Group manager</text><ellipse cx="143.75" cy="27.0833" fill="#FEFECE" rx="16.6667" ry="16.6667" style="stroke: #A80036; stroke-width: 4.166666666666667;"/><path d="M143.75,43.75 L143.75,100 M116.6667,60.4167 L170.8333,60.4167 M143.75,100 L116.6667,131.25 M143.75,100 L170.8333,131.25 " fill="#FEFECE" style="stroke: #A80036; stroke-width: 4.166666666666667;"/><text fill="#000000" font-family="CMU Serif" font-size="31.25" lengthAdjust="spacingAndGlyphs" textLength="241.6667" x="16.6667" y="570.1853">Group manager</text><ellipse cx="143.75" cy="598.3887" fill="#FEFECE" rx="16.6667" ry="16.6667" style="stroke: #A80036; stroke-width: 4.166666666666667;"/><path d="M143.75,615.0553 L143.75,671.3053 M116.6667,631.722 L170.8333,631.722 M143.75,671.3053 L116.6667,702.5553 M143.75,671.3053 L170.8333,702.5553 " fill="#FEFECE" style="stroke: #A80036; stroke-width: 4.166666666666667;"/><rect fill="#FEFECE" height="65.5436" style="stroke: #A80036; stroke-width: 3.125;" width="202.0833" x="367.7083" y="106.25"/><text fill="#000000" font-family="CMU Serif" font-size="31.25" lengthAdjust="spacingAndGlyphs" textLength="172.9167" x="382.2917" y="149.8403">Yoda portal</text><rect fill="#FEFECE" height="65.5436" style="stroke: #A80036; stroke-width: 3.125;" width="202.0833" x="367.7083" y="541.1784"/><text fill="#000000" font-family="CMU Serif" font-size="31.25" lengthAdjust="spacingAndGlyphs" textLength="172.9167" x="382.2917" y="584.7687">Yoda portal</text><rect fill="#FEFECE" height="65.5436" style="stroke: #A80036; stroke-width: 3.125;" width="125" x="731.25" y="106.25"/><text fill="#000000" font-family="CMU Serif" font-size="31.25" lengthAdjust="spacingAndGlyphs" textLength="95.8333" x="745.8333" y="149.8403">iRODS</text><rect fill="#FEFECE" height="65.5436" style="stroke: #A80036; stroke-width: 3.125;" width="125" x="731.25" y="541.1784"/><text fill="#000000" font-family="CMU Serif" font-size="31.25" lengthAdjust="spacingAndGlyphs" textLength="95.8333" x="745.8333" y="584.7687">iRODS</text><rect fill="#FEFECE" height="65.5436" style="stroke: #A80036; stroke-width: 3.125;" width="437.5" x="877.0833" y="106.25"/><text fill="#000000" font-family="CMU Serif" font-size="31.25" lengthAdjust="spacingAndGlyphs" textLength="408.3333" x="891.6667" y="149.8403">External user service &amp; DB</text><rect fill="#FEFECE" height="65.5436" style="stroke: #A80036; stroke-width: 3.125;" width="437.5" x="877.0833" y="541.1784"/><text fill="#000000" font-family="CMU Serif" font-size="31.25" lengthAdjust="spacingAndGlyphs" textLength="408.3333" x="891.6667" y="584.7687">External user service &amp; DB</text><text fill="#000000" font-family="CMU Serif" font-size="31.25" lengthAdjust="spacingAndGlyphs" textLength="204.1667" x="1335.4167" y="166.507">External user</text><ellipse cx="1443.75" cy="27.0833" fill="#FEFECE" rx="16.6667" ry="16.6667" style="stroke: #A80036; stroke-width: 4.166666666666667;"/><path d="M1443.75,43.75 L1443.75,100 M1416.6667,60.4167 L1470.8333,60.4167 M1443.75,100 L1416.6667,131.25 M1443.75,100 L1470.8333,131.25 " fill="#FEFECE" style="stroke: #A80036; stroke-width: 4.166666666666667;"/><text fill="#000000" font-family="CMU Serif" font-size="31.25" lengthAdjust="spacingAndGlyphs" textLength="204.1667" x="1335.4167" y="570.1853">External user</text><ellipse cx="1443.75" cy="598.3887" fill="#FEFECE" rx="16.6667" ry="16.6667" style="stroke: #A80036; stroke-width: 4.166666666666667;"/><path d="M1443.75,615.0553 L1443.75,671.3053 M1416.6667,631.722 L1470.8333,631.722 M1443.75,671.3053 L1416.6667,702.5553 M1443.75,671.3053 L1470.8333,702.5553 " fill="#FEFECE" style="stroke: #A80036; stroke-width: 4.166666666666667;"/><polygon fill="#A80036" points="443.75,234.2936,464.5833,242.627,443.75,250.9603,452.0833,242.627" style="stroke: #A80036; stroke-width: 2.0833333333333335;"/><line style="stroke: #A80036; stroke-width: 2.0833333333333335;" x1="143.75" x2="456.25" y1="242.627" y2="242.627"/><text fill="#000000" font-family="CMU Serif" font-size="31.25" lengthAdjust="spacingAndGlyphs" textLength="275" x="158.3333" y="232.0506">Add user to group</text><polygon fill="#A80036" points="768.75,299.8372,789.5833,308.1706,768.75,316.5039,777.0833,308.1706" style="stroke: #A80036; stroke-width: 2.0833333333333335;"/><line style="stroke: #A80036; stroke-width: 2.0833333333333335;" x1="468.75" x2="781.25" y1="308.1706" y2="308.1706"/><text fill="#000000" font-family="CMU Serif" font-size="31.25" lengthAdjust="spacingAndGlyphs" textLength="275" x="483.3333" y="297.5942">Add user to group</text><polygon fill="#A80036" points="1070.8333,365.3809,1091.6667,373.7142,1070.8333,382.0475,1079.1667,373.7142" style="stroke: #A80036; stroke-width: 2.0833333333333335;"/><line style="stroke: #A80036; stroke-width: 2.0833333333333335;" x1="793.75" x2="1083.3333" y1="373.7142" y2="373.7142"/><text fill="#000000" font-family="CMU Serif" font-size="31.25" lengthAdjust="spacingAndGlyphs" textLength="179.1667" x="808.3333" y="363.1378">Create user</text><polygon fill="#A80036" points="1418.75,430.9245,1439.5833,439.2578,1418.75,447.5911,1427.0833,439.2578" style="stroke: #A80036; stroke-width: 2.0833333333333335;"/><line style="stroke: #A80036; stroke-width: 2.0833333333333335;" x1="1095.8333" x2="1431.25" y1="439.2578" y2="439.2578"/><text fill="#000000" font-family="CMU Serif" font-size="31.25" lengthAdjust="spacingAndGlyphs" textLength="208.3333" x="1110.4167" y="428.6814">Invitation mail</text><polygon fill="#A80036" points="166.6667,496.4681,145.8333,504.8014,166.6667,513.1348,158.3333,504.8014" style="stroke: #A80036; stroke-width: 2.0833333333333335;"/><line style="stroke: #A80036; stroke-width: 2.0833333333333335;" x1="154.1667" x2="1093.75" y1="504.8014" y2="504.8014"/><text fill="#000000" font-family="CMU Serif" font-size="31.25" lengthAdjust="spacingAndGlyphs" textLength="460.4167" x="179.1667" y="494.2251">Confirm invitation sent by mail</text></g></svg>