<?xml version="1.0" encoding="UTF-8" standalone="yes"?><svg xmlns="http://www.w3.org/2000/svg" xmlns:xlink="http://www.w3.org/1999/xlink" height="1293.75px" style="width:1679px;height:1293px;" version="1.1" viewBox="0 0 1679 1293" width="1679.1667px"><defs/><g><line style="stroke: #A80036; stroke-width: 2.0833333333333335; stroke-dasharray: 5.0,5.0;" x1="143.75" x2="143.75" y1="173.877" y2="1133.1543"/><line style="stroke: #A80036; stroke-width: 2.0833333333333335; stroke-dasharray: 5.0,5.0;" x1="467.7083" x2="467.7083" y1="173.877" y2="1133.1543"/><line style="stroke: #A80036; stroke-width: 2.0833333333333335; stroke-dasharray: 5.0,5.0;" x1="802.0833" x2="802.0833" y1="173.877" y2="1133.1543"/><line style="stroke: #A80036; stroke-width: 2.0833333333333335; stroke-dasharray: 5.0,5.0;" x1="1104.1667" x2="1104.1667" y1="173.877" y2="1133.1543"/><line style="stroke: #A80036; stroke-width: 2.0833333333333335; stroke-dasharray: 5.0,5.0;" x1="1581.25" x2="1581.25" y1="173.877" y2="1133.1543"/><text fill="#000000" font-family="CMU Serif" font-size="31.25" lengthAdjust="spacingAndGlyphs" textLength="241.6667" x="16.6667" y="166.507">Group manager</text><ellipse cx="143.75" cy="27.0833" fill="#FEFECE" rx="16.6667" ry="16.6667" style="stroke: #A80036; stroke-width: 4.166666666666667;"/><path d="M143.75,43.75 L143.75,100 M116.6667,60.4167 L170.8333,60.4167 M143.75,100 L116.6667,131.25 M143.75,100 L170.8333,131.25 " fill="#FEFECE" style="stroke: #A80036; stroke-width: 4.166666666666667;"/><text fill="#000000" font-family="CMU Serif" font-size="31.25" lengthAdjust="spacingAndGlyphs" textLength="241.6667" x="16.6667" y="1160.0779">Group manager</text><ellipse cx="143.75" cy="1188.2813" fill="#FEFECE" rx="16.6667" ry="16.6667" style="stroke: #A80036; stroke-width: 4.166666666666667;"/><path d="M143.75,1204.9479 L143.75,1261.1979 M116.6667,1221.6146 L170.8333,1221.6146 M143.75,1261.1979 L116.6667,1292.4479 M143.75,1261.1979 L170.8333,1292.4479 " fill="#FEFECE" style="stroke: #A80036; stroke-width: 4.166666666666667;"/><rect fill="#FEFECE" height="65.5436" style="stroke: #A80036; stroke-width: 3.125;" width="202.0833" x="367.7083" y="106.25"/><text fill="#000000" font-family="CMU Serif" font-size="31.25" lengthAdjust="spacingAndGlyphs" textLength="172.9167" x="382.2917" y="149.8403">Yoda portal</text><rect fill="#FEFECE" height="65.5436" style="stroke: #A80036; stroke-width: 3.125;" width="202.0833" x="367.7083" y="1131.071"/><text fill="#000000" font-family="CMU Serif" font-size="31.25" lengthAdjust="spacingAndGlyphs" textLength="172.9167" x="382.2917" y="1174.6613">Yoda portal</text><rect fill="#FEFECE" height="65.5436" style="stroke: #A80036; stroke-width: 3.125;" width="125" x="739.5833" y="106.25"/><text fill="#000000" font-family="CMU Serif" font-size="31.25" lengthAdjust="spacingAndGlyphs" textLength="95.8333" x="754.1667" y="149.8403">iRODS</text><rect fill="#FEFECE" height="65.5436" style="stroke: #A80036; stroke-width: 3.125;" width="125" x="739.5833" y="1131.071"/><text fill="#000000" font-family="CMU Serif" font-size="31.25" lengthAdjust="spacingAndGlyphs" textLength="95.8333" x="754.1667" y="1174.6613">iRODS</text><rect fill="#FEFECE" height="65.5436" style="stroke: #A80036; stroke-width: 3.125;" width="437.5" x="885.4167" y="106.25"/><text fill="#000000" font-family="CMU Serif" font-size="31.25" lengthAdjust="spacingAndGlyphs" textLength="408.3333" x="900" y="149.8403">External user service &amp; DB</text><rect fill="#FEFECE" height="65.5436" style="stroke: #A80036; stroke-width: 3.125;" width="437.5" x="885.4167" y="1131.071"/><text fill="#000000" font-family="CMU Serif" font-size="31.25" lengthAdjust="spacingAndGlyphs" textLength="408.3333" x="900" y="1174.6613">External user service &amp; DB</text><text fill="#000000" font-family="CMU Serif" font-size="31.25" lengthAdjust="spacingAndGlyphs" textLength="204.1667" x="1472.9167" y="166.507">External user</text><ellipse cx="1581.25" cy="27.0833" fill="#FEFECE" rx="16.6667" ry="16.6667" style="stroke: #A80036; stroke-width: 4.166666666666667;"/><path d="M1581.25,43.75 L1581.25,100 M1554.1667,60.4167 L1608.3333,60.4167 M1581.25,100 L1554.1667,131.25 M1581.25,100 L1608.3333,131.25 " fill="#FEFECE" style="stroke: #A80036; stroke-width: 4.166666666666667;"/><text fill="#000000" font-family="CMU Serif" font-size="31.25" lengthAdjust="spacingAndGlyphs" textLength="204.1667" x="1472.9167" y="1160.0779">External user</text><ellipse cx="1581.25" cy="1188.2813" fill="#FEFECE" rx="16.6667" ry="16.6667" style="stroke: #A80036; stroke-width: 4.166666666666667;"/><path d="M1581.25,1204.9479 L1581.25,1261.1979 M1554.1667,1221.6146 L1608.3333,1221.6146 M1581.25,1261.1979 L1554.1667,1292.4479 M1581.25,1261.1979 L1608.3333,1292.4479 " fill="#FEFECE" style="stroke: #A80036; stroke-width: 4.166666666666667;"/><polygon fill="#A80036" points="443.75,234.2936,464.5833,242.627,443.75,250.9603,452.0833,242.627" style="stroke: #A80036; stroke-width: 2.0833333333333335;"/><line style="stroke: #A80036; stroke-width: 2.0833333333333335;" x1="143.75" x2="456.25" y1="242.627" y2="242.627"/><text fill="#000000" font-family="CMU Serif" font-size="31.25" lengthAdjust="spacingAndGlyphs" textLength="275" x="158.3333" y="232.0506">Add user to group</text><polygon fill="#A80036" points="1079.1667,299.8372,1100,308.1706,1079.1667,316.5039,1087.5,308.1706" style="stroke: #A80036; stroke-width: 2.0833333333333335;"/><line style="stroke: #A80036; stroke-width: 2.0833333333333335;" x1="468.75" x2="1091.6667" y1="308.1706" y2="308.1706"/><text fill="#000000" font-family="CMU Serif" font-size="31.25" lengthAdjust="spacingAndGlyphs" textLength="179.1667" x="483.3333" y="297.5942">Create user</text><polygon fill="#A80036" points="1556.25,365.3809,1577.0833,373.7142,1556.25,382.0475,1564.5833,373.7142" style="stroke: #A80036; stroke-width: 2.0833333333333335;"/><line style="stroke: #A80036; stroke-width: 2.0833333333333335;" x1="1104.1667" x2="1568.75" y1="373.7142" y2="373.7142"/><text fill="#000000" font-family="CMU Serif" font-size="31.25" lengthAdjust="spacingAndGlyphs" textLength="427.0833" x="1118.75" y="363.1378">Invite with hash URL by mail</text><polygon fill="#A80036" points="166.6667,430.9245,145.8333,439.2578,166.6667,447.5911,158.3333,439.2578" style="stroke: #A80036; stroke-width: 2.0833333333333335;"/><line style="stroke: #A80036; stroke-width: 2.0833333333333335;" x1="154.1667" x2="1102.0833" y1="439.2578" y2="439.2578"/><text fill="#000000" font-family="CMU Serif" font-size="31.25" lengthAdjust="spacingAndGlyphs" textLength="460.4167" x="179.1667" y="428.6814">Confirm invitation sent by mail</text><polygon fill="#A80036" points="825,496.4681,804.1667,504.8014,825,513.1348,816.6667,504.8014" style="stroke: #A80036; stroke-width: 2.0833333333333335;"/><line style="stroke: #A80036; stroke-width: 2.0833333333333335; stroke-dasharray: 2.0,2.0;" x1="812.5" x2="1102.0833" y1="504.8014" y2="504.8014"/><text fill="#000000" font-family="CMU Serif" font-size="31.25" lengthAdjust="spacingAndGlyphs" textLength="41.6667" x="837.5" y="494.2251">Ok</text><polygon fill="#A80036" points="491.6667,562.0117,470.8333,570.3451,491.6667,578.6784,483.3333,570.3451" style="stroke: #A80036; stroke-width: 2.0833333333333335;"/><line style="stroke: #A80036; stroke-width: 2.0833333333333335; stroke-dasharray: 2.0,2.0;" x1="479.1667" x2="800" y1="570.3451" y2="570.3451"/><text fill="#000000" font-family="CMU Serif" font-size="31.25" lengthAdjust="spacingAndGlyphs" textLength="41.6667" x="504.1667" y="559.7687">Ok</text><polygon fill="#A80036" points="777.0833,627.5553,797.9167,635.8887,777.0833,644.222,785.4167,635.8887" style="stroke: #A80036; stroke-width: 2.0833333333333335;"/><line style="stroke: #A80036; stroke-width: 2.0833333333333335;" x1="468.75" x2="789.5833" y1="635.8887" y2="635.8887"/><text fill="#000000" font-family="CMU Serif" font-size="31.25" lengthAdjust="spacingAndGlyphs" textLength="283.3333" x="483.3333" y="625.3123">Add user to iRODS</text><polygon fill="#A80036" points="491.6667,693.099,470.8333,701.4323,491.6667,709.7656,483.3333,701.4323" style="stroke: #A80036; stroke-width: 2.0833333333333335;"/><line style="stroke: #A80036; stroke-width: 2.0833333333333335; stroke-dasharray: 2.0,2.0;" x1="479.1667" x2="800" y1="701.4323" y2="701.4323"/><text fill="#000000" font-family="CMU Serif" font-size="31.25" lengthAdjust="spacingAndGlyphs" textLength="41.6667" x="504.1667" y="690.8559">Ok</text><polygon fill="#A80036" points="166.6667,758.6426,145.8333,766.9759,166.6667,775.3092,158.3333,766.9759" style="stroke: #A80036; stroke-width: 2.0833333333333335;"/><line style="stroke: #A80036; stroke-width: 2.0833333333333335; stroke-dasharray: 2.0,2.0;" x1="154.1667" x2="466.6667" y1="766.9759" y2="766.9759"/><text fill="#000000" font-family="CMU Serif" font-size="31.25" lengthAdjust="spacingAndGlyphs" textLength="41.6667" x="179.1667" y="756.3995">Ok</text><polygon fill="#A80036" points="1127.0833,824.1862,1106.25,832.5195,1127.0833,840.8529,1118.75,832.5195" style="stroke: #A80036; stroke-width: 2.0833333333333335;"/><line style="stroke: #A80036; stroke-width: 2.0833333333333335;" x1="1114.5833" x2="1579.1667" y1="832.5195" y2="832.5195"/><text fill="#000000" font-family="CMU Serif" font-size="31.25" lengthAdjust="spacingAndGlyphs" textLength="279.1667" x="1139.5833" y="821.9432">Visit invitation URL</text><polygon fill="#A80036" points="1556.25,889.7298,1577.0833,898.0632,1556.25,906.3965,1564.5833,898.0632" style="stroke: #A80036; stroke-width: 2.0833333333333335;"/><line style="stroke: #A80036; stroke-width: 2.0833333333333335;" x1="1104.1667" x2="1568.75" y1="898.0632" y2="898.0632"/><text fill="#000000" font-family="CMU Serif" font-size="31.25" lengthAdjust="spacingAndGlyphs" textLength="283.3333" x="1118.75" y="887.4868">Request password</text><polygon fill="#A80036" points="1127.0833,955.2734,1106.25,963.6068,1127.0833,971.9401,1118.75,963.6068" style="stroke: #A80036; stroke-width: 2.0833333333333335;"/><line style="stroke: #A80036; stroke-width: 2.0833333333333335;" x1="1114.5833" x2="1579.1667" y1="963.6068" y2="963.6068"/><text fill="#000000" font-family="CMU Serif" font-size="31.25" lengthAdjust="spacingAndGlyphs" textLength="268.75" x="1139.5833" y="953.0304">Provide password</text><polygon fill="#A80036" points="1556.25,1020.8171,1577.0833,1029.1504,1556.25,1037.4837,1564.5833,1029.1504" style="stroke: #A80036; stroke-width: 2.0833333333333335;"/><line style="stroke: #A80036; stroke-width: 2.0833333333333335; stroke-dasharray: 2.0,2.0;" x1="1104.1667" x2="1568.75" y1="1029.1504" y2="1029.1504"/><text fill="#000000" font-family="CMU Serif" font-size="31.25" lengthAdjust="spacingAndGlyphs" textLength="41.6667" x="1118.75" y="1018.574">Ok</text><polygon fill="#A80036" points="166.6667,1086.3607,145.8333,1094.694,166.6667,1103.0273,158.3333,1094.694" style="stroke: #A80036; stroke-width: 2.0833333333333335;"/><line style="stroke: #A80036; stroke-width: 2.0833333333333335;" x1="154.1667" x2="1102.0833" y1="1094.694" y2="1094.694"/><text fill="#000000" font-family="CMU Serif" font-size="31.25" lengthAdjust="spacingAndGlyphs" textLength="447.9167" x="179.1667" y="1084.1176">Confirm user creation by mail</text></g></svg>