<?xml version="1.0" encoding="UTF-8" standalone="yes"?><svg xmlns="http://www.w3.org/2000/svg" xmlns:xlink="http://www.w3.org/1999/xlink" height="637.5px" style="width:1050px;height:637px;" version="1.1" viewBox="0 0 1050 637" width="1050px"><defs/><g><line style="stroke: #A80036; stroke-width: 2.0833333333333335; stroke-dasharray: 5.0,5.0;" x1="112.5" x2="112.5" y1="173.877" y2="477.7181"/><line style="stroke: #A80036; stroke-width: 2.0833333333333335; stroke-dasharray: 5.0,5.0;" x1="527.0833" x2="527.0833" y1="173.877" y2="477.7181"/><line style="stroke: #A80036; stroke-width: 2.0833333333333335; stroke-dasharray: 5.0,5.0;" x1="829.1667" x2="829.1667" y1="173.877" y2="477.7181"/><text fill="#000000" font-family="CMU Serif" font-size="31.25" lengthAdjust="spacingAndGlyphs" textLength="179.1667" x="16.6667" y="166.507">Yoda admin</text><ellipse cx="112.5" cy="27.0833" fill="#FEFECE" rx="16.6667" ry="16.6667" style="stroke: #A80036; stroke-width: 4.166666666666667;"/><path d="M112.5,43.75 L112.5,100 M85.4167,60.4167 L139.5833,60.4167 M112.5,100 L85.4167,131.25 M112.5,100 L139.5833,131.25 " fill="#FEFECE" style="stroke: #A80036; stroke-width: 4.166666666666667;"/><text fill="#000000" font-family="CMU Serif" font-size="31.25" lengthAdjust="spacingAndGlyphs" textLength="179.1667" x="16.6667" y="504.6417">Yoda admin</text><ellipse cx="112.5" cy="532.8451" fill="#FEFECE" rx="16.6667" ry="16.6667" style="stroke: #A80036; stroke-width: 4.166666666666667;"/><path d="M112.5,549.5117 L112.5,605.7617 M85.4167,566.1784 L139.5833,566.1784 M112.5,605.7617 L85.4167,637.0117 M112.5,605.7617 L139.5833,637.0117 " fill="#FEFECE" style="stroke: #A80036; stroke-width: 4.166666666666667;"/><rect fill="#FEFECE" height="65.5436" style="stroke: #A80036; stroke-width: 3.125;" width="125" x="464.5833" y="106.25"/><text fill="#000000" font-family="CMU Serif" font-size="31.25" lengthAdjust="spacingAndGlyphs" textLength="95.8333" x="479.1667" y="149.8403">iRODS</text><rect fill="#FEFECE" height="65.5436" style="stroke: #A80036; stroke-width: 3.125;" width="125" x="464.5833" y="475.6348"/><text fill="#000000" font-family="CMU Serif" font-size="31.25" lengthAdjust="spacingAndGlyphs" textLength="95.8333" x="479.1667" y="519.2251">iRODS</text><rect fill="#FEFECE" height="65.5436" style="stroke: #A80036; stroke-width: 3.125;" width="437.5" x="610.4167" y="106.25"/><text fill="#000000" font-family="CMU Serif" font-size="31.25" lengthAdjust="spacingAndGlyphs" textLength="408.3333" x="625" y="149.8403">External user service &amp; DB</text><rect fill="#FEFECE" height="65.5436" style="stroke: #A80036; stroke-width: 3.125;" width="437.5" x="610.4167" y="475.6348"/><text fill="#000000" font-family="CMU Serif" font-size="31.25" lengthAdjust="spacingAndGlyphs" textLength="408.3333" x="625" y="519.2251">External user service &amp; DB</text><polygon fill="#A80036" points="502.0833,234.2936,522.9167,242.627,502.0833,250.9603,510.4167,242.627" style="stroke: #A80036; stroke-width: 2.0833333333333335;"/><line style="stroke: #A80036; stroke-width: 2.0833333333333335;" x1="112.5" x2="514.5833" y1="242.627" y2="242.627"/><text fill="#000000" font-family="CMU Serif" font-size="31.25" lengthAdjust="spacingAndGlyphs" textLength="364.5833" x="127.0833" y="232.0506">Delete user from iRODS</text><polygon fill="#A80036" points="804.1667,299.8372,825,308.1706,804.1667,316.5039,812.5,308.1706" style="stroke: #A80036; stroke-width: 2.0833333333333335;"/><line style="stroke: #A80036; stroke-width: 2.0833333333333335;" x1="527.0833" x2="816.6667" y1="308.1706" y2="308.1706"/><text fill="#000000" font-family="CMU Serif" font-size="31.25" lengthAdjust="spacingAndGlyphs" textLength="175" x="541.6667" y="297.5942">Delete user</text><polygon fill="#A80036" points="550,365.3809,529.1667,373.7142,550,382.0475,541.6667,373.7142" style="stroke: #A80036; stroke-width: 2.0833333333333335;"/><line style="stroke: #A80036; stroke-width: 2.0833333333333335;" x1="537.5" x2="827.0833" y1="373.7142" y2="373.7142"/><text fill="#000000" font-family="CMU Serif" font-size="31.25" lengthAdjust="spacingAndGlyphs" textLength="41.6667" x="562.5" y="363.1378">Ok</text><polygon fill="#A80036" points="135.4167,430.9245,114.5833,439.2578,135.4167,447.5911,127.0833,439.2578" style="stroke: #A80036; stroke-width: 2.0833333333333335;"/><line style="stroke: #A80036; stroke-width: 2.0833333333333335;" x1="122.9167" x2="525" y1="439.2578" y2="439.2578"/><text fill="#000000" font-family="CMU Serif" font-size="31.25" lengthAdjust="spacingAndGlyphs" textLength="41.6667" x="147.9167" y="428.6814">Ok</text></g></svg>