<?xml version="1.0" encoding="UTF-8" standalone="no"?><svg xmlns="http://www.w3.org/2000/svg" xmlns:xlink="http://www.w3.org/1999/xlink" contentScriptType="application/ecmascript" contentStyleType="text/css" height="1341px" preserveAspectRatio="none" style="width:821px;height:1341px;" version="1.1" viewBox="0 0 821 1341" width="821px" zoomAndPan="magnify"><defs><filter height="300%" id="f6den9rm5se57" width="300%" x="-1" y="-1"><feGaussianBlur result="blurOut" stdDeviation="2.0"/><feColorMatrix in="blurOut" result="blurOut2" type="matrix" values="0 0 0 0 0 0 0 0 0 0 0 0 0 0 0 0 0 0 .4 0"/><feOffset dx="4.0" dy="4.0" in="blurOut2" result="blurOut3"/><feBlend in="SourceGraphic" in2="blurOut3" mode="normal"/></filter></defs><g><line style="stroke: #A80036; stroke-width: 1.0; stroke-dasharray: 5.0,5.0;" x1="101" x2="101" y1="86.2969" y2="1254.2109"/><line style="stroke: #A80036; stroke-width: 1.0; stroke-dasharray: 5.0,5.0;" x1="203" x2="203" y1="86.2969" y2="1254.2109"/><line style="stroke: #A80036; stroke-width: 1.0; stroke-dasharray: 5.0,5.0;" x1="311" x2="311" y1="86.2969" y2="1254.2109"/><line style="stroke: #A80036; stroke-width: 1.0; stroke-dasharray: 5.0,5.0;" x1="418" x2="418" y1="86.2969" y2="1254.2109"/><line style="stroke: #A80036; stroke-width: 1.0; stroke-dasharray: 5.0,5.0;" x1="525" x2="525" y1="86.2969" y2="1254.2109"/><line style="stroke: #A80036; stroke-width: 1.0; stroke-dasharray: 5.0,5.0;" x1="720.5" x2="720.5" y1="86.2969" y2="1254.2109"/><text fill="#000000" font-family="sans-serif" font-size="14" lengthAdjust="spacingAndGlyphs" textLength="80" x="58" y="82.9951">Researcher</text><ellipse cx="101" cy="13" fill="#FEFECE" filter="url(#f6den9rm5se57)" rx="8" ry="8" style="stroke: #A80036; stroke-width: 2.0;"/><path d="M101,21 L101,48 M88,29 L114,29 M101,48 L88,63 M101,48 L114,63 " fill="none" filter="url(#f6den9rm5se57)" style="stroke: #A80036; stroke-width: 2.0;"/><text fill="#000000" font-family="sans-serif" font-size="14" lengthAdjust="spacingAndGlyphs" textLength="80" x="58" y="1266.2061">Researcher</text><ellipse cx="101" cy="1279.5078" fill="#FEFECE" filter="url(#f6den9rm5se57)" rx="8" ry="8" style="stroke: #A80036; stroke-width: 2.0;"/><path d="M101,1287.5078 L101,1314.5078 M88,1295.5078 L114,1295.5078 M101,1314.5078 L88,1329.5078 M101,1314.5078 L114,1329.5078 " fill="none" filter="url(#f6den9rm5se57)" style="stroke: #A80036; stroke-width: 2.0;"/><text fill="#000000" font-family="sans-serif" font-size="14" lengthAdjust="spacingAndGlyphs" textLength="93" x="154" y="82.9951">Datamanager</text><ellipse cx="203.5" cy="13" fill="#FEFECE" filter="url(#f6den9rm5se57)" rx="8" ry="8" style="stroke: #A80036; stroke-width: 2.0;"/><path d="M203.5,21 L203.5,48 M190.5,29 L216.5,29 M203.5,48 L190.5,63 M203.5,48 L216.5,63 " fill="none" filter="url(#f6den9rm5se57)" style="stroke: #A80036; stroke-width: 2.0;"/><text fill="#000000" font-family="sans-serif" font-size="14" lengthAdjust="spacingAndGlyphs" textLength="93" x="154" y="1266.2061">Datamanager</text><ellipse cx="203.5" cy="1279.5078" fill="#FEFECE" filter="url(#f6den9rm5se57)" rx="8" ry="8" style="stroke: #A80036; stroke-width: 2.0;"/><path d="M203.5,1287.5078 L203.5,1314.5078 M190.5,1295.5078 L216.5,1295.5078 M203.5,1314.5078 L190.5,1329.5078 M203.5,1314.5078 L216.5,1329.5078 " fill="none" filter="url(#f6den9rm5se57)" style="stroke: #A80036; stroke-width: 2.0;"/><text fill="#000000" font-family="sans-serif" font-size="14" lengthAdjust="spacingAndGlyphs" textLength="91" x="263" y="82.9951">DMCmember</text><ellipse cx="311.5" cy="13" fill="#FEFECE" filter="url(#f6den9rm5se57)" rx="8" ry="8" style="stroke: #A80036; stroke-width: 2.0;"/><path d="M311.5,21 L311.5,48 M298.5,29 L324.5,29 M311.5,48 L298.5,63 M311.5,48 L324.5,63 " fill="none" filter="url(#f6den9rm5se57)" style="stroke: #A80036; stroke-width: 2.0;"/><text fill="#000000" font-family="sans-serif" font-size="14" lengthAdjust="spacingAndGlyphs" textLength="91" x="263" y="1266.2061">DMCmember</text><ellipse cx="311.5" cy="1279.5078" fill="#FEFECE" filter="url(#f6den9rm5se57)" rx="8" ry="8" style="stroke: #A80036; stroke-width: 2.0;"/><path d="M311.5,1287.5078 L311.5,1314.5078 M298.5,1295.5078 L324.5,1295.5078 M311.5,1314.5078 L298.5,1329.5078 M311.5,1314.5078 L324.5,1329.5078 " fill="none" filter="url(#f6den9rm5se57)" style="stroke: #A80036; stroke-width: 2.0;"/><text fill="#000000" font-family="sans-serif" font-size="14" lengthAdjust="spacingAndGlyphs" textLength="91" x="370" y="82.9951">DMCmember</text><ellipse cx="418.5" cy="13" fill="#FEFECE" filter="url(#f6den9rm5se57)" rx="8" ry="8" style="stroke: #A80036; stroke-width: 2.0;"/><path d="M418.5,21 L418.5,48 M405.5,29 L431.5,29 M418.5,48 L405.5,63 M418.5,48 L431.5,63 " fill="none" filter="url(#f6den9rm5se57)" style="stroke: #A80036; stroke-width: 2.0;"/><text fill="#000000" font-family="sans-serif" font-size="14" lengthAdjust="spacingAndGlyphs" textLength="91" x="370" y="1266.2061">DMCmember</text><ellipse cx="418.5" cy="1279.5078" fill="#FEFECE" filter="url(#f6den9rm5se57)" rx="8" ry="8" style="stroke: #A80036; stroke-width: 2.0;"/><path d="M418.5,1287.5078 L418.5,1314.5078 M405.5,1295.5078 L431.5,1295.5078 M418.5,1314.5078 L405.5,1329.5078 M418.5,1314.5078 L431.5,1329.5078 " fill="none" filter="url(#f6den9rm5se57)" style="stroke: #A80036; stroke-width: 2.0;"/><text fill="#000000" font-family="sans-serif" font-size="14" lengthAdjust="spacingAndGlyphs" textLength="90" x="477" y="82.9951">BODmember</text><ellipse cx="525" cy="13" fill="#FEFECE" filter="url(#f6den9rm5se57)" rx="8" ry="8" style="stroke: #A80036; stroke-width: 2.0;"/><path d="M525,21 L525,48 M512,29 L538,29 M525,48 L512,63 M525,48 L538,63 " fill="none" filter="url(#f6den9rm5se57)" style="stroke: #A80036; stroke-width: 2.0;"/><text fill="#000000" font-family="sans-serif" font-size="14" lengthAdjust="spacingAndGlyphs" textLength="90" x="477" y="1266.2061">BODmember</text><ellipse cx="525" cy="1279.5078" fill="#FEFECE" filter="url(#f6den9rm5se57)" rx="8" ry="8" style="stroke: #A80036; stroke-width: 2.0;"/><path d="M525,1287.5078 L525,1314.5078 M512,1295.5078 L538,1295.5078 M525,1314.5078 L512,1329.5078 M525,1314.5078 L538,1329.5078 " fill="none" filter="url(#f6den9rm5se57)" style="stroke: #A80036; stroke-width: 2.0;"/><rect fill="#FEFECE" filter="url(#f6den9rm5se57)" height="30.2969" style="stroke: #A80036; stroke-width: 1.5;" width="65" x="686.5" y="51"/><text fill="#000000" font-family="sans-serif" font-size="14" lengthAdjust="spacingAndGlyphs" textLength="51" x="693.5" y="70.9951">System</text><rect fill="#FEFECE" filter="url(#f6den9rm5se57)" height="30.2969" style="stroke: #A80036; stroke-width: 1.5;" width="65" x="686.5" y="1253.2109"/><text fill="#000000" font-family="sans-serif" font-size="14" lengthAdjust="spacingAndGlyphs" textLength="51" x="693.5" y="1273.2061">System</text><polygon fill="#A80036" points="709,113.4297,719,117.4297,709,121.4297,713,117.4297" style="stroke: #A80036; stroke-width: 1.0;"/><line style="stroke: #A80036; stroke-width: 1.0;" x1="101" x2="715" y1="117.4297" y2="117.4297"/><text fill="#000000" font-family="sans-serif" font-size="13" lengthAdjust="spacingAndGlyphs" textLength="130" x="108" y="112.3638">submit data request</text><polygon fill="#A80036" points="112,142.5625,102,146.5625,112,150.5625,108,146.5625" style="stroke: #A80036; stroke-width: 1.0;"/><line style="stroke: #A80036; stroke-width: 1.0; stroke-dasharray: 2.0,2.0;" x1="106" x2="720" y1="146.5625" y2="146.5625"/><text fill="#000000" font-family="sans-serif" font-size="13" lengthAdjust="spacingAndGlyphs" textLength="106" x="118" y="141.4966">confirm received</text><path d="M675,159.5625 L675,184.5625 L763,184.5625 L763,169.5625 L753,159.5625 L675,159.5625 " fill="#FBFB77" filter="url(#f6den9rm5se57)" style="stroke: #A80036; stroke-width: 1.0;"/><path d="M753,159.5625 L753,169.5625 L763,169.5625 L753,159.5625 " fill="#FBFB77" style="stroke: #A80036; stroke-width: 1.0;"/><text fill="#000000" font-family="sans-serif" font-size="13" lengthAdjust="spacingAndGlyphs" textLength="67" x="681" y="176.6294">Submitted</text><polygon fill="#A80036" points="536,210.8281,526,214.8281,536,218.8281,532,214.8281" style="stroke: #A80036; stroke-width: 1.0;"/><line style="stroke: #A80036; stroke-width: 1.0; stroke-dasharray: 2.0,2.0;" x1="530" x2="720" y1="214.8281" y2="214.8281"/><text fill="#000000" font-family="sans-serif" font-size="13" lengthAdjust="spacingAndGlyphs" textLength="168" x="542" y="209.7622">request preliminary review</text><polygon fill="#A80036" points="709,239.9609,719,243.9609,709,247.9609,713,243.9609" style="stroke: #A80036; stroke-width: 1.0;"/><line style="stroke: #A80036; stroke-width: 1.0;" x1="525" x2="715" y1="243.9609" y2="243.9609"/><text fill="#000000" font-family="sans-serif" font-size="13" lengthAdjust="spacingAndGlyphs" textLength="115" x="532" y="238.895">preliminary review</text><polygon fill="#A80036" points="112,269.0938,102,273.0938,112,277.0938,108,273.0938" style="stroke: #A80036; stroke-width: 1.0;"/><line style="stroke: #A80036; stroke-width: 1.0; stroke-dasharray: 2.0,2.0;" x1="106" x2="720" y1="273.0938" y2="273.0938"/><text fill="#000000" font-family="sans-serif" font-size="13" lengthAdjust="spacingAndGlyphs" textLength="135" x="118" y="268.0278">1a: preliminary reject</text><polygon fill="#A80036" points="112,298.2266,102,302.2266,112,306.2266,108,302.2266" style="stroke: #A80036; stroke-width: 1.0;"/><line style="stroke: #A80036; stroke-width: 1.0; stroke-dasharray: 2.0,2.0;" x1="106" x2="720" y1="302.2266" y2="302.2266"/><text fill="#000000" font-family="sans-serif" font-size="13" lengthAdjust="spacingAndGlyphs" textLength="156" x="118" y="297.1606">1b: preliminary resubmit</text><path d="M637,315.2266 L637,340.2266 L800,340.2266 L800,325.2266 L790,315.2266 L637,315.2266 " fill="#FBFB77" filter="url(#f6den9rm5se57)" style="stroke: #A80036; stroke-width: 1.0;"/><path d="M790,315.2266 L790,325.2266 L800,325.2266 L790,315.2266 " fill="#FBFB77" style="stroke: #A80036; stroke-width: 1.0;"/><text fill="#000000" font-family="sans-serif" font-size="13" lengthAdjust="spacingAndGlyphs" textLength="142" x="643" y="332.2935">1c: Preliminary Accept</text><polygon fill="#A80036" points="214.5,366.4922,204.5,370.4922,214.5,374.4922,210.5,370.4922" style="stroke: #A80036; stroke-width: 1.0;"/><line style="stroke: #A80036; stroke-width: 1.0; stroke-dasharray: 2.0,2.0;" x1="208.5" x2="720" y1="370.4922" y2="370.4922"/><text fill="#000000" font-family="sans-serif" font-size="13" lengthAdjust="spacingAndGlyphs" textLength="184" x="220.5" y="365.4263">request datamanager review</text><polygon fill="#A80036" points="709,395.625,719,399.625,709,403.625,713,399.625" style="stroke: #A80036; stroke-width: 1.0;"/><line style="stroke: #A80036; stroke-width: 1.0;" x1="203.5" x2="715" y1="399.625" y2="399.625"/><text fill="#000000" font-family="sans-serif" font-size="13" lengthAdjust="spacingAndGlyphs" textLength="131" x="210.5" y="394.5591">datamanager review</text><polygon fill="#A80036" points="536,424.7578,526,428.7578,536,432.7578,532,428.7578" style="stroke: #A80036; stroke-width: 1.0;"/><line style="stroke: #A80036; stroke-width: 1.0; stroke-dasharray: 2.0,2.0;" x1="530" x2="720" y1="428.7578" y2="428.7578"/><text fill="#000000" font-family="sans-serif" font-size="13" lengthAdjust="spacingAndGlyphs" textLength="151" x="542" y="423.6919">2a: datamanager reject</text><polygon fill="#A80036" points="112,453.8906,102,457.8906,112,461.8906,108,457.8906" style="stroke: #A80036; stroke-width: 1.0;"/><line style="stroke: #A80036; stroke-width: 1.0; stroke-dasharray: 2.0,2.0;" x1="106" x2="720" y1="457.8906" y2="457.8906"/><text fill="#000000" font-family="sans-serif" font-size="13" lengthAdjust="spacingAndGlyphs" textLength="245" x="118" y="452.8247">2a: rejected after datamanager review</text><polygon fill="#A80036" points="536,483.0234,526,487.0234,536,491.0234,532,487.0234" style="stroke: #A80036; stroke-width: 1.0;"/><line style="stroke: #A80036; stroke-width: 1.0; stroke-dasharray: 2.0,2.0;" x1="530" x2="720" y1="487.0234" y2="487.0234"/><text fill="#000000" font-family="sans-serif" font-size="13" lengthAdjust="spacingAndGlyphs" textLength="172" x="542" y="481.9575">2b: datamanager resubmit</text><polygon fill="#A80036" points="112,512.1563,102,516.1563,112,520.1563,108,516.1563" style="stroke: #A80036; stroke-width: 1.0;"/><line style="stroke: #A80036; stroke-width: 1.0; stroke-dasharray: 2.0,2.0;" x1="106" x2="720" y1="516.1563" y2="516.1563"/><text fill="#000000" font-family="sans-serif" font-size="13" lengthAdjust="spacingAndGlyphs" textLength="250" x="118" y="511.0903">2b: resubmit after datamanager review</text><polygon fill="#A80036" points="536,541.2891,526,545.2891,536,549.2891,532,545.2891" style="stroke: #A80036; stroke-width: 1.0;"/><line style="stroke: #A80036; stroke-width: 1.0; stroke-dasharray: 2.0,2.0;" x1="530" x2="720" y1="545.2891" y2="545.2891"/><text fill="#000000" font-family="sans-serif" font-size="13" lengthAdjust="spacingAndGlyphs" textLength="157" x="542" y="540.2231">2c: datamanager accept</text><path d="M628,558.2891 L628,583.2891 L809,583.2891 L809,568.2891 L799,558.2891 L628,558.2891 " fill="#FBFB77" filter="url(#f6den9rm5se57)" style="stroke: #A80036; stroke-width: 1.0;"/><path d="M799,558.2891 L799,568.2891 L809,568.2891 L799,558.2891 " fill="#FBFB77" style="stroke: #A80036; stroke-width: 1.0;"/><text fill="#000000" font-family="sans-serif" font-size="13" lengthAdjust="spacingAndGlyphs" textLength="160" x="634" y="575.356">2c: Datamanager Accept</text><polygon fill="#A80036" points="709,609.5547,719,613.5547,709,617.5547,713,613.5547" style="stroke: #A80036; stroke-width: 1.0;"/><line style="stroke: #A80036; stroke-width: 1.0;" x1="525" x2="715" y1="613.5547" y2="613.5547"/><text fill="#000000" font-family="sans-serif" font-size="13" lengthAdjust="spacingAndGlyphs" textLength="115" x="532" y="608.4888">assign reviewer(s)</text><polygon fill="#A80036" points="322.5,638.6875,312.5,642.6875,322.5,646.6875,318.5,642.6875" style="stroke: #A80036; stroke-width: 1.0;"/><line style="stroke: #A80036; stroke-width: 1.0; stroke-dasharray: 2.0,2.0;" x1="316.5" x2="720" y1="642.6875" y2="642.6875"/><text fill="#000000" font-family="sans-serif" font-size="13" lengthAdjust="spacingAndGlyphs" textLength="86" x="328.5" y="637.6216">please review</text><polygon fill="#A80036" points="429.5,667.8203,419.5,671.8203,429.5,675.8203,425.5,671.8203" style="stroke: #A80036; stroke-width: 1.0;"/><line style="stroke: #A80036; stroke-width: 1.0; stroke-dasharray: 2.0,2.0;" x1="423.5" x2="720" y1="671.8203" y2="671.8203"/><text fill="#000000" font-family="sans-serif" font-size="13" lengthAdjust="spacingAndGlyphs" textLength="86" x="435.5" y="666.7544">please review</text><path d="M665,684.8203 L665,709.8203 L772,709.8203 L772,694.8203 L762,684.8203 L665,684.8203 " fill="#FBFB77" filter="url(#f6den9rm5se57)" style="stroke: #A80036; stroke-width: 1.0;"/><path d="M762,684.8203 L762,694.8203 L772,694.8203 L762,684.8203 " fill="#FBFB77" style="stroke: #A80036; stroke-width: 1.0;"/><text fill="#000000" font-family="sans-serif" font-size="13" lengthAdjust="spacingAndGlyphs" textLength="86" x="671" y="701.8872">Under Review</text><polygon fill="#A80036" points="709,736.0859,719,740.0859,709,744.0859,713,740.0859" style="stroke: #A80036; stroke-width: 1.0;"/><line style="stroke: #A80036; stroke-width: 1.0;" x1="311.5" x2="715" y1="740.0859" y2="740.0859"/><text fill="#000000" font-family="sans-serif" font-size="13" lengthAdjust="spacingAndGlyphs" textLength="40" x="318.5" y="735.02">review</text><polygon fill="#A80036" points="709,765.2188,719,769.2188,709,773.2188,713,769.2188" style="stroke: #A80036; stroke-width: 1.0;"/><line style="stroke: #A80036; stroke-width: 1.0;" x1="418.5" x2="715" y1="769.2188" y2="769.2188"/><text fill="#000000" font-family="sans-serif" font-size="13" lengthAdjust="spacingAndGlyphs" textLength="40" x="425.5" y="764.1528">review</text><polygon fill="#A80036" points="536,794.3516,526,798.3516,536,802.3516,532,798.3516" style="stroke: #A80036; stroke-width: 1.0;"/><line style="stroke: #A80036; stroke-width: 1.0; stroke-dasharray: 2.0,2.0;" x1="530" x2="720" y1="798.3516" y2="798.3516"/><text fill="#000000" font-family="sans-serif" font-size="13" lengthAdjust="spacingAndGlyphs" textLength="119" x="542" y="793.2856">request evaluation</text><polygon fill="#A80036" points="709,823.4844,719,827.4844,709,831.4844,713,827.4844" style="stroke: #A80036; stroke-width: 1.0;"/><line style="stroke: #A80036; stroke-width: 1.0;" x1="525" x2="715" y1="827.4844" y2="827.4844"/><text fill="#000000" font-family="sans-serif" font-size="13" lengthAdjust="spacingAndGlyphs" textLength="66" x="532" y="822.4185">evaluation</text><polygon fill="#A80036" points="112,852.6172,102,856.6172,112,860.6172,108,856.6172" style="stroke: #A80036; stroke-width: 1.0;"/><line style="stroke: #A80036; stroke-width: 1.0; stroke-dasharray: 2.0,2.0;" x1="106" x2="720" y1="856.6172" y2="856.6172"/><text fill="#000000" font-family="sans-serif" font-size="13" lengthAdjust="spacingAndGlyphs" textLength="76" x="118" y="851.5513">3a: rejected</text><polygon fill="#A80036" points="112,881.75,102,885.75,112,889.75,108,885.75" style="stroke: #A80036; stroke-width: 1.0;"/><line style="stroke: #A80036; stroke-width: 1.0; stroke-dasharray: 2.0,2.0;" x1="106" x2="720" y1="885.75" y2="885.75"/><text fill="#000000" font-family="sans-serif" font-size="13" lengthAdjust="spacingAndGlyphs" textLength="81" x="118" y="880.6841">3b: resubmit</text><polygon fill="#A80036" points="112,910.8828,102,914.8828,112,918.8828,108,914.8828" style="stroke: #A80036; stroke-width: 1.0;"/><line style="stroke: #A80036; stroke-width: 1.0; stroke-dasharray: 2.0,2.0;" x1="106" x2="720" y1="914.8828" y2="914.8828"/><text fill="#000000" font-family="sans-serif" font-size="13" lengthAdjust="spacingAndGlyphs" textLength="83" x="118" y="909.8169">3c: approved</text><path d="M666,927.8828 L666,952.8828 L771,952.8828 L771,937.8828 L761,927.8828 L666,927.8828 " fill="#FBFB77" filter="url(#f6den9rm5se57)" style="stroke: #A80036; stroke-width: 1.0;"/><path d="M761,927.8828 L761,937.8828 L771,937.8828 L761,927.8828 " fill="#FBFB77" style="stroke: #A80036; stroke-width: 1.0;"/><text fill="#000000" font-family="sans-serif" font-size="13" lengthAdjust="spacingAndGlyphs" textLength="84" x="672" y="944.9497">3c: Approved</text><polygon fill="#A80036" points="214.5,979.1484,204.5,983.1484,214.5,987.1484,210.5,983.1484" style="stroke: #A80036; stroke-width: 1.0;"/><line style="stroke: #A80036; stroke-width: 1.0; stroke-dasharray: 2.0,2.0;" x1="208.5" x2="720" y1="983.1484" y2="983.1484"/><text fill="#000000" font-family="sans-serif" font-size="13" lengthAdjust="spacingAndGlyphs" textLength="80" x="220.5" y="978.0825">prepare DTA</text><polygon fill="#A80036" points="709,1008.2813,719,1012.2813,709,1016.2813,713,1012.2813" style="stroke: #A80036; stroke-width: 1.0;"/><line style="stroke: #A80036; stroke-width: 1.0;" x1="203.5" x2="715" y1="1012.2813" y2="1012.2813"/><text fill="#000000" font-family="sans-serif" font-size="13" lengthAdjust="spacingAndGlyphs" textLength="135" x="210.5" y="1007.2153">upload unsigned DTA</text><polygon fill="#A80036" points="112,1037.4141,102,1041.4141,112,1045.4141,108,1041.4141" style="stroke: #A80036; stroke-width: 1.0;"/><line style="stroke: #A80036; stroke-width: 1.0; stroke-dasharray: 2.0,2.0;" x1="106" x2="720" y1="1041.4141" y2="1041.4141"/><text fill="#000000" font-family="sans-serif" font-size="13" lengthAdjust="spacingAndGlyphs" textLength="102" x="118" y="1036.3481">please sign DTA</text><path d="M8,1054.4141 L8,1079.4141 L191,1079.4141 L191,1064.4141 L181,1054.4141 L8,1054.4141 " fill="#FBFB77" filter="url(#f6den9rm5se57)" style="stroke: #A80036; stroke-width: 1.0;"/><path d="M181,1054.4141 L181,1064.4141 L191,1064.4141 L181,1054.4141 " fill="#FBFB77" style="stroke: #A80036; stroke-width: 1.0;"/><text fill="#000000" font-family="sans-serif" font-size="13" lengthAdjust="spacingAndGlyphs" textLength="162" x="14" y="1071.481">download DTA, sign, scan</text><polygon fill="#A80036" points="709,1105.6797,719,1109.6797,709,1113.6797,713,1109.6797" style="stroke: #A80036; stroke-width: 1.0;"/><line style="stroke: #A80036; stroke-width: 1.0;" x1="101" x2="715" y1="1109.6797" y2="1109.6797"/><text fill="#000000" font-family="sans-serif" font-size="13" lengthAdjust="spacingAndGlyphs" textLength="120" x="108" y="1104.6138">submit signed DTA</text><polygon fill="#A80036" points="214.5,1134.8125,204.5,1138.8125,214.5,1142.8125,210.5,1138.8125" style="stroke: #A80036; stroke-width: 1.0;"/><line style="stroke: #A80036; stroke-width: 1.0; stroke-dasharray: 2.0,2.0;" x1="208.5" x2="720" y1="1138.8125" y2="1138.8125"/><text fill="#000000" font-family="sans-serif" font-size="13" lengthAdjust="spacingAndGlyphs" textLength="116" x="220.5" y="1133.7466">review signed DTA</text><path d="M124,1151.8125 L124,1176.8125 L278,1176.8125 L278,1161.8125 L268,1151.8125 L124,1151.8125 " fill="#FBFB77" filter="url(#f6den9rm5se57)" style="stroke: #A80036; stroke-width: 1.0;"/><path d="M268,1151.8125 L268,1161.8125 L278,1161.8125 L268,1151.8125 " fill="#FBFB77" style="stroke: #A80036; stroke-width: 1.0;"/><text fill="#000000" font-family="sans-serif" font-size="13" lengthAdjust="spacingAndGlyphs" textLength="133" x="130" y="1168.8794">prepare data in Yoda</text><polygon fill="#A80036" points="709,1203.0781,719,1207.0781,709,1211.0781,713,1207.0781" style="stroke: #A80036; stroke-width: 1.0;"/><line style="stroke: #A80036; stroke-width: 1.0;" x1="203.5" x2="715" y1="1207.0781" y2="1207.0781"/><text fill="#000000" font-family="sans-serif" font-size="13" lengthAdjust="spacingAndGlyphs" textLength="69" x="210.5" y="1202.0122">data ready</text><polygon fill="#A80036" points="112,1232.2109,102,1236.2109,112,1240.2109,108,1236.2109" style="stroke: #A80036; stroke-width: 1.0;"/><line style="stroke: #A80036; stroke-width: 1.0; stroke-dasharray: 2.0,2.0;" x1="106" x2="720" y1="1236.2109" y2="1236.2109"/><text fill="#000000" font-family="sans-serif" font-size="13" lengthAdjust="spacingAndGlyphs" textLength="174" x="118" y="1231.145">data available for download</text><!--
@startuml
actor "Researcher" as R
actor "Datamanager" as DM
actor "DMCmember" as M1
actor "DMCmember" as M2
actor "BODmember" as B
participant "System" as Y

R -> Y   : submit data request
Y - -> R  : confirm received
note over Y
 Submitted
end note
Y - -> B  : request preliminary review
B -> Y   : preliminary review
Y - -> R  : 1a: preliminary reject
Y - -> R  : 1b: preliminary resubmit
note over Y
 1c: Preliminary Accept
end note
Y - -> DM : request datamanager review
DM -> Y  : datamanager review
Y - -> B  : 2a: datamanager reject
Y - -> R  : 2a: rejected after datamanager review
Y - -> B  : 2b: datamanager resubmit
Y - -> R  : 2b: resubmit after datamanager review
Y - -> B  : 2c: datamanager accept
note over Y
 2c: Datamanager Accept
end note
B -> Y   : assign reviewer(s)
Y - -> M1 : please review
Y - -> M2 : please review
note over Y
 Under Review
end note
M1 -> Y  : review
M2 -> Y  : review
Y - -> B  : request evaluation
B -> Y   : evaluation
Y - -> R  : 3a: rejected
Y - -> R  : 3b: resubmit
Y - -> R  : 3c: approved
note over Y
 3c: Approved
end note
Y - -> DM : prepare DTA
DM -> Y  : upload unsigned DTA
Y - -> R  : please sign DTA
note over R
 download DTA, sign, scan
end note
R -> Y   : submit signed DTA
Y - -> DM : review signed DTA
note over DM
 prepare data in Yoda
end note
DM -> Y  : data ready
Y - -> R  : data available for download
@enduml

PlantUML version 1.2018.13(Mon Nov 26 18:11:51 CET 2018)
(GPL source distribution)
Java Runtime: OpenJDK Runtime Environment
JVM: OpenJDK 64-Bit Server VM
Java Version: 11.0.9.1+1-post-Debian-1deb10u2
Operating System: Linux
OS Version: 5.9.0-0.bpo.5-amd64
Default Encoding: UTF-8
Language: en
Country: US
--></g></svg>