<?xml version="1.0" encoding="UTF-8" standalone="no"?><svg xmlns="http://www.w3.org/2000/svg" xmlns:xlink="http://www.w3.org/1999/xlink" contentScriptType="application/ecmascript" contentStyleType="text/css" height="2183.3333px" preserveAspectRatio="none" style="width:3652px;height:2183px;background:#FFFFFF;" version="1.1" viewBox="0 0 3652 2183" width="3652.0833px" zoomAndPan="magnify"><defs/><g><!--MD5=[4eceffa65ab196036efea5ff835d3a15]
cluster Yoda instance--><rect fill="#FFFFFF" height="1572.9167" style="stroke:#000000;stroke-width:3.125;" width="2191.6667" x="539.5833" y="197.9167"/><text fill="#000000" font-family="CMU Serif" font-size="31.25" font-weight="bold" lengthAdjust="spacing" textLength="227.0833" x="1521.875" y="236.4624">Yoda instance</text><!--MD5=[516c5e75c4c50ba2f0b84309edef403d]
cluster Yoda portal--><polygon fill="#FFFFFF" points="1400,297.9167,1610.4167,297.9167,1625,355.5542,2375,355.5542,2375,718.75,1400,718.75,1400,297.9167" style="stroke:#000000;stroke-width:3.125;"/><line style="stroke:#000000;stroke-width:3.125;" x1="1400" x2="1625" y1="355.5542" y2="355.5542"/><text fill="#000000" font-family="CMU Serif" font-size="31.25" font-weight="bold" lengthAdjust="spacing" textLength="189.5833" x="1412.5" y="336.4624">Yoda portal</text><!--MD5=[50c904034400608675d89eb7f5e06f8d]
cluster portalweb--><rect fill="#FFFFFF" height="237.5" style="stroke:#000000;stroke-width:3.125;" width="489.5833" x="1818.75" y="414.5833"/><text fill="#000000" font-family="CMU Serif" font-size="31.25" font-weight="bold" lengthAdjust="spacing" textLength="297.9167" x="1914.5833" y="453.1291">Apache webserver</text><!--MD5=[141973dbc9e25a201471694965f05630]
cluster Yoda database--><polygon fill="#FFFFFF" points="1752.0833,1325,2010.4167,1325,2025,1382.6375,2206.25,1382.6375,2206.25,1710.4167,1752.0833,1710.4167,1752.0833,1325" style="stroke:#000000;stroke-width:3.125;"/><line style="stroke:#000000;stroke-width:3.125;" x1="1752.0833" x2="2025" y1="1382.6375" y2="1382.6375"/><text fill="#000000" font-family="CMU Serif" font-size="31.25" font-weight="bold" lengthAdjust="spacing" textLength="237.5" x="1764.5833" y="1363.5457">Yoda database</text><!--MD5=[ee31123b26d0b047845fd140474e60d0]
cluster icatdb--><path d="M1802.0833,1445.8333 C1802.0833,1425 1979.1667,1425 1979.1667,1425 C1979.1667,1425 2156.25,1425 2156.25,1445.8333 L2156.25,1639.5833 C2156.25,1660.4167 1979.1667,1660.4167 1979.1667,1660.4167 C1979.1667,1660.4167 1802.0833,1660.4167 1802.0833,1639.5833 L1802.0833,1445.8333 " fill="#FFFFFF" style="stroke:#000000;stroke-width:3.125;"/><path d="M1802.0833,1445.8333 C1802.0833,1466.6667 1979.1667,1466.6667 1979.1667,1466.6667 C1979.1667,1466.6667 2156.25,1466.6667 2156.25,1445.8333 " fill="none" style="stroke:#000000;stroke-width:3.125;"/><text fill="#000000" font-family="CMU Serif" font-size="31.25" font-weight="bold" lengthAdjust="spacing" textLength="185.4167" x="1886.4583" y="1505.2124">PostgreSQL</text><!--MD5=[db0b806541efa7ea9e0b8117e288af1f]
cluster Yoda iCAT--><polygon fill="#FFFFFF" points="1752.0833,787.5,1941.6667,787.5,1956.25,845.1375,2681.25,845.1375,2681.25,1208.3333,1752.0833,1208.3333,1752.0833,787.5" style="stroke:#000000;stroke-width:3.125;"/><line style="stroke:#000000;stroke-width:3.125;" x1="1752.0833" x2="1956.25" y1="845.1375" y2="845.1375"/><text fill="#000000" font-family="CMU Serif" font-size="31.25" font-weight="bold" lengthAdjust="spacing" textLength="168.75" x="1764.5833" y="826.0457">Yoda iCAT</text><!--MD5=[5004d6500a09f74171c07b5db3ac5e34]
cluster provider--><rect fill="#FFFFFF" height="237.5" style="stroke:#000000;stroke-width:3.125;" width="795.8333" x="1818.75" y="904.1667"/><text fill="#000000" font-family="CMU Serif" font-size="31.25" font-weight="bold" lengthAdjust="spacing" textLength="187.5" x="2122.9167" y="942.7124">iRODS iCAT</text><!--MD5=[65fb4c1a14a419be74d9e72608f0031d]
cluster Yoda resource--><polygon fill="#FFFFFF" points="589.5833,787.5,843.75,787.5,858.3333,845.1375,1702.0833,845.1375,1702.0833,1720.8333,589.5833,1720.8333,589.5833,787.5" style="stroke:#000000;stroke-width:3.125;"/><line style="stroke:#000000;stroke-width:3.125;" x1="589.5833" x2="858.3333" y1="845.1375" y2="845.1375"/><text fill="#000000" font-family="CMU Serif" font-size="31.25" font-weight="bold" lengthAdjust="spacing" textLength="233.3333" x="602.0833" y="826.0457">Yoda resource</text><!--MD5=[469b31589b7ba0db59559104e2d0c979]
cluster consumer--><rect fill="#FFFFFF" height="237.5" style="stroke:#000000;stroke-width:3.125;" width="795.8333" x="839.5833" y="904.1667"/><text fill="#000000" font-family="CMU Serif" font-size="31.25" font-weight="bold" lengthAdjust="spacing" textLength="252.0833" x="1111.4583" y="942.7124">iRODS resource</text><path d="M671.9006,1471.5875 C677.4131,1459.8579 687.3296,1460.0196 694.742,1469.5459 C701.9107,1458.9491 711.4843,1456.4732 719.9286,1468.1002 C725.6057,1457.5663 734.3537,1455.613 743.1005,1464.4231 C749.7436,1451.8119 759.3298,1447.9223 769.5268,1460.728 C775.2063,1450.7004 785.6339,1447.6516 792.7242,1459.2121 C798.783,1449.2826 807.84,1448.0776 813.889,1459.222 C823.5628,1448.254 833.4513,1451.4301 839.2401,1463.4976 C847.9082,1453.6171 859.1744,1458.1437 862.9392,1469.0798 C870.3105,1456.9229 881.027,1457.9189 887.4349,1470.0514 C905.286,1459.468 919.2482,1463.2492 922.9167,1485.4167 C924.3493,1485.131 924.9428,1485.6103 924.8222,1487.0916 C937.1221,1493.7615 939.2451,1507.1096 926.8013,1515.503 C936.2739,1520.6515 937.3691,1530.935 928.7309,1537.6606 C942.9731,1547.1255 941.9423,1556.1127 928.0985,1564.9261 C939.9099,1573.2323 942.1845,1584.736 927.7929,1592.7545 C938.4237,1601.4398 936.7663,1610.2573 925.1279,1616.4366 C938.5289,1637.2327 934.3485,1650.9156 908.3333,1654.1667 C908.9117,1653.7965 909.2702,1654.045 909.4096,1654.6508 C903.4069,1668.3673 895.6358,1667.2146 885.6504,1658.9569 C881.1097,1672.3054 869.2632,1673.26 860.9444,1662.8928 C855.391,1674.0607 848.8847,1673.8064 840.5829,1665.8134 C835.2233,1679.6966 824.1536,1680.6214 813.9846,1671.3343 C809.0629,1683.7276 798.922,1686.0884 790.2267,1675.1821 C783.9516,1682.5601 774.0513,1681.5665 770.2327,1672.2416 C760.5327,1683.8257 751.8532,1678.7441 746.4825,1667.698 C736.4883,1678.641 726.1339,1676.319 719.3359,1663.9725 C710.9891,1674.03 702.6744,1670.5508 697.2787,1660.7025 C674.3871,1674.3896 659.2785,1664.4847 656.25,1639.5833 C657.9424,1639.1582 658.8595,1640.0406 658.6128,1641.7399 C643.2012,1636.6735 641.2027,1625.3444 653.4483,1614.9469 C639.7819,1610.8763 638.8113,1601.7963 648.0329,1592.2619 C630.3116,1589.4569 630.021,1576.6896 638.7341,1564.9007 C629.3346,1552.0441 632.6693,1544.596 647.9294,1541.3801 C637.3346,1531.1345 640.1576,1520.8604 653.2919,1515.5391 C637.6092,1494.0182 642.6647,1475.148 670.8333,1470.8333 C671.4779,1470.5348 671.9847,1470.8547 671.9006,1471.5875 " fill="#FFFFFF" style="stroke:#000000;stroke-width:3.125;"/><path d="M1021.9006,1471.5875 C1027.4131,1459.8579 1037.3296,1460.0196 1044.742,1469.5459 C1051.9107,1458.9491 1061.4843,1456.4732 1069.9286,1468.1002 C1075.6057,1457.5663 1084.3537,1455.613 1093.1005,1464.4231 C1099.7436,1451.8119 1109.3298,1447.9223 1119.5268,1460.728 C1125.2063,1450.7004 1135.6339,1447.6516 1142.7242,1459.2121 C1148.783,1449.2826 1157.84,1448.0776 1163.889,1459.222 C1173.5628,1448.254 1183.4513,1451.4301 1189.2401,1463.4976 C1197.9082,1453.6171 1209.1744,1458.1437 1212.9392,1469.0798 C1220.3105,1456.9229 1231.027,1457.9189 1237.4349,1470.0514 C1255.286,1459.468 1269.2482,1463.2492 1272.9167,1485.4167 C1274.3493,1485.131 1274.9428,1485.6103 1274.8222,1487.0916 C1287.1221,1493.7615 1289.2451,1507.1096 1276.8013,1515.503 C1286.2739,1520.6515 1287.3691,1530.935 1278.7309,1537.6606 C1292.9731,1547.1255 1291.9423,1556.1127 1278.0985,1564.9261 C1289.9099,1573.2323 1292.1845,1584.736 1277.7929,1592.7545 C1288.4237,1601.4398 1286.7663,1610.2573 1275.1279,1616.4366 C1288.5289,1637.2327 1284.3485,1650.9156 1258.3333,1654.1667 C1258.9117,1653.7965 1259.2702,1654.045 1259.4096,1654.6508 C1253.4069,1668.3673 1245.6358,1667.2146 1235.6504,1658.9569 C1231.1097,1672.3054 1219.2632,1673.26 1210.9444,1662.8928 C1205.391,1674.0607 1198.8847,1673.8064 1190.5829,1665.8134 C1185.2233,1679.6966 1174.1536,1680.6214 1163.9846,1671.3343 C1159.0629,1683.7276 1148.922,1686.0884 1140.2267,1675.1821 C1133.9516,1682.5601 1124.0513,1681.5665 1120.2327,1672.2416 C1110.5327,1683.8257 1101.8532,1678.7441 1096.4825,1667.698 C1086.4883,1678.641 1076.1339,1676.319 1069.3359,1663.9725 C1060.9891,1674.03 1052.6744,1670.5508 1047.2787,1660.7025 C1024.3871,1674.3896 1009.2785,1664.4847 1006.25,1639.5833 C1007.9424,1639.1582 1008.8595,1640.0406 1008.6128,1641.7399 C993.2012,1636.6735 991.2027,1625.3444 1003.4483,1614.9469 C989.7819,1610.8763 988.8113,1601.7963 998.0329,1592.2619 C980.3116,1589.4569 980.021,1576.6896 988.7341,1564.9007 C979.3346,1552.0441 982.6693,1544.596 997.9294,1541.3801 C987.3346,1531.1345 990.1576,1520.8604 1003.2919,1515.5391 C987.6092,1494.0182 992.6647,1475.148 1020.8333,1470.8333 C1021.4779,1470.5348 1021.9847,1470.8547 1021.9006,1471.5875 " fill="#FFFFFF" style="stroke:#000000;stroke-width:3.125;"/><path d="M1373.4547,1472.2319 C1379.4143,1460.1484 1388.8212,1455.8096 1398.5796,1468.3568 C1407.4204,1456.8643 1415.5731,1458.3898 1424.0136,1468.8212 C1428.2481,1458.6809 1438.6856,1454.2778 1446.4382,1465.0485 C1454.035,1450.4836 1463.7745,1449.0694 1474.4886,1461.851 C1478.3899,1449.0818 1487.141,1448.7685 1496.3949,1455.9837 C1504.5036,1446.4284 1516.3923,1448.4826 1521.2354,1459.8592 C1531.5099,1449.2901 1540.1161,1449.4175 1546.2122,1464.0074 C1556.1677,1453.2806 1567.8281,1453.7391 1573.2289,1468.7824 C1582.6737,1458.4647 1591.1632,1457.7831 1597.4332,1471.9241 C1617.3539,1455.5137 1629.8769,1461.3426 1635.4167,1485.4167 C1638.5932,1484.5315 1640.3631,1486.839 1639.6944,1489.7498 C1653.4108,1496.0036 1652.7234,1504.6261 1642.5158,1513.6984 C1657.7981,1519.016 1657.3551,1527.898 1648.5919,1538.9918 C1663.9146,1545.1247 1664.6317,1556.6292 1651.7372,1566.043 C1663.1632,1574.6764 1661.4476,1585.8633 1649.3934,1592.4094 C1660.4575,1603.2888 1658.165,1611.0632 1644.2247,1616.5999 C1652.4714,1638.1452 1644.7136,1652.6256 1620.8333,1654.1667 C1622.9824,1654.8384 1623.8914,1656.3865 1622.2388,1658.3389 C1614.3992,1671.6462 1602.8898,1668.8752 1595.9563,1657.3787 C1589.1628,1667.6648 1581.9969,1669.8381 1574.2284,1658.3517 C1568.6501,1669.888 1557.0191,1673.7785 1548.1175,1662.0877 C1541.1733,1672.7383 1531.4762,1673.4771 1524.7786,1661.8296 C1517.8121,1675.7585 1509.767,1675.0893 1499.233,1665.7455 C1491.2078,1674.9093 1479.0652,1672.8532 1474.8677,1661.2537 C1469.0213,1672.3479 1457.4583,1672.977 1450.178,1662.9281 C1440.3223,1673.5367 1429.6676,1671.7574 1423.4883,1658.7698 C1416.4443,1670.2212 1405.684,1671.1128 1397.8776,1659.6209 C1376.3154,1674.1354 1359.547,1663.0144 1356.25,1639.5833 C1357.2733,1639.4636 1357.6578,1640.0822 1357.1862,1640.971 C1345.5413,1633.2771 1347.8784,1623.8734 1358.9267,1617.8909 C1342.7094,1610.1892 1341.0197,1598.8589 1356.401,1588.4467 C1343.5013,1583.0588 1342.2904,1576.1487 1352.1101,1566.3492 C1339.8043,1557.4733 1338.8259,1545.2078 1354.4765,1538.7269 C1340.3786,1530.7236 1342.6218,1519.097 1354.843,1511.4474 C1341.6714,1491.7693 1349.0542,1476.7508 1370.8333,1470.8333 C1372.2016,1470.2044 1373.3685,1470.4578 1373.4547,1472.2319 " fill="#FFFFFF" style="stroke:#000000;stroke-width:3.125;"/><!--MD5=[b32e50cb3351e610ef60ac416433296b]
cluster Yoda Public server--><rect fill="#FFFFFF" height="933.3333" style="stroke:#000000;stroke-width:3.125;" width="858.3333" x="2781.25" y="787.5"/><text fill="#000000" font-family="CMU Serif" font-size="31.25" font-weight="bold" lengthAdjust="spacing" textLength="302.0833" x="3059.375" y="826.0457">Yoda Public server</text><!--MD5=[7df7a0848c50d26e70acfe9d086c4713]
cluster publicweb--><rect fill="#FFFFFF" height="237.5" style="stroke:#000000;stroke-width:3.125;" width="443.75" x="2995.8333" y="904.1667"/><text fill="#000000" font-family="CMU Serif" font-size="31.25" font-weight="bold" lengthAdjust="spacing" textLength="297.9167" x="3068.75" y="942.7124">Apache webserver</text><path d="M3278.9381,1471.6601 C3284.3275,1460.8657 3291.0651,1459.1198 3298.9902,1469.2275 C3307.0033,1456.3202 3317.9809,1457.2948 3326.4732,1468.6856 C3332.6059,1457.9916 3341.3584,1455.8601 3349.7364,1466.2026 C3356.9421,1455.058 3364.2147,1452.5806 3373.4053,1464.1326 C3378.5327,1452.5985 3388.1622,1450.4221 3395.9182,1461.5174 C3399.0189,1448.0941 3409.8078,1446.9542 3418.2974,1456.1968 C3428.3242,1446.4721 3435.8776,1447.0819 3441.1297,1460.8394 C3448.0757,1451.8932 3458.4177,1450.643 3463.9671,1462.3813 C3472.5817,1449.394 3484.957,1452.7176 3489.9468,1465.9702 C3499.7844,1456.1847 3506.9824,1456.8861 3513.8071,1469.2201 C3521.2001,1460.628 3530.6273,1459.2721 3536.1233,1471.2756 C3553.657,1455.1875 3570.2315,1462.8708 3572.9167,1485.4167 C3573.9875,1484.4321 3574.7895,1484.8573 3575.1536,1486.1202 C3590.8471,1491.5423 3592.6962,1505.1807 3579.403,1514.8851 C3594.6747,1519.3976 3597.1255,1527.5972 3585.9096,1539.1982 C3598.9186,1545.2421 3600.266,1555.0574 3588.7308,1563.904 C3600.3103,1572.2646 3600.7968,1584.6244 3587.1575,1591.5498 C3595.3792,1602.2539 3593.0322,1612.0984 3580.1444,1616.9814 C3593.5509,1638.3281 3581.5226,1654.2853 3558.3333,1654.1667 C3560.334,1655.1232 3560.2841,1656.9219 3558.3737,1657.9205 C3551.2022,1666.5781 3543.7477,1666.3921 3537.563,1656.7956 C3531.4326,1668.4117 3519.3336,1669.7433 3511.6215,1658.5983 C3508.3165,1668.0787 3499.4059,1671.2535 3491.766,1663.6309 C3483.5555,1676.1441 3474.9668,1676.6182 3466.2598,1664.1375 C3458.7109,1674.4175 3447.5757,1677.3952 3440.4754,1663.6559 C3434.967,1674.7288 3426.3485,1672.8763 3419.8527,1664.7146 C3412.4677,1674.1975 3401.6147,1674.8014 3395.7249,1663.0182 C3389.8504,1673.9915 3380.2888,1673.1021 3373.3778,1664.1825 C3366.3046,1675.9193 3355.4986,1675.6278 3348.7894,1663.8026 C3338.8854,1674.7827 3330.6288,1672.7118 3325.5891,1659.1956 C3318.1584,1669.7518 3308.9609,1669.1366 3301.8849,1658.7933 C3280.1021,1674.1755 3263.4586,1664.6564 3260.4167,1639.5833 C3260.6778,1639.3927 3260.8919,1639.4974 3260.9223,1639.8135 C3250.6406,1631.0734 3248.6852,1622.4321 3262.1643,1614.8754 C3248.0234,1609.3015 3243.7737,1601.025 3255.2543,1588.69 C3242.083,1582.4957 3241.5613,1571.0661 3254.643,1564.2161 C3240.8526,1555.7384 3242.0846,1542.6544 3257.3032,1537.0134 C3247.5785,1529.8206 3247.1082,1520.8719 3258.8018,1515.1471 C3245.1279,1494.1796 3248.8681,1477.2505 3275,1470.8333 C3276.7419,1469.1074 3277.9948,1469.582 3278.9381,1471.6601 " fill="#FFFFFF" style="stroke:#000000;stroke-width:3.125;"/><path d="M2865.4379,1475.3813 C2869.0262,1462.3893 2879.1251,1459.3392 2889.2137,1468.3604 C2898.5934,1456.1602 2907.9075,1456.323 2916.3658,1469.352 C2921.0691,1456.1798 2928.444,1455.8 2937.7408,1464.9544 C2945.1963,1450.7169 2957.0639,1452.3367 2965.6969,1463.6667 C2970.6313,1451.1651 2981.9283,1452.2264 2989.1932,1461.1057 C2992.9498,1446.5877 3006.2743,1444.5733 3015.6424,1455.2041 C3026.0704,1445.7789 3035.0637,1449.8069 3039.4609,1461.8845 C3045.231,1449.3007 3057.1463,1448.7096 3063.7883,1461.0328 C3074.4449,1449.6099 3083.0572,1453.5756 3087.8294,1466.7777 C3094.335,1455.9323 3106.9659,1454.5371 3113.9118,1466.269 C3124.4931,1453.1461 3136.089,1458.568 3141.648,1471.5959 C3159.062,1458.9303 3173.6212,1462.3106 3177.0833,1485.4167 C3180.3604,1485.1603 3181.3364,1486.9527 3180.2422,1489.8271 C3191.0918,1496.108 3192.9233,1505.6271 3183.0815,1514.3078 C3195.9576,1518.6778 3197.8576,1525.7732 3190.6524,1536.879 C3204.942,1541.792 3210.0518,1549.4597 3198.981,1562.5882 C3208.0427,1574.0572 3204.792,1584.3658 3191.04,1588.9669 C3202.2072,1599.8436 3199.5318,1610.633 3185.5049,1616.4325 C3199.4566,1638.6333 3185.6007,1654.5552 3162.5,1654.1667 C3163.4977,1653.7141 3164.1804,1654.1013 3164.052,1655.2548 C3158.4956,1668.6794 3147.0987,1668.876 3138.9492,1657.9252 C3133.2841,1670.3892 3122.2217,1669.2444 3114.7225,1659.9691 C3109.1323,1672.317 3100.3231,1671.9327 3091.8918,1663.02 C3085.3534,1676.041 3074.8729,1674.9303 3066.7379,1664.751 C3060.4887,1679.7801 3052.0499,1678.7433 3041.1901,1669.6298 C3035.0984,1680.2814 3024.2438,1681.9441 3016.6499,1671.3663 C3006.5881,1684.4128 2997.9226,1681.2717 2990.8983,1668.3537 C2981.1462,1680.1688 2972.9991,1678.5554 2965.5516,1665.9606 C2957.4051,1678.7693 2946.8543,1677.2923 2938.8266,1665.8299 C2929.0895,1674.8578 2918.6129,1672.1047 2915.1629,1659.0826 C2907.4562,1673.3764 2894.0268,1671.8319 2887.8034,1657.6571 C2867.6368,1674.3555 2849.6023,1663.6701 2847.9167,1639.5833 C2850.0928,1638.1584 2851.7639,1639.2875 2851.7344,1641.7497 C2838.7042,1636.8011 2836.583,1624.7303 2846.9936,1615.5415 C2834.8175,1610.6033 2831.5857,1601.6231 2842.6605,1592.3421 C2829.7276,1587.4448 2824.001,1576.9915 2835.5107,1565.5672 C2825.2909,1555.6125 2827.3223,1544.1257 2842.4017,1541.3784 C2828.8487,1530.2618 2831.6978,1518.7144 2847.3395,1512.6085 C2831.7964,1494.9039 2840.9663,1475.0826 2862.5,1470.8333 C2865.8092,1470.8699 2866.6539,1472.4215 2865.4379,1475.3813 " fill="#FFFFFF" style="stroke:#000000;stroke-width:3.125;"/><!--MD5=[718f845a3c6eeb30b6a9dc66bc420cd7]
cluster Yoda External User service--><rect fill="#FFFFFF" height="847.9167" style="stroke:#000000;stroke-width:3.125;" width="475" x="14.5833" y="1322.9167"/><text fill="#000000" font-family="CMU Serif" font-size="31.25" font-weight="bold" lengthAdjust="spacing" textLength="433.3333" x="35.4167" y="1361.4624">Yoda External User service</text><!--MD5=[ed565dad209db76ab09810b1abb09a16]
cluster extweb--><rect fill="#FFFFFF" height="237.5" style="stroke:#000000;stroke-width:3.125;" width="339.5833" x="83.3333" y="1439.5833"/><text fill="#000000" font-family="CMU Serif" font-size="31.25" font-weight="bold" lengthAdjust="spacing" textLength="297.9167" x="104.1667" y="1478.1291">Apache webserver</text><!--MD5=[aa0c1be39aa554bf39b7be392ad3f0de]
cluster extdb--><path d="M66.6667,1906.25 C66.6667,1885.4167 231.25,1885.4167 231.25,1885.4167 C231.25,1885.4167 395.8333,1885.4167 395.8333,1906.25 L395.8333,2100 C395.8333,2120.8333 231.25,2120.8333 231.25,2120.8333 C231.25,2120.8333 66.6667,2120.8333 66.6667,2100 L66.6667,1906.25 " fill="#FFFFFF" style="stroke:#000000;stroke-width:3.125;"/><path d="M66.6667,1906.25 C66.6667,1927.0833 231.25,1927.0833 231.25,1927.0833 C231.25,1927.0833 395.8333,1927.0833 395.8333,1906.25 " fill="none" style="stroke:#000000;stroke-width:3.125;"/><text fill="#000000" font-family="CMU Serif" font-size="31.25" font-weight="bold" lengthAdjust="spacing" textLength="185.4167" x="138.5417" y="1965.6291">PostgreSQL</text><!--MD5=[20b2df5f833b0285dac982c7eb0354c1]
entity portalphp--><rect fill="#FFFFFF" height="86.8042" style="stroke:#000000;stroke-width:3.125;" width="106.25" x="2151.0417" y="514.5833"/><text fill="#000000" font-family="CMU Serif" font-size="31.25" lengthAdjust="spacing" textLength="56.25" x="2176.0417" y="569.7957">PHP</text><!--MD5=[9696d8dadf30dd919c1b243d3cf6bda8]
entity davrods--><rect fill="#FFFFFF" height="86.8042" style="stroke:#000000;stroke-width:3.125;" width="168.75" x="1909.375" y="514.5833"/><text fill="#000000" font-family="CMU Serif" font-size="31.25" lengthAdjust="spacing" textLength="118.75" x="1934.375" y="569.7957">davrods</text><!--MD5=[dc7dbb40e9fa74fc88333083ba833ad2]
entity icommands--><rect fill="#FFFFFF" height="86.8042" style="stroke:#000000;stroke-width:3.125;" width="329.1667" x="1433.3333" y="514.5833"/><text fill="#000000" font-family="CMU Serif" font-size="31.25" lengthAdjust="spacing" textLength="279.1667" x="1458.3333" y="569.7957">iRODS iCommands</text><!--MD5=[7b08dbc91c4137e0faeab76d27c933e7]
entity iCAT--><rect fill="#FFFFFF" height="86.8042" style="stroke:#000000;stroke-width:3.125;" width="285.4167" x="1836.4583" y="1539.5833"/><text fill="#000000" font-family="CMU Serif" font-size="31.25" lengthAdjust="spacing" textLength="235.4167" x="1861.4583" y="1594.7957">iRODS database</text><!--MD5=[45ed3a0159cb8d753ddefa79b4957559]
entity icatrules--><rect fill="#FFFFFF" height="86.8042" style="stroke:#000000;stroke-width:3.125;" width="225" x="2339.5833" y="1004.1667"/><text fill="#000000" font-family="CMU Serif" font-size="31.25" lengthAdjust="spacing" textLength="175" x="2364.5833" y="1059.3791">iRODS rules</text><!--MD5=[94e84dbc89cb5b4c99b367f131495424]
entity icatmicroservices--><rect fill="#FFFFFF" height="86.8042" style="stroke:#000000;stroke-width:3.125;" width="358.3333" x="1908.3333" y="1004.1667"/><text fill="#000000" font-family="CMU Serif" font-size="31.25" lengthAdjust="spacing" textLength="308.3333" x="1933.3333" y="1059.3791">iRODS microservices</text><!--MD5=[91d9009b65923dd26d29746592dd836d]
entity rescrules--><rect fill="#FFFFFF" height="86.8042" style="stroke:#000000;stroke-width:3.125;" width="225" x="1360.4167" y="1004.1667"/><text fill="#000000" font-family="CMU Serif" font-size="31.25" lengthAdjust="spacing" textLength="175" x="1385.4167" y="1059.3791">iRODS rules</text><!--MD5=[94506cb2a5540e0882664ac74e215e8f]
entity rescmicroservices--><rect fill="#FFFFFF" height="86.8042" style="stroke:#000000;stroke-width:3.125;" width="358.3333" x="929.1667" y="1004.1667"/><text fill="#000000" font-family="CMU Serif" font-size="31.25" lengthAdjust="spacing" textLength="308.3333" x="954.1667" y="1059.3791">iRODS microservices</text><!--MD5=[2b018dbc7be4c9a5fc2cfdc90eedde05]
entity Storage 1--><rect fill="#FEFECE" height="107.6375" style="stroke:#A80036;stroke-width:3.125;" width="233.3333" x="672.9167" y="1529.1667"/><rect fill="#FEFECE" height="20.8333" style="stroke:#A80036;stroke-width:3.125;" width="31.25" x="864.5833" y="1539.5833"/><rect fill="#FEFECE" height="4.1667" style="stroke:#A80036;stroke-width:3.125;" width="8.3333" x="860.4167" y="1543.75"/><rect fill="#FEFECE" height="4.1667" style="stroke:#A80036;stroke-width:3.125;" width="8.3333" x="860.4167" y="1552.0833"/><text fill="#000000" font-family="CMU Serif" font-size="31.25" lengthAdjust="spacing" textLength="141.6667" x="708.3333" y="1605.2124">Storage 1</text><!--MD5=[450b98169316e10f66f4036fe48f75f6]
entity Storage 2--><rect fill="#FEFECE" height="107.6375" style="stroke:#A80036;stroke-width:3.125;" width="233.3333" x="1022.9167" y="1529.1667"/><rect fill="#FEFECE" height="20.8333" style="stroke:#A80036;stroke-width:3.125;" width="31.25" x="1214.5833" y="1539.5833"/><rect fill="#FEFECE" height="4.1667" style="stroke:#A80036;stroke-width:3.125;" width="8.3333" x="1210.4167" y="1543.75"/><rect fill="#FEFECE" height="4.1667" style="stroke:#A80036;stroke-width:3.125;" width="8.3333" x="1210.4167" y="1552.0833"/><text fill="#000000" font-family="CMU Serif" font-size="31.25" lengthAdjust="spacing" textLength="141.6667" x="1058.3333" y="1605.2124">Storage 2</text><!--MD5=[9da4e82eb52cd8c6d596aa354b4c3c56]
entity Storage ...--><rect fill="#FEFECE" height="107.6375" style="stroke:#A80036;stroke-width:3.125;" width="245.8333" x="1372.9167" y="1529.1667"/><rect fill="#FEFECE" height="20.8333" style="stroke:#A80036;stroke-width:3.125;" width="31.25" x="1577.0833" y="1539.5833"/><rect fill="#FEFECE" height="4.1667" style="stroke:#A80036;stroke-width:3.125;" width="8.3333" x="1572.9167" y="1543.75"/><rect fill="#FEFECE" height="4.1667" style="stroke:#A80036;stroke-width:3.125;" width="8.3333" x="1572.9167" y="1552.0833"/><text fill="#000000" font-family="CMU Serif" font-size="31.25" lengthAdjust="spacing" textLength="154.1667" x="1408.3333" y="1605.2124">Storage ...</text><!--MD5=[b27731515e05e33f410b05c4ad713ee8]
entity moai--><rect fill="#FFFFFF" height="86.8042" style="stroke:#000000;stroke-width:3.125;" width="304.1667" x="3085.4167" y="1004.1667"/><text fill="#000000" font-family="CMU Serif" font-size="31.25" lengthAdjust="spacing" textLength="254.1667" x="3110.4167" y="1059.3791">OAI-PMH service</text><!--MD5=[ef5fb6472f6fca8335eea1e361cec3e0]
entity XML storage--><rect fill="#FEFECE" height="107.6375" style="stroke:#A80036;stroke-width:3.125;" width="277.0833" x="3278.125" y="1529.1667"/><rect fill="#FEFECE" height="20.8333" style="stroke:#A80036;stroke-width:3.125;" width="31.25" x="3513.5417" y="1539.5833"/><rect fill="#FEFECE" height="4.1667" style="stroke:#A80036;stroke-width:3.125;" width="8.3333" x="3509.375" y="1543.75"/><rect fill="#FEFECE" height="4.1667" style="stroke:#A80036;stroke-width:3.125;" width="8.3333" x="3509.375" y="1552.0833"/><text fill="#000000" font-family="CMU Serif" font-size="31.25" lengthAdjust="spacing" textLength="185.4167" x="3313.5417" y="1605.2124">XML storage</text><!--MD5=[0a38338cb3118604b8edc8355f0a690b]
entity Landingpages--><rect fill="#FEFECE" height="107.6375" style="stroke:#A80036;stroke-width:3.125;" width="295.8333" x="2864.5833" y="1529.1667"/><rect fill="#FEFECE" height="20.8333" style="stroke:#A80036;stroke-width:3.125;" width="31.25" x="3118.75" y="1539.5833"/><rect fill="#FEFECE" height="4.1667" style="stroke:#A80036;stroke-width:3.125;" width="8.3333" x="3114.5833" y="1543.75"/><rect fill="#FEFECE" height="4.1667" style="stroke:#A80036;stroke-width:3.125;" width="8.3333" x="3114.5833" y="1552.0833"/><text fill="#000000" font-family="CMU Serif" font-size="31.25" lengthAdjust="spacing" textLength="204.1667" x="2900" y="1605.2124">Landingpages</text><!--MD5=[62c3ca9e900b576d34c9c844036a1058]
entity extphp--><rect fill="#FFFFFF" height="86.8042" style="stroke:#000000;stroke-width:3.125;" width="106.25" x="265.625" y="1539.5833"/><text fill="#000000" font-family="CMU Serif" font-size="31.25" lengthAdjust="spacing" textLength="56.25" x="290.625" y="1594.7957">PHP</text><!--MD5=[cb789fc524e1555593d1fc5bff9b628e]
entity extusers--><rect fill="#FFFFFF" height="86.8042" style="stroke:#000000;stroke-width:3.125;" width="262.5" x="100" y="2000"/><text fill="#000000" font-family="CMU Serif" font-size="31.25" lengthAdjust="spacing" textLength="212.5" x="125" y="2055.2124">External users</text><!--MD5=[d6de0bea540cdcc3f07dc5dde60e897f]
entity HTTPS--><ellipse cx="1835.4167" cy="29.1667" fill="#FEFECE" rx="16.6667" ry="16.6667" style="stroke:#A80036;stroke-width:3.125;"/><text fill="#000000" font-family="CMU Serif" font-size="31.25" lengthAdjust="spacing" textLength="93.75" x="1788.5417" y="98.9624">HTTPS</text><!--MD5=[9edb9ec401ac148e6f8177a65bf7fe5a]
entity iCommands--><ellipse cx="168.75" cy="29.1667" fill="#FEFECE" rx="16.6667" ry="16.6667" style="stroke:#A80036;stroke-width:3.125;"/><text fill="#000000" font-family="CMU Serif" font-size="31.25" lengthAdjust="spacing" textLength="177.0833" x="80.2083" y="98.9624">iCommands</text><!--MD5=[fc2c71aa2d4bb2c20cdd0d7e43ea6cdc]
entity SMTP--><ellipse cx="1431.25" cy="2043.75" fill="#FEFECE" rx="16.6667" ry="16.6667" style="stroke:#A80036;stroke-width:3.125;"/><text fill="#000000" font-family="CMU Serif" font-size="31.25" lengthAdjust="spacing" textLength="79.1667" x="1391.6667" y="2113.5457">SMTP</text><!--MD5=[93de636609a5b66e17ae53a23cc659ca]
link portalweb to provider--><path d="M1835.4167,653.6163 C1835.4167,655.0998 1835.4167,656.5956 1835.4167,658.1031 C1835.4167,664.1332 1835.4167,670.352 1835.4167,676.7323 C1835.4167,689.4931 1835.4167,702.9004 1835.4167,716.7386 C1835.4167,744.415 1835.4167,773.8151 1835.4167,803.2135 C1835.4167,832.612 1835.4167,862.0088 1835.4167,889.6787 C1835.4167,893.1375 1835.4167,896.5692 1835.4167,899.9706 C1835.4167,900.821 1835.4167,901.6694 1835.4167,902.5159 C1835.4167,902.9392 1835.4167,903.3619 1835.4167,903.7842 " fill="none" id="portalweb-to-provider" style="stroke:#A80036;stroke-width:2.0833333333333335;stroke-dasharray:7.0,7.0;"/><polygon fill="#A80036" points="1835.4167,903.7842,1843.75,885.0342,1835.4167,893.3675,1827.0833,885.0342,1835.4167,903.7842" style="stroke:#A80036;stroke-width:2.0833333333333335;"/><!--MD5=[9e433ed3cb546e22c3a2bc5fa5432648]
link icommands to provider--><path d="M1618.5833,602.6458 C1647.0208,660.7708 1699.9948,769.0417 1746.4609,864.0156 C1769.694,911.5026 1791.3001,955.6654 1807.3988,988.5736 C1811.4234,996.8006 1815.1039,1004.3243 1818.3795,1011.0206 " fill="none" id="icommands-to-provider" style="stroke:#A80036;stroke-width:2.0833333333333335;stroke-dasharray:7.0,7.0;"/><polygon fill="#A80036" points="1818.3795,1011.0206,1817.6263,990.516,1813.8023,1001.6634,1802.6548,997.8394,1818.3795,1011.0206" style="stroke:#A80036;stroke-width:2.0833333333333335;"/><!--MD5=[fe76e51c36dfc8e7276096c644e4dc60]
link consumer to provider--><path d="M845.1886,903.7417 C845.2177,903.2111 845.2479,902.6804 845.2791,902.1497 C845.3415,901.0882 845.408,900.0265 845.4786,898.9648 C845.62,896.8414 845.7782,894.718 845.9541,892.5964 C846.3058,888.3533 846.7282,884.1172 847.228,879.902 C848.2277,871.4717 849.5372,863.125 851.2104,854.9727 C854.5568,838.668 859.3584,823.1406 866.0475,809.276 C879.4258,781.5469 900.3542,760.4688 932.2917,753.125 C1002.6667,736.9375 1511.9167,736.9375 1582.2917,753.125 C1663.8125,771.875 1725.75,841.625 1767.9479,908.5703 C1789.0469,942.043 1805.2109,974.8145 1816.4206,1000.1592 C1817.1212,1001.7432 1817.8024,1003.2983 1818.4643,1004.8226 " fill="none" id="consumer-provider" style="stroke:#A80036;stroke-width:2.0833333333333335;stroke-dasharray:7.0,7.0;"/><!--MD5=[94b1b9a7f66b62f33433e1179162cc44]
link consumer to Storage 1--><path d="M844.5939,1142.8769 C844.5148,1143.5077 844.4353,1144.1408 844.3556,1144.7762 C844.1962,1146.0469 844.0356,1147.3266 843.8739,1148.6152 C843.2272,1153.7695 842.5627,1159.0651 841.8825,1164.4865 C839.1615,1186.1722 836.1875,1209.8724 833.0833,1234.6094 C820.6667,1333.5573 806.1667,1449.0938 797.4375,1518.6458 " fill="none" id="consumer-to-Storage 1" style="stroke:#A80036;stroke-width:2.0833333333333335;stroke-dasharray:7.0,7.0;"/><polygon fill="#A80036" points="796.125,1529.125,806.7508,1511.5722,797.4354,1518.7911,790.2165,1509.4757,796.125,1529.125" style="stroke:#A80036;stroke-width:2.0833333333333335;"/><!--MD5=[fe5466c819d6e40082147a6f964639f3]
link consumer to Storage 2--><path d="M870.2513,1141.9419 C870.3782,1142.525 870.5061,1143.1092 870.6352,1143.6944 C870.8932,1144.8647 871.1554,1146.0388 871.4219,1147.2163 C871.9549,1149.5713 872.5051,1151.9397 873.0728,1154.3181 C874.2082,1159.0747 875.414,1163.8708 876.6937,1168.6774 C881.8125,1187.9036 888.1146,1207.2969 895.8333,1225 C922.5625,1286.3125 1030.5208,1435.3125 1093.4375,1519.9167 " fill="none" id="consumer-to-Storage 2" style="stroke:#A80036;stroke-width:2.0833333333333335;stroke-dasharray:7.0,7.0;"/><polygon fill="#A80036" points="1100.125,1528.8958,1095.6217,1508.8777,1093.9084,1520.5376,1082.2485,1518.8243,1100.125,1528.8958" style="stroke:#A80036;stroke-width:2.0833333333333335;"/><!--MD5=[c8e962edac967fb605e83ed9d471014b]
link consumer to Storage ...--><path d="M857.8402,1142.5244 C857.9404,1143.1112 858.0429,1143.6985 858.1476,1144.2861 C858.3571,1145.4612 858.5756,1146.6377 858.8035,1147.8148 C860.627,1157.232 863.0514,1166.6929 866.2396,1175.8734 C872.6159,1194.2344 882.0469,1211.474 895.8333,1225 C927.7292,1256.2917 1251.8542,1282.3125 1289.5833,1306.25 C1371.625,1358.2917 1432.7292,1455.3542 1466.3333,1519.125 " fill="none" id="consumer-to-Storage ..." style="stroke:#A80036;stroke-width:2.0833333333333335;stroke-dasharray:7.0,7.0;"/><polygon fill="#A80036" points="1471.5,1529.0625,1470.2805,1508.5803,1466.7111,1519.8119,1455.4795,1516.2425,1471.5,1529.0625" style="stroke:#A80036;stroke-width:2.0833333333333335;"/><!--MD5=[7eeca58ccad379ce4b534666f9633944]
link provider to iCAT--><path d="M1855.0731,1141.8717 C1855.3362,1143.0402 1855.601,1144.2134 1855.8673,1145.3909 C1856.3999,1147.7459 1856.9388,1150.1182 1857.4834,1152.5045 C1858.5726,1157.277 1859.6846,1162.1055 1860.8151,1166.9635 C1865.3372,1186.3958 1870.1563,1206.3021 1875,1225 C1903.1458,1333.6458 1941.2083,1459.375 1962.6667,1528.6458 " fill="none" id="provider-to-iCAT" style="stroke:#A80036;stroke-width:2.0833333333333335;stroke-dasharray:7.0,7.0;"/><polygon fill="#A80036" points="1965.9792,1539.25,1968.3614,1518.8703,1962.8823,1529.3043,1952.4483,1523.8253,1965.9792,1539.25" style="stroke:#A80036;stroke-width:2.0833333333333335;"/><text fill="#000000" font-family="CMU Serif" font-size="31.25" lengthAdjust="spacing" textLength="52.0833" x="1895.8333" y="1278.1291">use</text><!--MD5=[ccbe97d80830775891bfb1ec96623535]
link publicweb to Landingpages--><path d="M3012.5,1142.8769 C3012.5,1143.5077 3012.5,1144.1408 3012.5,1144.7762 C3012.5,1146.0469 3012.5,1147.3266 3012.5,1148.6152 C3012.5,1153.7695 3012.5,1159.0651 3012.5,1164.4865 C3012.5,1186.1722 3012.5,1209.8724 3012.5,1234.6094 C3012.5,1333.5573 3012.5,1449.0938 3012.5,1518.6458 " fill="none" id="publicweb-to-Landingpages" style="stroke:#A80036;stroke-width:2.0833333333333335;stroke-dasharray:7.0,7.0;"/><polygon fill="#A80036" points="3012.5,1529.125,3020.8333,1510.375,3012.5,1518.7083,3004.1667,1510.375,3012.5,1529.125" style="stroke:#A80036;stroke-width:2.0833333333333335;"/><!--MD5=[5862216e5ba1313e86e47fd0ef83b5a8]
link moai to XML storage--><path d="M3251.5625,1091.6875 C3282.8958,1184.5833 3358.5625,1409 3395.5833,1518.7292 " fill="none" id="moai-to-XML storage" style="stroke:#A80036;stroke-width:2.0833333333333335;stroke-dasharray:7.0,7.0;"/><polygon fill="#A80036" points="3399.0417,1528.9792,3400.9443,1508.5491,3395.712,1519.109,3385.1521,1513.8766,3399.0417,1528.9792" style="stroke:#A80036;stroke-width:2.0833333333333335;"/><!--MD5=[75513b2495b8cf94d1dd1e8f650d1b8d]
link extweb to extusers--><path d="M199.5724,1677.9568 C199.607,1678.3608 199.6417,1678.7656 199.6764,1679.1713 C199.7459,1679.9826 199.8157,1680.7973 199.8858,1681.6152 C200.026,1683.2511 200.1673,1684.9 200.3097,1686.5613 C200.5946,1689.8839 200.8837,1693.2561 201.1767,1696.6727 C201.7628,1703.5059 202.3644,1710.5167 202.9781,1717.6638 C204.2056,1731.9579 205.4814,1746.797 206.778,1761.8499 C209.3711,1791.9557 212.0469,1822.9167 214.5833,1852.0833 C218.5833,1898.0208 223.1667,1950.2083 226.5208,1988.1875 " fill="none" id="extweb-to-extusers" style="stroke:#A80036;stroke-width:2.0833333333333335;stroke-dasharray:7.0,7.0;"/><polygon fill="#A80036" points="227.5208,1999.5,234.213,1980.1035,226.6262,1989.1218,217.6079,1981.535,227.5208,1999.5" style="stroke:#A80036;stroke-width:2.0833333333333335;"/><text fill="#000000" font-family="CMU Serif" font-size="31.25" lengthAdjust="spacing" textLength="52.0833" x="220.8333" y="1840.6291">use</text><!--MD5=[8ccc299ab25b8b45ff9640fed65d797d]
link HTTPS to portalweb--><path d="M1835.4167,48.125 C1835.4167,92.3542 1835.4167,216.1354 1835.4167,330.4453 C1835.4167,359.0228 1835.4167,387.0083 1835.4167,413.0109 " fill="none" id="HTTPS-portalweb" style="stroke:#A80036;stroke-width:2.0833333333333335;"/><!--MD5=[eb564ea11bf01aaa29bc54248718de98]
link HTTPS to publicweb--><path d="M1854.4375,33.6875 C1920.2917,42.8333 2142.6875,80.0417 2291.6667,181.25 C2496.9688,320.7188 2675.974,534.5885 2804.2474,714.7161 C2868.3841,804.7799 2919.8379,886.4082 2955.5544,946.083 C2964.4835,961.0017 2972.429,974.5483 2979.3432,986.5116 C2982.8004,992.4933 2985.9997,998.0791 2988.9351,1003.2427 C2990.4029,1005.8245 2991.8047,1008.3007 2993.1398,1010.6681 C2993.8074,1011.8518 2994.4582,1013.0083 2995.0923,1014.1371 " fill="none" id="HTTPS-publicweb" style="stroke:#A80036;stroke-width:2.0833333333333335;"/><!--MD5=[5bd5b5788a9785114cd62c223cc12d51]
link HTTPS to extweb--><path d="M1815.8958,34.8333 C1752.1458,47.125 1545.9583,91.9583 1400,181.25 C784.9792,557.5208 560.1667,664.6667 231.25,1306.25 C217.3854,1333.2917 207.9479,1363.6784 201.598,1394.126 C198.423,1409.3498 196.0199,1424.5888 194.2213,1439.4325 " fill="none" id="HTTPS-extweb" style="stroke:#A80036;stroke-width:2.0833333333333335;"/><!--MD5=[2bb46ba4699d94d65b528c2575a980c1]
link iCommands to icommands--><path d="M187.875,38.2708 C325.9167,88.9792 1173.4375,400.3125 1484,514.3958 " fill="none" id="iCommands-icommands" style="stroke:#A80036;stroke-width:2.0833333333333335;"/><!--MD5=[317add705822827b66e7cac200386385]
link provider to XML storage--><path d="M1834.5641,1142.4896 C1834.61,1142.7894 1834.6565,1143.0893 1834.7036,1143.3893 C1834.7978,1143.9892 1834.8945,1144.5893 1834.9937,1145.1896 C1835.1923,1146.3902 1835.401,1147.5913 1835.6202,1148.7922 C1837.3744,1158.3999 1839.8052,1167.9971 1843.1097,1177.2142 C1849.7188,1195.6484 1859.8229,1212.5625 1875,1225 C1904.1042,1248.8542 2514.5208,1239.3125 2552.0833,1241.6667 C2838.1458,1259.5625 2941.5208,1170.1042 3193.75,1306.25 C3282.6667,1354.25 3349.3125,1454.0208 3385.625,1519.2708 " fill="none" id="provider-to-XML storage" style="stroke:#A80036;stroke-width:2.0833333333333335;stroke-dasharray:7.0,7.0;"/><polygon fill="#A80036" points="3390.7708,1528.6458,3389.0802,1508.1972,3385.7703,1519.5079,3374.4595,1516.198,3390.7708,1528.6458" style="stroke:#A80036;stroke-width:2.0833333333333335;"/><text fill="#000000" font-family="CMU Serif" font-size="31.25" lengthAdjust="spacing" textLength="54.1667" x="3154.1667" y="1278.1291">SCP</text><!--MD5=[a7abc75df01531043d834451d1c33ae8]
link provider to Landingpages--><path d="M1834.6899,1142.3308 C1834.7359,1142.6305 1834.7825,1142.9303 1834.8297,1143.2301 C1834.9242,1143.8297 1835.0212,1144.4296 1835.1207,1145.0297 C1835.3197,1146.2298 1835.5288,1147.4305 1835.7484,1148.6311 C1837.5055,1158.2362 1839.9351,1167.8356 1843.2327,1177.0618 C1849.8281,1195.5143 1859.8958,1212.474 1875,1225 C1914.0417,1257.3958 2282.0833,1229.1458 2331.25,1241.6667 C2560.1042,1299.9792 2801.4375,1442.3542 2926.2917,1523.0208 " fill="none" id="provider-to-Landingpages" style="stroke:#A80036;stroke-width:2.0833333333333335;stroke-dasharray:7.0,7.0;"/><polygon fill="#A80036" points="2935.0833,1528.7292,2923.8588,1511.5531,2926.3346,1523.0752,2914.8125,1525.5511,2935.0833,1528.7292" style="stroke:#A80036;stroke-width:2.0833333333333335;"/><text fill="#000000" font-family="CMU Serif" font-size="31.25" lengthAdjust="spacing" textLength="54.1667" x="2475" y="1278.1291">SCP</text><!--MD5=[6b8b6cb65f7536aa25a1197577dacf64]
link provider to extweb--><path d="M1818.2863,1070.5105 C1817.6006,1071.2966 1816.896,1072.101 1816.1729,1072.9229 C1804.6022,1086.0723 1788.2799,1103.6914 1768.5026,1122.5599 C1728.9479,1160.2969 1675.5729,1203.0313 1618.75,1225 C1546.7292,1252.8542 288.1042,1254 231.25,1306.25 C208.875,1326.8125 195.1159,1353.9089 187.0869,1383.0778 C183.0724,1397.6623 180.4905,1412.7649 178.9803,1427.828 C178.6028,1431.5938 178.2923,1435.3571 178.0431,1439.1092 " fill="none" id="provider-to-extweb" style="stroke:#A80036;stroke-width:2.0833333333333335;stroke-dasharray:7.0,7.0;"/><polygon fill="#A80036" points="178.0431,1439.1092,187.6006,1420.9527,178.7334,1428.7154,170.9706,1419.8482,178.0431,1439.1092" style="stroke:#A80036;stroke-width:2.0833333333333335;"/><text fill="#000000" font-family="CMU Serif" font-size="31.25" lengthAdjust="spacing" textLength="168.75" x="1368.75" y="1278.1291">HTTPS-ALT</text><!--MD5=[095ffd1cc7a12ae6d95fdb2daa9c2af4]
link provider to SMTP--><path d="M1836.4868,1142.0412 C1836.5355,1142.3347 1836.5847,1142.6284 1836.6345,1142.9221 C1836.734,1143.5096 1836.8359,1144.0974 1836.94,1144.6855 C1837.1483,1145.8617 1837.3659,1147.0391 1837.593,1148.2169 C1839.41,1157.6397 1841.8395,1167.0942 1845.0488,1176.2516 C1851.4674,1194.5664 1861.0052,1211.6927 1875,1225 C1906.3333,1254.7917 1928.9792,1230.8125 1970.8333,1241.6667 C2055.3125,1263.5625 2105.7083,1235.125 2156.25,1306.25 C2280.1458,1480.6042 2279.9792,1613.0208 2156.25,1787.5 C1986.9375,2026.2708 1575.1042,2042.4583 1461,2042.2083 " fill="none" id="provider-to-SMTP" style="stroke:#A80036;stroke-width:2.0833333333333335;stroke-dasharray:7.0,7.0;"/><polygon fill="#A80036" points="1450.3125,2042.125,1469.0146,2050.5653,1460.729,2042.1845,1469.1098,2033.8989,1450.3125,2042.125" style="stroke:#A80036;stroke-width:2.0833333333333335;"/><!--MD5=[9d865ebbcc451878260a98456e2cb5f3]
link extphp to SMTP--><path d="M372,1624.8542 C433.7708,1669.1875 539.9583,1741.0417 639.5833,1787.5 C923.5833,1919.9583 1295.2083,2010.5417 1401.625,2035.0208 " fill="none" id="extphp-to-SMTP" style="stroke:#A80036;stroke-width:2.0833333333333335;stroke-dasharray:7.0,7.0;"/><polygon fill="#A80036" points="1412.1875,2037.4375,1395.7677,2025.1331,1402.0331,2035.1148,1392.0514,2041.3801,1412.1875,2037.4375" style="stroke:#A80036;stroke-width:2.0833333333333335;"/><!--MD5=[2dc74eb4047a3ab11b4ff31eca377f13]
@startuml

skinparam defaultFontName CMU Serif
skinparam defaultFontSize 15
skinparam padding 2
skinparam shadowing false
skinparam dpi 200

rectangle "Yoda instance" {

    package "Yoda portal" {
        rectangle "Apache webserver" as portalweb {
            rectangle "PHP" as portalphp {
            }
            rectangle "davrods" as davrods {
            }		    
	}

        rectangle "iRODS iCommands" as icommands {	    
	}
	
        portalweb .d.> provider
        icommands .d.> provider	
    }

    package "Yoda database" {
        database "PostgreSQL" as icatdb{
            rectangle "iRODS database" as iCAT {
            }
        }
    }

    package "Yoda iCAT" {
        rectangle "iRODS iCAT" as provider {
            rectangle "iRODS rules" as icatrules {
            }
            rectangle "iRODS microservices" as icatmicroservices {
            }	    
        }
    }

    package "Yoda resource" {
        rectangle "iRODS resource" as consumer {
            rectangle "iRODS rules" as rescrules {
            }
            rectangle "iRODS microservices" as rescmicroservices {
            }
        }

        cloud {
          [Storage 1]
        }

        cloud {
          [Storage 2]
        }

        cloud {
          [Storage ...]
        }

        consumer .r- - provider
	consumer .d.> [Storage 1]
	consumer .d.> [Storage 2]
	consumer .d.> [Storage ...]		
    }

    provider .d.> iCAT : use
    
}

rectangle "Yoda Public server" {
    rectangle "Apache webserver" as publicweb {
        rectangle "OAI-PMH service" as moai {
        }    
    }

    cloud {
      [XML storage]
    }

    cloud {
      [Landingpages]
    }

    publicweb .d.> [Landingpages]
    moai .d.> [XML storage]
}

rectangle "Yoda External User service" {
    rectangle "Apache webserver" as extweb {
        rectangle "PHP" as extphp {
        }      
    }

    database "PostgreSQL" as extdb {
        rectangle "External users" as extusers {
        }
    }

    extweb .d.> extusers : use
}

HTTPS - - portalweb
HTTPS -r- publicweb
HTTPS -r- extweb
iCommands - - icommands
provider .d.> [XML storage] : SCP
provider .d.> [Landingpages] : SCP
provider .d.> extweb : HTTPS-ALT

provider .d.> SMTP
extphp .d.> SMTP

@enduml

PlantUML version 1.2021.14(Fri Nov 12 17:46:50 CET 2021)
(GPL source distribution)
Java Runtime: OpenJDK Runtime Environment
JVM: OpenJDK 64-Bit Server VM
Default Encoding: UTF-8
Language: nl
Country: NL
--></g></svg>