<svg id="Logo" xmlns="http://www.w3.org/2000/svg" viewBox="0 0 227.28 67.21"><defs><style>.cls-1{fill:none;}.cls-2{fill:#005172;}.cls-3{fill:#008a00;}</style></defs><rect class="cls-1" width="227.28" height="67.21"/><path class="cls-2" d="M83.93,22l-3.43,9.4H79.15L76.7,24.76C75.91,27,75,29.25,74.26,31.43H72.91L69.49,22h1.83l2.27,6.2L75.87,22h1.68l2.27,6.2L82.1,22Z" transform="translate(0)"/><path class="cls-2" d="M111.14,24.58h-1.73v-.74a.09.09,0,0,0-.1-.09h-5.76a.09.09,0,0,0-.09.09v5.78a.09.09,0,0,0,.09.09h5.76a.09.09,0,0,0,.1-.09V27.84h-2.13V26.12h3.86v3.5a1.82,1.82,0,0,1-1.83,1.81h-5.76a1.81,1.81,0,0,1-1.81-1.81V23.84A1.81,1.81,0,0,1,103.55,22h5.76a1.82,1.82,0,0,1,1.83,1.81Z" transform="translate(0)"/><path class="cls-2" d="M125.3,23.75h-6.91v2.12H124v1.72h-5.57v2.12h6.91v1.72h-8.65V22h8.65Z" transform="translate(0)"/><path class="cls-2" d="M138.17,22h1.74v9.4H138l-5.8-6.89v6.89H130.5V22h1.88l5.79,6.9Z" transform="translate(0)"/><path class="cls-2" d="M145,22h1.72v9.4H145Z" transform="translate(0)"/><path class="cls-2" d="M159.69,22h1.73v9.4h-1.88l-5.8-6.89v6.89H152V22h1.88l5.79,6.9Z" transform="translate(0)"/><path class="cls-2" d="M176,24.58h-1.74v-.74a.09.09,0,0,0-.09-.09h-5.76a.09.09,0,0,0-.09.09v5.78a.09.09,0,0,0,.09.09h5.76a.09.09,0,0,0,.09-.09V27.84h-2.13V26.12H176v3.5a1.82,1.82,0,0,1-1.83,1.81h-5.76a1.81,1.81,0,0,1-1.82-1.81V23.84A1.81,1.81,0,0,1,168.37,22h5.76A1.82,1.82,0,0,1,176,23.84Z" transform="translate(0)"/><path class="cls-2" d="M190,23.75H183v2.12h5.56v1.72H183v2.12H190v1.72H181.3V22H190Z" transform="translate(0)"/><path class="cls-2" d="M202.65,22h1.74v9.4h-1.88l-5.8-6.89v6.89H195V22h1.88l5.79,6.9Z" transform="translate(0)"/><path class="cls-2" d="M95.32,23.84C95,22.73,94.51,22,93.51,22H90.67c-1,0-1.44.7-1.81,1.81l-2.73,7.59h1.78l1.15-3.16h6.09l1.15,3.16h1.75Zm-5.68,2.71.94-2.71c0-.06,0-.09.09-.09h2.86s.06,0,.09.09l.94,2.71Z" transform="translate(0)"/><path class="cls-3" d="M74.88,38.85h.83v4.56a1,1,0,0,1-1,1H71.15a1,1,0,0,1-1-1V38.85H71v4.56a.18.18,0,0,0,.17.17h3.56a.18.18,0,0,0,.17-.17Z" transform="translate(0)"/><path class="cls-3" d="M82.5,38.85h.84v5.56h-1L78.61,40v4.45h-.84V38.85h1L82.5,43.3Z" transform="translate(0)"/><path class="cls-3" d="M85.42,38.85h.84v5.56h-.84Z" transform="translate(0)"/><path class="cls-3" d="M93.49,38.85h1l-3.2,5.56h-.84L87.2,38.85h1l2.67,4.62Z" transform="translate(0)"/><path class="cls-3" d="M100.32,39.68H96.05v1.53h3.44v.84H96.05v1.53h4.27v.83h-5.1V38.85h5.1Z" transform="translate(0)"/><path class="cls-3" d="M107.89,41.42a1,1,0,0,1-1,1h-.57l1.57,1.87v.11h-1l-1.67-2h-1.9l-.17,0v2h-.83V38.85h4.56a1,1,0,0,1,1,1Zm-4.73-1.73v1.9h3.73a.17.17,0,0,0,.17-.17V39.86a.18.18,0,0,0-.17-.17Z" transform="translate(0)"/><path class="cls-3" d="M153.24,41.42a1,1,0,0,1-1,1h-.56l1.56,1.87v.11h-1l-1.66-2h-1.91l-.17,0v2h-.83V38.85h4.56a1,1,0,0,1,1,1Zm-4.73-1.73v1.9h3.73a.17.17,0,0,0,.17-.17V39.86a.18.18,0,0,0-.17-.17Z" transform="translate(0)"/><path class="cls-3" d="M189.63,41.42a1,1,0,0,1-1,1h-.56l1.57,1.87v.11h-1l-1.67-2h-1.9l-.17,0v2h-.84V38.85h4.56a1,1,0,0,1,1,1Zm-4.73-1.73v1.9h3.72a.17.17,0,0,0,.17-.17V39.86a.18.18,0,0,0-.17-.17Z" transform="translate(0)"/><path class="cls-3" d="M115.45,40.18h-.84v-.33a.17.17,0,0,0-.17-.17h-3.55a.18.18,0,0,0-.17.17V41a.17.17,0,0,0,.17.17h3.55a1,1,0,0,1,1,1v1.19a1,1,0,0,1-1,1h-3.55a1,1,0,0,1-1-1v-.33h.84v.33a.18.18,0,0,0,.17.17h3.55a.17.17,0,0,0,.17-.17V42.22a.17.17,0,0,0-.17-.17h-3.55a1,1,0,0,1-1-1V39.85a1,1,0,0,1,1-1h3.55a1,1,0,0,1,1,1Z" transform="translate(0)"/><path class="cls-3" d="M117.49,38.85h.84v5.56h-.84Z" transform="translate(0)"/><path class="cls-3" d="M125.26,38.85v.83H122.9v4.73h-.83V39.68H119.7v-.83Z" transform="translate(0)"/><path class="cls-3" d="M131.81,38.85l-2.56,3.48v2.08h-.84V42.33l-2.56-3.48h1l2,2.53,2-2.53Z" transform="translate(0)"/><path class="cls-3" d="M160.39,39.68h-4.27v1.53h3.44v.84h-3.44v1.53h4.27v.83h-5.1V38.85h5.1Z" transform="translate(0)"/><path class="cls-3" d="M167.65,40.18h-.83v-.33a.18.18,0,0,0-.17-.17h-3.56a.18.18,0,0,0-.17.17V41a.17.17,0,0,0,.17.17h3.56a1,1,0,0,1,1,1v1.19a1,1,0,0,1-1,1h-3.56a1,1,0,0,1-1-1v-.33h.83v.33a.18.18,0,0,0,.17.17h3.56a.18.18,0,0,0,.17-.17V42.22a.18.18,0,0,0-.17-.17h-3.56a1,1,0,0,1-1-1V39.85a1,1,0,0,1,1-1h3.56a1,1,0,0,1,1,1Z" transform="translate(0)"/><path class="cls-3" d="M174.81,39.68h-4.27v1.53H174v.84h-3.43v1.53h4.27v.83h-5.1V38.85h5.1Z" transform="translate(0)"/><path class="cls-3" d="M180.15,38.85c.56,0,.88.42,1.09,1l1.62,4.56H182l-.73-1.95h-3.86l-.71,1.95h-.84l1.68-4.56c.22-.62.45-1,1-1Zm.86,2.78-.69-1.78c0-.1-.08-.17-.17-.17h-1.62c-.1,0-.12,0-.17.17l-.67,1.78Z" transform="translate(0)"/><path class="cls-3" d="M192.52,39.68a.17.17,0,0,0-.16.17v3.56a.17.17,0,0,0,.16.17h4.55v.83h-4.55a1,1,0,0,1-1-1V39.85a1,1,0,0,1,1-1h4.55v.83Z" transform="translate(0)"/><path class="cls-3" d="M204.4,38.85v5.56h-.83V42.05h-4v2.36h-.84V38.85h.84v2.36h4V38.85Z" transform="translate(0)"/><path class="cls-3" d="M142.6,43.59l-1-.61v-1.6h-.84v1.07l-3.06-1.92h0a.17.17,0,0,1-.09-.15v-.51a.18.18,0,0,1,.17-.17h2.06a.18.18,0,0,1,.17.17v.37h.83v-.54a1,1,0,0,0-1-.84h-2.06a1,1,0,0,0-1,1v.62c0,.29.16.39.43.55h-.15c-.56,0-1,.16-1,.72v1.66a1,1,0,0,0,1,1h3.55a1,1,0,0,0,.95-.66h0l1,.66Zm-1.82-.18a.16.16,0,0,1-.17.17h-3.55a.17.17,0,0,1-.17-.17V41.75a.17.17,0,0,1,0-.07.21.21,0,0,1,.2-.1h1l2.67,1.69Z" transform="translate(0)"/><path class="cls-2" d="M50.3,50.54" transform="translate(0)"/><path class="cls-2" d="M64.1,44.49c.54-.5-1.2-1.09-1.2-1.09s-1.86-.85-9.26-1.46v2.55H42.2V41.57c-2.28-.06-6.79,0-9.93,0v2.92H20.87V41.94a70.7,70.7,0,0,0-8.23,1l-.61.5c-.62.41,0,.57.43.77.16.08.17.13.11.3s-.42.21-.35.44c.15.48.85,0,.8.65s-1.71.32-1.88,1c-.13.54.61,0,.6,1.09s.76,2.1,2.91,2.63c.51.13,2.91.09,1.68.8a3.66,3.66,0,0,1-.81.09c-.24,0-.78,0-.93.21s.26.33.19.64c-.28,0-.88,0-.62.5a1,1,0,0,0,.83.36,3.81,3.81,0,0,1,1.57.1c-.75.14-1.42.92,1.39.84.06.43.82.39,1.08.33,17.52-3.88,25.1-2.23,25.15-3.3-.25-.53-2.72-.48-3.13-.5-1.6-.07-5,.1-4.81-.31.09-1,17.85-.73,15.77-.13-.1,0-1.34.24-1.5.32-1,.51,2.72.62,3.11.65s1.54,0,1.34.48c-.06.15-1.38,0-1.32.2s.79.08.86.2c.54.84-6.53.43-10.18.5-1.07,0-3.17.15-4.26.29-1.85.25-.27.68,2.6.95,1.54.14,9.46.78,16.18,1.66,2,.37,2.62-.63,2.17-.9-.26-.15.85-.71-.39-1.24-.78-.33-.14-.47-.09-.45s1.72.41,1.12-.12c-.38-.35.26-.15.38-.16,1.49-.11,1.14-.67,1.24-.58-.45-.44.75-.75.48-1.72-.09-.29-1.8-.23-.67-.46.12,0,1.69,0,.24-.84a3.76,3.76,0,0,0-1.14-.32c-1.07-.24-.27-.78.27-.69s1.31-.33,1.2-1C63.51,45.89,63.22,44.66,64.1,44.49Z" transform="translate(0)"/><polygon class="cls-3" points="22.57 18.51 22.57 44.49 32.27 44.49 32.27 28.3 42.2 28.3 42.2 44.49 51.9 44.49 51.9 18.51 22.57 18.51"/></svg>