<?xml version="1.0" encoding="UTF-8" standalone="no"?><svg xmlns="http://www.w3.org/2000/svg" xmlns:xlink="http://www.w3.org/1999/xlink" contentScriptType="application/ecmascript" contentStyleType="text/css" height="864px" preserveAspectRatio="none" style="width:463px;height:864px;" version="1.1" viewBox="0 0 463 864" width="463px" zoomAndPan="magnify"><defs/><g><line style="stroke: #A80036; stroke-width: 1.0; stroke-dasharray: 5.0,5.0;" x1="53" x2="53" y1="86.2969" y2="773.6875"/><line style="stroke: #A80036; stroke-width: 1.0; stroke-dasharray: 5.0,5.0;" x1="159" x2="159" y1="86.2969" y2="773.6875"/><line style="stroke: #A80036; stroke-width: 1.0; stroke-dasharray: 5.0,5.0;" x1="334" x2="334" y1="86.2969" y2="773.6875"/><text fill="#000000" font-family="sans-serif" font-size="14" lengthAdjust="spacingAndGlyphs" textLength="80" x="10" y="80.9951">Researcher</text><ellipse cx="53" cy="13" fill="#FEFECE" rx="8" ry="8" style="stroke: #A80036; stroke-width: 2.0;"/><path d="M53,21 L53,48 M40,29 L66,29 M53,48 L40,63 M53,48 L66,63 " fill="none" style="stroke: #A80036; stroke-width: 2.0;"/><text fill="#000000" font-family="sans-serif" font-size="14" lengthAdjust="spacingAndGlyphs" textLength="80" x="10" y="787.6826">Researcher</text><ellipse cx="53" cy="802.9844" fill="#FEFECE" rx="8" ry="8" style="stroke: #A80036; stroke-width: 2.0;"/><path d="M53,810.9844 L53,837.9844 M40,818.9844 L66,818.9844 M53,837.9844 L40,852.9844 M53,837.9844 L66,852.9844 " fill="none" style="stroke: #A80036; stroke-width: 2.0;"/><text fill="#000000" font-family="sans-serif" font-size="14" lengthAdjust="spacingAndGlyphs" textLength="93" x="110" y="80.9951">Datamanager</text><ellipse cx="159.5" cy="13" fill="#FEFECE" rx="8" ry="8" style="stroke: #A80036; stroke-width: 2.0;"/><path d="M159.5,21 L159.5,48 M146.5,29 L172.5,29 M159.5,48 L146.5,63 M159.5,48 L172.5,63 " fill="none" style="stroke: #A80036; stroke-width: 2.0;"/><text fill="#000000" font-family="sans-serif" font-size="14" lengthAdjust="spacingAndGlyphs" textLength="93" x="110" y="787.6826">Datamanager</text><ellipse cx="159.5" cy="802.9844" fill="#FEFECE" rx="8" ry="8" style="stroke: #A80036; stroke-width: 2.0;"/><path d="M159.5,810.9844 L159.5,837.9844 M146.5,818.9844 L172.5,818.9844 M159.5,837.9844 L146.5,852.9844 M159.5,837.9844 L172.5,852.9844 " fill="none" style="stroke: #A80036; stroke-width: 2.0;"/><rect fill="#FEFECE" height="34.2969" style="stroke: #A80036; stroke-width: 1.5;" width="53" x="308" y="51"/><text fill="#000000" font-family="sans-serif" font-size="14" lengthAdjust="spacingAndGlyphs" textLength="35" x="317" y="72.9951">Yoda</text><rect fill="#FEFECE" height="34.2969" style="stroke: #A80036; stroke-width: 1.5;" width="53" x="308" y="772.6875"/><text fill="#000000" font-family="sans-serif" font-size="14" lengthAdjust="spacingAndGlyphs" textLength="35" x="317" y="794.6826">Yoda</text><rect fill="#EEEEEE" height="3" style="stroke: #EEEEEE; stroke-width: 1.0;" width="448" x="3" y="118.8633"/><line style="stroke: #000000; stroke-width: 1.0;" x1="3" x2="451" y1="118.8633" y2="118.8633"/><line style="stroke: #000000; stroke-width: 1.0;" x1="3" x2="451" y1="121.8633" y2="121.8633"/><rect fill="#EEEEEE" height="27.1328" style="stroke: #000000; stroke-width: 2.0;" width="203" x="125.5" y="106.2969"/><text fill="#000000" font-family="sans-serif" font-size="13" font-weight="bold" lengthAdjust="spacingAndGlyphs" textLength="180" x="133.5" y="124.3638">Approved data package</text><polygon fill="#A80036" points="322.5,164.5625,332.5,168.5625,322.5,172.5625,326.5,168.5625" style="stroke: #A80036; stroke-width: 1.0;"/><line style="stroke: #A80036; stroke-width: 1.0;" x1="53" x2="328.5" y1="168.5625" y2="168.5625"/><text fill="#000000" font-family="sans-serif" font-size="13" lengthAdjust="spacingAndGlyphs" textLength="140" x="62" y="161.4966">Submit for publication</text><path d="M223,181.5625 L223,210.5625 L446,210.5625 L446,191.5625 L436,181.5625 L223,181.5625 " fill="#FBFB77" style="stroke: #A80036; stroke-width: 1.0;"/><path d="M436,181.5625 L436,191.5625 L446,191.5625 L436,181.5625 " fill="#FBFB77" style="stroke: #A80036; stroke-width: 1.0;"/><text fill="#000000" font-family="sans-serif" font-size="13" lengthAdjust="spacingAndGlyphs" textLength="198" x="231" y="200.6294">SUBMITTED_FOR_PUBLICATION</text><polygon fill="#A80036" points="170.5,236.8281,160.5,240.8281,170.5,244.8281,166.5,240.8281" style="stroke: #A80036; stroke-width: 1.0;"/><line style="stroke: #A80036; stroke-width: 1.0; stroke-dasharray: 2.0,2.0;" x1="164.5" x2="333.5" y1="240.8281" y2="240.8281"/><text fill="#000000" font-family="sans-serif" font-size="13" lengthAdjust="spacingAndGlyphs" textLength="141" x="178.5" y="233.7622">Submitted notification</text><polygon fill="#A80036" points="322.5,269.9609,332.5,273.9609,322.5,277.9609,326.5,273.9609" style="stroke: #A80036; stroke-width: 1.0;"/><line style="stroke: #A80036; stroke-width: 1.0;" x1="159.5" x2="328.5" y1="273.9609" y2="273.9609"/><text fill="#000000" font-family="sans-serif" font-size="13" lengthAdjust="spacingAndGlyphs" textLength="147" x="168.5" y="266.895">Approve for publication</text><polygon fill="#A80036" points="64,303.0938,54,307.0938,64,311.0938,60,307.0938" style="stroke: #A80036; stroke-width: 1.0;"/><line style="stroke: #A80036; stroke-width: 1.0; stroke-dasharray: 2.0,2.0;" x1="58" x2="333.5" y1="307.0938" y2="307.0938"/><text fill="#000000" font-family="sans-serif" font-size="13" lengthAdjust="spacingAndGlyphs" textLength="135" x="72" y="300.0278">Approved notification</text><path d="M225,320.0938 L225,349.0938 L444,349.0938 L444,330.0938 L434,320.0938 L225,320.0938 " fill="#FBFB77" style="stroke: #A80036; stroke-width: 1.0;"/><path d="M434,320.0938 L434,330.0938 L444,330.0938 L434,320.0938 " fill="#FBFB77" style="stroke: #A80036; stroke-width: 1.0;"/><text fill="#000000" font-family="sans-serif" font-size="13" lengthAdjust="spacingAndGlyphs" textLength="194" x="233" y="339.1606">APPROVED_FOR_PUBLICATION</text><line style="stroke: #A80036; stroke-width: 1.0;" x1="334.5" x2="376.5" y1="379.3594" y2="379.3594"/><line style="stroke: #A80036; stroke-width: 1.0;" x1="376.5" x2="376.5" y1="379.3594" y2="392.3594"/><line style="stroke: #A80036; stroke-width: 1.0;" x1="335.5" x2="376.5" y1="392.3594" y2="392.3594"/><polygon fill="#A80036" points="345.5,388.3594,335.5,392.3594,345.5,396.3594,341.5,392.3594" style="stroke: #A80036; stroke-width: 1.0;"/><text fill="#000000" font-family="sans-serif" font-size="13" lengthAdjust="spacingAndGlyphs" textLength="45" x="343.5" y="372.2935">Publish</text><path d="M285,405.3594 L285,434.3594 L384,434.3594 L384,415.3594 L374,405.3594 L285,405.3594 " fill="#FBFB77" style="stroke: #A80036; stroke-width: 1.0;"/><path d="M374,405.3594 L374,415.3594 L384,415.3594 L374,405.3594 " fill="#FBFB77" style="stroke: #A80036; stroke-width: 1.0;"/><text fill="#000000" font-family="sans-serif" font-size="13" lengthAdjust="spacingAndGlyphs" textLength="74" x="293" y="424.4263">PUBLISHED</text><polygon fill="#A80036" points="64,460.625,54,464.625,64,468.625,60,464.625" style="stroke: #A80036; stroke-width: 1.0;"/><line style="stroke: #A80036; stroke-width: 1.0; stroke-dasharray: 2.0,2.0;" x1="58" x2="333.5" y1="464.625" y2="464.625"/><text fill="#000000" font-family="sans-serif" font-size="13" lengthAdjust="spacingAndGlyphs" textLength="135" x="72" y="457.5591">Published notification</text><polygon fill="#A80036" points="170.5,493.7578,160.5,497.7578,170.5,501.7578,166.5,497.7578" style="stroke: #A80036; stroke-width: 1.0;"/><line style="stroke: #A80036; stroke-width: 1.0; stroke-dasharray: 2.0,2.0;" x1="164.5" x2="333.5" y1="497.7578" y2="497.7578"/><text fill="#000000" font-family="sans-serif" font-size="13" lengthAdjust="spacingAndGlyphs" textLength="135" x="178.5" y="490.6919">Published notification</text><rect fill="#EEEEEE" height="3" style="stroke: #EEEEEE; stroke-width: 1.0;" width="448" x="3" y="528.3242"/><line style="stroke: #000000; stroke-width: 1.0;" x1="3" x2="451" y1="528.3242" y2="528.3242"/><line style="stroke: #000000; stroke-width: 1.0;" x1="3" x2="451" y1="531.3242" y2="531.3242"/><rect fill="#EEEEEE" height="27.1328" style="stroke: #000000; stroke-width: 2.0;" width="199" x="127.5" y="515.7578"/><text fill="#000000" font-family="sans-serif" font-size="13" font-weight="bold" lengthAdjust="spacingAndGlyphs" textLength="176" x="135.5" y="533.8247">Canceled data package</text><polygon fill="#A80036" points="322.5,574.0234,332.5,578.0234,322.5,582.0234,326.5,578.0234" style="stroke: #A80036; stroke-width: 1.0;"/><line style="stroke: #A80036; stroke-width: 1.0;" x1="53" x2="328.5" y1="578.0234" y2="578.0234"/><text fill="#000000" font-family="sans-serif" font-size="13" lengthAdjust="spacingAndGlyphs" textLength="140" x="62" y="570.9575">Submit for publication</text><path d="M223,591.0234 L223,620.0234 L446,620.0234 L446,601.0234 L436,591.0234 L223,591.0234 " fill="#FBFB77" style="stroke: #A80036; stroke-width: 1.0;"/><path d="M436,591.0234 L436,601.0234 L446,601.0234 L436,591.0234 " fill="#FBFB77" style="stroke: #A80036; stroke-width: 1.0;"/><text fill="#000000" font-family="sans-serif" font-size="13" lengthAdjust="spacingAndGlyphs" textLength="198" x="231" y="610.0903">SUBMITTED_FOR_PUBLICATION</text><polygon fill="#A80036" points="170.5,646.2891,160.5,650.2891,170.5,654.2891,166.5,650.2891" style="stroke: #A80036; stroke-width: 1.0;"/><line style="stroke: #A80036; stroke-width: 1.0; stroke-dasharray: 2.0,2.0;" x1="164.5" x2="333.5" y1="650.2891" y2="650.2891"/><text fill="#000000" font-family="sans-serif" font-size="13" lengthAdjust="spacingAndGlyphs" textLength="141" x="178.5" y="643.2231">Submitted notification</text><polygon fill="#A80036" points="322.5,679.4219,332.5,683.4219,322.5,687.4219,326.5,683.4219" style="stroke: #A80036; stroke-width: 1.0;"/><line style="stroke: #A80036; stroke-width: 1.0;" x1="159.5" x2="328.5" y1="683.4219" y2="683.4219"/><text fill="#000000" font-family="sans-serif" font-size="13" lengthAdjust="spacingAndGlyphs" textLength="116" x="168.5" y="676.356">Cancel publication</text><polygon fill="#A80036" points="64,712.5547,54,716.5547,64,720.5547,60,716.5547" style="stroke: #A80036; stroke-width: 1.0;"/><line style="stroke: #A80036; stroke-width: 1.0; stroke-dasharray: 2.0,2.0;" x1="58" x2="333.5" y1="716.5547" y2="716.5547"/><text fill="#000000" font-family="sans-serif" font-size="13" lengthAdjust="spacingAndGlyphs" textLength="133" x="72" y="709.4888">Canceled notification</text><path d="M275,729.5547 L275,758.5547 L394,758.5547 L394,739.5547 L384,729.5547 L275,729.5547 " fill="#FBFB77" style="stroke: #A80036; stroke-width: 1.0;"/><path d="M384,729.5547 L384,739.5547 L394,739.5547 L384,729.5547 " fill="#FBFB77" style="stroke: #A80036; stroke-width: 1.0;"/><text fill="#000000" font-family="sans-serif" font-size="13" lengthAdjust="spacingAndGlyphs" textLength="94" x="283" y="748.6216">UNPUBLISHED</text><!--
@startuml
skinparam padding 2
skinparam shadowing false

actor       Researcher  as researcher
actor       Datamanager as datamanager
participant Yoda        as yoda

== Approved data package ==
researcher   -> yoda        : Submit for publication
note over yoda              : SUBMITTED_FOR_PUBLICATION
yoda        - -> datamanager : Submitted notification
datamanager  -> yoda        : Approve for publication
yoda        - -> researcher  : Approved notification
note over yoda              : APPROVED_FOR_PUBLICATION
yoda         -> yoda        : Publish
note over yoda              : PUBLISHED
yoda        - -> researcher  : Published notification
yoda        - -> datamanager : Published notification
== Canceled data package ==
researcher   -> yoda        : Submit for publication
note over yoda              : SUBMITTED_FOR_PUBLICATION
yoda        - -> datamanager : Submitted notification
datamanager  -> yoda        : Cancel publication
yoda        - -> researcher  : Canceled notification
note over yoda              : UNPUBLISHED
@enduml

PlantUML version 1.2018.13(Mon Nov 26 18:11:51 CET 2018)
(GPL source distribution)
Java Runtime: OpenJDK Runtime Environment
JVM: OpenJDK 64-Bit Server VM
Java Version: 11.0.9.1+1-post-Debian-1deb10u2
Operating System: Linux
OS Version: 5.9.0-0.bpo.5-amd64
Default Encoding: UTF-8
Language: en
Country: US
--></g></svg>