<?xml version="1.0" encoding="UTF-8" standalone="no"?><svg xmlns="http://www.w3.org/2000/svg" xmlns:xlink="http://www.w3.org/1999/xlink" contentScriptType="application/ecmascript" contentStyleType="text/css" height="1891.6667px" preserveAspectRatio="none" style="width:1710px;height:1891px;" version="1.1" viewBox="0 0 1710 1891" width="1710.4167px" zoomAndPan="magnify"><defs/><g><rect fill="#FEFECE" height="1853.0436" rx="26.0417" ry="26.0417" style="stroke: #A80036; stroke-width: 3.125;" width="1672.9167" x="12.5" y="16.6667"/><rect fill="#FFFFFF" height="1775" rx="26.0417" ry="26.0417" style="stroke: #FFFFFF; stroke-width: 2.0833333333333335;" width="1660.4167" x="18.75" y="88.4603"/><line style="stroke: #A80036; stroke-width: 3.125;" x1="12.5" x2="1685.4167" y1="82.2103" y2="82.2103"/><text fill="#000000" font-family="CMU Serif" font-size="31.25" lengthAdjust="spacingAndGlyphs" textLength="181.25" x="758.3333" y="60.257">Vault Space</text><rect fill="#FEFECE" height="131.0872" rx="26.0417" ry="26.0417" style="stroke: #A80036; stroke-width: 3.125;" width="422.9167" x="35.4167" y="273.877"/><line style="stroke: #A80036; stroke-width: 3.125;" x1="35.4167" x2="458.3333" y1="339.4206" y2="339.4206"/><text fill="#000000" font-family="CMU Serif" font-size="31.25" lengthAdjust="spacingAndGlyphs" textLength="193.75" x="150" y="317.4672">INCOMPLETE</text><text fill="#000000" font-family="CMU Serif" font-size="31.25" lengthAdjust="spacingAndGlyphs" textLength="372.9167" x="50" y="383.0109">Incomplete datapackage</text><rect fill="#FEFECE" height="131.0872" rx="26.0417" ry="26.0417" style="stroke: #A80036; stroke-width: 3.125;" width="362.5" x="1115.625" y="273.877"/><line style="stroke: #A80036; stroke-width: 3.125;" x1="1115.625" x2="1478.125" y1="339.4206" y2="339.4206"/><text fill="#000000" font-family="CMU Serif" font-size="31.25" lengthAdjust="spacingAndGlyphs" textLength="164.5833" x="1214.5833" y="317.4672">COMPLETE</text><text fill="#000000" font-family="CMU Serif" font-size="31.25" lengthAdjust="spacingAndGlyphs" textLength="312.5" x="1130.2083" y="383.0109">Legacy datapackage</text><rect fill="#FEFECE" height="131.0872" rx="26.0417" ry="26.0417" style="stroke: #A80036; stroke-width: 3.125;" width="439.5833" x="495.8333" y="273.877"/><line style="stroke: #A80036; stroke-width: 3.125;" x1="495.8333" x2="935.4167" y1="339.4206" y2="339.4206"/><text fill="#000000" font-family="CMU Serif" font-size="31.25" lengthAdjust="spacingAndGlyphs" textLength="216.6667" x="607.2917" y="317.4672">UNPUBLISHED</text><text fill="#000000" font-family="CMU Serif" font-size="31.25" lengthAdjust="spacingAndGlyphs" textLength="389.5833" x="510.4167" y="383.0109">Unpublished datapackage</text><rect fill="#FEFECE" height="131.0872" rx="26.0417" ry="26.0417" style="stroke: #A80036; stroke-width: 3.125;" width="525" x="703.125" y="528.0436"/><line style="stroke: #A80036; stroke-width: 3.125;" x1="703.125" x2="1228.125" y1="593.5872" y2="593.5872"/><text fill="#000000" font-family="CMU Serif" font-size="31.25" lengthAdjust="spacingAndGlyphs" textLength="475" x="728.125" y="571.6339">SUBMITTED_FOR_PUBLICATION</text><text fill="#000000" font-family="CMU Serif" font-size="31.25" lengthAdjust="spacingAndGlyphs" textLength="381.25" x="717.7083" y="637.1775">Submitted for publication</text><rect fill="#FEFECE" height="131.0872" rx="26.0417" ry="26.0417" style="stroke: #A80036; stroke-width: 3.125;" width="514.5833" x="708.3333" y="782.2103"/><line style="stroke: #A80036; stroke-width: 3.125;" x1="708.3333" x2="1222.9167" y1="847.7539" y2="847.7539"/><text fill="#000000" font-family="CMU Serif" font-size="31.25" lengthAdjust="spacingAndGlyphs" textLength="464.5833" x="733.3333" y="825.8006">APPROVED_FOR_PUBLICATION</text><text fill="#000000" font-family="CMU Serif" font-size="31.25" lengthAdjust="spacingAndGlyphs" textLength="289.5833" x="722.9167" y="891.3442">Publication pending</text><rect fill="#FEFECE" height="131.0872" rx="26.0417" ry="26.0417" style="stroke: #A80036; stroke-width: 3.125;" width="220.8333" x="855.2083" y="990.5436"/><line style="stroke: #A80036; stroke-width: 3.125;" x1="855.2083" x2="1076.0417" y1="1056.0872" y2="1056.0872"/><text fill="#000000" font-family="CMU Serif" font-size="31.25" lengthAdjust="spacingAndGlyphs" textLength="170.8333" x="880.2083" y="1034.1339">PUBLISHED</text><text fill="#000000" font-family="CMU Serif" font-size="31.25" lengthAdjust="spacingAndGlyphs" textLength="141.6667" x="869.7917" y="1099.6775">Published</text><rect fill="#FEFECE" height="131.0872" rx="26.0417" ry="26.0417" style="stroke: #A80036; stroke-width: 3.125;" width="445.8333" x="565.625" y="1244.7103"/><line style="stroke: #A80036; stroke-width: 3.125;" x1="565.625" x2="1011.4583" y1="1310.2539" y2="1310.2539"/><text fill="#000000" font-family="CMU Serif" font-size="31.25" lengthAdjust="spacingAndGlyphs" textLength="395.8333" x="590.625" y="1288.3006">PENDING_DEPUBLICATION</text><text fill="#000000" font-family="CMU Serif" font-size="31.25" lengthAdjust="spacingAndGlyphs" textLength="331.25" x="580.2083" y="1353.8442">Depublication pending</text><rect fill="#FEFECE" height="131.0872" rx="26.0417" ry="26.0417" style="stroke: #A80036; stroke-width: 3.125;" width="262.5" x="657.2917" y="1453.0436"/><line style="stroke: #A80036; stroke-width: 3.125;" x1="657.2917" x2="919.7917" y1="1518.5872" y2="1518.5872"/><text fill="#000000" font-family="CMU Serif" font-size="31.25" lengthAdjust="spacingAndGlyphs" textLength="212.5" x="682.2917" y="1496.6339">DEPUBLISHED</text><text fill="#000000" font-family="CMU Serif" font-size="31.25" lengthAdjust="spacingAndGlyphs" textLength="183.3333" x="671.875" y="1562.1775">Depublished</text><rect fill="#FEFECE" height="131.0872" rx="26.0417" ry="26.0417" style="stroke: #A80036; stroke-width: 3.125;" width="443.75" x="745.8333" y="1707.2103"/><line style="stroke: #A80036; stroke-width: 3.125;" x1="745.8333" x2="1189.5833" y1="1772.7539" y2="1772.7539"/><text fill="#000000" font-family="CMU Serif" font-size="31.25" lengthAdjust="spacingAndGlyphs" textLength="393.75" x="770.8333" y="1750.8006">PENDING_REPUBLICATION</text><text fill="#000000" font-family="CMU Serif" font-size="31.25" lengthAdjust="spacingAndGlyphs" textLength="329.1667" x="760.4167" y="1816.3442">Republication pending</text><ellipse cx="430.2083" cy="130.127" fill="#000000" rx="20.8333" ry="20.8333" style="stroke: none; stroke-width: 2.0833333333333335;"/><!--link *start*VaultSpace to UNPUBLISHED--><path d="M451.1433,131.8436 C488.5435,135.8582 567.7817,148.7615 619.7917,188.4603 C645.7408,208.267 666.5377,237.274 682.0383,264.5865 " fill="none" id="*start*VaultSpace-UNPUBLISHED" style="stroke: #A80036; stroke-width: 2.0833333333333335;"/><polygon fill="#A80036" points="687.0919,273.7682,685.3511,253.3237,682.0689,264.6426,670.7501,261.3604,687.0919,273.7682" style="stroke: #A80036; stroke-width: 2.0833333333333335;"/><text fill="#000000" font-family="CMU Serif" font-size="31.25" lengthAdjust="spacingAndGlyphs" textLength="308.3333" x="669.7917" y="223.7172">Create datapackage</text><!--link *start*VaultSpace to INCOMPLETE--><path d="M409.436,133.9638 C380.6963,140.3272 328.9627,155.7524 298.9583,188.4603 C280.0877,209.0313 268.0046,236.7715 260.289,262.8651 " fill="none" id="*start*VaultSpace-INCOMPLETE" style="stroke: #A80036; stroke-width: 2.0833333333333335;"/><polygon fill="#A80036" points="257.4417,273.1486,270.4763,257.3024,260.2214,263.1097,254.4141,252.8548,257.4417,273.1486" style="stroke: #A80036; stroke-width: 2.0833333333333335;"/><text fill="#000000" font-family="CMU Serif" font-size="31.25" lengthAdjust="spacingAndGlyphs" textLength="308.3333" x="305.2083" y="223.7172">Create datapackage</text><!--link UNPUBLISHED to SUBMITTED_FOR_PUBLICATION--><path d="M601.6085,405.6378 C571.824,431.2582 553.6094,461.4009 576.0417,490.5436 C593.3173,512.9872 638.6306,531.549 692.5198,546.4401 " fill="none" id="UNPUBLISHED-SUBMITTED_FOR_PUBLICATION" style="stroke: #A80036; stroke-width: 2.0833333333333335;"/><polygon fill="#A80036" points="702.6771,549.1778,686.7424,536.2514,692.6195,546.4665,682.4043,552.3436,702.6771,549.1778" style="stroke: #A80036; stroke-width: 2.0833333333333335;"/><text fill="#000000" font-family="CMU Serif" font-size="31.25" lengthAdjust="spacingAndGlyphs" textLength="331.25" x="582.2917" y="477.8839">Submit for publication</text><!--link COMPLETE to SUBMITTED_FOR_PUBLICATION--><path d="M1284.159,405.7613 C1275.5848,434.9757 1261.4831,467.7686 1238.5417,490.5436 C1226.6346,502.3642 1213.2396,512.8526 1198.9408,522.1553 " fill="none" id="COMPLETE-SUBMITTED_FOR_PUBLICATION" style="stroke: #A80036; stroke-width: 2.0833333333333335;"/><polygon fill="#A80036" points="1189.9265,527.7957,1210.2416,524.9147,1198.757,522.2705,1201.4013,510.7858,1189.9265,527.7957" style="stroke: #A80036; stroke-width: 2.0833333333333335;"/><text fill="#000000" font-family="CMU Serif" font-size="31.25" lengthAdjust="spacingAndGlyphs" textLength="331.25" x="1278.125" y="477.8839">Submit for publication</text><!--link SUBMITTED_FOR_PUBLICATION to APPROVED_FOR_PUBLICATION--><path d="M965.625,659.7845 C965.625,693.9086 965.625,735.7186 965.625,771.243 " fill="none" id="SUBMITTED_FOR_PUBLICATION-APPROVED_FOR_PUBLICATION" style="stroke: #A80036; stroke-width: 2.0833333333333335;"/><polygon fill="#A80036" points="965.625,782.0505,973.9583,763.3005,965.625,771.6338,957.2917,763.3005,965.625,782.0505" style="stroke: #A80036; stroke-width: 2.0833333333333335;"/><text fill="#000000" font-family="CMU Serif" font-size="31.25" lengthAdjust="spacingAndGlyphs" textLength="347.9167" x="971.875" y="732.0506">Approve for publication</text><!--link SUBMITTED_FOR_PUBLICATION to UNPUBLISHED--><path d="M957.5144,527.883 C951.1763,499.1115 939.8892,466.5436 919.7917,442.627 C910.2433,431.2642 899.1315,421.0213 887.1156,411.8132 " fill="none" id="SUBMITTED_FOR_PUBLICATION-UNPUBLISHED" style="stroke: #A80036; stroke-width: 2.0833333333333335;"/><polygon fill="#A80036" points="878.6608,405.6028,888.8385,423.4191,887.0559,411.7696,898.7054,409.987,878.6608,405.6028" style="stroke: #A80036; stroke-width: 2.0833333333333335;"/><text fill="#000000" font-family="CMU Serif" font-size="31.25" lengthAdjust="spacingAndGlyphs" textLength="270.8333" x="953.125" y="477.8839">Cancel publication</text><!--link APPROVED_FOR_PUBLICATION to PUBLISHED--><path d="M965.625,913.7532 C965.625,934.6522 965.625,957.9363 965.625,979.5222 " fill="none" id="APPROVED_FOR_PUBLICATION-PUBLISHED" style="stroke: #A80036; stroke-width: 2.0833333333333335;"/><polygon fill="#A80036" points="965.625,989.9645,973.9583,971.2145,965.625,979.5478,957.2917,971.2145,965.625,989.9645" style="stroke: #A80036; stroke-width: 2.0833333333333335;"/><!--link PUBLISHED to PENDING_DEPUBLICATION--><path d="M854.3183,1097.6434 C828.1983,1112.9001 803.6127,1133.0765 788.5417,1159.2936 C775.8488,1181.3738 772.7871,1208.4409 773.8754,1233.5324 " fill="none" id="PUBLISHED-PENDING_DEPUBLICATION" style="stroke: #A80036; stroke-width: 2.0833333333333335;"/><polygon fill="#A80036" points="774.5802,1244.1447,781.6524,1224.8835,773.8897,1233.7509,765.0223,1225.9883,774.5802,1244.1447" style="stroke: #A80036; stroke-width: 2.0833333333333335;"/><text fill="#000000" font-family="CMU Serif" font-size="31.25" lengthAdjust="spacingAndGlyphs" textLength="316.6667" x="794.7917" y="1194.5506">Depublish publication</text><!--link PENDING_DEPUBLICATION to DEPUBLISHED--><path d="M788.5417,1376.2532 C788.5417,1397.1522 788.5417,1420.4363 788.5417,1442.0222 " fill="none" id="PENDING_DEPUBLICATION-DEPUBLISHED" style="stroke: #A80036; stroke-width: 2.0833333333333335;"/><polygon fill="#A80036" points="788.5417,1452.4645,796.875,1433.7145,788.5417,1442.0478,780.2083,1433.7145,788.5417,1452.4645" style="stroke: #A80036; stroke-width: 2.0833333333333335;"/><!--link DEPUBLISHED to PENDING_REPUBLICATION--><path d="M775.6596,1584.9538 C773.6021,1612.8392 775.9438,1644.574 790.625,1669.7103 C797.0733,1680.7505 805.2008,1690.7234 814.4092,1699.7109 " fill="none" id="DEPUBLISHED-PENDING_REPUBLICATION" style="stroke: #A80036; stroke-width: 2.0833333333333335;"/><polygon fill="#A80036" points="822.3852,1707.0305,814.2049,1688.2132,814.7104,1699.9875,802.9361,1700.493,822.3852,1707.0305" style="stroke: #A80036; stroke-width: 2.0833333333333335;"/><text fill="#000000" font-family="CMU Serif" font-size="31.25" lengthAdjust="spacingAndGlyphs" textLength="314.5833" x="796.875" y="1657.0506">Republish publication</text><!--link PENDING_REPUBLICATION to PUBLISHED--><path d="M1088.4875,1707.1409 C1100.1473,1696.1503 1110.3521,1683.6947 1117.7083,1669.7103 C1223.319,1468.9413 1223.9631,1359.7224 1117.7083,1159.2936 C1109.5415,1143.8886 1097.9296,1130.3609 1084.7158,1118.6109 " fill="none" id="PENDING_REPUBLICATION-PUBLISHED" style="stroke: #A80036; stroke-width: 2.0833333333333335;"/><polygon fill="#A80036" points="1076.2979,1111.5238,1085.2744,1129.9746,1084.2665,1118.2326,1096.0085,1117.2248,1076.2979,1111.5238" style="stroke: #A80036; stroke-width: 2.0833333333333335;"/><!--
@startuml

skinparam defaultFontName CMU Serif
skinparam defaultFontSize 15
skinparam padding 2
skinparam shadowing false
skinparam dpi 200

state VaultSpace as "Vault Space" {
  INCOMPLETE : Incomplete datapackage
  COMPLETE : Legacy datapackage
  UNPUBLISHED : Unpublished datapackage
  SUBMITTED_FOR_PUBLICATION : Submitted for publication
  APPROVED_FOR_PUBLICATION : Publication pending
  PUBLISHED : Published
  PENDING_DEPUBLICATION : Depublication pending
  DEPUBLISHED : Depublished
  PENDING_REPUBLICATION : Republication pending

  [*] - -> UNPUBLISHED : Create datapackage
  [*] - -> INCOMPLETE : Create datapackage
  UNPUBLISHED - -> SUBMITTED_FOR_PUBLICATION : Submit for publication
  COMPLETE - -> SUBMITTED_FOR_PUBLICATION : Submit for publication
  SUBMITTED_FOR_PUBLICATION - -> APPROVED_FOR_PUBLICATION : Approve for publication
  SUBMITTED_FOR_PUBLICATION - -> UNPUBLISHED : Cancel publication
  APPROVED_FOR_PUBLICATION - -> PUBLISHED
  PUBLISHED - -> PENDING_DEPUBLICATION : Depublish publication
  PENDING_DEPUBLICATION - -> DEPUBLISHED
  DEPUBLISHED - -> PENDING_REPUBLICATION  : Republish publication
  PENDING_REPUBLICATION - -> PUBLISHED
}

@enduml

PlantUML version 1.2018.13(Mon Nov 26 18:11:51 CET 2018)
(GPL source distribution)
Java Runtime: OpenJDK Runtime Environment
JVM: OpenJDK 64-Bit Server VM
Java Version: 11.0.9.1+1-post-Debian-1deb10u2
Operating System: Linux
OS Version: 5.9.0-0.bpo.5-amd64
Default Encoding: UTF-8
Language: en
Country: US
--></g></svg>