<?xml version="1.0" encoding="UTF-8" standalone="no"?><svg xmlns="http://www.w3.org/2000/svg" xmlns:xlink="http://www.w3.org/1999/xlink" contentScriptType="application/ecmascript" contentStyleType="text/css" height="1385.4167px" preserveAspectRatio="none" style="width:633px;height:1385px;" version="1.1" viewBox="0 0 633 1385" width="633.3333px" zoomAndPan="magnify"><defs/><g><rect fill="#FEFECE" height="1346.7936" rx="26.0417" ry="26.0417" style="stroke: #A80036; stroke-width: 3.125;" width="595.8333" x="12.5" y="16.6667"/><rect fill="#FFFFFF" height="1268.75" rx="26.0417" ry="26.0417" style="stroke: #FFFFFF; stroke-width: 2.0833333333333335;" width="583.3333" x="18.75" y="88.4603"/><line style="stroke: #A80036; stroke-width: 3.125;" x1="12.5" x2="608.3333" y1="82.2103" y2="82.2103"/><text fill="#000000" font-family="CMU Serif" font-size="31.25" lengthAdjust="spacingAndGlyphs" textLength="218.75" x="201.0417" y="60.257">Deposit Space</text><rect fill="#FEFECE" height="131.0872" rx="26.0417" ry="26.0417" style="stroke: #A80036; stroke-width: 3.125;" width="187.5" x="113.5417" y="273.877"/><line style="stroke: #A80036; stroke-width: 3.125;" x1="113.5417" x2="301.0417" y1="339.4206" y2="339.4206"/><text fill="#000000" font-family="CMU Serif" font-size="31.25" lengthAdjust="spacingAndGlyphs" textLength="122.9167" x="145.8333" y="317.4672">FOLDER</text><text fill="#000000" font-family="CMU Serif" font-size="31.25" lengthAdjust="spacingAndGlyphs" textLength="137.5" x="128.125" y="383.0109">Unlocked</text><rect fill="#FEFECE" height="131.0872" rx="26.0417" ry="26.0417" style="stroke: #A80036; stroke-width: 3.125;" width="343.75" x="35.4167" y="528.0436"/><line style="stroke: #A80036; stroke-width: 3.125;" x1="35.4167" x2="379.1667" y1="593.5872" y2="593.5872"/><text fill="#000000" font-family="CMU Serif" font-size="31.25" lengthAdjust="spacingAndGlyphs" textLength="177.0833" x="118.75" y="571.6339">SUBMITTED</text><text fill="#000000" font-family="CMU Serif" font-size="31.25" lengthAdjust="spacingAndGlyphs" textLength="293.75" x="50" y="637.1775">Submitted for vault</text><rect fill="#FEFECE" height="131.0872" rx="26.0417" ry="26.0417" style="stroke: #A80036; stroke-width: 3.125;" width="327.0833" x="43.75" y="782.2103"/><line style="stroke: #A80036; stroke-width: 3.125;" x1="43.75" x2="370.8333" y1="847.7539" y2="847.7539"/><text fill="#000000" font-family="CMU Serif" font-size="31.25" lengthAdjust="spacingAndGlyphs" textLength="160.4167" x="127.0833" y="825.8006">ACCEPTED</text><text fill="#000000" font-family="CMU Serif" font-size="31.25" lengthAdjust="spacingAndGlyphs" textLength="277.0833" x="58.3333" y="891.3442">Accepted for vault</text><rect fill="#FEFECE" height="131.0872" rx="26.0417" ry="26.0417" style="stroke: #A80036; stroke-width: 3.125;" width="293.75" x="60.4167" y="1036.377"/><line style="stroke: #A80036; stroke-width: 3.125;" x1="60.4167" x2="354.1667" y1="1101.9206" y2="1101.9206"/><text fill="#000000" font-family="CMU Serif" font-size="31.25" lengthAdjust="spacingAndGlyphs" textLength="145.8333" x="134.375" y="1079.9672">SECURED</text><text fill="#000000" font-family="CMU Serif" font-size="31.25" lengthAdjust="spacingAndGlyphs" textLength="243.75" x="75" y="1145.5109">Secured in vault</text><ellipse cx="207.2917" cy="130.127" fill="#000000" rx="20.8333" ry="20.8333" style="stroke: none; stroke-width: 2.0833333333333335;"/><ellipse cx="207.2917" cy="1311.377" fill="none" rx="20.8333" ry="20.8333" style="stroke: #000000; stroke-width: 2.0833333333333335;"/><ellipse cx="208.3333" cy="1312.4186" fill="#000000" rx="12.5" ry="12.5" style="stroke: none; stroke-width: 2.0833333333333335;"/><!--link *start*DepositSpace to FOLDER--><path d="M207.2917,150.968 C207.2917,176.8738 207.2917,222.5482 207.2917,262.4522 " fill="none" id="*start*DepositSpace-FOLDER" style="stroke: #A80036; stroke-width: 2.0833333333333335;"/><polygon fill="#A80036" points="207.2917,273.5328,215.625,254.7828,207.2917,263.1161,198.9583,254.7828,207.2917,273.5328" style="stroke: #A80036; stroke-width: 2.0833333333333335;"/><text fill="#000000" font-family="CMU Serif" font-size="31.25" lengthAdjust="spacingAndGlyphs" textLength="318.75" x="213.5417" y="223.7172">Create deposit folder</text><!--link FOLDER to SUBMITTED--><path d="M207.2917,405.6178 C207.2917,439.742 207.2917,481.552 207.2917,517.0763 " fill="none" id="FOLDER-SUBMITTED" style="stroke: #A80036; stroke-width: 2.0833333333333335;"/><polygon fill="#A80036" points="207.2917,527.8838,215.625,509.1338,207.2917,517.4672,198.9583,509.1338,207.2917,527.8838" style="stroke: #A80036; stroke-width: 2.0833333333333335;"/><text fill="#000000" font-family="CMU Serif" font-size="31.25" lengthAdjust="spacingAndGlyphs" textLength="108.3333" x="213.5417" y="477.8839">Submit</text><!--link SUBMITTED to ACCEPTED--><path d="M207.2917,659.7845 C207.2917,693.9086 207.2917,735.7186 207.2917,771.243 " fill="none" id="SUBMITTED-ACCEPTED" style="stroke: #A80036; stroke-width: 2.0833333333333335;"/><polygon fill="#A80036" points="207.2917,782.0505,215.625,763.3005,207.2917,771.6338,198.9583,763.3005,207.2917,782.0505" style="stroke: #A80036; stroke-width: 2.0833333333333335;"/><text fill="#000000" font-family="CMU Serif" font-size="31.25" lengthAdjust="spacingAndGlyphs" textLength="104.1667" x="213.5417" y="732.0506">Accept</text><!--link ACCEPTED to SECURED--><path d="M207.2917,913.9511 C207.2917,948.0753 207.2917,989.8853 207.2917,1025.4097 " fill="none" id="ACCEPTED-SECURED" style="stroke: #A80036; stroke-width: 2.0833333333333335;"/><polygon fill="#A80036" points="207.2917,1036.2172,215.625,1017.4672,207.2917,1025.8005,198.9583,1017.4672,207.2917,1036.2172" style="stroke: #A80036; stroke-width: 2.0833333333333335;"/><text fill="#000000" font-family="CMU Serif" font-size="31.25" lengthAdjust="spacingAndGlyphs" textLength="106.25" x="213.5417" y="986.2172">Secure</text><!--link SECURED to *end*DepositSpace--><path d="M207.2917,1167.6751 C207.2917,1204.9426 207.2917,1249.9074 207.2917,1279.498 " fill="none" id="SECURED-*end*DepositSpace" style="stroke: #A80036; stroke-width: 2.0833333333333335;"/><polygon fill="#A80036" points="207.2917,1290.4151,215.625,1271.6651,207.2917,1279.9984,198.9583,1271.6651,207.2917,1290.4151" style="stroke: #A80036; stroke-width: 2.0833333333333335;"/><text fill="#000000" font-family="CMU Serif" font-size="31.25" lengthAdjust="spacingAndGlyphs" textLength="314.5833" x="213.5417" y="1240.3839">Delete deposit folder</text><!--
@startuml

skinparam defaultFontName CMU Serif
skinparam defaultFontSize 15
skinparam padding 2
skinparam shadowing false
skinparam dpi 200

state DepositSpace as "Deposit Space" {
  FOLDER : Unlocked
  SUBMITTED : Submitted for vault
  ACCEPTED : Accepted for vault
  SECURED : Secured in vault

  [*] - -> FOLDER : Create deposit folder
  FOLDER - -> SUBMITTED : Submit
  SUBMITTED - -> ACCEPTED : Accept
  ACCEPTED - -> SECURED : Secure
  SECURED - -> [*] : Delete deposit folder
}

@enduml

PlantUML version 1.2018.13(Mon Nov 26 18:11:51 CET 2018)
(GPL source distribution)
Java Runtime: OpenJDK Runtime Environment
JVM: OpenJDK 64-Bit Server VM
Java Version: 11.0.11+9-post-Debian-1deb10u1
Operating System: Linux
OS Version: 5.9.0-0.bpo.5-amd64
Default Encoding: UTF-8
Language: en
Country: US
--></g></svg>