<?xml version="1.0" encoding="UTF-8" standalone="no"?><svg xmlns="http://www.w3.org/2000/svg" xmlns:xlink="http://www.w3.org/1999/xlink" contentScriptType="application/ecmascript" contentStyleType="text/css" height="553px" preserveAspectRatio="none" style="width:444px;height:553px;" version="1.1" viewBox="0 0 444 553" width="444px" zoomAndPan="magnify"><defs/><g><line style="stroke: #A80036; stroke-width: 1.0; stroke-dasharray: 5.0,5.0;" x1="53" x2="53" y1="86.2969" y2="462.4922"/><line style="stroke: #A80036; stroke-width: 1.0; stroke-dasharray: 5.0,5.0;" x1="159" x2="159" y1="86.2969" y2="462.4922"/><line style="stroke: #A80036; stroke-width: 1.0; stroke-dasharray: 5.0,5.0;" x1="314" x2="314" y1="86.2969" y2="462.4922"/><text fill="#000000" font-family="sans-serif" font-size="14" lengthAdjust="spacingAndGlyphs" textLength="80" x="10" y="80.9951">Researcher</text><ellipse cx="53" cy="13" fill="#FEFECE" rx="8" ry="8" style="stroke: #A80036; stroke-width: 2.0;"/><path d="M53,21 L53,48 M40,29 L66,29 M53,48 L40,63 M53,48 L66,63 " fill="none" style="stroke: #A80036; stroke-width: 2.0;"/><text fill="#000000" font-family="sans-serif" font-size="14" lengthAdjust="spacingAndGlyphs" textLength="80" x="10" y="476.4873">Researcher</text><ellipse cx="53" cy="491.7891" fill="#FEFECE" rx="8" ry="8" style="stroke: #A80036; stroke-width: 2.0;"/><path d="M53,499.7891 L53,526.7891 M40,507.7891 L66,507.7891 M53,526.7891 L40,541.7891 M53,526.7891 L66,541.7891 " fill="none" style="stroke: #A80036; stroke-width: 2.0;"/><text fill="#000000" font-family="sans-serif" font-size="14" lengthAdjust="spacingAndGlyphs" textLength="93" x="110" y="80.9951">Datamanager</text><ellipse cx="159.5" cy="13" fill="#FEFECE" rx="8" ry="8" style="stroke: #A80036; stroke-width: 2.0;"/><path d="M159.5,21 L159.5,48 M146.5,29 L172.5,29 M159.5,48 L146.5,63 M159.5,48 L172.5,63 " fill="none" style="stroke: #A80036; stroke-width: 2.0;"/><text fill="#000000" font-family="sans-serif" font-size="14" lengthAdjust="spacingAndGlyphs" textLength="93" x="110" y="476.4873">Datamanager</text><ellipse cx="159.5" cy="491.7891" fill="#FEFECE" rx="8" ry="8" style="stroke: #A80036; stroke-width: 2.0;"/><path d="M159.5,499.7891 L159.5,526.7891 M146.5,507.7891 L172.5,507.7891 M159.5,526.7891 L146.5,541.7891 M159.5,526.7891 L172.5,541.7891 " fill="none" style="stroke: #A80036; stroke-width: 2.0;"/><rect fill="#FEFECE" height="34.2969" style="stroke: #A80036; stroke-width: 1.5;" width="53" x="288" y="51"/><text fill="#000000" font-family="sans-serif" font-size="14" lengthAdjust="spacingAndGlyphs" textLength="35" x="297" y="72.9951">Yoda</text><rect fill="#FEFECE" height="34.2969" style="stroke: #A80036; stroke-width: 1.5;" width="53" x="288" y="461.4922"/><text fill="#000000" font-family="sans-serif" font-size="14" lengthAdjust="spacingAndGlyphs" textLength="35" x="297" y="483.4873">Yoda</text><rect fill="#EEEEEE" height="3" style="stroke: #EEEEEE; stroke-width: 1.0;" width="429.5" x="3" y="118.8633"/><line style="stroke: #000000; stroke-width: 1.0;" x1="3" x2="432.5" y1="118.8633" y2="118.8633"/><line style="stroke: #000000; stroke-width: 1.0;" x1="3" x2="432.5" y1="121.8633" y2="121.8633"/><rect fill="#EEEEEE" height="27.1328" style="stroke: #000000; stroke-width: 2.0;" width="142" x="146.75" y="106.2969"/><text fill="#000000" font-family="sans-serif" font-size="13" font-weight="bold" lengthAdjust="spacingAndGlyphs" textLength="119" x="154.75" y="124.3638">Accepted folder</text><polygon fill="#A80036" points="302.5,164.5625,312.5,168.5625,302.5,172.5625,306.5,168.5625" style="stroke: #A80036; stroke-width: 1.0;"/><line style="stroke: #A80036; stroke-width: 1.0;" x1="53" x2="308.5" y1="168.5625" y2="168.5625"/><text fill="#000000" font-family="sans-serif" font-size="13" lengthAdjust="spacingAndGlyphs" textLength="102" x="62" y="161.4966">Submit for vault</text><path d="M265,181.5625 L265,210.5625 L364,210.5625 L364,191.5625 L354,181.5625 L265,181.5625 " fill="#FBFB77" style="stroke: #A80036; stroke-width: 1.0;"/><path d="M354,181.5625 L354,191.5625 L364,191.5625 L354,181.5625 " fill="#FBFB77" style="stroke: #A80036; stroke-width: 1.0;"/><text fill="#000000" font-family="sans-serif" font-size="13" lengthAdjust="spacingAndGlyphs" textLength="74" x="273" y="200.6294">SUBMITTED</text><line style="stroke: #A80036; stroke-width: 1.0;" x1="314.5" x2="356.5" y1="240.8281" y2="240.8281"/><line style="stroke: #A80036; stroke-width: 1.0;" x1="356.5" x2="356.5" y1="240.8281" y2="253.8281"/><line style="stroke: #A80036; stroke-width: 1.0;" x1="315.5" x2="356.5" y1="253.8281" y2="253.8281"/><polygon fill="#A80036" points="325.5,249.8281,315.5,253.8281,325.5,257.8281,321.5,253.8281" style="stroke: #A80036; stroke-width: 1.0;"/><text fill="#000000" font-family="sans-serif" font-size="13" lengthAdjust="spacingAndGlyphs" textLength="100" x="323.5" y="233.7622">Accept for vault</text><path d="M263,266.8281 L263,295.8281 L365,295.8281 L365,276.8281 L355,266.8281 L263,266.8281 " fill="#FBFB77" style="stroke: #A80036; stroke-width: 1.0;"/><path d="M355,266.8281 L355,276.8281 L365,276.8281 L355,266.8281 " fill="#FBFB77" style="stroke: #A80036; stroke-width: 1.0;"/><text fill="#000000" font-family="sans-serif" font-size="13" lengthAdjust="spacingAndGlyphs" textLength="77" x="271" y="285.895">ACCCEPTED</text><line style="stroke: #A80036; stroke-width: 1.0;" x1="314.5" x2="356.5" y1="326.0938" y2="326.0938"/><line style="stroke: #A80036; stroke-width: 1.0;" x1="356.5" x2="356.5" y1="326.0938" y2="339.0938"/><line style="stroke: #A80036; stroke-width: 1.0;" x1="315.5" x2="356.5" y1="339.0938" y2="339.0938"/><polygon fill="#A80036" points="325.5,335.0938,315.5,339.0938,325.5,343.0938,321.5,339.0938" style="stroke: #A80036; stroke-width: 1.0;"/><text fill="#000000" font-family="sans-serif" font-size="13" lengthAdjust="spacingAndGlyphs" textLength="95" x="323.5" y="319.0278">Secure in vault</text><path d="M271,352.0938 L271,381.0938 L358,381.0938 L358,362.0938 L348,352.0938 L271,352.0938 " fill="#FBFB77" style="stroke: #A80036; stroke-width: 1.0;"/><path d="M348,352.0938 L348,362.0938 L358,362.0938 L348,352.0938 " fill="#FBFB77" style="stroke: #A80036; stroke-width: 1.0;"/><text fill="#000000" font-family="sans-serif" font-size="13" lengthAdjust="spacingAndGlyphs" textLength="62" x="279" y="371.1606">SECURED</text><polygon fill="#A80036" points="64,407.3594,54,411.3594,64,415.3594,60,411.3594" style="stroke: #A80036; stroke-width: 1.0;"/><line style="stroke: #A80036; stroke-width: 1.0; stroke-dasharray: 2.0,2.0;" x1="58" x2="313.5" y1="411.3594" y2="411.3594"/><text fill="#000000" font-family="sans-serif" font-size="13" lengthAdjust="spacingAndGlyphs" textLength="127" x="72" y="404.2935">Secured notification</text><polygon fill="#A80036" points="170.5,440.4922,160.5,444.4922,170.5,448.4922,166.5,444.4922" style="stroke: #A80036; stroke-width: 1.0;"/><line style="stroke: #A80036; stroke-width: 1.0; stroke-dasharray: 2.0,2.0;" x1="164.5" x2="313.5" y1="444.4922" y2="444.4922"/><text fill="#000000" font-family="sans-serif" font-size="13" lengthAdjust="spacingAndGlyphs" textLength="127" x="178.5" y="437.4263">Secured notification</text><!--
@startuml
skinparam padding 2
skinparam shadowing false

actor       Researcher  as researcher
actor       Datamanager as datamanager
participant Yoda        as yoda

== Accepted folder ==
researcher   -> yoda        : Submit for vault
note over yoda              : SUBMITTED
yoda         -> yoda        : Accept for vault
note over yoda              : ACCCEPTED
yoda         -> yoda        : Secure in vault
note over yoda              : SECURED
yoda        - -> researcher  : Secured notification
yoda        - -> datamanager : Secured notification
@enduml

PlantUML version 1.2018.13(Mon Nov 26 18:11:51 CET 2018)
(GPL source distribution)
Java Runtime: OpenJDK Runtime Environment
JVM: OpenJDK 64-Bit Server VM
Java Version: 11.0.11+9-post-Debian-1deb10u1
Operating System: Linux
OS Version: 5.9.0-0.bpo.5-amd64
Default Encoding: UTF-8
Language: en
Country: US
--></g></svg>