<?xml version="1.0" encoding="UTF-8" standalone="no"?><svg xmlns="http://www.w3.org/2000/svg" xmlns:xlink="http://www.w3.org/1999/xlink" contentScriptType="application/ecmascript" contentStyleType="text/css" height="1639.5833px" preserveAspectRatio="none" style="width:1112px;height:1639px;" version="1.1" viewBox="0 0 1112 1639" width="1112.5px" zoomAndPan="magnify"><defs/><g><rect fill="#FEFECE" height="1600.9603" rx="26.0417" ry="26.0417" style="stroke: #A80036; stroke-width: 3.125;" width="1075" x="12.5" y="16.6667"/><rect fill="#FFFFFF" height="1522.9167" rx="26.0417" ry="26.0417" style="stroke: #FFFFFF; stroke-width: 2.0833333333333335;" width="1062.5" x="18.75" y="88.4603"/><line style="stroke: #A80036; stroke-width: 3.125;" x1="12.5" x2="1087.5" y1="82.2103" y2="82.2103"/><text fill="#000000" font-family="CMU Serif" font-size="31.25" lengthAdjust="spacingAndGlyphs" textLength="245.8333" x="427.0833" y="60.257">Research Space</text><rect fill="#FEFECE" height="131.0872" rx="26.0417" ry="26.0417" style="stroke: #A80036; stroke-width: 3.125;" width="187.5" x="249.1175" y="273.877"/><line style="stroke: #A80036; stroke-width: 3.125;" x1="249.1175" x2="436.6175" y1="339.4206" y2="339.4206"/><text fill="#000000" font-family="CMU Serif" font-size="31.25" lengthAdjust="spacingAndGlyphs" textLength="122.9167" x="281.4092" y="317.4672">FOLDER</text><text fill="#000000" font-family="CMU Serif" font-size="31.25" lengthAdjust="spacingAndGlyphs" textLength="137.5" x="263.7008" y="383.0109">Unlocked</text><rect fill="#FEFECE" height="131.0872" rx="26.0417" ry="26.0417" style="stroke: #A80036; stroke-width: 3.125;" width="175" x="69.9508" y="528.0436"/><line style="stroke: #A80036; stroke-width: 3.125;" x1="69.9508" x2="244.9508" y1="593.5872" y2="593.5872"/><text fill="#000000" font-family="CMU Serif" font-size="31.25" lengthAdjust="spacingAndGlyphs" textLength="125" x="94.9508" y="571.6339">LOCKED</text><text fill="#000000" font-family="CMU Serif" font-size="31.25" lengthAdjust="spacingAndGlyphs" textLength="106.25" x="84.5342" y="637.1775">Locked</text><rect fill="#FEFECE" height="131.0872" rx="26.0417" ry="26.0417" style="stroke: #A80036; stroke-width: 3.125;" width="343.75" x="277.2425" y="782.2103"/><line style="stroke: #A80036; stroke-width: 3.125;" x1="277.2425" x2="620.9925" y1="847.7539" y2="847.7539"/><text fill="#000000" font-family="CMU Serif" font-size="31.25" lengthAdjust="spacingAndGlyphs" textLength="177.0833" x="360.5758" y="825.8006">SUBMITTED</text><text fill="#000000" font-family="CMU Serif" font-size="31.25" lengthAdjust="spacingAndGlyphs" textLength="293.75" x="291.8258" y="891.3442">Submitted for vault</text><rect fill="#FEFECE" height="131.0872" rx="26.0417" ry="26.0417" style="stroke: #A80036; stroke-width: 3.125;" width="327.0833" x="691.8258" y="1036.377"/><line style="stroke: #A80036; stroke-width: 3.125;" x1="691.8258" x2="1018.9092" y1="1101.9206" y2="1101.9206"/><text fill="#000000" font-family="CMU Serif" font-size="31.25" lengthAdjust="spacingAndGlyphs" textLength="160.4167" x="775.1592" y="1079.9672">ACCEPTED</text><text fill="#000000" font-family="CMU Serif" font-size="31.25" lengthAdjust="spacingAndGlyphs" textLength="277.0833" x="706.4092" y="1145.5109">Accepted for vault</text><rect fill="#FEFECE" height="131.0872" rx="26.0417" ry="26.0417" style="stroke: #A80036; stroke-width: 3.125;" width="316.6667" x="103.2842" y="1036.377"/><line style="stroke: #A80036; stroke-width: 3.125;" x1="103.2842" x2="419.9508" y1="1101.9206" y2="1101.9206"/><text fill="#000000" font-family="CMU Serif" font-size="31.25" lengthAdjust="spacingAndGlyphs" textLength="145.8333" x="188.7008" y="1079.9672">REJECTED</text><text fill="#000000" font-family="CMU Serif" font-size="31.25" lengthAdjust="spacingAndGlyphs" textLength="266.6667" x="117.8675" y="1145.5109">Rejected for vault</text><rect fill="#FEFECE" height="131.0872" rx="26.0417" ry="26.0417" style="stroke: #A80036; stroke-width: 3.125;" width="293.75" x="385.5758" y="1290.5436"/><line style="stroke: #A80036; stroke-width: 3.125;" x1="385.5758" x2="679.3258" y1="1356.0872" y2="1356.0872"/><text fill="#000000" font-family="CMU Serif" font-size="31.25" lengthAdjust="spacingAndGlyphs" textLength="145.8333" x="459.5342" y="1334.1339">SECURED</text><text fill="#000000" font-family="CMU Serif" font-size="31.25" lengthAdjust="spacingAndGlyphs" textLength="243.75" x="400.1592" y="1399.6775">Secured in vault</text><ellipse cx="342.8675" cy="130.127" fill="#000000" rx="20.8333" ry="20.8333" style="stroke: none; stroke-width: 2.0833333333333335;"/><ellipse cx="532.4508" cy="1565.5436" fill="none" rx="20.8333" ry="20.8333" style="stroke: #000000; stroke-width: 2.0833333333333335;"/><ellipse cx="533.4925" cy="1566.5853" fill="#000000" rx="12.5" ry="12.5" style="stroke: none; stroke-width: 2.0833333333333335;"/><!--link *start*ResearchSpace to FOLDER--><path d="M342.8675,150.968 C342.8675,176.8738 342.8675,222.5482 342.8675,262.4522 " fill="none" id="*start*ResearchSpace-FOLDER" style="stroke: #A80036; stroke-width: 2.0833333333333335;"/><polygon fill="#A80036" points="342.8675,273.5328,351.2008,254.7828,342.8675,263.1161,334.5342,254.7828,342.8675,273.5328" style="stroke: #A80036; stroke-width: 2.0833333333333335;"/><text fill="#000000" font-family="CMU Serif" font-size="31.25" lengthAdjust="spacingAndGlyphs" textLength="366.6667" x="349.1175" y="223.7172">Create folder (WebDAV)</text><!--link FOLDER to LOCKED--><path d="M248.8823,364.6315 C209.6106,380.2809 167.8577,404.8615 144.9508,442.627 C131.5781,464.6742 130.2756,491.9759 133.7619,517.2784 " fill="none" id="FOLDER-LOCKED" style="stroke: #A80036; stroke-width: 2.0833333333333335;"/><polygon fill="#A80036" points="135.5279,527.9786,140.6964,508.1218,133.8315,517.701,124.2523,510.8361,135.5279,527.9786" style="stroke: #A80036; stroke-width: 2.0833333333333335;"/><text fill="#000000" font-family="CMU Serif" font-size="31.25" lengthAdjust="spacingAndGlyphs" textLength="68.75" x="151.2008" y="477.8839">Lock</text><!--link FOLDER to SUBMITTED--><path d="M373.5898,405.1957 C378.4967,417.4463 383.1056,430.2809 386.6175,442.627 C418.4888,554.6709 435.1529,689.0561 443.0281,771.4305 " fill="none" id="FOLDER-SUBMITTED" style="stroke: #A80036; stroke-width: 2.0833333333333335;"/><polygon fill="#A80036" points="444.0365,782.2047,450.586,762.7596,443.0656,771.8333,433.9919,764.3129,444.0365,782.2047" style="stroke: #A80036; stroke-width: 2.0833333333333335;"/><text fill="#000000" font-family="CMU Serif" font-size="31.25" lengthAdjust="spacingAndGlyphs" textLength="108.3333" x="436.6175" y="604.9672">Submit</text><!--link LOCKED to FOLDER--><path d="M205.4415,527.8838 C230.7275,493.2222 261.8496,450.5603 288.079,414.6053 " fill="none" id="LOCKED-FOLDER" style="stroke: #A80036; stroke-width: 2.0833333333333335;"/><polygon fill="#A80036" points="294.6356,405.6178,276.8527,415.8537,288.4963,414.033,290.317,425.6766,294.6356,405.6178" style="stroke: #A80036; stroke-width: 2.0833333333333335;"/><text fill="#000000" font-family="CMU Serif" font-size="31.25" lengthAdjust="spacingAndGlyphs" textLength="100" x="274.1175" y="477.8839">Unlock</text><!--link LOCKED to SUBMITTED--><path d="M195.6706,659.6282 C214.3327,688.0992 238.6233,720.3795 265.7842,744.7103 C278.1733,755.8084 291.9573,766.222 306.2477,775.843 " fill="none" id="LOCKED-SUBMITTED" style="stroke: #A80036; stroke-width: 2.0833333333333335;"/><polygon fill="#A80036" points="315.2029,781.7301,304.1126,764.467,306.4985,776.0081,294.9575,778.394,315.2029,781.7301" style="stroke: #A80036; stroke-width: 2.0833333333333335;"/><text fill="#000000" font-family="CMU Serif" font-size="31.25" lengthAdjust="spacingAndGlyphs" textLength="108.3333" x="272.0342" y="732.0506">Submit</text><!--link SUBMITTED to FOLDER--><path d="M500.9092,782.1159 C545.9444,716.4595 598.3621,613.3017 559.5342,528.0436 C535.7031,475.7155 489.3804,432.2745 445.6633,400.3313 " fill="none" id="SUBMITTED-FOLDER" style="stroke: #A80036; stroke-width: 2.0833333333333335;"/><polygon fill="#A80036" points="436.9621,394.0967,447.3501,411.7913,445.4296,400.1637,457.0572,398.2432,436.9621,394.0967" style="stroke: #A80036; stroke-width: 2.0833333333333335;"/><text fill="#000000" font-family="CMU Serif" font-size="31.25" lengthAdjust="spacingAndGlyphs" textLength="145.8333" x="580.3675" y="604.9672">Unsubmit</text><!--link SUBMITTED to ACCEPTED--><path d="M554.2654,913.6201 C611.3942,949.3622 682.1198,993.6111 740.6673,1030.2407 " fill="none" id="SUBMITTED-ACCEPTED" style="stroke: #A80036; stroke-width: 2.0833333333333335;"/><polygon fill="#A80036" points="749.9552,1036.0517,738.4797,1019.0423,741.1244,1030.5269,729.6399,1033.1716,749.9552,1036.0517" style="stroke: #A80036; stroke-width: 2.0833333333333335;"/><text fill="#000000" font-family="CMU Serif" font-size="31.25" lengthAdjust="spacingAndGlyphs" textLength="104.1667" x="692.8675" y="986.2172">Accept</text><!--link SUBMITTED to REJECTED--><path d="M407.9471,913.6822 C390.5008,940.5942 369.5158,971.7197 349.1175,998.877 C342.1,1008.2199 334.5042,1017.8274 326.82,1027.2436 " fill="none" id="SUBMITTED-REJECTED" style="stroke: #A80036; stroke-width: 2.0833333333333335;"/><polygon fill="#A80036" points="319.7525,1035.8245,338.1055,1026.6498,326.3751,1027.784,325.2408,1016.0536,319.7525,1035.8245" style="stroke: #A80036; stroke-width: 2.0833333333333335;"/><text fill="#000000" font-family="CMU Serif" font-size="31.25" lengthAdjust="spacingAndGlyphs" textLength="93.75" x="388.7008" y="986.2172">Reject</text><!--link REJECTED to LOCKED--><path d="M221.5752,1035.9149 C215.0142,1023.8153 208.625,1011.134 203.2842,998.877 C156.7329,892.0392 151.0971,755.0603 153.0058,670.8747 " fill="none" id="REJECTED-LOCKED" style="stroke: #A80036; stroke-width: 2.0833333333333335;"/><polygon fill="#A80036" points="153.3054,659.8622,144.4652,678.3786,153.0221,670.275,161.1257,678.8319,153.3054,659.8622" style="stroke: #A80036; stroke-width: 2.0833333333333335;"/><text fill="#000000" font-family="CMU Serif" font-size="31.25" lengthAdjust="spacingAndGlyphs" textLength="68.75" x="182.4508" y="859.1339">Lock</text><!--link REJECTED to SUBMITTED--><path d="M220.8794,1035.9278 C209.2123,1008.0799 203.5563,976.3159 219.9508,950.9603 C232.1656,932.0692 248.7567,916.6045 267.4658,903.9522 " fill="none" id="REJECTED-SUBMITTED" style="stroke: #A80036; stroke-width: 2.0833333333333335;"/><polygon fill="#A80036" points="276.8104,897.9642,256.5274,901.0637,268.0398,903.5842,265.5194,915.0966,276.8104,897.9642" style="stroke: #A80036; stroke-width: 2.0833333333333335;"/><text fill="#000000" font-family="CMU Serif" font-size="31.25" lengthAdjust="spacingAndGlyphs" textLength="108.3333" x="226.2008" y="986.2172">Submit</text><!--link ACCEPTED to SECURED--><path d="M771.3679,1168.1178 C726.3317,1203.5657 670.7581,1247.3076 624.5452,1283.6815 " fill="none" id="ACCEPTED-SECURED" style="stroke: #A80036; stroke-width: 2.0833333333333335;"/><polygon fill="#A80036" points="616.03,1290.3838,635.9175,1285.3348,624.2151,1283.941,625.6089,1272.2386,616.03,1290.3838" style="stroke: #A80036; stroke-width: 2.0833333333333335;"/><text fill="#000000" font-family="CMU Serif" font-size="31.25" lengthAdjust="spacingAndGlyphs" textLength="106.25" x="728.2842" y="1240.3839">Secure</text><!--link SECURED to LOCKED--><path d="M385.0623,1336.7951 C281.8358,1314.693 150.9273,1267.609 84.5342,1167.627 C-17.3435,1014.208 64.1085,786.1417 118.5477,669.0459 " fill="none" id="SECURED-LOCKED" style="stroke: #A80036; stroke-width: 2.0833333333333335;"/><polygon fill="#A80036" points="123.0702,659.4376,107.5452,672.8533,118.634,668.8624,122.6249,679.9512,123.0702,659.4376" style="stroke: #A80036; stroke-width: 2.0833333333333335;"/><text fill="#000000" font-family="CMU Serif" font-size="31.25" lengthAdjust="spacingAndGlyphs" textLength="68.75" x="44.9508" y="986.2172">Lock</text><!--link SECURED to SUBMITTED--><path d="M533.639,1290.4017 C533.5348,1209.2284 528.2033,1067.6232 497.0342,950.9603 C494.6019,941.8559 491.4104,932.5613 487.8279,923.464 " fill="none" id="SECURED-SUBMITTED" style="stroke: #A80036; stroke-width: 2.0833333333333335;"/><polygon fill="#A80036" points="483.8042,913.6882,483.2348,934.1988,487.769,923.3208,498.6469,927.855,483.8042,913.6882" style="stroke: #A80036; stroke-width: 2.0833333333333335;"/><text fill="#000000" font-family="CMU Serif" font-size="31.25" lengthAdjust="spacingAndGlyphs" textLength="108.3333" x="536.6175" y="1113.3006">Submit</text><!--link SECURED to *end*ResearchSpace--><path d="M532.4508,1421.8417 C532.4508,1459.1092 532.4508,1504.074 532.4508,1533.6647 " fill="none" id="SECURED-*end*ResearchSpace" style="stroke: #A80036; stroke-width: 2.0833333333333335;"/><polygon fill="#A80036" points="532.4508,1544.5817,540.7842,1525.8317,532.4508,1534.1651,524.1175,1525.8317,532.4508,1544.5817" style="stroke: #A80036; stroke-width: 2.0833333333333335;"/><text fill="#000000" font-family="CMU Serif" font-size="31.25" lengthAdjust="spacingAndGlyphs" textLength="362.5" x="538.7008" y="1494.5506">Delete folder (WebDAV)</text><!--
@startuml

skinparam defaultFontName CMU Serif
skinparam defaultFontSize 15
skinparam padding 2
skinparam shadowing false
skinparam dpi 200

state ResearchSpace as "Research Space" {
  FOLDER : Unlocked
  LOCKED : Locked
  SUBMITTED : Submitted for vault
  ACCEPTED : Accepted for vault
  REJECTED : Rejected for vault
  SECURED : Secured in vault

  [*] - -> FOLDER : Create folder (WebDAV)
  FOLDER - -> LOCKED : Lock
  FOLDER - -> SUBMITTED : Submit
  LOCKED - -> FOLDER : Unlock
  LOCKED - -> SUBMITTED : Submit
  SUBMITTED - -> FOLDER : Unsubmit
  SUBMITTED - -> ACCEPTED : Accept
  SUBMITTED - -> REJECTED : Reject
  REJECTED - -> LOCKED : Lock
  REJECTED - -> SUBMITTED : Submit
  ACCEPTED - -> SECURED : Secure
  SECURED - -> LOCKED : Lock
  SECURED - -> SUBMITTED : Submit
  SECURED - -> [*] : Delete folder (WebDAV)
}

@enduml

PlantUML version 1.2018.13(Mon Nov 26 18:11:51 CET 2018)
(GPL source distribution)
Java Runtime: OpenJDK Runtime Environment
JVM: OpenJDK 64-Bit Server VM
Java Version: 11.0.11+9-post-Debian-1deb10u1
Operating System: Linux
OS Version: 5.9.0-0.bpo.5-amd64
Default Encoding: UTF-8
Language: en
Country: US
--></g></svg>