<?xml version="1.0" encoding="UTF-8" standalone="no"?><svg xmlns="http://www.w3.org/2000/svg" xmlns:xlink="http://www.w3.org/1999/xlink" contentScriptType="application/ecmascript" contentStyleType="text/css" height="1218.75px" preserveAspectRatio="none" style="width:1006px;height:1218px;" version="1.1" viewBox="0 0 1006 1218" width="1006.25px" zoomAndPan="magnify"><defs/><g><line style="stroke: #A80036; stroke-width: 2.0833333333333335; stroke-dasharray: 5.0,5.0;" x1="112.5" x2="112.5" y1="182.2103" y2="1027.2298"/><line style="stroke: #A80036; stroke-width: 2.0833333333333335; stroke-dasharray: 5.0,5.0;" x1="345.8333" x2="345.8333" y1="182.2103" y2="1027.2298"/><line style="stroke: #A80036; stroke-width: 2.0833333333333335; stroke-dasharray: 5.0,5.0;" x1="738.5417" x2="738.5417" y1="182.2103" y2="1027.2298"/><text fill="#000000" font-family="CMU Serif" font-size="31.25" lengthAdjust="spacingAndGlyphs" textLength="172.9167" x="20.8333" y="170.6736">Researcher</text><ellipse cx="113.5417" cy="27.0833" fill="#FEFECE" rx="16.6667" ry="16.6667" style="stroke: #A80036; stroke-width: 4.166666666666667;"/><path d="M113.5417,43.75 L113.5417,100 M86.4583,60.4167 L140.625,60.4167 M113.5417,100 L86.4583,131.25 M113.5417,100 L140.625,131.25 " fill="none" style="stroke: #A80036; stroke-width: 4.166666666666667;"/><text fill="#000000" font-family="CMU Serif" font-size="31.25" lengthAdjust="spacingAndGlyphs" textLength="172.9167" x="20.8333" y="1058.3201">Researcher</text><ellipse cx="113.5417" cy="1090.6901" fill="#FEFECE" rx="16.6667" ry="16.6667" style="stroke: #A80036; stroke-width: 4.166666666666667;"/><path d="M113.5417,1107.3568 L113.5417,1163.6068 M86.4583,1124.0234 L140.625,1124.0234 M113.5417,1163.6068 L86.4583,1194.8568 M113.5417,1163.6068 L140.625,1194.8568 " fill="none" style="stroke: #A80036; stroke-width: 4.166666666666667;"/><text fill="#000000" font-family="CMU Serif" font-size="31.25" lengthAdjust="spacingAndGlyphs" textLength="210.4167" x="235.4167" y="170.6736">Datamanager</text><ellipse cx="346.875" cy="27.0833" fill="#FEFECE" rx="16.6667" ry="16.6667" style="stroke: #A80036; stroke-width: 4.166666666666667;"/><path d="M346.875,43.75 L346.875,100 M319.7917,60.4167 L373.9583,60.4167 M346.875,100 L319.7917,131.25 M346.875,100 L373.9583,131.25 " fill="none" style="stroke: #A80036; stroke-width: 4.166666666666667;"/><text fill="#000000" font-family="CMU Serif" font-size="31.25" lengthAdjust="spacingAndGlyphs" textLength="210.4167" x="235.4167" y="1058.3201">Datamanager</text><ellipse cx="346.875" cy="1090.6901" fill="#FEFECE" rx="16.6667" ry="16.6667" style="stroke: #A80036; stroke-width: 4.166666666666667;"/><path d="M346.875,1107.3568 L346.875,1163.6068 M319.7917,1124.0234 L373.9583,1124.0234 M346.875,1163.6068 L319.7917,1194.8568 M346.875,1163.6068 L373.9583,1194.8568 " fill="none" style="stroke: #A80036; stroke-width: 4.166666666666667;"/><rect fill="#FEFECE" height="73.877" style="stroke: #A80036; stroke-width: 3.125;" width="112.5" x="682.2917" y="106.25"/><text fill="#000000" font-family="CMU Serif" font-size="31.25" lengthAdjust="spacingAndGlyphs" textLength="75" x="701.0417" y="154.007">Yoda</text><rect fill="#FEFECE" height="73.877" style="stroke: #A80036; stroke-width: 3.125;" width="112.5" x="682.2917" y="1025.1465"/><text fill="#000000" font-family="CMU Serif" font-size="31.25" lengthAdjust="spacingAndGlyphs" textLength="75" x="701.0417" y="1072.9034">Yoda</text><polygon fill="#A80036" points="713.5417,251.9206,734.375,260.2539,713.5417,268.5872,721.875,260.2539" style="stroke: #A80036; stroke-width: 2.0833333333333335;"/><line style="stroke: #A80036; stroke-width: 2.0833333333333335;" x1="113.5417" x2="726.0417" y1="260.2539" y2="260.2539"/><text fill="#000000" font-family="CMU Serif" font-size="31.25" lengthAdjust="spacingAndGlyphs" textLength="243.75" x="132.2917" y="244.5506">Submit for vault</text><path d="M622.9167,287.3372 L622.9167,351.9206 L852.0833,351.9206 L852.0833,308.1706 L831.25,287.3372 L622.9167,287.3372 " fill="#FBFB77" style="stroke: #A80036; stroke-width: 2.0833333333333335;"/><path d="M831.25,287.3372 L831.25,308.1706 L852.0833,308.1706 L831.25,287.3372 " fill="#FBFB77" style="stroke: #A80036; stroke-width: 2.0833333333333335;"/><text fill="#000000" font-family="CMU Serif" font-size="31.25" lengthAdjust="spacingAndGlyphs" textLength="177.0833" x="639.5833" y="330.9275">SUBMITTED</text><polygon fill="#A80036" points="369.7917,412.1745,348.9583,420.5078,369.7917,428.8411,361.4583,420.5078" style="stroke: #A80036; stroke-width: 2.0833333333333335;"/><line style="stroke: #A80036; stroke-width: 2.0833333333333335; stroke-dasharray: 2.0,2.0;" x1="357.2917" x2="736.4583" y1="420.5078" y2="420.5078"/><text fill="#000000" font-family="CMU Serif" font-size="31.25" lengthAdjust="spacingAndGlyphs" textLength="333.3333" x="386.4583" y="404.8045">Submitted notification</text><polygon fill="#A80036" points="713.5417,486.0514,734.375,494.3848,713.5417,502.7181,721.875,494.3848" style="stroke: #A80036; stroke-width: 2.0833333333333335;"/><line style="stroke: #A80036; stroke-width: 2.0833333333333335;" x1="346.875" x2="726.0417" y1="494.3848" y2="494.3848"/><text fill="#000000" font-family="CMU Serif" font-size="31.25" lengthAdjust="spacingAndGlyphs" textLength="239.5833" x="365.625" y="478.6814">Accept for vault</text><polygon fill="#A80036" points="136.4583,559.9284,115.625,568.2617,136.4583,576.5951,128.125,568.2617" style="stroke: #A80036; stroke-width: 2.0833333333333335;"/><line style="stroke: #A80036; stroke-width: 2.0833333333333335; stroke-dasharray: 2.0,2.0;" x1="123.9583" x2="736.4583" y1="568.2617" y2="568.2617"/><text fill="#000000" font-family="CMU Serif" font-size="31.25" lengthAdjust="spacingAndGlyphs" textLength="316.6667" x="153.125" y="552.5584">Accepted notification</text><path d="M620.8333,595.3451 L620.8333,659.9284 L854.1667,659.9284 L854.1667,616.1784 L833.3333,595.3451 L620.8333,595.3451 " fill="#FBFB77" style="stroke: #A80036; stroke-width: 2.0833333333333335;"/><path d="M833.3333,595.3451 L833.3333,616.1784 L854.1667,616.1784 L833.3333,595.3451 " fill="#FBFB77" style="stroke: #A80036; stroke-width: 2.0833333333333335;"/><text fill="#000000" font-family="CMU Serif" font-size="31.25" lengthAdjust="spacingAndGlyphs" textLength="181.25" x="637.5" y="638.9353">ACCCEPTED</text><line style="stroke: #A80036; stroke-width: 2.0833333333333335;" x1="738.5417" x2="826.0417" y1="728.5156" y2="728.5156"/><line style="stroke: #A80036; stroke-width: 2.0833333333333335;" x1="826.0417" x2="826.0417" y1="728.5156" y2="755.599"/><line style="stroke: #A80036; stroke-width: 2.0833333333333335;" x1="740.625" x2="826.0417" y1="755.599" y2="755.599"/><polygon fill="#A80036" points="761.4583,747.2656,740.625,755.599,761.4583,763.9323,753.125,755.599" style="stroke: #A80036; stroke-width: 2.0833333333333335;"/><text fill="#000000" font-family="CMU Serif" font-size="31.25" lengthAdjust="spacingAndGlyphs" textLength="225" x="757.2917" y="712.8123">Secure in vault</text><path d="M639.5833,782.6823 L639.5833,847.2656 L837.5,847.2656 L837.5,803.5156 L816.6667,782.6823 L639.5833,782.6823 " fill="#FBFB77" style="stroke: #A80036; stroke-width: 2.0833333333333335;"/><path d="M816.6667,782.6823 L816.6667,803.5156 L837.5,803.5156 L816.6667,782.6823 " fill="#FBFB77" style="stroke: #A80036; stroke-width: 2.0833333333333335;"/><text fill="#000000" font-family="CMU Serif" font-size="31.25" lengthAdjust="spacingAndGlyphs" textLength="145.8333" x="656.25" y="826.2726">SECURED</text><polygon fill="#A80036" points="136.4583,907.5195,115.625,915.8529,136.4583,924.1862,128.125,915.8529" style="stroke: #A80036; stroke-width: 2.0833333333333335;"/><line style="stroke: #A80036; stroke-width: 2.0833333333333335; stroke-dasharray: 2.0,2.0;" x1="123.9583" x2="736.4583" y1="915.8529" y2="915.8529"/><text fill="#000000" font-family="CMU Serif" font-size="31.25" lengthAdjust="spacingAndGlyphs" textLength="300" x="153.125" y="900.1495">Secured notification</text><polygon fill="#A80036" points="369.7917,981.3965,348.9583,989.7298,369.7917,998.0632,361.4583,989.7298" style="stroke: #A80036; stroke-width: 2.0833333333333335;"/><line style="stroke: #A80036; stroke-width: 2.0833333333333335; stroke-dasharray: 2.0,2.0;" x1="357.2917" x2="736.4583" y1="989.7298" y2="989.7298"/><text fill="#000000" font-family="CMU Serif" font-size="31.25" lengthAdjust="spacingAndGlyphs" textLength="300" x="386.4583" y="974.0265">Secured notification</text><!--
@startuml

skinparam defaultFontName CMU Serif
skinparam defaultFontSize 15
skinparam padding 2
skinparam shadowing false
skinparam dpi 200

actor       Researcher  as researcher
actor       Datamanager as datamanager
participant Yoda        as yoda

researcher   -> yoda        : Submit for vault
note over yoda              : SUBMITTED
yoda        - -> datamanager : Submitted notification
datamanager  -> yoda        : Accept for vault
yoda        - -> researcher  : Accepted notification
note over yoda              : ACCCEPTED
yoda         -> yoda        : Secure in vault
note over yoda              : SECURED
yoda        - -> researcher  : Secured notification
yoda        - -> datamanager : Secured notification
@enduml

PlantUML version 1.2018.13(Mon Nov 26 18:11:51 CET 2018)
(GPL source distribution)
Java Runtime: OpenJDK Runtime Environment
JVM: OpenJDK 64-Bit Server VM
Java Version: 11.0.9.1+1-post-Debian-1deb10u2
Operating System: Linux
OS Version: 5.9.0-0.bpo.5-amd64
Default Encoding: UTF-8
Language: en
Country: US
--></g></svg>