<?xml version="1.0" encoding="UTF-8" standalone="yes"?><svg xmlns="http://www.w3.org/2000/svg" xmlns:xlink="http://www.w3.org/1999/xlink" height="1687.5px" style="width:2556px;height:1687px;" version="1.1" viewBox="0 0 2556 1687" width="2556.25px"><defs/><g><rect fill="#FEFECE" height="1600.9603" rx="26.0417" ry="26.0417" style="stroke: #A80036; stroke-width: 3.125;" width="1075" x="12.5" y="51.0417"/><rect fill="#FFFFFF" height="1522.9167" rx="26.0417" ry="26.0417" style="stroke: #FFFFFF; stroke-width: 2.0833333333333335;" width="1062.5" x="18.75" y="122.8353"/><line style="stroke: #A80036; stroke-width: 3.125;" x1="12.5" x2="1087.5" y1="116.5853" y2="116.5853"/><text fill="#000000" font-family="CMU Serif" font-size="31.25" lengthAdjust="spacingAndGlyphs" textLength="245.8333" x="427.0833" y="94.632">Research Space</text><rect fill="#FEFECE" height="131.0872" rx="26.0417" ry="26.0417" style="stroke: #A80036; stroke-width: 3.125;" width="187.5" x="249.1" y="308.252"/><line style="stroke: #A80036; stroke-width: 3.125;" x1="249.1" x2="436.6" y1="373.7956" y2="373.7956"/><text fill="#000000" font-family="CMU Serif" font-size="31.25" lengthAdjust="spacingAndGlyphs" textLength="122.9167" x="281.3917" y="351.8422">FOLDER</text><text fill="#000000" font-family="CMU Serif" font-size="31.25" lengthAdjust="spacingAndGlyphs" textLength="137.5" x="263.6833" y="417.3859">Unlocked</text><rect fill="#FEFECE" height="131.0872" rx="26.0417" ry="26.0417" style="stroke: #A80036; stroke-width: 3.125;" width="175" x="69.9338" y="562.4186"/><line style="stroke: #A80036; stroke-width: 3.125;" x1="69.9338" x2="244.9338" y1="627.9622" y2="627.9622"/><text fill="#000000" font-family="CMU Serif" font-size="31.25" lengthAdjust="spacingAndGlyphs" textLength="125" x="94.9338" y="606.0089">LOCKED</text><text fill="#000000" font-family="CMU Serif" font-size="31.25" lengthAdjust="spacingAndGlyphs" textLength="106.25" x="84.5171" y="671.5525">Locked</text><rect fill="#FEFECE" height="131.0872" rx="26.0417" ry="26.0417" style="stroke: #A80036; stroke-width: 3.125;" width="343.75" x="277.225" y="816.5853"/><line style="stroke: #A80036; stroke-width: 3.125;" x1="277.225" x2="620.975" y1="882.1289" y2="882.1289"/><text fill="#000000" font-family="CMU Serif" font-size="31.25" lengthAdjust="spacingAndGlyphs" textLength="177.0833" x="360.5583" y="860.1756">SUBMITTED</text><text fill="#000000" font-family="CMU Serif" font-size="31.25" lengthAdjust="spacingAndGlyphs" textLength="293.75" x="291.8083" y="925.7192">Submitted for vault</text><rect fill="#FEFECE" height="131.0872" rx="26.0417" ry="26.0417" style="stroke: #A80036; stroke-width: 3.125;" width="327.0833" x="691.8083" y="1070.752"/><line style="stroke: #A80036; stroke-width: 3.125;" x1="691.8083" x2="1018.8917" y1="1136.2956" y2="1136.2956"/><text fill="#000000" font-family="CMU Serif" font-size="31.25" lengthAdjust="spacingAndGlyphs" textLength="160.4167" x="775.1417" y="1114.3422">ACCEPTED</text><text fill="#000000" font-family="CMU Serif" font-size="31.25" lengthAdjust="spacingAndGlyphs" textLength="277.0833" x="706.3917" y="1179.8859">Accepted for vault</text><rect fill="#FEFECE" height="131.0872" rx="26.0417" ry="26.0417" style="stroke: #A80036; stroke-width: 3.125;" width="316.6667" x="103.2671" y="1070.752"/><line style="stroke: #A80036; stroke-width: 3.125;" x1="103.2671" x2="419.9338" y1="1136.2956" y2="1136.2956"/><text fill="#000000" font-family="CMU Serif" font-size="31.25" lengthAdjust="spacingAndGlyphs" textLength="145.8333" x="188.6838" y="1114.3422">REJECTED</text><text fill="#000000" font-family="CMU Serif" font-size="31.25" lengthAdjust="spacingAndGlyphs" textLength="266.6667" x="117.8504" y="1179.8859">Rejected for vault</text><rect fill="#FEFECE" height="131.0872" rx="26.0417" ry="26.0417" style="stroke: #A80036; stroke-width: 3.125;" width="293.75" x="385.5583" y="1324.9186"/><line style="stroke: #A80036; stroke-width: 3.125;" x1="385.5583" x2="679.3083" y1="1390.4622" y2="1390.4622"/><text fill="#000000" font-family="CMU Serif" font-size="31.25" lengthAdjust="spacingAndGlyphs" textLength="145.8333" x="459.5167" y="1368.5089">SECURED</text><text fill="#000000" font-family="CMU Serif" font-size="31.25" lengthAdjust="spacingAndGlyphs" textLength="243.75" x="400.1417" y="1434.0525">Secured in vault</text><ellipse cx="342.85" cy="164.502" fill="#000000" rx="20.8333" ry="20.8333" style="stroke: none; stroke-width: 2.0833333333333335;"/><ellipse cx="532.4333" cy="1599.9186" fill="none" rx="20.8333" ry="20.8333" style="stroke: #000000; stroke-width: 2.0833333333333335;"/><ellipse cx="533.475" cy="1600.9603" fill="#000000" rx="12.5" ry="12.5" style="stroke: none; stroke-width: 2.0833333333333335;"/><path d="M342.85,185.5228 C342.85,210.7353 342.85,256.804 342.85,296.8165 " fill="none" style="stroke: #A80036; stroke-width: 2.0833333333333335;"/><polygon fill="#A80036" points="342.85,307.9186,351.1833,289.1686,342.85,297.502,334.5167,289.1686,342.85,307.9186" style="stroke: #A80036; stroke-width: 2.0833333333333335;"/><text fill="#000000" font-family="CMU Serif" font-size="31.25" lengthAdjust="spacingAndGlyphs" textLength="366.6667" x="349.1" y="258.0922">Create folder (WebDAV)</text><path d="M248.9188,400.1145 C209.6577,415.354 167.8985,439.4936 144.9338,477.002 C131.5352,498.8853 130.3513,526.0853 133.9452,551.2311 " fill="none" style="stroke: #A80036; stroke-width: 2.0833333333333335;"/><polygon fill="#A80036" points="135.7563,561.8603,140.8212,541.9768,134.0063,551.5917,124.3914,544.7768,135.7563,561.8603" style="stroke: #A80036; stroke-width: 2.0833333333333335;"/><text fill="#000000" font-family="CMU Serif" font-size="31.25" lengthAdjust="spacingAndGlyphs" textLength="68.75" x="151.1838" y="512.2589">Lock</text><path d="M373.3667,439.7415 C378.3563,451.9124 383.0458,464.6978 386.6,477.002 C418.9542,589.004 435.5417,723.6436 443.2625,805.502 " fill="none" style="stroke: #A80036; stroke-width: 2.0833333333333335;"/><polygon fill="#A80036" points="444.2479,816.202,450.8213,796.765,443.2898,805.8294,434.2253,798.2979,444.2479,816.202" style="stroke: #A80036; stroke-width: 2.0833333333333335;"/><text fill="#000000" font-family="CMU Serif" font-size="31.25" lengthAdjust="spacingAndGlyphs" textLength="108.3333" x="436.6" y="639.3422">Submit</text><path d="M204.6156,562.3436 C230.3185,527.6895 262.2313,484.6582 288.9167,448.679 " fill="none" style="stroke: #A80036; stroke-width: 2.0833333333333335;"/><polygon fill="#A80036" points="295.5813,439.6936,277.718,449.7887,289.3756,448.0601,291.1043,459.7177,295.5813,439.6936" style="stroke: #A80036; stroke-width: 2.0833333333333335;"/><text fill="#000000" font-family="CMU Serif" font-size="31.25" lengthAdjust="spacingAndGlyphs" textLength="100" x="274.1" y="512.2589">Unlock</text><path d="M194.7267,693.7749 C213.5277,722.229 238.19,754.7582 265.7667,779.0853 C278.4063,790.2353 292.4813,800.6603 307.0604,810.2582 " fill="none" style="stroke: #A80036; stroke-width: 2.0833333333333335;"/><polygon fill="#A80036" points="316.1938,816.127,304.9256,798.9795,307.4307,810.4953,295.9149,813.0004,316.1938,816.127" style="stroke: #A80036; stroke-width: 2.0833333333333335;"/><text fill="#000000" font-family="CMU Serif" font-size="31.25" lengthAdjust="spacingAndGlyphs" textLength="108.3333" x="272.0167" y="766.4256">Submit</text><path d="M500.0479,816.0374 C545.2708,750.8582 598.5958,647.604 559.5167,562.4186 C535.6563,510.404 489.3292,467.4165 445.6188,435.877 " fill="none" style="stroke: #A80036; stroke-width: 2.0833333333333335;"/><polygon fill="#A80036" points="436.9188,429.7228,447.4123,447.3549,445.4224,435.739,457.0383,433.7491,436.9188,429.7228" style="stroke: #A80036; stroke-width: 2.0833333333333335;"/><text fill="#000000" font-family="CMU Serif" font-size="31.25" lengthAdjust="spacingAndGlyphs" textLength="145.8333" x="580.35" y="639.3422">Unsubmit</text><path d="M552.6646,948.027 C610.6833,983.729 683.0979,1028.2915 742.5479,1064.877 " fill="none" style="stroke: #A80036; stroke-width: 2.0833333333333335;"/><polygon fill="#A80036" points="751.975,1070.677,740.3761,1053.7515,743.1043,1065.2164,731.6393,1067.9446,751.975,1070.677" style="stroke: #A80036; stroke-width: 2.0833333333333335;"/><text fill="#000000" font-family="CMU Serif" font-size="31.25" lengthAdjust="spacingAndGlyphs" textLength="104.1667" x="694.9333" y="1020.5922">Accept</text><path d="M408.4396,948.5478 C390.9021,975.2665 369.7146,1006.2749 349.1,1033.252 C341.725,1042.904 333.7083,1052.8332 325.6208,1062.5228 " fill="none" style="stroke: #A80036; stroke-width: 2.0833333333333335;"/><polygon fill="#A80036" points="318.8208,1070.5936,337.274,1061.6221,325.5318,1062.6268,324.5271,1050.8846,318.8208,1070.5936" style="stroke: #A80036; stroke-width: 2.0833333333333335;"/><text fill="#000000" font-family="CMU Serif" font-size="31.25" lengthAdjust="spacingAndGlyphs" textLength="93.75" x="388.6833" y="1020.5922">Reject</text><path d="M222.116,1070.6978 C215.3477,1058.5082 208.7427,1045.6686 203.2671,1033.252 C156.0773,926.2353 150.8213,788.4499 152.9542,704.8311 " fill="none" style="stroke: #A80036; stroke-width: 2.0833333333333335;"/><polygon fill="#A80036" points="153.2829,693.902,144.3908,712.3935,152.9704,704.3139,161.05,712.8935,153.2829,693.902" style="stroke: #A80036; stroke-width: 2.0833333333333335;"/><text fill="#000000" font-family="CMU Serif" font-size="31.25" lengthAdjust="spacingAndGlyphs" textLength="68.75" x="182.4338" y="893.5089">Lock</text><path d="M221.6083,1070.577 C209.5371,1042.7561 203.361,1010.754 219.9338,985.3353 C232.1785,966.554 248.7875,951.2395 267.5063,938.7582 " fill="none" style="stroke: #A80036; stroke-width: 2.0833333333333335;"/><polygon fill="#A80036" points="276.8542,932.854,256.5514,935.8214,268.0472,938.4168,265.4518,949.9126,276.8542,932.854" style="stroke: #A80036; stroke-width: 2.0833333333333335;"/><text fill="#000000" font-family="CMU Serif" font-size="31.25" lengthAdjust="spacingAndGlyphs" textLength="108.3333" x="226.1838" y="1020.5922">Submit</text><path d="M773.0292,1202.1936 C727.2917,1237.602 670.3,1281.7249 623.2667,1318.1395 " fill="none" style="stroke: #A80036; stroke-width: 2.0833333333333335;"/><polygon fill="#A80036" points="614.6042,1324.8436,634.5308,1319.9511,622.8397,1318.4653,624.3255,1306.7742,614.6042,1324.8436" style="stroke: #A80036; stroke-width: 2.0833333333333335;"/><text fill="#000000" font-family="CMU Serif" font-size="31.25" lengthAdjust="spacingAndGlyphs" textLength="106.25" x="730.35" y="1274.7589">Secure</text><path d="M385.0958,1369.779 C281.8958,1348.1603 150.9977,1301.6874 84.5171,1202.002 C-17.8394,1048.5228 64.9954,819.5957 119.4092,703.429 " fill="none" style="stroke: #A80036; stroke-width: 2.0833333333333335;"/><polygon fill="#A80036" points="123.926,693.902,108.3615,707.2717,119.462,703.3136,123.4201,714.4142,123.926,693.902" style="stroke: #A80036; stroke-width: 2.0833333333333335;"/><text fill="#000000" font-family="CMU Serif" font-size="31.25" lengthAdjust="spacingAndGlyphs" textLength="68.75" x="44.9337" y="1020.5922">Lock</text><path d="M533.7271,1324.402 C533.7917,1243.8415 528.6917,1101.952 497.0167,985.3353 C494.55,976.254 491.3,966.9895 487.6521,957.9374 " fill="none" style="stroke: #A80036; stroke-width: 2.0833333333333335;"/><polygon fill="#A80036" points="483.5542,948.2165,483.159,968.7312,487.6007,957.8151,498.5168,962.2568,483.5542,948.2165" style="stroke: #A80036; stroke-width: 2.0833333333333335;"/><text fill="#000000" font-family="CMU Serif" font-size="31.25" lengthAdjust="spacingAndGlyphs" textLength="108.3333" x="536.6" y="1147.6756">Submit</text><path d="M532.4333,1456.4313 C532.4333,1493.8236 532.4333,1539.2784 532.4333,1568.379 " fill="none" style="stroke: #A80036; stroke-width: 2.0833333333333335;"/><polygon fill="#A80036" points="532.4333,1579.0461,540.7667,1560.2961,532.4333,1568.6295,524.1,1560.2961,532.4333,1579.0461" style="stroke: #A80036; stroke-width: 2.0833333333333335;"/><text fill="#000000" font-family="CMU Serif" font-size="31.25" lengthAdjust="spacingAndGlyphs" textLength="362.5" x="538.6833" y="1528.9256">Delete folder (WebDAV)</text><rect fill="#FEFECE" height="1669.7103" rx="26.0417" ry="26.0417" style="stroke: #A80036; stroke-width: 3.125;" width="1393.75" x="1161.4583" y="16.6667"/><rect fill="#FFFFFF" height="1591.6667" rx="26.0417" ry="26.0417" style="stroke: #FFFFFF; stroke-width: 2.0833333333333335;" width="1381.25" x="1167.7083" y="88.4603"/><line style="stroke: #A80036; stroke-width: 3.125;" x1="1161.4583" x2="2555.2083" y1="82.2103" y2="82.2103"/><text fill="#000000" font-family="CMU Serif" font-size="31.25" lengthAdjust="spacingAndGlyphs" textLength="181.25" x="1767.7083" y="60.257">Vault Space</text><rect fill="#FEFECE" height="131.0872" rx="26.0417" ry="26.0417" style="stroke: #A80036; stroke-width: 3.125;" width="422.9167" x="1184.375" y="273.877"/><line style="stroke: #A80036; stroke-width: 3.125;" x1="1184.375" x2="1607.2917" y1="339.4206" y2="339.4206"/><text fill="#000000" font-family="CMU Serif" font-size="31.25" lengthAdjust="spacingAndGlyphs" textLength="193.75" x="1298.9583" y="317.4672">INCOMPLETE</text><text fill="#000000" font-family="CMU Serif" font-size="31.25" lengthAdjust="spacingAndGlyphs" textLength="372.9167" x="1198.9583" y="383.0109">Incomplete datapackage</text><rect fill="#FEFECE" height="131.0872" rx="26.0417" ry="26.0417" style="stroke: #A80036; stroke-width: 3.125;" width="362.5" x="2122.9167" y="273.877"/><line style="stroke: #A80036; stroke-width: 3.125;" x1="2122.9167" x2="2485.4167" y1="339.4206" y2="339.4206"/><text fill="#000000" font-family="CMU Serif" font-size="31.25" lengthAdjust="spacingAndGlyphs" textLength="164.5833" x="2221.875" y="317.4672">COMPLETE</text><text fill="#000000" font-family="CMU Serif" font-size="31.25" lengthAdjust="spacingAndGlyphs" textLength="312.5" x="2137.5" y="383.0109">Legacy datapackage</text><rect fill="#FEFECE" height="131.0872" rx="26.0417" ry="26.0417" style="stroke: #A80036; stroke-width: 3.125;" width="439.5833" x="1644.7917" y="273.877"/><line style="stroke: #A80036; stroke-width: 3.125;" x1="1644.7917" x2="2084.375" y1="339.4206" y2="339.4206"/><text fill="#000000" font-family="CMU Serif" font-size="31.25" lengthAdjust="spacingAndGlyphs" textLength="216.6667" x="1756.25" y="317.4672">UNPUBLISHED</text><text fill="#000000" font-family="CMU Serif" font-size="31.25" lengthAdjust="spacingAndGlyphs" textLength="389.5833" x="1659.375" y="383.0109">Unpublished datapackage</text><rect fill="#FEFECE" height="131.0872" rx="26.0417" ry="26.0417" style="stroke: #A80036; stroke-width: 3.125;" width="525" x="1602.0833" y="482.2103"/><line style="stroke: #A80036; stroke-width: 3.125;" x1="1602.0833" x2="2127.0833" y1="547.7539" y2="547.7539"/><text fill="#000000" font-family="CMU Serif" font-size="31.25" lengthAdjust="spacingAndGlyphs" textLength="475" x="1627.0833" y="525.8006">SUBMITTED_FOR_PUBLICATION</text><text fill="#000000" font-family="CMU Serif" font-size="31.25" lengthAdjust="spacingAndGlyphs" textLength="381.25" x="1616.6667" y="591.3442">Submitted for publication</text><rect fill="#FEFECE" height="131.0872" rx="26.0417" ry="26.0417" style="stroke: #A80036; stroke-width: 3.125;" width="514.5833" x="1607.2917" y="690.5436"/><line style="stroke: #A80036; stroke-width: 3.125;" x1="1607.2917" x2="2121.875" y1="756.0872" y2="756.0872"/><text fill="#000000" font-family="CMU Serif" font-size="31.25" lengthAdjust="spacingAndGlyphs" textLength="464.5833" x="1632.2917" y="734.1339">APPROVED_FOR_PUBLICATION</text><text fill="#000000" font-family="CMU Serif" font-size="31.25" lengthAdjust="spacingAndGlyphs" textLength="289.5833" x="1621.875" y="799.6775">Publication pending</text><rect fill="#FEFECE" height="131.0872" rx="26.0417" ry="26.0417" style="stroke: #A80036; stroke-width: 3.125;" width="220.8333" x="1754.1667" y="898.877"/><line style="stroke: #A80036; stroke-width: 3.125;" x1="1754.1667" x2="1975" y1="964.4206" y2="964.4206"/><text fill="#000000" font-family="CMU Serif" font-size="31.25" lengthAdjust="spacingAndGlyphs" textLength="170.8333" x="1779.1667" y="942.4672">PUBLISHED</text><text fill="#000000" font-family="CMU Serif" font-size="31.25" lengthAdjust="spacingAndGlyphs" textLength="141.6667" x="1768.75" y="1008.0109">Published</text><rect fill="#FEFECE" height="131.0872" rx="26.0417" ry="26.0417" style="stroke: #A80036; stroke-width: 3.125;" width="445.8333" x="1431.25" y="1107.2103"/><line style="stroke: #A80036; stroke-width: 3.125;" x1="1431.25" x2="1877.0833" y1="1172.7539" y2="1172.7539"/><text fill="#000000" font-family="CMU Serif" font-size="31.25" lengthAdjust="spacingAndGlyphs" textLength="395.8333" x="1456.25" y="1150.8006">PENDING_DEPUBLICATION</text><text fill="#000000" font-family="CMU Serif" font-size="31.25" lengthAdjust="spacingAndGlyphs" textLength="331.25" x="1445.8333" y="1216.3442">Depublication pending</text><rect fill="#FEFECE" height="131.0872" rx="26.0417" ry="26.0417" style="stroke: #A80036; stroke-width: 3.125;" width="262.5" x="1591.6667" y="1315.5436"/><line style="stroke: #A80036; stroke-width: 3.125;" x1="1591.6667" x2="1854.1667" y1="1381.0872" y2="1381.0872"/><text fill="#000000" font-family="CMU Serif" font-size="31.25" lengthAdjust="spacingAndGlyphs" textLength="212.5" x="1616.6667" y="1359.1339">DEPUBLISHED</text><text fill="#000000" font-family="CMU Serif" font-size="31.25" lengthAdjust="spacingAndGlyphs" textLength="183.3333" x="1606.25" y="1424.6775">Depublished</text><rect fill="#FEFECE" height="131.0872" rx="26.0417" ry="26.0417" style="stroke: #A80036; stroke-width: 3.125;" width="443.75" x="1646.875" y="1523.877"/><line style="stroke: #A80036; stroke-width: 3.125;" x1="1646.875" x2="2090.625" y1="1589.4206" y2="1589.4206"/><text fill="#000000" font-family="CMU Serif" font-size="31.25" lengthAdjust="spacingAndGlyphs" textLength="393.75" x="1671.875" y="1567.4672">PENDING_REPUBLICATION</text><text fill="#000000" font-family="CMU Serif" font-size="31.25" lengthAdjust="spacingAndGlyphs" textLength="329.1667" x="1661.4583" y="1633.0109">Republication pending</text><ellipse cx="1604.1667" cy="130.127" fill="#000000" rx="20.8333" ry="20.8333" style="stroke: none; stroke-width: 2.0833333333333335;"/><path d="M1624.9729,134.8436 C1658.4,139.9832 1724.7625,154.0249 1768.75,188.4603 C1794.4188,208.5561 1815.2646,237.554 1830.8771,264.6353 " fill="none" style="stroke: #A80036; stroke-width: 2.0833333333333335;"/><polygon fill="#A80036" points="1835.9708,273.729,1834.0737,253.2985,1830.8782,264.6421,1819.5346,261.4467,1835.9708,273.729" style="stroke: #A80036; stroke-width: 2.0833333333333335;"/><text fill="#000000" font-family="CMU Serif" font-size="31.25" lengthAdjust="spacingAndGlyphs" textLength="308.3333" x="1818.75" y="223.7172">Create datapackage</text><path d="M1583.4396,134.0478 C1550.3396,138.0686 1485.4583,150.5728 1447.9167,188.4603 C1428,208.5603 1415.675,236.6915 1408.0604,263.0978 " fill="none" style="stroke: #A80036; stroke-width: 2.0833333333333335;"/><polygon fill="#A80036" points="1405.2708,273.4999,1418.1789,257.5503,1407.9706,263.4391,1402.0818,253.2308,1405.2708,273.4999" style="stroke: #A80036; stroke-width: 2.0833333333333335;"/><text fill="#000000" font-family="CMU Serif" font-size="31.25" lengthAdjust="spacingAndGlyphs" textLength="308.3333" x="1454.1667" y="223.7172">Create datapackage</text><path d="M1851.4271,405.6249 C1850.3854,426.529 1850.2417,449.9165 1850.9958,471.504 " fill="none" style="stroke: #A80036; stroke-width: 2.0833333333333335;"/><polygon fill="#A80036" points="1851.4396,481.9395,1858.9672,462.8517,1850.9962,471.5322,1842.3156,463.5612,1851.4396,481.9395" style="stroke: #A80036; stroke-width: 2.0833333333333335;"/><path d="M2166.8875,405.3457 C2117.5292,428.2707 2061.675,454.2124 2011.5271,477.504 " fill="none" style="stroke: #A80036; stroke-width: 2.0833333333333335;"/><polygon fill="#A80036" points="2001.5771,482.1249,2022.0926,481.7802,2011.0236,477.735,2015.0688,466.6659,2001.5771,482.1249" style="stroke: #A80036; stroke-width: 2.0833333333333335;"/><path d="M1864.5833,613.9582 C1864.5833,634.8624 1864.5833,658.2499 1864.5833,679.8374 " fill="none" style="stroke: #A80036; stroke-width: 2.0833333333333335;"/><polygon fill="#A80036" points="1864.5833,690.2728,1872.9167,671.5228,1864.5833,679.8561,1856.25,671.5228,1864.5833,690.2728" style="stroke: #A80036; stroke-width: 2.0833333333333335;"/><path d="M1877.7271,481.9395 C1878.7771,461.054 1878.9271,437.6686 1878.1792,416.0665 " fill="none" style="stroke: #A80036; stroke-width: 2.0833333333333335;"/><polygon fill="#A80036" points="1877.7396,405.6249,1870.2011,424.7083,1878.1771,416.0323,1886.853,424.0083,1877.7396,405.6249" style="stroke: #A80036; stroke-width: 2.0833333333333335;"/><path d="M1864.5833,822.2915 C1864.5833,843.1957 1864.5833,866.5832 1864.5833,888.1707 " fill="none" style="stroke: #A80036; stroke-width: 2.0833333333333335;"/><polygon fill="#A80036" points="1864.5833,898.6061,1872.9167,879.8561,1864.5833,888.1895,1856.25,879.8561,1864.5833,898.6061" style="stroke: #A80036; stroke-width: 2.0833333333333335;"/><path d="M1798.5833,1030.6249 C1776.0604,1052.479 1750.7396,1077.0478 1727.6646,1099.4374 " fill="none" style="stroke: #A80036; stroke-width: 2.0833333333333335;"/><polygon fill="#A80036" points="1719.9333,1106.9395,1739.1921,1099.8608,1727.4083,1099.6847,1727.5845,1087.9009,1719.9333,1106.9395" style="stroke: #A80036; stroke-width: 2.0833333333333335;"/><path d="M1675.7313,1238.9582 C1682.7708,1259.8624 1690.6458,1283.2499 1697.9146,1304.8374 " fill="none" style="stroke: #A80036; stroke-width: 2.0833333333333335;"/><polygon fill="#A80036" points="1701.4292,1315.2728,1703.3428,1294.8438,1698.1048,1305.4008,1687.5477,1300.1628,1701.4292,1315.2728" style="stroke: #A80036; stroke-width: 2.0833333333333335;"/><path d="M1768.6583,1447.2913 C1783.9979,1468.7653 1801.2083,1492.8601 1816.975,1514.9336 " fill="none" style="stroke: #A80036; stroke-width: 2.0833333333333335;"/><polygon fill="#A80036" points="1823.1708,1523.6063,1819.0537,1503.5052,1817.1162,1515.13,1805.4915,1513.1925,1823.1708,1523.6063" style="stroke: #A80036; stroke-width: 2.0833333333333335;"/><path d="M1879.0542,1523.5453 C1892.4042,1431.3645 1912.1438,1255.7874 1895.8333,1107.2103 C1893.4417,1085.4186 1889.0229,1062.0624 1884.2479,1040.7686 " fill="none" style="stroke: #A80036; stroke-width: 2.0833333333333335;"/><polygon fill="#A80036" points="1881.8813,1030.4978,1877.971,1050.6402,1884.2203,1040.6484,1894.212,1046.8978,1881.8813,1030.4978" style="stroke: #A80036; stroke-width: 2.0833333333333335;"/></g></svg>