<?xml version="1.0" encoding="UTF-8" standalone="yes"?><svg xmlns="http://www.w3.org/2000/svg" xmlns:xlink="http://www.w3.org/1999/xlink" height="1870.8333px" style="width:2833px;height:1870px;" version="1.1" viewBox="0 0 2833 1870" width="2833.3333px"><defs/><g><rect fill="#FEFECE" height="1600.9603" rx="26.0417" ry="26.0417" style="stroke: #A80036; stroke-width: 3.125;" width="1075" x="12.5" y="142.7083"/><rect fill="#FFFFFF" height="1522.9167" rx="26.0417" ry="26.0417" style="stroke: #FFFFFF; stroke-width: 2.0833333333333335;" width="1062.5" x="18.75" y="214.502"/><line style="stroke: #A80036; stroke-width: 3.125;" x1="12.5" x2="1087.5" y1="208.252" y2="208.252"/><text fill="#000000" font-family="CMU Serif" font-size="31.25" lengthAdjust="spacingAndGlyphs" textLength="245.8333" x="427.0833" y="186.2986">Research Space</text><rect fill="#FEFECE" height="131.0872" rx="26.0417" ry="26.0417" style="stroke: #A80036; stroke-width: 3.125;" width="187.5" x="249.1" y="399.9186"/><line style="stroke: #A80036; stroke-width: 3.125;" x1="249.1" x2="436.6" y1="465.4622" y2="465.4622"/><text fill="#000000" font-family="CMU Serif" font-size="31.25" lengthAdjust="spacingAndGlyphs" textLength="122.9167" x="281.3917" y="443.5089">FOLDER</text><text fill="#000000" font-family="CMU Serif" font-size="31.25" lengthAdjust="spacingAndGlyphs" textLength="137.5" x="263.6833" y="509.0525">Unlocked</text><rect fill="#FEFECE" height="131.0872" rx="26.0417" ry="26.0417" style="stroke: #A80036; stroke-width: 3.125;" width="175" x="69.9338" y="654.0853"/><line style="stroke: #A80036; stroke-width: 3.125;" x1="69.9338" x2="244.9338" y1="719.6289" y2="719.6289"/><text fill="#000000" font-family="CMU Serif" font-size="31.25" lengthAdjust="spacingAndGlyphs" textLength="125" x="94.9338" y="697.6756">LOCKED</text><text fill="#000000" font-family="CMU Serif" font-size="31.25" lengthAdjust="spacingAndGlyphs" textLength="106.25" x="84.5171" y="763.2192">Locked</text><rect fill="#FEFECE" height="131.0872" rx="26.0417" ry="26.0417" style="stroke: #A80036; stroke-width: 3.125;" width="343.75" x="277.225" y="908.252"/><line style="stroke: #A80036; stroke-width: 3.125;" x1="277.225" x2="620.975" y1="973.7956" y2="973.7956"/><text fill="#000000" font-family="CMU Serif" font-size="31.25" lengthAdjust="spacingAndGlyphs" textLength="177.0833" x="360.5583" y="951.8422">SUBMITTED</text><text fill="#000000" font-family="CMU Serif" font-size="31.25" lengthAdjust="spacingAndGlyphs" textLength="293.75" x="291.8083" y="1017.3859">Submitted for vault</text><rect fill="#FEFECE" height="131.0872" rx="26.0417" ry="26.0417" style="stroke: #A80036; stroke-width: 3.125;" width="327.0833" x="691.8083" y="1162.4186"/><line style="stroke: #A80036; stroke-width: 3.125;" x1="691.8083" x2="1018.8917" y1="1227.9622" y2="1227.9622"/><text fill="#000000" font-family="CMU Serif" font-size="31.25" lengthAdjust="spacingAndGlyphs" textLength="160.4167" x="775.1417" y="1206.0089">ACCEPTED</text><text fill="#000000" font-family="CMU Serif" font-size="31.25" lengthAdjust="spacingAndGlyphs" textLength="277.0833" x="706.3917" y="1271.5525">Accepted for vault</text><rect fill="#FEFECE" height="131.0872" rx="26.0417" ry="26.0417" style="stroke: #A80036; stroke-width: 3.125;" width="316.6667" x="103.2671" y="1162.4186"/><line style="stroke: #A80036; stroke-width: 3.125;" x1="103.2671" x2="419.9338" y1="1227.9622" y2="1227.9622"/><text fill="#000000" font-family="CMU Serif" font-size="31.25" lengthAdjust="spacingAndGlyphs" textLength="145.8333" x="188.6838" y="1206.0089">REJECTED</text><text fill="#000000" font-family="CMU Serif" font-size="31.25" lengthAdjust="spacingAndGlyphs" textLength="266.6667" x="117.8504" y="1271.5525">Rejected for vault</text><rect fill="#FEFECE" height="131.0872" rx="26.0417" ry="26.0417" style="stroke: #A80036; stroke-width: 3.125;" width="293.75" x="385.5583" y="1416.5853"/><line style="stroke: #A80036; stroke-width: 3.125;" x1="385.5583" x2="679.3083" y1="1482.1289" y2="1482.1289"/><text fill="#000000" font-family="CMU Serif" font-size="31.25" lengthAdjust="spacingAndGlyphs" textLength="145.8333" x="459.5167" y="1460.1756">SECURED</text><text fill="#000000" font-family="CMU Serif" font-size="31.25" lengthAdjust="spacingAndGlyphs" textLength="243.75" x="400.1417" y="1525.7192">Secured in vault</text><ellipse cx="342.85" cy="256.1686" fill="#000000" rx="20.8333" ry="20.8333" style="stroke: none; stroke-width: 2.0833333333333335;"/><ellipse cx="532.4333" cy="1691.5853" fill="none" rx="20.8333" ry="20.8333" style="stroke: #000000; stroke-width: 2.0833333333333335;"/><ellipse cx="533.475" cy="1692.627" fill="#000000" rx="12.5" ry="12.5" style="stroke: none; stroke-width: 2.0833333333333335;"/><path d="M342.85,277.1895 C342.85,302.402 342.85,348.4707 342.85,388.4832 " fill="none" style="stroke: #A80036; stroke-width: 2.0833333333333335;"/><polygon fill="#A80036" points="342.85,399.5853,351.1833,380.8353,342.85,389.1686,334.5167,380.8353,342.85,399.5853" style="stroke: #A80036; stroke-width: 2.0833333333333335;"/><text fill="#000000" font-family="CMU Serif" font-size="31.25" lengthAdjust="spacingAndGlyphs" textLength="366.6667" x="349.1" y="349.7589">Create folder (WebDAV)</text><path d="M248.9188,491.7811 C209.6577,507.0207 167.8985,531.1603 144.9338,568.6686 C131.5352,590.552 130.3513,617.752 133.9452,642.8978 " fill="none" style="stroke: #A80036; stroke-width: 2.0833333333333335;"/><polygon fill="#A80036" points="135.7563,653.527,140.8212,633.6435,134.0063,643.2583,124.3914,636.4434,135.7563,653.527" style="stroke: #A80036; stroke-width: 2.0833333333333335;"/><text fill="#000000" font-family="CMU Serif" font-size="31.25" lengthAdjust="spacingAndGlyphs" textLength="68.75" x="151.1838" y="603.9256">Lock</text><path d="M373.3667,531.4082 C378.3563,543.579 383.0458,556.3645 386.6,568.6686 C418.9542,680.6707 435.5417,815.3103 443.2625,897.1686 " fill="none" style="stroke: #A80036; stroke-width: 2.0833333333333335;"/><polygon fill="#A80036" points="444.2479,907.8686,450.8213,888.4316,443.2898,897.4961,434.2253,889.9646,444.2479,907.8686" style="stroke: #A80036; stroke-width: 2.0833333333333335;"/><text fill="#000000" font-family="CMU Serif" font-size="31.25" lengthAdjust="spacingAndGlyphs" textLength="108.3333" x="436.6" y="731.0089">Submit</text><path d="M204.6156,654.0103 C230.3185,619.3561 262.2313,576.3249 288.9167,540.3457 " fill="none" style="stroke: #A80036; stroke-width: 2.0833333333333335;"/><polygon fill="#A80036" points="295.5813,531.3603,277.718,541.4554,289.3756,539.7267,291.1043,551.3844,295.5813,531.3603" style="stroke: #A80036; stroke-width: 2.0833333333333335;"/><text fill="#000000" font-family="CMU Serif" font-size="31.25" lengthAdjust="spacingAndGlyphs" textLength="100" x="274.1" y="603.9256">Unlock</text><path d="M194.7267,785.4415 C213.5277,813.8957 238.19,846.4249 265.7667,870.752 C278.4063,881.902 292.4813,892.327 307.0604,901.9249 " fill="none" style="stroke: #A80036; stroke-width: 2.0833333333333335;"/><polygon fill="#A80036" points="316.1938,907.7936,304.9256,890.6461,307.4307,902.1619,295.9149,904.667,316.1938,907.7936" style="stroke: #A80036; stroke-width: 2.0833333333333335;"/><text fill="#000000" font-family="CMU Serif" font-size="31.25" lengthAdjust="spacingAndGlyphs" textLength="108.3333" x="272.0167" y="858.0922">Submit</text><path d="M500.0479,907.704 C545.2708,842.5249 598.5958,739.2707 559.5167,654.0853 C535.6563,602.0707 489.3292,559.0832 445.6188,527.5436 " fill="none" style="stroke: #A80036; stroke-width: 2.0833333333333335;"/><polygon fill="#A80036" points="436.9188,521.3895,447.4123,539.0216,445.4224,527.4057,457.0383,525.4157,436.9188,521.3895" style="stroke: #A80036; stroke-width: 2.0833333333333335;"/><text fill="#000000" font-family="CMU Serif" font-size="31.25" lengthAdjust="spacingAndGlyphs" textLength="145.8333" x="580.35" y="731.0089">Unsubmit</text><path d="M552.6646,1039.6936 C610.6833,1075.3957 683.0979,1119.9582 742.5479,1156.5436 " fill="none" style="stroke: #A80036; stroke-width: 2.0833333333333335;"/><polygon fill="#A80036" points="751.975,1162.3436,740.3761,1145.4181,743.1043,1156.8831,731.6393,1159.6113,751.975,1162.3436" style="stroke: #A80036; stroke-width: 2.0833333333333335;"/><text fill="#000000" font-family="CMU Serif" font-size="31.25" lengthAdjust="spacingAndGlyphs" textLength="104.1667" x="694.9333" y="1112.2589">Accept</text><path d="M408.4396,1040.2145 C390.9021,1066.9332 369.7146,1097.9415 349.1,1124.9186 C341.725,1134.5707 333.7083,1144.4999 325.6208,1154.1895 " fill="none" style="stroke: #A80036; stroke-width: 2.0833333333333335;"/><polygon fill="#A80036" points="318.8208,1162.2603,337.274,1153.2888,325.5318,1154.2935,324.5271,1142.5513,318.8208,1162.2603" style="stroke: #A80036; stroke-width: 2.0833333333333335;"/><text fill="#000000" font-family="CMU Serif" font-size="31.25" lengthAdjust="spacingAndGlyphs" textLength="93.75" x="388.6833" y="1112.2589">Reject</text><path d="M222.116,1162.3645 C215.3477,1150.1749 208.7427,1137.3353 203.2671,1124.9186 C156.0773,1017.902 150.8213,880.1165 152.9542,796.4978 " fill="none" style="stroke: #A80036; stroke-width: 2.0833333333333335;"/><polygon fill="#A80036" points="153.2829,785.5686,144.3908,804.0602,152.9704,795.9806,161.05,804.5602,153.2829,785.5686" style="stroke: #A80036; stroke-width: 2.0833333333333335;"/><text fill="#000000" font-family="CMU Serif" font-size="31.25" lengthAdjust="spacingAndGlyphs" textLength="68.75" x="182.4338" y="985.1756">Lock</text><path d="M221.6083,1162.2436 C209.5371,1134.4228 203.361,1102.4207 219.9338,1077.002 C232.1785,1058.2207 248.7875,1042.9061 267.5063,1030.4249 " fill="none" style="stroke: #A80036; stroke-width: 2.0833333333333335;"/><polygon fill="#A80036" points="276.8542,1024.5207,256.5514,1027.4881,268.0472,1030.0835,265.4518,1041.5792,276.8542,1024.5207" style="stroke: #A80036; stroke-width: 2.0833333333333335;"/><text fill="#000000" font-family="CMU Serif" font-size="31.25" lengthAdjust="spacingAndGlyphs" textLength="108.3333" x="226.1838" y="1112.2589">Submit</text><path d="M773.0292,1293.8603 C727.2917,1329.2686 670.3,1373.3915 623.2667,1409.8061 " fill="none" style="stroke: #A80036; stroke-width: 2.0833333333333335;"/><polygon fill="#A80036" points="614.6042,1416.5103,634.5308,1411.6178,622.8397,1410.132,624.3255,1398.4409,614.6042,1416.5103" style="stroke: #A80036; stroke-width: 2.0833333333333335;"/><text fill="#000000" font-family="CMU Serif" font-size="31.25" lengthAdjust="spacingAndGlyphs" textLength="106.25" x="730.35" y="1366.4256">Secure</text><path d="M385.0958,1461.4457 C281.8958,1439.827 150.9977,1393.354 84.5171,1293.6686 C-17.8394,1140.1895 64.9954,911.2624 119.4092,795.0957 " fill="none" style="stroke: #A80036; stroke-width: 2.0833333333333335;"/><polygon fill="#A80036" points="123.926,785.5686,108.3615,798.9384,119.462,794.9803,123.4201,806.0808,123.926,785.5686" style="stroke: #A80036; stroke-width: 2.0833333333333335;"/><text fill="#000000" font-family="CMU Serif" font-size="31.25" lengthAdjust="spacingAndGlyphs" textLength="68.75" x="44.9337" y="1112.2589">Lock</text><path d="M533.7271,1416.0686 C533.7917,1335.5082 528.6917,1193.6186 497.0167,1077.002 C494.55,1067.9207 491.3,1058.6561 487.6521,1049.604 " fill="none" style="stroke: #A80036; stroke-width: 2.0833333333333335;"/><polygon fill="#A80036" points="483.5542,1039.8832,483.159,1060.3979,487.6007,1049.4818,498.5168,1053.9234,483.5542,1039.8832" style="stroke: #A80036; stroke-width: 2.0833333333333335;"/><text fill="#000000" font-family="CMU Serif" font-size="31.25" lengthAdjust="spacingAndGlyphs" textLength="108.3333" x="536.6" y="1239.3422">Submit</text><path d="M532.4333,1548.098 C532.4333,1585.4903 532.4333,1630.9451 532.4333,1660.0457 " fill="none" style="stroke: #A80036; stroke-width: 2.0833333333333335;"/><polygon fill="#A80036" points="532.4333,1670.7128,540.7667,1651.9628,532.4333,1660.2961,524.1,1651.9628,532.4333,1670.7128" style="stroke: #A80036; stroke-width: 2.0833333333333335;"/><text fill="#000000" font-family="CMU Serif" font-size="31.25" lengthAdjust="spacingAndGlyphs" textLength="362.5" x="538.6833" y="1620.5922">Delete folder (WebDAV)</text><rect fill="#FEFECE" height="1853.0436" rx="26.0417" ry="26.0417" style="stroke: #A80036; stroke-width: 3.125;" width="1670.8333" x="1160.4167" y="16.6667"/><rect fill="#FFFFFF" height="1775" rx="26.0417" ry="26.0417" style="stroke: #FFFFFF; stroke-width: 2.0833333333333335;" width="1658.3333" x="1166.6667" y="88.4603"/><line style="stroke: #A80036; stroke-width: 3.125;" x1="1160.4167" x2="2831.25" y1="82.2103" y2="82.2103"/><text fill="#000000" font-family="CMU Serif" font-size="31.25" lengthAdjust="spacingAndGlyphs" textLength="181.25" x="1905.2083" y="60.257">Vault Space</text><rect fill="#FEFECE" height="131.0872" rx="26.0417" ry="26.0417" style="stroke: #A80036; stroke-width: 3.125;" width="422.9167" x="1183.3333" y="273.877"/><line style="stroke: #A80036; stroke-width: 3.125;" x1="1183.3333" x2="1606.25" y1="339.4206" y2="339.4206"/><text fill="#000000" font-family="CMU Serif" font-size="31.25" lengthAdjust="spacingAndGlyphs" textLength="193.75" x="1297.9167" y="317.4672">INCOMPLETE</text><text fill="#000000" font-family="CMU Serif" font-size="31.25" lengthAdjust="spacingAndGlyphs" textLength="372.9167" x="1197.9167" y="383.0109">Incomplete datapackage</text><rect fill="#FEFECE" height="131.0872" rx="26.0417" ry="26.0417" style="stroke: #A80036; stroke-width: 3.125;" width="362.5" x="2263.5417" y="273.877"/><line style="stroke: #A80036; stroke-width: 3.125;" x1="2263.5417" x2="2626.0417" y1="339.4206" y2="339.4206"/><text fill="#000000" font-family="CMU Serif" font-size="31.25" lengthAdjust="spacingAndGlyphs" textLength="164.5833" x="2362.5" y="317.4672">COMPLETE</text><text fill="#000000" font-family="CMU Serif" font-size="31.25" lengthAdjust="spacingAndGlyphs" textLength="312.5" x="2278.125" y="383.0109">Legacy datapackage</text><rect fill="#FEFECE" height="131.0872" rx="26.0417" ry="26.0417" style="stroke: #A80036; stroke-width: 3.125;" width="439.5833" x="1643.75" y="273.877"/><line style="stroke: #A80036; stroke-width: 3.125;" x1="1643.75" x2="2083.3333" y1="339.4206" y2="339.4206"/><text fill="#000000" font-family="CMU Serif" font-size="31.25" lengthAdjust="spacingAndGlyphs" textLength="216.6667" x="1755.2083" y="317.4672">UNPUBLISHED</text><text fill="#000000" font-family="CMU Serif" font-size="31.25" lengthAdjust="spacingAndGlyphs" textLength="389.5833" x="1658.3333" y="383.0109">Unpublished datapackage</text><rect fill="#FEFECE" height="131.0872" rx="26.0417" ry="26.0417" style="stroke: #A80036; stroke-width: 3.125;" width="525" x="1851.0417" y="528.0436"/><line style="stroke: #A80036; stroke-width: 3.125;" x1="1851.0417" x2="2376.0417" y1="593.5872" y2="593.5872"/><text fill="#000000" font-family="CMU Serif" font-size="31.25" lengthAdjust="spacingAndGlyphs" textLength="475" x="1876.0417" y="571.6339">SUBMITTED_FOR_PUBLICATION</text><text fill="#000000" font-family="CMU Serif" font-size="31.25" lengthAdjust="spacingAndGlyphs" textLength="381.25" x="1865.625" y="637.1775">Submitted for publication</text><rect fill="#FEFECE" height="131.0872" rx="26.0417" ry="26.0417" style="stroke: #A80036; stroke-width: 3.125;" width="514.5833" x="1856.25" y="782.2103"/><line style="stroke: #A80036; stroke-width: 3.125;" x1="1856.25" x2="2370.8333" y1="847.7539" y2="847.7539"/><text fill="#000000" font-family="CMU Serif" font-size="31.25" lengthAdjust="spacingAndGlyphs" textLength="464.5833" x="1881.25" y="825.8006">APPROVED_FOR_PUBLICATION</text><text fill="#000000" font-family="CMU Serif" font-size="31.25" lengthAdjust="spacingAndGlyphs" textLength="289.5833" x="1870.8333" y="891.3442">Publication pending</text><rect fill="#FEFECE" height="131.0872" rx="26.0417" ry="26.0417" style="stroke: #A80036; stroke-width: 3.125;" width="220.8333" x="2003.125" y="990.5436"/><line style="stroke: #A80036; stroke-width: 3.125;" x1="2003.125" x2="2223.9583" y1="1056.0872" y2="1056.0872"/><text fill="#000000" font-family="CMU Serif" font-size="31.25" lengthAdjust="spacingAndGlyphs" textLength="170.8333" x="2028.125" y="1034.1339">PUBLISHED</text><text fill="#000000" font-family="CMU Serif" font-size="31.25" lengthAdjust="spacingAndGlyphs" textLength="141.6667" x="2017.7083" y="1099.6775">Published</text><rect fill="#FEFECE" height="131.0872" rx="26.0417" ry="26.0417" style="stroke: #A80036; stroke-width: 3.125;" width="445.8333" x="1713.5417" y="1244.7103"/><line style="stroke: #A80036; stroke-width: 3.125;" x1="1713.5417" x2="2159.375" y1="1310.2539" y2="1310.2539"/><text fill="#000000" font-family="CMU Serif" font-size="31.25" lengthAdjust="spacingAndGlyphs" textLength="395.8333" x="1738.5417" y="1288.3006">PENDING_DEPUBLICATION</text><text fill="#000000" font-family="CMU Serif" font-size="31.25" lengthAdjust="spacingAndGlyphs" textLength="331.25" x="1728.125" y="1353.8442">Depublication pending</text><rect fill="#FEFECE" height="131.0872" rx="26.0417" ry="26.0417" style="stroke: #A80036; stroke-width: 3.125;" width="262.5" x="1805.2083" y="1453.0436"/><line style="stroke: #A80036; stroke-width: 3.125;" x1="1805.2083" x2="2067.7083" y1="1518.5872" y2="1518.5872"/><text fill="#000000" font-family="CMU Serif" font-size="31.25" lengthAdjust="spacingAndGlyphs" textLength="212.5" x="1830.2083" y="1496.6339">DEPUBLISHED</text><text fill="#000000" font-family="CMU Serif" font-size="31.25" lengthAdjust="spacingAndGlyphs" textLength="183.3333" x="1819.7917" y="1562.1775">Depublished</text><rect fill="#FEFECE" height="131.0872" rx="26.0417" ry="26.0417" style="stroke: #A80036; stroke-width: 3.125;" width="443.75" x="1893.75" y="1707.2103"/><line style="stroke: #A80036; stroke-width: 3.125;" x1="1893.75" x2="2337.5" y1="1772.7539" y2="1772.7539"/><text fill="#000000" font-family="CMU Serif" font-size="31.25" lengthAdjust="spacingAndGlyphs" textLength="393.75" x="1918.75" y="1750.8006">PENDING_REPUBLICATION</text><text fill="#000000" font-family="CMU Serif" font-size="31.25" lengthAdjust="spacingAndGlyphs" textLength="329.1667" x="1908.3333" y="1816.3442">Republication pending</text><ellipse cx="1603.125" cy="130.127" fill="#000000" rx="20.8333" ry="20.8333" style="stroke: none; stroke-width: 2.0833333333333335;"/><path d="M1623.9313,134.8436 C1657.3583,139.9832 1723.7208,154.0249 1767.7083,188.4603 C1793.3771,208.5561 1814.2229,237.554 1829.8354,264.6353 " fill="none" style="stroke: #A80036; stroke-width: 2.0833333333333335;"/><polygon fill="#A80036" points="1834.9292,273.729,1833.032,253.2985,1829.8366,264.6421,1818.4929,261.4467,1834.9292,273.729" style="stroke: #A80036; stroke-width: 2.0833333333333335;"/><text fill="#000000" font-family="CMU Serif" font-size="31.25" lengthAdjust="spacingAndGlyphs" textLength="308.3333" x="1817.7083" y="223.7172">Create datapackage</text><path d="M1582.3979,134.0478 C1549.2979,138.0686 1484.4167,150.5728 1446.875,188.4603 C1426.9583,208.5603 1414.6333,236.6915 1407.0188,263.0978 " fill="none" style="stroke: #A80036; stroke-width: 2.0833333333333335;"/><polygon fill="#A80036" points="1404.2292,273.4999,1417.1373,257.5503,1406.9289,263.4391,1401.0401,253.2308,1404.2292,273.4999" style="stroke: #A80036; stroke-width: 2.0833333333333335;"/><text fill="#000000" font-family="CMU Serif" font-size="31.25" lengthAdjust="spacingAndGlyphs" textLength="308.3333" x="1453.125" y="223.7172">Create datapackage</text><path d="M1751.3729,405.204 C1720.5771,430.7645 1701.1854,461.1124 1723.9583,490.5436 C1741.2667,512.9145 1786.5938,531.2415 1840.4833,545.8457 " fill="none" style="stroke: #A80036; stroke-width: 2.0833333333333335;"/><polygon fill="#A80036" points="1850.6417,548.529,1834.6421,535.683,1840.5705,545.8684,1830.3851,551.7968,1850.6417,548.529" style="stroke: #A80036; stroke-width: 2.0833333333333335;"/><text fill="#000000" font-family="CMU Serif" font-size="31.25" lengthAdjust="spacingAndGlyphs" textLength="331.25" x="1730.2083" y="477.8839">Submit for publication</text><path d="M2432.3854,405.5103 C2423.8271,434.7124 2409.6479,467.7811 2386.4583,490.5436 C2374.3646,502.4145 2360.7563,512.9082 2346.2354,522.1832 " fill="none" style="stroke: #A80036; stroke-width: 2.0833333333333335;"/><polygon fill="#A80036" points="2337.0833,527.802,2357.4225,525.0955,2345.961,522.3527,2348.7038,510.8912,2337.0833,527.802" style="stroke: #A80036; stroke-width: 2.0833333333333335;"/><text fill="#000000" font-family="CMU Serif" font-size="31.25" lengthAdjust="spacingAndGlyphs" textLength="331.25" x="2423.9583" y="477.8839">Submit for publication</text><path d="M2113.5417,659.4853 C2113.5417,693.5707 2113.5417,735.7332 2113.5417,771.3186 " fill="none" style="stroke: #A80036; stroke-width: 2.0833333333333335;"/><polygon fill="#A80036" points="2113.5417,782.1353,2121.875,763.3853,2113.5417,771.7186,2105.2083,763.3853,2113.5417,782.1353" style="stroke: #A80036; stroke-width: 2.0833333333333335;"/><text fill="#000000" font-family="CMU Serif" font-size="31.25" lengthAdjust="spacingAndGlyphs" textLength="347.9167" x="2119.7917" y="732.0506">Approve for publication</text><path d="M2105.4938,527.3686 C2099.1667,498.7936 2087.8688,466.327 2067.7083,442.627 C2057.9229,431.1228 2046.5146,420.804 2034.1833,411.5707 " fill="none" style="stroke: #A80036; stroke-width: 2.0833333333333335;"/><polygon fill="#A80036" points="2025.5083,405.3499,2035.8899,423.0482,2033.9737,411.4199,2045.6019,409.5037,2025.5083,405.3499" style="stroke: #A80036; stroke-width: 2.0833333333333335;"/><text fill="#000000" font-family="CMU Serif" font-size="31.25" lengthAdjust="spacingAndGlyphs" textLength="270.8333" x="2101.0417" y="477.8839">Cancel publication</text><path d="M2113.5417,913.9582 C2113.5417,934.8624 2113.5417,958.2499 2113.5417,979.8374 " fill="none" style="stroke: #A80036; stroke-width: 2.0833333333333335;"/><polygon fill="#A80036" points="2113.5417,990.2728,2121.875,971.5228,2113.5417,979.8561,2105.2083,971.5228,2113.5417,990.2728" style="stroke: #A80036; stroke-width: 2.0833333333333335;"/><path d="M2002.2875,1098.4478 C1976.1667,1113.3957 1951.5688,1133.277 1936.4583,1159.2936 C1923.6167,1181.4061 1920.6958,1208.6582 1921.9458,1233.7811 " fill="none" style="stroke: #A80036; stroke-width: 2.0833333333333335;"/><polygon fill="#A80036" points="1922.7208,1244.3957,1929.6657,1225.0883,1921.9618,1234.0067,1913.0433,1226.3028,1922.7208,1244.3957" style="stroke: #A80036; stroke-width: 2.0833333333333335;"/><text fill="#000000" font-family="CMU Serif" font-size="31.25" lengthAdjust="spacingAndGlyphs" textLength="316.6667" x="1942.7083" y="1194.5506">Depublish publication</text><path d="M1936.4583,1376.4582 C1936.4583,1397.3624 1936.4583,1420.7499 1936.4583,1442.3374 " fill="none" style="stroke: #A80036; stroke-width: 2.0833333333333335;"/><polygon fill="#A80036" points="1936.4583,1452.7728,1944.7917,1434.0228,1936.4583,1442.3561,1928.125,1434.0228,1936.4583,1452.7728" style="stroke: #A80036; stroke-width: 2.0833333333333335;"/><path d="M1923.7792,1584.702 C1921.5417,1612.5686 1923.6875,1644.5407 1938.5417,1669.7103 C1945.0063,1680.6655 1953.1458,1690.5359 1962.3625,1699.4105 " fill="none" style="stroke: #A80036; stroke-width: 2.0833333333333335;"/><polygon fill="#A80036" points="1970.3458,1706.633,1962.0321,1687.8743,1962.6212,1699.6447,1950.8508,1700.2337,1970.3458,1706.633" style="stroke: #A80036; stroke-width: 2.0833333333333335;"/><text fill="#000000" font-family="CMU Serif" font-size="31.25" lengthAdjust="spacingAndGlyphs" textLength="314.5833" x="1944.7917" y="1657.0506">Republish publication</text><path d="M2236.3688,1706.6909 C2248.0333,1695.8699 2258.25,1683.5699 2265.625,1669.7103 C2372.1875,1469.4457 2372.825,1359.2186 2265.625,1159.2936 C2257.4375,1144.0249 2245.8146,1130.6686 2232.5938,1119.1082 " fill="none" style="stroke: #A80036; stroke-width: 2.0833333333333335;"/><polygon fill="#A80036" points="2224.1729,1112.1395,2233.3088,1130.5118,2232.1993,1118.779,2243.9321,1117.6695,2224.1729,1112.1395" style="stroke: #A80036; stroke-width: 2.0833333333333335;"/></g></svg>