<?xml version="1.0" encoding="UTF-8" standalone="yes"?><svg xmlns="http://www.w3.org/2000/svg" xmlns:xlink="http://www.w3.org/1999/xlink" height="2443.75px" style="width:3589px;height:2443px;" version="1.1" viewBox="0 0 3589 2443" width="3589.5833px"><defs/><g><rect fill="#FFFFFF" height="1993.75" style="stroke: #000000; stroke-width: 4.166666666666667;" width="2152.0833" x="45.8333" y="50"/><text fill="#000000" font-family="CMU Serif" font-size="31.25" font-weight="bold" lengthAdjust="spacingAndGlyphs" textLength="239.5833" x="1002.0833" y="87.3403">Yoda instance</text><polygon fill="#FFFFFF" points="1158.3333,587.5,1375,587.5,1389.5833,644.7103,2147.9167,644.7103,2147.9167,1006.25,1158.3333,1006.25,1158.3333,587.5" style="stroke: #000000; stroke-width: 4.166666666666667;"/><line style="stroke: #000000; stroke-width: 4.166666666666667;" x1="1158.3333" x2="1389.5833" y1="644.7103" y2="644.7103"/><text fill="#000000" font-family="CMU Serif" font-size="31.25" font-weight="bold" lengthAdjust="spacingAndGlyphs" textLength="195.8333" x="1170.8333" y="624.8403">Yoda portal</text><rect fill="#FFFFFF" height="235.4167" style="stroke: #000000; stroke-width: 4.166666666666667;" width="495.8333" x="1585.4167" y="704.1667"/><text fill="#000000" font-family="CMU Serif" font-size="31.25" font-weight="bold" lengthAdjust="spacingAndGlyphs" textLength="316.6667" x="1675" y="741.507">Apache webserver</text><polygon fill="#FFFFFF" points="1056.25,1610.4167,1310.4167,1610.4167,1325,1667.627,1522.9167,1667.627,1522.9167,1993.75,1056.25,1993.75,1056.25,1610.4167" style="stroke: #000000; stroke-width: 4.166666666666667;"/><line style="stroke: #000000; stroke-width: 4.166666666666667;" x1="1056.25" x2="1325" y1="1667.627" y2="1667.627"/><text fill="#000000" font-family="CMU Serif" font-size="31.25" font-weight="bold" lengthAdjust="spacingAndGlyphs" textLength="233.3333" x="1068.75" y="1647.757">Yoda databse</text><path d="M1106.25,1731.25 C1106.25,1710.4167 1289.5833,1710.4167 1289.5833,1710.4167 C1289.5833,1710.4167 1472.9167,1710.4167 1472.9167,1731.25 L1472.9167,1922.9167 C1472.9167,1943.75 1289.5833,1943.75 1289.5833,1943.75 C1289.5833,1943.75 1106.25,1943.75 1106.25,1922.9167 L1106.25,1731.25 " fill="#FFFFFF" style="stroke: #000000; stroke-width: 4.166666666666667;"/><path d="M1106.25,1731.25 C1106.25,1752.0833 1289.5833,1752.0833 1289.5833,1752.0833 C1289.5833,1752.0833 1472.9167,1752.0833 1472.9167,1731.25 " fill="none" style="stroke: #000000; stroke-width: 4.166666666666667;"/><text fill="#000000" font-family="CMU Serif" font-size="31.25" font-weight="bold" lengthAdjust="spacingAndGlyphs" textLength="200" x="1189.5833" y="1787.3403">PostgreSQL</text><polygon fill="#FFFFFF" points="1206.25,1075,1397.9167,1075,1412.5,1132.2103,2147.9167,1132.2103,2147.9167,1493.75,1206.25,1493.75,1206.25,1075" style="stroke: #000000; stroke-width: 4.166666666666667;"/><line style="stroke: #000000; stroke-width: 4.166666666666667;" x1="1206.25" x2="1412.5" y1="1132.2103" y2="1132.2103"/><text fill="#000000" font-family="CMU Serif" font-size="31.25" font-weight="bold" lengthAdjust="spacingAndGlyphs" textLength="170.8333" x="1218.75" y="1112.3403">Yoda iCAT</text><rect fill="#FFFFFF" height="235.4167" style="stroke: #000000; stroke-width: 4.166666666666667;" width="808.3333" x="1272.9167" y="1191.6667"/><text fill="#000000" font-family="CMU Serif" font-size="31.25" font-weight="bold" lengthAdjust="spacingAndGlyphs" textLength="193.75" x="1580.2083" y="1229.007">iRODS iCAT</text><polygon fill="#FFFFFF" points="95.8333,150,362.5,150,377.0833,207.2103,1108.3333,207.2103,1108.3333,972.9167,95.8333,972.9167,95.8333,150" style="stroke: #000000; stroke-width: 4.166666666666667;"/><line style="stroke: #000000; stroke-width: 4.166666666666667;" x1="95.8333" x2="377.0833" y1="207.2103" y2="207.2103"/><text fill="#000000" font-family="CMU Serif" font-size="31.25" font-weight="bold" lengthAdjust="spacingAndGlyphs" textLength="245.8333" x="108.3333" y="187.3403">Yoda resource</text><rect fill="#FFFFFF" height="235.4167" style="stroke: #000000; stroke-width: 4.166666666666667;" width="808.3333" x="233.3333" y="266.6667"/><text fill="#000000" font-family="CMU Serif" font-size="31.25" font-weight="bold" lengthAdjust="spacingAndGlyphs" textLength="268.75" x="503.125" y="304.007">iRODS resource</text><path d="M152.0833,743.75 C152.0833,737.5 156.25,733.3333 162.5,733.3333 C168.75,733.3333 172.9167,737.5 172.9167,743.75 C172.9167,737.5 177.0833,733.3333 183.3333,733.3333 C189.5833,733.3333 193.75,737.5 193.75,743.75 C193.75,737.5 197.9167,733.3333 204.1667,733.3333 C210.4167,733.3333 214.5833,737.5 214.5833,743.75 C214.5833,737.5 218.75,733.3333 225,733.3333 C231.25,733.3333 235.4167,737.5 235.4167,743.75 C235.4167,737.5 239.5833,733.3333 245.8333,733.3333 C252.0833,733.3333 256.25,737.5 256.25,743.75 C256.25,737.5 260.4167,733.3333 266.6667,733.3333 C272.9167,733.3333 277.0833,737.5 277.0833,743.75 C277.0833,737.5 281.25,733.3333 287.5,733.3333 C293.75,733.3333 297.9167,737.5 297.9167,743.75 C297.9167,737.5 302.0833,733.3333 308.3333,733.3333 C314.5833,733.3333 318.75,737.5 318.75,743.75 C318.75,737.5 322.9167,733.3333 329.1667,733.3333 C335.4167,733.3333 339.5833,737.5 339.5833,743.75 C339.5833,737.5 343.75,733.3333 350,733.3333 C356.25,733.3333 360.4167,737.5 360.4167,743.75 C360.4167,737.5 364.5833,733.3333 370.8333,733.3333 C377.0833,733.3333 381.25,737.5 381.25,743.75 C381.25,737.5 385.4167,733.3333 391.6667,733.3333 C397.9167,733.3333 402.0833,737.5 402.0833,743.75 C408.3333,743.75 412.5,747.9167 412.5,754.1667 C412.5,760.4167 408.3333,764.5833 402.0833,764.5833 C408.3333,764.5833 412.5,768.75 412.5,775 C412.5,781.25 408.3333,785.4167 402.0833,785.4167 C408.3333,785.4167 412.5,789.5833 412.5,795.8333 C412.5,802.0833 408.3333,806.25 402.0833,806.25 C408.3333,806.25 412.5,810.4167 412.5,816.6667 C412.5,822.9167 408.3333,827.0833 402.0833,827.0833 C408.3333,827.0833 412.5,831.25 412.5,837.5 C412.5,843.75 408.3333,847.9167 402.0833,847.9167 C408.3333,847.9167 412.5,852.0833 412.5,858.3333 C412.5,864.5833 408.3333,868.75 402.0833,868.75 C408.3333,868.75 412.5,872.9167 412.5,879.1667 C412.5,885.4167 408.3333,889.5833 402.0833,889.5833 C408.3333,889.5833 412.5,893.75 412.5,900 C412.5,906.25 408.3333,910.4167 402.0833,910.4167 C402.0833,916.6667 395.8333,920.8333 391.6667,920.8333 C385.4167,920.8333 381.25,916.6667 381.25,910.4167 C381.25,916.6667 375,920.8333 370.8333,920.8333 C364.5833,920.8333 360.4167,916.6667 360.4167,910.4167 C360.4167,916.6667 354.1667,920.8333 350,920.8333 C343.75,920.8333 339.5833,916.6667 339.5833,910.4167 C339.5833,916.6667 333.3333,920.8333 329.1667,920.8333 C322.9167,920.8333 318.75,916.6667 318.75,910.4167 C318.75,916.6667 312.5,920.8333 308.3333,920.8333 C302.0833,920.8333 297.9167,916.6667 297.9167,910.4167 C297.9167,916.6667 291.6667,920.8333 287.5,920.8333 C281.25,920.8333 277.0833,916.6667 277.0833,910.4167 C277.0833,916.6667 270.8333,920.8333 266.6667,920.8333 C260.4167,920.8333 256.25,916.6667 256.25,910.4167 C256.25,916.6667 250,920.8333 245.8333,920.8333 C239.5833,920.8333 235.4167,916.6667 235.4167,910.4167 C235.4167,916.6667 229.1667,920.8333 225,920.8333 C218.75,920.8333 214.5833,916.6667 214.5833,910.4167 C214.5833,916.6667 208.3333,920.8333 204.1667,920.8333 C197.9167,920.8333 193.75,916.6667 193.75,910.4167 C193.75,916.6667 187.5,920.8333 183.3333,920.8333 C177.0833,920.8333 172.9167,916.6667 172.9167,910.4167 C172.9167,916.6667 166.6667,920.8333 162.5,920.8333 C156.25,920.8333 152.0833,916.6667 152.0833,910.4167 C145.8333,910.4167 141.6667,906.25 141.6667,900 C141.6667,893.75 145.8333,889.5833 152.0833,889.5833 C145.8333,889.5833 141.6667,885.4167 141.6667,879.1667 C141.6667,872.9167 145.8333,868.75 152.0833,868.75 C145.8333,868.75 141.6667,864.5833 141.6667,858.3333 C141.6667,852.0833 145.8333,847.9167 152.0833,847.9167 C145.8333,847.9167 141.6667,843.75 141.6667,837.5 C141.6667,831.25 145.8333,827.0833 152.0833,827.0833 C145.8333,827.0833 141.6667,822.9167 141.6667,816.6667 C141.6667,810.4167 145.8333,806.25 152.0833,806.25 C145.8333,806.25 141.6667,802.0833 141.6667,795.8333 C141.6667,789.5833 145.8333,785.4167 152.0833,785.4167 C145.8333,785.4167 141.6667,781.25 141.6667,775 C141.6667,768.75 145.8333,764.5833 152.0833,764.5833 C145.8333,764.5833 141.6667,760.4167 141.6667,754.1667 C141.6667,747.9167 145.8333,743.75 152.0833,743.75 " fill="#FFFFFF" style="stroke: #000000; stroke-width: 4.166666666666667;"/><path d="M468.75,743.75 C468.75,737.5 472.9167,733.3333 479.1667,733.3333 C485.4167,733.3333 489.5833,737.5 489.5833,743.75 C489.5833,737.5 493.75,733.3333 500,733.3333 C506.25,733.3333 510.4167,737.5 510.4167,743.75 C510.4167,737.5 514.5833,733.3333 520.8333,733.3333 C527.0833,733.3333 531.25,737.5 531.25,743.75 C531.25,737.5 535.4167,733.3333 541.6667,733.3333 C547.9167,733.3333 552.0833,737.5 552.0833,743.75 C552.0833,737.5 556.25,733.3333 562.5,733.3333 C568.75,733.3333 572.9167,737.5 572.9167,743.75 C572.9167,737.5 577.0833,733.3333 583.3333,733.3333 C589.5833,733.3333 593.75,737.5 593.75,743.75 C593.75,737.5 597.9167,733.3333 604.1667,733.3333 C610.4167,733.3333 614.5833,737.5 614.5833,743.75 C614.5833,737.5 618.75,733.3333 625,733.3333 C631.25,733.3333 635.4167,737.5 635.4167,743.75 C635.4167,737.5 639.5833,733.3333 645.8333,733.3333 C652.0833,733.3333 656.25,737.5 656.25,743.75 C656.25,737.5 660.4167,733.3333 666.6667,733.3333 C672.9167,733.3333 677.0833,737.5 677.0833,743.75 C677.0833,737.5 681.25,733.3333 687.5,733.3333 C693.75,733.3333 697.9167,737.5 697.9167,743.75 C697.9167,737.5 702.0833,733.3333 708.3333,733.3333 C714.5833,733.3333 718.75,737.5 718.75,743.75 C725,743.75 729.1667,747.9167 729.1667,754.1667 C729.1667,760.4167 725,764.5833 718.75,764.5833 C725,764.5833 729.1667,768.75 729.1667,775 C729.1667,781.25 725,785.4167 718.75,785.4167 C725,785.4167 729.1667,789.5833 729.1667,795.8333 C729.1667,802.0833 725,806.25 718.75,806.25 C725,806.25 729.1667,810.4167 729.1667,816.6667 C729.1667,822.9167 725,827.0833 718.75,827.0833 C725,827.0833 729.1667,831.25 729.1667,837.5 C729.1667,843.75 725,847.9167 718.75,847.9167 C725,847.9167 729.1667,852.0833 729.1667,858.3333 C729.1667,864.5833 725,868.75 718.75,868.75 C725,868.75 729.1667,872.9167 729.1667,879.1667 C729.1667,885.4167 725,889.5833 718.75,889.5833 C725,889.5833 729.1667,893.75 729.1667,900 C729.1667,906.25 725,910.4167 718.75,910.4167 C718.75,916.6667 712.5,920.8333 708.3333,920.8333 C702.0833,920.8333 697.9167,916.6667 697.9167,910.4167 C697.9167,916.6667 691.6667,920.8333 687.5,920.8333 C681.25,920.8333 677.0833,916.6667 677.0833,910.4167 C677.0833,916.6667 670.8333,920.8333 666.6667,920.8333 C660.4167,920.8333 656.25,916.6667 656.25,910.4167 C656.25,916.6667 650,920.8333 645.8333,920.8333 C639.5833,920.8333 635.4167,916.6667 635.4167,910.4167 C635.4167,916.6667 629.1667,920.8333 625,920.8333 C618.75,920.8333 614.5833,916.6667 614.5833,910.4167 C614.5833,916.6667 608.3333,920.8333 604.1667,920.8333 C597.9167,920.8333 593.75,916.6667 593.75,910.4167 C593.75,916.6667 587.5,920.8333 583.3333,920.8333 C577.0833,920.8333 572.9167,916.6667 572.9167,910.4167 C572.9167,916.6667 566.6667,920.8333 562.5,920.8333 C556.25,920.8333 552.0833,916.6667 552.0833,910.4167 C552.0833,916.6667 545.8333,920.8333 541.6667,920.8333 C535.4167,920.8333 531.25,916.6667 531.25,910.4167 C531.25,916.6667 525,920.8333 520.8333,920.8333 C514.5833,920.8333 510.4167,916.6667 510.4167,910.4167 C510.4167,916.6667 504.1667,920.8333 500,920.8333 C493.75,920.8333 489.5833,916.6667 489.5833,910.4167 C489.5833,916.6667 483.3333,920.8333 479.1667,920.8333 C472.9167,920.8333 468.75,916.6667 468.75,910.4167 C462.5,910.4167 458.3333,906.25 458.3333,900 C458.3333,893.75 462.5,889.5833 468.75,889.5833 C462.5,889.5833 458.3333,885.4167 458.3333,879.1667 C458.3333,872.9167 462.5,868.75 468.75,868.75 C462.5,868.75 458.3333,864.5833 458.3333,858.3333 C458.3333,852.0833 462.5,847.9167 468.75,847.9167 C462.5,847.9167 458.3333,843.75 458.3333,837.5 C458.3333,831.25 462.5,827.0833 468.75,827.0833 C462.5,827.0833 458.3333,822.9167 458.3333,816.6667 C458.3333,810.4167 462.5,806.25 468.75,806.25 C462.5,806.25 458.3333,802.0833 458.3333,795.8333 C458.3333,789.5833 462.5,785.4167 468.75,785.4167 C462.5,785.4167 458.3333,781.25 458.3333,775 C458.3333,768.75 462.5,764.5833 468.75,764.5833 C462.5,764.5833 458.3333,760.4167 458.3333,754.1667 C458.3333,747.9167 462.5,743.75 468.75,743.75 " fill="#FFFFFF" style="stroke: #000000; stroke-width: 4.166666666666667;"/><path d="M785.4167,743.75 C785.4167,737.5 789.5833,733.3333 795.8333,733.3333 C802.0833,733.3333 806.25,737.5 806.25,743.75 C806.25,737.5 810.4167,733.3333 816.6667,733.3333 C822.9167,733.3333 827.0833,737.5 827.0833,743.75 C827.0833,737.5 831.25,733.3333 837.5,733.3333 C843.75,733.3333 847.9167,737.5 847.9167,743.75 C847.9167,737.5 852.0833,733.3333 858.3333,733.3333 C864.5833,733.3333 868.75,737.5 868.75,743.75 C868.75,737.5 872.9167,733.3333 879.1667,733.3333 C885.4167,733.3333 889.5833,737.5 889.5833,743.75 C889.5833,737.5 893.75,733.3333 900,733.3333 C906.25,733.3333 910.4167,737.5 910.4167,743.75 C910.4167,737.5 914.5833,733.3333 920.8333,733.3333 C927.0833,733.3333 931.25,737.5 931.25,743.75 C931.25,737.5 935.4167,733.3333 941.6667,733.3333 C947.9167,733.3333 952.0833,737.5 952.0833,743.75 C952.0833,737.5 956.25,733.3333 962.5,733.3333 C968.75,733.3333 972.9167,737.5 972.9167,743.75 C972.9167,737.5 977.0833,733.3333 983.3333,733.3333 C989.5833,733.3333 993.75,737.5 993.75,743.75 C993.75,737.5 997.9167,733.3333 1004.1667,733.3333 C1010.4167,733.3333 1014.5833,737.5 1014.5833,743.75 C1014.5833,737.5 1018.75,733.3333 1025,733.3333 C1031.25,733.3333 1035.4167,737.5 1035.4167,743.75 C1035.4167,737.5 1039.5833,733.3333 1045.8333,733.3333 C1052.0833,733.3333 1056.25,737.5 1056.25,743.75 C1062.5,743.75 1066.6667,747.9167 1066.6667,754.1667 C1066.6667,760.4167 1062.5,764.5833 1056.25,764.5833 C1062.5,764.5833 1066.6667,768.75 1066.6667,775 C1066.6667,781.25 1062.5,785.4167 1056.25,785.4167 C1062.5,785.4167 1066.6667,789.5833 1066.6667,795.8333 C1066.6667,802.0833 1062.5,806.25 1056.25,806.25 C1062.5,806.25 1066.6667,810.4167 1066.6667,816.6667 C1066.6667,822.9167 1062.5,827.0833 1056.25,827.0833 C1062.5,827.0833 1066.6667,831.25 1066.6667,837.5 C1066.6667,843.75 1062.5,847.9167 1056.25,847.9167 C1062.5,847.9167 1066.6667,852.0833 1066.6667,858.3333 C1066.6667,864.5833 1062.5,868.75 1056.25,868.75 C1062.5,868.75 1066.6667,872.9167 1066.6667,879.1667 C1066.6667,885.4167 1062.5,889.5833 1056.25,889.5833 C1062.5,889.5833 1066.6667,893.75 1066.6667,900 C1066.6667,906.25 1062.5,910.4167 1056.25,910.4167 C1056.25,916.6667 1050,920.8333 1045.8333,920.8333 C1039.5833,920.8333 1035.4167,916.6667 1035.4167,910.4167 C1035.4167,916.6667 1029.1667,920.8333 1025,920.8333 C1018.75,920.8333 1014.5833,916.6667 1014.5833,910.4167 C1014.5833,916.6667 1008.3333,920.8333 1004.1667,920.8333 C997.9167,920.8333 993.75,916.6667 993.75,910.4167 C993.75,916.6667 987.5,920.8333 983.3333,920.8333 C977.0833,920.8333 972.9167,916.6667 972.9167,910.4167 C972.9167,916.6667 966.6667,920.8333 962.5,920.8333 C956.25,920.8333 952.0833,916.6667 952.0833,910.4167 C952.0833,916.6667 945.8333,920.8333 941.6667,920.8333 C935.4167,920.8333 931.25,916.6667 931.25,910.4167 C931.25,916.6667 925,920.8333 920.8333,920.8333 C914.5833,920.8333 910.4167,916.6667 910.4167,910.4167 C910.4167,916.6667 904.1667,920.8333 900,920.8333 C893.75,920.8333 889.5833,916.6667 889.5833,910.4167 C889.5833,916.6667 883.3333,920.8333 879.1667,920.8333 C872.9167,920.8333 868.75,916.6667 868.75,910.4167 C868.75,916.6667 862.5,920.8333 858.3333,920.8333 C852.0833,920.8333 847.9167,916.6667 847.9167,910.4167 C847.9167,916.6667 841.6667,920.8333 837.5,920.8333 C831.25,920.8333 827.0833,916.6667 827.0833,910.4167 C827.0833,916.6667 820.8333,920.8333 816.6667,920.8333 C810.4167,920.8333 806.25,916.6667 806.25,910.4167 C806.25,916.6667 800,920.8333 795.8333,920.8333 C789.5833,920.8333 785.4167,916.6667 785.4167,910.4167 C779.1667,910.4167 775,906.25 775,900 C775,893.75 779.1667,889.5833 785.4167,889.5833 C779.1667,889.5833 775,885.4167 775,879.1667 C775,872.9167 779.1667,868.75 785.4167,868.75 C779.1667,868.75 775,864.5833 775,858.3333 C775,852.0833 779.1667,847.9167 785.4167,847.9167 C779.1667,847.9167 775,843.75 775,837.5 C775,831.25 779.1667,827.0833 785.4167,827.0833 C779.1667,827.0833 775,822.9167 775,816.6667 C775,810.4167 779.1667,806.25 785.4167,806.25 C779.1667,806.25 775,802.0833 775,795.8333 C775,789.5833 779.1667,785.4167 785.4167,785.4167 C779.1667,785.4167 775,781.25 775,775 C775,768.75 779.1667,764.5833 785.4167,764.5833 C779.1667,764.5833 775,760.4167 775,754.1667 C775,747.9167 779.1667,743.75 785.4167,743.75 " fill="#FFFFFF" style="stroke: #000000; stroke-width: 4.166666666666667;"/><rect fill="#FFFFFF" height="918.75" style="stroke: #000000; stroke-width: 4.166666666666667;" width="783.3333" x="2804.1667" y="1075"/><text fill="#000000" font-family="CMU Serif" font-size="31.25" font-weight="bold" lengthAdjust="spacingAndGlyphs" textLength="314.5833" x="3038.5417" y="1112.3403">Yoda Public server</text><rect fill="#FFFFFF" height="235.4167" style="stroke: #000000; stroke-width: 4.166666666666667;" width="439.5833" x="3000" y="1191.6667"/><text fill="#000000" font-family="CMU Serif" font-size="31.25" font-weight="bold" lengthAdjust="spacingAndGlyphs" textLength="316.6667" x="3061.4583" y="1229.007">Apache webserver</text><path d="M3235.4167,1764.5833 C3235.4167,1758.3333 3239.5833,1754.1667 3245.8333,1754.1667 C3252.0833,1754.1667 3256.25,1758.3333 3256.25,1764.5833 C3256.25,1758.3333 3260.4167,1754.1667 3266.6667,1754.1667 C3272.9167,1754.1667 3277.0833,1758.3333 3277.0833,1764.5833 C3277.0833,1758.3333 3281.25,1754.1667 3287.5,1754.1667 C3293.75,1754.1667 3297.9167,1758.3333 3297.9167,1764.5833 C3297.9167,1758.3333 3302.0833,1754.1667 3308.3333,1754.1667 C3314.5833,1754.1667 3318.75,1758.3333 3318.75,1764.5833 C3318.75,1758.3333 3322.9167,1754.1667 3329.1667,1754.1667 C3335.4167,1754.1667 3339.5833,1758.3333 3339.5833,1764.5833 C3339.5833,1758.3333 3343.75,1754.1667 3350,1754.1667 C3356.25,1754.1667 3360.4167,1758.3333 3360.4167,1764.5833 C3360.4167,1758.3333 3364.5833,1754.1667 3370.8333,1754.1667 C3377.0833,1754.1667 3381.25,1758.3333 3381.25,1764.5833 C3381.25,1758.3333 3385.4167,1754.1667 3391.6667,1754.1667 C3397.9167,1754.1667 3402.0833,1758.3333 3402.0833,1764.5833 C3402.0833,1758.3333 3406.25,1754.1667 3412.5,1754.1667 C3418.75,1754.1667 3422.9167,1758.3333 3422.9167,1764.5833 C3422.9167,1758.3333 3427.0833,1754.1667 3433.3333,1754.1667 C3439.5833,1754.1667 3443.75,1758.3333 3443.75,1764.5833 C3443.75,1758.3333 3447.9167,1754.1667 3454.1667,1754.1667 C3460.4167,1754.1667 3464.5833,1758.3333 3464.5833,1764.5833 C3464.5833,1758.3333 3468.75,1754.1667 3475,1754.1667 C3481.25,1754.1667 3485.4167,1758.3333 3485.4167,1764.5833 C3485.4167,1758.3333 3489.5833,1754.1667 3495.8333,1754.1667 C3502.0833,1754.1667 3506.25,1758.3333 3506.25,1764.5833 C3506.25,1758.3333 3510.4167,1754.1667 3516.6667,1754.1667 C3522.9167,1754.1667 3527.0833,1758.3333 3527.0833,1764.5833 C3533.3333,1764.5833 3537.5,1768.75 3537.5,1775 C3537.5,1781.25 3533.3333,1785.4167 3527.0833,1785.4167 C3533.3333,1785.4167 3537.5,1789.5833 3537.5,1795.8333 C3537.5,1802.0833 3533.3333,1806.25 3527.0833,1806.25 C3533.3333,1806.25 3537.5,1810.4167 3537.5,1816.6667 C3537.5,1822.9167 3533.3333,1827.0833 3527.0833,1827.0833 C3533.3333,1827.0833 3537.5,1831.25 3537.5,1837.5 C3537.5,1843.75 3533.3333,1847.9167 3527.0833,1847.9167 C3533.3333,1847.9167 3537.5,1852.0833 3537.5,1858.3333 C3537.5,1864.5833 3533.3333,1868.75 3527.0833,1868.75 C3533.3333,1868.75 3537.5,1872.9167 3537.5,1879.1667 C3537.5,1885.4167 3533.3333,1889.5833 3527.0833,1889.5833 C3533.3333,1889.5833 3537.5,1893.75 3537.5,1900 C3537.5,1906.25 3533.3333,1910.4167 3527.0833,1910.4167 C3533.3333,1910.4167 3537.5,1914.5833 3537.5,1920.8333 C3537.5,1927.0833 3533.3333,1931.25 3527.0833,1931.25 C3527.0833,1937.5 3520.8333,1941.6667 3516.6667,1941.6667 C3510.4167,1941.6667 3506.25,1937.5 3506.25,1931.25 C3506.25,1937.5 3500,1941.6667 3495.8333,1941.6667 C3489.5833,1941.6667 3485.4167,1937.5 3485.4167,1931.25 C3485.4167,1937.5 3479.1667,1941.6667 3475,1941.6667 C3468.75,1941.6667 3464.5833,1937.5 3464.5833,1931.25 C3464.5833,1937.5 3458.3333,1941.6667 3454.1667,1941.6667 C3447.9167,1941.6667 3443.75,1937.5 3443.75,1931.25 C3443.75,1937.5 3437.5,1941.6667 3433.3333,1941.6667 C3427.0833,1941.6667 3422.9167,1937.5 3422.9167,1931.25 C3422.9167,1937.5 3416.6667,1941.6667 3412.5,1941.6667 C3406.25,1941.6667 3402.0833,1937.5 3402.0833,1931.25 C3402.0833,1937.5 3395.8333,1941.6667 3391.6667,1941.6667 C3385.4167,1941.6667 3381.25,1937.5 3381.25,1931.25 C3381.25,1937.5 3375,1941.6667 3370.8333,1941.6667 C3364.5833,1941.6667 3360.4167,1937.5 3360.4167,1931.25 C3360.4167,1937.5 3354.1667,1941.6667 3350,1941.6667 C3343.75,1941.6667 3339.5833,1937.5 3339.5833,1931.25 C3339.5833,1937.5 3333.3333,1941.6667 3329.1667,1941.6667 C3322.9167,1941.6667 3318.75,1937.5 3318.75,1931.25 C3318.75,1937.5 3312.5,1941.6667 3308.3333,1941.6667 C3302.0833,1941.6667 3297.9167,1937.5 3297.9167,1931.25 C3297.9167,1937.5 3291.6667,1941.6667 3287.5,1941.6667 C3281.25,1941.6667 3277.0833,1937.5 3277.0833,1931.25 C3277.0833,1937.5 3270.8333,1941.6667 3266.6667,1941.6667 C3260.4167,1941.6667 3256.25,1937.5 3256.25,1931.25 C3256.25,1937.5 3250,1941.6667 3245.8333,1941.6667 C3239.5833,1941.6667 3235.4167,1937.5 3235.4167,1931.25 C3229.1667,1931.25 3225,1927.0833 3225,1920.8333 C3225,1914.5833 3229.1667,1910.4167 3235.4167,1910.4167 C3229.1667,1910.4167 3225,1906.25 3225,1900 C3225,1893.75 3229.1667,1889.5833 3235.4167,1889.5833 C3229.1667,1889.5833 3225,1885.4167 3225,1879.1667 C3225,1872.9167 3229.1667,1868.75 3235.4167,1868.75 C3229.1667,1868.75 3225,1864.5833 3225,1858.3333 C3225,1852.0833 3229.1667,1847.9167 3235.4167,1847.9167 C3229.1667,1847.9167 3225,1843.75 3225,1837.5 C3225,1831.25 3229.1667,1827.0833 3235.4167,1827.0833 C3229.1667,1827.0833 3225,1822.9167 3225,1816.6667 C3225,1810.4167 3229.1667,1806.25 3235.4167,1806.25 C3229.1667,1806.25 3225,1802.0833 3225,1795.8333 C3225,1789.5833 3229.1667,1785.4167 3235.4167,1785.4167 C3229.1667,1785.4167 3225,1781.25 3225,1775 C3225,1768.75 3229.1667,1764.5833 3235.4167,1764.5833 " fill="#FFFFFF" style="stroke: #000000; stroke-width: 4.166666666666667;"/><path d="M2860.4167,1764.5833 C2860.4167,1758.3333 2864.5833,1754.1667 2870.8333,1754.1667 C2877.0833,1754.1667 2881.25,1758.3333 2881.25,1764.5833 C2881.25,1758.3333 2885.4167,1754.1667 2891.6667,1754.1667 C2897.9167,1754.1667 2902.0833,1758.3333 2902.0833,1764.5833 C2902.0833,1758.3333 2906.25,1754.1667 2912.5,1754.1667 C2918.75,1754.1667 2922.9167,1758.3333 2922.9167,1764.5833 C2922.9167,1758.3333 2927.0833,1754.1667 2933.3333,1754.1667 C2939.5833,1754.1667 2943.75,1758.3333 2943.75,1764.5833 C2943.75,1758.3333 2947.9167,1754.1667 2954.1667,1754.1667 C2960.4167,1754.1667 2964.5833,1758.3333 2964.5833,1764.5833 C2964.5833,1758.3333 2968.75,1754.1667 2975,1754.1667 C2981.25,1754.1667 2985.4167,1758.3333 2985.4167,1764.5833 C2985.4167,1758.3333 2989.5833,1754.1667 2995.8333,1754.1667 C3002.0833,1754.1667 3006.25,1758.3333 3006.25,1764.5833 C3006.25,1758.3333 3010.4167,1754.1667 3016.6667,1754.1667 C3022.9167,1754.1667 3027.0833,1758.3333 3027.0833,1764.5833 C3027.0833,1758.3333 3031.25,1754.1667 3037.5,1754.1667 C3043.75,1754.1667 3047.9167,1758.3333 3047.9167,1764.5833 C3047.9167,1758.3333 3052.0833,1754.1667 3058.3333,1754.1667 C3064.5833,1754.1667 3068.75,1758.3333 3068.75,1764.5833 C3068.75,1758.3333 3072.9167,1754.1667 3079.1667,1754.1667 C3085.4167,1754.1667 3089.5833,1758.3333 3089.5833,1764.5833 C3089.5833,1758.3333 3093.75,1754.1667 3100,1754.1667 C3106.25,1754.1667 3110.4167,1758.3333 3110.4167,1764.5833 C3110.4167,1758.3333 3114.5833,1754.1667 3120.8333,1754.1667 C3127.0833,1754.1667 3131.25,1758.3333 3131.25,1764.5833 C3131.25,1758.3333 3135.4167,1754.1667 3141.6667,1754.1667 C3147.9167,1754.1667 3152.0833,1758.3333 3152.0833,1764.5833 C3152.0833,1758.3333 3156.25,1754.1667 3162.5,1754.1667 C3168.75,1754.1667 3172.9167,1758.3333 3172.9167,1764.5833 C3179.1667,1764.5833 3183.3333,1768.75 3183.3333,1775 C3183.3333,1781.25 3179.1667,1785.4167 3172.9167,1785.4167 C3179.1667,1785.4167 3183.3333,1789.5833 3183.3333,1795.8333 C3183.3333,1802.0833 3179.1667,1806.25 3172.9167,1806.25 C3179.1667,1806.25 3183.3333,1810.4167 3183.3333,1816.6667 C3183.3333,1822.9167 3179.1667,1827.0833 3172.9167,1827.0833 C3179.1667,1827.0833 3183.3333,1831.25 3183.3333,1837.5 C3183.3333,1843.75 3179.1667,1847.9167 3172.9167,1847.9167 C3179.1667,1847.9167 3183.3333,1852.0833 3183.3333,1858.3333 C3183.3333,1864.5833 3179.1667,1868.75 3172.9167,1868.75 C3179.1667,1868.75 3183.3333,1872.9167 3183.3333,1879.1667 C3183.3333,1885.4167 3179.1667,1889.5833 3172.9167,1889.5833 C3179.1667,1889.5833 3183.3333,1893.75 3183.3333,1900 C3183.3333,1906.25 3179.1667,1910.4167 3172.9167,1910.4167 C3179.1667,1910.4167 3183.3333,1914.5833 3183.3333,1920.8333 C3183.3333,1927.0833 3179.1667,1931.25 3172.9167,1931.25 C3172.9167,1937.5 3166.6667,1941.6667 3162.5,1941.6667 C3156.25,1941.6667 3152.0833,1937.5 3152.0833,1931.25 C3152.0833,1937.5 3145.8333,1941.6667 3141.6667,1941.6667 C3135.4167,1941.6667 3131.25,1937.5 3131.25,1931.25 C3131.25,1937.5 3125,1941.6667 3120.8333,1941.6667 C3114.5833,1941.6667 3110.4167,1937.5 3110.4167,1931.25 C3110.4167,1937.5 3104.1667,1941.6667 3100,1941.6667 C3093.75,1941.6667 3089.5833,1937.5 3089.5833,1931.25 C3089.5833,1937.5 3083.3333,1941.6667 3079.1667,1941.6667 C3072.9167,1941.6667 3068.75,1937.5 3068.75,1931.25 C3068.75,1937.5 3062.5,1941.6667 3058.3333,1941.6667 C3052.0833,1941.6667 3047.9167,1937.5 3047.9167,1931.25 C3047.9167,1937.5 3041.6667,1941.6667 3037.5,1941.6667 C3031.25,1941.6667 3027.0833,1937.5 3027.0833,1931.25 C3027.0833,1937.5 3020.8333,1941.6667 3016.6667,1941.6667 C3010.4167,1941.6667 3006.25,1937.5 3006.25,1931.25 C3006.25,1937.5 3000,1941.6667 2995.8333,1941.6667 C2989.5833,1941.6667 2985.4167,1937.5 2985.4167,1931.25 C2985.4167,1937.5 2979.1667,1941.6667 2975,1941.6667 C2968.75,1941.6667 2964.5833,1937.5 2964.5833,1931.25 C2964.5833,1937.5 2958.3333,1941.6667 2954.1667,1941.6667 C2947.9167,1941.6667 2943.75,1937.5 2943.75,1931.25 C2943.75,1937.5 2937.5,1941.6667 2933.3333,1941.6667 C2927.0833,1941.6667 2922.9167,1937.5 2922.9167,1931.25 C2922.9167,1937.5 2916.6667,1941.6667 2912.5,1941.6667 C2906.25,1941.6667 2902.0833,1937.5 2902.0833,1931.25 C2902.0833,1937.5 2895.8333,1941.6667 2891.6667,1941.6667 C2885.4167,1941.6667 2881.25,1937.5 2881.25,1931.25 C2881.25,1937.5 2875,1941.6667 2870.8333,1941.6667 C2864.5833,1941.6667 2860.4167,1937.5 2860.4167,1931.25 C2854.1667,1931.25 2850,1927.0833 2850,1920.8333 C2850,1914.5833 2854.1667,1910.4167 2860.4167,1910.4167 C2854.1667,1910.4167 2850,1906.25 2850,1900 C2850,1893.75 2854.1667,1889.5833 2860.4167,1889.5833 C2854.1667,1889.5833 2850,1885.4167 2850,1879.1667 C2850,1872.9167 2854.1667,1868.75 2860.4167,1868.75 C2854.1667,1868.75 2850,1864.5833 2850,1858.3333 C2850,1852.0833 2854.1667,1847.9167 2860.4167,1847.9167 C2854.1667,1847.9167 2850,1843.75 2850,1837.5 C2850,1831.25 2854.1667,1827.0833 2860.4167,1827.0833 C2854.1667,1827.0833 2850,1822.9167 2850,1816.6667 C2850,1810.4167 2854.1667,1806.25 2860.4167,1806.25 C2854.1667,1806.25 2850,1802.0833 2850,1795.8333 C2850,1789.5833 2854.1667,1785.4167 2860.4167,1785.4167 C2854.1667,1785.4167 2850,1781.25 2850,1775 C2850,1768.75 2854.1667,1764.5833 2860.4167,1764.5833 " fill="#FFFFFF" style="stroke: #000000; stroke-width: 4.166666666666667;"/><rect fill="#FFFFFF" height="833.3333" style="stroke: #000000; stroke-width: 4.166666666666667;" width="506.25" x="2247.9167" y="1608.3333"/><text fill="#000000" font-family="CMU Serif" font-size="31.25" font-weight="bold" lengthAdjust="spacingAndGlyphs" textLength="464.5833" x="2268.75" y="1645.6736">Yoda External User service</text><rect fill="#FFFFFF" height="235.4167" style="stroke: #000000; stroke-width: 4.166666666666667;" width="358.3333" x="2322.9167" y="1725"/><text fill="#000000" font-family="CMU Serif" font-size="31.25" font-weight="bold" lengthAdjust="spacingAndGlyphs" textLength="316.6667" x="2343.75" y="1762.3403">Apache webserver</text><path d="M2306.25,2179.1667 C2306.25,2158.3333 2475,2158.3333 2475,2158.3333 C2475,2158.3333 2643.75,2158.3333 2643.75,2179.1667 L2643.75,2370.8333 C2643.75,2391.6667 2475,2391.6667 2475,2391.6667 C2475,2391.6667 2306.25,2391.6667 2306.25,2370.8333 L2306.25,2179.1667 " fill="#FFFFFF" style="stroke: #000000; stroke-width: 4.166666666666667;"/><path d="M2306.25,2179.1667 C2306.25,2200 2475,2200 2475,2200 C2475,2200 2643.75,2200 2643.75,2179.1667 " fill="none" style="stroke: #000000; stroke-width: 4.166666666666667;"/><text fill="#000000" font-family="CMU Serif" font-size="31.25" font-weight="bold" lengthAdjust="spacingAndGlyphs" textLength="200" x="2375" y="2235.257">PostgreSQL</text><rect fill="#FFFFFF" height="86.377" style="stroke: #000000; stroke-width: 3.125;" width="110.4167" x="1919.7917" y="804.1667"/><text fill="#000000" font-family="CMU Serif" font-size="31.25" lengthAdjust="spacingAndGlyphs" textLength="60.4167" x="1944.7917" y="858.1736">PHP</text><rect fill="#FFFFFF" height="86.377" style="stroke: #000000; stroke-width: 3.125;" width="170.8333" x="1675" y="804.1667"/><text fill="#000000" font-family="CMU Serif" font-size="31.25" lengthAdjust="spacingAndGlyphs" textLength="120.8333" x="1700" y="858.1736">davrods</text><rect fill="#FFFFFF" height="86.377" style="stroke: #000000; stroke-width: 3.125;" width="337.5" x="1191.6667" y="804.1667"/><text fill="#000000" font-family="CMU Serif" font-size="31.25" lengthAdjust="spacingAndGlyphs" textLength="287.5" x="1216.6667" y="858.1736">iRODS iCommands</text><rect fill="#FFFFFF" height="86.377" style="stroke: #000000; stroke-width: 3.125;" width="297.9167" x="1140.625" y="1825"/><text fill="#000000" font-family="CMU Serif" font-size="31.25" lengthAdjust="spacingAndGlyphs" textLength="247.9167" x="1165.625" y="1879.007">iRODS database</text><rect fill="#FFFFFF" height="86.377" style="stroke: #000000; stroke-width: 3.125;" width="229.1667" x="1802.0833" y="1291.6667"/><text fill="#000000" font-family="CMU Serif" font-size="31.25" lengthAdjust="spacingAndGlyphs" textLength="179.1667" x="1827.0833" y="1345.6736">iRODS rules</text><rect fill="#FFFFFF" height="86.377" style="stroke: #000000; stroke-width: 3.125;" width="364.5833" x="1363.5417" y="1291.6667"/><text fill="#000000" font-family="CMU Serif" font-size="31.25" lengthAdjust="spacingAndGlyphs" textLength="314.5833" x="1388.5417" y="1345.6736">iRODS microservices</text><rect fill="#FFFFFF" height="86.377" style="stroke: #000000; stroke-width: 3.125;" width="229.1667" x="762.5" y="366.6667"/><text fill="#000000" font-family="CMU Serif" font-size="31.25" lengthAdjust="spacingAndGlyphs" textLength="179.1667" x="787.5" y="420.6736">iRODS rules</text><rect fill="#FFFFFF" height="86.377" style="stroke: #000000; stroke-width: 3.125;" width="364.5833" x="323.9583" y="366.6667"/><text fill="#000000" font-family="CMU Serif" font-size="31.25" lengthAdjust="spacingAndGlyphs" textLength="314.5833" x="348.9583" y="420.6736">iRODS microservices</text><rect fill="#FEFECE" height="86.377" style="stroke: #A80036; stroke-width: 3.125;" width="202.0833" x="178.125" y="804.1667"/><rect fill="#FEFECE" height="10.4167" style="stroke: #A80036; stroke-width: 3.125;" width="20.8333" x="167.7083" y="814.5833"/><rect fill="#FEFECE" height="10.4167" style="stroke: #A80036; stroke-width: 3.125;" width="20.8333" x="167.7083" y="869.7103"/><text fill="#000000" font-family="CMU Serif" font-size="31.25" lengthAdjust="spacingAndGlyphs" textLength="152.0833" x="203.125" y="858.1736">Storage 1</text><rect fill="#FEFECE" height="86.377" style="stroke: #A80036; stroke-width: 3.125;" width="202.0833" x="494.7917" y="804.1667"/><rect fill="#FEFECE" height="10.4167" style="stroke: #A80036; stroke-width: 3.125;" width="20.8333" x="484.375" y="814.5833"/><rect fill="#FEFECE" height="10.4167" style="stroke: #A80036; stroke-width: 3.125;" width="20.8333" x="484.375" y="869.7103"/><text fill="#000000" font-family="CMU Serif" font-size="31.25" lengthAdjust="spacingAndGlyphs" textLength="152.0833" x="519.7917" y="858.1736">Storage 2</text><rect fill="#FEFECE" height="86.377" style="stroke: #A80036; stroke-width: 3.125;" width="212.5" x="812.5" y="804.1667"/><rect fill="#FEFECE" height="10.4167" style="stroke: #A80036; stroke-width: 3.125;" width="20.8333" x="802.0833" y="814.5833"/><rect fill="#FEFECE" height="10.4167" style="stroke: #A80036; stroke-width: 3.125;" width="20.8333" x="802.0833" y="869.7103"/><text fill="#000000" font-family="CMU Serif" font-size="31.25" lengthAdjust="spacingAndGlyphs" textLength="162.5" x="837.5" y="858.1736">Storage ...</text><rect fill="#FFFFFF" height="86.377" style="stroke: #000000; stroke-width: 3.125;" width="297.9167" x="3090.625" y="1291.6667"/><text fill="#000000" font-family="CMU Serif" font-size="31.25" lengthAdjust="spacingAndGlyphs" textLength="247.9167" x="3115.625" y="1345.6736">OAI-PMH service</text><rect fill="#FEFECE" height="86.377" style="stroke: #A80036; stroke-width: 3.125;" width="239.5833" x="3263.5417" y="1825"/><rect fill="#FEFECE" height="10.4167" style="stroke: #A80036; stroke-width: 3.125;" width="20.8333" x="3253.125" y="1835.4167"/><rect fill="#FEFECE" height="10.4167" style="stroke: #A80036; stroke-width: 3.125;" width="20.8333" x="3253.125" y="1890.5436"/><text fill="#000000" font-family="CMU Serif" font-size="31.25" lengthAdjust="spacingAndGlyphs" textLength="189.5833" x="3288.5417" y="1879.007">XML storage</text><rect fill="#FEFECE" height="86.377" style="stroke: #A80036; stroke-width: 3.125;" width="258.3333" x="2887.5" y="1825"/><rect fill="#FEFECE" height="10.4167" style="stroke: #A80036; stroke-width: 3.125;" width="20.8333" x="2877.0833" y="1835.4167"/><rect fill="#FEFECE" height="10.4167" style="stroke: #A80036; stroke-width: 3.125;" width="20.8333" x="2877.0833" y="1890.5436"/><text fill="#000000" font-family="CMU Serif" font-size="31.25" lengthAdjust="spacingAndGlyphs" textLength="208.3333" x="2912.5" y="1879.007">Landingpages</text><rect fill="#FFFFFF" height="86.377" style="stroke: #000000; stroke-width: 3.125;" width="110.4167" x="2519.7917" y="1825"/><text fill="#000000" font-family="CMU Serif" font-size="31.25" lengthAdjust="spacingAndGlyphs" textLength="60.4167" x="2544.7917" y="1879.007">PHP</text><rect fill="#FFFFFF" height="86.377" style="stroke: #000000; stroke-width: 3.125;" width="270.8333" x="2339.5833" y="2272.9167"/><text fill="#000000" font-family="CMU Serif" font-size="31.25" lengthAdjust="spacingAndGlyphs" textLength="220.8333" x="2364.5833" y="2326.9236">External users</text><ellipse cx="2550" cy="387.5" fill="#FEFECE" rx="16.6667" ry="16.6667" style="stroke: #A80036; stroke-width: 4.166666666666667;"/><text fill="#000000" font-family="CMU Serif" font-size="31.25" lengthAdjust="spacingAndGlyphs" textLength="100" x="2500" y="439.4236">HTTPS</text><ellipse cx="2327.0833" cy="387.5" fill="#FEFECE" rx="16.6667" ry="16.6667" style="stroke: #A80036; stroke-width: 4.166666666666667;"/><text fill="#000000" font-family="CMU Serif" font-size="31.25" lengthAdjust="spacingAndGlyphs" textLength="181.25" x="2236.4583" y="439.4236">iCommands</text><path d="M1619.3713,940.2823 C1619.3799,940.8645 1619.386,941.4472 1619.3896,942.0303 C1619.3969,943.1965 1619.3943,944.3643 1619.3813,945.533 C1619.2771,954.8832 1618.5077,964.2969 1616.8237,973.4598 C1613.4556,991.7857 1606.4292,1009.1089 1593.75,1022.9167 C1553.6292,1066.6104 1371.3313,1016.6063 1329.1667,1058.3333 C1307.6474,1079.6292 1294.3224,1107.0349 1286.4618,1136.2536 C1282.5315,1150.863 1279.9673,1165.9256 1278.428,1180.9043 C1278.2356,1182.7767 1278.0592,1184.6477 1277.8982,1186.5164 C1277.8176,1187.4507 1277.7409,1188.3844 1277.668,1189.3175 C1277.6315,1189.784 1277.596,1190.2503 1277.5614,1190.7165 " fill="none" style="stroke: #A80036; stroke-width: 2.0833333333333335; stroke-dasharray: 7.0,7.0;"/><polygon fill="#A80036" points="1277.5614,1190.7165,1287.2599,1172.6348,1278.3325,1180.3284,1270.639,1171.401,1277.5614,1190.7165" style="stroke: #A80036; stroke-width: 2.0833333333333335;"/><path d="M1354.2521,889.8729 C1347.9083,932.0708 1337.7646,999.7896 1329.1667,1058.3333 C1324.7672,1088.2875 1320.1358,1120.0901 1315.6531,1151.0173 C1314.5325,1158.7491 1313.4211,1166.4262 1312.3249,1174.006 C1311.7769,1177.7959 1311.2326,1181.5615 1310.6929,1185.2974 C1310.4231,1187.1654 1310.1543,1189.0259 1309.8869,1190.8784 " fill="none" style="stroke: #A80036; stroke-width: 2.0833333333333335; stroke-dasharray: 7.0,7.0;"/><polygon fill="#A80036" points="1309.8869,1190.8784,1320.8142,1173.5118,1311.3755,1180.5687,1304.3186,1171.13,1309.8869,1190.8784" style="stroke: #A80036; stroke-width: 2.0833333333333335;"/><path d="M264.5887,502.4479 C270.4113,515.2331 278.4656,526.8969 289.5833,535.4167 C323.5188,561.4229 1025.6208,543.3042 1058.3333,570.8333 C1215.7813,703.3354 1095.6625,826.9083 1158.3333,1022.9167 C1180.7219,1092.9385 1212.8667,1168.9781 1239.7404,1228.1492 C1246.4588,1242.942 1252.8478,1256.6805 1258.6725,1269.0071 C1261.5849,1275.1704 1264.3562,1280.9807 1266.9571,1286.3934 C1268.2575,1289.0998 1269.5154,1291.7067 1270.7269,1294.2086 C1271.3327,1295.4595 1271.9269,1296.6842 1272.5091,1297.882 " fill="none" style="stroke: #A80036; stroke-width: 2.0833333333333335; stroke-dasharray: 7.0,7.0;"/><path d="M256.1194,502.3796 C256.1558,502.9212 256.1924,503.4645 256.2291,504.0094 C256.3024,505.0991 256.3762,506.1951 256.4504,507.2972 C257.6374,524.9318 258.9301,544.1361 260.2766,564.1398 C265.6625,644.1547 271.9094,736.9594 275.6979,793.2458 " fill="none" style="stroke: #A80036; stroke-width: 2.0833333333333335; stroke-dasharray: 7.0,7.0;"/><polygon fill="#A80036" points="276.3979,803.6708,283.4535,784.4036,275.6985,793.2777,266.8244,785.5227,276.3979,803.6708" style="stroke: #A80036; stroke-width: 2.0833333333333335;"/><path d="M267.2382,502.1377 C267.3285,502.3404 267.4193,502.5428 267.5106,502.7451 C267.8756,503.554 268.2482,504.3596 268.6285,505.1615 C269.3892,506.7652 270.1808,508.3538 271.0047,509.9239 C272.6523,513.064 274.4288,516.1298 276.3442,519.0931 C280.1749,525.0196 284.5612,530.5359 289.5833,535.4167 C330.3542,575.0396 366.5875,537.3021 412.5,570.8333 C491.9042,628.8229 547.3021,732.3708 575.1542,794.2063 " fill="none" style="stroke: #A80036; stroke-width: 2.0833333333333335; stroke-dasharray: 7.0,7.0;"/><polygon fill="#A80036" points="579.3854,803.7583,579.408,783.2399,575.1653,794.2348,564.1704,789.9921,579.3854,803.7583" style="stroke: #A80036; stroke-width: 2.0833333333333335;"/><path d="M264.8445,502.1215 C270.6363,514.9458 278.6141,526.7073 289.5833,535.4167 C327.9583,565.8854 686.7146,546.3625 729.1667,570.8333 C816.2125,621.0104 872.4167,729.2292 899.5583,793.6188 " fill="none" style="stroke: #A80036; stroke-width: 2.0833333333333335; stroke-dasharray: 7.0,7.0;"/><polygon fill="#A80036" points="903.6646,803.5625,904.2098,783.0513,899.6884,793.9346,888.8051,789.4132,903.6646,803.5625" style="stroke: #A80036; stroke-width: 2.0833333333333335;"/><path d="M1289.5833,1427.5055 C1289.5833,1428.7889 1289.5833,1430.0819 1289.5833,1431.3845 C1289.5833,1433.9896 1289.5833,1436.6326 1289.5833,1439.3116 C1289.5833,1444.6695 1289.5833,1450.1709 1289.5833,1455.7994 C1289.5833,1478.3135 1289.5833,1502.8606 1289.5833,1528.3857 C1289.5833,1630.4859 1289.5833,1748.2333 1289.5833,1814.1 " fill="none" style="stroke: #A80036; stroke-width: 2.0833333333333335; stroke-dasharray: 7.0,7.0;"/><polygon fill="#A80036" points="1289.5833,1824.7063,1297.9167,1805.9563,1289.5833,1814.2896,1281.25,1805.9563,1289.5833,1824.7063" style="stroke: #A80036; stroke-width: 2.0833333333333335;"/><text fill="#000000" font-family="CMU Serif" font-size="31.25" lengthAdjust="spacingAndGlyphs" textLength="54.1667" x="1295.8333" y="1562.3403">use</text><path d="M3016.6667,1427.5055 C3016.6667,1428.7889 3016.6667,1430.0819 3016.6667,1431.3845 C3016.6667,1433.9896 3016.6667,1436.6326 3016.6667,1439.3116 C3016.6667,1444.6695 3016.6667,1450.1709 3016.6667,1455.7994 C3016.6667,1478.3135 3016.6667,1502.8606 3016.6667,1528.3857 C3016.6667,1630.4859 3016.6667,1748.2333 3016.6667,1814.1 " fill="none" style="stroke: #A80036; stroke-width: 2.0833333333333335; stroke-dasharray: 7.0,7.0;"/><polygon fill="#A80036" points="3016.6667,1824.7063,3025,1805.9563,3016.6667,1814.2896,3008.3333,1805.9563,3016.6667,1824.7063" style="stroke: #A80036; stroke-width: 2.0833333333333335;"/><path d="M3250.625,1377.1021 C3276.5,1472.3313 3340.9792,1709.7271 3369.4583,1814.525 " fill="none" style="stroke: #A80036; stroke-width: 2.0833333333333335; stroke-dasharray: 7.0,7.0;"/><polygon fill="#A80036" points="3372.25,1824.8417,3375.3776,1804.563,3369.5198,1814.7892,3359.2936,1808.9314,3372.25,1824.8417" style="stroke: #A80036; stroke-width: 2.0833333333333335;"/><path d="M2451.8669,1961.6078 C2452.0124,1963.8216 2452.1597,1966.0622 2452.3086,1968.3279 C2453.5002,1986.4535 2454.7975,2006.1887 2456.1484,2026.7388 C2461.5521,2108.9391 2467.8125,2204.1771 2471.5833,2261.5917 " fill="none" style="stroke: #A80036; stroke-width: 2.0833333333333335; stroke-dasharray: 7.0,7.0;"/><polygon fill="#A80036" points="2472.2917,2272.2181,2479.3795,2252.9627,2471.6096,2261.8238,2462.7486,2254.054,2472.2917,2272.2181" style="stroke: #A80036; stroke-width: 2.0833333333333335;"/><text fill="#000000" font-family="CMU Serif" font-size="31.25" lengthAdjust="spacingAndGlyphs" textLength="54.1667" x="2468.75" y="2112.3403">use</text><path d="M2530.8125,450.2146 C2515.0833,478.0417 2490.2083,514.2396 2458.3333,535.4167 C2428.9583,554.925 2416.2083,549.5771 2381.25,554.1667 C2340.5,559.5167 1672.4313,543.5813 1641.6667,570.8333 C1630.3354,580.8708 1622.184,602.5595 1616.3336,629.5569 C1613.4083,643.0556 1611.0584,657.8815 1609.1738,673.2417 C1608.2316,680.9219 1607.4056,688.7356 1606.6823,696.5838 C1606.5015,698.5458 1606.3271,700.5101 1606.1589,702.4749 C1606.1168,702.9661 1606.0751,703.4573 1606.0339,703.9486 " fill="none" style="stroke: #A80036; stroke-width: 2.0833333333333335;"/><path d="M2569.75,450.4375 C2613.8125,537.3865 2724.1458,755.0979 2824.1536,952.432 C2874.1576,1051.0991 2921.5801,1144.6718 2956.8467,1214.2577 C2974.48,1249.0507 2989.0743,1277.8469 2999.4328,1298.2849 " fill="none" style="stroke: #A80036; stroke-width: 2.0833333333333335;"/><path d="M2550.7083,450.9062 C2552.75,599.3125 2554.9375,1137.8875 2489.5833,1575 C2488.4583,1582.5521 2486.8958,1584.175 2485.4167,1591.6667 C2479.5729,1621.3729 2474.2083,1653.0496 2469.4411,1683.9278 C2468.2493,1691.6474 2467.0948,1699.317 2465.9795,1706.8935 C2465.4218,1710.6818 2464.874,1714.4467 2464.3362,1718.183 C2464.0672,1720.0511 2463.8008,1721.912 2463.537,1723.7651 " fill="none" style="stroke: #A80036; stroke-width: 2.0833333333333335;"/><path d="M2231.75,410.7646 C2079.8208,413.9458 1778.5333,438.1688 1568.75,570.8333 C1476.8375,628.9583 1410.3146,742.9042 1379.5354,803.9229 " fill="none" style="stroke: #A80036; stroke-width: 2.0833333333333335;"/><path d="M1288.655,1427.6026 C1289.0126,1429.9866 1289.4093,1432.3756 1289.8481,1434.7637 C1291.6035,1444.3161 1294.0335,1453.855 1297.3347,1463.0117 C1303.9371,1481.3251 1314.024,1498.1099 1329.1667,1510.4167 C1349.2896,1526.7708 2236.6042,1525.9396 2262.5,1527.0833 C2466.5,1536.0854 3000,1493.7021 3179.1667,1591.6667 C3269.5833,1641.0958 3331.2917,1749.5813 3361.625,1814.2208 " fill="none" style="stroke: #A80036; stroke-width: 2.0833333333333335; stroke-dasharray: 7.0,7.0;"/><polygon fill="#A80036" points="3366.2292,1824.2021,3365.9525,1803.6855,3361.8706,1814.7411,3350.8149,1810.6592,3366.2292,1824.2021" style="stroke: #A80036; stroke-width: 2.0833333333333335;"/><text fill="#000000" font-family="CMU Serif" font-size="31.25" lengthAdjust="spacingAndGlyphs" textLength="60.4167" x="3135.4167" y="1562.3403">SCP</text><path d="M1289.0517,1427.8261 C1289.0968,1428.1191 1289.1425,1428.4121 1289.1888,1428.7053 C1289.559,1431.0504 1289.9672,1433.3997 1290.4163,1435.7479 C1292.2124,1445.1406 1294.6616,1454.5148 1297.9473,1463.5235 C1304.5186,1481.541 1314.4359,1498.0969 1329.1667,1510.4167 C1344.6313,1523.35 1671.5583,1525.6375 1691.6667,1527.0833 C1909.7354,1542.7583 1963.0938,1560.5771 2181.25,1575 C2234.875,1578.5458 2614.0625,1573.35 2664.5833,1591.6667 C2793.3125,1638.3479 2912.1875,1751.2333 2973.3958,1816.6021 " fill="none" style="stroke: #A80036; stroke-width: 2.0833333333333335; stroke-dasharray: 7.0,7.0;"/><polygon fill="#A80036" points="2980.5833,1824.3313,2973.9495,1804.9148,2973.5024,1816.6914,2961.7257,1816.2443,2980.5833,1824.3313" style="stroke: #A80036; stroke-width: 2.0833333333333335;"/><text fill="#000000" font-family="CMU Serif" font-size="31.25" lengthAdjust="spacingAndGlyphs" textLength="60.4167" x="2187.5" y="1562.3403">SCP</text><path d="M1292.6031,1427.1865 C1292.7057,1427.7677 1292.8104,1428.3495 1292.9172,1428.9317 C1293.1308,1430.0961 1293.3528,1431.2624 1293.5835,1432.43 C1295.4293,1441.7707 1297.8324,1451.1931 1300.9382,1460.3902 C1307.1497,1478.7845 1316.1719,1496.2781 1329.1667,1510.4167 C1334.6302,1516.3615 1609.4948,1603.8281 1885.1185,1690.4685 C2022.9303,1733.7887 2160.932,1776.9023 2265.5431,1809.5158 C2278.6195,1813.5925 2291.1742,1817.5051 2303.1416,1821.2336 C2309.1252,1823.0978 2314.9621,1824.916 2320.6439,1826.6856 " fill="none" style="stroke: #A80036; stroke-width: 2.0833333333333335; stroke-dasharray: 7.0,7.0;"/><polygon fill="#A80036" points="2320.6439,1826.6856,2305.2201,1813.1536,2310.6985,1823.588,2300.264,1829.0664,2320.6439,1826.6856" style="stroke: #A80036; stroke-width: 2.0833333333333335;"/><text fill="#000000" font-family="CMU Serif" font-size="31.25" lengthAdjust="spacingAndGlyphs" textLength="166.6667" x="1502.0833" y="1562.3403">HTTPS-ALT</text></g></svg>