<?xml version="1.0" encoding="UTF-8" standalone="yes"?><svg xmlns="http://www.w3.org/2000/svg" xmlns:xlink="http://www.w3.org/1999/xlink" height="2152.0833px" style="width:3589px;height:2152px;" version="1.1" viewBox="0 0 3589 2152" width="3589.5833px"><defs/><g><rect fill="#FFFFFF" height="1556.25" style="stroke: #000000; stroke-width: 4.166666666666667;" width="2152.0833" x="602.0833" y="195.8333"/><text fill="#000000" font-family="CMU Serif" font-size="31.25" font-weight="bold" lengthAdjust="spacingAndGlyphs" textLength="239.5833" x="1558.3333" y="233.1736">Yoda instance</text><polygon fill="#FFFFFF" points="1714.5833,295.8333,1931.25,295.8333,1945.8333,353.0436,2704.1667,353.0436,2704.1667,714.5833,1714.5833,714.5833,1714.5833,295.8333" style="stroke: #000000; stroke-width: 4.166666666666667;"/><line style="stroke: #000000; stroke-width: 4.166666666666667;" x1="1714.5833" x2="1945.8333" y1="353.0436" y2="353.0436"/><text fill="#000000" font-family="CMU Serif" font-size="31.25" font-weight="bold" lengthAdjust="spacingAndGlyphs" textLength="195.8333" x="1727.0833" y="333.1736">Yoda portal</text><rect fill="#FFFFFF" height="235.4167" style="stroke: #000000; stroke-width: 4.166666666666667;" width="495.8333" x="2141.6667" y="412.5"/><text fill="#000000" font-family="CMU Serif" font-size="31.25" font-weight="bold" lengthAdjust="spacingAndGlyphs" textLength="316.6667" x="2231.25" y="449.8403">Apache webserver</text><polygon fill="#FFFFFF" points="1612.5,1318.75,1866.6667,1318.75,1881.25,1375.9603,2079.1667,1375.9603,2079.1667,1702.0833,1612.5,1702.0833,1612.5,1318.75" style="stroke: #000000; stroke-width: 4.166666666666667;"/><line style="stroke: #000000; stroke-width: 4.166666666666667;" x1="1612.5" x2="1881.25" y1="1375.9603" y2="1375.9603"/><text fill="#000000" font-family="CMU Serif" font-size="31.25" font-weight="bold" lengthAdjust="spacingAndGlyphs" textLength="233.3333" x="1625" y="1356.0903">Yoda databse</text><path d="M1662.5,1439.5833 C1662.5,1418.75 1845.8333,1418.75 1845.8333,1418.75 C1845.8333,1418.75 2029.1667,1418.75 2029.1667,1439.5833 L2029.1667,1631.25 C2029.1667,1652.0833 1845.8333,1652.0833 1845.8333,1652.0833 C1845.8333,1652.0833 1662.5,1652.0833 1662.5,1631.25 L1662.5,1439.5833 " fill="#FFFFFF" style="stroke: #000000; stroke-width: 4.166666666666667;"/><path d="M1662.5,1439.5833 C1662.5,1460.4167 1845.8333,1460.4167 1845.8333,1460.4167 C1845.8333,1460.4167 2029.1667,1460.4167 2029.1667,1439.5833 " fill="none" style="stroke: #000000; stroke-width: 4.166666666666667;"/><text fill="#000000" font-family="CMU Serif" font-size="31.25" font-weight="bold" lengthAdjust="spacingAndGlyphs" textLength="200" x="1745.8333" y="1495.6736">PostgreSQL</text><polygon fill="#FFFFFF" points="1762.5,783.3333,1954.1667,783.3333,1968.75,840.5436,2704.1667,840.5436,2704.1667,1202.0833,1762.5,1202.0833,1762.5,783.3333" style="stroke: #000000; stroke-width: 4.166666666666667;"/><line style="stroke: #000000; stroke-width: 4.166666666666667;" x1="1762.5" x2="1968.75" y1="840.5436" y2="840.5436"/><text fill="#000000" font-family="CMU Serif" font-size="31.25" font-weight="bold" lengthAdjust="spacingAndGlyphs" textLength="170.8333" x="1775" y="820.6736">Yoda iCAT</text><rect fill="#FFFFFF" height="235.4167" style="stroke: #000000; stroke-width: 4.166666666666667;" width="808.3333" x="1829.1667" y="900"/><text fill="#000000" font-family="CMU Serif" font-size="31.25" font-weight="bold" lengthAdjust="spacingAndGlyphs" textLength="193.75" x="2136.4583" y="937.3403">iRODS iCAT</text><polygon fill="#FFFFFF" points="652.0833,295.8333,918.75,295.8333,933.3333,353.0436,1664.5833,353.0436,1664.5833,1168.75,652.0833,1168.75,652.0833,295.8333" style="stroke: #000000; stroke-width: 4.166666666666667;"/><line style="stroke: #000000; stroke-width: 4.166666666666667;" x1="652.0833" x2="933.3333" y1="353.0436" y2="353.0436"/><text fill="#000000" font-family="CMU Serif" font-size="31.25" font-weight="bold" lengthAdjust="spacingAndGlyphs" textLength="245.8333" x="664.5833" y="333.1736">Yoda resource</text><rect fill="#FFFFFF" height="235.4167" style="stroke: #000000; stroke-width: 4.166666666666667;" width="808.3333" x="789.5833" y="412.5"/><text fill="#000000" font-family="CMU Serif" font-size="31.25" font-weight="bold" lengthAdjust="spacingAndGlyphs" textLength="268.75" x="1059.375" y="449.8403">iRODS resource</text><path d="M708.3333,939.5833 C708.3333,933.3333 712.5,929.1667 718.75,929.1667 C725,929.1667 729.1667,933.3333 729.1667,939.5833 C729.1667,933.3333 733.3333,929.1667 739.5833,929.1667 C745.8333,929.1667 750,933.3333 750,939.5833 C750,933.3333 754.1667,929.1667 760.4167,929.1667 C766.6667,929.1667 770.8333,933.3333 770.8333,939.5833 C770.8333,933.3333 775,929.1667 781.25,929.1667 C787.5,929.1667 791.6667,933.3333 791.6667,939.5833 C791.6667,933.3333 795.8333,929.1667 802.0833,929.1667 C808.3333,929.1667 812.5,933.3333 812.5,939.5833 C812.5,933.3333 816.6667,929.1667 822.9167,929.1667 C829.1667,929.1667 833.3333,933.3333 833.3333,939.5833 C833.3333,933.3333 837.5,929.1667 843.75,929.1667 C850,929.1667 854.1667,933.3333 854.1667,939.5833 C854.1667,933.3333 858.3333,929.1667 864.5833,929.1667 C870.8333,929.1667 875,933.3333 875,939.5833 C875,933.3333 879.1667,929.1667 885.4167,929.1667 C891.6667,929.1667 895.8333,933.3333 895.8333,939.5833 C895.8333,933.3333 900,929.1667 906.25,929.1667 C912.5,929.1667 916.6667,933.3333 916.6667,939.5833 C916.6667,933.3333 920.8333,929.1667 927.0833,929.1667 C933.3333,929.1667 937.5,933.3333 937.5,939.5833 C937.5,933.3333 941.6667,929.1667 947.9167,929.1667 C954.1667,929.1667 958.3333,933.3333 958.3333,939.5833 C964.5833,939.5833 968.75,943.75 968.75,950 C968.75,956.25 964.5833,960.4167 958.3333,960.4167 C964.5833,960.4167 968.75,964.5833 968.75,970.8333 C968.75,977.0833 964.5833,981.25 958.3333,981.25 C964.5833,981.25 968.75,985.4167 968.75,991.6667 C968.75,997.9167 964.5833,1002.0833 958.3333,1002.0833 C964.5833,1002.0833 968.75,1006.25 968.75,1012.5 C968.75,1018.75 964.5833,1022.9167 958.3333,1022.9167 C964.5833,1022.9167 968.75,1027.0833 968.75,1033.3333 C968.75,1039.5833 964.5833,1043.75 958.3333,1043.75 C964.5833,1043.75 968.75,1047.9167 968.75,1054.1667 C968.75,1060.4167 964.5833,1064.5833 958.3333,1064.5833 C964.5833,1064.5833 968.75,1068.75 968.75,1075 C968.75,1081.25 964.5833,1085.4167 958.3333,1085.4167 C964.5833,1085.4167 968.75,1089.5833 968.75,1095.8333 C968.75,1102.0833 964.5833,1106.25 958.3333,1106.25 C958.3333,1112.5 952.0833,1116.6667 947.9167,1116.6667 C941.6667,1116.6667 937.5,1112.5 937.5,1106.25 C937.5,1112.5 931.25,1116.6667 927.0833,1116.6667 C920.8333,1116.6667 916.6667,1112.5 916.6667,1106.25 C916.6667,1112.5 910.4167,1116.6667 906.25,1116.6667 C900,1116.6667 895.8333,1112.5 895.8333,1106.25 C895.8333,1112.5 889.5833,1116.6667 885.4167,1116.6667 C879.1667,1116.6667 875,1112.5 875,1106.25 C875,1112.5 868.75,1116.6667 864.5833,1116.6667 C858.3333,1116.6667 854.1667,1112.5 854.1667,1106.25 C854.1667,1112.5 847.9167,1116.6667 843.75,1116.6667 C837.5,1116.6667 833.3333,1112.5 833.3333,1106.25 C833.3333,1112.5 827.0833,1116.6667 822.9167,1116.6667 C816.6667,1116.6667 812.5,1112.5 812.5,1106.25 C812.5,1112.5 806.25,1116.6667 802.0833,1116.6667 C795.8333,1116.6667 791.6667,1112.5 791.6667,1106.25 C791.6667,1112.5 785.4167,1116.6667 781.25,1116.6667 C775,1116.6667 770.8333,1112.5 770.8333,1106.25 C770.8333,1112.5 764.5833,1116.6667 760.4167,1116.6667 C754.1667,1116.6667 750,1112.5 750,1106.25 C750,1112.5 743.75,1116.6667 739.5833,1116.6667 C733.3333,1116.6667 729.1667,1112.5 729.1667,1106.25 C729.1667,1112.5 722.9167,1116.6667 718.75,1116.6667 C712.5,1116.6667 708.3333,1112.5 708.3333,1106.25 C702.0833,1106.25 697.9167,1102.0833 697.9167,1095.8333 C697.9167,1089.5833 702.0833,1085.4167 708.3333,1085.4167 C702.0833,1085.4167 697.9167,1081.25 697.9167,1075 C697.9167,1068.75 702.0833,1064.5833 708.3333,1064.5833 C702.0833,1064.5833 697.9167,1060.4167 697.9167,1054.1667 C697.9167,1047.9167 702.0833,1043.75 708.3333,1043.75 C702.0833,1043.75 697.9167,1039.5833 697.9167,1033.3333 C697.9167,1027.0833 702.0833,1022.9167 708.3333,1022.9167 C702.0833,1022.9167 697.9167,1018.75 697.9167,1012.5 C697.9167,1006.25 702.0833,1002.0833 708.3333,1002.0833 C702.0833,1002.0833 697.9167,997.9167 697.9167,991.6667 C697.9167,985.4167 702.0833,981.25 708.3333,981.25 C702.0833,981.25 697.9167,977.0833 697.9167,970.8333 C697.9167,964.5833 702.0833,960.4167 708.3333,960.4167 C702.0833,960.4167 697.9167,956.25 697.9167,950 C697.9167,943.75 702.0833,939.5833 708.3333,939.5833 " fill="#FFFFFF" style="stroke: #000000; stroke-width: 4.166666666666667;"/><path d="M1025,939.5833 C1025,933.3333 1029.1667,929.1667 1035.4167,929.1667 C1041.6667,929.1667 1045.8333,933.3333 1045.8333,939.5833 C1045.8333,933.3333 1050,929.1667 1056.25,929.1667 C1062.5,929.1667 1066.6667,933.3333 1066.6667,939.5833 C1066.6667,933.3333 1070.8333,929.1667 1077.0833,929.1667 C1083.3333,929.1667 1087.5,933.3333 1087.5,939.5833 C1087.5,933.3333 1091.6667,929.1667 1097.9167,929.1667 C1104.1667,929.1667 1108.3333,933.3333 1108.3333,939.5833 C1108.3333,933.3333 1112.5,929.1667 1118.75,929.1667 C1125,929.1667 1129.1667,933.3333 1129.1667,939.5833 C1129.1667,933.3333 1133.3333,929.1667 1139.5833,929.1667 C1145.8333,929.1667 1150,933.3333 1150,939.5833 C1150,933.3333 1154.1667,929.1667 1160.4167,929.1667 C1166.6667,929.1667 1170.8333,933.3333 1170.8333,939.5833 C1170.8333,933.3333 1175,929.1667 1181.25,929.1667 C1187.5,929.1667 1191.6667,933.3333 1191.6667,939.5833 C1191.6667,933.3333 1195.8333,929.1667 1202.0833,929.1667 C1208.3333,929.1667 1212.5,933.3333 1212.5,939.5833 C1212.5,933.3333 1216.6667,929.1667 1222.9167,929.1667 C1229.1667,929.1667 1233.3333,933.3333 1233.3333,939.5833 C1233.3333,933.3333 1237.5,929.1667 1243.75,929.1667 C1250,929.1667 1254.1667,933.3333 1254.1667,939.5833 C1254.1667,933.3333 1258.3333,929.1667 1264.5833,929.1667 C1270.8333,929.1667 1275,933.3333 1275,939.5833 C1281.25,939.5833 1285.4167,943.75 1285.4167,950 C1285.4167,956.25 1281.25,960.4167 1275,960.4167 C1281.25,960.4167 1285.4167,964.5833 1285.4167,970.8333 C1285.4167,977.0833 1281.25,981.25 1275,981.25 C1281.25,981.25 1285.4167,985.4167 1285.4167,991.6667 C1285.4167,997.9167 1281.25,1002.0833 1275,1002.0833 C1281.25,1002.0833 1285.4167,1006.25 1285.4167,1012.5 C1285.4167,1018.75 1281.25,1022.9167 1275,1022.9167 C1281.25,1022.9167 1285.4167,1027.0833 1285.4167,1033.3333 C1285.4167,1039.5833 1281.25,1043.75 1275,1043.75 C1281.25,1043.75 1285.4167,1047.9167 1285.4167,1054.1667 C1285.4167,1060.4167 1281.25,1064.5833 1275,1064.5833 C1281.25,1064.5833 1285.4167,1068.75 1285.4167,1075 C1285.4167,1081.25 1281.25,1085.4167 1275,1085.4167 C1281.25,1085.4167 1285.4167,1089.5833 1285.4167,1095.8333 C1285.4167,1102.0833 1281.25,1106.25 1275,1106.25 C1275,1112.5 1268.75,1116.6667 1264.5833,1116.6667 C1258.3333,1116.6667 1254.1667,1112.5 1254.1667,1106.25 C1254.1667,1112.5 1247.9167,1116.6667 1243.75,1116.6667 C1237.5,1116.6667 1233.3333,1112.5 1233.3333,1106.25 C1233.3333,1112.5 1227.0833,1116.6667 1222.9167,1116.6667 C1216.6667,1116.6667 1212.5,1112.5 1212.5,1106.25 C1212.5,1112.5 1206.25,1116.6667 1202.0833,1116.6667 C1195.8333,1116.6667 1191.6667,1112.5 1191.6667,1106.25 C1191.6667,1112.5 1185.4167,1116.6667 1181.25,1116.6667 C1175,1116.6667 1170.8333,1112.5 1170.8333,1106.25 C1170.8333,1112.5 1164.5833,1116.6667 1160.4167,1116.6667 C1154.1667,1116.6667 1150,1112.5 1150,1106.25 C1150,1112.5 1143.75,1116.6667 1139.5833,1116.6667 C1133.3333,1116.6667 1129.1667,1112.5 1129.1667,1106.25 C1129.1667,1112.5 1122.9167,1116.6667 1118.75,1116.6667 C1112.5,1116.6667 1108.3333,1112.5 1108.3333,1106.25 C1108.3333,1112.5 1102.0833,1116.6667 1097.9167,1116.6667 C1091.6667,1116.6667 1087.5,1112.5 1087.5,1106.25 C1087.5,1112.5 1081.25,1116.6667 1077.0833,1116.6667 C1070.8333,1116.6667 1066.6667,1112.5 1066.6667,1106.25 C1066.6667,1112.5 1060.4167,1116.6667 1056.25,1116.6667 C1050,1116.6667 1045.8333,1112.5 1045.8333,1106.25 C1045.8333,1112.5 1039.5833,1116.6667 1035.4167,1116.6667 C1029.1667,1116.6667 1025,1112.5 1025,1106.25 C1018.75,1106.25 1014.5833,1102.0833 1014.5833,1095.8333 C1014.5833,1089.5833 1018.75,1085.4167 1025,1085.4167 C1018.75,1085.4167 1014.5833,1081.25 1014.5833,1075 C1014.5833,1068.75 1018.75,1064.5833 1025,1064.5833 C1018.75,1064.5833 1014.5833,1060.4167 1014.5833,1054.1667 C1014.5833,1047.9167 1018.75,1043.75 1025,1043.75 C1018.75,1043.75 1014.5833,1039.5833 1014.5833,1033.3333 C1014.5833,1027.0833 1018.75,1022.9167 1025,1022.9167 C1018.75,1022.9167 1014.5833,1018.75 1014.5833,1012.5 C1014.5833,1006.25 1018.75,1002.0833 1025,1002.0833 C1018.75,1002.0833 1014.5833,997.9167 1014.5833,991.6667 C1014.5833,985.4167 1018.75,981.25 1025,981.25 C1018.75,981.25 1014.5833,977.0833 1014.5833,970.8333 C1014.5833,964.5833 1018.75,960.4167 1025,960.4167 C1018.75,960.4167 1014.5833,956.25 1014.5833,950 C1014.5833,943.75 1018.75,939.5833 1025,939.5833 " fill="#FFFFFF" style="stroke: #000000; stroke-width: 4.166666666666667;"/><path d="M1341.6667,939.5833 C1341.6667,933.3333 1345.8333,929.1667 1352.0833,929.1667 C1358.3333,929.1667 1362.5,933.3333 1362.5,939.5833 C1362.5,933.3333 1366.6667,929.1667 1372.9167,929.1667 C1379.1667,929.1667 1383.3333,933.3333 1383.3333,939.5833 C1383.3333,933.3333 1387.5,929.1667 1393.75,929.1667 C1400,929.1667 1404.1667,933.3333 1404.1667,939.5833 C1404.1667,933.3333 1408.3333,929.1667 1414.5833,929.1667 C1420.8333,929.1667 1425,933.3333 1425,939.5833 C1425,933.3333 1429.1667,929.1667 1435.4167,929.1667 C1441.6667,929.1667 1445.8333,933.3333 1445.8333,939.5833 C1445.8333,933.3333 1450,929.1667 1456.25,929.1667 C1462.5,929.1667 1466.6667,933.3333 1466.6667,939.5833 C1466.6667,933.3333 1470.8333,929.1667 1477.0833,929.1667 C1483.3333,929.1667 1487.5,933.3333 1487.5,939.5833 C1487.5,933.3333 1491.6667,929.1667 1497.9167,929.1667 C1504.1667,929.1667 1508.3333,933.3333 1508.3333,939.5833 C1508.3333,933.3333 1512.5,929.1667 1518.75,929.1667 C1525,929.1667 1529.1667,933.3333 1529.1667,939.5833 C1529.1667,933.3333 1533.3333,929.1667 1539.5833,929.1667 C1545.8333,929.1667 1550,933.3333 1550,939.5833 C1550,933.3333 1554.1667,929.1667 1560.4167,929.1667 C1566.6667,929.1667 1570.8333,933.3333 1570.8333,939.5833 C1570.8333,933.3333 1575,929.1667 1581.25,929.1667 C1587.5,929.1667 1591.6667,933.3333 1591.6667,939.5833 C1591.6667,933.3333 1595.8333,929.1667 1602.0833,929.1667 C1608.3333,929.1667 1612.5,933.3333 1612.5,939.5833 C1618.75,939.5833 1622.9167,943.75 1622.9167,950 C1622.9167,956.25 1618.75,960.4167 1612.5,960.4167 C1618.75,960.4167 1622.9167,964.5833 1622.9167,970.8333 C1622.9167,977.0833 1618.75,981.25 1612.5,981.25 C1618.75,981.25 1622.9167,985.4167 1622.9167,991.6667 C1622.9167,997.9167 1618.75,1002.0833 1612.5,1002.0833 C1618.75,1002.0833 1622.9167,1006.25 1622.9167,1012.5 C1622.9167,1018.75 1618.75,1022.9167 1612.5,1022.9167 C1618.75,1022.9167 1622.9167,1027.0833 1622.9167,1033.3333 C1622.9167,1039.5833 1618.75,1043.75 1612.5,1043.75 C1618.75,1043.75 1622.9167,1047.9167 1622.9167,1054.1667 C1622.9167,1060.4167 1618.75,1064.5833 1612.5,1064.5833 C1618.75,1064.5833 1622.9167,1068.75 1622.9167,1075 C1622.9167,1081.25 1618.75,1085.4167 1612.5,1085.4167 C1618.75,1085.4167 1622.9167,1089.5833 1622.9167,1095.8333 C1622.9167,1102.0833 1618.75,1106.25 1612.5,1106.25 C1612.5,1112.5 1606.25,1116.6667 1602.0833,1116.6667 C1595.8333,1116.6667 1591.6667,1112.5 1591.6667,1106.25 C1591.6667,1112.5 1585.4167,1116.6667 1581.25,1116.6667 C1575,1116.6667 1570.8333,1112.5 1570.8333,1106.25 C1570.8333,1112.5 1564.5833,1116.6667 1560.4167,1116.6667 C1554.1667,1116.6667 1550,1112.5 1550,1106.25 C1550,1112.5 1543.75,1116.6667 1539.5833,1116.6667 C1533.3333,1116.6667 1529.1667,1112.5 1529.1667,1106.25 C1529.1667,1112.5 1522.9167,1116.6667 1518.75,1116.6667 C1512.5,1116.6667 1508.3333,1112.5 1508.3333,1106.25 C1508.3333,1112.5 1502.0833,1116.6667 1497.9167,1116.6667 C1491.6667,1116.6667 1487.5,1112.5 1487.5,1106.25 C1487.5,1112.5 1481.25,1116.6667 1477.0833,1116.6667 C1470.8333,1116.6667 1466.6667,1112.5 1466.6667,1106.25 C1466.6667,1112.5 1460.4167,1116.6667 1456.25,1116.6667 C1450,1116.6667 1445.8333,1112.5 1445.8333,1106.25 C1445.8333,1112.5 1439.5833,1116.6667 1435.4167,1116.6667 C1429.1667,1116.6667 1425,1112.5 1425,1106.25 C1425,1112.5 1418.75,1116.6667 1414.5833,1116.6667 C1408.3333,1116.6667 1404.1667,1112.5 1404.1667,1106.25 C1404.1667,1112.5 1397.9167,1116.6667 1393.75,1116.6667 C1387.5,1116.6667 1383.3333,1112.5 1383.3333,1106.25 C1383.3333,1112.5 1377.0833,1116.6667 1372.9167,1116.6667 C1366.6667,1116.6667 1362.5,1112.5 1362.5,1106.25 C1362.5,1112.5 1356.25,1116.6667 1352.0833,1116.6667 C1345.8333,1116.6667 1341.6667,1112.5 1341.6667,1106.25 C1335.4167,1106.25 1331.25,1102.0833 1331.25,1095.8333 C1331.25,1089.5833 1335.4167,1085.4167 1341.6667,1085.4167 C1335.4167,1085.4167 1331.25,1081.25 1331.25,1075 C1331.25,1068.75 1335.4167,1064.5833 1341.6667,1064.5833 C1335.4167,1064.5833 1331.25,1060.4167 1331.25,1054.1667 C1331.25,1047.9167 1335.4167,1043.75 1341.6667,1043.75 C1335.4167,1043.75 1331.25,1039.5833 1331.25,1033.3333 C1331.25,1027.0833 1335.4167,1022.9167 1341.6667,1022.9167 C1335.4167,1022.9167 1331.25,1018.75 1331.25,1012.5 C1331.25,1006.25 1335.4167,1002.0833 1341.6667,1002.0833 C1335.4167,1002.0833 1331.25,997.9167 1331.25,991.6667 C1331.25,985.4167 1335.4167,981.25 1341.6667,981.25 C1335.4167,981.25 1331.25,977.0833 1331.25,970.8333 C1331.25,964.5833 1335.4167,960.4167 1341.6667,960.4167 C1335.4167,960.4167 1331.25,956.25 1331.25,950 C1331.25,943.75 1335.4167,939.5833 1341.6667,939.5833 " fill="#FFFFFF" style="stroke: #000000; stroke-width: 4.166666666666667;"/><rect fill="#FFFFFF" height="918.75" style="stroke: #000000; stroke-width: 4.166666666666667;" width="783.3333" x="2804.1667" y="783.3333"/><text fill="#000000" font-family="CMU Serif" font-size="31.25" font-weight="bold" lengthAdjust="spacingAndGlyphs" textLength="314.5833" x="3038.5417" y="820.6736">Yoda Public server</text><rect fill="#FFFFFF" height="235.4167" style="stroke: #000000; stroke-width: 4.166666666666667;" width="439.5833" x="2870.8333" y="900"/><text fill="#000000" font-family="CMU Serif" font-size="31.25" font-weight="bold" lengthAdjust="spacingAndGlyphs" textLength="316.6667" x="2932.2917" y="937.3403">Apache webserver</text><path d="M2860.4167,1472.9167 C2860.4167,1466.6667 2864.5833,1462.5 2870.8333,1462.5 C2877.0833,1462.5 2881.25,1466.6667 2881.25,1472.9167 C2881.25,1466.6667 2885.4167,1462.5 2891.6667,1462.5 C2897.9167,1462.5 2902.0833,1466.6667 2902.0833,1472.9167 C2902.0833,1466.6667 2906.25,1462.5 2912.5,1462.5 C2918.75,1462.5 2922.9167,1466.6667 2922.9167,1472.9167 C2922.9167,1466.6667 2927.0833,1462.5 2933.3333,1462.5 C2939.5833,1462.5 2943.75,1466.6667 2943.75,1472.9167 C2943.75,1466.6667 2947.9167,1462.5 2954.1667,1462.5 C2960.4167,1462.5 2964.5833,1466.6667 2964.5833,1472.9167 C2964.5833,1466.6667 2968.75,1462.5 2975,1462.5 C2981.25,1462.5 2985.4167,1466.6667 2985.4167,1472.9167 C2985.4167,1466.6667 2989.5833,1462.5 2995.8333,1462.5 C3002.0833,1462.5 3006.25,1466.6667 3006.25,1472.9167 C3006.25,1466.6667 3010.4167,1462.5 3016.6667,1462.5 C3022.9167,1462.5 3027.0833,1466.6667 3027.0833,1472.9167 C3027.0833,1466.6667 3031.25,1462.5 3037.5,1462.5 C3043.75,1462.5 3047.9167,1466.6667 3047.9167,1472.9167 C3047.9167,1466.6667 3052.0833,1462.5 3058.3333,1462.5 C3064.5833,1462.5 3068.75,1466.6667 3068.75,1472.9167 C3068.75,1466.6667 3072.9167,1462.5 3079.1667,1462.5 C3085.4167,1462.5 3089.5833,1466.6667 3089.5833,1472.9167 C3089.5833,1466.6667 3093.75,1462.5 3100,1462.5 C3106.25,1462.5 3110.4167,1466.6667 3110.4167,1472.9167 C3110.4167,1466.6667 3114.5833,1462.5 3120.8333,1462.5 C3127.0833,1462.5 3131.25,1466.6667 3131.25,1472.9167 C3131.25,1466.6667 3135.4167,1462.5 3141.6667,1462.5 C3147.9167,1462.5 3152.0833,1466.6667 3152.0833,1472.9167 C3158.3333,1472.9167 3162.5,1477.0833 3162.5,1483.3333 C3162.5,1489.5833 3158.3333,1493.75 3152.0833,1493.75 C3158.3333,1493.75 3162.5,1497.9167 3162.5,1504.1667 C3162.5,1510.4167 3158.3333,1514.5833 3152.0833,1514.5833 C3158.3333,1514.5833 3162.5,1518.75 3162.5,1525 C3162.5,1531.25 3158.3333,1535.4167 3152.0833,1535.4167 C3158.3333,1535.4167 3162.5,1539.5833 3162.5,1545.8333 C3162.5,1552.0833 3158.3333,1556.25 3152.0833,1556.25 C3158.3333,1556.25 3162.5,1560.4167 3162.5,1566.6667 C3162.5,1572.9167 3158.3333,1577.0833 3152.0833,1577.0833 C3158.3333,1577.0833 3162.5,1581.25 3162.5,1587.5 C3162.5,1593.75 3158.3333,1597.9167 3152.0833,1597.9167 C3158.3333,1597.9167 3162.5,1602.0833 3162.5,1608.3333 C3162.5,1614.5833 3158.3333,1618.75 3152.0833,1618.75 C3158.3333,1618.75 3162.5,1622.9167 3162.5,1629.1667 C3162.5,1635.4167 3158.3333,1639.5833 3152.0833,1639.5833 C3152.0833,1645.8333 3145.8333,1650 3141.6667,1650 C3135.4167,1650 3131.25,1645.8333 3131.25,1639.5833 C3131.25,1645.8333 3125,1650 3120.8333,1650 C3114.5833,1650 3110.4167,1645.8333 3110.4167,1639.5833 C3110.4167,1645.8333 3104.1667,1650 3100,1650 C3093.75,1650 3089.5833,1645.8333 3089.5833,1639.5833 C3089.5833,1645.8333 3083.3333,1650 3079.1667,1650 C3072.9167,1650 3068.75,1645.8333 3068.75,1639.5833 C3068.75,1645.8333 3062.5,1650 3058.3333,1650 C3052.0833,1650 3047.9167,1645.8333 3047.9167,1639.5833 C3047.9167,1645.8333 3041.6667,1650 3037.5,1650 C3031.25,1650 3027.0833,1645.8333 3027.0833,1639.5833 C3027.0833,1645.8333 3020.8333,1650 3016.6667,1650 C3010.4167,1650 3006.25,1645.8333 3006.25,1639.5833 C3006.25,1645.8333 3000,1650 2995.8333,1650 C2989.5833,1650 2985.4167,1645.8333 2985.4167,1639.5833 C2985.4167,1645.8333 2979.1667,1650 2975,1650 C2968.75,1650 2964.5833,1645.8333 2964.5833,1639.5833 C2964.5833,1645.8333 2958.3333,1650 2954.1667,1650 C2947.9167,1650 2943.75,1645.8333 2943.75,1639.5833 C2943.75,1645.8333 2937.5,1650 2933.3333,1650 C2927.0833,1650 2922.9167,1645.8333 2922.9167,1639.5833 C2922.9167,1645.8333 2916.6667,1650 2912.5,1650 C2906.25,1650 2902.0833,1645.8333 2902.0833,1639.5833 C2902.0833,1645.8333 2895.8333,1650 2891.6667,1650 C2885.4167,1650 2881.25,1645.8333 2881.25,1639.5833 C2881.25,1645.8333 2875,1650 2870.8333,1650 C2864.5833,1650 2860.4167,1645.8333 2860.4167,1639.5833 C2854.1667,1639.5833 2850,1635.4167 2850,1629.1667 C2850,1622.9167 2854.1667,1618.75 2860.4167,1618.75 C2854.1667,1618.75 2850,1614.5833 2850,1608.3333 C2850,1602.0833 2854.1667,1597.9167 2860.4167,1597.9167 C2854.1667,1597.9167 2850,1593.75 2850,1587.5 C2850,1581.25 2854.1667,1577.0833 2860.4167,1577.0833 C2854.1667,1577.0833 2850,1572.9167 2850,1566.6667 C2850,1560.4167 2854.1667,1556.25 2860.4167,1556.25 C2854.1667,1556.25 2850,1552.0833 2850,1545.8333 C2850,1539.5833 2854.1667,1535.4167 2860.4167,1535.4167 C2854.1667,1535.4167 2850,1531.25 2850,1525 C2850,1518.75 2854.1667,1514.5833 2860.4167,1514.5833 C2854.1667,1514.5833 2850,1510.4167 2850,1504.1667 C2850,1497.9167 2854.1667,1493.75 2860.4167,1493.75 C2854.1667,1493.75 2850,1489.5833 2850,1483.3333 C2850,1477.0833 2854.1667,1472.9167 2860.4167,1472.9167 " fill="#FFFFFF" style="stroke: #000000; stroke-width: 4.166666666666667;"/><path d="M3218.75,1472.9167 C3218.75,1466.6667 3222.9167,1462.5 3229.1667,1462.5 C3235.4167,1462.5 3239.5833,1466.6667 3239.5833,1472.9167 C3239.5833,1466.6667 3243.75,1462.5 3250,1462.5 C3256.25,1462.5 3260.4167,1466.6667 3260.4167,1472.9167 C3260.4167,1466.6667 3264.5833,1462.5 3270.8333,1462.5 C3277.0833,1462.5 3281.25,1466.6667 3281.25,1472.9167 C3281.25,1466.6667 3285.4167,1462.5 3291.6667,1462.5 C3297.9167,1462.5 3302.0833,1466.6667 3302.0833,1472.9167 C3302.0833,1466.6667 3306.25,1462.5 3312.5,1462.5 C3318.75,1462.5 3322.9167,1466.6667 3322.9167,1472.9167 C3322.9167,1466.6667 3327.0833,1462.5 3333.3333,1462.5 C3339.5833,1462.5 3343.75,1466.6667 3343.75,1472.9167 C3343.75,1466.6667 3347.9167,1462.5 3354.1667,1462.5 C3360.4167,1462.5 3364.5833,1466.6667 3364.5833,1472.9167 C3364.5833,1466.6667 3368.75,1462.5 3375,1462.5 C3381.25,1462.5 3385.4167,1466.6667 3385.4167,1472.9167 C3385.4167,1466.6667 3389.5833,1462.5 3395.8333,1462.5 C3402.0833,1462.5 3406.25,1466.6667 3406.25,1472.9167 C3406.25,1466.6667 3410.4167,1462.5 3416.6667,1462.5 C3422.9167,1462.5 3427.0833,1466.6667 3427.0833,1472.9167 C3427.0833,1466.6667 3431.25,1462.5 3437.5,1462.5 C3443.75,1462.5 3447.9167,1466.6667 3447.9167,1472.9167 C3447.9167,1466.6667 3452.0833,1462.5 3458.3333,1462.5 C3464.5833,1462.5 3468.75,1466.6667 3468.75,1472.9167 C3468.75,1466.6667 3472.9167,1462.5 3479.1667,1462.5 C3485.4167,1462.5 3489.5833,1466.6667 3489.5833,1472.9167 C3489.5833,1466.6667 3493.75,1462.5 3500,1462.5 C3506.25,1462.5 3510.4167,1466.6667 3510.4167,1472.9167 C3510.4167,1466.6667 3514.5833,1462.5 3520.8333,1462.5 C3527.0833,1462.5 3531.25,1466.6667 3531.25,1472.9167 C3537.5,1472.9167 3541.6667,1477.0833 3541.6667,1483.3333 C3541.6667,1489.5833 3537.5,1493.75 3531.25,1493.75 C3537.5,1493.75 3541.6667,1497.9167 3541.6667,1504.1667 C3541.6667,1510.4167 3537.5,1514.5833 3531.25,1514.5833 C3537.5,1514.5833 3541.6667,1518.75 3541.6667,1525 C3541.6667,1531.25 3537.5,1535.4167 3531.25,1535.4167 C3537.5,1535.4167 3541.6667,1539.5833 3541.6667,1545.8333 C3541.6667,1552.0833 3537.5,1556.25 3531.25,1556.25 C3537.5,1556.25 3541.6667,1560.4167 3541.6667,1566.6667 C3541.6667,1572.9167 3537.5,1577.0833 3531.25,1577.0833 C3537.5,1577.0833 3541.6667,1581.25 3541.6667,1587.5 C3541.6667,1593.75 3537.5,1597.9167 3531.25,1597.9167 C3537.5,1597.9167 3541.6667,1602.0833 3541.6667,1608.3333 C3541.6667,1614.5833 3537.5,1618.75 3531.25,1618.75 C3537.5,1618.75 3541.6667,1622.9167 3541.6667,1629.1667 C3541.6667,1635.4167 3537.5,1639.5833 3531.25,1639.5833 C3531.25,1645.8333 3525,1650 3520.8333,1650 C3514.5833,1650 3510.4167,1645.8333 3510.4167,1639.5833 C3510.4167,1645.8333 3504.1667,1650 3500,1650 C3493.75,1650 3489.5833,1645.8333 3489.5833,1639.5833 C3489.5833,1645.8333 3483.3333,1650 3479.1667,1650 C3472.9167,1650 3468.75,1645.8333 3468.75,1639.5833 C3468.75,1645.8333 3462.5,1650 3458.3333,1650 C3452.0833,1650 3447.9167,1645.8333 3447.9167,1639.5833 C3447.9167,1645.8333 3441.6667,1650 3437.5,1650 C3431.25,1650 3427.0833,1645.8333 3427.0833,1639.5833 C3427.0833,1645.8333 3420.8333,1650 3416.6667,1650 C3410.4167,1650 3406.25,1645.8333 3406.25,1639.5833 C3406.25,1645.8333 3400,1650 3395.8333,1650 C3389.5833,1650 3385.4167,1645.8333 3385.4167,1639.5833 C3385.4167,1645.8333 3379.1667,1650 3375,1650 C3368.75,1650 3364.5833,1645.8333 3364.5833,1639.5833 C3364.5833,1645.8333 3358.3333,1650 3354.1667,1650 C3347.9167,1650 3343.75,1645.8333 3343.75,1639.5833 C3343.75,1645.8333 3337.5,1650 3333.3333,1650 C3327.0833,1650 3322.9167,1645.8333 3322.9167,1639.5833 C3322.9167,1645.8333 3316.6667,1650 3312.5,1650 C3306.25,1650 3302.0833,1645.8333 3302.0833,1639.5833 C3302.0833,1645.8333 3295.8333,1650 3291.6667,1650 C3285.4167,1650 3281.25,1645.8333 3281.25,1639.5833 C3281.25,1645.8333 3275,1650 3270.8333,1650 C3264.5833,1650 3260.4167,1645.8333 3260.4167,1639.5833 C3260.4167,1645.8333 3254.1667,1650 3250,1650 C3243.75,1650 3239.5833,1645.8333 3239.5833,1639.5833 C3239.5833,1645.8333 3233.3333,1650 3229.1667,1650 C3222.9167,1650 3218.75,1645.8333 3218.75,1639.5833 C3212.5,1639.5833 3208.3333,1635.4167 3208.3333,1629.1667 C3208.3333,1622.9167 3212.5,1618.75 3218.75,1618.75 C3212.5,1618.75 3208.3333,1614.5833 3208.3333,1608.3333 C3208.3333,1602.0833 3212.5,1597.9167 3218.75,1597.9167 C3212.5,1597.9167 3208.3333,1593.75 3208.3333,1587.5 C3208.3333,1581.25 3212.5,1577.0833 3218.75,1577.0833 C3212.5,1577.0833 3208.3333,1572.9167 3208.3333,1566.6667 C3208.3333,1560.4167 3212.5,1556.25 3218.75,1556.25 C3212.5,1556.25 3208.3333,1552.0833 3208.3333,1545.8333 C3208.3333,1539.5833 3212.5,1535.4167 3218.75,1535.4167 C3212.5,1535.4167 3208.3333,1531.25 3208.3333,1525 C3208.3333,1518.75 3212.5,1514.5833 3218.75,1514.5833 C3212.5,1514.5833 3208.3333,1510.4167 3208.3333,1504.1667 C3208.3333,1497.9167 3212.5,1493.75 3218.75,1493.75 C3212.5,1493.75 3208.3333,1489.5833 3208.3333,1483.3333 C3208.3333,1477.0833 3212.5,1472.9167 3218.75,1472.9167 " fill="#FFFFFF" style="stroke: #000000; stroke-width: 4.166666666666667;"/><rect fill="#FFFFFF" height="833.3333" style="stroke: #000000; stroke-width: 4.166666666666667;" width="506.25" x="45.8333" y="1316.6667"/><text fill="#000000" font-family="CMU Serif" font-size="31.25" font-weight="bold" lengthAdjust="spacingAndGlyphs" textLength="464.5833" x="66.6667" y="1354.007">Yoda External User service</text><rect fill="#FFFFFF" height="235.4167" style="stroke: #000000; stroke-width: 4.166666666666667;" width="358.3333" x="127.0833" y="1433.3333"/><text fill="#000000" font-family="CMU Serif" font-size="31.25" font-weight="bold" lengthAdjust="spacingAndGlyphs" textLength="316.6667" x="147.9167" y="1470.6736">Apache webserver</text><path d="M110.4167,1887.5 C110.4167,1866.6667 279.1667,1866.6667 279.1667,1866.6667 C279.1667,1866.6667 447.9167,1866.6667 447.9167,1887.5 L447.9167,2079.1667 C447.9167,2100 279.1667,2100 279.1667,2100 C279.1667,2100 110.4167,2100 110.4167,2079.1667 L110.4167,1887.5 " fill="#FFFFFF" style="stroke: #000000; stroke-width: 4.166666666666667;"/><path d="M110.4167,1887.5 C110.4167,1908.3333 279.1667,1908.3333 279.1667,1908.3333 C279.1667,1908.3333 447.9167,1908.3333 447.9167,1887.5 " fill="none" style="stroke: #000000; stroke-width: 4.166666666666667;"/><text fill="#000000" font-family="CMU Serif" font-size="31.25" font-weight="bold" lengthAdjust="spacingAndGlyphs" textLength="200" x="179.1667" y="1943.5903">PostgreSQL</text><rect fill="#FFFFFF" height="86.377" style="stroke: #000000; stroke-width: 3.125;" width="110.4167" x="2476.0417" y="512.5"/><text fill="#000000" font-family="CMU Serif" font-size="31.25" lengthAdjust="spacingAndGlyphs" textLength="60.4167" x="2501.0417" y="566.507">PHP</text><rect fill="#FFFFFF" height="86.377" style="stroke: #000000; stroke-width: 3.125;" width="170.8333" x="2231.25" y="512.5"/><text fill="#000000" font-family="CMU Serif" font-size="31.25" lengthAdjust="spacingAndGlyphs" textLength="120.8333" x="2256.25" y="566.507">davrods</text><rect fill="#FFFFFF" height="86.377" style="stroke: #000000; stroke-width: 3.125;" width="337.5" x="1747.9167" y="512.5"/><text fill="#000000" font-family="CMU Serif" font-size="31.25" lengthAdjust="spacingAndGlyphs" textLength="287.5" x="1772.9167" y="566.507">iRODS iCommands</text><rect fill="#FFFFFF" height="86.377" style="stroke: #000000; stroke-width: 3.125;" width="297.9167" x="1696.875" y="1533.3333"/><text fill="#000000" font-family="CMU Serif" font-size="31.25" lengthAdjust="spacingAndGlyphs" textLength="247.9167" x="1721.875" y="1587.3403">iRODS database</text><rect fill="#FFFFFF" height="86.377" style="stroke: #000000; stroke-width: 3.125;" width="229.1667" x="2358.3333" y="1000"/><text fill="#000000" font-family="CMU Serif" font-size="31.25" lengthAdjust="spacingAndGlyphs" textLength="179.1667" x="2383.3333" y="1054.007">iRODS rules</text><rect fill="#FFFFFF" height="86.377" style="stroke: #000000; stroke-width: 3.125;" width="364.5833" x="1919.7917" y="1000"/><text fill="#000000" font-family="CMU Serif" font-size="31.25" lengthAdjust="spacingAndGlyphs" textLength="314.5833" x="1944.7917" y="1054.007">iRODS microservices</text><rect fill="#FFFFFF" height="86.377" style="stroke: #000000; stroke-width: 3.125;" width="229.1667" x="1318.75" y="512.5"/><text fill="#000000" font-family="CMU Serif" font-size="31.25" lengthAdjust="spacingAndGlyphs" textLength="179.1667" x="1343.75" y="566.507">iRODS rules</text><rect fill="#FFFFFF" height="86.377" style="stroke: #000000; stroke-width: 3.125;" width="364.5833" x="880.2083" y="512.5"/><text fill="#000000" font-family="CMU Serif" font-size="31.25" lengthAdjust="spacingAndGlyphs" textLength="314.5833" x="905.2083" y="566.507">iRODS microservices</text><rect fill="#FEFECE" height="86.377" style="stroke: #A80036; stroke-width: 3.125;" width="202.0833" x="734.375" y="1000"/><rect fill="#FEFECE" height="10.4167" style="stroke: #A80036; stroke-width: 3.125;" width="20.8333" x="723.9583" y="1010.4167"/><rect fill="#FEFECE" height="10.4167" style="stroke: #A80036; stroke-width: 3.125;" width="20.8333" x="723.9583" y="1065.5436"/><text fill="#000000" font-family="CMU Serif" font-size="31.25" lengthAdjust="spacingAndGlyphs" textLength="152.0833" x="759.375" y="1054.007">Storage 1</text><rect fill="#FEFECE" height="86.377" style="stroke: #A80036; stroke-width: 3.125;" width="202.0833" x="1051.0417" y="1000"/><rect fill="#FEFECE" height="10.4167" style="stroke: #A80036; stroke-width: 3.125;" width="20.8333" x="1040.625" y="1010.4167"/><rect fill="#FEFECE" height="10.4167" style="stroke: #A80036; stroke-width: 3.125;" width="20.8333" x="1040.625" y="1065.5436"/><text fill="#000000" font-family="CMU Serif" font-size="31.25" lengthAdjust="spacingAndGlyphs" textLength="152.0833" x="1076.0417" y="1054.007">Storage 2</text><rect fill="#FEFECE" height="86.377" style="stroke: #A80036; stroke-width: 3.125;" width="212.5" x="1368.75" y="1000"/><rect fill="#FEFECE" height="10.4167" style="stroke: #A80036; stroke-width: 3.125;" width="20.8333" x="1358.3333" y="1010.4167"/><rect fill="#FEFECE" height="10.4167" style="stroke: #A80036; stroke-width: 3.125;" width="20.8333" x="1358.3333" y="1065.5436"/><text fill="#000000" font-family="CMU Serif" font-size="31.25" lengthAdjust="spacingAndGlyphs" textLength="162.5" x="1393.75" y="1054.007">Storage ...</text><rect fill="#FFFFFF" height="86.377" style="stroke: #000000; stroke-width: 3.125;" width="297.9167" x="2921.875" y="1000"/><text fill="#000000" font-family="CMU Serif" font-size="31.25" lengthAdjust="spacingAndGlyphs" textLength="247.9167" x="2946.875" y="1054.007">OAI-PMH service</text><rect fill="#FEFECE" height="86.377" style="stroke: #A80036; stroke-width: 3.125;" width="239.5833" x="2888.5417" y="1533.3333"/><rect fill="#FEFECE" height="10.4167" style="stroke: #A80036; stroke-width: 3.125;" width="20.8333" x="2878.125" y="1543.75"/><rect fill="#FEFECE" height="10.4167" style="stroke: #A80036; stroke-width: 3.125;" width="20.8333" x="2878.125" y="1598.877"/><text fill="#000000" font-family="CMU Serif" font-size="31.25" lengthAdjust="spacingAndGlyphs" textLength="189.5833" x="2913.5417" y="1587.3403">XML storage</text><rect fill="#FEFECE" height="86.377" style="stroke: #A80036; stroke-width: 3.125;" width="258.3333" x="3245.8333" y="1533.3333"/><rect fill="#FEFECE" height="10.4167" style="stroke: #A80036; stroke-width: 3.125;" width="20.8333" x="3235.4167" y="1543.75"/><rect fill="#FEFECE" height="10.4167" style="stroke: #A80036; stroke-width: 3.125;" width="20.8333" x="3235.4167" y="1598.877"/><text fill="#000000" font-family="CMU Serif" font-size="31.25" lengthAdjust="spacingAndGlyphs" textLength="208.3333" x="3270.8333" y="1587.3403">Landingpages</text><rect fill="#FFFFFF" height="86.377" style="stroke: #000000; stroke-width: 3.125;" width="110.4167" x="323.9583" y="1533.3333"/><text fill="#000000" font-family="CMU Serif" font-size="31.25" lengthAdjust="spacingAndGlyphs" textLength="60.4167" x="348.9583" y="1587.3403">PHP</text><rect fill="#FFFFFF" height="86.377" style="stroke: #000000; stroke-width: 3.125;" width="270.8333" x="143.75" y="1981.25"/><text fill="#000000" font-family="CMU Serif" font-size="31.25" lengthAdjust="spacingAndGlyphs" textLength="220.8333" x="168.75" y="2035.257">External users</text><ellipse cx="2158.3333" cy="35.4167" fill="#FEFECE" rx="16.6667" ry="16.6667" style="stroke: #A80036; stroke-width: 4.166666666666667;"/><text fill="#000000" font-family="CMU Serif" font-size="31.25" lengthAdjust="spacingAndGlyphs" textLength="100" x="2108.3333" y="87.3403">HTTPS</text><ellipse cx="445.8333" cy="35.4167" fill="#FEFECE" rx="16.6667" ry="16.6667" style="stroke: #A80036; stroke-width: 4.166666666666667;"/><text fill="#000000" font-family="CMU Serif" font-size="31.25" lengthAdjust="spacingAndGlyphs" textLength="181.25" x="355.2083" y="87.3403">iCommands</text><path d="M2175.6207,648.6156 C2175.6292,649.1978 2175.6353,649.7805 2175.6389,650.3636 C2175.6461,651.5298 2175.6435,652.6976 2175.6304,653.8664 C2175.5257,663.2166 2174.7559,672.6302 2173.0716,681.7931 C2169.7031,700.119 2162.6771,717.4422 2150,731.25 C2109.875,774.9437 1927.5813,724.9396 1885.4167,766.6667 C1863.8974,787.9625 1850.5724,815.3682 1842.7118,844.5869 C1838.7815,859.1963 1836.2173,874.2589 1834.678,889.2377 C1834.4856,891.11 1834.3092,892.981 1834.1482,894.8497 C1834.0676,895.784 1833.9909,896.7178 1833.918,897.6508 C1833.8815,898.1173 1833.846,898.5837 1833.8114,899.0498 " fill="none" style="stroke: #A80036; stroke-width: 2.0833333333333335; stroke-dasharray: 7.0,7.0;"/><polygon fill="#A80036" points="1833.8114,899.0498,1843.5099,880.9681,1834.5825,888.6617,1826.889,879.7343,1833.8114,899.0498" style="stroke: #A80036; stroke-width: 2.0833333333333335;"/><path d="M1910.5021,598.2063 C1904.1583,640.4042 1894.0146,708.1229 1885.4167,766.6667 C1881.0172,796.6208 1876.3858,828.4234 1871.9031,859.3506 C1870.7825,867.0824 1869.6711,874.7595 1868.5749,882.3393 C1868.0269,886.1292 1867.4826,889.8948 1866.9429,893.6307 C1866.6731,895.4987 1866.4043,897.3593 1866.1369,899.2118 " fill="none" style="stroke: #A80036; stroke-width: 2.0833333333333335; stroke-dasharray: 7.0,7.0;"/><polygon fill="#A80036" points="1866.1369,899.2118,1877.0642,881.8451,1867.6255,888.902,1860.5686,879.4633,1866.1369,899.2118" style="stroke: #A80036; stroke-width: 2.0833333333333335;"/><path d="M805.7192,648.6585 C805.7644,648.9515 805.81,649.2446 805.8563,649.5377 C806.2266,651.8828 806.6348,654.2321 807.0839,656.5803 C808.88,665.973 811.3292,675.3472 814.6148,684.356 C821.1861,702.3736 831.1031,718.9297 845.8333,731.25 C878.6271,758.6792 1576.2333,747.7667 1614.5833,766.6667 C1684.9292,801.3344 1742.0484,868.2422 1781.9198,927.2555 C1801.8555,956.7621 1817.4792,984.2951 1828.2882,1004.8377 C1828.4571,1005.1586 1828.6248,1005.4779 1828.7914,1005.7955 " fill="none" style="stroke: #A80036; stroke-width: 2.0833333333333335;"/><path d="M811.8275,649.7237 C811.9755,652.1764 812.1255,654.6628 812.2775,657.181 C812.5814,662.2174 812.893,667.3809 813.2113,672.656 C814.4846,693.7566 815.8657,716.6439 817.2951,740.331 C823.0125,835.0792 829.5021,942.6229 832.9521,999.7937 " fill="none" style="stroke: #A80036; stroke-width: 2.0833333333333335;"/><path d="M808.9219,648.3434 C809.0239,648.9252 809.1281,649.5074 809.2344,650.0901 C809.447,651.2555 809.6681,652.4226 809.8982,653.5909 C811.7385,662.9368 814.1468,672.3544 817.2726,681.5329 C823.5242,699.8901 832.6458,717.2911 845.8333,731.25 C884.8771,772.575 922.8375,733.1354 968.75,766.6667 C1052.4021,827.7604 1109.4125,939.4125 1135.6354,999.5917 " fill="none" style="stroke: #A80036; stroke-width: 2.0833333333333335;"/><path d="M806.1021,648.2099 C806.1476,648.5024 806.1936,648.7951 806.2403,649.0878 C806.6135,651.4294 807.024,653.7761 807.4745,656.1224 C809.2768,665.508 811.7203,674.8888 814.9837,683.9235 C821.5105,701.9931 831.3172,718.6786 845.8333,731.25 C882.875,763.3292 1242.9646,742.1958 1285.4167,766.6667 C1377.1188,819.5292 1434.5938,936.8083 1459.9146,999.3958 " fill="none" style="stroke: #A80036; stroke-width: 2.0833333333333335;"/><path d="M1845.8333,1135.8389 C1845.8333,1137.1222 1845.8333,1138.4153 1845.8333,1139.7178 C1845.8333,1142.3229 1845.8333,1144.966 1845.8333,1147.6449 C1845.8333,1153.0028 1845.8333,1158.5043 1845.8333,1164.1328 C1845.8333,1186.6468 1845.8333,1211.1939 1845.8333,1236.719 C1845.8333,1338.8193 1845.8333,1456.5667 1845.8333,1522.4333 " fill="none" style="stroke: #A80036; stroke-width: 2.0833333333333335; stroke-dasharray: 7.0,7.0;"/><polygon fill="#A80036" points="1845.8333,1533.0396,1854.1667,1514.2896,1845.8333,1522.6229,1837.5,1514.2896,1845.8333,1533.0396" style="stroke: #A80036; stroke-width: 2.0833333333333335;"/><text fill="#000000" font-family="CMU Serif" font-size="31.25" lengthAdjust="spacingAndGlyphs" textLength="54.1667" x="1852.0833" y="1270.6736">use</text><path d="M3307.7296,1135.8389 C3307.9266,1137.1222 3308.1251,1138.4153 3308.325,1139.7178 C3308.7249,1142.3229 3309.1307,1144.966 3309.5419,1147.6449 C3310.3644,1153.0028 3311.2089,1158.5043 3312.073,1164.1328 C3315.5291,1186.6468 3319.2975,1211.1939 3323.2161,1236.719 C3338.8906,1338.8193 3356.9688,1456.5667 3367.0833,1522.4333 " fill="none" style="stroke: #A80036; stroke-width: 2.0833333333333335; stroke-dasharray: 7.0,7.0;"/><polygon fill="#A80036" points="3368.7083,1533.0396,3374.101,1513.2425,3367.1282,1522.7435,3357.6272,1515.7707,3368.7083,1533.0396" style="stroke: #A80036; stroke-width: 2.0833333333333335;"/><text fill="#000000" font-family="CMU Serif" font-size="31.25" lengthAdjust="spacingAndGlyphs" textLength="54.1667" x="3335.4167" y="1270.6736">use</text><path d="M3066.0417,1085.4354 C3054.8125,1180.4729 3026.8542,1417.1021 3014.4375,1522.2208 " fill="none" style="stroke: #A80036; stroke-width: 2.0833333333333335; stroke-dasharray: 7.0,7.0;"/><polygon fill="#A80036" points="3013.1458,1533.175,3023.6158,1515.5288,3014.3647,1522.8299,3007.0636,1513.5787,3013.1458,1533.175" style="stroke: #A80036; stroke-width: 2.0833333333333335;"/><text fill="#000000" font-family="CMU Serif" font-size="31.25" lengthAdjust="spacingAndGlyphs" textLength="54.1667" x="3054.1667" y="1270.6736">use</text><path d="M256.0344,1669.9411 C256.18,1672.155 256.3272,1674.3955 256.4761,1676.6612 C257.6675,1694.7869 258.9646,1714.5221 260.3154,1735.0721 C265.7182,1817.2724 271.9781,1912.5104 275.7521,1969.925 " fill="none" style="stroke: #A80036; stroke-width: 2.0833333333333335; stroke-dasharray: 7.0,7.0;"/><polygon fill="#A80036" points="276.45,1980.5515,283.5385,1961.2963,275.7684,1970.1571,266.9076,1962.387,276.45,1980.5515" style="stroke: #A80036; stroke-width: 2.0833333333333335;"/><text fill="#000000" font-family="CMU Serif" font-size="31.25" lengthAdjust="spacingAndGlyphs" textLength="54.1667" x="272.9167" y="1820.6736">use</text><path d="M2158.3333,98.125 C2158.3333,155.4115 2158.3333,266.5297 2158.3333,364.6115 C2158.3333,376.8717 2158.3333,388.9282 2158.3333,400.6504 C2158.3333,403.581 2158.3333,406.4907 2158.3333,409.3774 C2158.3333,410.0991 2158.3333,410.8193 2158.3333,411.5381 " fill="none" style="stroke: #A80036; stroke-width: 2.0833333333333335;"/><path d="M2212.8125,64.7292 C2302.6667,75.4375 2485.5,105.1125 2620.8333,179.1667 C2957.6458,363.4583 3075.7708,426.6833 3254.1667,766.6667 C3268.2344,793.4755 3277.7747,823.6809 3284.1644,853.9874 C3287.3592,869.1406 3289.7664,884.3192 3291.5579,899.1111 " fill="none" style="stroke: #A80036; stroke-width: 2.0833333333333335;"/><path d="M2103.9375,60.8125 C1861.0375,67.6667 882.5583,100.0688 772.9167,179.1667 C506.5604,371.3219 375.7849,716.0938 311.6214,1014.7669 C279.5396,1164.1035 264.1108,1301.9154 256.7139,1403.3632 C256.2516,1409.7037 255.8207,1415.9022 255.419,1421.9525 C255.2182,1424.9777 255.0247,1427.9658 254.8382,1430.9162 " fill="none" style="stroke: #A80036; stroke-width: 2.0833333333333335;"/><path d="M540.65,60.7292 C779.5667,65.4583 1400.1104,86.6042 1581.25,179.1667 C1732.3,256.3521 1847.4417,432.1167 1894.0458,512.1125 " fill="none" style="stroke: #A80036; stroke-width: 2.0833333333333335;"/><path d="M1848.8321,1135.5385 C1848.9347,1136.1197 1849.0393,1136.7015 1849.1461,1137.2837 C1849.3596,1138.4482 1849.5816,1139.6146 1849.8123,1140.7822 C1851.6578,1150.1232 1854.0612,1159.5453 1857.1683,1168.7414 C1863.3823,1187.1336 1872.4104,1204.6219 1885.4167,1218.75 C1894.1313,1228.2167 2583.875,1442.5563 2877.8958,1533.6167 " fill="none" style="stroke: #A80036; stroke-width: 2.0833333333333335; stroke-dasharray: 7.0,7.0;"/><polygon fill="#A80036" points="2888.1875,1536.8042,2872.7582,1523.2785,2878.2408,1533.7107,2867.8086,1539.1933,2888.1875,1536.8042" style="stroke: #A80036; stroke-width: 2.0833333333333335;"/><text fill="#000000" font-family="CMU Serif" font-size="31.25" lengthAdjust="spacingAndGlyphs" textLength="60.4167" x="2060.4167" y="1270.6736">SCP</text><path d="M1828.8415,1063.4201 C1828.6631,1063.6084 1828.4834,1063.7978 1828.3024,1063.9883 C1827.9405,1064.3695 1827.5734,1064.7552 1827.2013,1065.1455 C1826.457,1065.9261 1825.6925,1066.7249 1824.9079,1067.5409 C1812.3557,1080.598 1794.699,1098.096 1773.4365,1116.8419 C1730.9115,1154.3339 1673.9635,1196.8177 1614.5833,1218.75 C1399.6229,1298.1458 814.1646,1269.7125 585.4167,1283.3333 C552.5521,1285.2896 313.8563,1277.7563 289.5833,1300 C267.2626,1320.4542 253.5305,1347.4326 245.5118,1376.4853 C241.5024,1391.0116 238.9214,1406.0565 237.4092,1421.0638 C237.0312,1424.8156 236.7199,1428.5651 236.4699,1432.3035 " fill="none" style="stroke: #A80036; stroke-width: 2.0833333333333335; stroke-dasharray: 7.0,7.0;"/><polygon fill="#A80036" points="236.4699,1432.3035,246.036,1414.1515,237.1651,1421.9101,229.4064,1413.0392,236.4699,1432.3035" style="stroke: #A80036; stroke-width: 2.0833333333333335;"/><text fill="#000000" font-family="CMU Serif" font-size="31.25" lengthAdjust="spacingAndGlyphs" textLength="100" x="1564.5833" y="1270.6736">HTTPS</text></g></svg>