<?xml version="1.0" encoding="UTF-8" standalone="yes"?><svg xmlns="http://www.w3.org/2000/svg" xmlns:xlink="http://www.w3.org/1999/xlink" height="2152.0833px" style="width:3541px;height:2152px;" version="1.1" viewBox="0 0 3541 2152" width="3541.6667px"><defs/><g><rect fill="#FFFFFF" height="1556.25" style="stroke: #000000; stroke-width: 4.166666666666667;" width="2104.1667" x="879.1667" y="195.8333"/><text fill="#000000" font-family="CMU Serif" font-size="31.25" font-weight="bold" lengthAdjust="spacingAndGlyphs" textLength="239.5833" x="1811.4583" y="233.1736">Yoda instance</text><polygon fill="#FFFFFF" points="929.1667,295.8333,1145.8333,295.8333,1160.4167,353.0436,1558.3333,353.0436,1558.3333,714.5833,929.1667,714.5833,929.1667,295.8333" style="stroke: #000000; stroke-width: 4.166666666666667;"/><line style="stroke: #000000; stroke-width: 4.166666666666667;" x1="929.1667" x2="1160.4167" y1="353.0436" y2="353.0436"/><text fill="#000000" font-family="CMU Serif" font-size="31.25" font-weight="bold" lengthAdjust="spacingAndGlyphs" textLength="195.8333" x="941.6667" y="333.1736">Yoda portal</text><rect fill="#FFFFFF" height="235.4167" style="stroke: #000000; stroke-width: 4.166666666666667;" width="495.8333" x="995.8333" y="412.5"/><text fill="#000000" font-family="CMU Serif" font-size="31.25" font-weight="bold" lengthAdjust="spacingAndGlyphs" textLength="316.6667" x="1085.4167" y="449.8403">Apache webserver</text><polygon fill="#FFFFFF" points="929.1667,1318.75,1183.3333,1318.75,1197.9167,1375.9603,1395.8333,1375.9603,1395.8333,1702.0833,929.1667,1702.0833,929.1667,1318.75" style="stroke: #000000; stroke-width: 4.166666666666667;"/><line style="stroke: #000000; stroke-width: 4.166666666666667;" x1="929.1667" x2="1197.9167" y1="1375.9603" y2="1375.9603"/><text fill="#000000" font-family="CMU Serif" font-size="31.25" font-weight="bold" lengthAdjust="spacingAndGlyphs" textLength="233.3333" x="941.6667" y="1356.0903">Yoda databse</text><path d="M979.1667,1439.5833 C979.1667,1418.75 1162.5,1418.75 1162.5,1418.75 C1162.5,1418.75 1345.8333,1418.75 1345.8333,1439.5833 L1345.8333,1631.25 C1345.8333,1652.0833 1162.5,1652.0833 1162.5,1652.0833 C1162.5,1652.0833 979.1667,1652.0833 979.1667,1631.25 L979.1667,1439.5833 " fill="#FFFFFF" style="stroke: #000000; stroke-width: 4.166666666666667;"/><path d="M979.1667,1439.5833 C979.1667,1460.4167 1162.5,1460.4167 1162.5,1460.4167 C1162.5,1460.4167 1345.8333,1460.4167 1345.8333,1439.5833 " fill="none" style="stroke: #000000; stroke-width: 4.166666666666667;"/><text fill="#000000" font-family="CMU Serif" font-size="31.25" font-weight="bold" lengthAdjust="spacingAndGlyphs" textLength="200" x="1062.5" y="1495.6736">PostgreSQL</text><polygon fill="#FFFFFF" points="929.1667,783.3333,1120.8333,783.3333,1135.4167,840.5436,1870.8333,840.5436,1870.8333,1202.0833,929.1667,1202.0833,929.1667,783.3333" style="stroke: #000000; stroke-width: 4.166666666666667;"/><line style="stroke: #000000; stroke-width: 4.166666666666667;" x1="929.1667" x2="1135.4167" y1="840.5436" y2="840.5436"/><text fill="#000000" font-family="CMU Serif" font-size="31.25" font-weight="bold" lengthAdjust="spacingAndGlyphs" textLength="170.8333" x="941.6667" y="820.6736">Yoda iCAT</text><rect fill="#FFFFFF" height="235.4167" style="stroke: #000000; stroke-width: 4.166666666666667;" width="808.3333" x="995.8333" y="900"/><text fill="#000000" font-family="CMU Serif" font-size="31.25" font-weight="bold" lengthAdjust="spacingAndGlyphs" textLength="193.75" x="1303.125" y="937.3403">iRODS iCAT</text><polygon fill="#FFFFFF" points="1920.8333,295.8333,2187.5,295.8333,2202.0833,353.0436,2933.3333,353.0436,2933.3333,1168.75,1920.8333,1168.75,1920.8333,295.8333" style="stroke: #000000; stroke-width: 4.166666666666667;"/><line style="stroke: #000000; stroke-width: 4.166666666666667;" x1="1920.8333" x2="2202.0833" y1="353.0436" y2="353.0436"/><text fill="#000000" font-family="CMU Serif" font-size="31.25" font-weight="bold" lengthAdjust="spacingAndGlyphs" textLength="245.8333" x="1933.3333" y="333.1736">Yoda resource</text><rect fill="#FFFFFF" height="235.4167" style="stroke: #000000; stroke-width: 4.166666666666667;" width="808.3333" x="2058.3333" y="412.5"/><text fill="#000000" font-family="CMU Serif" font-size="31.25" font-weight="bold" lengthAdjust="spacingAndGlyphs" textLength="268.75" x="2328.125" y="449.8403">iRODS resource</text><path d="M1977.0833,939.5833 C1977.0833,933.3333 1981.25,929.1667 1987.5,929.1667 C1993.75,929.1667 1997.9167,933.3333 1997.9167,939.5833 C1997.9167,933.3333 2002.0833,929.1667 2008.3333,929.1667 C2014.5833,929.1667 2018.75,933.3333 2018.75,939.5833 C2018.75,933.3333 2022.9167,929.1667 2029.1667,929.1667 C2035.4167,929.1667 2039.5833,933.3333 2039.5833,939.5833 C2039.5833,933.3333 2043.75,929.1667 2050,929.1667 C2056.25,929.1667 2060.4167,933.3333 2060.4167,939.5833 C2060.4167,933.3333 2064.5833,929.1667 2070.8333,929.1667 C2077.0833,929.1667 2081.25,933.3333 2081.25,939.5833 C2081.25,933.3333 2085.4167,929.1667 2091.6667,929.1667 C2097.9167,929.1667 2102.0833,933.3333 2102.0833,939.5833 C2102.0833,933.3333 2106.25,929.1667 2112.5,929.1667 C2118.75,929.1667 2122.9167,933.3333 2122.9167,939.5833 C2122.9167,933.3333 2127.0833,929.1667 2133.3333,929.1667 C2139.5833,929.1667 2143.75,933.3333 2143.75,939.5833 C2143.75,933.3333 2147.9167,929.1667 2154.1667,929.1667 C2160.4167,929.1667 2164.5833,933.3333 2164.5833,939.5833 C2164.5833,933.3333 2168.75,929.1667 2175,929.1667 C2181.25,929.1667 2185.4167,933.3333 2185.4167,939.5833 C2185.4167,933.3333 2189.5833,929.1667 2195.8333,929.1667 C2202.0833,929.1667 2206.25,933.3333 2206.25,939.5833 C2206.25,933.3333 2210.4167,929.1667 2216.6667,929.1667 C2222.9167,929.1667 2227.0833,933.3333 2227.0833,939.5833 C2233.3333,939.5833 2237.5,943.75 2237.5,950 C2237.5,956.25 2233.3333,960.4167 2227.0833,960.4167 C2233.3333,960.4167 2237.5,964.5833 2237.5,970.8333 C2237.5,977.0833 2233.3333,981.25 2227.0833,981.25 C2233.3333,981.25 2237.5,985.4167 2237.5,991.6667 C2237.5,997.9167 2233.3333,1002.0833 2227.0833,1002.0833 C2233.3333,1002.0833 2237.5,1006.25 2237.5,1012.5 C2237.5,1018.75 2233.3333,1022.9167 2227.0833,1022.9167 C2233.3333,1022.9167 2237.5,1027.0833 2237.5,1033.3333 C2237.5,1039.5833 2233.3333,1043.75 2227.0833,1043.75 C2233.3333,1043.75 2237.5,1047.9167 2237.5,1054.1667 C2237.5,1060.4167 2233.3333,1064.5833 2227.0833,1064.5833 C2233.3333,1064.5833 2237.5,1068.75 2237.5,1075 C2237.5,1081.25 2233.3333,1085.4167 2227.0833,1085.4167 C2233.3333,1085.4167 2237.5,1089.5833 2237.5,1095.8333 C2237.5,1102.0833 2233.3333,1106.25 2227.0833,1106.25 C2227.0833,1112.5 2220.8333,1116.6667 2216.6667,1116.6667 C2210.4167,1116.6667 2206.25,1112.5 2206.25,1106.25 C2206.25,1112.5 2200,1116.6667 2195.8333,1116.6667 C2189.5833,1116.6667 2185.4167,1112.5 2185.4167,1106.25 C2185.4167,1112.5 2179.1667,1116.6667 2175,1116.6667 C2168.75,1116.6667 2164.5833,1112.5 2164.5833,1106.25 C2164.5833,1112.5 2158.3333,1116.6667 2154.1667,1116.6667 C2147.9167,1116.6667 2143.75,1112.5 2143.75,1106.25 C2143.75,1112.5 2137.5,1116.6667 2133.3333,1116.6667 C2127.0833,1116.6667 2122.9167,1112.5 2122.9167,1106.25 C2122.9167,1112.5 2116.6667,1116.6667 2112.5,1116.6667 C2106.25,1116.6667 2102.0833,1112.5 2102.0833,1106.25 C2102.0833,1112.5 2095.8333,1116.6667 2091.6667,1116.6667 C2085.4167,1116.6667 2081.25,1112.5 2081.25,1106.25 C2081.25,1112.5 2075,1116.6667 2070.8333,1116.6667 C2064.5833,1116.6667 2060.4167,1112.5 2060.4167,1106.25 C2060.4167,1112.5 2054.1667,1116.6667 2050,1116.6667 C2043.75,1116.6667 2039.5833,1112.5 2039.5833,1106.25 C2039.5833,1112.5 2033.3333,1116.6667 2029.1667,1116.6667 C2022.9167,1116.6667 2018.75,1112.5 2018.75,1106.25 C2018.75,1112.5 2012.5,1116.6667 2008.3333,1116.6667 C2002.0833,1116.6667 1997.9167,1112.5 1997.9167,1106.25 C1997.9167,1112.5 1991.6667,1116.6667 1987.5,1116.6667 C1981.25,1116.6667 1977.0833,1112.5 1977.0833,1106.25 C1970.8333,1106.25 1966.6667,1102.0833 1966.6667,1095.8333 C1966.6667,1089.5833 1970.8333,1085.4167 1977.0833,1085.4167 C1970.8333,1085.4167 1966.6667,1081.25 1966.6667,1075 C1966.6667,1068.75 1970.8333,1064.5833 1977.0833,1064.5833 C1970.8333,1064.5833 1966.6667,1060.4167 1966.6667,1054.1667 C1966.6667,1047.9167 1970.8333,1043.75 1977.0833,1043.75 C1970.8333,1043.75 1966.6667,1039.5833 1966.6667,1033.3333 C1966.6667,1027.0833 1970.8333,1022.9167 1977.0833,1022.9167 C1970.8333,1022.9167 1966.6667,1018.75 1966.6667,1012.5 C1966.6667,1006.25 1970.8333,1002.0833 1977.0833,1002.0833 C1970.8333,1002.0833 1966.6667,997.9167 1966.6667,991.6667 C1966.6667,985.4167 1970.8333,981.25 1977.0833,981.25 C1970.8333,981.25 1966.6667,977.0833 1966.6667,970.8333 C1966.6667,964.5833 1970.8333,960.4167 1977.0833,960.4167 C1970.8333,960.4167 1966.6667,956.25 1966.6667,950 C1966.6667,943.75 1970.8333,939.5833 1977.0833,939.5833 " fill="#FFFFFF" style="stroke: #000000; stroke-width: 4.166666666666667;"/><path d="M2293.75,939.5833 C2293.75,933.3333 2297.9167,929.1667 2304.1667,929.1667 C2310.4167,929.1667 2314.5833,933.3333 2314.5833,939.5833 C2314.5833,933.3333 2318.75,929.1667 2325,929.1667 C2331.25,929.1667 2335.4167,933.3333 2335.4167,939.5833 C2335.4167,933.3333 2339.5833,929.1667 2345.8333,929.1667 C2352.0833,929.1667 2356.25,933.3333 2356.25,939.5833 C2356.25,933.3333 2360.4167,929.1667 2366.6667,929.1667 C2372.9167,929.1667 2377.0833,933.3333 2377.0833,939.5833 C2377.0833,933.3333 2381.25,929.1667 2387.5,929.1667 C2393.75,929.1667 2397.9167,933.3333 2397.9167,939.5833 C2397.9167,933.3333 2402.0833,929.1667 2408.3333,929.1667 C2414.5833,929.1667 2418.75,933.3333 2418.75,939.5833 C2418.75,933.3333 2422.9167,929.1667 2429.1667,929.1667 C2435.4167,929.1667 2439.5833,933.3333 2439.5833,939.5833 C2439.5833,933.3333 2443.75,929.1667 2450,929.1667 C2456.25,929.1667 2460.4167,933.3333 2460.4167,939.5833 C2460.4167,933.3333 2464.5833,929.1667 2470.8333,929.1667 C2477.0833,929.1667 2481.25,933.3333 2481.25,939.5833 C2481.25,933.3333 2485.4167,929.1667 2491.6667,929.1667 C2497.9167,929.1667 2502.0833,933.3333 2502.0833,939.5833 C2502.0833,933.3333 2506.25,929.1667 2512.5,929.1667 C2518.75,929.1667 2522.9167,933.3333 2522.9167,939.5833 C2522.9167,933.3333 2527.0833,929.1667 2533.3333,929.1667 C2539.5833,929.1667 2543.75,933.3333 2543.75,939.5833 C2550,939.5833 2554.1667,943.75 2554.1667,950 C2554.1667,956.25 2550,960.4167 2543.75,960.4167 C2550,960.4167 2554.1667,964.5833 2554.1667,970.8333 C2554.1667,977.0833 2550,981.25 2543.75,981.25 C2550,981.25 2554.1667,985.4167 2554.1667,991.6667 C2554.1667,997.9167 2550,1002.0833 2543.75,1002.0833 C2550,1002.0833 2554.1667,1006.25 2554.1667,1012.5 C2554.1667,1018.75 2550,1022.9167 2543.75,1022.9167 C2550,1022.9167 2554.1667,1027.0833 2554.1667,1033.3333 C2554.1667,1039.5833 2550,1043.75 2543.75,1043.75 C2550,1043.75 2554.1667,1047.9167 2554.1667,1054.1667 C2554.1667,1060.4167 2550,1064.5833 2543.75,1064.5833 C2550,1064.5833 2554.1667,1068.75 2554.1667,1075 C2554.1667,1081.25 2550,1085.4167 2543.75,1085.4167 C2550,1085.4167 2554.1667,1089.5833 2554.1667,1095.8333 C2554.1667,1102.0833 2550,1106.25 2543.75,1106.25 C2543.75,1112.5 2537.5,1116.6667 2533.3333,1116.6667 C2527.0833,1116.6667 2522.9167,1112.5 2522.9167,1106.25 C2522.9167,1112.5 2516.6667,1116.6667 2512.5,1116.6667 C2506.25,1116.6667 2502.0833,1112.5 2502.0833,1106.25 C2502.0833,1112.5 2495.8333,1116.6667 2491.6667,1116.6667 C2485.4167,1116.6667 2481.25,1112.5 2481.25,1106.25 C2481.25,1112.5 2475,1116.6667 2470.8333,1116.6667 C2464.5833,1116.6667 2460.4167,1112.5 2460.4167,1106.25 C2460.4167,1112.5 2454.1667,1116.6667 2450,1116.6667 C2443.75,1116.6667 2439.5833,1112.5 2439.5833,1106.25 C2439.5833,1112.5 2433.3333,1116.6667 2429.1667,1116.6667 C2422.9167,1116.6667 2418.75,1112.5 2418.75,1106.25 C2418.75,1112.5 2412.5,1116.6667 2408.3333,1116.6667 C2402.0833,1116.6667 2397.9167,1112.5 2397.9167,1106.25 C2397.9167,1112.5 2391.6667,1116.6667 2387.5,1116.6667 C2381.25,1116.6667 2377.0833,1112.5 2377.0833,1106.25 C2377.0833,1112.5 2370.8333,1116.6667 2366.6667,1116.6667 C2360.4167,1116.6667 2356.25,1112.5 2356.25,1106.25 C2356.25,1112.5 2350,1116.6667 2345.8333,1116.6667 C2339.5833,1116.6667 2335.4167,1112.5 2335.4167,1106.25 C2335.4167,1112.5 2329.1667,1116.6667 2325,1116.6667 C2318.75,1116.6667 2314.5833,1112.5 2314.5833,1106.25 C2314.5833,1112.5 2308.3333,1116.6667 2304.1667,1116.6667 C2297.9167,1116.6667 2293.75,1112.5 2293.75,1106.25 C2287.5,1106.25 2283.3333,1102.0833 2283.3333,1095.8333 C2283.3333,1089.5833 2287.5,1085.4167 2293.75,1085.4167 C2287.5,1085.4167 2283.3333,1081.25 2283.3333,1075 C2283.3333,1068.75 2287.5,1064.5833 2293.75,1064.5833 C2287.5,1064.5833 2283.3333,1060.4167 2283.3333,1054.1667 C2283.3333,1047.9167 2287.5,1043.75 2293.75,1043.75 C2287.5,1043.75 2283.3333,1039.5833 2283.3333,1033.3333 C2283.3333,1027.0833 2287.5,1022.9167 2293.75,1022.9167 C2287.5,1022.9167 2283.3333,1018.75 2283.3333,1012.5 C2283.3333,1006.25 2287.5,1002.0833 2293.75,1002.0833 C2287.5,1002.0833 2283.3333,997.9167 2283.3333,991.6667 C2283.3333,985.4167 2287.5,981.25 2293.75,981.25 C2287.5,981.25 2283.3333,977.0833 2283.3333,970.8333 C2283.3333,964.5833 2287.5,960.4167 2293.75,960.4167 C2287.5,960.4167 2283.3333,956.25 2283.3333,950 C2283.3333,943.75 2287.5,939.5833 2293.75,939.5833 " fill="#FFFFFF" style="stroke: #000000; stroke-width: 4.166666666666667;"/><path d="M2610.4167,939.5833 C2610.4167,933.3333 2614.5833,929.1667 2620.8333,929.1667 C2627.0833,929.1667 2631.25,933.3333 2631.25,939.5833 C2631.25,933.3333 2635.4167,929.1667 2641.6667,929.1667 C2647.9167,929.1667 2652.0833,933.3333 2652.0833,939.5833 C2652.0833,933.3333 2656.25,929.1667 2662.5,929.1667 C2668.75,929.1667 2672.9167,933.3333 2672.9167,939.5833 C2672.9167,933.3333 2677.0833,929.1667 2683.3333,929.1667 C2689.5833,929.1667 2693.75,933.3333 2693.75,939.5833 C2693.75,933.3333 2697.9167,929.1667 2704.1667,929.1667 C2710.4167,929.1667 2714.5833,933.3333 2714.5833,939.5833 C2714.5833,933.3333 2718.75,929.1667 2725,929.1667 C2731.25,929.1667 2735.4167,933.3333 2735.4167,939.5833 C2735.4167,933.3333 2739.5833,929.1667 2745.8333,929.1667 C2752.0833,929.1667 2756.25,933.3333 2756.25,939.5833 C2756.25,933.3333 2760.4167,929.1667 2766.6667,929.1667 C2772.9167,929.1667 2777.0833,933.3333 2777.0833,939.5833 C2777.0833,933.3333 2781.25,929.1667 2787.5,929.1667 C2793.75,929.1667 2797.9167,933.3333 2797.9167,939.5833 C2797.9167,933.3333 2802.0833,929.1667 2808.3333,929.1667 C2814.5833,929.1667 2818.75,933.3333 2818.75,939.5833 C2818.75,933.3333 2822.9167,929.1667 2829.1667,929.1667 C2835.4167,929.1667 2839.5833,933.3333 2839.5833,939.5833 C2839.5833,933.3333 2843.75,929.1667 2850,929.1667 C2856.25,929.1667 2860.4167,933.3333 2860.4167,939.5833 C2860.4167,933.3333 2864.5833,929.1667 2870.8333,929.1667 C2877.0833,929.1667 2881.25,933.3333 2881.25,939.5833 C2887.5,939.5833 2891.6667,943.75 2891.6667,950 C2891.6667,956.25 2887.5,960.4167 2881.25,960.4167 C2887.5,960.4167 2891.6667,964.5833 2891.6667,970.8333 C2891.6667,977.0833 2887.5,981.25 2881.25,981.25 C2887.5,981.25 2891.6667,985.4167 2891.6667,991.6667 C2891.6667,997.9167 2887.5,1002.0833 2881.25,1002.0833 C2887.5,1002.0833 2891.6667,1006.25 2891.6667,1012.5 C2891.6667,1018.75 2887.5,1022.9167 2881.25,1022.9167 C2887.5,1022.9167 2891.6667,1027.0833 2891.6667,1033.3333 C2891.6667,1039.5833 2887.5,1043.75 2881.25,1043.75 C2887.5,1043.75 2891.6667,1047.9167 2891.6667,1054.1667 C2891.6667,1060.4167 2887.5,1064.5833 2881.25,1064.5833 C2887.5,1064.5833 2891.6667,1068.75 2891.6667,1075 C2891.6667,1081.25 2887.5,1085.4167 2881.25,1085.4167 C2887.5,1085.4167 2891.6667,1089.5833 2891.6667,1095.8333 C2891.6667,1102.0833 2887.5,1106.25 2881.25,1106.25 C2881.25,1112.5 2875,1116.6667 2870.8333,1116.6667 C2864.5833,1116.6667 2860.4167,1112.5 2860.4167,1106.25 C2860.4167,1112.5 2854.1667,1116.6667 2850,1116.6667 C2843.75,1116.6667 2839.5833,1112.5 2839.5833,1106.25 C2839.5833,1112.5 2833.3333,1116.6667 2829.1667,1116.6667 C2822.9167,1116.6667 2818.75,1112.5 2818.75,1106.25 C2818.75,1112.5 2812.5,1116.6667 2808.3333,1116.6667 C2802.0833,1116.6667 2797.9167,1112.5 2797.9167,1106.25 C2797.9167,1112.5 2791.6667,1116.6667 2787.5,1116.6667 C2781.25,1116.6667 2777.0833,1112.5 2777.0833,1106.25 C2777.0833,1112.5 2770.8333,1116.6667 2766.6667,1116.6667 C2760.4167,1116.6667 2756.25,1112.5 2756.25,1106.25 C2756.25,1112.5 2750,1116.6667 2745.8333,1116.6667 C2739.5833,1116.6667 2735.4167,1112.5 2735.4167,1106.25 C2735.4167,1112.5 2729.1667,1116.6667 2725,1116.6667 C2718.75,1116.6667 2714.5833,1112.5 2714.5833,1106.25 C2714.5833,1112.5 2708.3333,1116.6667 2704.1667,1116.6667 C2697.9167,1116.6667 2693.75,1112.5 2693.75,1106.25 C2693.75,1112.5 2687.5,1116.6667 2683.3333,1116.6667 C2677.0833,1116.6667 2672.9167,1112.5 2672.9167,1106.25 C2672.9167,1112.5 2666.6667,1116.6667 2662.5,1116.6667 C2656.25,1116.6667 2652.0833,1112.5 2652.0833,1106.25 C2652.0833,1112.5 2645.8333,1116.6667 2641.6667,1116.6667 C2635.4167,1116.6667 2631.25,1112.5 2631.25,1106.25 C2631.25,1112.5 2625,1116.6667 2620.8333,1116.6667 C2614.5833,1116.6667 2610.4167,1112.5 2610.4167,1106.25 C2604.1667,1106.25 2600,1102.0833 2600,1095.8333 C2600,1089.5833 2604.1667,1085.4167 2610.4167,1085.4167 C2604.1667,1085.4167 2600,1081.25 2600,1075 C2600,1068.75 2604.1667,1064.5833 2610.4167,1064.5833 C2604.1667,1064.5833 2600,1060.4167 2600,1054.1667 C2600,1047.9167 2604.1667,1043.75 2610.4167,1043.75 C2604.1667,1043.75 2600,1039.5833 2600,1033.3333 C2600,1027.0833 2604.1667,1022.9167 2610.4167,1022.9167 C2604.1667,1022.9167 2600,1018.75 2600,1012.5 C2600,1006.25 2604.1667,1002.0833 2610.4167,1002.0833 C2604.1667,1002.0833 2600,997.9167 2600,991.6667 C2600,985.4167 2604.1667,981.25 2610.4167,981.25 C2604.1667,981.25 2600,977.0833 2600,970.8333 C2600,964.5833 2604.1667,960.4167 2610.4167,960.4167 C2604.1667,960.4167 2600,956.25 2600,950 C2600,943.75 2604.1667,939.5833 2610.4167,939.5833 " fill="#FFFFFF" style="stroke: #000000; stroke-width: 4.166666666666667;"/><rect fill="#FFFFFF" height="918.75" style="stroke: #000000; stroke-width: 4.166666666666667;" width="783.3333" x="45.8333" y="783.3333"/><text fill="#000000" font-family="CMU Serif" font-size="31.25" font-weight="bold" lengthAdjust="spacingAndGlyphs" textLength="314.5833" x="280.2083" y="820.6736">Yoda Public server</text><rect fill="#FFFFFF" height="235.4167" style="stroke: #000000; stroke-width: 4.166666666666667;" width="439.5833" x="322.9167" y="900"/><text fill="#000000" font-family="CMU Serif" font-size="31.25" font-weight="bold" lengthAdjust="spacingAndGlyphs" textLength="316.6667" x="384.375" y="937.3403">Apache webserver</text><path d="M477.0833,1472.9167 C477.0833,1466.6667 481.25,1462.5 487.5,1462.5 C493.75,1462.5 497.9167,1466.6667 497.9167,1472.9167 C497.9167,1466.6667 502.0833,1462.5 508.3333,1462.5 C514.5833,1462.5 518.75,1466.6667 518.75,1472.9167 C518.75,1466.6667 522.9167,1462.5 529.1667,1462.5 C535.4167,1462.5 539.5833,1466.6667 539.5833,1472.9167 C539.5833,1466.6667 543.75,1462.5 550,1462.5 C556.25,1462.5 560.4167,1466.6667 560.4167,1472.9167 C560.4167,1466.6667 564.5833,1462.5 570.8333,1462.5 C577.0833,1462.5 581.25,1466.6667 581.25,1472.9167 C581.25,1466.6667 585.4167,1462.5 591.6667,1462.5 C597.9167,1462.5 602.0833,1466.6667 602.0833,1472.9167 C602.0833,1466.6667 606.25,1462.5 612.5,1462.5 C618.75,1462.5 622.9167,1466.6667 622.9167,1472.9167 C622.9167,1466.6667 627.0833,1462.5 633.3333,1462.5 C639.5833,1462.5 643.75,1466.6667 643.75,1472.9167 C643.75,1466.6667 647.9167,1462.5 654.1667,1462.5 C660.4167,1462.5 664.5833,1466.6667 664.5833,1472.9167 C664.5833,1466.6667 668.75,1462.5 675,1462.5 C681.25,1462.5 685.4167,1466.6667 685.4167,1472.9167 C685.4167,1466.6667 689.5833,1462.5 695.8333,1462.5 C702.0833,1462.5 706.25,1466.6667 706.25,1472.9167 C706.25,1466.6667 710.4167,1462.5 716.6667,1462.5 C722.9167,1462.5 727.0833,1466.6667 727.0833,1472.9167 C727.0833,1466.6667 731.25,1462.5 737.5,1462.5 C743.75,1462.5 747.9167,1466.6667 747.9167,1472.9167 C747.9167,1466.6667 752.0833,1462.5 758.3333,1462.5 C764.5833,1462.5 768.75,1466.6667 768.75,1472.9167 C775,1472.9167 779.1667,1477.0833 779.1667,1483.3333 C779.1667,1489.5833 775,1493.75 768.75,1493.75 C775,1493.75 779.1667,1497.9167 779.1667,1504.1667 C779.1667,1510.4167 775,1514.5833 768.75,1514.5833 C775,1514.5833 779.1667,1518.75 779.1667,1525 C779.1667,1531.25 775,1535.4167 768.75,1535.4167 C775,1535.4167 779.1667,1539.5833 779.1667,1545.8333 C779.1667,1552.0833 775,1556.25 768.75,1556.25 C775,1556.25 779.1667,1560.4167 779.1667,1566.6667 C779.1667,1572.9167 775,1577.0833 768.75,1577.0833 C775,1577.0833 779.1667,1581.25 779.1667,1587.5 C779.1667,1593.75 775,1597.9167 768.75,1597.9167 C775,1597.9167 779.1667,1602.0833 779.1667,1608.3333 C779.1667,1614.5833 775,1618.75 768.75,1618.75 C775,1618.75 779.1667,1622.9167 779.1667,1629.1667 C779.1667,1635.4167 775,1639.5833 768.75,1639.5833 C768.75,1645.8333 762.5,1650 758.3333,1650 C752.0833,1650 747.9167,1645.8333 747.9167,1639.5833 C747.9167,1645.8333 741.6667,1650 737.5,1650 C731.25,1650 727.0833,1645.8333 727.0833,1639.5833 C727.0833,1645.8333 720.8333,1650 716.6667,1650 C710.4167,1650 706.25,1645.8333 706.25,1639.5833 C706.25,1645.8333 700,1650 695.8333,1650 C689.5833,1650 685.4167,1645.8333 685.4167,1639.5833 C685.4167,1645.8333 679.1667,1650 675,1650 C668.75,1650 664.5833,1645.8333 664.5833,1639.5833 C664.5833,1645.8333 658.3333,1650 654.1667,1650 C647.9167,1650 643.75,1645.8333 643.75,1639.5833 C643.75,1645.8333 637.5,1650 633.3333,1650 C627.0833,1650 622.9167,1645.8333 622.9167,1639.5833 C622.9167,1645.8333 616.6667,1650 612.5,1650 C606.25,1650 602.0833,1645.8333 602.0833,1639.5833 C602.0833,1645.8333 595.8333,1650 591.6667,1650 C585.4167,1650 581.25,1645.8333 581.25,1639.5833 C581.25,1645.8333 575,1650 570.8333,1650 C564.5833,1650 560.4167,1645.8333 560.4167,1639.5833 C560.4167,1645.8333 554.1667,1650 550,1650 C543.75,1650 539.5833,1645.8333 539.5833,1639.5833 C539.5833,1645.8333 533.3333,1650 529.1667,1650 C522.9167,1650 518.75,1645.8333 518.75,1639.5833 C518.75,1645.8333 512.5,1650 508.3333,1650 C502.0833,1650 497.9167,1645.8333 497.9167,1639.5833 C497.9167,1645.8333 491.6667,1650 487.5,1650 C481.25,1650 477.0833,1645.8333 477.0833,1639.5833 C470.8333,1639.5833 466.6667,1635.4167 466.6667,1629.1667 C466.6667,1622.9167 470.8333,1618.75 477.0833,1618.75 C470.8333,1618.75 466.6667,1614.5833 466.6667,1608.3333 C466.6667,1602.0833 470.8333,1597.9167 477.0833,1597.9167 C470.8333,1597.9167 466.6667,1593.75 466.6667,1587.5 C466.6667,1581.25 470.8333,1577.0833 477.0833,1577.0833 C470.8333,1577.0833 466.6667,1572.9167 466.6667,1566.6667 C466.6667,1560.4167 470.8333,1556.25 477.0833,1556.25 C470.8333,1556.25 466.6667,1552.0833 466.6667,1545.8333 C466.6667,1539.5833 470.8333,1535.4167 477.0833,1535.4167 C470.8333,1535.4167 466.6667,1531.25 466.6667,1525 C466.6667,1518.75 470.8333,1514.5833 477.0833,1514.5833 C470.8333,1514.5833 466.6667,1510.4167 466.6667,1504.1667 C466.6667,1497.9167 470.8333,1493.75 477.0833,1493.75 C470.8333,1493.75 466.6667,1489.5833 466.6667,1483.3333 C466.6667,1477.0833 470.8333,1472.9167 477.0833,1472.9167 " fill="#FFFFFF" style="stroke: #000000; stroke-width: 4.166666666666667;"/><path d="M102.0833,1472.9167 C102.0833,1466.6667 106.25,1462.5 112.5,1462.5 C118.75,1462.5 122.9167,1466.6667 122.9167,1472.9167 C122.9167,1466.6667 127.0833,1462.5 133.3333,1462.5 C139.5833,1462.5 143.75,1466.6667 143.75,1472.9167 C143.75,1466.6667 147.9167,1462.5 154.1667,1462.5 C160.4167,1462.5 164.5833,1466.6667 164.5833,1472.9167 C164.5833,1466.6667 168.75,1462.5 175,1462.5 C181.25,1462.5 185.4167,1466.6667 185.4167,1472.9167 C185.4167,1466.6667 189.5833,1462.5 195.8333,1462.5 C202.0833,1462.5 206.25,1466.6667 206.25,1472.9167 C206.25,1466.6667 210.4167,1462.5 216.6667,1462.5 C222.9167,1462.5 227.0833,1466.6667 227.0833,1472.9167 C227.0833,1466.6667 231.25,1462.5 237.5,1462.5 C243.75,1462.5 247.9167,1466.6667 247.9167,1472.9167 C247.9167,1466.6667 252.0833,1462.5 258.3333,1462.5 C264.5833,1462.5 268.75,1466.6667 268.75,1472.9167 C268.75,1466.6667 272.9167,1462.5 279.1667,1462.5 C285.4167,1462.5 289.5833,1466.6667 289.5833,1472.9167 C289.5833,1466.6667 293.75,1462.5 300,1462.5 C306.25,1462.5 310.4167,1466.6667 310.4167,1472.9167 C310.4167,1466.6667 314.5833,1462.5 320.8333,1462.5 C327.0833,1462.5 331.25,1466.6667 331.25,1472.9167 C331.25,1466.6667 335.4167,1462.5 341.6667,1462.5 C347.9167,1462.5 352.0833,1466.6667 352.0833,1472.9167 C352.0833,1466.6667 356.25,1462.5 362.5,1462.5 C368.75,1462.5 372.9167,1466.6667 372.9167,1472.9167 C372.9167,1466.6667 377.0833,1462.5 383.3333,1462.5 C389.5833,1462.5 393.75,1466.6667 393.75,1472.9167 C393.75,1466.6667 397.9167,1462.5 404.1667,1462.5 C410.4167,1462.5 414.5833,1466.6667 414.5833,1472.9167 C420.8333,1472.9167 425,1477.0833 425,1483.3333 C425,1489.5833 420.8333,1493.75 414.5833,1493.75 C420.8333,1493.75 425,1497.9167 425,1504.1667 C425,1510.4167 420.8333,1514.5833 414.5833,1514.5833 C420.8333,1514.5833 425,1518.75 425,1525 C425,1531.25 420.8333,1535.4167 414.5833,1535.4167 C420.8333,1535.4167 425,1539.5833 425,1545.8333 C425,1552.0833 420.8333,1556.25 414.5833,1556.25 C420.8333,1556.25 425,1560.4167 425,1566.6667 C425,1572.9167 420.8333,1577.0833 414.5833,1577.0833 C420.8333,1577.0833 425,1581.25 425,1587.5 C425,1593.75 420.8333,1597.9167 414.5833,1597.9167 C420.8333,1597.9167 425,1602.0833 425,1608.3333 C425,1614.5833 420.8333,1618.75 414.5833,1618.75 C420.8333,1618.75 425,1622.9167 425,1629.1667 C425,1635.4167 420.8333,1639.5833 414.5833,1639.5833 C414.5833,1645.8333 408.3333,1650 404.1667,1650 C397.9167,1650 393.75,1645.8333 393.75,1639.5833 C393.75,1645.8333 387.5,1650 383.3333,1650 C377.0833,1650 372.9167,1645.8333 372.9167,1639.5833 C372.9167,1645.8333 366.6667,1650 362.5,1650 C356.25,1650 352.0833,1645.8333 352.0833,1639.5833 C352.0833,1645.8333 345.8333,1650 341.6667,1650 C335.4167,1650 331.25,1645.8333 331.25,1639.5833 C331.25,1645.8333 325,1650 320.8333,1650 C314.5833,1650 310.4167,1645.8333 310.4167,1639.5833 C310.4167,1645.8333 304.1667,1650 300,1650 C293.75,1650 289.5833,1645.8333 289.5833,1639.5833 C289.5833,1645.8333 283.3333,1650 279.1667,1650 C272.9167,1650 268.75,1645.8333 268.75,1639.5833 C268.75,1645.8333 262.5,1650 258.3333,1650 C252.0833,1650 247.9167,1645.8333 247.9167,1639.5833 C247.9167,1645.8333 241.6667,1650 237.5,1650 C231.25,1650 227.0833,1645.8333 227.0833,1639.5833 C227.0833,1645.8333 220.8333,1650 216.6667,1650 C210.4167,1650 206.25,1645.8333 206.25,1639.5833 C206.25,1645.8333 200,1650 195.8333,1650 C189.5833,1650 185.4167,1645.8333 185.4167,1639.5833 C185.4167,1645.8333 179.1667,1650 175,1650 C168.75,1650 164.5833,1645.8333 164.5833,1639.5833 C164.5833,1645.8333 158.3333,1650 154.1667,1650 C147.9167,1650 143.75,1645.8333 143.75,1639.5833 C143.75,1645.8333 137.5,1650 133.3333,1650 C127.0833,1650 122.9167,1645.8333 122.9167,1639.5833 C122.9167,1645.8333 116.6667,1650 112.5,1650 C106.25,1650 102.0833,1645.8333 102.0833,1639.5833 C95.8333,1639.5833 91.6667,1635.4167 91.6667,1629.1667 C91.6667,1622.9167 95.8333,1618.75 102.0833,1618.75 C95.8333,1618.75 91.6667,1614.5833 91.6667,1608.3333 C91.6667,1602.0833 95.8333,1597.9167 102.0833,1597.9167 C95.8333,1597.9167 91.6667,1593.75 91.6667,1587.5 C91.6667,1581.25 95.8333,1577.0833 102.0833,1577.0833 C95.8333,1577.0833 91.6667,1572.9167 91.6667,1566.6667 C91.6667,1560.4167 95.8333,1556.25 102.0833,1556.25 C95.8333,1556.25 91.6667,1552.0833 91.6667,1545.8333 C91.6667,1539.5833 95.8333,1535.4167 102.0833,1535.4167 C95.8333,1535.4167 91.6667,1531.25 91.6667,1525 C91.6667,1518.75 95.8333,1514.5833 102.0833,1514.5833 C95.8333,1514.5833 91.6667,1510.4167 91.6667,1504.1667 C91.6667,1497.9167 95.8333,1493.75 102.0833,1493.75 C95.8333,1493.75 91.6667,1489.5833 91.6667,1483.3333 C91.6667,1477.0833 95.8333,1472.9167 102.0833,1472.9167 " fill="#FFFFFF" style="stroke: #000000; stroke-width: 4.166666666666667;"/><rect fill="#FFFFFF" height="833.3333" style="stroke: #000000; stroke-width: 4.166666666666667;" width="506.25" x="3033.3333" y="1316.6667"/><text fill="#000000" font-family="CMU Serif" font-size="31.25" font-weight="bold" lengthAdjust="spacingAndGlyphs" textLength="464.5833" x="3054.1667" y="1354.007">Yoda External User service</text><rect fill="#FFFFFF" height="235.4167" style="stroke: #000000; stroke-width: 4.166666666666667;" width="358.3333" x="3100" y="1433.3333"/><text fill="#000000" font-family="CMU Serif" font-size="31.25" font-weight="bold" lengthAdjust="spacingAndGlyphs" textLength="316.6667" x="3120.8333" y="1470.6736">Apache webserver</text><path d="M3083.3333,1887.5 C3083.3333,1866.6667 3252.0833,1866.6667 3252.0833,1866.6667 C3252.0833,1866.6667 3420.8333,1866.6667 3420.8333,1887.5 L3420.8333,2079.1667 C3420.8333,2100 3252.0833,2100 3252.0833,2100 C3252.0833,2100 3083.3333,2100 3083.3333,2079.1667 L3083.3333,1887.5 " fill="#FFFFFF" style="stroke: #000000; stroke-width: 4.166666666666667;"/><path d="M3083.3333,1887.5 C3083.3333,1908.3333 3252.0833,1908.3333 3252.0833,1908.3333 C3252.0833,1908.3333 3420.8333,1908.3333 3420.8333,1887.5 " fill="none" style="stroke: #000000; stroke-width: 4.166666666666667;"/><text fill="#000000" font-family="CMU Serif" font-size="31.25" font-weight="bold" lengthAdjust="spacingAndGlyphs" textLength="200" x="3152.0833" y="1943.5903">PostgreSQL</text><rect fill="#FFFFFF" height="86.377" style="stroke: #000000; stroke-width: 3.125;" width="110.4167" x="1330.2083" y="512.5"/><text fill="#000000" font-family="CMU Serif" font-size="31.25" lengthAdjust="spacingAndGlyphs" textLength="60.4167" x="1355.2083" y="566.507">PHP</text><rect fill="#FFFFFF" height="86.377" style="stroke: #000000; stroke-width: 3.125;" width="170.8333" x="1085.4167" y="512.5"/><text fill="#000000" font-family="CMU Serif" font-size="31.25" lengthAdjust="spacingAndGlyphs" textLength="120.8333" x="1110.4167" y="566.507">davrods</text><rect fill="#FFFFFF" height="86.377" style="stroke: #000000; stroke-width: 3.125;" width="297.9167" x="1013.5417" y="1533.3333"/><text fill="#000000" font-family="CMU Serif" font-size="31.25" lengthAdjust="spacingAndGlyphs" textLength="247.9167" x="1038.5417" y="1587.3403">iRODS database</text><rect fill="#FFFFFF" height="86.377" style="stroke: #000000; stroke-width: 3.125;" width="229.1667" x="1525" y="1000"/><text fill="#000000" font-family="CMU Serif" font-size="31.25" lengthAdjust="spacingAndGlyphs" textLength="179.1667" x="1550" y="1054.007">iRODS rules</text><rect fill="#FFFFFF" height="86.377" style="stroke: #000000; stroke-width: 3.125;" width="364.5833" x="1086.4583" y="1000"/><text fill="#000000" font-family="CMU Serif" font-size="31.25" lengthAdjust="spacingAndGlyphs" textLength="314.5833" x="1111.4583" y="1054.007">iRODS microservices</text><rect fill="#FFFFFF" height="86.377" style="stroke: #000000; stroke-width: 3.125;" width="229.1667" x="2587.5" y="512.5"/><text fill="#000000" font-family="CMU Serif" font-size="31.25" lengthAdjust="spacingAndGlyphs" textLength="179.1667" x="2612.5" y="566.507">iRODS rules</text><rect fill="#FFFFFF" height="86.377" style="stroke: #000000; stroke-width: 3.125;" width="364.5833" x="2148.9583" y="512.5"/><text fill="#000000" font-family="CMU Serif" font-size="31.25" lengthAdjust="spacingAndGlyphs" textLength="314.5833" x="2173.9583" y="566.507">iRODS microservices</text><rect fill="#FEFECE" height="86.377" style="stroke: #A80036; stroke-width: 3.125;" width="202.0833" x="2003.125" y="1000"/><rect fill="#FEFECE" height="10.4167" style="stroke: #A80036; stroke-width: 3.125;" width="20.8333" x="1992.7083" y="1010.4167"/><rect fill="#FEFECE" height="10.4167" style="stroke: #A80036; stroke-width: 3.125;" width="20.8333" x="1992.7083" y="1065.5436"/><text fill="#000000" font-family="CMU Serif" font-size="31.25" lengthAdjust="spacingAndGlyphs" textLength="152.0833" x="2028.125" y="1054.007">Storage 1</text><rect fill="#FEFECE" height="86.377" style="stroke: #A80036; stroke-width: 3.125;" width="202.0833" x="2319.7917" y="1000"/><rect fill="#FEFECE" height="10.4167" style="stroke: #A80036; stroke-width: 3.125;" width="20.8333" x="2309.375" y="1010.4167"/><rect fill="#FEFECE" height="10.4167" style="stroke: #A80036; stroke-width: 3.125;" width="20.8333" x="2309.375" y="1065.5436"/><text fill="#000000" font-family="CMU Serif" font-size="31.25" lengthAdjust="spacingAndGlyphs" textLength="152.0833" x="2344.7917" y="1054.007">Storage 2</text><rect fill="#FEFECE" height="86.377" style="stroke: #A80036; stroke-width: 3.125;" width="212.5" x="2637.5" y="1000"/><rect fill="#FEFECE" height="10.4167" style="stroke: #A80036; stroke-width: 3.125;" width="20.8333" x="2627.0833" y="1010.4167"/><rect fill="#FEFECE" height="10.4167" style="stroke: #A80036; stroke-width: 3.125;" width="20.8333" x="2627.0833" y="1065.5436"/><text fill="#000000" font-family="CMU Serif" font-size="31.25" lengthAdjust="spacingAndGlyphs" textLength="162.5" x="2662.5" y="1054.007">Storage ...</text><rect fill="#FFFFFF" height="86.377" style="stroke: #000000; stroke-width: 3.125;" width="297.9167" x="413.5417" y="1000"/><text fill="#000000" font-family="CMU Serif" font-size="31.25" lengthAdjust="spacingAndGlyphs" textLength="247.9167" x="438.5417" y="1054.007">OAI-PMH service</text><rect fill="#FEFECE" height="86.377" style="stroke: #A80036; stroke-width: 3.125;" width="239.5833" x="505.2083" y="1533.3333"/><rect fill="#FEFECE" height="10.4167" style="stroke: #A80036; stroke-width: 3.125;" width="20.8333" x="494.7917" y="1543.75"/><rect fill="#FEFECE" height="10.4167" style="stroke: #A80036; stroke-width: 3.125;" width="20.8333" x="494.7917" y="1598.877"/><text fill="#000000" font-family="CMU Serif" font-size="31.25" lengthAdjust="spacingAndGlyphs" textLength="189.5833" x="530.2083" y="1587.3403">XML storage</text><rect fill="#FEFECE" height="86.377" style="stroke: #A80036; stroke-width: 3.125;" width="258.3333" x="129.1667" y="1533.3333"/><rect fill="#FEFECE" height="10.4167" style="stroke: #A80036; stroke-width: 3.125;" width="20.8333" x="118.75" y="1543.75"/><rect fill="#FEFECE" height="10.4167" style="stroke: #A80036; stroke-width: 3.125;" width="20.8333" x="118.75" y="1598.877"/><text fill="#000000" font-family="CMU Serif" font-size="31.25" lengthAdjust="spacingAndGlyphs" textLength="208.3333" x="154.1667" y="1587.3403">Landingpages</text><rect fill="#FFFFFF" height="86.377" style="stroke: #000000; stroke-width: 3.125;" width="110.4167" x="3242.7083" y="1533.3333"/><text fill="#000000" font-family="CMU Serif" font-size="31.25" lengthAdjust="spacingAndGlyphs" textLength="60.4167" x="3267.7083" y="1587.3403">PHP</text><rect fill="#FFFFFF" height="86.377" style="stroke: #000000; stroke-width: 3.125;" width="270.8333" x="3116.6667" y="1981.25"/><text fill="#000000" font-family="CMU Serif" font-size="31.25" lengthAdjust="spacingAndGlyphs" textLength="220.8333" x="3141.6667" y="2035.257">External users</text><ellipse cx="1012.5" cy="35.4167" fill="#FEFECE" rx="16.6667" ry="16.6667" style="stroke: #A80036; stroke-width: 4.166666666666667;"/><text fill="#000000" font-family="CMU Serif" font-size="31.25" lengthAdjust="spacingAndGlyphs" textLength="100" x="962.5" y="87.3403">HTTPS</text><ellipse cx="750" cy="533.3333" fill="#FEFECE" rx="16.6667" ry="16.6667" style="stroke: #A80036; stroke-width: 4.166666666666667;"/><text fill="#000000" font-family="CMU Serif" font-size="31.25" lengthAdjust="spacingAndGlyphs" textLength="181.25" x="659.375" y="585.257">iCommands</text><path d="M1012.5,650.0935 C1012.5,651.5707 1012.5,653.06 1012.5,654.5611 C1012.5,660.5653 1012.5,666.7574 1012.5,673.1103 C1012.5,685.8163 1012.5,699.166 1012.5,712.9447 C1012.5,740.502 1012.5,769.7755 1012.5,799.0471 C1012.5,828.3188 1012.5,857.5888 1012.5,885.1392 C1012.5,888.583 1012.5,891.9999 1012.5,895.3866 C1012.5,896.2333 1012.5,897.0781 1012.5,897.9209 C1012.5,898.3423 1012.5,898.7633 1012.5,899.1837 " fill="none" style="stroke: #A80036; stroke-width: 2.0833333333333335; stroke-dasharray: 7.0,7.0;"/><polygon fill="#A80036" points="1012.5,899.1837,1020.8333,880.4337,1012.5,888.7671,1004.1667,880.4337,1012.5,899.1837" style="stroke: #A80036; stroke-width: 2.0833333333333335;"/><path d="M2058.1024,563.5431 C2057.79,563.6574 2057.4735,563.7731 2057.153,563.8903 C2046.8957,567.6389 2032.4875,572.8444 2014.6382,579.1409 C1978.9395,591.7339 1929.4762,608.6908 1871.9258,627.0836 C1756.825,663.8693 1609.376,706.399 1475,731.25 C1428.6313,739.825 1086.4104,734.3375 1052.0833,766.6667 C1030.0438,787.4234 1016.4546,814.5555 1008.4913,843.6679 C1004.5097,858.2241 1001.9346,873.2754 1000.4129,888.2724 C1000.0325,892.0216 999.718,895.7675 999.4637,899.5014 " fill="none" style="stroke: #A80036; stroke-width: 2.0833333333333335;"/><path d="M2080.5777,649.7237 C2080.7257,652.1764 2080.8758,654.6628 2081.0277,657.181 C2081.3317,662.2174 2081.6433,667.3809 2081.9616,672.656 C2083.235,693.7566 2084.6163,716.6439 2086.0458,740.331 C2091.7641,835.0792 2098.2552,942.6229 2101.7083,999.7937 " fill="none" style="stroke: #A80036; stroke-width: 2.0833333333333335;"/><path d="M2077.6719,648.3434 C2077.7739,648.9252 2077.8781,649.5074 2077.9844,650.0901 C2078.197,651.2555 2078.4181,652.4226 2078.6482,653.5909 C2080.4885,662.9368 2082.8968,672.3544 2086.0226,681.5329 C2092.2742,699.8901 2101.3958,717.2911 2114.5833,731.25 C2153.625,772.575 2191.5833,733.1354 2237.5,766.6667 C2321.1458,827.7604 2378.1667,939.4125 2404.3958,999.5917 " fill="none" style="stroke: #A80036; stroke-width: 2.0833333333333335;"/><path d="M2074.8521,648.2099 C2074.8976,648.5024 2074.9436,648.7951 2074.9903,649.0878 C2075.3635,651.4294 2075.774,653.7761 2076.2245,656.1224 C2078.0268,665.508 2080.4703,674.8888 2083.7337,683.9235 C2090.2605,701.9931 2100.0672,718.6786 2114.5833,731.25 C2151.625,763.3292 2511.7083,742.1958 2554.1667,766.6667 C2645.875,819.5292 2703.3333,936.8083 2728.6667,999.3958 " fill="none" style="stroke: #A80036; stroke-width: 2.0833333333333335;"/><path d="M1031.8973,1136.1941 C1032.1602,1137.3556 1032.4249,1138.5218 1032.6913,1139.6923 C1033.224,1142.0333 1033.7635,1144.3912 1034.3093,1146.7629 C1035.4008,1151.5062 1036.5175,1156.3044 1037.6554,1161.1313 C1042.2072,1180.4388 1047.099,1200.2047 1052.0833,1218.75 C1081.4375,1327.9708 1122.3042,1453.9917 1145.1938,1522.7125 " fill="none" style="stroke: #A80036; stroke-width: 2.0833333333333335; stroke-dasharray: 7.0,7.0;"/><polygon fill="#A80036" points="1148.7083,1533.2375,1150.67,1512.813,1145.4072,1523.3578,1134.8624,1518.0949,1148.7083,1533.2375" style="stroke: #A80036; stroke-width: 2.0833333333333335;"/><text fill="#000000" font-family="CMU Serif" font-size="31.25" lengthAdjust="spacingAndGlyphs" textLength="54.1667" x="1075" y="1270.6736">use</text><path d="M325.6038,1135.8389 C325.4067,1137.1222 325.2082,1138.4153 325.0082,1139.7178 C324.6082,1142.3229 324.2024,1144.966 323.791,1147.6449 C322.9683,1153.0028 322.1236,1158.5043 321.2594,1164.1328 C317.8024,1186.6468 314.0333,1211.1939 310.1141,1236.719 C294.437,1338.8193 276.3573,1456.5667 266.2438,1522.4333 " fill="none" style="stroke: #A80036; stroke-width: 2.0833333333333335; stroke-dasharray: 7.0,7.0;"/><polygon fill="#A80036" points="264.6167,1533.0396,275.6985,1515.7711,266.1972,1522.7435,259.2249,1513.2422,264.6167,1533.0396" style="stroke: #A80036; stroke-width: 2.0833333333333335;"/><text fill="#000000" font-family="CMU Serif" font-size="31.25" lengthAdjust="spacingAndGlyphs" textLength="54.1667" x="316.6667" y="1270.6736">use</text><path d="M567.3,1085.4354 C578.525,1180.4729 606.4729,1417.1021 618.8896,1522.2208 " fill="none" style="stroke: #A80036; stroke-width: 2.0833333333333335; stroke-dasharray: 7.0,7.0;"/><polygon fill="#A80036" points="620.1833,1533.175,626.2629,1513.5779,618.9631,1522.83,609.711,1515.5302,620.1833,1533.175" style="stroke: #A80036; stroke-width: 2.0833333333333335;"/><text fill="#000000" font-family="CMU Serif" font-size="31.25" lengthAdjust="spacingAndGlyphs" textLength="54.1667" x="597.9167" y="1270.6736">use</text><path d="M3144.688,1669.9411 C3145.3636,1672.155 3146.0472,1674.3955 3146.7386,1676.6612 C3152.2695,1694.7869 3158.2917,1714.5221 3164.5625,1735.0721 C3189.6458,1817.2724 3218.7083,1912.5104 3236.2292,1969.925 " fill="none" style="stroke: #A80036; stroke-width: 2.0833333333333335; stroke-dasharray: 7.0,7.0;"/><polygon fill="#A80036" points="3239.4792,1980.5515,3241.9842,1960.1865,3236.4423,1970.5873,3226.0415,1965.0454,3239.4792,1980.5515" style="stroke: #A80036; stroke-width: 2.0833333333333335;"/><text fill="#000000" font-family="CMU Serif" font-size="31.25" lengthAdjust="spacingAndGlyphs" textLength="54.1667" x="3197.9167" y="1820.6736">use</text><path d="M1012.5,98.125 C1012.5,155.4115 1012.5,266.5297 1012.5,364.6115 C1012.5,376.8717 1012.5,388.9282 1012.5,400.6504 C1012.5,403.581 1012.5,406.4907 1012.5,409.3774 C1012.5,410.0991 1012.5,410.8193 1012.5,411.5381 " fill="none" style="stroke: #A80036; stroke-width: 2.0833333333333335;"/><path d="M958.275,61.5417 C875.0542,67.7083 715.3583,91.0417 618.75,179.1667 C471.2313,313.7177 401.3734,526.7818 368.4279,707.3448 C360.1915,752.4855 354.2621,795.595 350.003,834.9385 C347.8735,854.6103 346.1615,873.3406 344.7876,890.9126 C344.6158,893.1091 344.4494,895.2875 344.288,897.4473 " fill="none" style="stroke: #A80036; stroke-width: 2.0833333333333335;"/><path d="M1066.8167,59.0417 C1356.6646,57.75 2713.125,58.2708 2850,179.1667 C3084.6667,386.4427 3152.1302,731.3328 3160.5339,1026.2854 C3164.7357,1173.7617 3154.1725,1308.7536 3142.3623,1407.8173 C3141.6242,1414.0087 3140.8812,1420.0599 3140.1366,1425.9649 C3139.9504,1427.4412 3139.7642,1428.9083 3139.5779,1430.3662 " fill="none" style="stroke: #A80036; stroke-width: 2.0833333333333335;"/><path d="M771.0375,596.0271 C801.6958,652.4781 860.6688,761.0635 912.6573,856.7883 C938.6516,904.6507 962.8997,949.2979 980.9895,982.6055 C985.5119,990.9324 989.6494,998.5506 993.3331,1005.3331 C993.7935,1006.1809 994.2469,1007.0157 994.6931,1007.8372 C994.9161,1008.2479 995.1374,1008.6553 995.3568,1009.0593 " fill="none" style="stroke: #A80036; stroke-width: 2.0833333333333335;"/><path d="M995.3581,1068.1996 C994.8198,1068.9347 994.2701,1069.6854 993.7092,1070.4513 C991.4657,1073.5151 989.0434,1076.8229 986.4546,1080.3581 C981.2771,1087.4286 975.4334,1095.4086 969.0214,1104.1648 C943.3734,1139.1895 908.6319,1186.6322 871.0529,1237.9497 C795.8948,1340.5849 709.3865,1458.7198 661.575,1524.0104 " fill="none" style="stroke: #A80036; stroke-width: 2.0833333333333335; stroke-dasharray: 7.0,7.0;"/><polygon fill="#A80036" points="654.9625,1533.0396,672.7654,1522.8385,661.1183,1524.6364,659.3204,1512.9892,654.9625,1533.0396" style="stroke: #A80036; stroke-width: 2.0833333333333335;"/><text fill="#000000" font-family="CMU Serif" font-size="31.25" lengthAdjust="spacingAndGlyphs" textLength="60.4167" x="872.9167" y="1270.6736">SCP</text><path d="M1013.4677,1135.505 C1013.8484,1137.8384 1014.2647,1140.1787 1014.7191,1142.5208 C1016.537,1151.8891 1018.9661,1161.286 1022.173,1170.3834 C1028.587,1188.5781 1038.1125,1205.575 1052.0833,1218.75 C1068.4729,1234.2063 1129.8708,1231.6521 1152.0833,1235.4167 C1585.45,1308.8698 2072.3354,1392.762 2452.9833,1458.6581 C2643.3073,1491.6061 2807.0719,1520.0551 2924.3076,1540.4507 C2982.9254,1550.6486 3029.911,1558.833 3062.7682,1564.5598 C3070.9825,1565.9915 3078.3138,1567.2696 3084.723,1568.3871 C3087.9276,1568.9459 3090.9017,1569.4646 3093.6405,1569.9422 C3095.0098,1570.181 3096.3204,1570.4096 3097.5714,1570.6278 C3098.197,1570.7369 3098.8076,1570.8434 3099.4034,1570.9473 " fill="none" style="stroke: #A80036; stroke-width: 2.0833333333333335; stroke-dasharray: 7.0,7.0;"/><polygon fill="#A80036" points="3099.4034,1570.9473,3082.3642,1559.5161,3089.1416,1569.1574,3079.5003,1575.9349,3099.4034,1570.9473" style="stroke: #A80036; stroke-width: 2.0833333333333335;"/><text fill="#000000" font-family="CMU Serif" font-size="31.25" lengthAdjust="spacingAndGlyphs" textLength="100" x="1427.0833" y="1270.6736">HTTPS</text></g></svg>