<?xml version="1.0" encoding="UTF-8" standalone="no"?><svg xmlns="http://www.w3.org/2000/svg" xmlns:xlink="http://www.w3.org/1999/xlink" contentScriptType="application/ecmascript" contentStyleType="text/css" height="505px" preserveAspectRatio="none" style="width:422px;height:505px;background:#FFFFFF;" version="1.1" viewBox="0 0 422 505" width="422px" zoomAndPan="magnify"><defs/><g><line style="stroke:#A80036;stroke-width:1.0;stroke-dasharray:5.0,5.0;" x1="48" x2="48" y1="88.4883" y2="418.9727"/><line style="stroke:#A80036;stroke-width:1.0;stroke-dasharray:5.0,5.0;" x1="152" x2="152" y1="88.4883" y2="418.9727"/><line style="stroke:#A80036;stroke-width:1.0;stroke-dasharray:5.0,5.0;" x1="305.5" x2="305.5" y1="88.4883" y2="418.9727"/><text fill="#000000" font-family="sans-serif" font-size="14" lengthAdjust="spacing" textLength="76" x="7" y="83.5352">Researcher</text><ellipse cx="48" cy="15" fill="#FEFECE" rx="8" ry="8" style="stroke:#A80036;stroke-width:2.0;"/><path d="M48,23 L48,50 M35,31 L61,31 M48,50 L35,65 M48,50 L61,65 " fill="none" style="stroke:#A80036;stroke-width:2.0;"/><text fill="#000000" font-family="sans-serif" font-size="14" lengthAdjust="spacing" textLength="76" x="7" y="433.5078">Researcher</text><ellipse cx="48" cy="448.4609" fill="#FEFECE" rx="8" ry="8" style="stroke:#A80036;stroke-width:2.0;"/><path d="M48,456.4609 L48,483.4609 M35,464.4609 L61,464.4609 M48,483.4609 L35,498.4609 M48,483.4609 L61,498.4609 " fill="none" style="stroke:#A80036;stroke-width:2.0;"/><text fill="#000000" font-family="sans-serif" font-size="14" lengthAdjust="spacing" textLength="92" x="103" y="83.5352">Datamanager</text><ellipse cx="152" cy="15" fill="#FEFECE" rx="8" ry="8" style="stroke:#A80036;stroke-width:2.0;"/><path d="M152,23 L152,50 M139,31 L165,31 M152,50 L139,65 M152,50 L165,65 " fill="none" style="stroke:#A80036;stroke-width:2.0;"/><text fill="#000000" font-family="sans-serif" font-size="14" lengthAdjust="spacing" textLength="92" x="103" y="433.5078">Datamanager</text><ellipse cx="152" cy="448.4609" fill="#FEFECE" rx="8" ry="8" style="stroke:#A80036;stroke-width:2.0;"/><path d="M152,456.4609 L152,483.4609 M139,464.4609 L165,464.4609 M152,483.4609 L139,498.4609 M152,483.4609 L165,498.4609 " fill="none" style="stroke:#A80036;stroke-width:2.0;"/><rect fill="#FEFECE" height="34.4883" style="stroke:#A80036;stroke-width:1.5;" width="53" x="279.5" y="53"/><text fill="#000000" font-family="sans-serif" font-size="14" lengthAdjust="spacing" textLength="35" x="288.5" y="75.5352">Yoda</text><rect fill="#FEFECE" height="34.4883" style="stroke:#A80036;stroke-width:1.5;" width="53" x="279.5" y="417.9727"/><text fill="#000000" font-family="sans-serif" font-size="14" lengthAdjust="spacing" textLength="35" x="288.5" y="440.5078">Yoda</text><polygon fill="#A80036" points="294,119.7988,304,123.7988,294,127.7988,298,123.7988" style="stroke:#A80036;stroke-width:1.0;"/><line style="stroke:#A80036;stroke-width:1.0;" x1="48" x2="300" y1="123.7988" y2="123.7988"/><text fill="#000000" font-family="sans-serif" font-size="13" lengthAdjust="spacing" textLength="101" x="57" y="117.0566">Submit for vault</text><path d="M258,136.7988 L258,165.7988 L354,165.7988 L354,146.7988 L344,136.7988 L258,136.7988 " fill="#FBFB77" style="stroke:#A80036;stroke-width:1.0;"/><path d="M344,136.7988 L344,146.7988 L354,146.7988 L344,136.7988 " fill="#FBFB77" style="stroke:#A80036;stroke-width:1.0;"/><text fill="#000000" font-family="sans-serif" font-size="13" lengthAdjust="spacing" textLength="71" x="266" y="156.3672">SUBMITTED</text><line style="stroke:#A80036;stroke-width:1.0;" x1="306" x2="348" y1="196.4199" y2="196.4199"/><line style="stroke:#A80036;stroke-width:1.0;" x1="348" x2="348" y1="196.4199" y2="209.4199"/><line style="stroke:#A80036;stroke-width:1.0;" x1="307" x2="348" y1="209.4199" y2="209.4199"/><polygon fill="#A80036" points="317,205.4199,307,209.4199,317,213.4199,313,209.4199" style="stroke:#A80036;stroke-width:1.0;"/><text fill="#000000" font-family="sans-serif" font-size="13" lengthAdjust="spacing" textLength="100" x="315" y="189.6777">Accept for vault</text><path d="M260,222.4199 L260,251.4199 L351,251.4199 L351,232.4199 L341,222.4199 L260,222.4199 " fill="#FBFB77" style="stroke:#A80036;stroke-width:1.0;"/><path d="M341,222.4199 L341,232.4199 L351,232.4199 L341,222.4199 " fill="#FBFB77" style="stroke:#A80036;stroke-width:1.0;"/><text fill="#000000" font-family="sans-serif" font-size="13" lengthAdjust="spacing" textLength="66" x="268" y="241.9883">ACCEPTED</text><line style="stroke:#A80036;stroke-width:1.0;" x1="306" x2="348" y1="282.041" y2="282.041"/><line style="stroke:#A80036;stroke-width:1.0;" x1="348" x2="348" y1="282.041" y2="295.041"/><line style="stroke:#A80036;stroke-width:1.0;" x1="307" x2="348" y1="295.041" y2="295.041"/><polygon fill="#A80036" points="317,291.041,307,295.041,317,299.041,313,295.041" style="stroke:#A80036;stroke-width:1.0;"/><text fill="#000000" font-family="sans-serif" font-size="13" lengthAdjust="spacing" textLength="92" x="315" y="275.2988">Secure in vault</text><path d="M265,308.041 L265,337.041 L347,337.041 L347,318.041 L337,308.041 L265,308.041 " fill="#FBFB77" style="stroke:#A80036;stroke-width:1.0;"/><path d="M337,308.041 L337,318.041 L347,318.041 L337,308.041 " fill="#FBFB77" style="stroke:#A80036;stroke-width:1.0;"/><text fill="#000000" font-family="sans-serif" font-size="13" lengthAdjust="spacing" textLength="57" x="273" y="327.6094">SECURED</text><polygon fill="#A80036" points="59,363.6621,49,367.6621,59,371.6621,55,367.6621" style="stroke:#A80036;stroke-width:1.0;"/><line style="stroke:#A80036;stroke-width:1.0;stroke-dasharray:2.0,2.0;" x1="53" x2="305" y1="367.6621" y2="367.6621"/><text fill="#000000" font-family="sans-serif" font-size="13" lengthAdjust="spacing" textLength="126" x="67" y="360.9199">Secured notification</text><polygon fill="#A80036" points="163,396.9727,153,400.9727,163,404.9727,159,400.9727" style="stroke:#A80036;stroke-width:1.0;"/><line style="stroke:#A80036;stroke-width:1.0;stroke-dasharray:2.0,2.0;" x1="157" x2="305" y1="400.9727" y2="400.9727"/><text fill="#000000" font-family="sans-serif" font-size="13" lengthAdjust="spacing" textLength="126" x="171" y="394.2305">Secured notification</text><!--MD5=[ac8b49a76e0739edec194d7e4a377bd0]
@startuml
skinparam padding 2
skinparam shadowing false

actor       Researcher  as researcher
actor       Datamanager as datamanager
participant Yoda        as yoda

researcher   -> yoda        : Submit for vault
note over yoda              : SUBMITTED
yoda         -> yoda        : Accept for vault
note over yoda              : ACCEPTED
yoda         -> yoda        : Secure in vault
note over yoda              : SECURED
yoda        - -> researcher  : Secured notification
yoda        - -> datamanager : Secured notification
@enduml

PlantUML version 1.2021.14(Fri Nov 12 17:46:50 CET 2021)
(GPL source distribution)
Java Runtime: OpenJDK Runtime Environment
JVM: OpenJDK 64-Bit Server VM
Default Encoding: UTF-8
Language: nl
Country: NL
--></g></svg>