<?xml version="1.0" encoding="utf-8"?>
<!-- Generator: Adobe Illustrator 16.0.4, SVG Export Plug-In . SVG Version: 6.00 Build 0)  -->
<!DOCTYPE svg PUBLIC "-//W3C//DTD SVG 1.1//EN" "http://www.w3.org/Graphics/SVG/1.1/DTD/svg11.dtd">
<svg version="1.1" id="Layer_1" xmlns="http://www.w3.org/2000/svg" xmlns:xlink="http://www.w3.org/1999/xlink" x="0px" y="0px"
	 width="306px" height="75px" viewBox="-1 -1 306 75" enable-background="new -1 -1 306 75" xml:space="preserve">
<g id="background">
</g>
<g id="guides">
</g>
<g>
	<g>
		<path fill="#FFFFFF" d="M97.071,27.203h6.612v0.945h-0.135c-2.024,0-2.294,0.944-2.294,2.159v6.341
			c0,5.668-4.048,6.747-7.151,6.747c-4.588,0-7.421-2.024-7.421-5.802v-7.557c0-1.214-0.405-1.754-1.754-1.754h-0.405v-0.944h7.961
			v0.944h-0.405c-1.08,0-1.754,0.54-1.754,1.754v7.557c0,3.104,2.294,4.183,4.588,4.183c3.373,0,4.993-1.89,4.993-4.723v-6.207
			c0-1.754-0.54-2.563-2.024-2.563h-0.405L97.071,27.203L97.071,27.203z"/>
		<path fill="#FFFFFF" d="M115.557,40.696c0,1.214,0.405,1.484,1.484,1.484v0.809h-6.072v-0.809c1.08-0.135,1.484-0.811,1.484-2.834
			v-2.159c0-2.024-0.54-2.833-1.619-2.833c-0.81,0-1.619,0.404-2.699,1.079v5.128c0,1.079,0.54,1.619,1.484,1.619h0.27v0.809h-6.477
			v-0.809h0.135c1.079,0,1.484-0.405,1.484-1.754v-4.993c0-0.54-0.27-0.944-1.214-1.079l-0.54-0.135v-0.676l4.318-1.483h0.54v2.294
			c1.889-1.215,3.508-2.024,4.723-2.024c1.889,0,2.699,1.35,2.699,4.317V40.696L115.557,40.696z"/>
		<path fill="#FFFFFF" d="M125.002,42.989h-6.342v-0.809h0.27c1.08,0,1.484-0.405,1.484-1.754v-4.858c0-0.675-0.135-0.81-0.81-1.079
			l-0.81-0.27v-0.676l4.318-1.483h0.405v8.501c0,1.079,0.405,1.619,1.484,1.619V42.989L125.002,42.989z M123.788,28.012
			c0,1.08-0.945,1.754-2.024,1.754c-1.215,0-2.024-0.675-2.024-1.754c0-0.944,0.945-1.754,2.024-1.754
			C122.978,26.258,123.788,27.068,123.788,28.012z"/>
		<path fill="#FFFFFF" d="M125.271,32.601h6.477v0.809h-0.945c-0.54,0-0.81,0.54-0.27,1.484l2.293,4.992l2.024-4.452
			c0.54-1.349,0.27-1.89-1.484-2.024v-0.809h4.992v0.809c-1.349,0.135-1.619,0.405-2.159,1.484l-3.643,8.23h-1.484l-3.778-8.096
			c-0.54-1.079-0.81-1.484-1.889-1.619v-0.809H125.271z"/>
		<path fill="#FFFFFF" d="M148.48,40.021c-1.484,2.024-3.508,3.238-5.397,3.238c-2.833,0-4.587-2.159-4.587-5.263
			c0-3.373,2.293-5.667,5.397-5.667c1.35,0,2.429,0.405,3.238,1.214c1.484,1.484,0.81,2.969,1.619,3.374v0.675h-7.016
			c0.27,2.158,1.619,3.643,3.104,3.643c0.944,0,1.889-0.539,3.103-1.889L148.48,40.021z M145.242,36.647
			c0-1.889-0.675-3.104-1.754-3.104s-2.024,1.35-1.754,3.104H145.242z"/>
		<path fill="#FFFFFF" d="M157.115,42.989h-7.016v-0.809h0.135c1.08,0,1.484-0.405,1.484-1.754v-4.184
			c0-1.08-0.135-1.35-0.945-1.754l-0.674-0.27v-0.676l4.182-1.619h0.541v2.833l0,0c0.943-1.889,1.349-2.563,2.158-2.563
			c0.135,0,0.404,0,0.539,0.135l2.024,0.81c-0.27,1.08-0.675,2.023-1.214,2.699c-0.811-0.271-1.754-0.676-2.024-0.676
			c-0.54,0-0.944,0.405-1.483,1.08v4.048c0,1.214,0.404,1.755,1.754,1.755h0.674C157.115,42.181,157.115,42.989,157.115,42.989z"/>
		<path fill="#FFFFFF" d="M161.164,40.021h0.809c0.405,1.483,1.484,2.159,2.699,2.159c0.674,0,1.35-0.54,1.35-1.215
			c0-1.754-4.723-2.294-4.723-5.397c0-1.889,1.619-3.238,3.912-3.238c0.945,0,1.754,0.136,2.834,0.54v2.698h-0.81
			c-0.405-1.349-1.35-2.159-2.429-2.159c-0.675,0-1.215,0.405-1.215,0.945c0,2.023,4.992,2.158,4.992,5.667
			c0,1.889-1.349,3.238-3.238,3.238c-1.754,0-2.293-0.405-2.698-0.405c-0.135,0-0.27,0.135-0.54,0.27h-0.674L161.164,40.021z"/>
		<path fill="#FFFFFF" d="M177.086,42.989h-6.342v-0.809h0.27c1.079,0,1.484-0.405,1.484-1.754v-4.858
			c0-0.675-0.135-0.81-0.811-1.079l-0.809-0.27v-0.676l4.317-1.483h0.405v8.501c0,1.079,0.404,1.619,1.484,1.619V42.989
			L177.086,42.989z M175.871,28.012c0,1.08-0.945,1.754-2.024,1.754c-1.214,0-2.024-0.675-2.024-1.754
			c0-0.944,0.945-1.754,2.024-1.754C175.061,26.258,175.871,27.068,175.871,28.012z"/>
		<path fill="#FFFFFF" d="M182.887,40.156c0,0.944,0.405,1.349,1.215,1.349c0.54,0,1.215-0.404,1.889-1.214l0.405,0.675
			c-0.81,1.35-2.294,2.294-3.644,2.294c-1.754,0-2.833-0.944-2.833-3.104v-6.071h-1.35v-0.676c1.484-0.674,3.238-2.428,3.644-3.913
			h0.809v3.239h3.374l-0.405,1.35h-2.969v6.071H182.887z"/>
		<path fill="#FFFFFF" d="M197.729,40.021c-1.483,2.024-3.508,3.238-5.397,3.238c-2.698,0-4.588-2.159-4.588-5.263
			c0-3.373,2.295-5.667,5.398-5.667c1.349,0,2.428,0.405,3.238,1.214c1.484,1.484,0.809,2.969,1.619,3.374v0.675h-7.017
			c0.135,2.158,1.619,3.643,3.103,3.643c0.945,0,1.89-0.539,3.104-1.889L197.729,40.021z M194.356,36.647
			c0-1.889-0.675-3.104-1.754-3.104s-2.024,1.35-1.755,3.104H194.356z"/>
		<path fill="#FFFFFF" d="M205.421,42.989h-6.342v-0.809h0.27c1.079,0,1.484-0.405,1.484-1.754v-4.858
			c0-0.675-0.135-0.81-0.81-1.079l-0.81-0.27v-0.676l4.317-1.483h0.405v8.501c0,1.079,0.405,1.619,1.484,1.619V42.989
			L205.421,42.989z M204.207,28.012c0,1.08-0.945,1.754-2.024,1.754c-1.214,0-2.024-0.675-2.024-1.754
			c0-0.944,0.945-1.754,2.024-1.754C203.396,26.258,204.207,27.068,204.207,28.012z"/>
		<path fill="#FFFFFF" d="M211.088,40.156c0,0.944,0.404,1.349,1.215,1.349c0.539,0,1.214-0.404,1.889-1.214l0.404,0.675
			c-0.809,1.35-2.293,2.294-3.643,2.294c-1.754,0-2.834-0.944-2.834-3.104v-6.071h-1.35v-0.676c1.484-0.674,3.238-2.428,3.644-3.913
			h0.675v3.239h3.373l-0.404,1.35h-2.969V40.156L211.088,40.156z"/>
		<path fill="#FFFFFF" d="M233.756,27.068h6.612v0.944h-0.136c-2.023,0-2.293,0.945-2.293,2.159v6.341
			c0,5.668-4.049,6.747-7.152,6.747c-4.587,0-7.42-2.024-7.42-5.802v-7.557c0-1.214-0.405-1.754-1.755-1.754h-0.405v-0.945h7.961
			v0.945h-0.404c-1.079,0-1.754,0.54-1.754,1.754v7.557c0,3.104,2.294,4.183,4.588,4.183c3.373,0,4.992-1.89,4.992-4.723v-6.207
			c0-1.754-0.539-2.563-2.023-2.563h-0.811V27.068L233.756,27.068z"/>
		<path fill="#FFFFFF" d="M244.416,40.021c0,0.944,0.404,1.349,1.215,1.349c0.539,0,1.214-0.404,1.889-1.214l0.404,0.675
			c-0.81,1.35-2.293,2.293-3.643,2.293c-1.754,0-2.834-0.943-2.834-3.103v-6.072h-1.35v-0.675c1.484-0.674,3.238-2.429,3.644-3.913
			h0.675v3.239h3.373l-0.404,1.349h-2.969V40.021L244.416,40.021z"/>
		<path fill="#FFFFFF" d="M256.02,42.854h-7.016v-0.809h0.135c1.079,0,1.484-0.405,1.484-1.755v-4.183
			c0-1.08-0.135-1.35-0.945-1.754l-0.674-0.27v-0.676l4.183-1.619h0.54v2.833l0,0c0.944-1.889,1.35-2.563,2.158-2.563
			c0.135,0,0.405,0,0.54,0.135l2.024,0.675c-0.271,1.079-0.676,2.023-1.215,2.698c-0.81-0.27-1.754-0.675-2.023-0.675
			c-0.54,0-0.945,0.405-1.484,1.08v4.048c0,1.214,0.404,1.754,1.754,1.754h0.674L256.02,42.854L256.02,42.854z"/>
		<path fill="#FFFFFF" d="M269.514,40.021c-1.35,2.024-3.509,3.238-5.398,3.238c-2.833,0-4.587-2.159-4.587-5.263
			c0-3.373,2.294-5.667,5.397-5.667c1.35,0,2.428,0.405,3.238,1.214c1.484,1.484,0.81,2.969,1.619,3.374v0.675h-7.017
			c0.135,2.158,1.619,3.643,3.104,3.643c0.944,0,1.889-0.539,3.104-1.889L269.514,40.021z M266.275,36.647
			c0-1.889-0.676-3.104-1.755-3.104s-2.024,1.35-1.754,3.104H266.275z"/>
		<path fill="#FFFFFF" d="M281.792,40.427c-1.214,1.754-2.969,2.697-5.128,2.697c-3.104,0-5.396-2.158-5.396-4.992
			c0-3.373,2.833-5.937,6.611-5.937c2.158,0,3.777,0.944,3.777,2.159c0,0.809-0.539,1.214-1.349,1.214
			c-1.754,0-2.159-2.294-3.644-2.294c-1.214,0-2.158,1.484-2.158,3.778c0,2.698,1.35,4.588,3.238,4.588
			c1.079,0,2.158-0.54,3.238-1.755L281.792,40.427z"/>
		<path fill="#FFFFFF" d="M287.189,40.291c0,1.619,0.404,1.755,1.35,1.755h0.27v0.809h-6.477v-0.809h0.404
			c1.35,0,1.35-0.541,1.35-1.89V29.092c0-0.675-0.135-0.944-0.811-1.08l-0.674-0.27v-0.54l4.048-1.214h0.54v8.231
			c1.484-0.945,3.238-1.89,4.588-1.89c1.889,0,2.833,1.484,2.833,4.452v3.374c0,1.484,0.135,2.024,1.079,2.024h0.27v0.809h-5.937
			v-0.809h0.271c1.079,0,1.349-0.405,1.349-1.89v-3.778c0-1.35-0.675-2.293-1.619-2.293c-0.675,0-1.754,0.404-2.563,0.943v5.128
			H287.189z"/>
		<path fill="#FFFFFF" d="M301.492,40.021c0,0.944,0.404,1.349,1.214,1.349c0.675,0,1.214-0.404,1.89-1.214L305,40.831
			c-0.81,1.35-2.294,2.293-3.643,2.293c-1.755,0-2.834-0.943-2.834-3.103v-6.072h-1.35v-0.675c1.484-0.674,3.238-2.429,3.643-3.913
			h0.676v3.239h3.373l-0.404,1.349h-2.969V40.021L301.492,40.021z"/>
		<g>
			<g>
				<g>
					<g>
						<g>
							<g>
								<g>
									<polygon id="SVGID_1_" fill="#FFFFFF" points="32.034,0.486 32.709,-0.458 33.788,-0.593 34.733,0.082 40.535,0.082 
										41.479,-0.593 42.559,-0.458 43.233,0.486 48.9,1.836 49.98,1.431 51.06,1.836 51.599,2.78 56.727,5.479 57.806,5.344 
										58.75,6.019 59.021,7.098 63.338,11.011 64.417,11.011 65.227,11.956 65.227,13.035 68.466,17.758 69.545,18.163 
										70.085,19.242 69.815,20.321 71.839,25.719 72.783,26.258 73.053,27.473 72.514,28.417 73.188,34.22 73.998,35.028 
										73.998,36.108 73.188,36.918 72.514,42.72 73.053,43.665 72.783,44.879 71.839,45.419 69.815,50.815 70.085,51.896 
										69.545,52.975 68.466,53.245 65.227,58.103 65.227,59.182 64.417,60.126 63.338,60.126 59.021,64.039 58.75,65.118 
										57.806,65.793 56.727,65.658 51.599,68.356 51.06,69.302 49.98,69.706 48.9,69.302 43.368,70.651 42.559,71.595 
										41.479,71.729 40.535,71.056 34.733,71.056 33.788,71.729 32.709,71.595 32.034,70.651 26.367,69.302 25.288,69.706 
										24.208,69.302 23.803,68.356 18.541,65.658 17.461,65.793 16.517,65.118 16.382,64.039 11.929,60.126 10.85,60.126 
										10.041,59.182 10.175,58.103 6.802,53.245 5.723,52.975 5.183,51.896 5.588,50.815 3.429,45.419 2.484,44.879 
										2.214,43.665 2.754,42.72 2.08,36.918 1.27,36.108 1.27,35.028 2.08,34.22 2.754,28.417 2.214,27.473 2.484,26.258 
										3.429,25.719 5.588,20.321 5.183,19.242 5.723,18.163 6.802,17.758 10.175,13.035 10.041,11.956 10.85,11.011 
										11.929,11.011 16.382,7.098 16.517,6.019 17.461,5.344 18.541,5.479 23.803,2.78 24.208,1.836 25.288,1.431 26.367,1.836 
																			"/>
								</g>
								<g>
									<g>
										<defs>
											<polygon id="SVGID_2_" points="32.034,0.486 32.709,-0.458 33.788,-0.593 34.733,0.082 40.535,0.082 41.479,-0.593 
												42.559,-0.458 43.233,0.486 48.9,1.836 49.98,1.431 51.06,1.836 51.599,2.78 56.727,5.479 57.806,5.344 58.75,6.019 
												59.021,7.098 63.338,11.011 64.417,11.011 65.227,11.956 65.227,13.035 68.466,17.758 69.545,18.163 70.085,19.242 
												69.815,20.321 71.839,25.719 72.783,26.258 73.053,27.473 72.514,28.417 73.188,34.22 73.998,35.028 73.998,36.108 
												73.188,36.918 72.514,42.72 73.053,43.665 72.783,44.879 71.839,45.419 69.815,50.815 70.085,51.896 69.545,52.975 
												68.466,53.245 65.227,58.103 65.227,59.182 64.417,60.126 63.338,60.126 59.021,64.039 58.75,65.118 57.806,65.793 
												56.727,65.658 51.599,68.356 51.06,69.302 49.98,69.706 48.9,69.302 43.368,70.651 42.559,71.595 41.479,71.729 
												40.535,71.056 34.733,71.056 33.788,71.729 32.709,71.595 32.034,70.651 26.367,69.302 25.288,69.706 24.208,69.302 
												23.803,68.356 18.541,65.658 17.461,65.793 16.517,65.118 16.382,64.039 11.929,60.126 10.85,60.126 10.041,59.182 
												10.175,58.103 6.802,53.245 5.723,52.975 5.183,51.896 5.588,50.815 3.429,45.419 2.484,44.879 2.214,43.665 
												2.754,42.72 2.08,36.918 1.27,36.108 1.27,35.028 2.08,34.22 2.754,28.417 2.214,27.473 2.484,26.258 3.429,25.719 
												5.588,20.321 5.183,19.242 5.723,18.163 6.802,17.758 10.175,13.035 10.041,11.956 10.85,11.011 11.929,11.011 
												16.382,7.098 16.517,6.019 17.461,5.344 18.541,5.479 23.803,2.78 24.208,1.836 25.288,1.431 26.367,1.836 											
												"/>
										</defs>
										<clipPath id="SVGID_3_">
											<use xlink:href="#SVGID_2_"  overflow="visible"/>
										</clipPath>
										<g clip-path="url(#SVGID_3_)">
											<path fill="#FFFFFF" stroke="#FFFFFF" stroke-width="0.4" d="M43.908,3.86c0.27,0.135,0.81,0.405,1.08,0.54
												c0.405,0.135,0.81,0.135,0.944-0.405c0.135-0.405-0.405-0.675-1.08-0.944c-0.54-0.27-1.079-0.81-0.81-1.754
												c0.27-1.079,1.484-1.349,2.429-1.079c0.54,0.135,1.08,0.405,1.484,0.674l-0.405,0.945c-0.27-0.27-0.81-0.405-1.08-0.54
												c-0.674-0.135-0.944,0-0.944,0.405c0,0.27,0,0.405,0.675,0.675c1.214,0.675,1.484,1.214,1.214,1.889
												c-0.27,1.214-1.484,1.484-2.564,1.214c-0.54-0.135-1.079-0.405-1.484-0.675L43.908,3.86z"/>
											<path fill="#FFFFFF" stroke="#FFFFFF" stroke-width="0.4" d="M54.568,3.185c1.619,0.81,1.889,2.429,1.214,3.778
												c-0.675,1.35-2.159,1.889-3.778,1.08s-1.889-2.429-1.214-3.778C51.599,3.05,53.083,2.375,54.568,3.185z M52.544,7.098
												c0.674,0.405,1.484,0.135,2.024-0.81c0.54-1.08,0.27-1.754-0.54-2.159c-0.674-0.405-1.484-0.135-2.024,0.81
												C51.599,6.019,51.869,6.828,52.544,7.098z"/>
											<path fill="#FFFFFF" stroke="#FFFFFF" stroke-width="0.4" d="M60.64,7.098l-3.374,4.183
												c0.945,0.675,1.754,1.484,2.564,2.294l0.81-0.81c-0.54-0.54-1.08-1.08-1.619-1.484l2.699-3.103"/>
											<path fill="#FFFFFF" stroke="#FFFFFF" stroke-width="0.4" d="M72.109,23.29l-5.127,1.754
												c-0.135-0.405-0.27-0.81-0.405-1.214l4.992-2.024"/>
											<path fill="#FFFFFF" stroke="#FFFFFF" stroke-width="0.4" d="M74.133,32.601l-4.183-0.81l0,0l3.778-1.754l-0.27-1.349
												l-4.992,2.564c0.135,0.54,0.135,0.944,0.135,1.484l5.397,1.35"/>
											<path fill="#FFFFFF" stroke="#FFFFFF" stroke-width="0.4" d="M69.815,37.997c-0.135,0.27-0.27,0.81-0.405,1.215
												c0,0.404,0,0.81,0.405,0.944c0.54,0,0.54-0.54,0.81-1.079c0.27-0.54,0.675-1.215,1.619-1.08
												c1.08,0.135,1.484,1.35,1.349,2.294c-0.135,0.54-0.27,1.079-0.54,1.619l-0.944-0.54c0.135-0.27,0.27-0.809,0.405-1.079
												c0.135-0.675-0.135-0.944-0.405-0.944c-0.27,0-0.405,0.135-0.675,0.675c-0.405,1.349-1.08,1.619-1.754,1.483
												c-1.214-0.135-1.619-1.214-1.484-2.428c0-0.54,0.27-1.08,0.54-1.619L69.815,37.997z"/>
											<path fill="#FFFFFF" stroke="#FFFFFF" stroke-width="0.4" d="M71.029,50.411l-1.214-0.54
												c0.135-0.405,0.405-0.81,0.54-1.214l-3.778-1.484c0.135-0.405,0.27-0.81,0.405-1.215l3.778,1.35
												c0.135-0.404,0.27-0.81,0.405-1.215l1.35,0.405"/>
											<path fill="#FFFFFF" stroke="#FFFFFF" stroke-width="0.4" d="M67.251,56.888l-4.317-3.104
												c0.27-0.27,0.54-0.675,0.674-1.08l4.453,2.969"/>
											<path fill="#FFFFFF" stroke="#FFFFFF" stroke-width="0.4" d="M60.235,64.31l-0.81-1.08c0.405-0.27,0.675-0.54,1.08-0.81
												l-2.564-3.104c0.27-0.271,0.675-0.54,0.945-0.81l2.698,2.969c0.27-0.27,0.675-0.54,0.945-0.945l0.944,0.945"/>
											<path fill="#FFFFFF" stroke="#FFFFFF" stroke-width="0.4" d="M54.028,68.222l-2.429-4.723
												c0.405-0.135,0.675-0.404,1.08-0.539l2.563,4.723"/>
											<path fill="#FFFFFF" stroke="#FFFFFF" stroke-width="0.4" d="M43.773,71.595l-0.945-5.262
												c1.08-0.135,2.159-0.404,3.104-0.675l0.405,1.349c0.54-0.135,1.08-0.27,1.619-0.539l0.27-1.08l0.81,1.755l-1.08,3.373
												L43.773,71.595z"/>
											<path fill="#FFFFFF" stroke="#FFFFFF" stroke-width="0.4" d="M28.256,70.921l1.35-5.128
												c0.405,0.136,0.81,0.271,1.214,0.271l-1.214,5.262"/>
											<path fill="#FFFFFF" stroke="#FFFFFF" stroke-width="0.4" d="M22.184,68.627l2.294-4.858
												c-1.08-0.539-2.024-1.078-2.968-1.619l-0.54,0.945c0.675,0.404,1.35,0.81,2.024,1.079l-1.889,3.778"/>
											<path fill="#FFFFFF" stroke="#FFFFFF" stroke-width="0.4" d="M14.628,64.039l3.374-4.183
												c-0.945-0.675-1.754-1.484-2.564-2.294l-0.81,0.81c0.54,0.539,1.08,1.079,1.619,1.484l-2.698,3.104"/>
											<path fill="#FFFFFF" stroke="#FFFFFF" stroke-width="0.4" d="M6.127,54.054l5.397-1.35c0.27,0.405,0.54,0.811,0.81,1.215
												l-3.238,4.588l-0.81-1.08l2.564-3.373l0,0l-4.048,1.215"/>
											<path fill="#FFFFFF" stroke="#FFFFFF" stroke-width="0.4" d="M8.017,48.388c0-0.271-0.135-0.811-0.27-1.215
												c-0.135-0.405-0.405-0.81-0.81-0.54c-0.405,0.135-0.27,0.81-0.27,1.35c0,0.675,0,1.349-0.944,1.619
												c-1.08,0.405-1.889-0.405-2.294-1.35c-0.27-0.54-0.27-1.079-0.27-1.619h1.08c0,0.405,0.135,0.81,0.135,1.079
												c0.27,0.54,0.54,0.811,0.81,0.676c0.135-0.136,0.27-0.271,0.27-0.945c-0.135-1.35,0.135-1.889,0.81-2.158
												c1.214-0.405,2.024,0.27,2.429,1.349c0.135,0.54,0.27,1.079,0.27,1.619L8.017,48.388z"/>
											<path fill="#FFFFFF" stroke="#FFFFFF" stroke-width="0.4" d="M1.135,37.862l1.35-0.135c0,0.404,0,0.944,0.135,1.35
												l4.048-0.405c0,0.405,0.135,0.81,0.135,1.214l-4.048,0.541c0,0.404,0.135,0.809,0.27,1.349l-1.349,0.271"/>
											<path fill="#FFFFFF" stroke="#FFFFFF" stroke-width="0.4" d="M7.072,29.497c-0.135,0.54-0.135,0.945-0.27,1.349
												c0,0-0.81,0.27-1.214,0.405c-0.405,0.135-0.945,0.405-0.945,0.81c0,0.135,0,0.135,0,0.135l2.024,0.135
												c0,0.405-0.135,0.81-0.135,1.214l-5.127-0.27c0-0.674,0.135-1.484,0.135-2.159c0.135-1.08,0.675-1.889,1.619-1.754
												c0.81,0,1.214,0.54,1.214,1.349l0,0c0.135-0.27,0.405-0.27,0.675-0.54C5.723,29.901,7.072,29.497,7.072,29.497z"/>
											<path fill="#FFFFFF" stroke="#FFFFFF" stroke-width="0.4" d="M3.699,21.806L9.5,21.94c-0.27,0.405-0.405,0.81-0.54,1.35
												H7.747c-0.27,0.54-0.405,1.079-0.675,1.754l0.945,0.81c-0.135,0.405-0.27,0.944-0.405,1.349L3.159,23.29"/>
											<path fill="#FFFFFF" stroke="#FFFFFF" stroke-width="0.4" d="M12.739,8.852l3.913,1.35l-2.293-2.833l1.079-0.81
												l3.238,4.317c-0.405,0.27-0.674,0.54-1.079,0.81l-3.778-1.214l2.429,2.564c-0.27,0.27-0.54,0.54-0.81,0.81l-3.778-3.778"
												/>
											<path fill="#FFFFFF" stroke="#FFFFFF" stroke-width="0.4" d="M20.7,3.185c1.619-0.81,3.103-0.27,3.778,1.08
												c0.675,1.349,0.405,2.968-1.214,3.778s-3.104,0.27-3.778-1.08C18.811,5.614,19.081,4.129,20.7,3.185z M22.724,7.233
												c0.674-0.405,0.944-1.08,0.54-2.159c-0.54-1.08-1.349-1.214-2.024-0.81s-0.945,1.079-0.405,2.159
												C21.24,7.368,22.049,7.503,22.724,7.233z"/>
											<path fill="#FFFFFF" stroke="#FFFFFF" stroke-width="0.4" d="M28.526,4.534c0.27,0,0.81,0,1.214-0.135
												s0.81-0.27,0.675-0.81c-0.135-0.405-0.675-0.405-1.349-0.405c-0.675,0-1.35-0.135-1.62-1.214
												c-0.27-1.08,0.675-1.889,1.62-2.159c0.54-0.135,1.079-0.135,1.754-0.135l-0.135,1.08c-0.405,0-0.81,0-1.08,0
												c-0.675,0.135-0.81,0.405-0.675,0.81c0,0.27,0.27,0.405,0.81,0.27c1.35,0,1.889,0.405,2.024,1.079
												c0.27,1.214-0.54,2.024-1.754,2.294c-0.54,0.135-1.08,0.135-1.619,0.135L28.526,4.534z"/>
										</g>
									</g>
								</g>
							</g>
						</g>
						<circle fill="#FFFFFF" stroke="#FFFFFF" stroke-width="0.4" cx="37.701" cy="1.836" r="1.349"/>
						<circle fill="#FFFFFF" stroke="#FFFFFF" stroke-width="0.4" cx="65.362" cy="16.408" r="1.349"/>
						<circle fill="#FFFFFF" stroke="#FFFFFF" stroke-width="0.4" cx="37.701" cy="69.302" r="1.35"/>
						<circle fill="#FFFFFF" stroke="#FFFFFF" stroke-width="0.4" cx="9.905" cy="16.408" r="1.349"/>
					</g>
					<g>
						<g>
							<g>
								<defs>
									<circle id="SVGID_4_" cx="37.701" cy="35.569" r="36.297"/>
								</defs>
								<clipPath id="SVGID_6_">
									<use xlink:href="#SVGID_4_"  overflow="visible"/>
								</clipPath>
								<polyline clip-path="url(#SVGID_6_)" points="33.788,-0.863 37.701,20.996 41.479,-0.863 								"/>
							</g>
						</g>
						<g>
							<g>
								<defs>
									<circle id="SVGID_7_" cx="37.701" cy="35.569" r="36.297"/>
								</defs>
								<clipPath id="SVGID_8_">
									<use xlink:href="#SVGID_7_"  overflow="visible"/>
								</clipPath>
								<polyline clip-path="url(#SVGID_8_)" points="42.694,-0.728 41.075,21.401 50.115,1.026 								"/>
							</g>
						</g>
						<g>
							<g>
								<defs>
									<circle id="SVGID_9_" cx="37.701" cy="35.569" r="36.297"/>
								</defs>
								<clipPath id="SVGID_10_">
									<use xlink:href="#SVGID_9_"  overflow="visible"/>
								</clipPath>
								<polyline clip-path="url(#SVGID_10_)" points="51.194,1.431 44.448,22.75 57.941,5.074 								"/>
							</g>
						</g>
						<g>
							<g>
								<defs>
									<circle id="SVGID_11_" cx="37.701" cy="35.569" r="36.297"/>
								</defs>
								<clipPath id="SVGID_12_">
									<use xlink:href="#SVGID_11_"  overflow="visible"/>
								</clipPath>
								<polyline clip-path="url(#SVGID_12_)" points="58.886,5.749 47.281,24.639 64.688,10.876 								"/>
							</g>
						</g>
						<g>
							<g>
								<defs>
									<circle id="SVGID_13_" cx="37.701" cy="35.569" r="36.297"/>
								</defs>
								<clipPath id="SVGID_14_">
									<use xlink:href="#SVGID_13_"  overflow="visible"/>
								</clipPath>
								<polyline clip-path="url(#SVGID_14_)" points="65.497,11.686 49.575,27.338 69.815,18.027 								"/>
							</g>
						</g>
						<g>
							<g>
								<defs>
									<circle id="SVGID_15_" cx="37.701" cy="35.569" r="36.297"/>
								</defs>
								<clipPath id="SVGID_16_">
									<use xlink:href="#SVGID_15_"  overflow="visible"/>
								</clipPath>
								<polyline clip-path="url(#SVGID_16_)" points="70.354,18.972 51.194,30.441 73.053,26.258 								"/>
							</g>
						</g>
						<g>
							<g>
								<defs>
									<circle id="SVGID_17_" cx="37.701" cy="35.569" r="36.297"/>
								</defs>
								<clipPath id="SVGID_18_">
									<use xlink:href="#SVGID_17_"  overflow="visible"/>
								</clipPath>
								<polyline clip-path="url(#SVGID_18_)" points="73.323,27.338 52.139,33.814 74.268,35.028 								"/>
							</g>
						</g>
						<g>
							<g>
								<defs>
									<circle id="SVGID_19_" cx="37.701" cy="35.569" r="36.297"/>
								</defs>
								<clipPath id="SVGID_20_">
									<use xlink:href="#SVGID_19_"  overflow="visible"/>
								</clipPath>
								<polyline clip-path="url(#SVGID_20_)" points="74.268,36.108 52.139,37.323 73.323,43.8 								"/>
							</g>
						</g>
						<g>
							<g>
								<defs>
									<circle id="SVGID_21_" cx="37.701" cy="35.569" r="36.297"/>
								</defs>
								<clipPath id="SVGID_22_">
									<use xlink:href="#SVGID_21_"  overflow="visible"/>
								</clipPath>
								<polyline clip-path="url(#SVGID_22_)" points="73.053,44.879 51.194,40.696 70.354,52.03 								"/>
							</g>
						</g>
						<g>
							<g>
								<defs>
									<circle id="SVGID_23_" cx="37.701" cy="35.569" r="36.297"/>
								</defs>
								<clipPath id="SVGID_24_">
									<use xlink:href="#SVGID_23_"  overflow="visible"/>
								</clipPath>
								<polyline clip-path="url(#SVGID_24_)" points="69.815,53.109 49.575,43.8 65.497,59.451 								"/>
							</g>
						</g>
						<g>
							<g>
								<defs>
									<circle id="SVGID_25_" cx="37.701" cy="35.569" r="36.297"/>
								</defs>
								<clipPath id="SVGID_26_">
									<use xlink:href="#SVGID_25_"  overflow="visible"/>
								</clipPath>
								<polyline clip-path="url(#SVGID_26_)" points="64.688,60.261 47.281,46.498 58.886,65.388 								"/>
							</g>
						</g>
						<g>
							<g>
								<defs>
									<circle id="SVGID_27_" cx="37.701" cy="35.569" r="36.297"/>
								</defs>
								<clipPath id="SVGID_28_">
									<use xlink:href="#SVGID_27_"  overflow="visible"/>
								</clipPath>
								<polyline clip-path="url(#SVGID_28_)" points="57.941,66.063 44.448,48.388 51.194,69.571 								"/>
							</g>
						</g>
						<g>
							<g>
								<defs>
									<circle id="SVGID_29_" cx="37.701" cy="35.569" r="36.297"/>
								</defs>
								<clipPath id="SVGID_30_">
									<use xlink:href="#SVGID_29_"  overflow="visible"/>
								</clipPath>
								<polyline clip-path="url(#SVGID_30_)" points="41.479,72 37.701,50.142 33.788,72 								"/>
							</g>
						</g>
						<g>
							<g>
								<defs>
									<circle id="SVGID_31_" cx="37.701" cy="35.569" r="36.297"/>
								</defs>
								<clipPath id="SVGID_32_">
									<use xlink:href="#SVGID_31_"  overflow="visible"/>
								</clipPath>
								<polyline clip-path="url(#SVGID_32_)" points="32.709,71.865 34.193,49.736 25.153,69.976 								"/>
							</g>
						</g>
						<g>
							<g>
								<defs>
									<circle id="SVGID_33_" cx="37.701" cy="35.569" r="36.297"/>
								</defs>
								<clipPath id="SVGID_34_">
									<use xlink:href="#SVGID_33_"  overflow="visible"/>
								</clipPath>
								<polyline clip-path="url(#SVGID_34_)" points="24.073,69.571 30.955,48.388 17.327,66.063 								"/>
							</g>
						</g>
						<g>
							<g>
								<defs>
									<circle id="SVGID_35_" cx="37.701" cy="35.569" r="36.297"/>
								</defs>
								<clipPath id="SVGID_36_">
									<use xlink:href="#SVGID_35_"  overflow="visible"/>
								</clipPath>
								<polyline clip-path="url(#SVGID_36_)" points="16.382,65.388 27.986,46.498 10.58,60.261 								"/>
							</g>
						</g>
						<g>
							<g>
								<defs>
									<circle id="SVGID_37_" cx="37.701" cy="35.569" r="36.297"/>
								</defs>
								<clipPath id="SVGID_38_">
									<use xlink:href="#SVGID_37_"  overflow="visible"/>
								</clipPath>
								<polyline clip-path="url(#SVGID_38_)" points="9.905,59.451 25.692,43.8 5.453,53.109 								"/>
							</g>
						</g>
						<g>
							<g>
								<defs>
									<circle id="SVGID_39_" cx="37.701" cy="35.569" r="36.297"/>
								</defs>
								<clipPath id="SVGID_40_">
									<use xlink:href="#SVGID_39_"  overflow="visible"/>
								</clipPath>
								<polyline clip-path="url(#SVGID_40_)" points="4.913,52.03 24.073,40.696 2.214,44.879 								"/>
							</g>
						</g>
						<g>
							<g>
								<defs>
									<circle id="SVGID_41_" cx="37.701" cy="35.569" r="36.297"/>
								</defs>
								<clipPath id="SVGID_42_">
									<use xlink:href="#SVGID_41_"  overflow="visible"/>
								</clipPath>
								<polyline clip-path="url(#SVGID_42_)" points="1.944,43.8 23.264,37.323 1,36.108 								"/>
							</g>
						</g>
						<g>
							<g>
								<defs>
									<circle id="SVGID_43_" cx="37.701" cy="35.569" r="36.297"/>
								</defs>
								<clipPath id="SVGID_44_">
									<use xlink:href="#SVGID_43_"  overflow="visible"/>
								</clipPath>
								<polyline clip-path="url(#SVGID_44_)" points="1,35.028 23.264,33.814 1.944,27.338 								"/>
							</g>
						</g>
						<g>
							<g>
								<defs>
									<circle id="SVGID_45_" cx="37.701" cy="35.569" r="36.297"/>
								</defs>
								<clipPath id="SVGID_46_">
									<use xlink:href="#SVGID_45_"  overflow="visible"/>
								</clipPath>
								<polyline clip-path="url(#SVGID_46_)" points="2.214,26.258 24.073,30.441 4.913,18.972 								"/>
							</g>
						</g>
						<g>
							<g>
								<defs>
									<circle id="SVGID_47_" cx="37.701" cy="35.569" r="36.297"/>
								</defs>
								<clipPath id="SVGID_48_">
									<use xlink:href="#SVGID_47_"  overflow="visible"/>
								</clipPath>
								<polyline clip-path="url(#SVGID_48_)" points="5.453,18.027 25.692,27.338 9.905,11.686 								"/>
							</g>
						</g>
						<g>
							<g>
								<defs>
									<circle id="SVGID_49_" cx="37.701" cy="35.569" r="36.297"/>
								</defs>
								<clipPath id="SVGID_50_">
									<use xlink:href="#SVGID_49_"  overflow="visible"/>
								</clipPath>
								<polyline clip-path="url(#SVGID_50_)" points="10.58,10.876 27.986,24.639 16.382,5.749 								"/>
							</g>
						</g>
						<g>
							<g>
								<defs>
									<circle id="SVGID_51_" cx="37.701" cy="35.569" r="36.297"/>
								</defs>
								<clipPath id="SVGID_52_">
									<use xlink:href="#SVGID_51_"  overflow="visible"/>
								</clipPath>
								<polyline clip-path="url(#SVGID_52_)" points="17.327,5.074 30.955,22.75 24.073,1.431 								"/>
							</g>
						</g>
						<g>
							<g>
								<defs>
									<circle id="SVGID_53_" cx="37.701" cy="35.569" r="36.297"/>
								</defs>
								<clipPath id="SVGID_54_">
									<use xlink:href="#SVGID_53_"  overflow="visible"/>
								</clipPath>
								<polyline clip-path="url(#SVGID_54_)" points="25.153,1.026 34.193,21.401 32.709,-0.728 								"/>
							</g>
						</g>
						<g>
							<g>
								<defs>
									<circle id="SVGID_55_" cx="37.701" cy="35.569" r="36.297"/>
								</defs>
								<clipPath id="SVGID_56_">
									<use xlink:href="#SVGID_55_"  overflow="visible"/>
								</clipPath>
								<path clip-path="url(#SVGID_56_)" fill="#FFFFFF" d="M60.64,7.098l-3.374,4.183c0.945,0.675,1.754,1.484,2.564,2.294
									l0.81-0.81c-0.54-0.54-1.08-1.08-1.619-1.484l2.699-3.103"/>
							</g>
						</g>
						<g>
							<g>
								<defs>
									<circle id="SVGID_57_" cx="37.701" cy="35.569" r="36.297"/>
								</defs>
								<clipPath id="SVGID_58_">
									<use xlink:href="#SVGID_57_"  overflow="visible"/>
								</clipPath>
								<path clip-path="url(#SVGID_58_)" fill="#FFFFFF" d="M72.109,23.29l-5.127,1.754c-0.135-0.405-0.27-0.81-0.405-1.214
									l4.992-2.024"/>
							</g>
						</g>
						<g>
							<g>
								<defs>
									<circle id="SVGID_59_" cx="37.701" cy="35.569" r="36.297"/>
								</defs>
								<clipPath id="SVGID_60_">
									<use xlink:href="#SVGID_59_"  overflow="visible"/>
								</clipPath>
								<path clip-path="url(#SVGID_60_)" fill="#FFFFFF" d="M74.133,32.601l-4.183-0.81l0,0l3.778-1.754l-0.27-1.349l-4.992,2.564
									c0.135,0.54,0.135,0.944,0.135,1.484l5.397,1.35"/>
							</g>
						</g>
						<g>
							<g>
								<defs>
									<circle id="SVGID_61_" cx="37.701" cy="35.569" r="36.297"/>
								</defs>
								<clipPath id="SVGID_62_">
									<use xlink:href="#SVGID_61_"  overflow="visible"/>
								</clipPath>
								<path clip-path="url(#SVGID_62_)" fill="#FFFFFF" d="M71.029,50.411l-1.214-0.54c0.135-0.405,0.405-0.81,0.54-1.214
									l-3.778-1.484c0.135-0.405,0.27-0.81,0.405-1.215l3.778,1.35c0.135-0.404,0.27-0.81,0.405-1.215l1.35,0.405"/>
							</g>
						</g>
						<g>
							<g>
								<defs>
									<circle id="SVGID_63_" cx="37.701" cy="35.569" r="36.297"/>
								</defs>
								<clipPath id="SVGID_64_">
									<use xlink:href="#SVGID_63_"  overflow="visible"/>
								</clipPath>
								<path clip-path="url(#SVGID_64_)" fill="#FFFFFF" d="M67.251,56.888l-4.317-3.104c0.27-0.27,0.54-0.675,0.674-1.08
									l4.453,2.969"/>
							</g>
						</g>
						<g>
							<g>
								<defs>
									<circle id="SVGID_65_" cx="37.701" cy="35.569" r="36.297"/>
								</defs>
								<clipPath id="SVGID_66_">
									<use xlink:href="#SVGID_65_"  overflow="visible"/>
								</clipPath>
								<path clip-path="url(#SVGID_66_)" fill="#FFFFFF" d="M60.235,64.31l-0.81-1.08c0.405-0.27,0.675-0.54,1.08-0.81
									l-2.564-3.104c0.27-0.271,0.675-0.54,0.945-0.81l2.698,2.969c0.27-0.27,0.675-0.54,0.945-0.945l0.944,0.945"/>
							</g>
						</g>
						<g>
							<g>
								<defs>
									<circle id="SVGID_67_" cx="37.701" cy="35.569" r="36.297"/>
								</defs>
								<clipPath id="SVGID_68_">
									<use xlink:href="#SVGID_67_"  overflow="visible"/>
								</clipPath>
								<path clip-path="url(#SVGID_68_)" fill="#FFFFFF" d="M54.028,68.222l-2.429-4.723c0.405-0.135,0.675-0.404,1.08-0.539
									l2.563,4.723"/>
							</g>
						</g>
						<g>
							<g>
								<defs>
									<circle id="SVGID_69_" cx="37.701" cy="35.569" r="36.297"/>
								</defs>
								<clipPath id="SVGID_70_">
									<use xlink:href="#SVGID_69_"  overflow="visible"/>
								</clipPath>
								<g clip-path="url(#SVGID_70_)">
									<g>
										<g>
											<polyline id="SVGID_5_" points="50.115,69.976 41.075,49.736 42.694,71.865 											"/>
										</g>
										<g>
											<g>
												<defs>
													<polyline id="SVGID_71_" points="50.115,69.976 41.075,49.736 42.694,71.865 													"/>
												</defs>
												<clipPath id="SVGID_72_">
													<use xlink:href="#SVGID_71_"  overflow="visible"/>
												</clipPath>
												<path clip-path="url(#SVGID_72_)" fill="#FFFFFF" d="M48.091,70.651l1.08-3.374l-0.81-1.754l-0.27,1.079
													c-0.54,0.135-1.079,0.404-1.619,0.54l-0.405-1.35c-1.079,0.271-2.024,0.54-3.104,0.675l0.135,1.08
													c0.675-0.136,1.349-0.271,2.024-0.405l0.27,0.944c-0.675,0.135-1.214,0.27-1.889,0.404l0.135,1.08
													c0.675-0.135,1.214-0.27,1.889-0.404l0.27,0.809c-0.81,0.135-1.484,0.271-2.159,0.405l0.27,1.349 M47.146,69.841
													l-0.54-1.889c0.405-0.135,0.81-0.27,1.079-0.27L47.146,69.841L47.146,69.841z"/>
											</g>
										</g>
										<g>
											<g>
												<defs>
													<circle id="SVGID_73_" cx="37.701" cy="35.569" r="36.297"/>
												</defs>
												<clipPath id="SVGID_74_">
													<use xlink:href="#SVGID_73_"  overflow="visible"/>
												</clipPath>
												<path clip-path="url(#SVGID_74_)" fill="#FFFFFF" d="M28.256,70.921l1.35-5.128c0.405,0.136,0.81,0.271,1.214,0.271
													l-1.214,5.262"/>
											</g>
											<g>
												<g>
													<defs>
														<circle id="SVGID_75_" cx="37.701" cy="35.569" r="36.297"/>
													</defs>
													<clipPath id="SVGID_76_">
														<use xlink:href="#SVGID_75_"  overflow="visible"/>
													</clipPath>
													<path clip-path="url(#SVGID_76_)" fill="#FFFFFF" d="M22.184,68.627l2.294-4.858c-1.08-0.539-2.024-1.078-2.968-1.619
														l-0.54,0.945c0.675,0.404,1.35,0.81,2.024,1.079l-1.889,3.778"/>
												</g>
												<g>
													<g>
														<defs>
															<circle id="SVGID_77_" cx="37.701" cy="35.569" r="36.297"/>
														</defs>
														<clipPath id="SVGID_78_">
															<use xlink:href="#SVGID_77_"  overflow="visible"/>
														</clipPath>
														<path clip-path="url(#SVGID_78_)" fill="#FFFFFF" d="M14.628,64.039l3.374-4.183
															c-0.945-0.675-1.754-1.484-2.564-2.294l-0.81,0.81c0.54,0.539,1.08,1.079,1.619,1.484l-2.698,3.104"/>
													</g>
													<g>
														<g>
															<defs>
																<circle id="SVGID_79_" cx="37.701" cy="35.569" r="36.297"/>
															</defs>
															<clipPath id="SVGID_80_">
																<use xlink:href="#SVGID_79_"  overflow="visible"/>
															</clipPath>
															<path clip-path="url(#SVGID_80_)" fill="#FFFFFF" d="M6.127,54.054l5.397-1.35c0.27,0.405,0.54,0.811,0.81,1.215
																l-3.238,4.588l-0.81-1.08l2.564-3.373l0,0l-4.048,1.215"/>
														</g>
														<g id="UU_logo">
															<g>
																<defs>
																	<circle id="SVGID_81_" cx="37.701" cy="35.569" r="36.297"/>
																</defs>
																<clipPath id="SVGID_82_">
																	<use xlink:href="#SVGID_81_"  overflow="visible"/>
																</clipPath>
																<path clip-path="url(#SVGID_82_)" fill="#FFFFFF" d="M1.135,37.862l1.35-0.135c0,0.404,0,0.944,0.135,1.35
																	l4.048-0.405c0,0.405,0.135,0.81,0.135,1.214l-4.048,0.541c0,0.404,0.135,0.809,0.27,1.349l-1.349,0.271"/>
															</g>
															<g>
																<g>
																	<defs>
																		<circle id="SVGID_83_" cx="37.701" cy="35.569" r="36.297"/>
																	</defs>
																	<clipPath id="SVGID_84_">
																		<use xlink:href="#SVGID_83_"  overflow="visible"/>
																	</clipPath>
																	<path clip-path="url(#SVGID_84_)" fill="#FFFFFF" d="M1.27,31.116h0.27c0.135-1.08,0.675-1.889,1.619-1.754
																		c0.81,0,1.214,0.54,1.214,1.349l0,0c0.135-0.27,0.405-0.27,0.675-0.54c0.675-0.27,2.024-0.675,2.024-0.675
																		c-0.135,0.54-0.135,0.945-0.27,1.349c0,0-0.81,0.27-1.214,0.405c-0.405,0.135-0.945,0.405-0.945,0.81
																		c0,0.135,0,0.135,0,0.135l2.024,0.135c0,0.405-0.135,0.81-0.135,1.214l-5.397-0.27 M2.484,31.386
																		c0,0.135,0,0.405,0,0.54l1.349,0.135c0-0.135,0-0.405,0-0.54c0-0.27,0-0.81-0.54-0.81
																		C2.754,30.711,2.484,30.846,2.484,31.386z"/>
																</g>
																<g>
																	<g>
																		<defs>
																			<circle id="SVGID_85_" cx="37.701" cy="35.569" r="36.297"/>
																		</defs>
																		<clipPath id="SVGID_86_">
																			<use xlink:href="#SVGID_85_"  overflow="visible"/>
																		</clipPath>
																		<path clip-path="url(#SVGID_86_)" fill="#FFFFFF" d="M3.699,21.806L9.5,21.94c-0.27,0.405-0.405,0.81-0.54,1.35
																			H7.747c-0.27,0.54-0.405,1.079-0.675,1.754l0.945,0.81c-0.135,0.405-0.27,0.944-0.405,1.349L3.159,23.29
																			 M4.643,23.02l1.619,1.349c0.135-0.405,0.27-0.81,0.405-1.079L4.643,23.02L4.643,23.02z"/>
																	</g>
																	<g>
																		<g>
																			<defs>
																				<circle id="SVGID_87_" cx="37.701" cy="35.569" r="36.297"/>
																			</defs>
																			<clipPath id="SVGID_88_">
																				<use xlink:href="#SVGID_87_"  overflow="visible"/>
																			</clipPath>
																			<path clip-path="url(#SVGID_88_)" fill="#FFFFFF" d="M12.739,8.852l3.913,1.35l-2.293-2.833l1.079-0.81
																				l3.238,4.317c-0.405,0.27-0.674,0.54-1.079,0.81l-3.778-1.214l2.429,2.564c-0.27,0.27-0.54,0.54-0.81,0.81
																				l-3.778-3.778"/>
																		</g>
																		<g>
																			<g>
																				<defs>
																					<circle id="SVGID_89_" cx="37.701" cy="35.569" r="36.297"/>
																				</defs>
																				<clipPath id="SVGID_90_">
																					<use xlink:href="#SVGID_89_"  overflow="visible"/>
																				</clipPath>
																				<g clip-path="url(#SVGID_90_)">
																					<path fill="#FFFFFF" d="M43.908,3.86c0.27,0.135,0.81,0.405,1.08,0.54c0.405,0.135,0.81,0.135,0.944-0.405
																						c0.135-0.405-0.405-0.675-1.08-0.944c-0.54-0.27-1.079-0.81-0.81-1.754c0.27-1.079,1.484-1.349,2.429-1.079
																						c0.54,0.135,1.08,0.405,1.484,0.674l-0.405,0.945c-0.27-0.27-0.81-0.405-1.08-0.54
																						c-0.674-0.135-0.944,0-0.944,0.405c0,0.27,0,0.405,0.675,0.675c1.214,0.675,1.484,1.214,1.214,1.889
																						c-0.27,1.214-1.484,1.484-2.564,1.214c-0.54-0.135-1.079-0.405-1.484-0.675L43.908,3.86z"/>
																					<path fill="#FFFFFF" d="M54.568,3.185c1.619,0.81,1.889,2.429,1.214,3.778c-0.675,1.35-2.159,1.889-3.778,1.08
																						s-1.889-2.429-1.214-3.778C51.599,3.05,53.083,2.375,54.568,3.185z M52.544,7.098
																						c0.674,0.405,1.484,0.135,2.024-0.81c0.54-1.08,0.27-1.754-0.54-2.159c-0.674-0.405-1.484-0.135-2.024,0.81
																						C51.599,6.019,51.869,6.828,52.544,7.098z"/>
																					<path fill="#FFFFFF" d="M69.815,37.997c-0.135,0.27-0.27,0.81-0.405,1.215c0,0.404,0,0.81,0.405,0.944
																						c0.54,0,0.54-0.54,0.81-1.079c0.27-0.54,0.675-1.215,1.619-1.08c1.08,0.135,1.484,1.35,1.349,2.294
																						c-0.135,0.54-0.27,1.079-0.54,1.619l-0.944-0.54c0.135-0.27,0.27-0.809,0.405-1.079
																						c0.135-0.675-0.135-0.944-0.405-0.944c-0.27,0-0.405,0.135-0.675,0.675c-0.405,1.349-1.08,1.619-1.754,1.483
																						c-1.214-0.135-1.619-1.214-1.484-2.428c0-0.54,0.27-1.08,0.54-1.619L69.815,37.997z"/>
																					<path fill="#FFFFFF" d="M8.017,48.388c0-0.271-0.135-0.811-0.27-1.215c-0.135-0.405-0.405-0.81-0.81-0.54
																						c-0.405,0.135-0.27,0.81-0.27,1.35c0,0.675,0,1.349-0.944,1.619c-1.08,0.405-1.889-0.405-2.294-1.35
																						c-0.27-0.54-0.27-1.079-0.27-1.619h1.08c0,0.405,0.135,0.81,0.135,1.079c0.27,0.54,0.54,0.811,0.81,0.676
																						c0.135-0.136,0.27-0.271,0.27-0.945c-0.135-1.35,0.135-1.889,0.81-2.158c1.214-0.405,2.024,0.27,2.429,1.349
																						c0.135,0.54,0.27,1.079,0.27,1.619L8.017,48.388z"/>
																					<path fill="#FFFFFF" d="M20.7,3.185c1.619-0.81,3.103-0.27,3.778,1.08c0.675,1.349,0.405,2.968-1.214,3.778
																						s-3.104,0.27-3.778-1.08C18.811,5.614,19.081,4.129,20.7,3.185z M22.724,7.233
																						c0.674-0.405,0.944-1.08,0.54-2.159c-0.54-1.08-1.349-1.214-2.024-0.81s-0.945,1.079-0.405,2.159
																						C21.24,7.368,22.049,7.503,22.724,7.233z"/>
																					<path fill="#FFFFFF" d="M28.526,4.534c0.27,0,0.81,0,1.214-0.135s0.81-0.27,0.675-0.81
																						c-0.135-0.405-0.675-0.405-1.349-0.405c-0.675,0-1.35-0.135-1.62-1.214c-0.27-1.08,0.675-1.889,1.62-2.159
																						c0.54-0.135,1.079-0.135,1.754-0.135l-0.135,1.08c-0.405,0-0.81,0-1.08,0c-0.675,0.135-0.81,0.405-0.675,0.81
																						c0,0.27,0.27,0.405,0.81,0.27c1.35,0,1.889,0.405,2.024,1.079c0.27,1.214-0.54,2.024-1.754,2.294
																						c-0.54,0.135-1.08,0.135-1.619,0.135L28.526,4.534z"/>
																				</g>
																			</g>
																			<g>
																				<g>
																					<defs>
																						<circle id="SVGID_91_" cx="37.701" cy="35.569" r="36.297"/>
																					</defs>
																					<clipPath id="SVGID_92_">
																						<use xlink:href="#SVGID_91_"  overflow="visible"/>
																					</clipPath>
																					<g clip-path="url(#SVGID_92_)">
																						<circle fill="#FFFFFF" cx="37.701" cy="1.836" r="1.349"/>
																						<circle fill="#FFFFFF" cx="65.362" cy="16.408" r="1.349"/>
																						<circle fill="#FFFFFF" cx="37.701" cy="69.302" r="1.35"/>
																						<circle fill="#FFFFFF" cx="9.905" cy="16.408" r="1.349"/>
																					</g>
																				</g>
																			</g>
																			<g>
																				<defs>
																					<circle id="SVGID_93_" cx="37.701" cy="35.569" r="36.297"/>
																				</defs>
																				<clipPath id="SVGID_94_">
																					<use xlink:href="#SVGID_93_"  overflow="visible"/>
																				</clipPath>
																				<path clip-path="url(#SVGID_94_)" fill="none" d="M37.701,35.568"/>
																			</g>
																			<g>
																				<defs>
																					<circle id="SVGID_95_" cx="37.701" cy="35.569" r="36.297"/>
																				</defs>
																				<clipPath id="SVGID_96_">
																					<use xlink:href="#SVGID_95_"  overflow="visible"/>
																				</clipPath>
																				<g clip-path="url(#SVGID_96_)">
																					<g>
																						<path d="M42.694,40.562c-0.54,0.404-1.08,0.674-1.619,0.674h-1.35c-0.674,0-1.349,0.405-1.754,0.945h-0.54
																							c-0.405-0.54-1.08-0.945-1.754-0.945h-1.349c-1.214,0-2.294-0.944-2.294-2.293v-9.041"/>
																						<path fill="#FFFFFF" d="M32.034,29.901h11.199v9.041c0,0.674-0.27,1.214-0.675,1.619"/>
																					</g>
																					<path d="M43.908,38.942c0,1.619-1.214,2.833-2.833,2.833h-1.35c-0.674,0-1.349,0.405-1.484,1.079h-1.08
																						c-0.27-0.539-0.81-1.079-1.484-1.079h-1.349c-1.619,0-2.833-1.214-2.833-2.833v-9.581h12.414V38.942
																						L43.908,38.942z M42.694,30.441h-10.12v8.365c0,0.944,0.81,1.62,1.619,1.62h1.35
																						c0.81,0,1.484,0.404,2.024,0.809l0,0c0.54-0.539,1.214-0.809,2.024-0.809h1.349
																						c0.945,0,1.619-0.811,1.619-1.62L42.694,30.441L42.694,30.441z"/>
																				</g>
																			</g>
																		</g>
																	</g>
																</g>
															</g>
														</g>
													</g>
												</g>
											</g>
										</g>
									</g>
								</g>
							</g>
						</g>
					</g>
				</g>
			</g>
		</g>
	</g>
</g>
</svg>
