<?xml version="1.0" encoding="utf-8"?>
<!-- Generator: Adobe Illustrator 15.1.0, SVG Export Plug-In . SVG Version: 6.00 Build 0)  -->
<!DOCTYPE svg PUBLIC "-//W3C//DTD SVG 1.1//EN" "http://www.w3.org/Graphics/SVG/1.1/DTD/svg11.dtd">
<svg version="1.1" xmlns="http://www.w3.org/2000/svg" xmlns:xlink="http://www.w3.org/1999/xlink" x="0px" y="0px"
	 width="227.483px" height="61px" viewBox="0 0 227.483 61" enable-background="new 0 0 227.483 61" xml:space="preserve">
<g id="background">
</g>
<g id="guides">
</g>
<g id="UU_logo">
	<g>
		<path d="M71.689,24.585h4.871v0.733h-0.133c-1.502,0-1.73,0.658-1.73,1.562v4.683c0,4.193-3.045,4.98-5.283,4.98
			c-3.387,0-5.529-1.464-5.529-4.342v-5.605c0-0.938-0.262-1.278-1.316-1.278h-0.32v-0.733h5.89v0.733h-0.32
			c-0.791,0-1.338,0.357-1.338,1.278v5.605c0,2.295,1.695,3.082,3.404,3.082c2.467,0,3.688-1.391,3.688-3.461v-4.567
			c0-1.334-0.379-1.938-1.545-1.938h-0.338V24.585z"/>
		<path d="M85.399,34.572c0,0.92,0.335,1.107,1.072,1.107v0.604h-4.44V35.68c0.771-0.055,1.073-0.583,1.073-2.125v-1.636
			c0-1.505-0.415-2.088-1.165-2.088c-0.584,0-1.205,0.282-1.996,0.828v3.818c0,0.846,0.359,1.202,1.109,1.202h0.169v0.604h-4.757
			V35.68h0.111c0.792,0,1.072-0.338,1.072-1.315v-3.667c0-0.414-0.225-0.658-0.885-0.846l-0.392-0.113v-0.452l3.214-1.089h0.357
			v1.671c1.371-0.901,2.576-1.467,3.479-1.467c1.375,0,1.978,0.98,1.978,3.234V34.572z"/>
		<path d="M92.414,36.283h-4.7V35.68h0.207c0.771,0,1.052-0.338,1.052-1.315v-3.608c0-0.491-0.113-0.624-0.64-0.811l-0.619-0.228
			v-0.45l3.215-1.07h0.342v6.3c0,0.771,0.314,1.183,1.144,1.183V36.283z M91.531,25.206c0,0.753-0.717,1.279-1.485,1.279
			c-0.867,0-1.504-0.547-1.504-1.279c0-0.677,0.714-1.279,1.504-1.279C90.906,23.927,91.531,24.492,91.531,25.206z"/>
		<path d="M92.622,28.61h4.776v0.603h-0.657c-0.398,0-0.562,0.355-0.244,1.052l1.671,3.745l1.466-3.312
			c0.434-0.979,0.21-1.354-1.106-1.484V28.61h3.74v0.603c-0.979,0.093-1.221,0.338-1.579,1.126l-2.687,6.075h-1.129l-2.802-6.035
			c-0.355-0.772-0.624-1.073-1.449-1.166V28.61z"/>
		<path d="M109.847,34.103c-1.055,1.482-2.575,2.387-4.022,2.387c-2.055,0-3.441-1.581-3.441-3.854c0-2.484,1.672-4.234,4.022-4.234
			c0.999,0,1.783,0.32,2.367,0.904c1.114,1.108,0.585,2.162,1.243,2.503v0.543h-5.21c0.151,1.562,1.203,2.745,2.312,2.745
			c0.695,0,1.372-0.392,2.295-1.354L109.847,34.103z M107.421,31.618c-0.017-1.446-0.526-2.332-1.336-2.332
			c-0.771,0-1.467,0.997-1.335,2.332H107.421z"/>
		<path d="M116.241,36.283h-5.225V35.68h0.131c0.77,0,1.05-0.338,1.05-1.315v-3.066c0-0.846-0.112-1.033-0.677-1.259l-0.504-0.208
			V29.36l3.08-1.163h0.397v2.104h0.04c0.692-1.354,0.992-1.9,1.633-1.9c0.134,0,0.283,0.021,0.375,0.058l1.484,0.547
			c-0.223,0.788-0.524,1.465-0.899,1.991c-0.585-0.225-1.28-0.468-1.525-0.468c-0.375,0-0.695,0.261-1.107,0.846v3.044
			c0,0.904,0.282,1.261,1.261,1.261h0.486V36.283z"/>
		<path d="M119.215,34.063h0.602c0.32,1.054,1.148,1.616,1.955,1.616c0.527,0,0.975-0.396,0.975-0.863
			c0-1.298-3.531-1.748-3.531-4.026c0-1.43,1.186-2.389,2.948-2.389c0.717,0,1.32,0.113,2.109,0.396l0.036,2.012h-0.604
			c-0.337-1.034-0.958-1.597-1.766-1.597c-0.488,0-0.863,0.301-0.863,0.713c0,1.542,3.704,1.6,3.704,4.177
			c0,1.39-0.996,2.368-2.444,2.368c-1.301,0-1.731-0.265-1.995-0.265c-0.111,0-0.223,0.077-0.375,0.245h-0.545L119.215,34.063z"/>
		<path d="M131.026,36.283h-4.704V35.68h0.21c0.769,0,1.052-0.338,1.052-1.315v-3.608c0-0.491-0.108-0.624-0.638-0.811l-0.624-0.228
			v-0.45l3.217-1.07h0.338v6.3c0,0.771,0.32,1.183,1.149,1.183V36.283z M130.141,25.206c0,0.753-0.713,1.279-1.486,1.279
			c-0.863,0-1.503-0.547-1.503-1.279c0-0.677,0.714-1.279,1.503-1.279C129.52,23.927,130.141,24.492,130.141,25.206z"/>
		<path d="M135.28,34.197c0,0.695,0.316,0.994,0.862,0.994c0.45,0,0.879-0.283,1.429-0.94l0.263,0.529
			c-0.563,1.013-1.691,1.709-2.729,1.709c-1.276,0-2.125-0.717-2.125-2.33v-4.516h-0.996v-0.489c1.129-0.47,2.408-1.842,2.746-2.895
			h0.55v2.351h2.461l-0.283,1.033h-2.178V34.197z"/>
		<path d="M146.258,34.103c-1.051,1.482-2.576,2.387-4.028,2.387c-2.045,0-3.438-1.581-3.438-3.854c0-2.484,1.676-4.234,4.022-4.234
			c1,0,1.79,0.32,2.374,0.904c1.107,1.108,0.583,2.162,1.24,2.503v0.543h-5.21c0.148,1.562,1.203,2.745,2.312,2.745
			c0.7,0,1.377-0.392,2.296-1.354L146.258,34.103z M143.833,31.618c-0.019-1.446-0.528-2.332-1.332-2.332
			c-0.775,0-1.471,0.997-1.334,2.332H143.833z"/>
		<path d="M152,36.283h-4.704V35.68h0.208c0.773,0,1.053-0.338,1.053-1.315v-3.608c0-0.491-0.111-0.624-0.641-0.811l-0.62-0.228
			v-0.45l3.217-1.07h0.338v6.3c0,0.771,0.319,1.183,1.149,1.183V36.283z M151.115,25.206c0,0.753-0.717,1.279-1.486,1.279
			c-0.866,0-1.506-0.547-1.506-1.279c0-0.677,0.714-1.279,1.506-1.279C150.494,23.927,151.115,24.492,151.115,25.206z"/>
		<path d="M156.248,34.197c0,0.695,0.318,0.994,0.864,0.994c0.45,0,0.886-0.283,1.43-0.94l0.262,0.529
			c-0.563,1.013-1.691,1.709-2.725,1.709c-1.279,0-2.126-0.717-2.126-2.33v-4.516h-0.996v-0.489c1.126-0.47,2.405-1.842,2.746-2.895
			h0.545v2.351h2.46l-0.283,1.033h-2.177V34.197z"/>
		<path d="M172.998,24.536h4.875v0.732h-0.134c-1.503,0-1.73,0.657-1.73,1.562v4.681c0,4.195-3.045,4.982-5.282,4.982
			c-3.387,0-5.53-1.464-5.53-4.342v-5.604c0-0.942-0.262-1.279-1.316-1.279h-0.32v-0.732h5.887v0.732h-0.316
			c-0.795,0-1.336,0.356-1.336,1.279v5.604c0,2.294,1.688,3.084,3.399,3.084c2.466,0,3.69-1.39,3.69-3.46v-4.569
			c0-1.335-0.378-1.938-1.545-1.938h-0.341V24.536z"/>
		<path d="M180.86,34.146c0,0.696,0.316,0.993,0.863,0.993c0.45,0,0.883-0.28,1.429-0.938l0.265,0.526
			c-0.564,1.015-1.693,1.711-2.729,1.711c-1.276,0-2.128-0.717-2.128-2.332v-4.511h-0.994v-0.493
			c1.128-0.468,2.411-1.842,2.747-2.894h0.547v2.351h2.46l-0.28,1.036h-2.18V34.146z"/>
		<path d="M189.51,36.231h-5.23v-0.601h0.132c0.772,0,1.053-0.338,1.053-1.314V31.25c0-0.846-0.111-1.036-0.675-1.261l-0.51-0.209
			v-0.468l3.084-1.166h0.397v2.104h0.037c0.694-1.354,0.996-1.898,1.637-1.898c0.129,0,0.282,0.02,0.374,0.056l1.485,0.547
			c-0.225,0.791-0.525,1.464-0.897,1.992c-0.588-0.227-1.282-0.47-1.529-0.47c-0.375,0-0.691,0.265-1.106,0.846v3.048
			c0,0.904,0.282,1.26,1.261,1.26h0.488V36.231z"/>
		<path d="M199.475,34.051c-1.049,1.482-2.574,2.388-4.023,2.388c-2.05,0-3.44-1.579-3.44-3.854c0-2.482,1.677-4.231,4.022-4.231
			c1,0,1.79,0.32,2.371,0.903c1.11,1.108,0.585,2.162,1.243,2.501v0.545h-5.21c0.15,1.562,1.202,2.745,2.313,2.745
			c0.693,0,1.371-0.393,2.296-1.355L199.475,34.051z M197.052,31.57c-0.019-1.449-0.526-2.332-1.338-2.332
			c-0.77,0-1.463,0.993-1.334,2.332H197.052z"/>
		<path d="M208.56,34.427c-0.865,1.315-2.184,2.012-3.836,2.012c-2.294,0-3.951-1.562-3.951-3.725c0-2.463,2.128-4.361,4.87-4.361
			c1.618,0,2.842,0.677,2.842,1.599c0,0.562-0.375,0.941-0.962,0.941c-1.312,0-1.593-1.675-2.685-1.675
			c-0.941,0-1.584,1.146-1.584,2.838c0,2.032,0.963,3.404,2.353,3.404c0.849,0,1.636-0.431,2.407-1.335L208.56,34.427z"/>
		<path d="M212.639,34.334c0,1.184,0.321,1.297,0.979,1.297h0.188v0.601h-4.761v-0.601h0.269c0.96,0,1.033-0.377,1.033-1.374v-8.218
			c0-0.543-0.096-0.676-0.603-0.846l-0.546-0.188v-0.434l2.991-0.921h0.45v6.129c1.055-0.732,2.405-1.428,3.384-1.428
			c1.378,0,2.054,1.107,2.054,3.327v2.485c0,1.11,0.129,1.466,0.846,1.466h0.185v0.601h-4.438v-0.601h0.151
			c0.789,0,0.96-0.304,0.96-1.374v-2.839c0-1.014-0.471-1.654-1.222-1.654c-0.511,0-1.261,0.28-1.92,0.714V34.334z"/>
		<path d="M223.21,34.146c0,0.696,0.319,0.993,0.863,0.993c0.452,0,0.882-0.28,1.431-0.938l0.264,0.526
			c-0.565,1.015-1.694,1.711-2.729,1.711c-1.278,0-2.125-0.717-2.125-2.332v-4.511h-0.995v-0.493
			c1.129-0.468,2.407-1.842,2.743-2.894h0.548v2.351h2.459l-0.276,1.036h-2.183V34.146z"/>
		<rect x="-43.847" y="-34.409" fill="none" width="323.149" height="127.56"/>
		<g>
			<g>
				<g>
					<circle fill="none" cx="27.66" cy="30.791" r="40.405"/>
				</g>
				<g>
					<g>
						<g>
							<g>
								<defs>
									<polygon id="SVGID_1_" points="23.466,4.763 23.977,4.108 24.843,4.003 25.497,4.517 29.817,4.517 30.472,4.003 
										31.336,4.108 31.849,4.762 36.045,5.797 36.803,5.455 37.617,5.764 37.958,6.523 41.78,8.527 42.597,8.379 43.313,8.871 
										43.463,9.691 46.699,12.555 47.527,12.607 48.103,13.258 48.054,14.088 50.505,17.639 51.299,17.887 51.706,18.658 
										51.458,19.451 52.991,23.492 53.704,23.922 53.911,24.768 53.482,25.479 54,29.768 54.588,30.355 54.588,31.229 54,31.814 
										53.482,36.1 53.913,36.811 53.706,37.658 52.993,38.086 51.46,42.127 51.708,42.92 51.301,43.693 50.509,43.939 
										48.054,47.494 48.103,48.326 47.527,48.977 46.699,49.025 43.467,51.889 43.317,52.707 42.602,53.203 41.784,53.051 
										37.957,55.059 37.617,55.818 36.803,56.127 36.044,55.785 31.854,56.82 31.341,57.475 30.476,57.578 29.823,57.064 
										25.501,57.064 24.847,57.578 23.982,57.475 23.47,56.82 19.274,55.785 18.517,56.127 17.703,55.818 17.36,55.059 
										13.539,53.055 12.722,53.205 12.004,52.709 11.855,51.891 8.62,49.025 7.791,48.977 7.213,48.326 7.262,47.494 
										4.811,43.945 4.017,43.697 3.612,42.926 3.859,42.131 2.327,38.09 1.616,37.662 1.407,36.814 1.836,36.105 1.315,31.814 
										0.728,31.229 0.728,30.355 1.315,29.768 1.835,25.484 1.405,24.771 1.614,23.926 2.325,23.496 3.857,19.455 3.61,18.662 
										4.015,17.891 4.808,17.643 7.263,14.088 7.213,13.258 7.791,12.607 8.62,12.555 11.851,9.693 12,8.875 12.718,8.381 
										13.535,8.531 17.361,6.523 17.703,5.764 18.517,5.455 19.274,5.797 									"/>
								</defs>
								<use xlink:href="#SVGID_1_"  overflow="visible" fill="#FFD400"/>
								<clipPath id="SVGID_2_">
									<use xlink:href="#SVGID_1_"  overflow="visible"/>
								</clipPath>
								<g clip-path="url(#SVGID_2_)">
									<path fill="#FFFFFF" stroke="#FFFFFF" stroke-width="0.4" d="M32.305,7.31c0.21,0.127,0.561,0.311,0.827,0.374
										c0.303,0.074,0.637,0.094,0.724-0.26c0.084-0.346-0.347-0.485-0.753-0.723c-0.407-0.238-0.795-0.574-0.619-1.299
										c0.199-0.806,1.102-0.982,1.811-0.808c0.417,0.104,0.784,0.294,1.132,0.536l-0.445,0.625
										c-0.227-0.153-0.553-0.301-0.752-0.351c-0.467-0.114-0.681,0.012-0.739,0.25c-0.037,0.151,0.04,0.308,0.451,0.506
										c0.906,0.451,1.071,0.899,0.943,1.426c-0.227,0.924-1.056,1.096-1.889,0.891c-0.39-0.094-0.775-0.281-1.113-0.496
										L32.305,7.31z"/>
									<path fill="#FFFFFF" stroke="#FFFFFF" stroke-width="0.4" d="M40.23,6.847c1.16,0.609,1.413,1.78,0.894,2.772
										c-0.522,0.994-1.63,1.449-2.79,0.842c-1.165-0.611-1.419-1.783-0.898-2.777C37.957,6.692,39.066,6.236,40.23,6.847z
										 M38.702,9.746c0.512,0.27,1.11,0.141,1.502-0.607c0.394-0.752,0.161-1.315-0.353-1.584
										c-0.508-0.268-1.103-0.14-1.497,0.611C37.961,8.916,38.193,9.48,38.702,9.746z"/>
									<path fill="#FFFFFF" stroke="#FFFFFF" stroke-width="0.4" d="M44.692,9.732l-2.505,3.072
										c0.658,0.533,1.285,1.098,1.88,1.699l0.606-0.602c-0.392-0.395-0.798-0.775-1.217-1.145l2.04-2.346"/>
									<path fill="#FFFFFF" stroke="#FFFFFF" stroke-width="0.4" d="M53.17,21.689l-3.75,1.332
										c-0.1-0.281-0.214-0.578-0.329-0.859l3.702-1.479"/>
									<path fill="#FFFFFF" stroke="#FFFFFF" stroke-width="0.4" d="M54.652,28.561l-3.066-0.619l-0.002-0.01l2.838-1.293
										l-0.18-1.041l-3.707,1.934c0.054,0.361,0.093,0.719,0.128,1.08l4.05,0.953"/>
									<path fill="#FFFFFF" stroke="#FFFFFF" stroke-width="0.4" d="M51.529,32.582c-0.102,0.225-0.239,0.594-0.271,0.865
										c-0.037,0.311-0.018,0.645,0.344,0.688c0.354,0.043,0.441-0.402,0.627-0.836c0.188-0.43,0.474-0.857,1.218-0.768
										c0.823,0.098,1.106,0.975,1.019,1.699c-0.051,0.43-0.199,0.812-0.395,1.189l-0.676-0.367
										c0.125-0.242,0.234-0.584,0.258-0.791c0.057-0.475-0.095-0.674-0.336-0.701c-0.155-0.02-0.302,0.074-0.45,0.51
										c-0.34,0.951-0.764,1.17-1.3,1.105c-0.945-0.113-1.216-0.916-1.114-1.768c0.048-0.398,0.186-0.803,0.359-1.162
										L51.529,32.582z"/>
									<path fill="#FFFFFF" stroke="#FFFFFF" stroke-width="0.4" d="M52.39,41.846l-0.917-0.408
										c0.134-0.297,0.264-0.604,0.385-0.91l-2.761-1.115c0.113-0.281,0.224-0.58,0.323-0.861l2.808,1.006
										c0.107-0.305,0.213-0.611,0.31-0.918l0.95,0.299"/>
									<path fill="#FFFFFF" stroke="#FFFFFF" stroke-width="0.4" d="M49.631,46.623l-3.224-2.332
										c0.175-0.244,0.355-0.51,0.521-0.76l3.318,2.207"/>
									<path fill="#FFFFFF" stroke="#FFFFFF" stroke-width="0.4" d="M44.414,52.07l-0.621-0.781
										c0.258-0.205,0.514-0.412,0.764-0.627l-1.926-2.273c0.231-0.195,0.467-0.408,0.688-0.611l2.015,2.195
										c0.24-0.219,0.475-0.441,0.7-0.67l0.703,0.711"/>
									<path fill="#FFFFFF" stroke="#FFFFFF" stroke-width="0.4" d="M39.759,55.029l-1.777-3.57
										c0.27-0.137,0.55-0.283,0.814-0.432l1.916,3.498"/>
									<path fill="#FFFFFF" stroke="#FFFFFF" stroke-width="0.4" d="M32.182,57.5l-0.687-3.918
										c0.779-0.131,1.553-0.303,2.315-0.516l0.293,1.008c0.415-0.115,0.826-0.244,1.235-0.383l0.202-0.777l0.599,1.346
										l-0.784,2.504L32.182,57.5z"/>
									<path fill="#FFFFFF" stroke="#FFFFFF" stroke-width="0.4" d="M20.674,56.963l1.035-3.848
										c0.292,0.078,0.603,0.15,0.898,0.217l-0.883,3.891"/>
									<path fill="#FFFFFF" stroke="#FFFFFF" stroke-width="0.4" d="M16.177,55.326l1.699-3.598
										c-0.767-0.359-1.512-0.758-2.235-1.197l-0.443,0.73c0.475,0.289,0.961,0.561,1.456,0.816l-1.435,2.779"/>
									<path fill="#FFFFFF" stroke="#FFFFFF" stroke-width="0.4" d="M10.642,51.859l2.504-3.082
										c-0.658-0.531-1.287-1.098-1.883-1.699l-0.605,0.604c0.393,0.396,0.799,0.775,1.218,1.143l-2.045,2.338"/>
									<path fill="#FFFFFF" stroke="#FFFFFF" stroke-width="0.4" d="M4.286,44.475l4.028-1.043
										c0.198,0.303,0.403,0.602,0.615,0.895l-2.379,3.43l-0.647-0.832l1.912-2.461l-0.006-0.008L4.81,45.336"/>
									<path fill="#FFFFFF" stroke="#FFFFFF" stroke-width="0.4" d="M5.699,40.322c-0.015-0.246-0.064-0.641-0.162-0.895
										c-0.111-0.293-0.286-0.578-0.624-0.449C4.58,39.105,4.71,39.541,4.746,40.01c0.036,0.471-0.02,0.98-0.717,1.246
										c-0.776,0.297-1.434-0.348-1.694-1.027c-0.154-0.402-0.203-0.812-0.203-1.238l0.768,0.014
										c0.003,0.271,0.065,0.623,0.14,0.818c0.17,0.447,0.396,0.553,0.625,0.463c0.146-0.055,0.23-0.205,0.16-0.658
										c-0.144-1.002,0.13-1.391,0.636-1.584c0.891-0.34,1.5,0.242,1.808,1.045c0.144,0.375,0.209,0.797,0.225,1.197L5.699,40.322
										z"/>
									<path fill="#FFFFFF" stroke="#FFFFFF" stroke-width="0.4" d="M0.632,32.508l0.99-0.062
										c0.021,0.326,0.049,0.656,0.083,0.986l2.963-0.299c0.032,0.299,0.072,0.617,0.115,0.914l-2.953,0.416
										c0.045,0.318,0.097,0.639,0.154,0.955L1,35.596"/>
									<path fill="#FFFFFF" stroke="#FFFFFF" stroke-width="0.4" d="M5.002,26.27c-0.086,0.354-0.14,0.688-0.189,1.033
										c0,0-0.612,0.166-0.897,0.271c-0.347,0.125-0.671,0.33-0.72,0.596c-0.011,0.053-0.013,0.115-0.017,0.148l1.494,0.146
										c-0.03,0.305-0.055,0.609-0.074,0.916l-3.83-0.219c0.033-0.545,0.083-1.084,0.147-1.625
										c0.093-0.768,0.47-1.398,1.168-1.348c0.572,0.039,0.934,0.426,0.946,1.039l0.019,0.004
										c0.149-0.176,0.283-0.244,0.524-0.381C3.952,26.633,5.002,26.27,5.002,26.27z"/>
									<path fill="#FFFFFF" stroke="#FFFFFF" stroke-width="0.4" d="M2.538,20.648l4.303,0.117
										C6.687,21.084,6.54,21.41,6.4,21.734l-0.906-0.041c-0.171,0.416-0.331,0.838-0.479,1.266l0.707,0.57
										c-0.108,0.324-0.208,0.652-0.301,0.984l-3.259-2.877"/>
									<path fill="#FFFFFF" stroke="#FFFFFF" stroke-width="0.4" d="M9.169,11l2.908,0.973l-1.68-2.059l0.791-0.623l2.372,3.191
										c-0.271,0.209-0.538,0.424-0.799,0.645l-2.806-0.928l1.772,1.854c-0.202,0.193-0.399,0.387-0.594,0.588l-2.847-2.775"/>
									<path fill="#FFFFFF" stroke="#FFFFFF" stroke-width="0.4" d="M15.088,6.847c1.16-0.609,2.268-0.153,2.79,0.839
										c0.521,0.994,0.269,2.164-0.893,2.775c-1.165,0.609-2.273,0.154-2.794-0.84C13.67,8.629,13.924,7.458,15.088,6.847z
										 M16.608,9.752c0.513-0.271,0.746-0.834,0.352-1.584c-0.395-0.75-0.99-0.879-1.503-0.607
										c-0.508,0.266-0.742,0.83-0.348,1.58C15.502,9.889,16.099,10.018,16.608,9.752z"/>
									<path fill="#FFFFFF" stroke="#FFFFFF" stroke-width="0.4" d="M20.857,7.841c0.245,0.013,0.641,0.013,0.906-0.052
										c0.303-0.076,0.607-0.215,0.521-0.568c-0.087-0.346-0.534-0.27-1.004-0.29C20.81,6.911,20.31,6.793,20.13,6.068
										c-0.201-0.806,0.52-1.38,1.227-1.558c0.417-0.103,0.831-0.103,1.251-0.052l-0.104,0.761
										c-0.272-0.029-0.629-0.01-0.829,0.04c-0.466,0.116-0.598,0.327-0.539,0.564c0.037,0.151,0.179,0.254,0.634,0.24
										c1.011-0.022,1.366,0.297,1.497,0.823c0.23,0.925-0.423,1.462-1.256,1.669c-0.39,0.096-0.818,0.109-1.216,0.076
										L20.857,7.841z"/>
								</g>
							</g>
						</g>
						<circle fill="#FFFFFF" stroke="#FFFFFF" stroke-width="0.4" cx="27.66" cy="5.812" r="0.973"/>
						<circle fill="#FFFFFF" stroke="#FFFFFF" stroke-width="0.4" cx="48.22" cy="16.606" r="0.972"/>
						<circle fill="#FFFFFF" stroke="#FFFFFF" stroke-width="0.4" cx="27.66" cy="55.771" r="0.974"/>
						<circle fill="#FFFFFF" stroke="#FFFFFF" stroke-width="0.4" cx="7.097" cy="16.606" r="0.972"/>
						<polyline fill="#FFD400" points="30.239,41.252 36.803,56.127 37.617,55.818 						"/>
						<polyline fill="#FFD400" points="17.171,26.82 1.72,23.873 1.614,23.926 1.405,24.771 						"/>
						<polyline fill="#FFD400" points="4.015,17.891 3.61,18.662 3.663,18.795 17.171,26.82 						"/>
					</g>
					<g>
						<defs>
							<circle id="SVGID_3_" cx="27.66" cy="30.791" r="26.934"/>
						</defs>
						<clipPath id="SVGID_4_">
							<use xlink:href="#SVGID_3_"  overflow="visible"/>
						</clipPath>
						<polyline clip-path="url(#SVGID_4_)" points="24.803,3.78 27.66,20.018 30.516,3.78 						"/>
						<polyline clip-path="url(#SVGID_4_)" points="31.353,3.881 30.239,20.33 36.899,5.249 						"/>
						<polyline clip-path="url(#SVGID_4_)" points="37.681,5.545 32.666,21.252 42.741,8.201 						"/>
						<polyline clip-path="url(#SVGID_4_)" points="43.433,8.68 34.804,22.727 47.708,12.469 						"/>
						<polyline clip-path="url(#SVGID_4_)" points="48.264,13.096 36.526,24.672 51.51,17.797 						"/>
						<polyline clip-path="url(#SVGID_4_)" points="51.9,18.543 37.733,26.969 53.926,23.883 						"/>
						<polyline clip-path="url(#SVGID_4_)" points="54.129,24.701 38.355,29.494 54.817,30.371 						"/>
						<polyline clip-path="url(#SVGID_4_)" points="54.817,31.211 38.355,32.09 54.129,36.883 						"/>
						<polyline clip-path="url(#SVGID_4_)" points="53.926,37.697 37.733,34.611 51.9,43.041 						"/>
						<polyline clip-path="url(#SVGID_4_)" points="51.51,43.787 36.526,36.912 48.264,48.486 						"/>
						<polyline clip-path="url(#SVGID_4_)" points="47.708,49.115 34.804,38.854 43.433,52.902 						"/>
						<polyline clip-path="url(#SVGID_4_)" points="42.741,53.383 32.666,40.332 37.681,56.037 						"/>
						<polyline clip-path="url(#SVGID_4_)" points="30.516,57.801 27.66,41.564 24.803,57.801 						"/>
						<polyline clip-path="url(#SVGID_4_)" points="23.966,57.701 25.08,41.252 18.42,56.332 						"/>
						<polyline clip-path="url(#SVGID_4_)" points="17.637,56.037 22.653,40.332 12.579,53.383 						"/>
						<polyline clip-path="url(#SVGID_4_)" points="11.885,52.902 20.515,38.854 7.609,49.115 						"/>
						<polyline clip-path="url(#SVGID_4_)" points="7.054,48.486 18.793,36.912 3.808,43.787 						"/>
						<polyline clip-path="url(#SVGID_4_)" points="3.417,43.041 17.585,34.611 1.39,37.697 						"/>
						<polyline clip-path="url(#SVGID_4_)" points="1.189,36.883 16.964,32.09 0.5,31.211 						"/>
						<polyline clip-path="url(#SVGID_4_)" points="0.5,30.371 16.964,29.494 1.189,24.701 						"/>
						<polyline clip-path="url(#SVGID_4_)" points="1.39,23.883 17.585,26.969 3.417,18.543 						"/>
						<polyline clip-path="url(#SVGID_4_)" points="3.808,17.797 18.793,24.672 7.054,13.096 						"/>
						<polyline clip-path="url(#SVGID_4_)" points="7.609,12.469 20.515,22.727 11.885,8.68 						"/>
						<polyline clip-path="url(#SVGID_4_)" points="12.579,8.201 22.653,21.252 17.637,5.545 						"/>
						<polyline clip-path="url(#SVGID_4_)" points="18.42,5.249 25.08,20.33 23.966,3.881 						"/>
						<path clip-path="url(#SVGID_4_)" fill="#FFFFFF" d="M44.692,9.732l-2.505,3.072c0.658,0.533,1.285,1.098,1.88,1.699
							l0.606-0.602c-0.392-0.395-0.798-0.775-1.217-1.145l2.04-2.346"/>
						<path clip-path="url(#SVGID_4_)" fill="#FFFFFF" d="M53.17,21.689l-3.75,1.332c-0.1-0.281-0.214-0.578-0.329-0.859
							l3.702-1.479"/>
						<path clip-path="url(#SVGID_4_)" fill="#FFFFFF" d="M54.652,28.561l-3.066-0.619l-0.002-0.01l2.838-1.293l-0.18-1.041
							l-3.707,1.934c0.054,0.361,0.093,0.719,0.128,1.08l4.05,0.953"/>
						<path clip-path="url(#SVGID_4_)" fill="#FFFFFF" d="M52.39,41.846l-0.917-0.408c0.134-0.297,0.264-0.604,0.385-0.91
							l-2.761-1.115c0.113-0.281,0.224-0.58,0.323-0.861l2.808,1.006c0.107-0.305,0.213-0.611,0.31-0.918l0.95,0.299"/>
						<path clip-path="url(#SVGID_4_)" fill="#FFFFFF" d="M49.631,46.623l-3.224-2.332c0.175-0.244,0.355-0.51,0.521-0.76
							l3.318,2.207"/>
						<path clip-path="url(#SVGID_4_)" fill="#FFFFFF" d="M44.414,52.07l-0.621-0.781c0.258-0.205,0.514-0.412,0.764-0.627
							l-1.926-2.273c0.231-0.195,0.467-0.408,0.688-0.611l2.015,2.195c0.24-0.219,0.475-0.441,0.7-0.67l0.703,0.711"/>
						<path clip-path="url(#SVGID_4_)" fill="#FFFFFF" d="M39.759,55.029l-1.777-3.57c0.27-0.137,0.55-0.283,0.814-0.432
							l1.916,3.498"/>
						<g clip-path="url(#SVGID_4_)">
							<g>
								<defs>
									<polyline id="SVGID_5_" points="36.899,56.332 30.239,41.252 31.353,57.701 									"/>
								</defs>
								<use xlink:href="#SVGID_5_"  overflow="visible"/>
								<clipPath id="SVGID_6_">
									<use xlink:href="#SVGID_5_"  overflow="visible"/>
								</clipPath>
								<path clip-path="url(#SVGID_6_)" fill="#FFFFFF" d="M35.356,56.764l0.784-2.504l-0.599-1.346l-0.202,0.777
									c-0.409,0.139-0.82,0.268-1.235,0.383l-0.293-1.008c-0.763,0.213-1.536,0.385-2.315,0.516l0.141,0.842
									c0.478-0.08,0.955-0.174,1.486-0.299l0.167,0.664c-0.5,0.115-0.941,0.205-1.384,0.283l0.125,0.758
									c0.467-0.08,0.919-0.174,1.443-0.293l0.163,0.648c-0.579,0.135-1.097,0.238-1.616,0.326l0.161,0.988 M34.666,56.172
									l-0.369-1.352c0.266-0.074,0.563-0.162,0.839-0.248l-0.422,1.588L34.666,56.172z"/>
							</g>
						</g>
						<path clip-path="url(#SVGID_4_)" fill="#FFFFFF" d="M20.674,56.963l1.035-3.848c0.292,0.078,0.603,0.15,0.898,0.217
							l-0.883,3.891"/>
						<path clip-path="url(#SVGID_4_)" fill="#FFFFFF" d="M16.177,55.326l1.699-3.598c-0.767-0.359-1.512-0.758-2.235-1.197
							l-0.443,0.73c0.475,0.289,0.961,0.561,1.456,0.816l-1.435,2.779"/>
						<path clip-path="url(#SVGID_4_)" fill="#FFFFFF" d="M10.642,51.859l2.504-3.082c-0.658-0.531-1.287-1.098-1.883-1.699
							l-0.605,0.604c0.393,0.396,0.799,0.775,1.218,1.143l-2.045,2.338"/>
						<path clip-path="url(#SVGID_4_)" fill="#FFFFFF" d="M4.286,44.475l4.028-1.043c0.198,0.303,0.403,0.602,0.615,0.895
							l-2.379,3.43l-0.647-0.832l1.912-2.461l-0.006-0.008L4.81,45.336"/>
						<path clip-path="url(#SVGID_4_)" fill="#FFFFFF" d="M0.632,32.508l0.99-0.062c0.021,0.326,0.049,0.656,0.083,0.986
							l2.963-0.299c0.032,0.299,0.072,0.617,0.115,0.914l-2.953,0.416c0.045,0.318,0.097,0.639,0.154,0.955L1,35.596"/>
						<path clip-path="url(#SVGID_4_)" fill="#FFFFFF" d="M0.744,27.523l0.173,0.014c0.093-0.768,0.47-1.398,1.168-1.348
							c0.572,0.039,0.934,0.426,0.946,1.039l0.019,0.004c0.149-0.176,0.283-0.244,0.524-0.381c0.378-0.219,1.428-0.582,1.428-0.582
							c-0.086,0.354-0.14,0.688-0.189,1.033c0,0-0.612,0.166-0.897,0.271c-0.347,0.125-0.671,0.33-0.72,0.596
							c-0.011,0.053-0.013,0.115-0.017,0.148l1.494,0.146c-0.03,0.305-0.055,0.609-0.074,0.916l-4.014-0.232 M1.581,27.727
							c-0.016,0.145-0.019,0.289-0.036,0.447L2.5,28.27c0.012-0.133,0.031-0.291,0.046-0.43c0.028-0.238-0.02-0.604-0.407-0.646
							C1.824,27.156,1.625,27.326,1.581,27.727z"/>
						<path clip-path="url(#SVGID_4_)" fill="#FFFFFF" d="M2.538,20.648l4.303,0.117C6.687,21.084,6.54,21.41,6.4,21.734
							l-0.906-0.041c-0.171,0.416-0.331,0.838-0.479,1.266l0.707,0.57c-0.108,0.324-0.208,0.652-0.301,0.984l-3.259-2.877
							 M3.151,21.5l1.248,0.959c0.101-0.283,0.208-0.561,0.319-0.842l-1.563-0.129L3.151,21.5z"/>
						<path clip-path="url(#SVGID_4_)" fill="#FFFFFF" d="M9.169,11l2.908,0.973l-1.68-2.059l0.791-0.623l2.372,3.191
							c-0.271,0.209-0.538,0.424-0.799,0.645l-2.806-0.928l1.772,1.854c-0.202,0.193-0.399,0.387-0.594,0.588l-2.847-2.775"/>
						<g clip-path="url(#SVGID_4_)">
							<path fill="#FFFFFF" d="M32.305,7.31c0.21,0.127,0.561,0.311,0.827,0.374c0.303,0.074,0.637,0.094,0.724-0.26
								c0.084-0.346-0.347-0.485-0.753-0.723c-0.407-0.238-0.795-0.574-0.619-1.299c0.199-0.806,1.102-0.982,1.811-0.808
								c0.417,0.104,0.784,0.294,1.132,0.536l-0.445,0.625c-0.227-0.153-0.553-0.301-0.752-0.351
								c-0.467-0.114-0.681,0.012-0.739,0.25c-0.037,0.151,0.04,0.308,0.451,0.506c0.906,0.451,1.071,0.899,0.943,1.426
								c-0.227,0.924-1.056,1.096-1.889,0.891c-0.39-0.094-0.775-0.281-1.113-0.496L32.305,7.31z"/>
							<path fill="#FFFFFF" d="M40.23,6.847c1.16,0.609,1.413,1.78,0.894,2.772c-0.522,0.994-1.63,1.449-2.79,0.842
								c-1.165-0.611-1.419-1.783-0.898-2.777C37.957,6.692,39.066,6.236,40.23,6.847z M38.702,9.746
								c0.512,0.27,1.11,0.141,1.502-0.607c0.394-0.752,0.161-1.315-0.353-1.584c-0.508-0.268-1.103-0.14-1.497,0.611
								C37.961,8.916,38.193,9.48,38.702,9.746z"/>
							<path fill="#FFFFFF" d="M51.529,32.582c-0.102,0.225-0.239,0.594-0.271,0.865c-0.037,0.311-0.018,0.645,0.344,0.688
								c0.354,0.043,0.441-0.402,0.627-0.836c0.188-0.43,0.474-0.857,1.218-0.768c0.823,0.098,1.106,0.975,1.019,1.699
								c-0.051,0.43-0.199,0.812-0.395,1.189l-0.676-0.367c0.125-0.242,0.234-0.584,0.258-0.791
								c0.057-0.475-0.095-0.674-0.336-0.701c-0.155-0.02-0.302,0.074-0.45,0.51c-0.34,0.951-0.764,1.17-1.3,1.105
								c-0.945-0.113-1.216-0.916-1.114-1.768c0.048-0.398,0.186-0.803,0.359-1.162L51.529,32.582z"/>
							<path fill="#FFFFFF" d="M5.699,40.322c-0.015-0.246-0.064-0.641-0.162-0.895c-0.111-0.293-0.286-0.578-0.624-0.449
								C4.58,39.105,4.71,39.541,4.746,40.01c0.036,0.471-0.02,0.98-0.717,1.246c-0.776,0.297-1.434-0.348-1.694-1.027
								c-0.154-0.402-0.203-0.812-0.203-1.238l0.768,0.014c0.003,0.271,0.065,0.623,0.14,0.818c0.17,0.447,0.396,0.553,0.625,0.463
								c0.146-0.055,0.23-0.205,0.16-0.658c-0.144-1.002,0.13-1.391,0.636-1.584c0.891-0.34,1.5,0.242,1.808,1.045
								c0.144,0.375,0.209,0.797,0.225,1.197L5.699,40.322z"/>
							<path fill="#FFFFFF" d="M15.088,6.847c1.16-0.609,2.268-0.153,2.79,0.839c0.521,0.994,0.269,2.164-0.893,2.775
								c-1.165,0.609-2.273,0.154-2.794-0.84C13.67,8.629,13.924,7.458,15.088,6.847z M16.608,9.752
								c0.513-0.271,0.746-0.834,0.352-1.584c-0.395-0.75-0.99-0.879-1.503-0.607c-0.508,0.266-0.742,0.83-0.348,1.58
								C15.502,9.889,16.099,10.018,16.608,9.752z"/>
							<path fill="#FFFFFF" d="M20.857,7.841c0.245,0.013,0.641,0.013,0.906-0.052c0.303-0.076,0.607-0.215,0.521-0.568
								c-0.087-0.346-0.534-0.27-1.004-0.29C20.81,6.911,20.31,6.793,20.13,6.068c-0.201-0.806,0.52-1.38,1.227-1.558
								c0.417-0.103,0.831-0.103,1.251-0.052l-0.104,0.761c-0.272-0.029-0.629-0.01-0.829,0.04
								c-0.466,0.116-0.598,0.327-0.539,0.564c0.037,0.151,0.179,0.254,0.634,0.24c1.011-0.022,1.366,0.297,1.497,0.823
								c0.23,0.925-0.423,1.462-1.256,1.669c-0.39,0.096-0.818,0.109-1.216,0.076L20.857,7.841z"/>
						</g>
						<g clip-path="url(#SVGID_4_)">
							<circle fill="#FFFFFF" cx="27.66" cy="5.812" r="0.973"/>
							<circle fill="#FFFFFF" cx="48.22" cy="16.606" r="0.972"/>
							<circle fill="#FFFFFF" cx="27.66" cy="55.771" r="0.974"/>
							<circle fill="#FFFFFF" cx="7.097" cy="16.606" r="0.972"/>
						</g>
					</g>
					<path fill="none" d="M27.66,30.791"/>
					<g>
						<g>
							<path fill="#ED1A3B" d="M31.353,34.482c-0.304,0.311-0.725,0.502-1.192,0.502h-0.98c-0.549,0-1.036,0.266-1.34,0.676h-0.361
								c-0.303-0.41-0.792-0.676-1.34-0.676h-0.979c-0.921,0-1.668-0.746-1.668-1.668v-6.695"/>
							<path fill="#FFFFFF" d="M23.491,26.621h8.338v6.695c0,0.457-0.181,0.865-0.476,1.166"/>
						</g>
						<path d="M32.264,33.295c0,1.16-0.942,2.1-2.103,2.1h-0.98c-0.515,0-0.956,0.314-1.145,0.76h-0.752
							c-0.188-0.445-0.629-0.76-1.145-0.76h-0.979c-1.162,0-2.103-0.939-2.103-2.1v-7.109h9.208V33.295z M31.404,27.049h-7.488
							v6.246c0,0.682,0.557,1.24,1.243,1.24h0.979c0.598,0,1.126,0.25,1.508,0.648h0.026c0.383-0.398,0.911-0.648,1.508-0.648h0.98
							c0.687,0,1.243-0.559,1.243-1.24V27.049z"/>
					</g>
				</g>
			</g>
		</g>
	</g>
</g>
</svg>
