<?xml version="1.0" encoding="UTF-8" standalone="yes"?><svg xmlns="http://www.w3.org/2000/svg" xmlns:xlink="http://www.w3.org/1999/xlink" height="2306.25px" style="width:2104px;height:2306px;" version="1.1" viewBox="0 0 2104 2306" width="2104.1667px"><defs/><g><rect fill="#FFFFFF" height="2254.1667" style="stroke: #000000; stroke-width: 4.166666666666667;" width="1010.4167" x="45.8333" y="50"/><text fill="#000000" font-family="CMU Serif" font-size="31.25" font-weight="bold" lengthAdjust="spacingAndGlyphs" textLength="239.5833" x="431.25" y="87.3403">Yoda instance</text><rect fill="#FFFFFF" height="1581.25" style="stroke: #000000; stroke-width: 4.166666666666667;" width="910.4167" x="95.8333" y="358.3333"/><text fill="#000000" font-family="CMU Serif" font-size="31.25" font-weight="bold" lengthAdjust="spacingAndGlyphs" textLength="237.5" x="432.2917" y="395.6736">iRODS ruleset</text><rect fill="#FFFFFF" height="727.0833" style="stroke: #000000; stroke-width: 4.166666666666667;" width="783.3333" x="1106.25" y="1262.5"/><text fill="#000000" font-family="CMU Serif" font-size="31.25" font-weight="bold" lengthAdjust="spacingAndGlyphs" textLength="314.5833" x="1340.625" y="1299.8403">Yoda Public server</text><rect fill="#FFFFFF" height="235.4167" style="stroke: #000000; stroke-width: 4.166666666666667;" width="439.5833" x="1172.9167" y="1379.1667"/><text fill="#000000" font-family="CMU Serif" font-size="31.25" font-weight="bold" lengthAdjust="spacingAndGlyphs" textLength="316.6667" x="1234.375" y="1416.507">Apache webserver</text><path d="M1162.5,1760.4167 C1162.5,1754.1667 1166.6667,1750 1172.9167,1750 C1179.1667,1750 1183.3333,1754.1667 1183.3333,1760.4167 C1183.3333,1754.1667 1187.5,1750 1193.75,1750 C1200,1750 1204.1667,1754.1667 1204.1667,1760.4167 C1204.1667,1754.1667 1208.3333,1750 1214.5833,1750 C1220.8333,1750 1225,1754.1667 1225,1760.4167 C1225,1754.1667 1229.1667,1750 1235.4167,1750 C1241.6667,1750 1245.8333,1754.1667 1245.8333,1760.4167 C1245.8333,1754.1667 1250,1750 1256.25,1750 C1262.5,1750 1266.6667,1754.1667 1266.6667,1760.4167 C1266.6667,1754.1667 1270.8333,1750 1277.0833,1750 C1283.3333,1750 1287.5,1754.1667 1287.5,1760.4167 C1287.5,1754.1667 1291.6667,1750 1297.9167,1750 C1304.1667,1750 1308.3333,1754.1667 1308.3333,1760.4167 C1308.3333,1754.1667 1312.5,1750 1318.75,1750 C1325,1750 1329.1667,1754.1667 1329.1667,1760.4167 C1329.1667,1754.1667 1333.3333,1750 1339.5833,1750 C1345.8333,1750 1350,1754.1667 1350,1760.4167 C1350,1754.1667 1354.1667,1750 1360.4167,1750 C1366.6667,1750 1370.8333,1754.1667 1370.8333,1760.4167 C1370.8333,1754.1667 1375,1750 1381.25,1750 C1387.5,1750 1391.6667,1754.1667 1391.6667,1760.4167 C1391.6667,1754.1667 1395.8333,1750 1402.0833,1750 C1408.3333,1750 1412.5,1754.1667 1412.5,1760.4167 C1412.5,1754.1667 1416.6667,1750 1422.9167,1750 C1429.1667,1750 1433.3333,1754.1667 1433.3333,1760.4167 C1433.3333,1754.1667 1437.5,1750 1443.75,1750 C1450,1750 1454.1667,1754.1667 1454.1667,1760.4167 C1460.4167,1760.4167 1464.5833,1764.5833 1464.5833,1770.8333 C1464.5833,1777.0833 1460.4167,1781.25 1454.1667,1781.25 C1460.4167,1781.25 1464.5833,1785.4167 1464.5833,1791.6667 C1464.5833,1797.9167 1460.4167,1802.0833 1454.1667,1802.0833 C1460.4167,1802.0833 1464.5833,1806.25 1464.5833,1812.5 C1464.5833,1818.75 1460.4167,1822.9167 1454.1667,1822.9167 C1460.4167,1822.9167 1464.5833,1827.0833 1464.5833,1833.3333 C1464.5833,1839.5833 1460.4167,1843.75 1454.1667,1843.75 C1460.4167,1843.75 1464.5833,1847.9167 1464.5833,1854.1667 C1464.5833,1860.4167 1460.4167,1864.5833 1454.1667,1864.5833 C1460.4167,1864.5833 1464.5833,1868.75 1464.5833,1875 C1464.5833,1881.25 1460.4167,1885.4167 1454.1667,1885.4167 C1460.4167,1885.4167 1464.5833,1889.5833 1464.5833,1895.8333 C1464.5833,1902.0833 1460.4167,1906.25 1454.1667,1906.25 C1460.4167,1906.25 1464.5833,1910.4167 1464.5833,1916.6667 C1464.5833,1922.9167 1460.4167,1927.0833 1454.1667,1927.0833 C1454.1667,1933.3333 1447.9167,1937.5 1443.75,1937.5 C1437.5,1937.5 1433.3333,1933.3333 1433.3333,1927.0833 C1433.3333,1933.3333 1427.0833,1937.5 1422.9167,1937.5 C1416.6667,1937.5 1412.5,1933.3333 1412.5,1927.0833 C1412.5,1933.3333 1406.25,1937.5 1402.0833,1937.5 C1395.8333,1937.5 1391.6667,1933.3333 1391.6667,1927.0833 C1391.6667,1933.3333 1385.4167,1937.5 1381.25,1937.5 C1375,1937.5 1370.8333,1933.3333 1370.8333,1927.0833 C1370.8333,1933.3333 1364.5833,1937.5 1360.4167,1937.5 C1354.1667,1937.5 1350,1933.3333 1350,1927.0833 C1350,1933.3333 1343.75,1937.5 1339.5833,1937.5 C1333.3333,1937.5 1329.1667,1933.3333 1329.1667,1927.0833 C1329.1667,1933.3333 1322.9167,1937.5 1318.75,1937.5 C1312.5,1937.5 1308.3333,1933.3333 1308.3333,1927.0833 C1308.3333,1933.3333 1302.0833,1937.5 1297.9167,1937.5 C1291.6667,1937.5 1287.5,1933.3333 1287.5,1927.0833 C1287.5,1933.3333 1281.25,1937.5 1277.0833,1937.5 C1270.8333,1937.5 1266.6667,1933.3333 1266.6667,1927.0833 C1266.6667,1933.3333 1260.4167,1937.5 1256.25,1937.5 C1250,1937.5 1245.8333,1933.3333 1245.8333,1927.0833 C1245.8333,1933.3333 1239.5833,1937.5 1235.4167,1937.5 C1229.1667,1937.5 1225,1933.3333 1225,1927.0833 C1225,1933.3333 1218.75,1937.5 1214.5833,1937.5 C1208.3333,1937.5 1204.1667,1933.3333 1204.1667,1927.0833 C1204.1667,1933.3333 1197.9167,1937.5 1193.75,1937.5 C1187.5,1937.5 1183.3333,1933.3333 1183.3333,1927.0833 C1183.3333,1933.3333 1177.0833,1937.5 1172.9167,1937.5 C1166.6667,1937.5 1162.5,1933.3333 1162.5,1927.0833 C1156.25,1927.0833 1152.0833,1922.9167 1152.0833,1916.6667 C1152.0833,1910.4167 1156.25,1906.25 1162.5,1906.25 C1156.25,1906.25 1152.0833,1902.0833 1152.0833,1895.8333 C1152.0833,1889.5833 1156.25,1885.4167 1162.5,1885.4167 C1156.25,1885.4167 1152.0833,1881.25 1152.0833,1875 C1152.0833,1868.75 1156.25,1864.5833 1162.5,1864.5833 C1156.25,1864.5833 1152.0833,1860.4167 1152.0833,1854.1667 C1152.0833,1847.9167 1156.25,1843.75 1162.5,1843.75 C1156.25,1843.75 1152.0833,1839.5833 1152.0833,1833.3333 C1152.0833,1827.0833 1156.25,1822.9167 1162.5,1822.9167 C1156.25,1822.9167 1152.0833,1818.75 1152.0833,1812.5 C1152.0833,1806.25 1156.25,1802.0833 1162.5,1802.0833 C1156.25,1802.0833 1152.0833,1797.9167 1152.0833,1791.6667 C1152.0833,1785.4167 1156.25,1781.25 1162.5,1781.25 C1156.25,1781.25 1152.0833,1777.0833 1152.0833,1770.8333 C1152.0833,1764.5833 1156.25,1760.4167 1162.5,1760.4167 " fill="#FFFFFF" style="stroke: #000000; stroke-width: 4.166666666666667;"/><path d="M1520.8333,1760.4167 C1520.8333,1754.1667 1525,1750 1531.25,1750 C1537.5,1750 1541.6667,1754.1667 1541.6667,1760.4167 C1541.6667,1754.1667 1545.8333,1750 1552.0833,1750 C1558.3333,1750 1562.5,1754.1667 1562.5,1760.4167 C1562.5,1754.1667 1566.6667,1750 1572.9167,1750 C1579.1667,1750 1583.3333,1754.1667 1583.3333,1760.4167 C1583.3333,1754.1667 1587.5,1750 1593.75,1750 C1600,1750 1604.1667,1754.1667 1604.1667,1760.4167 C1604.1667,1754.1667 1608.3333,1750 1614.5833,1750 C1620.8333,1750 1625,1754.1667 1625,1760.4167 C1625,1754.1667 1629.1667,1750 1635.4167,1750 C1641.6667,1750 1645.8333,1754.1667 1645.8333,1760.4167 C1645.8333,1754.1667 1650,1750 1656.25,1750 C1662.5,1750 1666.6667,1754.1667 1666.6667,1760.4167 C1666.6667,1754.1667 1670.8333,1750 1677.0833,1750 C1683.3333,1750 1687.5,1754.1667 1687.5,1760.4167 C1687.5,1754.1667 1691.6667,1750 1697.9167,1750 C1704.1667,1750 1708.3333,1754.1667 1708.3333,1760.4167 C1708.3333,1754.1667 1712.5,1750 1718.75,1750 C1725,1750 1729.1667,1754.1667 1729.1667,1760.4167 C1729.1667,1754.1667 1733.3333,1750 1739.5833,1750 C1745.8333,1750 1750,1754.1667 1750,1760.4167 C1750,1754.1667 1754.1667,1750 1760.4167,1750 C1766.6667,1750 1770.8333,1754.1667 1770.8333,1760.4167 C1770.8333,1754.1667 1775,1750 1781.25,1750 C1787.5,1750 1791.6667,1754.1667 1791.6667,1760.4167 C1791.6667,1754.1667 1795.8333,1750 1802.0833,1750 C1808.3333,1750 1812.5,1754.1667 1812.5,1760.4167 C1812.5,1754.1667 1816.6667,1750 1822.9167,1750 C1829.1667,1750 1833.3333,1754.1667 1833.3333,1760.4167 C1839.5833,1760.4167 1843.75,1764.5833 1843.75,1770.8333 C1843.75,1777.0833 1839.5833,1781.25 1833.3333,1781.25 C1839.5833,1781.25 1843.75,1785.4167 1843.75,1791.6667 C1843.75,1797.9167 1839.5833,1802.0833 1833.3333,1802.0833 C1839.5833,1802.0833 1843.75,1806.25 1843.75,1812.5 C1843.75,1818.75 1839.5833,1822.9167 1833.3333,1822.9167 C1839.5833,1822.9167 1843.75,1827.0833 1843.75,1833.3333 C1843.75,1839.5833 1839.5833,1843.75 1833.3333,1843.75 C1839.5833,1843.75 1843.75,1847.9167 1843.75,1854.1667 C1843.75,1860.4167 1839.5833,1864.5833 1833.3333,1864.5833 C1839.5833,1864.5833 1843.75,1868.75 1843.75,1875 C1843.75,1881.25 1839.5833,1885.4167 1833.3333,1885.4167 C1839.5833,1885.4167 1843.75,1889.5833 1843.75,1895.8333 C1843.75,1902.0833 1839.5833,1906.25 1833.3333,1906.25 C1839.5833,1906.25 1843.75,1910.4167 1843.75,1916.6667 C1843.75,1922.9167 1839.5833,1927.0833 1833.3333,1927.0833 C1833.3333,1933.3333 1827.0833,1937.5 1822.9167,1937.5 C1816.6667,1937.5 1812.5,1933.3333 1812.5,1927.0833 C1812.5,1933.3333 1806.25,1937.5 1802.0833,1937.5 C1795.8333,1937.5 1791.6667,1933.3333 1791.6667,1927.0833 C1791.6667,1933.3333 1785.4167,1937.5 1781.25,1937.5 C1775,1937.5 1770.8333,1933.3333 1770.8333,1927.0833 C1770.8333,1933.3333 1764.5833,1937.5 1760.4167,1937.5 C1754.1667,1937.5 1750,1933.3333 1750,1927.0833 C1750,1933.3333 1743.75,1937.5 1739.5833,1937.5 C1733.3333,1937.5 1729.1667,1933.3333 1729.1667,1927.0833 C1729.1667,1933.3333 1722.9167,1937.5 1718.75,1937.5 C1712.5,1937.5 1708.3333,1933.3333 1708.3333,1927.0833 C1708.3333,1933.3333 1702.0833,1937.5 1697.9167,1937.5 C1691.6667,1937.5 1687.5,1933.3333 1687.5,1927.0833 C1687.5,1933.3333 1681.25,1937.5 1677.0833,1937.5 C1670.8333,1937.5 1666.6667,1933.3333 1666.6667,1927.0833 C1666.6667,1933.3333 1660.4167,1937.5 1656.25,1937.5 C1650,1937.5 1645.8333,1933.3333 1645.8333,1927.0833 C1645.8333,1933.3333 1639.5833,1937.5 1635.4167,1937.5 C1629.1667,1937.5 1625,1933.3333 1625,1927.0833 C1625,1933.3333 1618.75,1937.5 1614.5833,1937.5 C1608.3333,1937.5 1604.1667,1933.3333 1604.1667,1927.0833 C1604.1667,1933.3333 1597.9167,1937.5 1593.75,1937.5 C1587.5,1937.5 1583.3333,1933.3333 1583.3333,1927.0833 C1583.3333,1933.3333 1577.0833,1937.5 1572.9167,1937.5 C1566.6667,1937.5 1562.5,1933.3333 1562.5,1927.0833 C1562.5,1933.3333 1556.25,1937.5 1552.0833,1937.5 C1545.8333,1937.5 1541.6667,1933.3333 1541.6667,1927.0833 C1541.6667,1933.3333 1535.4167,1937.5 1531.25,1937.5 C1525,1937.5 1520.8333,1933.3333 1520.8333,1927.0833 C1514.5833,1927.0833 1510.4167,1922.9167 1510.4167,1916.6667 C1510.4167,1910.4167 1514.5833,1906.25 1520.8333,1906.25 C1514.5833,1906.25 1510.4167,1902.0833 1510.4167,1895.8333 C1510.4167,1889.5833 1514.5833,1885.4167 1520.8333,1885.4167 C1514.5833,1885.4167 1510.4167,1881.25 1510.4167,1875 C1510.4167,1868.75 1514.5833,1864.5833 1520.8333,1864.5833 C1514.5833,1864.5833 1510.4167,1860.4167 1510.4167,1854.1667 C1510.4167,1847.9167 1514.5833,1843.75 1520.8333,1843.75 C1514.5833,1843.75 1510.4167,1839.5833 1510.4167,1833.3333 C1510.4167,1827.0833 1514.5833,1822.9167 1520.8333,1822.9167 C1514.5833,1822.9167 1510.4167,1818.75 1510.4167,1812.5 C1510.4167,1806.25 1514.5833,1802.0833 1520.8333,1802.0833 C1514.5833,1802.0833 1510.4167,1797.9167 1510.4167,1791.6667 C1510.4167,1785.4167 1514.5833,1781.25 1520.8333,1781.25 C1514.5833,1781.25 1510.4167,1777.0833 1510.4167,1770.8333 C1510.4167,1764.5833 1514.5833,1760.4167 1520.8333,1760.4167 " fill="#FFFFFF" style="stroke: #000000; stroke-width: 4.166666666666667;"/><rect fill="#FFFFFF" height="202.0833" style="stroke: #000000; stroke-width: 4.166666666666667;" width="470.8333" x="1589.5833" y="2104.1667"/><text fill="#000000" font-family="CMU Serif" font-size="31.25" font-weight="bold" lengthAdjust="spacingAndGlyphs" textLength="429.1667" x="1610.4167" y="2141.507">DataCite Metadata Store</text><ellipse cx="595.8333" cy="152.0833" fill="#FEFECE" rx="16.6667" ry="16.6667" style="stroke: #A80036; stroke-width: 4.166666666666667;"/><text fill="#000000" font-family="CMU Serif" font-size="31.25" lengthAdjust="spacingAndGlyphs" textLength="366.6667" x="412.5" y="204.007">Approved for publication</text><ellipse cx="600" cy="2208.3333" fill="#FEFECE" rx="16.6667" ry="16.6667" style="stroke: #A80036; stroke-width: 4.166666666666667;"/><text fill="#000000" font-family="CMU Serif" font-size="31.25" lengthAdjust="spacingAndGlyphs" textLength="141.6667" x="529.1667" y="2260.257">Published</text><rect fill="#FEFECE" height="86.377" style="stroke: #A80036; stroke-width: 3.125;" width="343.75" x="423.9583" y="441.6667"/><rect fill="#FEFECE" height="10.4167" style="stroke: #A80036; stroke-width: 3.125;" width="20.8333" x="413.5417" y="452.0833"/><rect fill="#FEFECE" height="10.4167" style="stroke: #A80036; stroke-width: 3.125;" width="20.8333" x="413.5417" y="507.2103"/><text fill="#000000" font-family="CMU Serif" font-size="31.25" lengthAdjust="spacingAndGlyphs" textLength="293.75" x="448.9583" y="495.6736">Generate Yoda DOI</text><rect fill="#FEFECE" height="86.377" style="stroke: #A80036; stroke-width: 3.125;" width="408.3333" x="129.1667" y="654.1667"/><rect fill="#FEFECE" height="10.4167" style="stroke: #A80036; stroke-width: 3.125;" width="20.8333" x="118.75" y="664.5833"/><rect fill="#FEFECE" height="10.4167" style="stroke: #A80036; stroke-width: 3.125;" width="20.8333" x="118.75" y="719.7103"/><text fill="#000000" font-family="CMU Serif" font-size="31.25" lengthAdjust="spacingAndGlyphs" textLength="358.3333" x="154.1667" y="708.1736">Generate DataCite XML</text><rect fill="#FEFECE" height="86.377" style="stroke: #A80036; stroke-width: 3.125;" width="341.6667" x="529.1667" y="866.6667"/><rect fill="#FEFECE" height="10.4167" style="stroke: #A80036; stroke-width: 3.125;" width="20.8333" x="518.75" y="877.0833"/><rect fill="#FEFECE" height="10.4167" style="stroke: #A80036; stroke-width: 3.125;" width="20.8333" x="518.75" y="932.2103"/><text fill="#000000" font-family="CMU Serif" font-size="31.25" lengthAdjust="spacingAndGlyphs" textLength="291.6667" x="554.1667" y="920.6736">Send DataCite XML</text><rect fill="#FEFECE" height="86.377" style="stroke: #A80036; stroke-width: 3.125;" width="439.5833" x="530.2083" y="1079.1667"/><rect fill="#FEFECE" height="10.4167" style="stroke: #A80036; stroke-width: 3.125;" width="20.8333" x="519.7917" y="1089.5833"/><rect fill="#FEFECE" height="10.4167" style="stroke: #A80036; stroke-width: 3.125;" width="20.8333" x="519.7917" y="1144.7103"/><text fill="#000000" font-family="CMU Serif" font-size="31.25" lengthAdjust="spacingAndGlyphs" textLength="389.5833" x="555.2083" y="1133.1736">Create landingpage HTML</text><rect fill="#FEFECE" height="86.377" style="stroke: #A80036; stroke-width: 3.125;" width="445.8333" x="527.0833" y="1479.1667"/><rect fill="#FEFECE" height="10.4167" style="stroke: #A80036; stroke-width: 3.125;" width="20.8333" x="516.6667" y="1489.5833"/><rect fill="#FEFECE" height="10.4167" style="stroke: #A80036; stroke-width: 3.125;" width="20.8333" x="516.6667" y="1544.7103"/><text fill="#000000" font-family="CMU Serif" font-size="31.25" lengthAdjust="spacingAndGlyphs" textLength="395.8333" x="552.0833" y="1533.1736">Send Yoda metadata XML</text><rect fill="#FEFECE" height="86.377" style="stroke: #A80036; stroke-width: 3.125;" width="264.5833" x="617.7083" y="1820.8333"/><rect fill="#FEFECE" height="10.4167" style="stroke: #A80036; stroke-width: 3.125;" width="20.8333" x="607.2917" y="1831.25"/><rect fill="#FEFECE" height="10.4167" style="stroke: #A80036; stroke-width: 3.125;" width="20.8333" x="607.2917" y="1886.377"/><text fill="#000000" font-family="CMU Serif" font-size="31.25" lengthAdjust="spacingAndGlyphs" textLength="214.5833" x="642.7083" y="1874.8403">Mint Yoda DOI</text><rect fill="#FFFFFF" height="86.377" style="stroke: #000000; stroke-width: 3.125;" width="297.9167" x="1223.9583" y="1479.1667"/><text fill="#000000" font-family="CMU Serif" font-size="31.25" lengthAdjust="spacingAndGlyphs" textLength="247.9167" x="1248.9583" y="1533.1736">OAI-PMH service</text><rect fill="#FEFECE" height="86.377" style="stroke: #A80036; stroke-width: 3.125;" width="239.5833" x="1190.625" y="1820.8333"/><rect fill="#FEFECE" height="10.4167" style="stroke: #A80036; stroke-width: 3.125;" width="20.8333" x="1180.2083" y="1831.25"/><rect fill="#FEFECE" height="10.4167" style="stroke: #A80036; stroke-width: 3.125;" width="20.8333" x="1180.2083" y="1886.377"/><text fill="#000000" font-family="CMU Serif" font-size="31.25" lengthAdjust="spacingAndGlyphs" textLength="189.5833" x="1215.625" y="1874.8403">XML storage</text><rect fill="#FEFECE" height="86.377" style="stroke: #A80036; stroke-width: 3.125;" width="258.3333" x="1547.9167" y="1820.8333"/><rect fill="#FEFECE" height="10.4167" style="stroke: #A80036; stroke-width: 3.125;" width="20.8333" x="1537.5" y="1831.25"/><rect fill="#FEFECE" height="10.4167" style="stroke: #A80036; stroke-width: 3.125;" width="20.8333" x="1537.5" y="1886.377"/><text fill="#000000" font-family="CMU Serif" font-size="31.25" lengthAdjust="spacingAndGlyphs" textLength="208.3333" x="1572.9167" y="1874.8403">Landingpages</text><rect fill="#FFFFFF" height="86.377" style="stroke: #000000; stroke-width: 3.125;" width="285.4167" x="1682.2917" y="2187.5"/><text fill="#000000" font-family="CMU Serif" font-size="31.25" lengthAdjust="spacingAndGlyphs" textLength="235.4167" x="1707.2917" y="2241.507">DataCite API v2</text><path d="M544.5979,527.1208 C501.3354,561.4563 439.3188,610.6771 393.6625,646.9104 " fill="none" style="stroke: #A80036; stroke-width: 2.0833333333333335;"/><polygon fill="#A80036" points="385.3375,653.5188,405.2049,648.3909,393.497,647.0435,394.8445,635.3357,385.3375,653.5188" style="stroke: #A80036; stroke-width: 2.0833333333333335;"/><path d="M404.9,739.6208 C466.2813,774.4979 554.6896,824.7292 618.7229,861.1125 " fill="none" style="stroke: #A80036; stroke-width: 2.0833333333333335;"/><polygon fill="#A80036" points="627.9875,866.375,615.802,849.8668,618.9307,861.229,607.5685,864.3577,627.9875,866.375" style="stroke: #A80036; stroke-width: 2.0833333333333335;"/><path d="M709.8792,952.6188 C717.8229,985.7188 729.0292,1032.4125 737.5792,1068.0417 " fill="none" style="stroke: #A80036; stroke-width: 2.0833333333333335;"/><polygon fill="#A80036" points="740.1417,1078.7167,743.8676,1058.5393,737.7099,1068.5878,727.6614,1062.4302,740.1417,1078.7167" style="stroke: #A80036; stroke-width: 2.0833333333333335;"/><path d="M689.9354,866.6271 C670.9146,789.7833 629.7208,623.3604 608.7146,538.4979 " fill="none" style="stroke: #A80036; stroke-width: 2.0833333333333335;"/><polygon fill="#A80036" points="606.0104,527.575,602.4272,547.7782,608.5137,537.6864,618.6055,543.7729,606.0104,527.575" style="stroke: #A80036; stroke-width: 2.0833333333333335;"/><text fill="#000000" font-family="CMU Serif" font-size="31.25" lengthAdjust="spacingAndGlyphs" textLength="277.0833" x="664.5833" y="708.1736">DOI already exists</text><path d="M750,1164.8292 C750,1237.3125 750,1388.2292 750,1467.9208 " fill="none" style="stroke: #A80036; stroke-width: 2.0833333333333335;"/><polygon fill="#A80036" points="750,1479.1438,758.3333,1460.3938,750,1468.7271,741.6667,1460.3938,750,1479.1438" style="stroke: #A80036; stroke-width: 2.0833333333333335;"/><path d="M750,1564.6688 C750,1625.9896 750,1742.0333 750,1809.4167 " fill="none" style="stroke: #A80036; stroke-width: 2.0833333333333335;"/><polygon fill="#A80036" points="750,1820.6042,758.3333,1801.8542,750,1810.1875,741.6667,1801.8542,750,1820.6042" style="stroke: #A80036; stroke-width: 2.0833333333333335;"/><path d="M595.8333,214.8333 C595.8333,269.3771 595.8333,368.8979 595.8333,429.9563 " fill="none" style="stroke: #A80036; stroke-width: 2.0833333333333335;"/><polygon fill="#A80036" points="595.8333,440.8896,604.1667,422.1396,595.8333,430.4729,587.5,422.1396,595.8333,440.8896" style="stroke: #A80036; stroke-width: 2.0833333333333335;"/><text fill="#000000" font-family="CMU Serif" font-size="31.25" lengthAdjust="spacingAndGlyphs" textLength="314.5833" x="602.0833" y="312.3403">Wait for delayed rule</text><path d="M733.0854,1906.5042 C705.3333,1973.5667 650.2479,2106.6917 620.3875,2178.8563 " fill="none" style="stroke: #A80036; stroke-width: 2.0833333333333335;"/><polygon fill="#A80036" points="616.1708,2189.046,631.04,2174.907,620.1536,2179.4209,615.6398,2168.5345,616.1708,2189.046" style="stroke: #A80036; stroke-width: 2.0833333333333335;"/><text fill="#000000" font-family="CMU Serif" font-size="31.25" lengthAdjust="spacingAndGlyphs" textLength="410.4167" x="691.6667" y="2058.1736">Datapackage state change</text><path d="M1612.5485,1572.9181 C1612.6256,1573.1124 1612.703,1573.3071 1612.7807,1573.5021 C1612.936,1573.892 1613.0923,1574.2831 1613.2497,1574.6753 C1613.879,1576.2442 1614.5246,1577.8312 1615.1863,1579.4333 C1616.5098,1582.6376 1617.8977,1585.9028 1619.3489,1589.2062 C1622.2514,1595.813 1625.4074,1602.5727 1628.8082,1609.3047 C1635.6099,1622.7686 1643.3911,1636.1214 1652.0833,1647.9167 C1658.6979,1656.8917 1666.1042,1654.4854 1670.8333,1664.5833 C1692.1333,1710.0708 1691.05,1768.1667 1686.2563,1809.4313 " fill="none" style="stroke: #A80036; stroke-width: 2.0833333333333335; stroke-dasharray: 7.0,7.0;"/><polygon fill="#A80036" points="1684.8938,1820.0708,1695.5382,1802.5294,1686.2151,1809.7383,1679.0061,1800.4152,1684.8938,1820.0708" style="stroke: #A80036; stroke-width: 2.0833333333333335;"/><path d="M1344.1792,1564.8229 C1327.0375,1591.7708 1306.9083,1628.6125 1297.9167,1664.5833 C1285.9208,1712.5688 1291.4375,1769.0708 1298.5271,1809.2083 " fill="none" style="stroke: #A80036; stroke-width: 2.0833333333333335; stroke-dasharray: 7.0,7.0;"/><polygon fill="#A80036" points="1300.5542,1820.0729,1305.3072,1800.1126,1298.6437,1809.833,1288.9233,1803.1694,1300.5542,1820.0729" style="stroke: #A80036; stroke-width: 2.0833333333333335;"/><text fill="#000000" font-family="CMU Serif" font-size="31.25" lengthAdjust="spacingAndGlyphs" textLength="352.0833" x="1304.1667" y="1699.8403">Update MOAI database</text><path d="M969.875,1125.4792 C1199.3958,1131.9438 1538.375,1156.85 1629.1667,1245.8333 C1783.3813,1396.9729 1724.5854,1691.3854 1692.5063,1810.0521 " fill="none" style="stroke: #A80036; stroke-width: 2.0833333333333335; stroke-dasharray: 7.0,7.0;"/><polygon fill="#A80036" points="1689.6813,1820.3083,1702.6974,1804.4468,1692.4492,1810.2662,1686.6299,1800.018,1689.6813,1820.3083" style="stroke: #A80036; stroke-width: 2.0833333333333335;"/><text fill="#000000" font-family="CMU Serif" font-size="31.25" lengthAdjust="spacingAndGlyphs" textLength="60.4167" x="1737.5" y="1533.1736">SCP</text><path d="M817.6,1564.6688 C922.3688,1627.7646 1123.3375,1748.7938 1233.5063,1815.1396 " fill="none" style="stroke: #A80036; stroke-width: 2.0833333333333335; stroke-dasharray: 7.0,7.0;"/><polygon fill="#A80036" points="1242.5771,1820.6042,1230.8162,1803.7908,1233.6543,1815.2291,1222.2161,1818.0672,1242.5771,1820.6042" style="stroke: #A80036; stroke-width: 2.0833333333333335;"/><text fill="#000000" font-family="CMU Serif" font-size="31.25" lengthAdjust="spacingAndGlyphs" textLength="60.4167" x="1054.1667" y="1699.8403">SCP</text><path d="M871.4083,921.4542 C1223.5917,944.2958 1995.8333,1007.2146 1995.8333,1119.7917 C1995.8333,1119.7917 1995.8333,1119.7917 1995.8333,1865.625 C1995.8333,1987.1396 1916.3146,2111.5813 1865.7813,2178.3927 " fill="none" style="stroke: #A80036; stroke-width: 2.0833333333333335; stroke-dasharray: 7.0,7.0;"/><polygon fill="#A80036" points="1859.1604,2187.0379,1877.1783,2177.2215,1865.4952,2178.7689,1863.9479,2167.0858,1859.1604,2187.0379" style="stroke: #A80036; stroke-width: 2.0833333333333335;"/><text fill="#000000" font-family="CMU Serif" font-size="31.25" lengthAdjust="spacingAndGlyphs" textLength="100" x="2002.0833" y="1533.1736">HTTPS</text><path d="M866.3146,1906.3333 C947.4729,1934.6292 1058.35,1973.0667 1156.25,2006.25 C1340.8583,2068.8229 1554.7542,2139.4635 1689.95,2183.8848 " fill="none" style="stroke: #A80036; stroke-width: 2.0833333333333335; stroke-dasharray: 7.0,7.0;"/><polygon fill="#A80036" points="1700.3542,2187.3025,1685.144,2173.5309,1690.4584,2184.0497,1679.9396,2189.3642,1700.3542,2187.3025" style="stroke: #A80036; stroke-width: 2.0833333333333335;"/><text fill="#000000" font-family="CMU Serif" font-size="31.25" lengthAdjust="spacingAndGlyphs" textLength="100" x="1347.9167" y="2058.1736">HTTPS</text></g></svg>