<?xml version="1.0" encoding="UTF-8" standalone="yes"?><svg xmlns="http://www.w3.org/2000/svg" xmlns:xlink="http://www.w3.org/1999/xlink" height="1743.75px" style="width:2258px;height:1743px;" version="1.1" viewBox="0 0 2258 1743" width="2258.3333px"><defs/><g><rect fill="#FFFFFF" height="995.8333" style="stroke: #000000; stroke-width: 4.166666666666667;" width="679.1667" x="397.9167" y="475"/><text fill="#000000" font-family="CMU Serif" font-size="31.25" font-weight="bold" lengthAdjust="spacingAndGlyphs" textLength="352.0833" x="561.4583" y="512.3403">External user server</text><path d="M447.9167,1208.3333 C447.9167,1187.5 616.6667,1187.5 616.6667,1187.5 C616.6667,1187.5 785.4167,1187.5 785.4167,1208.3333 L785.4167,1400 C785.4167,1420.8333 616.6667,1420.8333 616.6667,1420.8333 C616.6667,1420.8333 447.9167,1420.8333 447.9167,1400 L447.9167,1208.3333 " fill="#FFFFFF" style="stroke: #000000; stroke-width: 4.166666666666667;"/><path d="M447.9167,1208.3333 C447.9167,1229.1667 616.6667,1229.1667 616.6667,1229.1667 C616.6667,1229.1667 785.4167,1229.1667 785.4167,1208.3333 " fill="none" style="stroke: #000000; stroke-width: 4.166666666666667;"/><text fill="#000000" font-family="CMU Serif" font-size="31.25" font-weight="bold" lengthAdjust="spacingAndGlyphs" textLength="200" x="516.6667" y="1264.4236">PostgreSQL</text><rect fill="#FFFFFF" height="383.3333" style="stroke: #000000; stroke-width: 4.166666666666667;" width="1129.1667" x="1127.0833" y="341.6667"/><text fill="#000000" font-family="CMU Serif" font-size="31.25" font-weight="bold" lengthAdjust="spacingAndGlyphs" textLength="322.9167" x="1530.2083" y="379.007">Yoda iRODS server</text><path d="M2002.0833,462.5 C2002.0833,441.6667 2104.1667,441.6667 2104.1667,441.6667 C2104.1667,441.6667 2206.25,441.6667 2206.25,462.5 L2206.25,654.1667 C2206.25,675 2104.1667,675 2104.1667,675 C2104.1667,675 2002.0833,675 2002.0833,654.1667 L2002.0833,462.5 " fill="#FFFFFF" style="stroke: #000000; stroke-width: 4.166666666666667;"/><path d="M2002.0833,462.5 C2002.0833,483.3333 2104.1667,483.3333 2104.1667,483.3333 C2104.1667,483.3333 2206.25,483.3333 2206.25,462.5 " fill="none" style="stroke: #000000; stroke-width: 4.166666666666667;"/><text fill="#000000" font-family="CMU Serif" font-size="31.25" font-weight="bold" lengthAdjust="spacingAndGlyphs" textLength="75" x="2066.6667" y="518.5903">iCAT</text><rect fill="#FFFFFF" height="222.9167" style="stroke: #000000; stroke-width: 4.166666666666667;" width="395.8333" x="1172.9167" y="50"/><text fill="#000000" font-family="CMU Serif" font-size="31.25" font-weight="bold" lengthAdjust="spacingAndGlyphs" textLength="316.6667" x="1212.5" y="87.3403">Yoda portal server</text><ellipse cx="531.25" cy="577.0833" fill="#FEFECE" rx="16.6667" ry="16.6667" style="stroke: #A80036; stroke-width: 4.166666666666667;"/><text fill="#000000" font-family="CMU Serif" font-size="31.25" lengthAdjust="spacingAndGlyphs" textLength="125" x="468.75" y="629.007">HTTP_UI</text><rect fill="#FEFECE" height="107.2103" style="stroke: #A80036; stroke-width: 3.125;" width="266.6667" x="431.25" y="903.125"/><rect fill="#FEFECE" height="20.8333" style="stroke: #A80036; stroke-width: 3.125;" width="31.25" x="656.25" y="913.5417"/><rect fill="#FEFECE" height="4.1667" style="stroke: #A80036; stroke-width: 3.125;" width="8.3333" x="652.0833" y="917.7083"/><rect fill="#FEFECE" height="4.1667" style="stroke: #A80036; stroke-width: 3.125;" width="8.3333" x="652.0833" y="926.0417"/><text fill="#000000" font-family="CMU Serif" font-size="31.25" lengthAdjust="spacingAndGlyphs" textLength="175" x="466.6667" y="977.9653">Webservice</text><ellipse cx="968.75" cy="934.375" fill="#FEFECE" rx="16.6667" ry="16.6667" style="stroke: #A80036; stroke-width: 4.166666666666667;"/><text fill="#000000" font-family="CMU Serif" font-size="31.25" lengthAdjust="spacingAndGlyphs" textLength="141.6667" x="897.9167" y="986.2986">HTTP_API</text><rect fill="#FFFFFF" height="86.377" style="stroke: #000000; stroke-width: 3.125;" width="270.8333" x="481.25" y="1302.0833"/><text fill="#000000" font-family="CMU Serif" font-size="31.25" lengthAdjust="spacingAndGlyphs" textLength="220.8333" x="506.25" y="1356.0903">External users</text><rect fill="#FEFECE" height="107.2103" style="stroke: #A80036; stroke-width: 3.125;" width="420.8333" x="1160.4167" y="545.8333"/><rect fill="#FEFECE" height="20.8333" style="stroke: #A80036; stroke-width: 3.125;" width="31.25" x="1539.5833" y="556.25"/><rect fill="#FEFECE" height="4.1667" style="stroke: #A80036; stroke-width: 3.125;" width="8.3333" x="1535.4167" y="560.4167"/><rect fill="#FEFECE" height="4.1667" style="stroke: #A80036; stroke-width: 3.125;" width="8.3333" x="1535.4167" y="568.75"/><text fill="#000000" font-family="CMU Serif" font-size="31.25" lengthAdjust="spacingAndGlyphs" textLength="329.1667" x="1195.8333" y="620.6736">Group Manager Rules</text><rect fill="#FEFECE" height="107.2103" style="stroke: #A80036; stroke-width: 3.125;" width="308.3333" x="1654.1667" y="545.8333"/><rect fill="#FEFECE" height="20.8333" style="stroke: #A80036; stroke-width: 3.125;" width="31.25" x="1920.8333" y="556.25"/><rect fill="#FEFECE" height="4.1667" style="stroke: #A80036; stroke-width: 3.125;" width="8.3333" x="1916.6667" y="560.4167"/><rect fill="#FEFECE" height="4.1667" style="stroke: #A80036; stroke-width: 3.125;" width="8.3333" x="1916.6667" y="568.75"/><text fill="#000000" font-family="CMU Serif" font-size="31.25" lengthAdjust="spacingAndGlyphs" textLength="216.6667" x="1689.5833" y="620.6736">iRODS Service</text><rect fill="#FFFFFF" height="86.377" style="stroke: #000000; stroke-width: 3.125;" width="137.5" x="2035.4167" y="556.25"/><text fill="#000000" font-family="CMU Serif" font-size="31.25" lengthAdjust="spacingAndGlyphs" textLength="87.5" x="2060.4167" y="610.257">Users</text><rect fill="#FEFECE" height="107.2103" style="stroke: #A80036; stroke-width: 3.125;" width="329.1667" x="1206.25" y="133.3333"/><rect fill="#FEFECE" height="20.8333" style="stroke: #A80036; stroke-width: 3.125;" width="31.25" x="1493.75" y="143.75"/><rect fill="#FEFECE" height="4.1667" style="stroke: #A80036; stroke-width: 3.125;" width="8.3333" x="1489.5833" y="147.9167"/><rect fill="#FEFECE" height="4.1667" style="stroke: #A80036; stroke-width: 3.125;" width="8.3333" x="1489.5833" y="156.25"/><text fill="#000000" font-family="CMU Serif" font-size="31.25" lengthAdjust="spacingAndGlyphs" textLength="237.5" x="1241.6667" y="208.1736">Group Manager</text><polygon fill="#FBFB77" points="12.5,868.75,12.5,1043.4245,358.3333,1043.4245,358.3333,889.5833,337.5,868.75,12.5,868.75" style="stroke: #A80036; stroke-width: 2.0833333333333335;"/><polygon fill="#FBFB77" points="12.5,868.75,12.5,1043.4245,358.3333,1043.4245,358.3333,889.5833,337.5,868.75,277.5938,868.75,492.9188,640.1813,260.9271,868.75,12.5,868.75" style="stroke: #A80036; stroke-width: 2.0833333333333335;"/><line style="stroke: #A80036; stroke-width: 2.0833333333333335;" x1="337.5" x2="337.5" y1="868.75" y2="889.5833"/><line style="stroke: #A80036; stroke-width: 2.0833333333333335;" x1="358.3333" x2="337.5" y1="889.5833" y2="889.5833"/><text fill="#000000" font-family="CMU Serif" font-size="31.25" lengthAdjust="spacingAndGlyphs" textLength="279.1667" x="29.1667" y="912.3403">External user can:</text><text fill="#000000" font-family="CMU Serif" font-size="31.25" lengthAdjust="spacingAndGlyphs" textLength="275" x="29.1667" y="948.7172">- Activate account</text><text fill="#000000" font-family="CMU Serif" font-size="31.25" lengthAdjust="spacingAndGlyphs" textLength="293.75" x="29.1667" y="985.0942">- Change password</text><text fill="#000000" font-family="CMU Serif" font-size="31.25" lengthAdjust="spacingAndGlyphs" textLength="266.6667" x="29.1667" y="1021.4712">- Reset password</text><polygon fill="#FBFB77" points="1109.375,1257.2917,1109.375,1431.9661,1590.625,1431.9661,1590.625,1278.125,1569.7917,1257.2917,1109.375,1257.2917" style="stroke: #A80036; stroke-width: 2.0833333333333335;"/><polygon fill="#FBFB77" points="1109.375,1257.2917,1109.375,1431.9661,1590.625,1431.9661,1590.625,1278.125,1569.7917,1257.2917,1273.2167,1257.2917,1007.4042,997.3042,1256.55,1257.2917,1109.375,1257.2917" style="stroke: #A80036; stroke-width: 2.0833333333333335;"/><line style="stroke: #A80036; stroke-width: 2.0833333333333335;" x1="1569.7917" x2="1569.7917" y1="1257.2917" y2="1278.125"/><line style="stroke: #A80036; stroke-width: 2.0833333333333335;" x1="1590.625" x2="1569.7917" y1="1278.125" y2="1278.125"/><text fill="#000000" font-family="CMU Serif" font-size="31.25" lengthAdjust="spacingAndGlyphs" textLength="418.75" x="1126.0417" y="1300.882">iRODS service account can:</text><text fill="#000000" font-family="CMU Serif" font-size="31.25" lengthAdjust="spacingAndGlyphs" textLength="429.1667" x="1126.0417" y="1337.2589">- Authenticate external user</text><text fill="#000000" font-family="CMU Serif" font-size="31.25" lengthAdjust="spacingAndGlyphs" textLength="337.5" x="1126.0417" y="1373.6359">- Create external user</text><text fill="#000000" font-family="CMU Serif" font-size="31.25" lengthAdjust="spacingAndGlyphs" textLength="333.3333" x="1126.0417" y="1410.0128">- Delete external user</text><ellipse cx="897.9167" cy="1634.375" fill="#FEFECE" rx="16.6667" ry="16.6667" style="stroke: #A80036; stroke-width: 4.166666666666667;"/><text fill="#000000" font-family="CMU Serif" font-size="31.25" lengthAdjust="spacingAndGlyphs" textLength="85.4167" x="855.2083" y="1686.2986">SMTP</text><polygon fill="#FBFB77" points="1090.625,1568.75,1090.625,1743.4245,1959.375,1743.4245,1959.375,1589.5833,1938.5417,1568.75,1090.625,1568.75" style="stroke: #A80036; stroke-width: 2.0833333333333335;"/><polygon fill="#FBFB77" points="1090.625,1568.75,1090.625,1647.9167,945.0708,1656.25,1090.625,1664.5833,1090.625,1743.4245,1959.375,1743.4245,1959.375,1589.5833,1938.5417,1568.75,1090.625,1568.75" style="stroke: #A80036; stroke-width: 2.0833333333333335;"/><line style="stroke: #A80036; stroke-width: 2.0833333333333335;" x1="1938.5417" x2="1938.5417" y1="1568.75" y2="1589.5833"/><line style="stroke: #A80036; stroke-width: 2.0833333333333335;" x1="1959.375" x2="1938.5417" y1="1589.5833" y2="1589.5833"/><text fill="#000000" font-family="CMU Serif" font-size="31.25" lengthAdjust="spacingAndGlyphs" textLength="460.4167" x="1107.2917" y="1612.3403">External user webservice can:</text><text fill="#000000" font-family="CMU Serif" font-size="31.25" lengthAdjust="spacingAndGlyphs" textLength="527.0833" x="1107.2917" y="1648.7172">- Send invitation mail to new users</text><text fill="#000000" font-family="CMU Serif" font-size="31.25" lengthAdjust="spacingAndGlyphs" textLength="668.75" x="1107.2917" y="1685.0942">- Send password reset link to existing users</text><text fill="#000000" font-family="CMU Serif" font-size="31.25" lengthAdjust="spacingAndGlyphs" textLength="816.6667" x="1107.2917" y="1721.4712">- Send user creation succes status to group manager</text><path d="M534.9438,640.1813 C540.9958,704.2875 553.0188,831.65 559.7438,902.8875 " fill="none" style="stroke: #A80036; stroke-width: 2.0833333333333335;"/><text fill="#000000" font-family="CMU Serif" font-size="31.25" lengthAdjust="spacingAndGlyphs" textLength="110.4167" x="556.25" y="793.5903">provide</text><path d="M893.2,956.25 C838.4188,956.25 762.8833,956.25 698.0438,956.25 " fill="none" style="stroke: #A80036; stroke-width: 2.0833333333333335;"/><text fill="#000000" font-family="CMU Serif" font-size="31.25" lengthAdjust="spacingAndGlyphs" textLength="110.4167" x="740.625" y="937.3403">provide</text><path d="M571.5,1009.375 C581.4688,1082.95 599.7729,1218.0313 609.7458,1291.6271 " fill="none" style="stroke: #A80036; stroke-width: 2.0833333333333335; stroke-dasharray: 7.0,7.0;"/><polygon fill="#A80036" points="611.1542,1302.025,616.8947,1282.3259,609.7556,1291.7026,600.3789,1284.5636,611.1542,1302.025" style="stroke: #A80036; stroke-width: 2.0833333333333335;"/><text fill="#000000" font-family="CMU Serif" font-size="31.25" lengthAdjust="spacingAndGlyphs" textLength="54.1667" x="597.9167" y="1141.507">use</text><path d="M1312.3667,652.3896 C1233.9813,721.2313 1096.0188,842.3938 1020.9604,908.3125 " fill="none" style="stroke: #A80036; stroke-width: 2.0833333333333335; stroke-dasharray: 7.0,7.0;"/><polygon fill="#A80036" points="1013.0125,915.2938,1032.5994,909.1814,1020.8389,908.4196,1021.6007,896.6591,1013.0125,915.2938" style="stroke: #A80036; stroke-width: 2.0833333333333335;"/><text fill="#000000" font-family="CMU Serif" font-size="31.25" lengthAdjust="spacingAndGlyphs" textLength="54.1667" x="1187.5" y="793.5903">use</text><path d="M1749.325,652.6083 C1713.4833,681.8729 1665.7104,717.3917 1618.75,741.6667 C1427.9438,840.2958 1182.2,905.65 1054.4583,935.5021 " fill="none" style="stroke: #A80036; stroke-width: 2.0833333333333335; stroke-dasharray: 7.0,7.0;"/><polygon fill="#A80036" points="1043.9688,937.9354,1064.1171,941.8151,1054.1158,935.581,1060.3499,925.5797,1043.9688,937.9354" style="stroke: #A80036; stroke-width: 2.0833333333333335;"/><text fill="#000000" font-family="CMU Serif" font-size="31.25" lengthAdjust="spacingAndGlyphs" textLength="208.3333" x="1575" y="793.5903">use (via PAM)</text><path d="M1370.8333,240.2583 C1370.8333,315.4271 1370.8333,454.6542 1370.8333,535.1083 " fill="none" style="stroke: #A80036; stroke-width: 2.0833333333333335;"/><polygon fill="#A80036" points="1370.8333,545.5792,1379.1667,526.8292,1370.8333,535.1625,1362.5,526.8292,1370.8333,545.5792" style="stroke: #A80036; stroke-width: 2.0833333333333335;"/><path d="M636.3271,1009.3771 C685.5771,1048.175 748.4896,1105.8354 785.4167,1170.8333 C866.8,1314.0813 889.3729,1513.0125 895.5854,1604.5083 " fill="none" style="stroke: #A80036; stroke-width: 2.0833333333333335; stroke-dasharray: 7.0,7.0;"/><polygon fill="#A80036" points="896.2646,1615.1229,903.3825,1595.8787,895.5988,1604.7275,886.7499,1596.9438,896.2646,1615.1229" style="stroke: #A80036; stroke-width: 2.0833333333333335;"/><text fill="#000000" font-family="CMU Serif" font-size="31.25" lengthAdjust="spacingAndGlyphs" textLength="54.1667" x="889.5833" y="1356.0903">use</text></g></svg>