<?xml version="1.0" encoding="UTF-8" standalone="yes"?><svg xmlns="http://www.w3.org/2000/svg" xmlns:xlink="http://www.w3.org/1999/xlink" height="768.75px" style="width:1535px;height:768px;" version="1.1" viewBox="0 0 1535 768" width="1535.4167px"><defs/><g><line style="stroke: #A80036; stroke-width: 2.0833333333333335; stroke-dasharray: 5.0,5.0;" x1="125" x2="125" y1="173.877" y2="608.8053"/><line style="stroke: #A80036; stroke-width: 2.0833333333333335; stroke-dasharray: 5.0,5.0;" x1="602.0833" x2="602.0833" y1="173.877" y2="608.8053"/><line style="stroke: #A80036; stroke-width: 2.0833333333333335; stroke-dasharray: 5.0,5.0;" x1="1018.75" x2="1018.75" y1="173.877" y2="608.8053"/><line style="stroke: #A80036; stroke-width: 2.0833333333333335; stroke-dasharray: 5.0,5.0;" x1="1410.4167" x2="1410.4167" y1="173.877" y2="608.8053"/><text fill="#000000" font-family="CMU Serif" font-size="31.25" lengthAdjust="spacingAndGlyphs" textLength="204.1667" x="16.6667" y="166.507">External user</text><ellipse cx="125" cy="27.0833" fill="#FEFECE" rx="16.6667" ry="16.6667" style="stroke: #A80036; stroke-width: 4.166666666666667;"/><path d="M125,43.75 L125,100 M97.9167,60.4167 L152.0833,60.4167 M125,100 L97.9167,131.25 M125,100 L152.0833,131.25 " fill="#FEFECE" style="stroke: #A80036; stroke-width: 4.166666666666667;"/><text fill="#000000" font-family="CMU Serif" font-size="31.25" lengthAdjust="spacingAndGlyphs" textLength="204.1667" x="16.6667" y="635.729">External user</text><ellipse cx="125" cy="663.9323" fill="#FEFECE" rx="16.6667" ry="16.6667" style="stroke: #A80036; stroke-width: 4.166666666666667;"/><path d="M125,680.599 L125,736.849 M97.9167,697.2656 L152.0833,697.2656 M125,736.849 L97.9167,768.099 M125,736.849 L152.0833,768.099 " fill="#FEFECE" style="stroke: #A80036; stroke-width: 4.166666666666667;"/><rect fill="#FEFECE" height="65.5436" style="stroke: #A80036; stroke-width: 3.125;" width="125" x="539.5833" y="106.25"/><text fill="#000000" font-family="CMU Serif" font-size="31.25" lengthAdjust="spacingAndGlyphs" textLength="95.8333" x="554.1667" y="149.8403">iRODS</text><rect fill="#FEFECE" height="65.5436" style="stroke: #A80036; stroke-width: 3.125;" width="125" x="539.5833" y="606.722"/><text fill="#000000" font-family="CMU Serif" font-size="31.25" lengthAdjust="spacingAndGlyphs" textLength="95.8333" x="554.1667" y="650.3123">iRODS</text><rect fill="#FEFECE" height="65.5436" style="stroke: #A80036; stroke-width: 3.125;" width="350" x="843.75" y="106.25"/><text fill="#000000" font-family="CMU Serif" font-size="31.25" lengthAdjust="spacingAndGlyphs" textLength="320.8333" x="858.3333" y="149.8403">External user service</text><rect fill="#FEFECE" height="65.5436" style="stroke: #A80036; stroke-width: 3.125;" width="350" x="843.75" y="606.722"/><text fill="#000000" font-family="CMU Serif" font-size="31.25" lengthAdjust="spacingAndGlyphs" textLength="320.8333" x="858.3333" y="650.3123">External user service</text><text fill="#000000" font-family="CMU Serif" font-size="31.25" lengthAdjust="spacingAndGlyphs" textLength="258.3333" x="1275" y="166.507">External user DB</text><path d="M1372.9167,70.8333 C1372.9167,50 1410.4167,50 1410.4167,50 C1410.4167,50 1447.9167,50 1447.9167,70.8333 L1447.9167,116.6667 C1447.9167,137.5 1410.4167,137.5 1410.4167,137.5 C1410.4167,137.5 1372.9167,137.5 1372.9167,116.6667 L1372.9167,70.8333 " fill="#FEFECE" style="stroke: #A80036; stroke-width: 3.125;"/><path d="M1372.9167,70.8333 C1372.9167,91.6667 1410.4167,91.6667 1410.4167,91.6667 C1410.4167,91.6667 1447.9167,91.6667 1447.9167,70.8333 " fill="none" style="stroke: #A80036; stroke-width: 3.125;"/><text fill="#000000" font-family="CMU Serif" font-size="31.25" lengthAdjust="spacingAndGlyphs" textLength="258.3333" x="1275" y="635.729">External user DB</text><path d="M1372.9167,663.9323 C1372.9167,643.099 1410.4167,643.099 1410.4167,643.099 C1410.4167,643.099 1447.9167,643.099 1447.9167,663.9323 L1447.9167,709.7656 C1447.9167,730.599 1410.4167,730.599 1410.4167,730.599 C1410.4167,730.599 1372.9167,730.599 1372.9167,709.7656 L1372.9167,663.9323 " fill="#FEFECE" style="stroke: #A80036; stroke-width: 3.125;"/><path d="M1372.9167,663.9323 C1372.9167,684.7656 1410.4167,684.7656 1410.4167,684.7656 C1410.4167,684.7656 1447.9167,684.7656 1447.9167,663.9323 " fill="none" style="stroke: #A80036; stroke-width: 3.125;"/><polygon fill="#A80036" points="577.0833,234.2936,597.9167,242.627,577.0833,250.9603,585.4167,242.627" style="stroke: #A80036; stroke-width: 2.0833333333333335;"/><line style="stroke: #A80036; stroke-width: 2.0833333333333335;" x1="125" x2="589.5833" y1="242.627" y2="242.627"/><text fill="#000000" font-family="CMU Serif" font-size="31.25" lengthAdjust="spacingAndGlyphs" textLength="427.0833" x="139.5833" y="232.0506">Login (username/password)</text><polygon fill="#A80036" points="993.75,299.8372,1014.5833,308.1706,993.75,316.5039,1002.0833,308.1706" style="stroke: #A80036; stroke-width: 2.0833333333333335;"/><line style="stroke: #A80036; stroke-width: 2.0833333333333335;" x1="602.0833" x2="1006.25" y1="308.1706" y2="308.1706"/><text fill="#000000" font-family="CMU Serif" font-size="31.25" lengthAdjust="spacingAndGlyphs" textLength="366.6667" x="616.6667" y="297.5942">PAM / HTTPS Basic auth</text><polygon fill="#A80036" points="1385.4167,365.3809,1406.25,373.7142,1385.4167,382.0475,1393.75,373.7142" style="stroke: #A80036; stroke-width: 2.0833333333333335;"/><line style="stroke: #A80036; stroke-width: 2.0833333333333335;" x1="1018.75" x2="1397.9167" y1="373.7142" y2="373.7142"/><text fill="#000000" font-family="CMU Serif" font-size="31.25" lengthAdjust="spacingAndGlyphs" textLength="156.25" x="1033.3333" y="363.1378">SELECT ...</text><polygon fill="#A80036" points="1041.6667,430.9245,1020.8333,439.2578,1041.6667,447.5911,1033.3333,439.2578" style="stroke: #A80036; stroke-width: 2.0833333333333335;"/><line style="stroke: #A80036; stroke-width: 2.0833333333333335; stroke-dasharray: 2.0,2.0;" x1="1029.1667" x2="1408.3333" y1="439.2578" y2="439.2578"/><text fill="#000000" font-family="CMU Serif" font-size="31.25" lengthAdjust="spacingAndGlyphs" textLength="341.6667" x="1054.1667" y="428.6814">{ password_hash ... }</text><polygon fill="#A80036" points="625,496.4681,604.1667,504.8014,625,513.1348,616.6667,504.8014" style="stroke: #A80036; stroke-width: 2.0833333333333335;"/><line style="stroke: #A80036; stroke-width: 2.0833333333333335; stroke-dasharray: 2.0,2.0;" x1="612.5" x2="1016.6667" y1="504.8014" y2="504.8014"/><text fill="#000000" font-family="CMU Serif" font-size="31.25" lengthAdjust="spacingAndGlyphs" textLength="212.5" x="637.5" y="494.2251">Authenticated</text><polygon fill="#A80036" points="147.9167,562.0117,127.0833,570.3451,147.9167,578.6784,139.5833,570.3451" style="stroke: #A80036; stroke-width: 2.0833333333333335;"/><line style="stroke: #A80036; stroke-width: 2.0833333333333335; stroke-dasharray: 2.0,2.0;" x1="135.4167" x2="600" y1="570.3451" y2="570.3451"/><text fill="#000000" font-family="CMU Serif" font-size="31.25" lengthAdjust="spacingAndGlyphs" textLength="41.6667" x="160.4167" y="559.7687">Ok</text></g></svg>