<?xml version="1.0" encoding="UTF-8" standalone="no"?><svg xmlns="http://www.w3.org/2000/svg" xmlns:xlink="http://www.w3.org/1999/xlink" contentScriptType="application/ecmascript" contentStyleType="text/css" height="2233.3333px" preserveAspectRatio="none" style="width:3572px;height:2233px;background:#282C34;" version="1.1" viewBox="0 0 3572 2233" width="3572.9167px" zoomAndPan="magnify"><defs/><g><!--MD5=[4eceffa65ab196036efea5ff835d3a15]
cluster Yoda instance--><rect fill="#424856" height="1556.25" style="stroke: #61AFEF; stroke-width: 3.125;" width="2104.1667" x="600" y="256.25"/><text fill="#ABB2BF" font-family="CMU Serif" font-size="31.25" font-weight="bold" lengthAdjust="spacingAndGlyphs" textLength="241.6667" x="1531.25" y="293.5903">Yoda instance</text><!--MD5=[516c5e75c4c50ba2f0b84309edef403d]
cluster Yoda portal--><polygon fill="#282C34" points="1352.0833,356.25,1570.8333,356.25,1585.4167,413.4603,2383.3333,413.4603,2383.3333,775,1352.0833,775,1352.0833,356.25" style="stroke: #61AFEF; stroke-width: 3.125;"/><line style="stroke: #61AFEF; stroke-width: 3.125;" x1="1352.0833" x2="1585.4167" y1="413.4603" y2="413.4603"/><text fill="#ABB2BF" font-family="CMU Serif" font-size="31.25" font-weight="bold" lengthAdjust="spacingAndGlyphs" textLength="197.9167" x="1364.5833" y="393.5903">Yoda portal</text><!--MD5=[50c904034400608675d89eb7f5e06f8d]
cluster portalweb--><rect fill="#424856" height="235.4167" style="stroke: #61AFEF; stroke-width: 3.125;" width="537.5" x="1779.1667" y="472.9167"/><text fill="#ABB2BF" font-family="CMU Serif" font-size="31.25" font-weight="bold" lengthAdjust="spacingAndGlyphs" textLength="314.5833" x="1890.625" y="510.257">Apache webserver</text><!--MD5=[141973dbc9e25a201471694965f05630]
cluster Yoda database--><polygon fill="#282C34" points="1712.5,1379.1667,1989.5833,1379.1667,2004.1667,1436.377,2179.1667,1436.377,2179.1667,1762.5,1712.5,1762.5,1712.5,1379.1667" style="stroke: #61AFEF; stroke-width: 3.125;"/><line style="stroke: #61AFEF; stroke-width: 3.125;" x1="1712.5" x2="2004.1667" y1="1436.377" y2="1436.377"/><text fill="#ABB2BF" font-family="CMU Serif" font-size="31.25" font-weight="bold" lengthAdjust="spacingAndGlyphs" textLength="256.25" x="1725" y="1416.507">Yoda database</text><!--MD5=[ee31123b26d0b047845fd140474e60d0]
cluster icatdb--><path d="M1762.5,1500 C1762.5,1479.1667 1945.8333,1479.1667 1945.8333,1479.1667 C1945.8333,1479.1667 2129.1667,1479.1667 2129.1667,1500 L2129.1667,1691.6667 C2129.1667,1712.5 1945.8333,1712.5 1945.8333,1712.5 C1945.8333,1712.5 1762.5,1712.5 1762.5,1691.6667 L1762.5,1500 " fill="#424856" style="stroke: #61AFEF; stroke-width: 3.125;"/><path d="M1762.5,1500 C1762.5,1520.8333 1945.8333,1520.8333 1945.8333,1520.8333 C1945.8333,1520.8333 2129.1667,1520.8333 2129.1667,1500 " fill="none" style="stroke: #61AFEF; stroke-width: 3.125;"/><text fill="#ABB2BF" font-family="CMU Serif" font-size="31.25" font-weight="bold" lengthAdjust="spacingAndGlyphs" textLength="204.1667" x="1843.75" y="1558.1736">PostgreSQL</text><!--MD5=[db0b806541efa7ea9e0b8117e288af1f]
cluster Yoda iCAT--><polygon fill="#282C34" points="1712.5,843.75,1906.25,843.75,1920.8333,900.9603,2654.1667,900.9603,2654.1667,1262.5,1712.5,1262.5,1712.5,843.75" style="stroke: #61AFEF; stroke-width: 3.125;"/><line style="stroke: #61AFEF; stroke-width: 3.125;" x1="1712.5" x2="1920.8333" y1="900.9603" y2="900.9603"/><text fill="#ABB2BF" font-family="CMU Serif" font-size="31.25" font-weight="bold" lengthAdjust="spacingAndGlyphs" textLength="172.9167" x="1725" y="881.0903">Yoda iCAT</text><!--MD5=[5004d6500a09f74171c07b5db3ac5e34]
cluster provider--><rect fill="#424856" height="235.4167" style="stroke: #61AFEF; stroke-width: 3.125;" width="808.3333" x="1779.1667" y="960.4167"/><text fill="#ABB2BF" font-family="CMU Serif" font-size="31.25" font-weight="bold" lengthAdjust="spacingAndGlyphs" textLength="191.6667" x="2087.5" y="997.757">iRODS iCAT</text><!--MD5=[65fb4c1a14a419be74d9e72608f0031d]
cluster Yoda resource--><polygon fill="#282C34" points="650,843.75,918.75,843.75,933.3333,900.9603,1662.5,900.9603,1662.5,1762.5,650,1762.5,650,843.75" style="stroke: #61AFEF; stroke-width: 3.125;"/><line style="stroke: #61AFEF; stroke-width: 3.125;" x1="650" x2="933.3333" y1="900.9603" y2="900.9603"/><text fill="#ABB2BF" font-family="CMU Serif" font-size="31.25" font-weight="bold" lengthAdjust="spacingAndGlyphs" textLength="247.9167" x="662.5" y="881.0903">Yoda resource</text><!--MD5=[469b31589b7ba0db59559104e2d0c979]
cluster consumer--><rect fill="#424856" height="235.4167" style="stroke: #61AFEF; stroke-width: 3.125;" width="808.3333" x="787.5" y="960.4167"/><text fill="#ABB2BF" font-family="CMU Serif" font-size="31.25" font-weight="bold" lengthAdjust="spacingAndGlyphs" textLength="266.6667" x="1058.3333" y="997.757">iRODS resource</text><path d="M721.0388,1537.5159 C726.9863,1527.7434 735.4139,1525.7323 743.3972,1535.143 C750.695,1524.1508 759.1716,1525.97 764.7845,1536.7947 C771.4595,1525.3689 782.1601,1524.7058 788.662,1536.9691 C793.3789,1523.482 804.5114,1523.3223 812.5493,1533.636 C820.7196,1523.6548 828.2937,1521.884 836.6964,1533.3747 C844.0526,1524.2452 852.9055,1522.6378 858.6754,1534.9972 C866.3595,1523.5244 875.5982,1521.4028 883.7966,1534.4707 C891.4027,1525.1083 899.699,1526.9797 905.4126,1536.623 C913.6329,1524.2171 923.0444,1526.2821 930.1548,1537.7722 C935.8392,1525.5805 946.7359,1524.8707 954.1799,1535.956 C967.7473,1541.2518 968.5063,1554.2916 957.5668,1562.6919 C970.4211,1570.5782 973.6492,1582.243 960.2658,1592.5047 C974.35,1597.1989 972.625,1607.746 964.2535,1616.2166 C974.3991,1626.7006 974.546,1636.7375 960.2139,1643.6122 C974.4722,1652.3448 971.746,1664.7729 957.6854,1670.8795 C968.2746,1682.5234 969.8764,1691.7501 953.6206,1699.5938 C946.5733,1713.5836 938.1262,1714.0195 929.0252,1701.4992 C923.4014,1715.4688 915.029,1714.3025 905.2883,1705.8595 C898.5625,1717.8015 890.921,1717.6949 882.9307,1707.1147 C877.4664,1721.3947 869.6654,1720.108 859.5881,1711.904 C853.7813,1724.9107 841.9528,1724.0768 834.0357,1714.2673 C827.2827,1722.4577 817.9576,1722.0944 813.1693,1712.0224 C804.0341,1722.8294 794.5752,1721.3102 789.0036,1708.3926 C778.0117,1720.4386 769.3851,1716.9171 763.6585,1703.2105 C755.6398,1715.1784 747.2197,1713.0222 740.293,1702.0959 C733.0605,1711.363 723.5148,1708.58 720.6777,1697.796 C707.6882,1691.3465 702.0341,1682.0444 715.0271,1670.2626 C698.9988,1662.6599 700.542,1652.85 712.2669,1642.4891 C699.9203,1635.2079 701.3284,1628.2165 711.2683,1619.948 C697.5821,1611.9993 697.4225,1598.2542 711.5542,1590.5762 C699.3331,1582.3324 703.0658,1571.3162 714.0154,1565.3315 C703.8276,1555.3034 704.0287,1540.6766 721.0388,1537.5159 " fill="#424856" style="stroke: #61AFEF; stroke-width: 3.125;"/><path d="M1037.7054,1537.5159 C1043.6529,1527.7434 1052.0805,1525.7323 1060.0639,1535.143 C1067.3616,1524.1508 1075.8383,1525.97 1081.4512,1536.7947 C1088.1262,1525.3689 1098.8267,1524.7058 1105.3287,1536.9691 C1110.0455,1523.482 1121.1781,1523.3223 1129.2159,1533.636 C1137.3863,1523.6548 1144.9603,1521.884 1153.363,1533.3747 C1160.7193,1524.2452 1169.5721,1522.6378 1175.3421,1534.9972 C1183.0262,1523.5244 1192.2649,1521.4028 1200.4633,1534.4707 C1208.0694,1525.1083 1216.3657,1526.9797 1222.0793,1536.623 C1230.2995,1524.2171 1239.7111,1526.2821 1246.8215,1537.7722 C1252.5059,1525.5805 1263.4025,1524.8707 1270.8466,1535.956 C1284.4139,1541.2518 1285.173,1554.2916 1274.2335,1562.6919 C1287.0878,1570.5782 1290.3158,1582.243 1276.9325,1592.5047 C1291.0166,1597.1989 1289.2917,1607.746 1280.9202,1616.2166 C1291.0658,1626.7006 1291.2126,1636.7375 1276.8806,1643.6122 C1291.1389,1652.3448 1288.4127,1664.7729 1274.352,1670.8795 C1284.9413,1682.5234 1286.5431,1691.7501 1270.2872,1699.5938 C1263.24,1713.5836 1254.7929,1714.0195 1245.6918,1701.4992 C1240.0681,1715.4688 1231.6957,1714.3025 1221.9549,1705.8595 C1215.2292,1717.8015 1207.5877,1717.6949 1199.5974,1707.1147 C1194.1331,1721.3947 1186.3321,1720.108 1176.2547,1711.904 C1170.448,1724.9107 1158.6194,1724.0768 1150.7024,1714.2673 C1143.9493,1722.4577 1134.6243,1722.0944 1129.836,1712.0224 C1120.7008,1722.8294 1111.2419,1721.3102 1105.6703,1708.3926 C1094.6783,1720.4386 1086.0517,1716.9171 1080.3252,1703.2105 C1072.3065,1715.1784 1063.8864,1713.0222 1056.9597,1702.0959 C1049.7272,1711.363 1040.1815,1708.58 1037.3443,1697.796 C1024.3548,1691.3465 1018.7008,1682.0444 1031.6938,1670.2626 C1015.6654,1662.6599 1017.2086,1652.85 1028.9336,1642.4891 C1016.587,1635.2079 1017.9951,1628.2165 1027.935,1619.948 C1014.2488,1611.9993 1014.0891,1598.2542 1028.2208,1590.5762 C1015.9998,1582.3324 1019.7325,1571.3162 1030.6821,1565.3315 C1020.4943,1555.3034 1020.6954,1540.6766 1037.7054,1537.5159 " fill="#424856" style="stroke: #61AFEF; stroke-width: 3.125;"/><path d="M1352.9762,1536.1545 C1361.3091,1526.3243 1370.9496,1525.0494 1377.1684,1538.3643 C1381.5736,1526.3383 1392.6311,1527.4511 1399.3757,1535.8165 C1408.3947,1521.3534 1418.9353,1520.2005 1428.2672,1535.5128 C1435.4913,1524.7004 1442.6968,1525.0313 1450.6916,1534.6676 C1460.2249,1520.8553 1468.4512,1524.3272 1477.1332,1535.5662 C1482.0052,1523.8486 1491.9764,1524.5214 1498.7409,1533.5999 C1507.7207,1522.8805 1520.1528,1523.8854 1526.1572,1537.0198 C1532.1121,1525.1544 1542.4369,1524.0051 1550.1943,1535.1357 C1557.2759,1525.014 1568.5611,1527.2704 1573.0629,1537.9692 C1580.6011,1525.6134 1588.2796,1524.4728 1598.1242,1535.4969 C1610.1691,1543.1489 1612.7981,1552.5691 1601.1397,1562.8355 C1613.6567,1569.0179 1618.7173,1579.1195 1606.2374,1589.9939 C1622.4909,1596.5669 1622.1195,1606.0403 1610.7808,1617.2181 C1621.931,1627.8936 1622.6045,1640.6489 1605.7162,1646.4699 C1615.4685,1655.4139 1618.2105,1663.9628 1604.4192,1671.6964 C1616.1377,1683.1126 1611.4423,1695.8035 1596.5165,1699.7008 C1590.6092,1709.3472 1579.6637,1710.6672 1573.4713,1700.0247 C1566.6158,1714.1331 1558.52,1716.9065 1546.7079,1705.1543 C1541.1715,1718.0991 1531.514,1716.8594 1523.5204,1707.7363 C1518.7224,1721.5489 1508.7078,1724.7091 1498.5578,1712.9636 C1492.9722,1725.6488 1483.4809,1728.1168 1473.6505,1717.501 C1466.4145,1726.8604 1454.6549,1725.7693 1449.6777,1714.8329 C1439.2172,1722.8674 1430.2486,1722.6147 1425.8143,1708.3764 C1416.6256,1717.6339 1407.9929,1716.0332 1403.1703,1703.7803 C1394.0427,1714.4625 1384.6921,1717.9689 1376.2044,1703.1047 C1365.9459,1714.5874 1357.1351,1711.8724 1351.4609,1698.5345 C1335.116,1691.6698 1334.1122,1683.1209 1346.7243,1671.2324 C1331.1815,1667.4345 1329.0824,1658.3365 1338.5515,1646.3299 C1321.935,1641.8529 1322.4454,1627.3867 1333.5654,1618.0239 C1322.527,1605.7539 1326.505,1594.3938 1342.484,1591.0602 C1329.4784,1582.3139 1331.2629,1570.1447 1344.4095,1563.2064 C1335.9127,1550.7877 1338.8071,1541.3954 1352.9762,1536.1545 " fill="#424856" style="stroke: #61AFEF; stroke-width: 3.125;"/><!--MD5=[b32e50cb3351e610ef60ac416433296b]
cluster Yoda Public server--><rect fill="#424856" height="918.75" style="stroke: #61AFEF; stroke-width: 3.125;" width="795.8333" x="2754.1667" y="843.75"/><text fill="#ABB2BF" font-family="CMU Serif" font-size="31.25" font-weight="bold" lengthAdjust="spacingAndGlyphs" textLength="316.6667" x="2993.75" y="881.0903">Yoda Public server</text><!--MD5=[7df7a0848c50d26e70acfe9d086c4713]
cluster publicweb--><rect fill="#424856" height="235.4167" style="stroke: #61AFEF; stroke-width: 3.125;" width="439.5833" x="2950" y="960.4167"/><text fill="#ABB2BF" font-family="CMU Serif" font-size="31.25" font-weight="bold" lengthAdjust="spacingAndGlyphs" textLength="314.5833" x="3012.5" y="997.757">Apache webserver</text><path d="M3197.9676,1539.1587 C3202.3375,1527.217 3212.4521,1524.0331 3220.9035,1535.0879 C3227.6263,1525.2121 3238.5247,1524.8409 3243.9166,1536.5096 C3249.8808,1523.1858 3262.3404,1523.2727 3270.6729,1533.8594 C3278.6333,1524.054 3287.9039,1526.0629 3293.0318,1536.9238 C3298.5813,1524.4374 3309.3425,1523.8875 3316.9462,1534.8268 C3324.867,1522.9611 3334.2608,1522.4977 3341.4144,1535.5793 C3348.322,1522.3873 3360.2861,1524.3604 3367.2239,1535.5474 C3373.6436,1526.0058 3382.881,1523.9295 3389.3924,1535.4508 C3396.7311,1525.0293 3405.0243,1522.8639 3412.8103,1534.9861 C3420.7839,1524.3289 3431.7368,1525.8905 3436.3452,1538.4042 C3443.2963,1526.8313 3450.6634,1525.0904 3459.8179,1536.1155 C3469.9907,1522.0231 3480.0252,1525.4075 3487.23,1539.0491 C3500.7641,1545.6771 3501.8021,1555.6116 3490.4419,1565.287 C3507.0203,1570.145 3508.2004,1580.6566 3498.6353,1593.1911 C3510.954,1598.4809 3514.305,1608.3612 3503.0807,1617.8886 C3511.7863,1627.2704 3508.5918,1638.7589 3496.3849,1642.4365 C3509.1026,1651.2007 3507.7148,1664.2102 3493.1076,1669.6884 C3504.7579,1680.1881 3501.9586,1693.5561 3486.2564,1697.2588 C3481.5867,1711.6518 3470.5946,1714.0863 3461.2947,1701.5508 C3456.1772,1713.105 3449.8032,1716.7496 3439.6169,1706.6177 C3431.7654,1720.015 3423.5159,1717.7835 3415.1058,1707.1884 C3410.0344,1723.4046 3399.4546,1722.6557 3388.5215,1713.2765 C3383.6087,1726.8396 3371.8031,1727.3064 3364.1879,1715.9114 C3358.225,1726.2008 3347.7909,1729.3452 3340.715,1717.0692 C3332.6582,1725.9772 3324.4098,1727.1839 3318.6521,1714.6982 C3309.2898,1724.2007 3298.5894,1724.9755 3293.5321,1710.2371 C3284.8699,1721.0033 3273.2046,1720.6764 3268.7496,1706.1197 C3259.5849,1716.9487 3251.7607,1717.1313 3244.5116,1704.1682 C3236.444,1712.9326 3225.9958,1713.0502 3220.8156,1700.8973 C3213.2657,1708.3458 3204.6268,1709.2393 3199.9044,1697.7717 C3182.6749,1692.939 3179.0563,1682.4625 3191.866,1669.1835 C3179.2531,1664.9764 3178.2452,1654.438 3187.8393,1646.3199 C3171.4401,1638.6905 3172.8736,1628.1104 3183.8601,1616.7906 C3172.3048,1609.2685 3173.3197,1597.9127 3186.6683,1593.3775 C3172.3953,1581.1975 3175.4296,1570.3552 3191.642,1563.1995 C3180.4968,1553.8217 3184.6127,1542.0901 3197.9676,1539.1587 " fill="#424856" style="stroke: #61AFEF; stroke-width: 3.125;"/><path d="M2821.4135,1538.5143 C2828.7594,1525.7077 2838.8121,1524.036 2848.2464,1536.2771 C2855.0067,1523.0874 2865.3895,1526.0424 2872.6095,1535.7888 C2881.9415,1523.9663 2889.7763,1525.6957 2897.1269,1537.8177 C2902.1351,1527.6708 2912.6733,1526.262 2919.4589,1535.8013 C2926.6433,1523.1796 2936.8546,1520.5155 2946.2616,1533.4724 C2954.476,1524.5307 2961.6638,1525.1838 2968.6513,1534.9414 C2976.3543,1523.6292 2984.2374,1524.1173 2991.849,1535.0368 C2998.9616,1524.9864 3010.4175,1522.9134 3016.8805,1535.7474 C3024.4144,1523.652 3036.4105,1526.9657 3042.187,1537.6958 C3047.6564,1524.1622 3059.2473,1523.7444 3066.4858,1536.0309 C3074.8701,1523.5441 3082.9564,1524.4932 3090.5625,1536.7869 C3098.9654,1526.3568 3109.1892,1526.0678 3116.8089,1537.7179 C3128.377,1544.9213 3127.7897,1557.2998 3116.4246,1564.1701 C3130.0703,1569.9562 3131.256,1580.4142 3119.0648,1588.9529 C3133.7003,1594.6757 3134.3585,1608.4429 3123.0057,1617.7252 C3137.5595,1628.0051 3133.7095,1638.55 3120.7533,1646.6907 C3133.434,1653.3853 3132.8217,1665.3393 3119.4646,1670.6325 C3130.6829,1680.0918 3129.7329,1690.6236 3116.7225,1697.6213 C3110.8951,1713.1847 3102.4289,1711.4658 3091.3296,1703.2513 C3083.3787,1716.4951 3071.9667,1716.8057 3064.7951,1702.5006 C3059.1794,1716.4706 3048.6575,1714.6958 3040.4745,1705.1564 C3035.1471,1717.2581 3026.721,1721.296 3016.6643,1709.9611 C3009.4727,1724.4057 3001.7154,1724.1856 2991.673,1712.7099 C2987.7849,1722.9215 2977.6117,1724.6182 2970.7293,1716.0491 C2961.9051,1726.5035 2950.7749,1726.383 2946.0392,1711.9869 C2936.7017,1724.0534 2926.4087,1722.963 2918.59,1710.301 C2910.5627,1720.6357 2901.8118,1721.4177 2895.5602,1708.5392 C2886.7352,1718.4404 2875.9922,1717.2607 2871.8454,1703.7919 C2861.1915,1715.1817 2852.509,1714.7945 2845.3947,1700.1902 C2835.5164,1709.9063 2828.3973,1706.8538 2822.4471,1695.8415 C2810.1696,1689.6154 2810.8356,1680.3831 2821.5829,1673.2752 C2805.447,1667.8866 2802.7754,1654.3998 2815.8232,1643.3873 C2803.8146,1638.5015 2801.4057,1628.9036 2811.4834,1619.9314 C2802.0383,1607.0881 2802.7473,1597.8818 2818.4342,1591.0968 C2807.1808,1582.2236 2806.2563,1569.6449 2820.9443,1563.0973 C2811.0339,1556.1577 2809.9467,1545.046 2821.4135,1538.5143 " fill="#424856" style="stroke: #61AFEF; stroke-width: 3.125;"/><!--MD5=[718f845a3c6eeb30b6a9dc66bc420cd7]
cluster Yoda External User service--><rect fill="#424856" height="833.3333" style="stroke: #61AFEF; stroke-width: 3.125;" width="504.1667" x="45.8333" y="1377.0833"/><text fill="#ABB2BF" font-family="CMU Serif" font-size="31.25" font-weight="bold" lengthAdjust="spacingAndGlyphs" textLength="462.5" x="66.6667" y="1414.4236">Yoda External User service</text><!--MD5=[ed565dad209db76ab09810b1abb09a16]
cluster extweb--><rect fill="#424856" height="235.4167" style="stroke: #61AFEF; stroke-width: 3.125;" width="356.25" x="127.0833" y="1493.75"/><text fill="#ABB2BF" font-family="CMU Serif" font-size="31.25" font-weight="bold" lengthAdjust="spacingAndGlyphs" textLength="314.5833" x="147.9167" y="1531.0903">Apache webserver</text><!--MD5=[aa0c1be39aa554bf39b7be392ad3f0de]
cluster extdb--><path d="M110.4167,1947.9167 C110.4167,1927.0833 279.1667,1927.0833 279.1667,1927.0833 C279.1667,1927.0833 447.9167,1927.0833 447.9167,1947.9167 L447.9167,2139.5833 C447.9167,2160.4167 279.1667,2160.4167 279.1667,2160.4167 C279.1667,2160.4167 110.4167,2160.4167 110.4167,2139.5833 L110.4167,1947.9167 " fill="#424856" style="stroke: #61AFEF; stroke-width: 3.125;"/><path d="M110.4167,1947.9167 C110.4167,1968.75 279.1667,1968.75 279.1667,1968.75 C279.1667,1968.75 447.9167,1968.75 447.9167,1947.9167 " fill="none" style="stroke: #61AFEF; stroke-width: 3.125;"/><text fill="#ABB2BF" font-family="CMU Serif" font-size="31.25" font-weight="bold" lengthAdjust="spacingAndGlyphs" textLength="204.1667" x="177.0833" y="2006.0903">PostgreSQL</text><!--MD5=[c15c44eddbde3698217cfa31d0e69e09]
entity python--><rect fill="#424856" height="86.377" style="stroke: #61AFEF; stroke-width: 3.125;" width="154.1667" x="2112.5" y="572.9167"/><text fill="#ABB2BF" font-family="CMU Serif" font-size="31.25" lengthAdjust="spacingAndGlyphs" textLength="104.1667" x="2137.5" y="626.9236">Python</text><!--MD5=[9696d8dadf30dd919c1b243d3cf6bda8]
entity davrods--><rect fill="#424856" height="86.377" style="stroke: #61AFEF; stroke-width: 3.125;" width="170.8333" x="1868.75" y="572.9167"/><text fill="#ABB2BF" font-family="CMU Serif" font-size="31.25" lengthAdjust="spacingAndGlyphs" textLength="120.8333" x="1893.75" y="626.9236">davrods</text><!--MD5=[dc7dbb40e9fa74fc88333083ba833ad2]
entity icommands--><rect fill="#424856" height="86.377" style="stroke: #61AFEF; stroke-width: 3.125;" width="337.5" x="1385.4167" y="572.9167"/><text fill="#ABB2BF" font-family="CMU Serif" font-size="31.25" lengthAdjust="spacingAndGlyphs" textLength="287.5" x="1410.4167" y="626.9236">iRODS iCommands</text><!--MD5=[7b08dbc91c4137e0faeab76d27c933e7]
entity iCAT--><rect fill="#424856" height="86.377" style="stroke: #61AFEF; stroke-width: 3.125;" width="297.9167" x="1796.875" y="1593.75"/><text fill="#ABB2BF" font-family="CMU Serif" font-size="31.25" lengthAdjust="spacingAndGlyphs" textLength="247.9167" x="1821.875" y="1647.757">iRODS database</text><!--MD5=[45ed3a0159cb8d753ddefa79b4957559]
entity icatrules--><rect fill="#424856" height="86.377" style="stroke: #61AFEF; stroke-width: 3.125;" width="229.1667" x="2308.3333" y="1060.4167"/><text fill="#ABB2BF" font-family="CMU Serif" font-size="31.25" lengthAdjust="spacingAndGlyphs" textLength="179.1667" x="2333.3333" y="1114.4236">iRODS rules</text><!--MD5=[94e84dbc89cb5b4c99b367f131495424]
entity icatmicroservices--><rect fill="#424856" height="86.377" style="stroke: #61AFEF; stroke-width: 3.125;" width="364.5833" x="1869.7917" y="1060.4167"/><text fill="#ABB2BF" font-family="CMU Serif" font-size="31.25" lengthAdjust="spacingAndGlyphs" textLength="314.5833" x="1894.7917" y="1114.4236">iRODS microservices</text><!--MD5=[91d9009b65923dd26d29746592dd836d]
entity rescrules--><rect fill="#424856" height="86.377" style="stroke: #61AFEF; stroke-width: 3.125;" width="229.1667" x="1316.6667" y="1060.4167"/><text fill="#ABB2BF" font-family="CMU Serif" font-size="31.25" lengthAdjust="spacingAndGlyphs" textLength="179.1667" x="1341.6667" y="1114.4236">iRODS rules</text><!--MD5=[94506cb2a5540e0882664ac74e215e8f]
entity rescmicroservices--><rect fill="#424856" height="86.377" style="stroke: #61AFEF; stroke-width: 3.125;" width="364.5833" x="878.125" y="1060.4167"/><text fill="#ABB2BF" font-family="CMU Serif" font-size="31.25" lengthAdjust="spacingAndGlyphs" textLength="314.5833" x="903.125" y="1114.4236">iRODS microservices</text><!--MD5=[2b018dbc7be4c9a5fc2cfdc90eedde05]
entity Storage 1--><rect fill="#424856" height="86.377" style="stroke: #61AFEF; stroke-width: 3.125;" width="202.0833" x="732.2917" y="1593.75"/><rect fill="#424856" height="10.4167" style="stroke: #61AFEF; stroke-width: 3.125;" width="20.8333" x="721.875" y="1604.1667"/><rect fill="#424856" height="10.4167" style="stroke: #61AFEF; stroke-width: 3.125;" width="20.8333" x="721.875" y="1659.2936"/><text fill="#ABB2BF" font-family="CMU Serif" font-size="31.25" lengthAdjust="spacingAndGlyphs" textLength="152.0833" x="757.2917" y="1647.757">Storage 1</text><!--MD5=[450b98169316e10f66f4036fe48f75f6]
entity Storage 2--><rect fill="#424856" height="86.377" style="stroke: #61AFEF; stroke-width: 3.125;" width="202.0833" x="1048.9583" y="1593.75"/><rect fill="#424856" height="10.4167" style="stroke: #61AFEF; stroke-width: 3.125;" width="20.8333" x="1038.5417" y="1604.1667"/><rect fill="#424856" height="10.4167" style="stroke: #61AFEF; stroke-width: 3.125;" width="20.8333" x="1038.5417" y="1659.2936"/><text fill="#ABB2BF" font-family="CMU Serif" font-size="31.25" lengthAdjust="spacingAndGlyphs" textLength="152.0833" x="1073.9583" y="1647.757">Storage 2</text><!--MD5=[9da4e82eb52cd8c6d596aa354b4c3c56]
entity Storage ...--><rect fill="#424856" height="86.377" style="stroke: #61AFEF; stroke-width: 3.125;" width="212.5" x="1366.6667" y="1593.75"/><rect fill="#424856" height="10.4167" style="stroke: #61AFEF; stroke-width: 3.125;" width="20.8333" x="1356.25" y="1604.1667"/><rect fill="#424856" height="10.4167" style="stroke: #61AFEF; stroke-width: 3.125;" width="20.8333" x="1356.25" y="1659.2936"/><text fill="#ABB2BF" font-family="CMU Serif" font-size="31.25" lengthAdjust="spacingAndGlyphs" textLength="162.5" x="1391.6667" y="1647.757">Storage ...</text><!--MD5=[b27731515e05e33f410b05c4ad713ee8]
entity moai--><rect fill="#424856" height="86.377" style="stroke: #61AFEF; stroke-width: 3.125;" width="297.9167" x="3040.625" y="1060.4167"/><text fill="#ABB2BF" font-family="CMU Serif" font-size="31.25" lengthAdjust="spacingAndGlyphs" textLength="247.9167" x="3065.625" y="1114.4236">OAI-PMH service</text><!--MD5=[764574e42a07803230dfdd9c044e1965]
entity JSON storage--><rect fill="#424856" height="86.377" style="stroke: #61AFEF; stroke-width: 3.125;" width="252.0833" x="3213.5417" y="1593.75"/><rect fill="#424856" height="10.4167" style="stroke: #61AFEF; stroke-width: 3.125;" width="20.8333" x="3203.125" y="1604.1667"/><rect fill="#424856" height="10.4167" style="stroke: #61AFEF; stroke-width: 3.125;" width="20.8333" x="3203.125" y="1659.2936"/><text fill="#ABB2BF" font-family="CMU Serif" font-size="31.25" lengthAdjust="spacingAndGlyphs" textLength="202.0833" x="3238.5417" y="1647.757">JSON storage</text><!--MD5=[0a38338cb3118604b8edc8355f0a690b]
entity Landingpages--><rect fill="#424856" height="86.377" style="stroke: #61AFEF; stroke-width: 3.125;" width="258.3333" x="2837.5" y="1593.75"/><rect fill="#424856" height="10.4167" style="stroke: #61AFEF; stroke-width: 3.125;" width="20.8333" x="2827.0833" y="1604.1667"/><rect fill="#424856" height="10.4167" style="stroke: #61AFEF; stroke-width: 3.125;" width="20.8333" x="2827.0833" y="1659.2936"/><text fill="#ABB2BF" font-family="CMU Serif" font-size="31.25" lengthAdjust="spacingAndGlyphs" textLength="208.3333" x="2862.5" y="1647.757">Landingpages</text><!--MD5=[62c3ca9e900b576d34c9c844036a1058]
entity extphp--><rect fill="#424856" height="86.377" style="stroke: #61AFEF; stroke-width: 3.125;" width="110.4167" x="321.875" y="1593.75"/><text fill="#ABB2BF" font-family="CMU Serif" font-size="31.25" lengthAdjust="spacingAndGlyphs" textLength="60.4167" x="346.875" y="1647.757">PHP</text><!--MD5=[cb789fc524e1555593d1fc5bff9b628e]
entity extusers--><rect fill="#424856" height="86.377" style="stroke: #61AFEF; stroke-width: 3.125;" width="270.8333" x="143.75" y="2041.6667"/><text fill="#ABB2BF" font-family="CMU Serif" font-size="31.25" lengthAdjust="spacingAndGlyphs" textLength="220.8333" x="168.75" y="2095.6736">External users</text><!--MD5=[d6de0bea540cdcc3f07dc5dde60e897f]
entity HTTPS--><ellipse cx="1795.8333" cy="87.5" fill="#424856" rx="16.6667" ry="16.6667" style="stroke: #61AFEF; stroke-width: 4.166666666666667;"/><text fill="#ABB2BF" font-family="CMU Serif" font-size="31.25" lengthAdjust="spacingAndGlyphs" textLength="100" x="1745.8333" y="156.0903">HTTPS</text><!--MD5=[9edb9ec401ac148e6f8177a65bf7fe5a]
entity iCommands--><ellipse cx="231.25" cy="87.5" fill="#424856" rx="16.6667" ry="16.6667" style="stroke: #61AFEF; stroke-width: 4.166666666666667;"/><text fill="#ABB2BF" font-family="CMU Serif" font-size="31.25" lengthAdjust="spacingAndGlyphs" textLength="181.25" x="140.625" y="156.0903">iCommands</text><!--MD5=[fc2c71aa2d4bb2c20cdd0d7e43ea6cdc]
entity SMTP--><ellipse cx="1447.9167" cy="2084.375" fill="#424856" rx="16.6667" ry="16.6667" style="stroke: #61AFEF; stroke-width: 4.166666666666667;"/><text fill="#ABB2BF" font-family="CMU Serif" font-size="31.25" lengthAdjust="spacingAndGlyphs" textLength="85.4167" x="1405.2083" y="2152.9653">SMTP</text><!--MD5=[93de636609a5b66e17ae53a23cc659ca]
link portalweb to provider--><path d="M1795.8333,710.509 C1795.8333,711.9861 1795.8333,713.4754 1795.8333,714.9765 C1795.8333,720.9807 1795.8333,727.1727 1795.8333,733.5257 C1795.8333,746.2316 1795.8333,759.5813 1795.8333,773.3601 C1795.8333,800.9176 1795.8333,830.1914 1795.8333,859.4635 C1795.8333,888.7357 1795.8333,918.0062 1795.8333,945.5572 C1795.8333,949.0011 1795.8333,952.4181 1795.8333,955.8049 C1795.8333,956.6516 1795.8333,957.4964 1795.8333,958.3393 C1795.8333,958.7607 1795.8333,959.1816 1795.8333,959.6021 " fill="none" id="portalweb-&gt;provider" style="stroke: #61AFEF; stroke-width: 2.0833333333333335; stroke-dasharray: 7.0,7.0;"/><polygon fill="#61AFEF" points="1795.8333,959.6021,1804.1667,940.8521,1795.8333,949.1854,1787.5,940.8521,1795.8333,959.6021" style="stroke: #61AFEF; stroke-width: 2.0833333333333335;"/><!--MD5=[9e433ed3cb546e22c3a2bc5fa5432648]
link icommands to provider--><path d="M1574.7708,658.9167 C1603.5313,716.4479 1657.5313,824.4531 1704.9583,919.3099 C1728.6719,966.7383 1750.7422,1010.8796 1767.1927,1043.7809 C1771.3053,1052.0063 1775.0667,1059.5291 1778.4148,1066.2252 C1778.624,1066.6437 1778.8316,1067.059 1779.0376,1067.471 " fill="none" id="icommands-&gt;provider" style="stroke: #61AFEF; stroke-width: 2.0833333333333335; stroke-dasharray: 7.0,7.0;"/><polygon fill="#61AFEF" points="1779.0376,1067.471,1778.106,1046.9737,1774.3792,1058.154,1763.1989,1054.4272,1779.0376,1067.471" style="stroke: #61AFEF; stroke-width: 2.0833333333333335;"/><!--MD5=[fe76e51c36dfc8e7276096c644e4dc60]
link consumer to provider--><path d="M793.2861,959.461 C793.3156,958.9323 793.3462,958.4035 793.3777,957.8747 C793.4408,956.817 793.5081,955.7591 793.5795,954.7013 C793.7222,952.5855 793.8818,950.4698 794.059,948.3559 C794.4133,944.128 794.838,939.9072 795.3398,935.7072 C796.3436,927.3072 797.6558,918.9905 799.3303,910.8674 C802.6793,894.6213 807.4774,879.1494 814.1546,865.334 C827.5091,837.7031 848.3802,816.6979 880.2083,809.375 C951.9375,792.875 1470.9792,792.875 1542.7083,809.375 C1624.0625,828.0833 1685.9948,897.5885 1728.2318,964.2917 C1749.3503,997.6432 1765.5449,1030.2943 1776.7816,1055.5449 C1777.4839,1057.1231 1778.1668,1058.6723 1778.8303,1060.1911 " fill="none" id="consumer-provider" style="stroke: #61AFEF; stroke-width: 2.0833333333333335; stroke-dasharray: 7.0,7.0;"/><!--MD5=[94b1b9a7f66b62f33433e1179162cc44]
link consumer to Storage 1--><path d="M809.1866,1196.2573 C809.2573,1197.5406 809.3286,1198.8336 809.4004,1200.1362 C809.5441,1202.7413 809.6898,1205.3843 809.8375,1208.0633 C810.1328,1213.4212 810.4361,1218.9226 810.7464,1224.5511 C811.9875,1247.0653 813.3405,1271.6126 814.7474,1297.138 C820.375,1399.2396 826.8646,1516.9896 830.5,1582.8542 " fill="none" id="consumer-&gt;Storage 1" style="stroke: #61AFEF; stroke-width: 2.0833333333333335; stroke-dasharray: 7.0,7.0;"/><polygon fill="#61AFEF" points="831.0833,1593.4583,838.3881,1574.2842,830.5187,1583.057,821.7459,1575.1876,831.0833,1593.4583" style="stroke: #61AFEF; stroke-width: 2.0833333333333335;"/><!--MD5=[fe5466c819d6e40082147a6f964639f3]
link consumer to Storage 2--><path d="M811.5878,1196.4222 C811.7034,1197.0016 811.8208,1197.5818 811.9398,1198.1626 C813.8446,1207.4563 816.1929,1216.9227 819.0843,1226.2913 C824.8672,1245.0286 832.8229,1263.375 843.75,1279.1667 C881,1333.0208 920.2292,1314.25 966.6667,1360.4167 C1034.9583,1428.3125 1092.6667,1525.3125 1124.2292,1583.8333 " fill="none" id="consumer-&gt;Storage 2" style="stroke: #61AFEF; stroke-width: 2.0833333333333335; stroke-dasharray: 7.0,7.0;"/><polygon fill="#61AFEF" points="1129.4375,1593.5833,1127.9566,1573.1184,1124.5309,1584.3946,1113.2547,1580.9689,1129.4375,1593.5833" style="stroke: #61AFEF; stroke-width: 2.0833333333333335;"/><!--MD5=[c8e962edac967fb605e83ed9d471014b]
link consumer to Storage ...--><path d="M805.4914,1196.5765 C805.5403,1196.8682 805.5897,1197.16 805.6397,1197.4519 C805.7397,1198.0357 805.8419,1198.6198 805.9464,1199.2043 C806.1555,1200.3732 806.3736,1201.5433 806.6012,1202.7139 C808.422,1212.079 810.8475,1221.4793 814.042,1230.5895 C820.431,1248.8099 829.8958,1265.8698 843.75,1279.1667 C852.7083,1287.7708 1272.9167,1353.6667 1283.3333,1360.4167 C1367.2292,1414.6875 1424.2292,1520.4792 1452.4375,1583.5208 " fill="none" id="consumer-&gt;Storage ..." style="stroke: #61AFEF; stroke-width: 2.0833333333333335; stroke-dasharray: 7.0,7.0;"/><polygon fill="#61AFEF" points="1456.7083,1593.2708,1456.8276,1572.7527,1452.5331,1583.7275,1441.5583,1579.433,1456.7083,1593.2708" style="stroke: #61AFEF; stroke-width: 2.0833333333333335;"/><!--MD5=[7eeca58ccad379ce4b534666f9633944]
link provider to iCAT--><path d="M1815.2305,1196.6074 C1815.4934,1197.769 1815.7581,1198.9352 1816.0245,1200.1057 C1816.5572,1202.4466 1817.0967,1204.8046 1817.6424,1207.1763 C1818.734,1211.9196 1819.8507,1216.7179 1820.9886,1221.5449 C1825.5404,1240.8529 1830.4323,1260.6198 1835.4167,1279.1667 C1864.7708,1388.3958 1905.6458,1514.4167 1928.5208,1583.125 " fill="none" id="provider-&gt;iCAT" style="stroke: #61AFEF; stroke-width: 2.0833333333333335; stroke-dasharray: 7.0,7.0;"/><polygon fill="#61AFEF" points="1932.0417,1593.6458,1933.9996,1573.221,1928.7387,1583.7667,1918.193,1578.5058,1932.0417,1593.6458" style="stroke: #61AFEF; stroke-width: 2.0833333333333335;"/><text fill="#ABB2BF" font-family="CMU Serif" font-size="31.25" lengthAdjust="spacingAndGlyphs" textLength="54.1667" x="1856.25" y="1331.0903">use</text><!--MD5=[ccbe97d80830775891bfb1ec96623535]
link publicweb to Landingpages--><path d="M2966.6667,1196.2573 C2966.6667,1197.5406 2966.6667,1198.8336 2966.6667,1200.1362 C2966.6667,1202.7413 2966.6667,1205.3843 2966.6667,1208.0633 C2966.6667,1213.4212 2966.6667,1218.9226 2966.6667,1224.5511 C2966.6667,1247.0653 2966.6667,1271.6126 2966.6667,1297.138 C2966.6667,1399.2396 2966.6667,1516.9896 2966.6667,1582.8542 " fill="none" id="publicweb-&gt;Landingpages" style="stroke: #61AFEF; stroke-width: 2.0833333333333335; stroke-dasharray: 7.0,7.0;"/><polygon fill="#61AFEF" points="2966.6667,1593.4583,2975,1574.7083,2966.6667,1583.0417,2958.3333,1574.7083,2966.6667,1593.4583" style="stroke: #61AFEF; stroke-width: 2.0833333333333335;"/><!--MD5=[57b4037553bbbc4a84d4834e5c47cb2a]
link moai to JSON storage--><path d="M3201.1042,1145.8542 C3228.1042,1241.0833 3295.3958,1478.4792 3325.1042,1583.2708 " fill="none" id="moai-&gt;JSON storage" style="stroke: #61AFEF; stroke-width: 2.0833333333333335; stroke-dasharray: 7.0,7.0;"/><polygon fill="#61AFEF" points="3328.0208,1593.5833,3330.9542,1573.2756,3325.1945,1583.5574,3314.9128,1577.7977,3328.0208,1593.5833" style="stroke: #61AFEF; stroke-width: 2.0833333333333335;"/><!--MD5=[75513b2495b8cf94d1dd1e8f650d1b8d]
link extweb to extusers--><path d="M254.3836,1730.36 C254.5394,1732.574 254.6972,1734.8146 254.8567,1737.0804 C256.1328,1755.2065 257.5221,1774.9421 258.9688,1795.4922 C264.7552,1877.6927 271.4583,1972.9271 275.5,2030.3333 " fill="none" id="extweb-&gt;extusers" style="stroke: #61AFEF; stroke-width: 2.0833333333333335; stroke-dasharray: 7.0,7.0;"/><polygon fill="#61AFEF" points="276.25,2040.9583,283.2223,2021.6608,275.5057,2030.5683,266.5983,2022.8517,276.25,2040.9583" style="stroke: #61AFEF; stroke-width: 2.0833333333333335;"/><text fill="#ABB2BF" font-family="CMU Serif" font-size="31.25" lengthAdjust="spacingAndGlyphs" textLength="54.1667" x="270.8333" y="1881.0903">use</text><!--MD5=[8ccc299ab25b8b45ff9640fed65d797d]
link HTTPS to portalweb--><path d="M1795.8333,106.4167 C1795.8333,150.5625 1795.8333,274.1042 1795.8333,388.1901 C1795.8333,416.7116 1795.8333,444.6421 1795.8333,470.5933 " fill="none" id="HTTPS-portalweb" style="stroke: #61AFEF; stroke-width: 2.0833333333333335;"/><!--MD5=[eb564ea11bf01aaa29bc54248718de98]
link HTTPS to publicweb--><path d="M1815,91.0833 C1885.6458,97.3958 2135.7708,127.0625 2300,239.5833 C2498.1354,375.3333 2663.7552,588.4063 2780.3594,768.6745 C2838.6615,858.8086 2884.7096,940.7415 2916.4414,1000.7074 C2924.3743,1015.6988 2931.4125,1029.3173 2937.5237,1041.3478 C2940.5793,1047.363 2943.4031,1052.9813 2945.9911,1058.1756 C2947.2852,1060.7728 2948.5203,1063.2639 2949.6959,1065.6458 " fill="none" id="HTTPS-publicweb" style="stroke: #61AFEF; stroke-width: 2.0833333333333335;"/><!--MD5=[5bd5b5788a9785114cd62c223cc12d51]
link HTTPS to extweb--><path d="M1776.75,92.7708 C1712.5833,104.1042 1500.375,146.9583 1352.0833,239.5833 C769.3958,603.5625 580.0625,738.7917 287.5,1360.4167 C274.6094,1387.8125 265.6667,1418.3164 259.5094,1448.7393 C257.9701,1456.345 256.6049,1463.9456 255.3956,1471.4914 C254.791,1475.2642 254.2253,1479.0234 253.6964,1482.7626 C253.4319,1484.6322 253.1766,1486.4968 252.9302,1488.3556 C252.807,1489.2851 252.686,1490.2131 252.5672,1491.1395 C252.5079,1491.6027 252.449,1492.0655 252.3907,1492.528 " fill="none" id="HTTPS-extweb" style="stroke: #61AFEF; stroke-width: 2.0833333333333335;"/><!--MD5=[2bb46ba4699d94d65b528c2575a980c1]
link iCommands to icommands--><path d="M250.4583,97.1875 C383.125,149.7292 1166.2917,459.9167 1450.875,572.625 " fill="none" id="iCommands-icommands" style="stroke: #61AFEF; stroke-width: 2.0833333333333335;"/><!--MD5=[4ab547da1cfc93e1264d1064ef86f508]
link provider to JSON storage--><path d="M1794.9704,1196.2701 C1795.3286,1198.6534 1795.7258,1201.0418 1796.1651,1203.4295 C1797.9221,1212.9802 1800.3517,1222.52 1803.6494,1231.6813 C1810.2448,1250.0039 1820.3125,1266.8125 1835.4167,1279.1667 C1850.2917,1291.3333 2507.8958,1294.5833 2527.0833,1295.8333 C2795.625,1313.4375 2894.4583,1228.7083 3129.1667,1360.4167 C3220.0208,1411.3958 3284.4583,1519.3333 3316.5,1583.4583 " fill="none" id="provider-&gt;JSON storage" style="stroke: #61AFEF; stroke-width: 2.0833333333333335; stroke-dasharray: 7.0,7.0;"/><polygon fill="#61AFEF" points="3321.3542,1593.3542,3320.5798,1572.8503,3316.7673,1584.0017,3305.6159,1580.1893,3321.3542,1593.3542" style="stroke: #61AFEF; stroke-width: 2.0833333333333335;"/><text fill="#ABB2BF" font-family="CMU Serif" font-size="31.25" lengthAdjust="spacingAndGlyphs" textLength="60.4167" x="3093.75" y="1331.0903">SCP</text><!--MD5=[a7abc75df01531043d834451d1c33ae8]
link provider to Landingpages--><path d="M1795.1018,1196.1118 C1795.461,1198.4939 1795.859,1200.8813 1796.2987,1203.2684 C1798.0578,1212.8165 1800.4854,1222.3586 1803.7754,1231.529 C1810.3555,1249.8698 1820.3854,1266.724 1835.4167,1279.1667 C1875.5625,1312.3958 2253.7292,1282.7292 2304.1667,1295.8333 C2538.1042,1356.5625 2784.0208,1509.3958 2899.4167,1587.2292 " fill="none" id="provider-&gt;Landingpages" style="stroke: #61AFEF; stroke-width: 2.0833333333333335; stroke-dasharray: 7.0,7.0;"/><polygon fill="#61AFEF" points="2908.1667,1593.1667,2897.2983,1575.763,2899.5363,1587.3337,2887.9656,1589.5717,2908.1667,1593.1667" style="stroke: #61AFEF; stroke-width: 2.0833333333333335;"/><text fill="#ABB2BF" font-family="CMU Serif" font-size="31.25" lengthAdjust="spacingAndGlyphs" textLength="60.4167" x="2443.75" y="1331.0903">SCP</text><!--MD5=[6b8b6cb65f7536aa25a1197577dacf64]
link provider to extweb--><path d="M1778.6662,1125.5595 C1777.9791,1126.3397 1777.2731,1127.1381 1776.5485,1127.9538 C1764.9551,1141.0052 1748.6055,1158.4974 1728.8099,1177.2396 C1689.2188,1214.724 1635.8438,1257.2083 1579.1667,1279.1667 C1512.125,1305.1458 340.3542,1311.6667 287.5,1360.4167 C265.2448,1380.9427 251.5456,1407.957 243.5391,1437.0231 C239.5358,1451.5562 236.9557,1466.6021 235.4409,1481.6065 C235.0622,1485.3576 234.7501,1489.1061 234.499,1492.8433 " fill="none" id="provider-&gt;extweb" style="stroke: #61AFEF; stroke-width: 2.0833333333333335; stroke-dasharray: 7.0,7.0;"/><polygon fill="#61AFEF" points="234.499,1492.8433,244.0707,1474.6942,235.1974,1482.4501,227.4415,1473.5767,234.499,1492.8433" style="stroke: #61AFEF; stroke-width: 2.0833333333333335;"/><text fill="#ABB2BF" font-family="CMU Serif" font-size="31.25" lengthAdjust="spacingAndGlyphs" textLength="166.6667" x="1347.9167" y="1331.0903">HTTPS-ALT</text><!--MD5=[095ffd1cc7a12ae6d95fdb2daa9c2af4]
link provider to SMTP--><path d="M1796.8459,1195.8794 C1797.2267,1198.2124 1797.6431,1200.5525 1798.0976,1202.8944 C1799.9155,1212.2622 1802.3434,1221.6598 1805.5475,1230.7598 C1811.9557,1248.9596 1821.4688,1265.9688 1835.4167,1279.1667 C1867.4792,1309.5 1890.5,1285.1875 1933.3333,1295.8333 C2022.2708,1317.9375 2075.4583,1286.1458 2129.1667,1360.4167 C2251.25,1529.2292 2248.0833,1658.1042 2129.1667,1829.1667 C1972.125,2055.0625 1588.3542,2079.7708 1478.0208,2082.1458 " fill="none" id="provider-&gt;SMTP" style="stroke: #61AFEF; stroke-width: 2.0833333333333335; stroke-dasharray: 7.0,7.0;"/><polygon fill="#61AFEF" points="1467.0833,2082.3333,1485.9734,2090.3441,1477.4985,2082.1548,1485.6877,2073.6798,1467.0833,2082.3333" style="stroke: #61AFEF; stroke-width: 2.0833333333333335;"/><!--MD5=[9d865ebbcc451878260a98456e2cb5f3]
link extphp to SMTP--><path d="M432.3333,1675.9583 C495.1458,1717.3542 601.7708,1784.125 700,1829.1667 C969.3125,1952.625 1316.9583,2048.0417 1418.7292,2074.7708 " fill="none" id="extphp-&gt;SMTP" style="stroke: #61AFEF; stroke-width: 2.0833333333333335; stroke-dasharray: 7.0,7.0;"/><polygon fill="#61AFEF" points="1428.8542,2077.4167,1412.8348,2064.5953,1418.7789,2074.7715,1408.6027,2080.7156,1428.8542,2077.4167" style="stroke: #61AFEF; stroke-width: 2.0833333333333335;"/><!--MD5=[a1e76b7426e65b2fee94897438ed3f8d]
@startuml





skinparam backgroundColor #282c34

skinparam {
  ActivityBackgroundColor        #424856
  ActivityBarColor               #abb2bf
  ActivityBorderColor            #61afef

  ActivityDiamondBackgroundColor #424856
  ActivityDiamondBorderColor     #61afef

  ActivityEndColor               #e06c75

  ActivityStartColor             #98c379
  ActivityStopColor              #e06c75

  ActorBackgroundColor        #424856
  ActorBorderColor            #61afef

  ActorStereotypeFontColor    #abb2bf

  AgentBackgroundColor       #424856
  AgentBorderColor           #61afef

  ArrowColor #61afef

  ArtifactBackgroundColor     #424856
  ArtifactBorderColor         #61afef

  BackgroundColor #282c34

  BoundaryBackgroundColor     #424856
  BoundaryBorderColor         #61afef

  CardBackgroundColor     #424856
  CardBorderColor         #61afef

  ClassBackgroundColor   #424856
  ClassBorderColor       #abb2bf

  CloudBackgroundColor        #424856
  CloudBorderColor            #61afef

  CollectionsBackgroundColor #424856
  CollectionsBorderColor     #61afef

  ComponentBackgroundColor       #424856
  ComponentBorderColor           #61afef

  ControlBackgroundColor #424856
  ControlBorderColor     #61afef
  ControlFontColor       #abb2bf

  ControlStereotypeFontColor #abb2bf

  DatabaseBackgroundColor       #424856
  DatabaseBorderColor           #61afef

  DefaultFontColor #abb2bf
  DefaultFontSize 15

  DefaultFontName CMU Serif

  Dpi 200

  EntityBackgroundColor #424856
  EntityBorderColor     #61afef

  FileBackgroundColor #424856
  FileBorderColor     #61afef

  FolderBackgroundColor #424856
  FolderBorderColor     #61afef

  FrameBackgroundColor       #424856
  FrameBorderColor           #61afef

  HexagonBackgroundColor #424856
  HexagonBorderColor     #61afef

  InterfaceBackgroundColor       #424856
  InterfaceBorderColor           #61afef

  LegendBackgroundColor   #424856
  LegendBorderColor       #abb2bf

  NodeBackgroundColor       #424856
  NodeBorderColor           #61afef

  NoteBackgroundColor   #e5c07b
  NoteBorderColor       #282c34

  NoteFontColor         #282c34

  ObjectBackgroundColor       #424856
  ObjectBorderColor           #61afef

  PackageBackgroundColor       #282c34
  PackageBorderColor           #61afef

  Padding 2
  ParticipantBackgroundColor #424856
  ParticipantBorderColor     #61afef

  PartitionBackgroundColor transparent
  PartitionBorderColor     #abb2bf

  PersonBackgroundColor #424856
  PersonBorderColor     #61afef

  QueueBackgroundColor       #424856
  QueueBorderColor           #61afef

  RectangleBackgroundColor       #424856
  RectangleBorderColor           #61afef

  SequenceBoxBackgroundColor #424856
  SequenceBoxBorderColor     #61afef

  SequenceDividerBackgroundColor   #424856
  SequenceDividerBorderColor       #abb2bf

  SequenceGroupBackgroundColor       #424856

  SequenceGroupBorderColor           #abb2bf

  SequenceLifeLineBackgroundColor   #282c34
  SequenceLifeLineBorderColor       #61afef

  SequenceNewpageSeparatorColor  #abb2bf

  SequenceReferenceBackgroundColor        transparent
  SequenceReferenceBorderColor            #abb2bf

  SequenceReferenceHeaderBackgroundColor #424856

  Shadowing false

  StackBackgroundColor       #424856
  StackBorderColor           #61afef

  StateBackgroundColor    #424856
  StateBorderColor        #61afef
  StateEndColor           #e06c75

  StateStartColor         #98c379

  StorageBackgroundColor #424856
  StorageBorderColor     #abb2bf

  SwimlaneBorderColor            #abb2bf

  UsecaseBackgroundColor       #424856
  UsecaseBorderColor           #61afef
}



rectangle "Yoda instance" {

    package "Yoda portal" {
        rectangle "Apache webserver" as portalweb {
            rectangle "Python" as python {
            }
            rectangle "davrods" as davrods {
            }
	}

        rectangle "iRODS iCommands" as icommands {
	}

        portalweb .d.> provider
        icommands .d.> provider
    }

    package "Yoda database" {
        database "PostgreSQL" as icatdb{
            rectangle "iRODS database" as iCAT {
            }
        }
    }

    package "Yoda iCAT" {
        rectangle "iRODS iCAT" as provider {
            rectangle "iRODS rules" as icatrules {
            }
            rectangle "iRODS microservices" as icatmicroservices {
            }
        }
    }

    package "Yoda resource" {
        rectangle "iRODS resource" as consumer {
            rectangle "iRODS rules" as rescrules {
            }
            rectangle "iRODS microservices" as rescmicroservices {
            }
        }

        cloud {
          [Storage 1]
        }

        cloud {
          [Storage 2]
        }

        cloud {
          [Storage ...]
        }

        consumer .r- - provider
	consumer .d.> [Storage 1]
	consumer .d.> [Storage 2]
	consumer .d.> [Storage ...]
    }

    provider .d.> iCAT : use

}

rectangle "Yoda Public server" {
    rectangle "Apache webserver" as publicweb {
        rectangle "OAI-PMH service" as moai {
        }
    }

    cloud {
      [JSON storage]
    }

    cloud {
      [Landingpages]
    }

    publicweb .d.> [Landingpages]
    moai .d.> [JSON storage]
}

rectangle "Yoda External User service" {
    rectangle "Apache webserver" as extweb {
        rectangle "PHP" as extphp {
        }
    }

    database "PostgreSQL" as extdb {
        rectangle "External users" as extusers {
        }
    }

    extweb .d.> extusers : use
}

HTTPS - - portalweb
HTTPS -r- publicweb
HTTPS -r- extweb
iCommands - - icommands
provider .d.> [JSON storage] : SCP
provider .d.> [Landingpages] : SCP
provider .d.> extweb : HTTPS-ALT

provider .d.> SMTP
extphp .d.> SMTP

@enduml

PlantUML version 1.2020.02(Sun Mar 01 11:22:07 CET 2020)
(GPL source distribution)
Java Runtime: OpenJDK Runtime Environment
JVM: OpenJDK 64-Bit Server VM
Java Version: 11.0.18+10-post-Debian-1deb11u1
Operating System: Linux
Default Encoding: UTF-8
Language: en
Country: US
--></g></svg>