<?xml version="1.0" encoding="UTF-8" standalone="no"?><svg xmlns="http://www.w3.org/2000/svg" xmlns:xlink="http://www.w3.org/1999/xlink" contentScriptType="application/ecmascript" contentStyleType="text/css" height="991px" preserveAspectRatio="none" style="width:1127px;height:991px;" version="1.1" viewBox="0 0 1127 991" width="1127px" zoomAndPan="magnify"><defs><filter height="300%" id="f14skazy5i16ag" width="300%" x="-1" y="-1"><feGaussianBlur result="blurOut" stdDeviation="2.0"/><feColorMatrix in="blurOut" result="blurOut2" type="matrix" values="0 0 0 0 0 0 0 0 0 0 0 0 0 0 0 0 0 0 .4 0"/><feOffset dx="4.0" dy="4.0" in="blurOut2" result="blurOut3"/><feBlend in="SourceGraphic" in2="blurOut3" mode="normal"/></filter></defs><g><text fill="#000000" font-family="sans-serif" font-size="18" lengthAdjust="spacingAndGlyphs" textLength="260" x="445" y="19.2419">"Yoda Use Cases - level 0 view"</text><!--MD5=[079dbb714ad3dd24b45af7f06b1b7779]
cluster YODA--><rect fill="#FFFFFF" filter="url(#f14skazy5i16ag)" height="524" style="stroke: #000000; stroke-width: 1.5;" width="568" x="333" y="106.5158"/><text fill="#000000" font-family="sans-serif" font-size="14" font-weight="bold" lengthAdjust="spacingAndGlyphs" textLength="35" x="599.5" y="123.4818">Yoda</text><!--MD5=[e2cdf3589e96aad7cbc72040f12901be]
cluster UC_REUSE--><rect fill="#FFFFFF" filter="url(#f14skazy5i16ag)" height="280" style="stroke: #000000; stroke-width: 1.5;" width="230" x="639" y="318.5158"/><text fill="#000000" font-family="sans-serif" font-size="14" font-weight="bold" lengthAdjust="spacingAndGlyphs" textLength="148" x="680" y="335.4818">Reuse published data</text><!--MD5=[740a8b848f952eeae18108992429e46a]
cluster USER--><rect fill="#FFFFFF" filter="url(#f14skazy5i16ag)" height="887" style="stroke: #000000; stroke-width: 1.5;" width="262" x="30" y="93.5158"/><text fill="#000000" font-family="sans-serif" font-size="14" font-weight="bold" lengthAdjust="spacingAndGlyphs" textLength="135" x="93.5" y="110.4818">Authenticated User</text><!--MD5=[77754b67a5522d9a7b3cc4978640b8c0]
cluster Anonymous user--><rect fill="#FFFFFF" filter="url(#f14skazy5i16ag)" height="138" style="stroke: #000000; stroke-width: 1.5;" width="182" x="934" y="323.5158"/><text fill="#000000" font-family="sans-serif" font-size="14" font-weight="bold" lengthAdjust="spacingAndGlyphs" textLength="118" x="966" y="340.4818">Anonymous user</text><ellipse cx="444.4325" cy="161.4989" fill="#FEFECE" filter="url(#f14skazy5i16ag)" rx="65.9325" ry="16.4831" style="stroke: #A80036; stroke-width: 1.5;"/><text fill="#000000" font-family="sans-serif" font-size="14" lengthAdjust="spacingAndGlyphs" textLength="89" x="399.9325" y="167.5329">Manage user</text><ellipse cx="444.6565" cy="230.3472" fill="#FEFECE" filter="url(#f14skazy5i16ag)" rx="74.6565" ry="17.3313" style="stroke: #A80036; stroke-width: 1.5;"/><text fill="#000000" font-family="sans-serif" font-size="14" lengthAdjust="spacingAndGlyphs" textLength="107" x="391.1565" y="236.3811">Manage groups</text><ellipse cx="444.7129" cy="304.4584" fill="#FEFECE" filter="url(#f14skazy5i16ag)" rx="92.7129" ry="20.9426" style="stroke: #A80036; stroke-width: 1.5;"/><text fill="#000000" font-family="sans-serif" font-size="14" lengthAdjust="spacingAndGlyphs" textLength="152" x="368.7129" y="310.4924">Manage research data</text><ellipse cx="753.8467" cy="277.4989" fill="#FEFECE" filter="url(#f14skazy5i16ag)" rx="67.3467" ry="16.4831" style="stroke: #A80036; stroke-width: 1.5;"/><text fill="#000000" font-family="sans-serif" font-size="14" lengthAdjust="spacingAndGlyphs" textLength="91" x="708.3467" y="283.5329">Transfer data</text><ellipse cx="753.8117" cy="207.5782" fill="#FEFECE" filter="url(#f14skazy5i16ag)" rx="80.8117" ry="18.5623" style="stroke: #A80036; stroke-width: 1.5;"/><text fill="#000000" font-family="sans-serif" font-size="14" lengthAdjust="spacingAndGlyphs" textLength="123" x="692.3117" y="213.6121">Manage metadata</text><ellipse cx="444.397" cy="377.4989" fill="#FEFECE" filter="url(#f14skazy5i16ag)" rx="62.397" ry="16.4831" style="stroke: #A80036; stroke-width: 1.5;"/><text fill="#000000" font-family="sans-serif" font-size="14" lengthAdjust="spacingAndGlyphs" textLength="84" x="402.397" y="383.5329">Archive data</text><ellipse cx="444.397" cy="445.4989" fill="#FEFECE" filter="url(#f14skazy5i16ag)" rx="62.397" ry="16.4831" style="stroke: #A80036; stroke-width: 1.5;"/><text fill="#000000" font-family="sans-serif" font-size="14" lengthAdjust="spacingAndGlyphs" textLength="84" x="402.397" y="451.5329">Publish data</text><ellipse cx="444.5446" cy="594.6248" fill="#FEFECE" filter="url(#f14skazy5i16ag)" rx="86.0446" ry="19.6089" style="stroke: #A80036; stroke-width: 1.5;"/><text fill="#000000" font-family="sans-serif" font-size="14" lengthAdjust="spacingAndGlyphs" textLength="136" x="376.5446" y="600.6587">Request closed data</text><ellipse cx="444.2681" cy="518.4695" fill="#FEFECE" filter="url(#f14skazy5i16ag)" rx="95.2681" ry="21.4536" style="stroke: #A80036; stroke-width: 1.5;"/><text fill="#000000" font-family="sans-serif" font-size="14" lengthAdjust="spacingAndGlyphs" textLength="158" x="365.2681" y="524.5034">Ingest experiment data</text><ellipse cx="753.7773" cy="403.3713" fill="#FEFECE" filter="url(#f14skazy5i16ag)" rx="87.2773" ry="19.8555" style="stroke: #A80036; stroke-width: 1.5;"/><text fill="#000000" font-family="sans-serif" font-size="14" lengthAdjust="spacingAndGlyphs" textLength="139" x="684.2773" y="409.4053">Download open data</text><ellipse cx="754.025" cy="479.6209" fill="#FEFECE" filter="url(#f14skazy5i16ag)" rx="91.025" ry="20.605" style="stroke: #A80036; stroke-width: 1.5;"/><text fill="#000000" font-family="sans-serif" font-size="14" lengthAdjust="spacingAndGlyphs" textLength="148" x="680.025" y="485.6548">Download closed data</text><ellipse cx="754.2278" cy="554.4614" fill="#FEFECE" filter="url(#f14skazy5i16ag)" rx="85.2278" ry="19.4456" style="stroke: #A80036; stroke-width: 1.5;"/><text fill="#000000" font-family="sans-serif" font-size="14" lengthAdjust="spacingAndGlyphs" textLength="134" x="687.2278" y="560.4954">Provide dataset info</text><!--MD5=[e1c8081d9970b9b7b83adc32ee9c7782]
entity GM--><ellipse cx="161" cy="168.0158" fill="#FEFECE" filter="url(#f14skazy5i16ag)" rx="8" ry="8" style="stroke: #A80036; stroke-width: 1.5;"/><path d="M161,176.0158 L161,203.0158 M148,184.0158 L174,184.0158 M161,203.0158 L148,218.0158 M161,203.0158 L174,218.0158 " fill="none" filter="url(#f14skazy5i16ag)" style="stroke: #A80036; stroke-width: 1.5;"/><text fill="#000000" font-family="sans-serif" font-size="14" lengthAdjust="spacingAndGlyphs" textLength="106" x="108" y="238.4818">group manager</text><!--MD5=[9c7b37a068f1cdf47f6f3f682bb1812d]
entity DM--><ellipse cx="161" cy="406.0158" fill="#FEFECE" filter="url(#f14skazy5i16ag)" rx="8" ry="8" style="stroke: #A80036; stroke-width: 1.5;"/><path d="M161,414.0158 L161,441.0158 M148,422.0158 L174,422.0158 M161,441.0158 L148,456.0158 M161,441.0158 L174,456.0158 " fill="none" filter="url(#f14skazy5i16ag)" style="stroke: #A80036; stroke-width: 1.5;"/><text fill="#000000" font-family="sans-serif" font-size="14" lengthAdjust="spacingAndGlyphs" textLength="91" x="115.5" y="476.4818">datamanager</text><!--MD5=[ca4fca654d8994778fee589c6b3ae58e]
entity R--><ellipse cx="161" cy="287.0158" fill="#FEFECE" filter="url(#f14skazy5i16ag)" rx="8" ry="8" style="stroke: #A80036; stroke-width: 1.5;"/><path d="M161,295.0158 L161,322.0158 M148,303.0158 L174,303.0158 M161,322.0158 L148,337.0158 M161,322.0158 L174,337.0158 " fill="none" filter="url(#f14skazy5i16ag)" style="stroke: #A80036; stroke-width: 1.5;"/><text fill="#000000" font-family="sans-serif" font-size="14" lengthAdjust="spacingAndGlyphs" textLength="73" x="124.5" y="357.4818">researcher</text><!--MD5=[fe067aa7e98a9b02b3bc10be26dbd487]
entity GUEST--><ellipse cx="161" cy="763.0158" fill="#FEFECE" filter="url(#f14skazy5i16ag)" rx="8" ry="8" style="stroke: #A80036; stroke-width: 1.5;"/><path d="M161,771.0158 L161,798.0158 M148,779.0158 L174,779.0158 M161,798.0158 L148,813.0158 M161,798.0158 L174,813.0158 " fill="none" filter="url(#f14skazy5i16ag)" style="stroke: #A80036; stroke-width: 1.5;"/><text fill="#000000" font-family="sans-serif" font-size="14" lengthAdjust="spacingAndGlyphs" textLength="115" x="103.5" y="833.4818">guest researcher</text><!--MD5=[1240995e1a5c7946ae238581d45e25f6]
entity DAC--><ellipse cx="161" cy="644.0158" fill="#FEFECE" filter="url(#f14skazy5i16ag)" rx="8" ry="8" style="stroke: #A80036; stroke-width: 1.5;"/><path d="M161,652.0158 L161,679.0158 M148,660.0158 L174,660.0158 M161,679.0158 L148,694.0158 M161,679.0158 L174,694.0158 " fill="none" filter="url(#f14skazy5i16ag)" style="stroke: #A80036; stroke-width: 1.5;"/><text fill="#000000" font-family="sans-serif" font-size="14" lengthAdjust="spacingAndGlyphs" textLength="214" x="54" y="714.4818">data access committee member</text><!--MD5=[1035515eb14b5228f153ae78bdf69e99]
entity PM--><ellipse cx="161" cy="882.0158" fill="#FEFECE" filter="url(#f14skazy5i16ag)" rx="8" ry="8" style="stroke: #A80036; stroke-width: 1.5;"/><path d="M161,890.0158 L161,917.0158 M148,898.0158 L174,898.0158 M161,917.0158 L148,932.0158 M161,917.0158 L174,932.0158 " fill="none" filter="url(#f14skazy5i16ag)" style="stroke: #A80036; stroke-width: 1.5;"/><text fill="#000000" font-family="sans-serif" font-size="14" lengthAdjust="spacingAndGlyphs" textLength="112" x="105" y="952.4818">project manager</text><!--MD5=[1200cabd2a84086424de0b397dfd2f71]
entity L--><ellipse cx="161" cy="525.0158" fill="#FEFECE" filter="url(#f14skazy5i16ag)" rx="8" ry="8" style="stroke: #A80036; stroke-width: 1.5;"/><path d="M161,533.0158 L161,560.0158 M148,541.0158 L174,541.0158 M161,560.0158 L148,575.0158 M161,560.0158 L174,575.0158 " fill="none" filter="url(#f14skazy5i16ag)" style="stroke: #A80036; stroke-width: 1.5;"/><text fill="#000000" font-family="sans-serif" font-size="14" lengthAdjust="spacingAndGlyphs" textLength="85" x="118.5" y="595.4818">lab assistent</text><!--MD5=[14f8f90d98852887e9e69c764468f2e9]
entity ANONYMOUS--><ellipse cx="1025" cy="371.0158" fill="#FEFECE" filter="url(#f14skazy5i16ag)" rx="8" ry="8" style="stroke: #A80036; stroke-width: 1.5;"/><path d="M1025,379.0158 L1025,406.0158 M1012,387.0158 L1038,387.0158 M1025,406.0158 L1012,421.0158 M1025,406.0158 L1038,421.0158 " fill="none" filter="url(#f14skazy5i16ag)" style="stroke: #A80036; stroke-width: 1.5;"/><text fill="#000000" font-family="sans-serif" font-size="14" lengthAdjust="spacingAndGlyphs" textLength="150" x="950" y="441.4818">Anonymous reseacher</text><!--MD5=[e56e4366cde3eef872d9e747b8a95682]
entity DATACITE--><rect fill="#FEFECE" filter="url(#f14skazy5i16ag)" height="58.1358" style="stroke: #000000; stroke-width: 1.5;" width="86" x="711" y="32.5158"/><text fill="#000000" font-family="sans-serif" font-size="14" font-style="italic" lengthAdjust="spacingAndGlyphs" textLength="66" x="721" y="57.4818">«external»</text><text fill="#000000" font-family="sans-serif" font-size="14" lengthAdjust="spacingAndGlyphs" textLength="55" x="726.5" y="76.5497">Datacite</text><!--MD5=[c4022ee788ff3edb7044c5acd797ed54]
entity HARVESTER--><rect fill="#FEFECE" filter="url(#f14skazy5i16ag)" height="58.1358" style="stroke: #000000; stroke-width: 1.5;" width="86" x="982" y="525.5158"/><text fill="#000000" font-family="sans-serif" font-size="14" font-style="italic" lengthAdjust="spacingAndGlyphs" textLength="66" x="992" y="550.4818">«external»</text><text fill="#000000" font-family="sans-serif" font-size="14" lengthAdjust="spacingAndGlyphs" textLength="65" x="992.5" y="569.5497">Harvester</text><!--MD5=[d0d0bfe917071b4720f5ae9dc2f6272d]
link GM to UC_GROUPS--><path d="M214.29,206.0858 C258.48,210.7958 322.25,217.5958 371.31,222.8258 " fill="none" id="GM-&gt;UC_GROUPS" style="stroke: #A80036; stroke-width: 1.0;"/><polygon fill="#A80036" points="376.31,223.3558,367.7833,218.4267,371.338,222.8272,366.9375,226.3819,376.31,223.3558" style="stroke: #A80036; stroke-width: 1.0;"/><!--MD5=[c28959c3ebc4a99f70bba4326002ce7b]
link R to UC_RESEARCH--><path d="M197.65,317.6158 C235.56,315.5958 297.1,312.3158 349.12,309.5458 " fill="none" id="R-&gt;UC_RESEARCH" style="stroke: #A80036; stroke-width: 1.0;"/><polygon fill="#A80036" points="354.13,309.2758,344.9264,305.7696,349.1374,309.5469,345.3601,313.7578,354.13,309.2758" style="stroke: #A80036; stroke-width: 1.0;"/><!--MD5=[35939ce8ef223e41f701b589dfea4a68]
link R to UC_ARCHIVE--><path d="M197.65,326.8658 C246.05,336.8358 332.96,354.7358 389.42,366.3758 " fill="none" id="R-&gt;UC_ARCHIVE" style="stroke: #A80036; stroke-width: 1.0;"/><polygon fill="#A80036" points="394.44,367.4058,386.4376,361.6646,389.5438,366.3923,384.816,369.4985,394.44,367.4058" style="stroke: #A80036; stroke-width: 1.0;"/><!--MD5=[88df24b3b0681a94a482dabad978cb00]
link DM to UC_ARCHIVE--><path d="M206.6,428.8458 C256.47,418.0458 337.16,400.5558 390.28,389.0458 " fill="none" id="DM-&gt;UC_ARCHIVE" style="stroke: #A80036; stroke-width: 1.0;"/><polygon fill="#A80036" points="395.33,387.9558,385.6876,385.9496,390.4431,389.0132,387.3795,393.7687,395.33,387.9558" style="stroke: #A80036; stroke-width: 1.0;"/><!--MD5=[959e93bfd2ea252321f1c1520643af80]
link R to UC_PUBLISH--><path d="M197.63,326.4858 C229.78,334.3558 276.7,349.9558 308,378.5158 C320.19,389.6358 312.25,401.0458 325,411.5158 C341.09,424.7258 362.06,432.8058 381.88,437.7458 " fill="none" id="R-&gt;UC_PUBLISH" style="stroke: #A80036; stroke-width: 1.0;"/><polygon fill="#A80036" points="386.89,438.9358,379.062,432.959,382.0261,437.7771,377.208,440.7412,386.89,438.9358" style="stroke: #A80036; stroke-width: 1.0;"/><!--MD5=[63db14231ec1503f10d9190fb776da05]
link DM to UC_PUBLISH--><path d="M206.6,439.6258 C252.49,440.7658 324.48,442.5558 377.06,443.8658 " fill="none" id="DM-&gt;UC_PUBLISH" style="stroke: #A80036; stroke-width: 1.0;"/><polygon fill="#A80036" points="382.09,443.9858,373.1958,439.7558,377.0917,443.8573,372.9902,447.7532,382.09,443.9858" style="stroke: #A80036; stroke-width: 1.0;"/><!--MD5=[526237dd458a812c29177d12e55313dc]
link L to UC_INTAKE--><path d="M203.54,551.7658 C243.9,546.1658 306.42,537.5058 357.52,530.4258 " fill="none" id="L-&gt;UC_INTAKE" style="stroke: #A80036; stroke-width: 1.0;"/><polygon fill="#A80036" points="362.75,529.7058,353.2868,526.9768,357.7972,530.391,354.383,534.9013,362.75,529.7058" style="stroke: #A80036; stroke-width: 1.0;"/><!--MD5=[0b4d6cad728b7c9aadc3f67c3e71ccd5]
link DM to UC_INTAKE--><path d="M206.6,451.1958 C253.16,464.4258 326.6,485.2958 379.38,500.2958 " fill="none" id="DM-&gt;UC_INTAKE" style="stroke: #A80036; stroke-width: 1.0;"/><polygon fill="#A80036" points="384.42,501.7258,376.8429,495.434,379.6076,500.3692,374.6723,503.1339,384.42,501.7258" style="stroke: #A80036; stroke-width: 1.0;"/><!--MD5=[e2504ef4c50ca23326aeb84ab057aafa]
link DM to UC_DATA_REQUEST--><path d="M206.62,445.7658 C239.09,453.3158 281.8,468.3158 308,497.5158 C326.51,518.1458 305.66,537.6558 325,557.5158 C336.31,569.1258 351.2,577.1158 366.6,582.5958 " fill="none" id="DM-&gt;UC_DATA_REQUEST" style="stroke: #A80036; stroke-width: 1.0;"/><polygon fill="#A80036" points="371.39,584.2158,364.1588,577.5293,366.6567,582.6048,361.5811,585.1026,371.39,584.2158" style="stroke: #A80036; stroke-width: 1.0;"/><!--MD5=[8877f63ea25807e0cd4e3a6dcf2f2e10]
link DAC to UC_DATA_REQUEST--><path d="M268.02,645.6358 C307.98,633.9958 351.92,621.1958 385.84,611.3158 " fill="none" id="DAC-&gt;UC_DATA_REQUEST" style="stroke: #A80036; stroke-width: 1.0;"/><polygon fill="#A80036" points="390.77,609.8758,381.01,608.5558,385.97,611.2758,383.25,616.2358,390.77,609.8758" style="stroke: #A80036; stroke-width: 1.0;"/><!--MD5=[b3f4f90e8be502631093cacae934d628]
link PM to UC_DATA_REQUEST--><path d="M217.34,901.7158 C247.02,892.5858 282.61,877.7058 308,854.5158 C381.94,786.9758 422.26,669.6858 436.97,619.0058 " fill="none" id="PM-&gt;UC_DATA_REQUEST" style="stroke: #A80036; stroke-width: 1.0;"/><polygon fill="#A80036" points="438.39,614.0258,432.0773,621.5856,437.0202,618.8345,439.7713,623.7774,438.39,614.0258" style="stroke: #A80036; stroke-width: 1.0;"/><!--MD5=[ff85c8bf42830b8db1feceec3377e6e8]
link GUEST to UC_DATA_REQUEST--><path d="M218.82,778.3758 C247.04,768.3558 280.81,754.0158 308,735.5158 C357.15,702.0558 402.47,648.3858 426.2,617.8158 " fill="none" id="GUEST-&gt;UC_DATA_REQUEST" style="stroke: #A80036; stroke-width: 1.0;"/><polygon fill="#A80036" points="429.26,613.8458,420.5923,618.5225,426.2032,617.8026,426.9231,623.4134,429.26,613.8458" style="stroke: #A80036; stroke-width: 1.0;"/><!--MD5=[b69a84dc61f577be818d712c7f2e2827]
link GUEST to UC_REUSE_CLOSED--><path d="M218.88,793.5058 C317.7,786.6458 519.63,756.9958 615,630.5158 C630.16,610.4158 607.2,537.1158 623,517.5158 C633.83,504.0758 649.14,495.2258 665.47,489.4258 " fill="none" id="GUEST-&gt;UC_REUSE_CLOSED" style="stroke: #A80036; stroke-width: 1.0;"/><polygon fill="#A80036" points="670.57,487.7258,660.7661,486.786,665.828,489.3113,663.3028,494.3732,670.57,487.7258" style="stroke: #A80036; stroke-width: 1.0;"/><!--MD5=[d3bf33afb7863546b40eeb020965a696]
reverse link UC_HARVEST to HARVESTER--><path d="M844.05,554.5158 C890.49,554.5158 945.13,554.5158 981.91,554.5158 " fill="none" id="UC_HARVEST&lt;-HARVESTER" style="stroke: #A80036; stroke-width: 1.0;"/><polygon fill="#A80036" points="839.01,554.5158,848.01,558.5158,844.01,554.5158,848.01,550.5158,839.01,554.5158" style="stroke: #A80036; stroke-width: 1.0;"/><!--MD5=[280c92c0271229eada25db9e7ac08618]
link USER to UC_USER--><path d="M292.024,140.3696 C292.281,140.4039 292.5379,140.4382 292.7947,140.4725 C293.8218,140.6098 294.8468,140.7469 295.8693,140.8838 C299.9595,141.4315 304.0106,141.9765 308,142.5158 C332.07,145.7658 358.54,149.4558 381.64,152.7058 " fill="none" id="USER-&gt;UC_USER" style="stroke: #A80036; stroke-width: 1.0;"/><polygon fill="#A80036" points="386.82,153.4358,378.4677,148.2167,381.8691,152.7367,377.3491,156.1381,386.82,153.4358" style="stroke: #A80036; stroke-width: 1.0;"/><!--MD5=[787ab6edb776164f18a0309c48eba408]
reverse link UC_REUSE_OPEN to ANONYMOUS--><path d="M846.94,403.5158 C880.48,403.5158 917.96,403.5158 949.77,403.5158 " fill="none" id="UC_REUSE_OPEN&lt;-ANONYMOUS" style="stroke: #A80036; stroke-width: 1.0;"/><polygon fill="#A80036" points="841.59,403.5158,850.59,407.5158,846.59,403.5158,850.59,399.5158,841.59,403.5158" style="stroke: #A80036; stroke-width: 1.0;"/><!--MD5=[6b09f42fbeff5b3b820019f122f13dc9]
link UC_PUBLISH to DATACITE--><path d="M498.59,437.0758 C514.05,432.0858 529.56,424.1458 540,411.5158 C594.74,345.2758 541.41,301.5458 570,220.5158 C585.7,176.0158 588.86,161.0958 623,128.5158 C646.6,105.9858 679.27,89.1958 705.95,78.0558 " fill="none" id="UC_PUBLISH-&gt;DATACITE" style="stroke: #A80036; stroke-width: 1.0;"/><polygon fill="#A80036" points="710.86,76.0458,701.0157,75.7478,706.2316,77.9373,704.042,83.1533,710.86,76.0458" style="stroke: #A80036; stroke-width: 1.0;"/><!--MD5=[7b3eef7215b8a2b9285679c3705d6780]
link UC_PUBLISH to UC_REUSE--><path d="M484.61,432.8458 C501.82,426.9058 522.14,419.4158 540,411.5158 C578.18,394.6258 583.32,380.5058 623,367.5158 C626.4144,366.3983 629.9007,365.3464 633.4372,364.3563 C635.2055,363.8612 636.9863,363.3815 638.7769,362.9168 " fill="none" id="UC_PUBLISH-UC_REUSE" style="stroke: #A80036; stroke-width: 1.0; stroke-dasharray: 7.0,7.0;"/><!--MD5=[a40695db226b50ea548b934bde61367d]
link UC_RESEARCH to UC_TRANSFER--><path d="M531.16,296.9958 C579.75,292.7258 639.72,287.4658 685.05,283.4858 " fill="none" id="UC_RESEARCH-&gt;UC_TRANSFER" style="stroke: #A80036; stroke-width: 1.0;"/><polygon fill="#A80036" points="690.23,283.0258,680.9106,279.8402,685.2497,283.4695,681.6204,287.8086,690.23,283.0258" style="stroke: #A80036; stroke-width: 1.0;"/><text fill="#000000" font-family="sans-serif" font-size="13" lengthAdjust="spacingAndGlyphs" textLength="43" x="571" y="286.4129">include</text><!--MD5=[330aca98aae4420c978446d4b1253577]
reverse link UC_RESEARCH to UC_METADATA--><path d="M499.67,284.9458 C534.68,272.5258 581.32,256.4358 623,243.5158 C648.16,235.7158 676.32,227.8158 699.97,221.4158 " fill="none" id="UC_RESEARCH&lt;-UC_METADATA" style="stroke: #A80036; stroke-width: 1.0;"/><polygon fill="#A80036" points="494.59,286.7458,504.4093,287.5084,499.3026,285.075,501.736,279.9683,494.59,286.7458" style="stroke: #A80036; stroke-width: 1.0;"/><text fill="#000000" font-family="sans-serif" font-size="13" lengthAdjust="spacingAndGlyphs" textLength="42" x="571.5" y="243.4129">extend</text><!--MD5=[025f7911db79e784b56f08b9c5b115dc]
link UC_DATA_REQUEST to UC_REUSE_CLOSED--><path d="M490.01,577.8858 C505.9,571.7458 523.85,564.5558 540,557.5158 C577.54,541.1458 584.77,532.1958 623,517.5158 C643.83,509.5158 667.08,502.2258 688.09,496.2158 " fill="none" id="UC_DATA_REQUEST-&gt;UC_REUSE_CLOSED" style="stroke: #A80036; stroke-width: 1.0;"/><polygon fill="#A80036" points="693.1,494.7958,683.3485,493.4146,688.2913,496.1657,685.5402,501.1085,693.1,494.7958" style="stroke: #A80036; stroke-width: 1.0;"/><text fill="#000000" font-family="sans-serif" font-size="13" lengthAdjust="spacingAndGlyphs" textLength="43" x="571" y="517.4129">include</text><!--MD5=[c03955ea6a250ae73a784d2547d6c653]
@startuml
title "Yoda Use Cases - level 0 view"
left to right direction


rectangle "Yoda" as YODA {
  usecase "Manage user" as UC_USER 
  usecase "Manage groups" as UC_GROUPS
  usecase "Manage research data" as UC_RESEARCH
    usecase "Transfer data" as UC_TRANSFER
    usecase "Manage metadata" as UC_METADATA
  usecase "Archive data" as UC_ARCHIVE
  usecase "Publish data" as UC_PUBLISH
  rectangle "Reuse published data" as UC_REUSE {
    usecase "Download open data" as UC_REUSE_OPEN
    usecase "Download closed data" as UC_REUSE_CLOSED
    usecase "Provide dataset info" as UC_HARVEST
  }
  usecase "Request closed data" as UC_DATA_REQUEST
  usecase "Ingest experiment data" as UC_INTAKE
}


rectangle "Authenticated User" as USER {
  actor "group manager" as GM
  actor "datamanager" as DM
  actor "researcher" as R
  actor "guest researcher" as GUEST
  actor "data access committee member" as DAC
  actor "project manager" as PM
  actor "lab assistent" as L
}

rectangle "Anonymous user" {
  actor "Anonymous reseacher" as ANONYMOUS
}


rectangle "Datacite" <<external>> as DATACITE

rectangle "Harvester" <<external>> AS HARVESTER




GM - -> UC_GROUPS
R - -> UC_RESEARCH
R - -> UC_ARCHIVE
DM - -> UC_ARCHIVE
R - -> UC_PUBLISH
DM - -> UC_PUBLISH
L - -> UC_INTAKE
DM - -> UC_INTAKE
DM - -> UC_DATA_REQUEST
DAC - -> UC_DATA_REQUEST
PM - -> UC_DATA_REQUEST
GUEST - -> UC_DATA_REQUEST 
GUEST - -> UC_REUSE_CLOSED
UC_HARVEST <- - HARVESTER 
USER - -> UC_USER
UC_REUSE_OPEN <- - ANONYMOUS
UC_PUBLISH - -> DATACITE


UC_PUBLISH .. UC_REUSE
UC_RESEARCH - -> UC_TRANSFER : include
UC_RESEARCH <- - UC_METADATA : extend
UC_DATA_REQUEST - -> UC_REUSE_CLOSED : include

@enduml

PlantUML version 1.2020.02(Sun Mar 01 11:22:07 CET 2020)
(GPL source distribution)
Java Runtime: OpenJDK Runtime Environment
JVM: OpenJDK 64-Bit Server VM
Java Version: 17.0.9+9-Debian-1deb12u1
Operating System: Linux
Default Encoding: UTF-8
Language: en
Country: US
--></g></svg>