<?xml version="1.0" encoding="UTF-8" standalone="no"?><svg xmlns="http://www.w3.org/2000/svg" xmlns:xlink="http://www.w3.org/1999/xlink" contentScriptType="application/ecmascript" contentStyleType="text/css" height="2065px" preserveAspectRatio="none" style="width:1291px;height:2065px;" version="1.1" viewBox="0 0 1291 2065" width="1291px" zoomAndPan="magnify"><defs/><g><text fill="#000000" font-family="sans-serif" font-size="18" lengthAdjust="spacingAndGlyphs" textLength="114" x="584.25" y="31.2419">Yoda &amp; SRAM</text><rect fill="#FFFFFF" height="155.8241" style="stroke: #A80036; stroke-width: 1.0;" width="10" x="432.5" y="218.9958"/><rect fill="#FFFFFF" height="84.412" style="stroke: #A80036; stroke-width: 1.0;" width="10" x="432.5" y="460.2319"/><rect fill="#FFFFFF" height="84.412" style="stroke: #A80036; stroke-width: 1.0;" width="10" x="432.5" y="1068.1161"/><rect fill="#FFFFFF" height="107.118" style="stroke: #A80036; stroke-width: 1.0;" width="10" x="432.5" y="1461.4703"/><rect fill="#FFFFFF" height="107.118" style="stroke: #A80036; stroke-width: 1.0;" width="10" x="432.5" y="1654.0004"/><rect fill="#FFFFFF" height="107.118" style="stroke: #A80036; stroke-width: 1.0;" width="10" x="432.5" y="1846.5304"/><rect fill="#FFFFFF" height="35.706" style="stroke: #A80036; stroke-width: 1.0;" width="10" x="894.5" y="254.7018"/><rect fill="#FFFFFF" height="178.5301" style="stroke: #A80036; stroke-width: 1.0;" width="10" x="894.5" y="652.056"/><rect fill="#FFFFFF" height="84.412" style="stroke: #A80036; stroke-width: 1.0;" width="10" x="894.5" y="898.2921"/><rect fill="#FFFFFF" height="35.706" style="stroke: #A80036; stroke-width: 1.0;" width="10" x="894.5" y="1152.5282"/><rect fill="#FFFFFF" height="113.118" style="stroke: #A80036; stroke-width: 1.0;" width="10" x="894.5" y="1255.9402"/><rect fill="#FFFFFF" height="35.706" style="stroke: #A80036; stroke-width: 1.0;" width="10" x="894.5" y="1497.1763"/><rect fill="#FFFFFF" height="35.706" style="stroke: #A80036; stroke-width: 1.0;" width="10" x="894.5" y="1689.7064"/><rect fill="#FFFFFF" height="35.706" style="stroke: #A80036; stroke-width: 1.0;" width="10" x="894.5" y="1882.2365"/><rect fill="#FFFFFF" height="35.706" style="stroke: #A80036; stroke-width: 1.0;" width="10" x="1206.5" y="687.762"/><rect fill="#FFFFFF" height="35.706" style="stroke: #A80036; stroke-width: 1.0;" width="10" x="1206.5" y="1291.6462"/><line style="stroke: #A80036; stroke-width: 1.0;" x1="51" x2="51" y1="131.5838" y2="592.3499"/><line style="stroke: #A80036; stroke-width: 1.0; stroke-dasharray: 1.0,4.0;" x1="51" x2="51" y1="592.3499" y2="624.3499"/><line style="stroke: #A80036; stroke-width: 1.0;" x1="51" x2="51" y1="624.3499" y2="838.586"/><line style="stroke: #A80036; stroke-width: 1.0; stroke-dasharray: 1.0,4.0;" x1="51" x2="51" y1="838.586" y2="870.586"/><line style="stroke: #A80036; stroke-width: 1.0;" x1="51" x2="51" y1="870.586" y2="1196.2342"/><line style="stroke: #A80036; stroke-width: 1.0; stroke-dasharray: 1.0,4.0;" x1="51" x2="51" y1="1196.2342" y2="1228.2342"/><line style="stroke: #A80036; stroke-width: 1.0;" x1="51" x2="51" y1="1228.2342" y2="1971.6485"/><line style="stroke: #A80036; stroke-width: 1.0;" x1="162" x2="162" y1="131.5838" y2="592.3499"/><line style="stroke: #A80036; stroke-width: 1.0; stroke-dasharray: 1.0,4.0;" x1="162" x2="162" y1="592.3499" y2="624.3499"/><line style="stroke: #A80036; stroke-width: 1.0;" x1="162" x2="162" y1="624.3499" y2="838.586"/><line style="stroke: #A80036; stroke-width: 1.0; stroke-dasharray: 1.0,4.0;" x1="162" x2="162" y1="838.586" y2="870.586"/><line style="stroke: #A80036; stroke-width: 1.0;" x1="162" x2="162" y1="870.586" y2="1196.2342"/><line style="stroke: #A80036; stroke-width: 1.0; stroke-dasharray: 1.0,4.0;" x1="162" x2="162" y1="1196.2342" y2="1228.2342"/><line style="stroke: #A80036; stroke-width: 1.0;" x1="162" x2="162" y1="1228.2342" y2="1971.6485"/><line style="stroke: #A80036; stroke-width: 1.0;" x1="437" x2="437" y1="131.5838" y2="592.3499"/><line style="stroke: #A80036; stroke-width: 1.0; stroke-dasharray: 1.0,4.0;" x1="437" x2="437" y1="592.3499" y2="624.3499"/><line style="stroke: #A80036; stroke-width: 1.0;" x1="437" x2="437" y1="624.3499" y2="838.586"/><line style="stroke: #A80036; stroke-width: 1.0; stroke-dasharray: 1.0,4.0;" x1="437" x2="437" y1="838.586" y2="870.586"/><line style="stroke: #A80036; stroke-width: 1.0;" x1="437" x2="437" y1="870.586" y2="1196.2342"/><line style="stroke: #A80036; stroke-width: 1.0; stroke-dasharray: 1.0,4.0;" x1="437" x2="437" y1="1196.2342" y2="1228.2342"/><line style="stroke: #A80036; stroke-width: 1.0;" x1="437" x2="437" y1="1228.2342" y2="1971.6485"/><line style="stroke: #A80036; stroke-width: 1.0;" x1="899" x2="899" y1="131.5838" y2="592.3499"/><line style="stroke: #A80036; stroke-width: 1.0; stroke-dasharray: 1.0,4.0;" x1="899" x2="899" y1="592.3499" y2="624.3499"/><line style="stroke: #A80036; stroke-width: 1.0;" x1="899" x2="899" y1="624.3499" y2="838.586"/><line style="stroke: #A80036; stroke-width: 1.0; stroke-dasharray: 1.0,4.0;" x1="899" x2="899" y1="838.586" y2="870.586"/><line style="stroke: #A80036; stroke-width: 1.0;" x1="899" x2="899" y1="870.586" y2="1196.2342"/><line style="stroke: #A80036; stroke-width: 1.0; stroke-dasharray: 1.0,4.0;" x1="899" x2="899" y1="1196.2342" y2="1228.2342"/><line style="stroke: #A80036; stroke-width: 1.0;" x1="899" x2="899" y1="1228.2342" y2="1971.6485"/><line style="stroke: #A80036; stroke-width: 1.0;" x1="1211.5" x2="1211.5" y1="131.5838" y2="592.3499"/><line style="stroke: #A80036; stroke-width: 1.0; stroke-dasharray: 1.0,4.0;" x1="1211.5" x2="1211.5" y1="592.3499" y2="624.3499"/><line style="stroke: #A80036; stroke-width: 1.0;" x1="1211.5" x2="1211.5" y1="624.3499" y2="838.586"/><line style="stroke: #A80036; stroke-width: 1.0; stroke-dasharray: 1.0,4.0;" x1="1211.5" x2="1211.5" y1="838.586" y2="870.586"/><line style="stroke: #A80036; stroke-width: 1.0;" x1="1211.5" x2="1211.5" y1="870.586" y2="1196.2342"/><line style="stroke: #A80036; stroke-width: 1.0; stroke-dasharray: 1.0,4.0;" x1="1211.5" x2="1211.5" y1="1196.2342" y2="1228.2342"/><line style="stroke: #A80036; stroke-width: 1.0;" x1="1211.5" x2="1211.5" y1="1228.2342" y2="1971.6485"/><text fill="#000000" font-family="sans-serif" font-size="14" lengthAdjust="spacingAndGlyphs" textLength="76" x="10" y="125.4818">Researcher</text><ellipse cx="51" cy="55.5158" fill="#FEFECE" rx="8" ry="8" style="stroke: #A80036; stroke-width: 2.0;"/><path d="M51,63.5158 L51,90.5158 M38,71.5158 L64,71.5158 M51,90.5158 L38,105.5158 M51,90.5158 L64,105.5158 " fill="none" style="stroke: #A80036; stroke-width: 2.0;"/><text fill="#000000" font-family="sans-serif" font-size="14" lengthAdjust="spacingAndGlyphs" textLength="76" x="10" y="1987.6144">Researcher</text><ellipse cx="51" cy="2003.7164" fill="#FEFECE" rx="8" ry="8" style="stroke: #A80036; stroke-width: 2.0;"/><path d="M51,2011.7164 L51,2038.7164 M38,2019.7164 L64,2019.7164 M51,2038.7164 L38,2053.7164 M51,2038.7164 L64,2053.7164 " fill="none" style="stroke: #A80036; stroke-width: 2.0;"/><text fill="#000000" font-family="sans-serif" font-size="14" lengthAdjust="spacingAndGlyphs" textLength="107" x="106" y="125.4818">Group Manager</text><ellipse cx="162.5" cy="55.5158" fill="#FEFECE" rx="8" ry="8" style="stroke: #A80036; stroke-width: 2.0;"/><path d="M162.5,63.5158 L162.5,90.5158 M149.5,71.5158 L175.5,71.5158 M162.5,90.5158 L149.5,105.5158 M162.5,90.5158 L175.5,105.5158 " fill="none" style="stroke: #A80036; stroke-width: 2.0;"/><text fill="#000000" font-family="sans-serif" font-size="14" lengthAdjust="spacingAndGlyphs" textLength="107" x="106" y="1987.6144">Group Manager</text><ellipse cx="162.5" cy="2003.7164" fill="#FEFECE" rx="8" ry="8" style="stroke: #A80036; stroke-width: 2.0;"/><path d="M162.5,2011.7164 L162.5,2038.7164 M149.5,2019.7164 L175.5,2019.7164 M162.5,2038.7164 L149.5,2053.7164 M162.5,2038.7164 L175.5,2053.7164 " fill="none" style="stroke: #A80036; stroke-width: 2.0;"/><rect fill="#FEFECE" height="37.0679" style="stroke: #A80036; stroke-width: 1.5;" width="51" x="412" y="93.5158"/><text fill="#000000" font-family="sans-serif" font-size="14" lengthAdjust="spacingAndGlyphs" textLength="33" x="421" y="117.4818">Yoda</text><rect fill="#FEFECE" height="37.0679" style="stroke: #A80036; stroke-width: 1.5;" width="51" x="412" y="1970.6485"/><text fill="#000000" font-family="sans-serif" font-size="14" lengthAdjust="spacingAndGlyphs" textLength="33" x="421" y="1994.6144">Yoda</text><rect fill="#FEFECE" height="37.0679" style="stroke: #A80036; stroke-width: 1.5;" width="57" x="871" y="93.5158"/><text fill="#000000" font-family="sans-serif" font-size="14" lengthAdjust="spacingAndGlyphs" textLength="39" x="880" y="117.4818">SRAM</text><rect fill="#FEFECE" height="37.0679" style="stroke: #A80036; stroke-width: 1.5;" width="57" x="871" y="1970.6485"/><text fill="#000000" font-family="sans-serif" font-size="14" lengthAdjust="spacingAndGlyphs" textLength="39" x="880" y="1994.6144">SRAM</text><rect fill="#FEFECE" height="37.0679" style="stroke: #A80036; stroke-width: 1.5;" width="126" x="1148.5" y="93.5158"/><text fill="#000000" font-family="sans-serif" font-size="14" lengthAdjust="spacingAndGlyphs" textLength="108" x="1157.5" y="117.4818">Institutional IdP</text><rect fill="#FEFECE" height="37.0679" style="stroke: #A80036; stroke-width: 1.5;" width="126" x="1148.5" y="1970.6485"/><text fill="#000000" font-family="sans-serif" font-size="14" lengthAdjust="spacingAndGlyphs" textLength="108" x="1157.5" y="1994.6144">Institutional IdP</text><rect fill="#FFFFFF" height="155.8241" style="stroke: #A80036; stroke-width: 1.0;" width="10" x="432.5" y="218.9958"/><rect fill="#FFFFFF" height="84.412" style="stroke: #A80036; stroke-width: 1.0;" width="10" x="432.5" y="460.2319"/><rect fill="#FFFFFF" height="84.412" style="stroke: #A80036; stroke-width: 1.0;" width="10" x="432.5" y="1068.1161"/><rect fill="#FFFFFF" height="107.118" style="stroke: #A80036; stroke-width: 1.0;" width="10" x="432.5" y="1461.4703"/><rect fill="#FFFFFF" height="107.118" style="stroke: #A80036; stroke-width: 1.0;" width="10" x="432.5" y="1654.0004"/><rect fill="#FFFFFF" height="107.118" style="stroke: #A80036; stroke-width: 1.0;" width="10" x="432.5" y="1846.5304"/><rect fill="#FFFFFF" height="35.706" style="stroke: #A80036; stroke-width: 1.0;" width="10" x="894.5" y="254.7018"/><rect fill="#FFFFFF" height="178.5301" style="stroke: #A80036; stroke-width: 1.0;" width="10" x="894.5" y="652.056"/><rect fill="#FFFFFF" height="84.412" style="stroke: #A80036; stroke-width: 1.0;" width="10" x="894.5" y="898.2921"/><rect fill="#FFFFFF" height="35.706" style="stroke: #A80036; stroke-width: 1.0;" width="10" x="894.5" y="1152.5282"/><rect fill="#FFFFFF" height="113.118" style="stroke: #A80036; stroke-width: 1.0;" width="10" x="894.5" y="1255.9402"/><rect fill="#FFFFFF" height="35.706" style="stroke: #A80036; stroke-width: 1.0;" width="10" x="894.5" y="1497.1763"/><rect fill="#FFFFFF" height="35.706" style="stroke: #A80036; stroke-width: 1.0;" width="10" x="894.5" y="1689.7064"/><rect fill="#FFFFFF" height="35.706" style="stroke: #A80036; stroke-width: 1.0;" width="10" x="894.5" y="1882.2365"/><rect fill="#FFFFFF" height="35.706" style="stroke: #A80036; stroke-width: 1.0;" width="10" x="1206.5" y="687.762"/><rect fill="#FFFFFF" height="35.706" style="stroke: #A80036; stroke-width: 1.0;" width="10" x="1206.5" y="1291.6462"/><rect fill="#EEEEEE" height="3" style="stroke: #EEEEEE; stroke-width: 1.0;" width="1276.5" x="3" y="165.4368"/><line style="stroke: #000000; stroke-width: 1.0;" x1="3" x2="1279.5" y1="165.4368" y2="165.4368"/><line style="stroke: #000000; stroke-width: 1.0;" x1="3" x2="1279.5" y1="168.4368" y2="168.4368"/><rect fill="#EEEEEE" height="29.706" style="stroke: #000000; stroke-width: 2.0;" width="118" x="582.25" y="151.5838"/><text fill="#000000" font-family="sans-serif" font-size="13" font-weight="bold" lengthAdjust="spacingAndGlyphs" textLength="97" x="590.25" y="171.4808">Create a group</text><polygon fill="#A80036" points="420.5,214.9958,430.5,218.9958,420.5,222.9958,424.5,218.9958" style="stroke: #A80036; stroke-width: 1.0;"/><line style="stroke: #A80036; stroke-width: 1.0;" x1="162.5" x2="426.5" y1="218.9958" y2="218.9958"/><text fill="#000000" font-family="sans-serif" font-size="13" font-weight="bold" lengthAdjust="spacingAndGlyphs" textLength="18" x="171.5" y="211.1868">1.0</text><text fill="#000000" font-family="sans-serif" font-size="13" lengthAdjust="spacingAndGlyphs" textLength="79" x="197.5" y="211.1868">Create group</text><polygon fill="#A80036" points="882.5,250.7018,892.5,254.7018,882.5,258.7018,886.5,254.7018" style="stroke: #A80036; stroke-width: 1.0;"/><line style="stroke: #A80036; stroke-width: 1.0;" x1="442.5" x2="888.5" y1="254.7018" y2="254.7018"/><text fill="#000000" font-family="sans-serif" font-size="13" font-weight="bold" lengthAdjust="spacingAndGlyphs" textLength="18" x="451.5" y="246.8928">1.1</text><text fill="#000000" font-family="sans-serif" font-size="13" lengthAdjust="spacingAndGlyphs" textLength="208" x="477.5" y="246.8928">Create CO (SRAM post new CO API)</text><polygon fill="#A80036" points="453.5,286.4078,443.5,290.4078,453.5,294.4078,449.5,290.4078" style="stroke: #A80036; stroke-width: 1.0;"/><line style="stroke: #A80036; stroke-width: 1.0; stroke-dasharray: 2.0,2.0;" x1="447.5" x2="898.5" y1="290.4078" y2="290.4078"/><text fill="#000000" font-family="sans-serif" font-size="13" font-weight="bold" lengthAdjust="spacingAndGlyphs" textLength="18" x="461.5" y="282.5988">1.2</text><text fill="#000000" font-family="sans-serif" font-size="13" lengthAdjust="spacingAndGlyphs" textLength="127" x="487.5" y="282.5988">200 OK (CO identifier)</text><line style="stroke: #A80036; stroke-width: 1.0;" x1="442.5" x2="484.5" y1="326.1138" y2="326.1138"/><line style="stroke: #A80036; stroke-width: 1.0;" x1="484.5" x2="484.5" y1="326.1138" y2="339.1138"/><line style="stroke: #A80036; stroke-width: 1.0;" x1="443.5" x2="484.5" y1="339.1138" y2="339.1138"/><polygon fill="#A80036" points="453.5,335.1138,443.5,339.1138,453.5,343.1138,449.5,339.1138" style="stroke: #A80036; stroke-width: 1.0;"/><text fill="#000000" font-family="sans-serif" font-size="13" font-weight="bold" lengthAdjust="spacingAndGlyphs" textLength="18" x="451.5" y="318.3048">1.3</text><text fill="#000000" font-family="sans-serif" font-size="13" lengthAdjust="spacingAndGlyphs" textLength="189" x="477.5" y="318.3048">Associate CO identifier to group</text><polygon fill="#A80036" points="173.5,370.8199,163.5,374.8199,173.5,378.8199,169.5,374.8199" style="stroke: #A80036; stroke-width: 1.0;"/><line style="stroke: #A80036; stroke-width: 1.0; stroke-dasharray: 2.0,2.0;" x1="167.5" x2="436.5" y1="374.8199" y2="374.8199"/><text fill="#000000" font-family="sans-serif" font-size="13" font-weight="bold" lengthAdjust="spacingAndGlyphs" textLength="18" x="181.5" y="367.0109">1.4</text><text fill="#000000" font-family="sans-serif" font-size="13" lengthAdjust="spacingAndGlyphs" textLength="86" x="207.5" y="367.0109">Group created</text><rect fill="#EEEEEE" height="3" style="stroke: #EEEEEE; stroke-width: 1.0;" width="1276.5" x="3" y="406.6729"/><line style="stroke: #000000; stroke-width: 1.0;" x1="3" x2="1279.5" y1="406.6729" y2="406.6729"/><line style="stroke: #000000; stroke-width: 1.0;" x1="3" x2="1279.5" y1="409.6729" y2="409.6729"/><rect fill="#EEEEEE" height="29.706" style="stroke: #000000; stroke-width: 2.0;" width="310" x="486.25" y="392.8199"/><text fill="#000000" font-family="sans-serif" font-size="13" font-weight="bold" lengthAdjust="spacingAndGlyphs" textLength="289" x="494.25" y="412.7169">Add researcher to group (SRAM join request)</text><polygon fill="#A80036" points="420.5,456.2319,430.5,460.2319,420.5,464.2319,424.5,460.2319" style="stroke: #A80036; stroke-width: 1.0;"/><line style="stroke: #A80036; stroke-width: 1.0;" x1="162.5" x2="426.5" y1="460.2319" y2="460.2319"/><text fill="#000000" font-family="sans-serif" font-size="13" font-weight="bold" lengthAdjust="spacingAndGlyphs" textLength="18" x="171.5" y="452.4229">2.0</text><text fill="#000000" font-family="sans-serif" font-size="13" lengthAdjust="spacingAndGlyphs" textLength="146" x="197.5" y="452.4229">Add researcher to group</text><line style="stroke: #A80036; stroke-width: 1.0;" x1="442.5" x2="484.5" y1="495.9379" y2="495.9379"/><line style="stroke: #A80036; stroke-width: 1.0;" x1="484.5" x2="484.5" y1="495.9379" y2="508.9379"/><line style="stroke: #A80036; stroke-width: 1.0;" x1="443.5" x2="484.5" y1="508.9379" y2="508.9379"/><polygon fill="#A80036" points="453.5,504.9379,443.5,508.9379,453.5,512.9379,449.5,508.9379" style="stroke: #A80036; stroke-width: 1.0;"/><text fill="#000000" font-family="sans-serif" font-size="13" font-weight="bold" lengthAdjust="spacingAndGlyphs" textLength="18" x="451.5" y="488.1289">2.1</text><text fill="#000000" font-family="sans-serif" font-size="13" lengthAdjust="spacingAndGlyphs" textLength="163" x="477.5" y="488.1289">Researcher added to group</text><line style="stroke: #A80036; stroke-width: 1.0;" x1="51" x2="61" y1="544.6439" y2="540.6439"/><line style="stroke: #A80036; stroke-width: 1.0;" x1="51" x2="61" y1="544.6439" y2="548.6439"/><line style="stroke: #A80036; stroke-width: 1.0; stroke-dasharray: 2.0,2.0;" x1="51" x2="436.5" y1="544.6439" y2="544.6439"/><text fill="#000000" font-family="sans-serif" font-size="13" font-weight="bold" lengthAdjust="spacingAndGlyphs" textLength="18" x="70" y="536.8349">2.2</text><text fill="#000000" font-family="sans-serif" font-size="13" lengthAdjust="spacingAndGlyphs" textLength="258" x="96" y="536.8349">Invitation mail with SRAM CO self-invite link</text><polygon fill="#FBFB77" points="248,557.6439,626,557.6439,636,571.6439,626,586.6439,248,586.6439,238,571.6439,248,557.6439" style="stroke: #A80036; stroke-width: 1.0;"/><text fill="#000000" font-family="sans-serif" font-size="13" lengthAdjust="spacingAndGlyphs" textLength="370" x="252" y="577.5409">https://sram.surf.nl/registration?collaboration=&lt;CO identifier&gt;</text><polygon fill="#A80036" points="882.5,648.056,892.5,652.056,882.5,656.056,886.5,652.056" style="stroke: #A80036; stroke-width: 1.0;"/><line style="stroke: #A80036; stroke-width: 1.0;" x1="51" x2="888.5" y1="652.056" y2="652.056"/><text fill="#000000" font-family="sans-serif" font-size="13" font-weight="bold" lengthAdjust="spacingAndGlyphs" textLength="18" x="60" y="644.247">2.3</text><text fill="#000000" font-family="sans-serif" font-size="13" lengthAdjust="spacingAndGlyphs" textLength="182" x="86" y="644.247">Follow SRAM CO invitation link</text><polygon fill="#A80036" points="1194.5,683.762,1204.5,687.762,1194.5,691.762,1198.5,687.762" style="stroke: #A80036; stroke-width: 1.0;"/><line style="stroke: #A80036; stroke-width: 1.0;" x1="904.5" x2="1200.5" y1="687.762" y2="687.762"/><text fill="#000000" font-family="sans-serif" font-size="13" font-weight="bold" lengthAdjust="spacingAndGlyphs" textLength="18" x="913.5" y="679.953">2.4</text><text fill="#000000" font-family="sans-serif" font-size="13" lengthAdjust="spacingAndGlyphs" textLength="210" x="939.5" y="679.953">Redirect to IdP (Request to join CO)</text><polygon fill="#A80036" points="915.5,719.468,905.5,723.468,915.5,727.468,911.5,723.468" style="stroke: #A80036; stroke-width: 1.0;"/><line style="stroke: #A80036; stroke-width: 1.0; stroke-dasharray: 2.0,2.0;" x1="909.5" x2="1210.5" y1="723.468" y2="723.468"/><text fill="#000000" font-family="sans-serif" font-size="13" font-weight="bold" lengthAdjust="spacingAndGlyphs" textLength="18" x="923.5" y="715.659">2.5</text><text fill="#000000" font-family="sans-serif" font-size="13" lengthAdjust="spacingAndGlyphs" textLength="153" x="949.5" y="715.659">Researcher authenticated</text><line style="stroke: #A80036; stroke-width: 1.0;" x1="51" x2="61" y1="759.174" y2="755.174"/><line style="stroke: #A80036; stroke-width: 1.0;" x1="51" x2="61" y1="759.174" y2="763.174"/><line style="stroke: #A80036; stroke-width: 1.0; stroke-dasharray: 2.0,2.0;" x1="51" x2="893.5" y1="759.174" y2="759.174"/><text fill="#000000" font-family="sans-serif" font-size="13" font-weight="bold" lengthAdjust="spacingAndGlyphs" textLength="18" x="70" y="751.365">2.6</text><text fill="#000000" font-family="sans-serif" font-size="13" lengthAdjust="spacingAndGlyphs" textLength="180" x="96" y="751.365">Request motivation to join CO</text><polygon fill="#A80036" points="882.5,790.88,892.5,794.88,882.5,798.88,886.5,794.88" style="stroke: #A80036; stroke-width: 1.0;"/><line style="stroke: #A80036; stroke-width: 1.0;" x1="51" x2="888.5" y1="794.88" y2="794.88"/><text fill="#000000" font-family="sans-serif" font-size="13" font-weight="bold" lengthAdjust="spacingAndGlyphs" textLength="18" x="60" y="787.071">2.7</text><text fill="#000000" font-family="sans-serif" font-size="13" lengthAdjust="spacingAndGlyphs" textLength="111" x="86" y="787.071">Request to join CO</text><line style="stroke: #A80036; stroke-width: 1.0;" x1="162.5" x2="172.5" y1="830.586" y2="826.586"/><line style="stroke: #A80036; stroke-width: 1.0;" x1="162.5" x2="172.5" y1="830.586" y2="834.586"/><line style="stroke: #A80036; stroke-width: 1.0; stroke-dasharray: 2.0,2.0;" x1="162.5" x2="898.5" y1="830.586" y2="830.586"/><text fill="#000000" font-family="sans-serif" font-size="13" font-weight="bold" lengthAdjust="spacingAndGlyphs" textLength="18" x="181.5" y="822.777">2.8</text><text fill="#000000" font-family="sans-serif" font-size="13" lengthAdjust="spacingAndGlyphs" textLength="268" x="207.5" y="822.777">New join request mail (approve / disapprove)</text><polygon fill="#A80036" points="882.5,894.2921,892.5,898.2921,882.5,902.2921,886.5,898.2921" style="stroke: #A80036; stroke-width: 1.0;"/><line style="stroke: #A80036; stroke-width: 1.0;" x1="162.5" x2="888.5" y1="898.2921" y2="898.2921"/><text fill="#000000" font-family="sans-serif" font-size="13" font-weight="bold" lengthAdjust="spacingAndGlyphs" textLength="18" x="171.5" y="890.4831">2.9</text><text fill="#000000" font-family="sans-serif" font-size="13" lengthAdjust="spacingAndGlyphs" textLength="114" x="197.5" y="890.4831">Accept join request</text><line style="stroke: #A80036; stroke-width: 1.0;" x1="904.5" x2="946.5" y1="933.9981" y2="933.9981"/><line style="stroke: #A80036; stroke-width: 1.0;" x1="946.5" x2="946.5" y1="933.9981" y2="946.9981"/><line style="stroke: #A80036; stroke-width: 1.0;" x1="905.5" x2="946.5" y1="946.9981" y2="946.9981"/><polygon fill="#A80036" points="915.5,942.9981,905.5,946.9981,915.5,950.9981,911.5,946.9981" style="stroke: #A80036; stroke-width: 1.0;"/><text fill="#000000" font-family="sans-serif" font-size="13" font-weight="bold" lengthAdjust="spacingAndGlyphs" textLength="25" x="913.5" y="926.1891">2.10</text><text fill="#000000" font-family="sans-serif" font-size="13" lengthAdjust="spacingAndGlyphs" textLength="144" x="946.5" y="926.1891">Researcher added to CO</text><line style="stroke: #A80036; stroke-width: 1.0;" x1="51" x2="61" y1="982.7041" y2="978.7041"/><line style="stroke: #A80036; stroke-width: 1.0;" x1="51" x2="61" y1="982.7041" y2="986.7041"/><line style="stroke: #A80036; stroke-width: 1.0; stroke-dasharray: 2.0,2.0;" x1="51" x2="898.5" y1="982.7041" y2="982.7041"/><text fill="#000000" font-family="sans-serif" font-size="13" font-weight="bold" lengthAdjust="spacingAndGlyphs" textLength="25" x="70" y="974.8951">2.11</text><text fill="#000000" font-family="sans-serif" font-size="13" lengthAdjust="spacingAndGlyphs" textLength="157" x="103" y="974.8951">Join request accepted mail</text><rect fill="#EEEEEE" height="3" style="stroke: #EEEEEE; stroke-width: 1.0;" width="1276.5" x="3" y="1014.5571"/><line style="stroke: #000000; stroke-width: 1.0;" x1="3" x2="1279.5" y1="1014.5571" y2="1014.5571"/><line style="stroke: #000000; stroke-width: 1.0;" x1="3" x2="1279.5" y1="1017.5571" y2="1017.5571"/><rect fill="#EEEEEE" height="29.706" style="stroke: #000000; stroke-width: 2.0;" width="296" x="493.25" y="1000.7041"/><text fill="#000000" font-family="sans-serif" font-size="13" font-weight="bold" lengthAdjust="spacingAndGlyphs" textLength="275" x="501.25" y="1020.6011">Add researcher to group (SRAM invitation)</text><polygon fill="#A80036" points="420.5,1064.1161,430.5,1068.1161,420.5,1072.1161,424.5,1068.1161" style="stroke: #A80036; stroke-width: 1.0;"/><line style="stroke: #A80036; stroke-width: 1.0;" x1="162.5" x2="426.5" y1="1068.1161" y2="1068.1161"/><text fill="#000000" font-family="sans-serif" font-size="13" font-weight="bold" lengthAdjust="spacingAndGlyphs" textLength="18" x="171.5" y="1060.3071">3.0</text><text fill="#000000" font-family="sans-serif" font-size="13" lengthAdjust="spacingAndGlyphs" textLength="146" x="197.5" y="1060.3071">Add researcher to group</text><line style="stroke: #A80036; stroke-width: 1.0;" x1="442.5" x2="484.5" y1="1103.8221" y2="1103.8221"/><line style="stroke: #A80036; stroke-width: 1.0;" x1="484.5" x2="484.5" y1="1103.8221" y2="1116.8221"/><line style="stroke: #A80036; stroke-width: 1.0;" x1="443.5" x2="484.5" y1="1116.8221" y2="1116.8221"/><polygon fill="#A80036" points="453.5,1112.8221,443.5,1116.8221,453.5,1120.8221,449.5,1116.8221" style="stroke: #A80036; stroke-width: 1.0;"/><text fill="#000000" font-family="sans-serif" font-size="13" font-weight="bold" lengthAdjust="spacingAndGlyphs" textLength="18" x="451.5" y="1096.0131">3.1</text><text fill="#000000" font-family="sans-serif" font-size="13" lengthAdjust="spacingAndGlyphs" textLength="163" x="477.5" y="1096.0131">Researcher added to group</text><polygon fill="#A80036" points="882.5,1148.5282,892.5,1152.5282,882.5,1156.5282,886.5,1152.5282" style="stroke: #A80036; stroke-width: 1.0;"/><line style="stroke: #A80036; stroke-width: 1.0;" x1="437.5" x2="888.5" y1="1152.5282" y2="1152.5282"/><text fill="#000000" font-family="sans-serif" font-size="13" font-weight="bold" lengthAdjust="spacingAndGlyphs" textLength="18" x="446.5" y="1144.7192">3.2</text><text fill="#000000" font-family="sans-serif" font-size="13" lengthAdjust="spacingAndGlyphs" textLength="271" x="472.5" y="1144.7192">Invite user CO (SRAM collaboration invite API)</text><line style="stroke: #A80036; stroke-width: 1.0;" x1="51" x2="61" y1="1188.2342" y2="1184.2342"/><line style="stroke: #A80036; stroke-width: 1.0;" x1="51" x2="61" y1="1188.2342" y2="1192.2342"/><line style="stroke: #A80036; stroke-width: 1.0; stroke-dasharray: 2.0,2.0;" x1="51" x2="898.5" y1="1188.2342" y2="1188.2342"/><text fill="#000000" font-family="sans-serif" font-size="13" font-weight="bold" lengthAdjust="spacingAndGlyphs" textLength="18" x="70" y="1180.4252">3.3</text><text fill="#000000" font-family="sans-serif" font-size="13" lengthAdjust="spacingAndGlyphs" textLength="188" x="96" y="1180.4252">Invitation mail for collaboration</text><polygon fill="#A80036" points="882.5,1251.9402,892.5,1255.9402,882.5,1259.9402,886.5,1255.9402" style="stroke: #A80036; stroke-width: 1.0;"/><line style="stroke: #A80036; stroke-width: 1.0;" x1="51" x2="888.5" y1="1255.9402" y2="1255.9402"/><text fill="#000000" font-family="sans-serif" font-size="13" font-weight="bold" lengthAdjust="spacingAndGlyphs" textLength="18" x="60" y="1248.1312">3.4</text><text fill="#000000" font-family="sans-serif" font-size="13" lengthAdjust="spacingAndGlyphs" textLength="182" x="86" y="1248.1312">Follow SRAM CO invitation link</text><polygon fill="#A80036" points="1194.5,1287.6462,1204.5,1291.6462,1194.5,1295.6462,1198.5,1291.6462" style="stroke: #A80036; stroke-width: 1.0;"/><line style="stroke: #A80036; stroke-width: 1.0;" x1="904.5" x2="1200.5" y1="1291.6462" y2="1291.6462"/><text fill="#000000" font-family="sans-serif" font-size="13" font-weight="bold" lengthAdjust="spacingAndGlyphs" textLength="18" x="913.5" y="1283.8372">3.5</text><text fill="#000000" font-family="sans-serif" font-size="13" lengthAdjust="spacingAndGlyphs" textLength="253" x="939.5" y="1283.8372">Redirect to IdP (Log in to accept the invite)</text><polygon fill="#A80036" points="915.5,1323.3522,905.5,1327.3522,915.5,1331.3522,911.5,1327.3522" style="stroke: #A80036; stroke-width: 1.0;"/><line style="stroke: #A80036; stroke-width: 1.0; stroke-dasharray: 2.0,2.0;" x1="909.5" x2="1210.5" y1="1327.3522" y2="1327.3522"/><text fill="#000000" font-family="sans-serif" font-size="13" font-weight="bold" lengthAdjust="spacingAndGlyphs" textLength="18" x="923.5" y="1319.5432">3.6</text><text fill="#000000" font-family="sans-serif" font-size="13" lengthAdjust="spacingAndGlyphs" textLength="153" x="949.5" y="1319.5432">Researcher authenticated</text><line style="stroke: #A80036; stroke-width: 1.0;" x1="904.5" x2="946.5" y1="1368.0582" y2="1368.0582"/><line style="stroke: #A80036; stroke-width: 1.0;" x1="946.5" x2="946.5" y1="1368.0582" y2="1381.0582"/><line style="stroke: #A80036; stroke-width: 1.0;" x1="899.5" x2="946.5" y1="1381.0582" y2="1381.0582"/><polygon fill="#A80036" points="909.5,1377.0582,899.5,1381.0582,909.5,1385.0582,905.5,1381.0582" style="stroke: #A80036; stroke-width: 1.0;"/><text fill="#000000" font-family="sans-serif" font-size="13" font-weight="bold" lengthAdjust="spacingAndGlyphs" textLength="18" x="913.5" y="1360.2492">3.7</text><text fill="#000000" font-family="sans-serif" font-size="13" lengthAdjust="spacingAndGlyphs" textLength="144" x="939.5" y="1360.2492">Researcher added to CO</text><rect fill="#EEEEEE" height="3" style="stroke: #EEEEEE; stroke-width: 1.0;" width="1276.5" x="3" y="1407.9113"/><line style="stroke: #000000; stroke-width: 1.0;" x1="3" x2="1279.5" y1="1407.9113" y2="1407.9113"/><line style="stroke: #000000; stroke-width: 1.0;" x1="3" x2="1279.5" y1="1410.9113" y2="1410.9113"/><rect fill="#EEEEEE" height="29.706" style="stroke: #000000; stroke-width: 2.0;" width="190" x="546.25" y="1394.0582"/><text fill="#000000" font-family="sans-serif" font-size="13" font-weight="bold" lengthAdjust="spacingAndGlyphs" textLength="169" x="554.25" y="1413.9553">Change user role in group</text><polygon fill="#A80036" points="420.5,1457.4703,430.5,1461.4703,420.5,1465.4703,424.5,1461.4703" style="stroke: #A80036; stroke-width: 1.0;"/><line style="stroke: #A80036; stroke-width: 1.0;" x1="162.5" x2="426.5" y1="1461.4703" y2="1461.4703"/><text fill="#000000" font-family="sans-serif" font-size="13" font-weight="bold" lengthAdjust="spacingAndGlyphs" textLength="18" x="171.5" y="1453.6613">4.0</text><text fill="#000000" font-family="sans-serif" font-size="13" lengthAdjust="spacingAndGlyphs" textLength="207" x="197.5" y="1453.6613">Change role of researcher in group</text><polygon fill="#A80036" points="882.5,1493.1763,892.5,1497.1763,882.5,1501.1763,886.5,1497.1763" style="stroke: #A80036; stroke-width: 1.0;"/><line style="stroke: #A80036; stroke-width: 1.0;" x1="442.5" x2="888.5" y1="1497.1763" y2="1497.1763"/><text fill="#000000" font-family="sans-serif" font-size="13" font-weight="bold" lengthAdjust="spacingAndGlyphs" textLength="18" x="451.5" y="1489.3673">4.1</text><text fill="#000000" font-family="sans-serif" font-size="13" lengthAdjust="spacingAndGlyphs" textLength="403" x="477.5" y="1489.3673">Change role of researcher in CO (SRAM update CO membership API)</text><polygon fill="#A80036" points="453.5,1528.8823,443.5,1532.8823,453.5,1536.8823,449.5,1532.8823" style="stroke: #A80036; stroke-width: 1.0;"/><line style="stroke: #A80036; stroke-width: 1.0; stroke-dasharray: 2.0,2.0;" x1="447.5" x2="898.5" y1="1532.8823" y2="1532.8823"/><text fill="#000000" font-family="sans-serif" font-size="13" font-weight="bold" lengthAdjust="spacingAndGlyphs" textLength="18" x="461.5" y="1525.0733">4.2</text><text fill="#000000" font-family="sans-serif" font-size="13" lengthAdjust="spacingAndGlyphs" textLength="42" x="487.5" y="1525.0733">200 OK</text><polygon fill="#A80036" points="173.5,1564.5883,163.5,1568.5883,173.5,1572.5883,169.5,1568.5883" style="stroke: #A80036; stroke-width: 1.0;"/><line style="stroke: #A80036; stroke-width: 1.0; stroke-dasharray: 2.0,2.0;" x1="167.5" x2="436.5" y1="1568.5883" y2="1568.5883"/><text fill="#000000" font-family="sans-serif" font-size="13" font-weight="bold" lengthAdjust="spacingAndGlyphs" textLength="18" x="181.5" y="1560.7793">4.3</text><text fill="#000000" font-family="sans-serif" font-size="13" lengthAdjust="spacingAndGlyphs" textLength="216" x="207.5" y="1560.7793">Role of researcher changed in group</text><rect fill="#EEEEEE" height="3" style="stroke: #EEEEEE; stroke-width: 1.0;" width="1276.5" x="3" y="1600.4413"/><line style="stroke: #000000; stroke-width: 1.0;" x1="3" x2="1279.5" y1="1600.4413" y2="1600.4413"/><line style="stroke: #000000; stroke-width: 1.0;" x1="3" x2="1279.5" y1="1603.4413" y2="1603.4413"/><rect fill="#EEEEEE" height="29.706" style="stroke: #000000; stroke-width: 2.0;" width="226" x="528.25" y="1586.5883"/><text fill="#000000" font-family="sans-serif" font-size="13" font-weight="bold" lengthAdjust="spacingAndGlyphs" textLength="205" x="536.25" y="1606.4853">Remove researcher from group</text><polygon fill="#A80036" points="420.5,1650.0004,430.5,1654.0004,420.5,1658.0004,424.5,1654.0004" style="stroke: #A80036; stroke-width: 1.0;"/><line style="stroke: #A80036; stroke-width: 1.0;" x1="162.5" x2="426.5" y1="1654.0004" y2="1654.0004"/><text fill="#000000" font-family="sans-serif" font-size="13" font-weight="bold" lengthAdjust="spacingAndGlyphs" textLength="18" x="171.5" y="1646.1914">5.0</text><text fill="#000000" font-family="sans-serif" font-size="13" lengthAdjust="spacingAndGlyphs" textLength="187" x="197.5" y="1646.1914">Remove researcher from group</text><polygon fill="#A80036" points="882.5,1685.7064,892.5,1689.7064,882.5,1693.7064,886.5,1689.7064" style="stroke: #A80036; stroke-width: 1.0;"/><line style="stroke: #A80036; stroke-width: 1.0;" x1="442.5" x2="888.5" y1="1689.7064" y2="1689.7064"/><text fill="#000000" font-family="sans-serif" font-size="13" font-weight="bold" lengthAdjust="spacingAndGlyphs" textLength="18" x="451.5" y="1681.8974">5.1</text><text fill="#000000" font-family="sans-serif" font-size="13" lengthAdjust="spacingAndGlyphs" textLength="340" x="477.5" y="1681.8974">Remove user from CO (SRAM delete CO membership API)</text><polygon fill="#A80036" points="453.5,1721.4124,443.5,1725.4124,453.5,1729.4124,449.5,1725.4124" style="stroke: #A80036; stroke-width: 1.0;"/><line style="stroke: #A80036; stroke-width: 1.0; stroke-dasharray: 2.0,2.0;" x1="447.5" x2="898.5" y1="1725.4124" y2="1725.4124"/><text fill="#000000" font-family="sans-serif" font-size="13" font-weight="bold" lengthAdjust="spacingAndGlyphs" textLength="18" x="461.5" y="1717.6034">5.2</text><text fill="#000000" font-family="sans-serif" font-size="13" lengthAdjust="spacingAndGlyphs" textLength="42" x="487.5" y="1717.6034">200 OK</text><polygon fill="#A80036" points="173.5,1757.1184,163.5,1761.1184,173.5,1765.1184,169.5,1761.1184" style="stroke: #A80036; stroke-width: 1.0;"/><line style="stroke: #A80036; stroke-width: 1.0; stroke-dasharray: 2.0,2.0;" x1="167.5" x2="436.5" y1="1761.1184" y2="1761.1184"/><text fill="#000000" font-family="sans-serif" font-size="13" font-weight="bold" lengthAdjust="spacingAndGlyphs" textLength="18" x="181.5" y="1753.3094">5.3</text><text fill="#000000" font-family="sans-serif" font-size="13" lengthAdjust="spacingAndGlyphs" textLength="195" x="207.5" y="1753.3094">Researcher removed from group</text><rect fill="#EEEEEE" height="3" style="stroke: #EEEEEE; stroke-width: 1.0;" width="1276.5" x="3" y="1792.9714"/><line style="stroke: #000000; stroke-width: 1.0;" x1="3" x2="1279.5" y1="1792.9714" y2="1792.9714"/><line style="stroke: #000000; stroke-width: 1.0;" x1="3" x2="1279.5" y1="1795.9714" y2="1795.9714"/><rect fill="#EEEEEE" height="29.706" style="stroke: #000000; stroke-width: 2.0;" width="127" x="577.75" y="1779.1184"/><text fill="#000000" font-family="sans-serif" font-size="13" font-weight="bold" lengthAdjust="spacingAndGlyphs" textLength="106" x="585.75" y="1799.0154">Remove a group</text><polygon fill="#A80036" points="420.5,1842.5304,430.5,1846.5304,420.5,1850.5304,424.5,1846.5304" style="stroke: #A80036; stroke-width: 1.0;"/><line style="stroke: #A80036; stroke-width: 1.0;" x1="162.5" x2="426.5" y1="1846.5304" y2="1846.5304"/><text fill="#000000" font-family="sans-serif" font-size="13" font-weight="bold" lengthAdjust="spacingAndGlyphs" textLength="18" x="171.5" y="1838.7214">6.0</text><text fill="#000000" font-family="sans-serif" font-size="13" lengthAdjust="spacingAndGlyphs" textLength="89" x="197.5" y="1838.7214">Remove group</text><polygon fill="#A80036" points="882.5,1878.2365,892.5,1882.2365,882.5,1886.2365,886.5,1882.2365" style="stroke: #A80036; stroke-width: 1.0;"/><line style="stroke: #A80036; stroke-width: 1.0;" x1="442.5" x2="888.5" y1="1882.2365" y2="1882.2365"/><text fill="#000000" font-family="sans-serif" font-size="13" font-weight="bold" lengthAdjust="spacingAndGlyphs" textLength="18" x="451.5" y="1874.4275">6.1</text><text fill="#000000" font-family="sans-serif" font-size="13" lengthAdjust="spacingAndGlyphs" textLength="200" x="477.5" y="1874.4275">Remove CO (SRAM delete CO API)</text><polygon fill="#A80036" points="453.5,1913.9425,443.5,1917.9425,453.5,1921.9425,449.5,1917.9425" style="stroke: #A80036; stroke-width: 1.0;"/><line style="stroke: #A80036; stroke-width: 1.0; stroke-dasharray: 2.0,2.0;" x1="447.5" x2="898.5" y1="1917.9425" y2="1917.9425"/><text fill="#000000" font-family="sans-serif" font-size="13" font-weight="bold" lengthAdjust="spacingAndGlyphs" textLength="18" x="461.5" y="1910.1335">6.2</text><text fill="#000000" font-family="sans-serif" font-size="13" lengthAdjust="spacingAndGlyphs" textLength="42" x="487.5" y="1910.1335">200 OK</text><polygon fill="#A80036" points="173.5,1949.6485,163.5,1953.6485,173.5,1957.6485,169.5,1953.6485" style="stroke: #A80036; stroke-width: 1.0;"/><line style="stroke: #A80036; stroke-width: 1.0; stroke-dasharray: 2.0,2.0;" x1="167.5" x2="436.5" y1="1953.6485" y2="1953.6485"/><text fill="#000000" font-family="sans-serif" font-size="13" font-weight="bold" lengthAdjust="spacingAndGlyphs" textLength="18" x="181.5" y="1945.8395">6.3</text><text fill="#000000" font-family="sans-serif" font-size="13" lengthAdjust="spacingAndGlyphs" textLength="95" x="207.5" y="1945.8395">Group removed</text><!--MD5=[119220f150ec4b72ecf2f58b59d88db1]
@startuml
skinparam padding 2
skinparam shadowing false

title Yoda & SRAM

actor       Researcher          as researcher
actor       "Group Manager"     as groupmanager
participant Yoda                as yoda
participant SRAM                as SRAM
participant "Institutional IdP" as IdP

== Create a group ==
autonumber 1.0
groupmanager  -> yoda        : Create group
activate yoda
yoda         -> SRAM        : Create CO (SRAM post new CO API)
activate SRAM
SRAM        - -> yoda        : 200 OK (CO identifier)
deactivate SRAM
yoda         -> yoda        : Associate CO identifier to group
yoda        - -> groupmanager : Group created
deactivate yoda

== Add researcher to group (SRAM join request) ==
autonumber 2.0
groupmanager  -> yoda        : Add researcher to group
activate yoda
yoda         -> yoda        : Researcher added to group
yoda       - ->> researcher  : Invitation mail with SRAM CO self-invite link
deactivate yoda
hnote over yoda
    https://sram.surf.nl/registration?collaboration=<CO identifier>
endhnote
...
researcher   -> SRAM        : Follow SRAM CO invitation link
activate SRAM
SRAM         -> IdP         : Redirect to IdP (Request to join CO)
activate IdP
IdP         - -> SRAM        : Researcher authenticated
deactivate IdP
SRAM       - ->> researcher  : Request motivation to join CO
researcher   -> SRAM        : Request to join CO
SRAM       - ->> groupmanager : New join request mail (approve / disapprove)
deactivate SRAM
...
groupmanager  -> SRAM        : Accept join request
activate SRAM
SRAM         -> SRAM        : Researcher added to CO
SRAM       - ->> researcher  : Join request accepted mail
deactivate SRAM

== Add researcher to group (SRAM invitation) ==
autonumber 3.0
groupmanager  -> yoda        : Add researcher to group
activate yoda
yoda         -> yoda        : Researcher added to group
yoda         -> SRAM        : Invite user CO (SRAM collaboration invite API)
deactivate yoda
activate SRAM
SRAM       - ->> researcher  : Invitation mail for collaboration
deactivate SRAM
...
researcher   -> SRAM        : Follow SRAM CO invitation link
activate SRAM
SRAM         -> IdP         : Redirect to IdP (Log in to accept the invite)
activate IdP
IdP         - -> SRAM        : Researcher authenticated
deactivate IdP
SRAM         -> SRAM        : Researcher added to CO
deactivate SRAM

== Change user role in group ==
autonumber 4.0
groupmanager  -> yoda        : Change role of researcher in group
activate yoda
yoda         -> SRAM        : Change role of researcher in CO (SRAM update CO membership API)
activate SRAM
SRAM        - -> yoda        : 200 OK
deactivate SRAM
yoda        - -> groupmanager : Role of researcher changed in group
deactivate yoda

== Remove researcher from group ==
autonumber 5.0
groupmanager  -> yoda        : Remove researcher from group
activate yoda
yoda         -> SRAM        : Remove user from CO (SRAM delete CO membership API)
activate SRAM
SRAM        - -> yoda        : 200 OK
deactivate SRAM
yoda        - -> groupmanager : Researcher removed from group
deactivate yoda

== Remove a group ==
autonumber 6.0
groupmanager  -> yoda        : Remove group
activate yoda
yoda         -> SRAM        : Remove CO (SRAM delete CO API)
activate SRAM
SRAM        - -> yoda        : 200 OK
deactivate SRAM
yoda        - -> groupmanager : Group removed
deactivate yoda

@enduml

PlantUML version 1.2020.02(Sun Mar 01 11:22:07 CET 2020)
(GPL source distribution)
Java Runtime: OpenJDK Runtime Environment
JVM: OpenJDK 64-Bit Server VM
Java Version: 17.0.8+7-Debian-1deb12u1
Operating System: Linux
Default Encoding: UTF-8
Language: en
Country: US
--></g></svg>