<?xml version="1.0" encoding="UTF-8" standalone="no"?><svg xmlns="http://www.w3.org/2000/svg" xmlns:xlink="http://www.w3.org/1999/xlink" contentScriptType="application/ecmascript" contentStyleType="text/css" height="1118px" preserveAspectRatio="none" style="width:952px;height:1118px;" version="1.1" viewBox="0 0 952 1118" width="952px" zoomAndPan="magnify"><defs/><g><text fill="#000000" font-family="sans-serif" font-size="18" lengthAdjust="spacingAndGlyphs" textLength="121" x="411.25" y="28.708">Yoda &amp; SRAM</text><line style="stroke: #A80036; stroke-width: 1.0;" x1="53" x2="53" y1="125.25" y2="428.3125"/><line style="stroke: #A80036; stroke-width: 1.0; stroke-dasharray: 1.0,4.0;" x1="53" x2="53" y1="428.3125" y2="460.3125"/><line style="stroke: #A80036; stroke-width: 1.0;" x1="53" x2="53" y1="460.3125" y2="592.8438"/><line style="stroke: #A80036; stroke-width: 1.0; stroke-dasharray: 1.0,4.0;" x1="53" x2="53" y1="592.8438" y2="624.8438"/><line style="stroke: #A80036; stroke-width: 1.0;" x1="53" x2="53" y1="624.8438" y2="1027.3047"/><line style="stroke: #A80036; stroke-width: 1.0;" x1="159" x2="159" y1="125.25" y2="428.3125"/><line style="stroke: #A80036; stroke-width: 1.0; stroke-dasharray: 1.0,4.0;" x1="159" x2="159" y1="428.3125" y2="460.3125"/><line style="stroke: #A80036; stroke-width: 1.0;" x1="159" x2="159" y1="460.3125" y2="592.8438"/><line style="stroke: #A80036; stroke-width: 1.0; stroke-dasharray: 1.0,4.0;" x1="159" x2="159" y1="592.8438" y2="624.8438"/><line style="stroke: #A80036; stroke-width: 1.0;" x1="159" x2="159" y1="624.8438" y2="1027.3047"/><line style="stroke: #A80036; stroke-width: 1.0;" x1="426" x2="426" y1="125.25" y2="428.3125"/><line style="stroke: #A80036; stroke-width: 1.0; stroke-dasharray: 1.0,4.0;" x1="426" x2="426" y1="428.3125" y2="460.3125"/><line style="stroke: #A80036; stroke-width: 1.0;" x1="426" x2="426" y1="460.3125" y2="592.8438"/><line style="stroke: #A80036; stroke-width: 1.0; stroke-dasharray: 1.0,4.0;" x1="426" x2="426" y1="592.8438" y2="624.8438"/><line style="stroke: #A80036; stroke-width: 1.0;" x1="426" x2="426" y1="624.8438" y2="1027.3047"/><line style="stroke: #A80036; stroke-width: 1.0;" x1="650.5" x2="650.5" y1="125.25" y2="428.3125"/><line style="stroke: #A80036; stroke-width: 1.0; stroke-dasharray: 1.0,4.0;" x1="650.5" x2="650.5" y1="428.3125" y2="460.3125"/><line style="stroke: #A80036; stroke-width: 1.0;" x1="650.5" x2="650.5" y1="460.3125" y2="592.8438"/><line style="stroke: #A80036; stroke-width: 1.0; stroke-dasharray: 1.0,4.0;" x1="650.5" x2="650.5" y1="592.8438" y2="624.8438"/><line style="stroke: #A80036; stroke-width: 1.0;" x1="650.5" x2="650.5" y1="624.8438" y2="1027.3047"/><line style="stroke: #A80036; stroke-width: 1.0;" x1="874.5" x2="874.5" y1="125.25" y2="428.3125"/><line style="stroke: #A80036; stroke-width: 1.0; stroke-dasharray: 1.0,4.0;" x1="874.5" x2="874.5" y1="428.3125" y2="460.3125"/><line style="stroke: #A80036; stroke-width: 1.0;" x1="874.5" x2="874.5" y1="460.3125" y2="592.8438"/><line style="stroke: #A80036; stroke-width: 1.0; stroke-dasharray: 1.0,4.0;" x1="874.5" x2="874.5" y1="592.8438" y2="624.8438"/><line style="stroke: #A80036; stroke-width: 1.0;" x1="874.5" x2="874.5" y1="624.8438" y2="1027.3047"/><text fill="#000000" font-family="sans-serif" font-size="14" lengthAdjust="spacingAndGlyphs" textLength="80" x="10" y="119.9482">Researcher</text><ellipse cx="53" cy="51.9531" fill="#FEFECE" rx="8" ry="8" style="stroke: #A80036; stroke-width: 2.0;"/><path d="M53,59.9531 L53,86.9531 M40,67.9531 L66,67.9531 M53,86.9531 L40,101.9531 M53,86.9531 L66,101.9531 " fill="none" style="stroke: #A80036; stroke-width: 2.0;"/><text fill="#000000" font-family="sans-serif" font-size="14" lengthAdjust="spacingAndGlyphs" textLength="80" x="10" y="1041.2998">Researcher</text><ellipse cx="53" cy="1056.6016" fill="#FEFECE" rx="8" ry="8" style="stroke: #A80036; stroke-width: 2.0;"/><path d="M53,1064.6016 L53,1091.6016 M40,1072.6016 L66,1072.6016 M53,1091.6016 L40,1106.6016 M53,1091.6016 L66,1106.6016 " fill="none" style="stroke: #A80036; stroke-width: 2.0;"/><text fill="#000000" font-family="sans-serif" font-size="14" lengthAdjust="spacingAndGlyphs" textLength="93" x="110" y="119.9482">Datamanager</text><ellipse cx="159.5" cy="51.9531" fill="#FEFECE" rx="8" ry="8" style="stroke: #A80036; stroke-width: 2.0;"/><path d="M159.5,59.9531 L159.5,86.9531 M146.5,67.9531 L172.5,67.9531 M159.5,86.9531 L146.5,101.9531 M159.5,86.9531 L172.5,101.9531 " fill="none" style="stroke: #A80036; stroke-width: 2.0;"/><text fill="#000000" font-family="sans-serif" font-size="14" lengthAdjust="spacingAndGlyphs" textLength="93" x="110" y="1041.2998">Datamanager</text><ellipse cx="159.5" cy="1056.6016" fill="#FEFECE" rx="8" ry="8" style="stroke: #A80036; stroke-width: 2.0;"/><path d="M159.5,1064.6016 L159.5,1091.6016 M146.5,1072.6016 L172.5,1072.6016 M159.5,1091.6016 L146.5,1106.6016 M159.5,1091.6016 L172.5,1106.6016 " fill="none" style="stroke: #A80036; stroke-width: 2.0;"/><rect fill="#FEFECE" height="34.2969" style="stroke: #A80036; stroke-width: 1.5;" width="53" x="400" y="89.9531"/><text fill="#000000" font-family="sans-serif" font-size="14" lengthAdjust="spacingAndGlyphs" textLength="35" x="409" y="111.9482">Yoda</text><rect fill="#FEFECE" height="34.2969" style="stroke: #A80036; stroke-width: 1.5;" width="53" x="400" y="1026.3047"/><text fill="#000000" font-family="sans-serif" font-size="14" lengthAdjust="spacingAndGlyphs" textLength="35" x="409" y="1048.2998">Yoda</text><rect fill="#FEFECE" height="34.2969" style="stroke: #A80036; stroke-width: 1.5;" width="58" x="621.5" y="89.9531"/><text fill="#000000" font-family="sans-serif" font-size="14" lengthAdjust="spacingAndGlyphs" textLength="40" x="630.5" y="111.9482">SRAM</text><rect fill="#FEFECE" height="34.2969" style="stroke: #A80036; stroke-width: 1.5;" width="58" x="621.5" y="1026.3047"/><text fill="#000000" font-family="sans-serif" font-size="14" lengthAdjust="spacingAndGlyphs" textLength="40" x="630.5" y="1048.2998">SRAM</text><rect fill="#FEFECE" height="34.2969" style="stroke: #A80036; stroke-width: 1.5;" width="122" x="813.5" y="89.9531"/><text fill="#000000" font-family="sans-serif" font-size="14" lengthAdjust="spacingAndGlyphs" textLength="104" x="822.5" y="111.9482">Institutional IdP</text><rect fill="#FEFECE" height="34.2969" style="stroke: #A80036; stroke-width: 1.5;" width="122" x="813.5" y="1026.3047"/><text fill="#000000" font-family="sans-serif" font-size="14" lengthAdjust="spacingAndGlyphs" textLength="104" x="822.5" y="1048.2998">Institutional IdP</text><rect fill="#EEEEEE" height="3" style="stroke: #EEEEEE; stroke-width: 1.0;" width="937.5" x="3" y="157.8164"/><line style="stroke: #000000; stroke-width: 1.0;" x1="3" x2="940.5" y1="157.8164" y2="157.8164"/><line style="stroke: #000000; stroke-width: 1.0;" x1="3" x2="940.5" y1="160.8164" y2="160.8164"/><rect fill="#EEEEEE" height="27.1328" style="stroke: #000000; stroke-width: 2.0;" width="135" x="404.25" y="145.25"/><text fill="#000000" font-family="sans-serif" font-size="13" font-weight="bold" lengthAdjust="spacingAndGlyphs" textLength="112" x="412.25" y="163.3169">Create a group</text><polygon fill="#A80036" points="414.5,203.5156,424.5,207.5156,414.5,211.5156,418.5,207.5156" style="stroke: #A80036; stroke-width: 1.0;"/><line style="stroke: #A80036; stroke-width: 1.0;" x1="159.5" x2="420.5" y1="207.5156" y2="207.5156"/><text fill="#000000" font-family="sans-serif" font-size="13" font-weight="bold" lengthAdjust="spacingAndGlyphs" textLength="23" x="168.5" y="200.4497">1.0</text><text fill="#000000" font-family="sans-serif" font-size="13" lengthAdjust="spacingAndGlyphs" textLength="84" x="199.5" y="200.4497">Create group</text><polygon fill="#A80036" points="638.5,236.6484,648.5,240.6484,638.5,244.6484,642.5,240.6484" style="stroke: #A80036; stroke-width: 1.0;"/><line style="stroke: #A80036; stroke-width: 1.0;" x1="426.5" x2="644.5" y1="240.6484" y2="240.6484"/><text fill="#000000" font-family="sans-serif" font-size="13" font-weight="bold" lengthAdjust="spacingAndGlyphs" textLength="23" x="435.5" y="233.5825">1.1</text><text fill="#000000" font-family="sans-serif" font-size="13" lengthAdjust="spacingAndGlyphs" textLength="90" x="466.5" y="233.5825">Create CO API</text><polygon fill="#A80036" points="437.5,269.7813,427.5,273.7813,437.5,277.7813,433.5,273.7813" style="stroke: #A80036; stroke-width: 1.0;"/><line style="stroke: #A80036; stroke-width: 1.0; stroke-dasharray: 2.0,2.0;" x1="431.5" x2="649.5" y1="273.7813" y2="273.7813"/><text fill="#000000" font-family="sans-serif" font-size="13" font-weight="bold" lengthAdjust="spacingAndGlyphs" textLength="23" x="445.5" y="266.7153">1.2</text><text fill="#000000" font-family="sans-serif" font-size="13" lengthAdjust="spacingAndGlyphs" textLength="46" x="476.5" y="266.7153">200 OK</text><polygon fill="#A80036" points="170.5,302.9141,160.5,306.9141,170.5,310.9141,166.5,306.9141" style="stroke: #A80036; stroke-width: 1.0;"/><line style="stroke: #A80036; stroke-width: 1.0; stroke-dasharray: 2.0,2.0;" x1="164.5" x2="425.5" y1="306.9141" y2="306.9141"/><text fill="#000000" font-family="sans-serif" font-size="13" font-weight="bold" lengthAdjust="spacingAndGlyphs" textLength="23" x="178.5" y="299.8481">1.3</text><text fill="#000000" font-family="sans-serif" font-size="13" lengthAdjust="spacingAndGlyphs" textLength="92" x="209.5" y="299.8481">Group created</text><rect fill="#EEEEEE" height="3" style="stroke: #EEEEEE; stroke-width: 1.0;" width="937.5" x="3" y="337.4805"/><line style="stroke: #000000; stroke-width: 1.0;" x1="3" x2="940.5" y1="337.4805" y2="337.4805"/><line style="stroke: #000000; stroke-width: 1.0;" x1="3" x2="940.5" y1="340.4805" y2="340.4805"/><rect fill="#EEEEEE" height="27.1328" style="stroke: #000000; stroke-width: 2.0;" width="206" x="368.75" y="324.9141"/><text fill="#000000" font-family="sans-serif" font-size="13" font-weight="bold" lengthAdjust="spacingAndGlyphs" textLength="183" x="376.75" y="342.981">Add researcher to group</text><polygon fill="#A80036" points="414.5,383.1797,424.5,387.1797,414.5,391.1797,418.5,387.1797" style="stroke: #A80036; stroke-width: 1.0;"/><line style="stroke: #A80036; stroke-width: 1.0;" x1="159.5" x2="420.5" y1="387.1797" y2="387.1797"/><text fill="#000000" font-family="sans-serif" font-size="13" font-weight="bold" lengthAdjust="spacingAndGlyphs" textLength="23" x="168.5" y="380.1138">2.0</text><text fill="#000000" font-family="sans-serif" font-size="13" lengthAdjust="spacingAndGlyphs" textLength="156" x="199.5" y="380.1138">Add researcher to group</text><line style="stroke: #A80036; stroke-width: 1.0;" x1="53" x2="63" y1="420.3125" y2="416.3125"/><line style="stroke: #A80036; stroke-width: 1.0;" x1="53" x2="63" y1="420.3125" y2="424.3125"/><line style="stroke: #A80036; stroke-width: 1.0; stroke-dasharray: 2.0,2.0;" x1="53" x2="425.5" y1="420.3125" y2="420.3125"/><text fill="#000000" font-family="sans-serif" font-size="13" font-weight="bold" lengthAdjust="spacingAndGlyphs" textLength="23" x="72" y="413.2466">2.1</text><text fill="#000000" font-family="sans-serif" font-size="13" lengthAdjust="spacingAndGlyphs" textLength="203" x="103" y="413.2466">Invitation mail (SRAM invite link)</text><polygon fill="#A80036" points="638.5,481.4453,648.5,485.4453,638.5,489.4453,642.5,485.4453" style="stroke: #A80036; stroke-width: 1.0;"/><line style="stroke: #A80036; stroke-width: 1.0;" x1="53" x2="644.5" y1="485.4453" y2="485.4453"/><text fill="#000000" font-family="sans-serif" font-size="13" font-weight="bold" lengthAdjust="spacingAndGlyphs" textLength="23" x="62" y="478.3794">2.2</text><text fill="#000000" font-family="sans-serif" font-size="13" lengthAdjust="spacingAndGlyphs" textLength="142" x="93" y="478.3794">Follow SRAM invite link</text><polygon fill="#A80036" points="862.5,514.5781,872.5,518.5781,862.5,522.5781,866.5,518.5781" style="stroke: #A80036; stroke-width: 1.0;"/><line style="stroke: #A80036; stroke-width: 1.0;" x1="650.5" x2="868.5" y1="518.5781" y2="518.5781"/><text fill="#000000" font-family="sans-serif" font-size="13" font-weight="bold" lengthAdjust="spacingAndGlyphs" textLength="23" x="659.5" y="511.5122">2.3</text><text fill="#000000" font-family="sans-serif" font-size="13" lengthAdjust="spacingAndGlyphs" textLength="92" x="690.5" y="511.5122">Redirect to IdP</text><polygon fill="#A80036" points="661.5,547.7109,651.5,551.7109,661.5,555.7109,657.5,551.7109" style="stroke: #A80036; stroke-width: 1.0;"/><line style="stroke: #A80036; stroke-width: 1.0; stroke-dasharray: 2.0,2.0;" x1="655.5" x2="873.5" y1="551.7109" y2="551.7109"/><text fill="#000000" font-family="sans-serif" font-size="13" font-weight="bold" lengthAdjust="spacingAndGlyphs" textLength="23" x="669.5" y="544.645">2.4</text><text fill="#000000" font-family="sans-serif" font-size="13" lengthAdjust="spacingAndGlyphs" textLength="165" x="700.5" y="544.645">Researcher authenticated</text><line style="stroke: #A80036; stroke-width: 1.0;" x1="159.5" x2="169.5" y1="584.8438" y2="580.8438"/><line style="stroke: #A80036; stroke-width: 1.0;" x1="159.5" x2="169.5" y1="584.8438" y2="588.8438"/><line style="stroke: #A80036; stroke-width: 1.0; stroke-dasharray: 2.0,2.0;" x1="159.5" x2="649.5" y1="584.8438" y2="584.8438"/><text fill="#000000" font-family="sans-serif" font-size="13" font-weight="bold" lengthAdjust="spacingAndGlyphs" textLength="23" x="178.5" y="577.7778">2.5</text><text fill="#000000" font-family="sans-serif" font-size="13" lengthAdjust="spacingAndGlyphs" textLength="195" x="209.5" y="577.7778">Invitation accepted notification</text><polygon fill="#A80036" points="638.5,645.9766,648.5,649.9766,638.5,653.9766,642.5,649.9766" style="stroke: #A80036; stroke-width: 1.0;"/><line style="stroke: #A80036; stroke-width: 1.0;" x1="159.5" x2="644.5" y1="649.9766" y2="649.9766"/><text fill="#000000" font-family="sans-serif" font-size="13" font-weight="bold" lengthAdjust="spacingAndGlyphs" textLength="23" x="168.5" y="642.9106">2.6</text><text fill="#000000" font-family="sans-serif" font-size="13" lengthAdjust="spacingAndGlyphs" textLength="115" x="199.5" y="642.9106">Approve invitation</text><rect fill="#EEEEEE" height="3" style="stroke: #EEEEEE; stroke-width: 1.0;" width="937.5" x="3" y="680.543"/><line style="stroke: #000000; stroke-width: 1.0;" x1="3" x2="940.5" y1="680.543" y2="680.543"/><line style="stroke: #000000; stroke-width: 1.0;" x1="3" x2="940.5" y1="683.543" y2="683.543"/><rect fill="#EEEEEE" height="27.1328" style="stroke: #000000; stroke-width: 2.0;" width="255" x="344.25" y="667.9766"/><text fill="#000000" font-family="sans-serif" font-size="13" font-weight="bold" lengthAdjust="spacingAndGlyphs" textLength="232" x="352.25" y="686.0435">Remove researcher from group</text><polygon fill="#A80036" points="414.5,726.2422,424.5,730.2422,414.5,734.2422,418.5,730.2422" style="stroke: #A80036; stroke-width: 1.0;"/><line style="stroke: #A80036; stroke-width: 1.0;" x1="159.5" x2="420.5" y1="730.2422" y2="730.2422"/><text fill="#000000" font-family="sans-serif" font-size="13" font-weight="bold" lengthAdjust="spacingAndGlyphs" textLength="23" x="168.5" y="723.1763">3.0</text><text fill="#000000" font-family="sans-serif" font-size="13" lengthAdjust="spacingAndGlyphs" textLength="200" x="199.5" y="723.1763">Remove researcher from group</text><polygon fill="#A80036" points="638.5,759.375,648.5,763.375,638.5,767.375,642.5,763.375" style="stroke: #A80036; stroke-width: 1.0;"/><line style="stroke: #A80036; stroke-width: 1.0;" x1="426.5" x2="644.5" y1="763.375" y2="763.375"/><text fill="#000000" font-family="sans-serif" font-size="13" font-weight="bold" lengthAdjust="spacingAndGlyphs" textLength="23" x="435.5" y="756.3091">3.1</text><text fill="#000000" font-family="sans-serif" font-size="13" lengthAdjust="spacingAndGlyphs" textLength="165" x="466.5" y="756.3091">Remove user from CO API</text><polygon fill="#A80036" points="437.5,792.5078,427.5,796.5078,437.5,800.5078,433.5,796.5078" style="stroke: #A80036; stroke-width: 1.0;"/><line style="stroke: #A80036; stroke-width: 1.0; stroke-dasharray: 2.0,2.0;" x1="431.5" x2="649.5" y1="796.5078" y2="796.5078"/><text fill="#000000" font-family="sans-serif" font-size="13" font-weight="bold" lengthAdjust="spacingAndGlyphs" textLength="23" x="445.5" y="789.4419">3.2</text><text fill="#000000" font-family="sans-serif" font-size="13" lengthAdjust="spacingAndGlyphs" textLength="46" x="476.5" y="789.4419">200 OK</text><polygon fill="#A80036" points="170.5,825.6406,160.5,829.6406,170.5,833.6406,166.5,829.6406" style="stroke: #A80036; stroke-width: 1.0;"/><line style="stroke: #A80036; stroke-width: 1.0; stroke-dasharray: 2.0,2.0;" x1="164.5" x2="425.5" y1="829.6406" y2="829.6406"/><text fill="#000000" font-family="sans-serif" font-size="13" font-weight="bold" lengthAdjust="spacingAndGlyphs" textLength="23" x="178.5" y="822.5747">3.3</text><text fill="#000000" font-family="sans-serif" font-size="13" lengthAdjust="spacingAndGlyphs" textLength="208" x="209.5" y="822.5747">Researcher removed from group</text><rect fill="#EEEEEE" height="3" style="stroke: #EEEEEE; stroke-width: 1.0;" width="937.5" x="3" y="860.207"/><line style="stroke: #000000; stroke-width: 1.0;" x1="3" x2="940.5" y1="860.207" y2="860.207"/><line style="stroke: #000000; stroke-width: 1.0;" x1="3" x2="940.5" y1="863.207" y2="863.207"/><rect fill="#EEEEEE" height="27.1328" style="stroke: #000000; stroke-width: 2.0;" width="145" x="399.25" y="847.6406"/><text fill="#000000" font-family="sans-serif" font-size="13" font-weight="bold" lengthAdjust="spacingAndGlyphs" textLength="122" x="407.25" y="865.7075">Remove a group</text><polygon fill="#A80036" points="414.5,905.9063,424.5,909.9063,414.5,913.9063,418.5,909.9063" style="stroke: #A80036; stroke-width: 1.0;"/><line style="stroke: #A80036; stroke-width: 1.0;" x1="159.5" x2="420.5" y1="909.9063" y2="909.9063"/><text fill="#000000" font-family="sans-serif" font-size="13" font-weight="bold" lengthAdjust="spacingAndGlyphs" textLength="23" x="168.5" y="902.8403">4.0</text><text fill="#000000" font-family="sans-serif" font-size="13" lengthAdjust="spacingAndGlyphs" textLength="93" x="199.5" y="902.8403">Remove group</text><polygon fill="#A80036" points="638.5,939.0391,648.5,943.0391,638.5,947.0391,642.5,943.0391" style="stroke: #A80036; stroke-width: 1.0;"/><line style="stroke: #A80036; stroke-width: 1.0;" x1="426.5" x2="644.5" y1="943.0391" y2="943.0391"/><text fill="#000000" font-family="sans-serif" font-size="13" font-weight="bold" lengthAdjust="spacingAndGlyphs" textLength="23" x="435.5" y="935.9731">4.1</text><text fill="#000000" font-family="sans-serif" font-size="13" lengthAdjust="spacingAndGlyphs" textLength="99" x="466.5" y="935.9731">Remove CO API</text><polygon fill="#A80036" points="437.5,972.1719,427.5,976.1719,437.5,980.1719,433.5,976.1719" style="stroke: #A80036; stroke-width: 1.0;"/><line style="stroke: #A80036; stroke-width: 1.0; stroke-dasharray: 2.0,2.0;" x1="431.5" x2="649.5" y1="976.1719" y2="976.1719"/><text fill="#000000" font-family="sans-serif" font-size="13" font-weight="bold" lengthAdjust="spacingAndGlyphs" textLength="23" x="445.5" y="969.106">4.2</text><text fill="#000000" font-family="sans-serif" font-size="13" lengthAdjust="spacingAndGlyphs" textLength="46" x="476.5" y="969.106">200 OK</text><polygon fill="#A80036" points="170.5,1005.3047,160.5,1009.3047,170.5,1013.3047,166.5,1009.3047" style="stroke: #A80036; stroke-width: 1.0;"/><line style="stroke: #A80036; stroke-width: 1.0; stroke-dasharray: 2.0,2.0;" x1="164.5" x2="425.5" y1="1009.3047" y2="1009.3047"/><text fill="#000000" font-family="sans-serif" font-size="13" font-weight="bold" lengthAdjust="spacingAndGlyphs" textLength="23" x="178.5" y="1002.2388">4.3</text><text fill="#000000" font-family="sans-serif" font-size="13" lengthAdjust="spacingAndGlyphs" textLength="100" x="209.5" y="1002.2388">Group removed</text><!--MD5=[01db3203fe1ba0fc217643e6e941fee1]
@startuml
skinparam padding 2
skinparam shadowing false

title Yoda & SRAM

actor       Researcher          as researcher
actor       Datamanager         as datamanager
participant Yoda                as yoda
participant SRAM                as SRAM
participant "Institutional IdP" as IdP

== Create a group ==
autonumber 1.0
datamanager  -> yoda        : Create group
yoda         -> SRAM        : Create CO API
SRAM        - -> yoda        : 200 OK
yoda        - -> datamanager : Group created

== Add researcher to group ==
autonumber 2.0
datamanager  -> yoda        : Add researcher to group
yoda       - ->> researcher  : Invitation mail (SRAM invite link)
...
researcher   -> SRAM        : Follow SRAM invite link
SRAM         -> IdP         : Redirect to IdP
IdP         - -> SRAM        : Researcher authenticated
SRAM       - ->> datamanager : Invitation accepted notification
...
datamanager  -> SRAM        : Approve invitation

== Remove researcher from group ==
autonumber 3.0
datamanager  -> yoda        : Remove researcher from group
yoda         -> SRAM        : Remove user from CO API
SRAM        - -> yoda        : 200 OK
yoda        - -> datamanager : Researcher removed from group

== Remove a group ==
autonumber 4.0
datamanager  -> yoda        : Remove group
yoda         -> SRAM        : Remove CO API
SRAM        - -> yoda        : 200 OK
yoda        - -> datamanager : Group removed

@enduml

PlantUML version 1.2020.02(Sun Mar 01 11:22:07 CET 2020)
(GPL source distribution)
Java Runtime: OpenJDK Runtime Environment
JVM: OpenJDK 64-Bit Server VM
Java Version: 11.0.18+10-post-Debian-1deb11u1
Operating System: Linux
Default Encoding: UTF-8
Language: en
Country: US
--></g></svg>