<?xml version="1.0" encoding="UTF-8" standalone="no"?><svg xmlns="http://www.w3.org/2000/svg" xmlns:xlink="http://www.w3.org/1999/xlink" contentScriptType="application/ecmascript" contentStyleType="text/css" height="1314px" preserveAspectRatio="none" style="width:1004px;height:1314px;" version="1.1" viewBox="0 0 1004 1314" width="1004px" zoomAndPan="magnify"><defs/><g><text fill="#000000" font-family="sans-serif" font-size="18" lengthAdjust="spacingAndGlyphs" textLength="121" x="437.25" y="28.708">Yoda &amp; SRAM</text><rect fill="#FFFFFF" height="145.5313" style="stroke: #A80036; stroke-width: 1.0;" width="10" x="426.5" y="207.5156"/><rect fill="#FFFFFF" height="33.1328" style="stroke: #A80036; stroke-width: 1.0;" width="10" x="426.5" y="433.3125"/><rect fill="#FFFFFF" height="99.3984" style="stroke: #A80036; stroke-width: 1.0;" width="10" x="426.5" y="925.9063"/><rect fill="#FFFFFF" height="99.3984" style="stroke: #A80036; stroke-width: 1.0;" width="10" x="426.5" y="1105.5703"/><rect fill="#FFFFFF" height="33.1328" style="stroke: #A80036; stroke-width: 1.0;" width="10" x="687.5" y="240.6484"/><rect fill="#FFFFFF" height="165.6641" style="stroke: #A80036; stroke-width: 1.0;" width="10" x="687.5" y="568.7109"/><rect fill="#FFFFFF" height="39.1328" style="stroke: #A80036; stroke-width: 1.0;" width="10" x="687.5" y="799.5078"/><rect fill="#FFFFFF" height="33.1328" style="stroke: #A80036; stroke-width: 1.0;" width="10" x="687.5" y="959.0391"/><rect fill="#FFFFFF" height="33.1328" style="stroke: #A80036; stroke-width: 1.0;" width="10" x="687.5" y="1138.7031"/><rect fill="#FFFFFF" height="33.1328" style="stroke: #A80036; stroke-width: 1.0;" width="10" x="921.5" y="601.8438"/><line style="stroke: #A80036; stroke-width: 1.0;" x1="53" x2="53" y1="125.25" y2="511.5781"/><line style="stroke: #A80036; stroke-width: 1.0; stroke-dasharray: 1.0,4.0;" x1="53" x2="53" y1="511.5781" y2="543.5781"/><line style="stroke: #A80036; stroke-width: 1.0;" x1="53" x2="53" y1="543.5781" y2="742.375"/><line style="stroke: #A80036; stroke-width: 1.0; stroke-dasharray: 1.0,4.0;" x1="53" x2="53" y1="742.375" y2="774.375"/><line style="stroke: #A80036; stroke-width: 1.0;" x1="53" x2="53" y1="774.375" y2="1222.9688"/><line style="stroke: #A80036; stroke-width: 1.0;" x1="159" x2="159" y1="125.25" y2="511.5781"/><line style="stroke: #A80036; stroke-width: 1.0; stroke-dasharray: 1.0,4.0;" x1="159" x2="159" y1="511.5781" y2="543.5781"/><line style="stroke: #A80036; stroke-width: 1.0;" x1="159" x2="159" y1="543.5781" y2="742.375"/><line style="stroke: #A80036; stroke-width: 1.0; stroke-dasharray: 1.0,4.0;" x1="159" x2="159" y1="742.375" y2="774.375"/><line style="stroke: #A80036; stroke-width: 1.0;" x1="159" x2="159" y1="774.375" y2="1222.9688"/><line style="stroke: #A80036; stroke-width: 1.0;" x1="431" x2="431" y1="125.25" y2="511.5781"/><line style="stroke: #A80036; stroke-width: 1.0; stroke-dasharray: 1.0,4.0;" x1="431" x2="431" y1="511.5781" y2="543.5781"/><line style="stroke: #A80036; stroke-width: 1.0;" x1="431" x2="431" y1="543.5781" y2="742.375"/><line style="stroke: #A80036; stroke-width: 1.0; stroke-dasharray: 1.0,4.0;" x1="431" x2="431" y1="742.375" y2="774.375"/><line style="stroke: #A80036; stroke-width: 1.0;" x1="431" x2="431" y1="774.375" y2="1222.9688"/><line style="stroke: #A80036; stroke-width: 1.0;" x1="692.5" x2="692.5" y1="125.25" y2="511.5781"/><line style="stroke: #A80036; stroke-width: 1.0; stroke-dasharray: 1.0,4.0;" x1="692.5" x2="692.5" y1="511.5781" y2="543.5781"/><line style="stroke: #A80036; stroke-width: 1.0;" x1="692.5" x2="692.5" y1="543.5781" y2="742.375"/><line style="stroke: #A80036; stroke-width: 1.0; stroke-dasharray: 1.0,4.0;" x1="692.5" x2="692.5" y1="742.375" y2="774.375"/><line style="stroke: #A80036; stroke-width: 1.0;" x1="692.5" x2="692.5" y1="774.375" y2="1222.9688"/><line style="stroke: #A80036; stroke-width: 1.0;" x1="926.5" x2="926.5" y1="125.25" y2="511.5781"/><line style="stroke: #A80036; stroke-width: 1.0; stroke-dasharray: 1.0,4.0;" x1="926.5" x2="926.5" y1="511.5781" y2="543.5781"/><line style="stroke: #A80036; stroke-width: 1.0;" x1="926.5" x2="926.5" y1="543.5781" y2="742.375"/><line style="stroke: #A80036; stroke-width: 1.0; stroke-dasharray: 1.0,4.0;" x1="926.5" x2="926.5" y1="742.375" y2="774.375"/><line style="stroke: #A80036; stroke-width: 1.0;" x1="926.5" x2="926.5" y1="774.375" y2="1222.9688"/><text fill="#000000" font-family="sans-serif" font-size="14" lengthAdjust="spacingAndGlyphs" textLength="80" x="10" y="119.9482">Researcher</text><ellipse cx="53" cy="51.9531" fill="#FEFECE" rx="8" ry="8" style="stroke: #A80036; stroke-width: 2.0;"/><path d="M53,59.9531 L53,86.9531 M40,67.9531 L66,67.9531 M53,86.9531 L40,101.9531 M53,86.9531 L66,101.9531 " fill="none" style="stroke: #A80036; stroke-width: 2.0;"/><text fill="#000000" font-family="sans-serif" font-size="14" lengthAdjust="spacingAndGlyphs" textLength="80" x="10" y="1236.9639">Researcher</text><ellipse cx="53" cy="1252.2656" fill="#FEFECE" rx="8" ry="8" style="stroke: #A80036; stroke-width: 2.0;"/><path d="M53,1260.2656 L53,1287.2656 M40,1268.2656 L66,1268.2656 M53,1287.2656 L40,1302.2656 M53,1287.2656 L66,1302.2656 " fill="none" style="stroke: #A80036; stroke-width: 2.0;"/><text fill="#000000" font-family="sans-serif" font-size="14" lengthAdjust="spacingAndGlyphs" textLength="93" x="110" y="119.9482">Datamanager</text><ellipse cx="159.5" cy="51.9531" fill="#FEFECE" rx="8" ry="8" style="stroke: #A80036; stroke-width: 2.0;"/><path d="M159.5,59.9531 L159.5,86.9531 M146.5,67.9531 L172.5,67.9531 M159.5,86.9531 L146.5,101.9531 M159.5,86.9531 L172.5,101.9531 " fill="none" style="stroke: #A80036; stroke-width: 2.0;"/><text fill="#000000" font-family="sans-serif" font-size="14" lengthAdjust="spacingAndGlyphs" textLength="93" x="110" y="1236.9639">Datamanager</text><ellipse cx="159.5" cy="1252.2656" fill="#FEFECE" rx="8" ry="8" style="stroke: #A80036; stroke-width: 2.0;"/><path d="M159.5,1260.2656 L159.5,1287.2656 M146.5,1268.2656 L172.5,1268.2656 M159.5,1287.2656 L146.5,1302.2656 M159.5,1287.2656 L172.5,1302.2656 " fill="none" style="stroke: #A80036; stroke-width: 2.0;"/><rect fill="#FEFECE" height="34.2969" style="stroke: #A80036; stroke-width: 1.5;" width="53" x="405" y="89.9531"/><text fill="#000000" font-family="sans-serif" font-size="14" lengthAdjust="spacingAndGlyphs" textLength="35" x="414" y="111.9482">Yoda</text><rect fill="#FEFECE" height="34.2969" style="stroke: #A80036; stroke-width: 1.5;" width="53" x="405" y="1221.9688"/><text fill="#000000" font-family="sans-serif" font-size="14" lengthAdjust="spacingAndGlyphs" textLength="35" x="414" y="1243.9639">Yoda</text><rect fill="#FEFECE" height="34.2969" style="stroke: #A80036; stroke-width: 1.5;" width="58" x="663.5" y="89.9531"/><text fill="#000000" font-family="sans-serif" font-size="14" lengthAdjust="spacingAndGlyphs" textLength="40" x="672.5" y="111.9482">SRAM</text><rect fill="#FEFECE" height="34.2969" style="stroke: #A80036; stroke-width: 1.5;" width="58" x="663.5" y="1221.9688"/><text fill="#000000" font-family="sans-serif" font-size="14" lengthAdjust="spacingAndGlyphs" textLength="40" x="672.5" y="1243.9639">SRAM</text><rect fill="#FEFECE" height="34.2969" style="stroke: #A80036; stroke-width: 1.5;" width="122" x="865.5" y="89.9531"/><text fill="#000000" font-family="sans-serif" font-size="14" lengthAdjust="spacingAndGlyphs" textLength="104" x="874.5" y="111.9482">Institutional IdP</text><rect fill="#FEFECE" height="34.2969" style="stroke: #A80036; stroke-width: 1.5;" width="122" x="865.5" y="1221.9688"/><text fill="#000000" font-family="sans-serif" font-size="14" lengthAdjust="spacingAndGlyphs" textLength="104" x="874.5" y="1243.9639">Institutional IdP</text><rect fill="#FFFFFF" height="145.5313" style="stroke: #A80036; stroke-width: 1.0;" width="10" x="426.5" y="207.5156"/><rect fill="#FFFFFF" height="33.1328" style="stroke: #A80036; stroke-width: 1.0;" width="10" x="426.5" y="433.3125"/><rect fill="#FFFFFF" height="99.3984" style="stroke: #A80036; stroke-width: 1.0;" width="10" x="426.5" y="925.9063"/><rect fill="#FFFFFF" height="99.3984" style="stroke: #A80036; stroke-width: 1.0;" width="10" x="426.5" y="1105.5703"/><rect fill="#FFFFFF" height="33.1328" style="stroke: #A80036; stroke-width: 1.0;" width="10" x="687.5" y="240.6484"/><rect fill="#FFFFFF" height="165.6641" style="stroke: #A80036; stroke-width: 1.0;" width="10" x="687.5" y="568.7109"/><rect fill="#FFFFFF" height="39.1328" style="stroke: #A80036; stroke-width: 1.0;" width="10" x="687.5" y="799.5078"/><rect fill="#FFFFFF" height="33.1328" style="stroke: #A80036; stroke-width: 1.0;" width="10" x="687.5" y="959.0391"/><rect fill="#FFFFFF" height="33.1328" style="stroke: #A80036; stroke-width: 1.0;" width="10" x="687.5" y="1138.7031"/><rect fill="#FFFFFF" height="33.1328" style="stroke: #A80036; stroke-width: 1.0;" width="10" x="921.5" y="601.8438"/><rect fill="#EEEEEE" height="3" style="stroke: #EEEEEE; stroke-width: 1.0;" width="989.5" x="3" y="157.8164"/><line style="stroke: #000000; stroke-width: 1.0;" x1="3" x2="992.5" y1="157.8164" y2="157.8164"/><line style="stroke: #000000; stroke-width: 1.0;" x1="3" x2="992.5" y1="160.8164" y2="160.8164"/><rect fill="#EEEEEE" height="27.1328" style="stroke: #000000; stroke-width: 2.0;" width="135" x="430.25" y="145.25"/><text fill="#000000" font-family="sans-serif" font-size="13" font-weight="bold" lengthAdjust="spacingAndGlyphs" textLength="112" x="438.25" y="163.3169">Create a group</text><polygon fill="#A80036" points="414.5,203.5156,424.5,207.5156,414.5,211.5156,418.5,207.5156" style="stroke: #A80036; stroke-width: 1.0;"/><line style="stroke: #A80036; stroke-width: 1.0;" x1="159.5" x2="420.5" y1="207.5156" y2="207.5156"/><text fill="#000000" font-family="sans-serif" font-size="13" font-weight="bold" lengthAdjust="spacingAndGlyphs" textLength="23" x="168.5" y="200.4497">1.0</text><text fill="#000000" font-family="sans-serif" font-size="13" lengthAdjust="spacingAndGlyphs" textLength="84" x="199.5" y="200.4497">Create group</text><polygon fill="#A80036" points="675.5,236.6484,685.5,240.6484,675.5,244.6484,679.5,240.6484" style="stroke: #A80036; stroke-width: 1.0;"/><line style="stroke: #A80036; stroke-width: 1.0;" x1="436.5" x2="681.5" y1="240.6484" y2="240.6484"/><text fill="#000000" font-family="sans-serif" font-size="13" font-weight="bold" lengthAdjust="spacingAndGlyphs" textLength="23" x="445.5" y="233.5825">1.1</text><text fill="#000000" font-family="sans-serif" font-size="13" lengthAdjust="spacingAndGlyphs" textLength="90" x="476.5" y="233.5825">Create CO API</text><polygon fill="#A80036" points="447.5,269.7813,437.5,273.7813,447.5,277.7813,443.5,273.7813" style="stroke: #A80036; stroke-width: 1.0;"/><line style="stroke: #A80036; stroke-width: 1.0; stroke-dasharray: 2.0,2.0;" x1="441.5" x2="691.5" y1="273.7813" y2="273.7813"/><text fill="#000000" font-family="sans-serif" font-size="13" font-weight="bold" lengthAdjust="spacingAndGlyphs" textLength="23" x="455.5" y="266.7153">1.2</text><text fill="#000000" font-family="sans-serif" font-size="13" lengthAdjust="spacingAndGlyphs" textLength="138" x="486.5" y="266.7153">200 OK (CO identifier)</text><line style="stroke: #A80036; stroke-width: 1.0;" x1="436.5" x2="478.5" y1="306.9141" y2="306.9141"/><line style="stroke: #A80036; stroke-width: 1.0;" x1="478.5" x2="478.5" y1="306.9141" y2="319.9141"/><line style="stroke: #A80036; stroke-width: 1.0;" x1="437.5" x2="478.5" y1="319.9141" y2="319.9141"/><polygon fill="#A80036" points="447.5,315.9141,437.5,319.9141,447.5,323.9141,443.5,319.9141" style="stroke: #A80036; stroke-width: 1.0;"/><text fill="#000000" font-family="sans-serif" font-size="13" font-weight="bold" lengthAdjust="spacingAndGlyphs" textLength="23" x="445.5" y="299.8481">1.3</text><text fill="#000000" font-family="sans-serif" font-size="13" lengthAdjust="spacingAndGlyphs" textLength="202" x="476.5" y="299.8481">Associate CO identifier to group</text><polygon fill="#A80036" points="170.5,349.0469,160.5,353.0469,170.5,357.0469,166.5,353.0469" style="stroke: #A80036; stroke-width: 1.0;"/><line style="stroke: #A80036; stroke-width: 1.0; stroke-dasharray: 2.0,2.0;" x1="164.5" x2="430.5" y1="353.0469" y2="353.0469"/><text fill="#000000" font-family="sans-serif" font-size="13" font-weight="bold" lengthAdjust="spacingAndGlyphs" textLength="23" x="178.5" y="345.981">1.4</text><text fill="#000000" font-family="sans-serif" font-size="13" lengthAdjust="spacingAndGlyphs" textLength="92" x="209.5" y="345.981">Group created</text><rect fill="#EEEEEE" height="3" style="stroke: #EEEEEE; stroke-width: 1.0;" width="989.5" x="3" y="383.6133"/><line style="stroke: #000000; stroke-width: 1.0;" x1="3" x2="992.5" y1="383.6133" y2="383.6133"/><line style="stroke: #000000; stroke-width: 1.0;" x1="3" x2="992.5" y1="386.6133" y2="386.6133"/><rect fill="#EEEEEE" height="27.1328" style="stroke: #000000; stroke-width: 2.0;" width="206" x="394.75" y="371.0469"/><text fill="#000000" font-family="sans-serif" font-size="13" font-weight="bold" lengthAdjust="spacingAndGlyphs" textLength="183" x="402.75" y="389.1138">Add researcher to group</text><polygon fill="#A80036" points="414.5,429.3125,424.5,433.3125,414.5,437.3125,418.5,433.3125" style="stroke: #A80036; stroke-width: 1.0;"/><line style="stroke: #A80036; stroke-width: 1.0;" x1="159.5" x2="420.5" y1="433.3125" y2="433.3125"/><text fill="#000000" font-family="sans-serif" font-size="13" font-weight="bold" lengthAdjust="spacingAndGlyphs" textLength="23" x="168.5" y="426.2466">2.0</text><text fill="#000000" font-family="sans-serif" font-size="13" lengthAdjust="spacingAndGlyphs" textLength="156" x="199.5" y="426.2466">Add researcher to group</text><line style="stroke: #A80036; stroke-width: 1.0;" x1="53" x2="63" y1="466.4453" y2="462.4453"/><line style="stroke: #A80036; stroke-width: 1.0;" x1="53" x2="63" y1="466.4453" y2="470.4453"/><line style="stroke: #A80036; stroke-width: 1.0; stroke-dasharray: 2.0,2.0;" x1="53" x2="430.5" y1="466.4453" y2="466.4453"/><text fill="#000000" font-family="sans-serif" font-size="13" font-weight="bold" lengthAdjust="spacingAndGlyphs" textLength="23" x="72" y="459.3794">2.1</text><text fill="#000000" font-family="sans-serif" font-size="13" lengthAdjust="spacingAndGlyphs" textLength="226" x="103" y="459.3794">Invitation mail (SRAM CO invite link)</text><polygon fill="#FBFB77" points="228,479.4453,634,479.4453,644,492.4453,634,506.4453,228,506.4453,218,492.4453,228,479.4453" style="stroke: #A80036; stroke-width: 1.0;"/><text fill="#000000" font-family="sans-serif" font-size="13" lengthAdjust="spacingAndGlyphs" textLength="398" x="232" y="497.5122">https://sram.surf.nl/registration?collaboration=&lt;CO identifier&gt;</text><polygon fill="#A80036" points="675.5,564.7109,685.5,568.7109,675.5,572.7109,679.5,568.7109" style="stroke: #A80036; stroke-width: 1.0;"/><line style="stroke: #A80036; stroke-width: 1.0;" x1="53" x2="681.5" y1="568.7109" y2="568.7109"/><text fill="#000000" font-family="sans-serif" font-size="13" font-weight="bold" lengthAdjust="spacingAndGlyphs" textLength="23" x="62" y="561.645">2.2</text><text fill="#000000" font-family="sans-serif" font-size="13" lengthAdjust="spacingAndGlyphs" textLength="165" x="93" y="561.645">Follow SRAM CO invite link</text><polygon fill="#A80036" points="909.5,597.8438,919.5,601.8438,909.5,605.8438,913.5,601.8438" style="stroke: #A80036; stroke-width: 1.0;"/><line style="stroke: #A80036; stroke-width: 1.0;" x1="697.5" x2="915.5" y1="601.8438" y2="601.8438"/><text fill="#000000" font-family="sans-serif" font-size="13" font-weight="bold" lengthAdjust="spacingAndGlyphs" textLength="23" x="706.5" y="594.7778">2.3</text><text fill="#000000" font-family="sans-serif" font-size="13" lengthAdjust="spacingAndGlyphs" textLength="92" x="737.5" y="594.7778">Redirect to IdP</text><polygon fill="#A80036" points="708.5,630.9766,698.5,634.9766,708.5,638.9766,704.5,634.9766" style="stroke: #A80036; stroke-width: 1.0;"/><line style="stroke: #A80036; stroke-width: 1.0; stroke-dasharray: 2.0,2.0;" x1="702.5" x2="925.5" y1="634.9766" y2="634.9766"/><text fill="#000000" font-family="sans-serif" font-size="13" font-weight="bold" lengthAdjust="spacingAndGlyphs" textLength="23" x="716.5" y="627.9106">2.4</text><text fill="#000000" font-family="sans-serif" font-size="13" lengthAdjust="spacingAndGlyphs" textLength="165" x="747.5" y="627.9106">Researcher authenticated</text><line style="stroke: #A80036; stroke-width: 1.0;" x1="53" x2="63" y1="668.1094" y2="664.1094"/><line style="stroke: #A80036; stroke-width: 1.0;" x1="53" x2="63" y1="668.1094" y2="672.1094"/><line style="stroke: #A80036; stroke-width: 1.0; stroke-dasharray: 2.0,2.0;" x1="53" x2="686.5" y1="668.1094" y2="668.1094"/><text fill="#000000" font-family="sans-serif" font-size="13" font-weight="bold" lengthAdjust="spacingAndGlyphs" textLength="23" x="72" y="661.0435">2.5</text><text fill="#000000" font-family="sans-serif" font-size="13" lengthAdjust="spacingAndGlyphs" textLength="190" x="103" y="661.0435">Request motivation to join CO</text><polygon fill="#A80036" points="675.5,697.2422,685.5,701.2422,675.5,705.2422,679.5,701.2422" style="stroke: #A80036; stroke-width: 1.0;"/><line style="stroke: #A80036; stroke-width: 1.0;" x1="53" x2="681.5" y1="701.2422" y2="701.2422"/><text fill="#000000" font-family="sans-serif" font-size="13" font-weight="bold" lengthAdjust="spacingAndGlyphs" textLength="23" x="62" y="694.1763">2.6</text><text fill="#000000" font-family="sans-serif" font-size="13" lengthAdjust="spacingAndGlyphs" textLength="118" x="93" y="694.1763">Request to join CO</text><line style="stroke: #A80036; stroke-width: 1.0;" x1="159.5" x2="169.5" y1="734.375" y2="730.375"/><line style="stroke: #A80036; stroke-width: 1.0;" x1="159.5" x2="169.5" y1="734.375" y2="738.375"/><line style="stroke: #A80036; stroke-width: 1.0; stroke-dasharray: 2.0,2.0;" x1="159.5" x2="691.5" y1="734.375" y2="734.375"/><text fill="#000000" font-family="sans-serif" font-size="13" font-weight="bold" lengthAdjust="spacingAndGlyphs" textLength="23" x="178.5" y="727.3091">2.7</text><text fill="#000000" font-family="sans-serif" font-size="13" lengthAdjust="spacingAndGlyphs" textLength="285" x="209.5" y="727.3091">New join request mail (approve / disapprove)</text><polygon fill="#A80036" points="675.5,795.5078,685.5,799.5078,675.5,803.5078,679.5,799.5078" style="stroke: #A80036; stroke-width: 1.0;"/><line style="stroke: #A80036; stroke-width: 1.0;" x1="159.5" x2="681.5" y1="799.5078" y2="799.5078"/><text fill="#000000" font-family="sans-serif" font-size="13" font-weight="bold" lengthAdjust="spacingAndGlyphs" textLength="23" x="168.5" y="792.4419">2.8</text><text fill="#000000" font-family="sans-serif" font-size="13" lengthAdjust="spacingAndGlyphs" textLength="132" x="199.5" y="792.4419">Approve join request</text><line style="stroke: #A80036; stroke-width: 1.0;" x1="697.5" x2="739.5" y1="837.6406" y2="837.6406"/><line style="stroke: #A80036; stroke-width: 1.0;" x1="739.5" x2="739.5" y1="837.6406" y2="850.6406"/><line style="stroke: #A80036; stroke-width: 1.0;" x1="692.5" x2="739.5" y1="850.6406" y2="850.6406"/><polygon fill="#A80036" points="702.5,846.6406,692.5,850.6406,702.5,854.6406,698.5,850.6406" style="stroke: #A80036; stroke-width: 1.0;"/><text fill="#000000" font-family="sans-serif" font-size="13" font-weight="bold" lengthAdjust="spacingAndGlyphs" textLength="23" x="706.5" y="830.5747">2.9</text><text fill="#000000" font-family="sans-serif" font-size="13" lengthAdjust="spacingAndGlyphs" textLength="156" x="737.5" y="830.5747">Researcher added to CO</text><rect fill="#EEEEEE" height="3" style="stroke: #EEEEEE; stroke-width: 1.0;" width="989.5" x="3" y="876.207"/><line style="stroke: #000000; stroke-width: 1.0;" x1="3" x2="992.5" y1="876.207" y2="876.207"/><line style="stroke: #000000; stroke-width: 1.0;" x1="3" x2="992.5" y1="879.207" y2="879.207"/><rect fill="#EEEEEE" height="27.1328" style="stroke: #000000; stroke-width: 2.0;" width="255" x="370.25" y="863.6406"/><text fill="#000000" font-family="sans-serif" font-size="13" font-weight="bold" lengthAdjust="spacingAndGlyphs" textLength="232" x="378.25" y="881.7075">Remove researcher from group</text><polygon fill="#A80036" points="414.5,921.9063,424.5,925.9063,414.5,929.9063,418.5,925.9063" style="stroke: #A80036; stroke-width: 1.0;"/><line style="stroke: #A80036; stroke-width: 1.0;" x1="159.5" x2="420.5" y1="925.9063" y2="925.9063"/><text fill="#000000" font-family="sans-serif" font-size="13" font-weight="bold" lengthAdjust="spacingAndGlyphs" textLength="23" x="168.5" y="918.8403">3.0</text><text fill="#000000" font-family="sans-serif" font-size="13" lengthAdjust="spacingAndGlyphs" textLength="200" x="199.5" y="918.8403">Remove researcher from group</text><polygon fill="#A80036" points="675.5,955.0391,685.5,959.0391,675.5,963.0391,679.5,959.0391" style="stroke: #A80036; stroke-width: 1.0;"/><line style="stroke: #A80036; stroke-width: 1.0;" x1="436.5" x2="681.5" y1="959.0391" y2="959.0391"/><text fill="#000000" font-family="sans-serif" font-size="13" font-weight="bold" lengthAdjust="spacingAndGlyphs" textLength="23" x="445.5" y="951.9731">3.1</text><text fill="#000000" font-family="sans-serif" font-size="13" lengthAdjust="spacingAndGlyphs" textLength="165" x="476.5" y="951.9731">Remove user from CO API</text><polygon fill="#A80036" points="447.5,988.1719,437.5,992.1719,447.5,996.1719,443.5,992.1719" style="stroke: #A80036; stroke-width: 1.0;"/><line style="stroke: #A80036; stroke-width: 1.0; stroke-dasharray: 2.0,2.0;" x1="441.5" x2="691.5" y1="992.1719" y2="992.1719"/><text fill="#000000" font-family="sans-serif" font-size="13" font-weight="bold" lengthAdjust="spacingAndGlyphs" textLength="23" x="455.5" y="985.106">3.2</text><text fill="#000000" font-family="sans-serif" font-size="13" lengthAdjust="spacingAndGlyphs" textLength="46" x="486.5" y="985.106">200 OK</text><polygon fill="#A80036" points="170.5,1021.3047,160.5,1025.3047,170.5,1029.3047,166.5,1025.3047" style="stroke: #A80036; stroke-width: 1.0;"/><line style="stroke: #A80036; stroke-width: 1.0; stroke-dasharray: 2.0,2.0;" x1="164.5" x2="430.5" y1="1025.3047" y2="1025.3047"/><text fill="#000000" font-family="sans-serif" font-size="13" font-weight="bold" lengthAdjust="spacingAndGlyphs" textLength="23" x="178.5" y="1018.2388">3.3</text><text fill="#000000" font-family="sans-serif" font-size="13" lengthAdjust="spacingAndGlyphs" textLength="208" x="209.5" y="1018.2388">Researcher removed from group</text><rect fill="#EEEEEE" height="3" style="stroke: #EEEEEE; stroke-width: 1.0;" width="989.5" x="3" y="1055.8711"/><line style="stroke: #000000; stroke-width: 1.0;" x1="3" x2="992.5" y1="1055.8711" y2="1055.8711"/><line style="stroke: #000000; stroke-width: 1.0;" x1="3" x2="992.5" y1="1058.8711" y2="1058.8711"/><rect fill="#EEEEEE" height="27.1328" style="stroke: #000000; stroke-width: 2.0;" width="145" x="425.25" y="1043.3047"/><text fill="#000000" font-family="sans-serif" font-size="13" font-weight="bold" lengthAdjust="spacingAndGlyphs" textLength="122" x="433.25" y="1061.3716">Remove a group</text><polygon fill="#A80036" points="414.5,1101.5703,424.5,1105.5703,414.5,1109.5703,418.5,1105.5703" style="stroke: #A80036; stroke-width: 1.0;"/><line style="stroke: #A80036; stroke-width: 1.0;" x1="159.5" x2="420.5" y1="1105.5703" y2="1105.5703"/><text fill="#000000" font-family="sans-serif" font-size="13" font-weight="bold" lengthAdjust="spacingAndGlyphs" textLength="23" x="168.5" y="1098.5044">4.0</text><text fill="#000000" font-family="sans-serif" font-size="13" lengthAdjust="spacingAndGlyphs" textLength="93" x="199.5" y="1098.5044">Remove group</text><polygon fill="#A80036" points="675.5,1134.7031,685.5,1138.7031,675.5,1142.7031,679.5,1138.7031" style="stroke: #A80036; stroke-width: 1.0;"/><line style="stroke: #A80036; stroke-width: 1.0;" x1="436.5" x2="681.5" y1="1138.7031" y2="1138.7031"/><text fill="#000000" font-family="sans-serif" font-size="13" font-weight="bold" lengthAdjust="spacingAndGlyphs" textLength="23" x="445.5" y="1131.6372">4.1</text><text fill="#000000" font-family="sans-serif" font-size="13" lengthAdjust="spacingAndGlyphs" textLength="99" x="476.5" y="1131.6372">Remove CO API</text><polygon fill="#A80036" points="447.5,1167.8359,437.5,1171.8359,447.5,1175.8359,443.5,1171.8359" style="stroke: #A80036; stroke-width: 1.0;"/><line style="stroke: #A80036; stroke-width: 1.0; stroke-dasharray: 2.0,2.0;" x1="441.5" x2="691.5" y1="1171.8359" y2="1171.8359"/><text fill="#000000" font-family="sans-serif" font-size="13" font-weight="bold" lengthAdjust="spacingAndGlyphs" textLength="23" x="455.5" y="1164.77">4.2</text><text fill="#000000" font-family="sans-serif" font-size="13" lengthAdjust="spacingAndGlyphs" textLength="46" x="486.5" y="1164.77">200 OK</text><polygon fill="#A80036" points="170.5,1200.9688,160.5,1204.9688,170.5,1208.9688,166.5,1204.9688" style="stroke: #A80036; stroke-width: 1.0;"/><line style="stroke: #A80036; stroke-width: 1.0; stroke-dasharray: 2.0,2.0;" x1="164.5" x2="430.5" y1="1204.9688" y2="1204.9688"/><text fill="#000000" font-family="sans-serif" font-size="13" font-weight="bold" lengthAdjust="spacingAndGlyphs" textLength="23" x="178.5" y="1197.9028">4.3</text><text fill="#000000" font-family="sans-serif" font-size="13" lengthAdjust="spacingAndGlyphs" textLength="100" x="209.5" y="1197.9028">Group removed</text><!--MD5=[c628c63747d3b212f5229ab0bfe5742f]
@startuml
skinparam padding 2
skinparam shadowing false

title Yoda & SRAM

actor       Researcher          as researcher
actor       Datamanager         as datamanager
participant Yoda                as yoda
participant SRAM                as SRAM
participant "Institutional IdP" as IdP

== Create a group ==
autonumber 1.0
datamanager  -> yoda        : Create group
activate yoda
yoda         -> SRAM        : Create CO API
activate SRAM
SRAM        - -> yoda        : 200 OK (CO identifier)
deactivate SRAM
yoda         -> yoda        : Associate CO identifier to group
yoda        - -> datamanager : Group created
deactivate yoda

== Add researcher to group ==
autonumber 2.0
datamanager  -> yoda        : Add researcher to group
activate yoda
yoda       - ->> researcher  : Invitation mail (SRAM CO invite link)
deactivate yoda
hnote over yoda
    https://sram.surf.nl/registration?collaboration=<CO identifier>
endhnote
...
researcher   -> SRAM        : Follow SRAM CO invite link
activate SRAM
SRAM         -> IdP         : Redirect to IdP
activate IdP
IdP         - -> SRAM        : Researcher authenticated
deactivate IdP
SRAM       - ->> researcher  : Request motivation to join CO
researcher   -> SRAM        : Request to join CO
SRAM       - ->> datamanager : New join request mail (approve / disapprove)
deactivate SRAM
...
datamanager  -> SRAM        : Approve join request
activate SRAM
SRAM         -> SRAM        : Researcher added to CO
deactivate SRAM

== Remove researcher from group ==
autonumber 3.0
datamanager  -> yoda        : Remove researcher from group
activate yoda
yoda         -> SRAM        : Remove user from CO API
activate SRAM
SRAM        - -> yoda        : 200 OK
deactivate SRAM
yoda        - -> datamanager : Researcher removed from group
deactivate yoda

== Remove a group ==
autonumber 4.0
datamanager  -> yoda        : Remove group
activate yoda
yoda         -> SRAM        : Remove CO API
activate SRAM
SRAM        - -> yoda        : 200 OK
deactivate SRAM
yoda        - -> datamanager : Group removed
deactivate yoda

@enduml

PlantUML version 1.2020.02(Sun Mar 01 11:22:07 CET 2020)
(GPL source distribution)
Java Runtime: OpenJDK Runtime Environment
JVM: OpenJDK 64-Bit Server VM
Java Version: 11.0.18+10-post-Debian-1deb11u1
Operating System: Linux
Default Encoding: UTF-8
Language: en
Country: US
--></g></svg>