<?xml version="1.0" encoding="UTF-8"?>
<!-- Generator: Adobe Illustrator 16.0.0, SVG Export Plug-In . SVG Version: 6.00 Build 0)  -->
<!DOCTYPE svg PUBLIC "-//W3C//DTD SVG 1.1//EN" "http://www.w3.org/Graphics/SVG/1.1/DTD/svg11.dtd">
<svg version="1.1" id="Layer_1" xmlns="http://www.w3.org/2000/svg" xmlns:xlink="http://www.w3.org/1999/xlink" x="0px" y="0px" width="215.392px" height="53.868px" viewBox="0 0 215.392 53.868" enable-background="new 0 0 215.392 53.868" xml:space="preserve">
<g>
	<polygon fill="#FFFFFF" points="22.741,0.906 23.252,0.251 24.118,0.146 24.772,0.659 29.093,0.659 29.747,0.146 30.611,0.251    31.124,0.905 35.321,1.94 36.078,1.598 36.892,1.907 37.233,2.666 41.055,4.67 41.872,4.521 42.588,5.014 42.738,5.834    45.974,8.698 46.802,8.75 47.378,9.401 47.329,10.231 49.781,13.781 50.574,14.03 50.981,14.801 50.734,15.594 52.266,19.635    52.979,20.065 53.186,20.91 52.757,21.621 53.276,25.91 53.864,26.498 53.864,27.372 53.276,27.958 52.757,32.243 53.188,32.954    52.981,33.801 52.268,34.229 50.736,38.27 50.983,39.063 50.576,39.836 49.784,40.083 47.329,43.637 47.378,44.469 46.802,45.12    45.974,45.168 42.742,48.032 42.592,48.85 41.877,49.346 41.059,49.194 37.232,51.202 36.892,51.961 36.078,52.27 35.32,51.928    31.129,52.963 30.616,53.618 29.751,53.721 29.098,53.208 24.776,53.208 24.122,53.721 23.258,53.618 22.745,52.963 18.549,51.928    17.792,52.27 16.978,51.961 16.636,51.202 12.814,49.198 11.997,49.348 11.28,48.852 11.131,48.034 7.895,45.168 7.066,45.12    6.488,44.469 6.537,43.637 4.086,40.088 3.292,39.84 2.887,39.069 3.135,38.274 1.602,34.233 0.891,33.805 0.682,32.958    1.112,32.249 0.591,27.958 0.003,27.372 0.003,26.498 0.591,25.91 1.111,21.627 0.68,20.914 0.889,20.069 1.6,19.639 3.133,15.599    2.885,14.805 3.29,14.033 4.083,13.785 6.538,10.231 6.488,9.401 7.066,8.75 7.895,8.698 11.126,5.836 11.275,5.019 11.993,4.523    12.81,4.674 16.636,2.666 16.978,1.907 17.792,1.598 18.549,1.94  "/>
	<g>
		<defs>
			<polygon id="SVGID_1_" points="29.093,0.659 24.772,0.659 24.119,0.146 23.252,0.251 22.741,0.906 18.549,1.94 17.792,1.598      16.978,1.907 16.636,2.666 12.81,4.674 11.993,4.523 11.275,5.018 11.126,5.836 7.894,8.698 7.066,8.75 6.488,9.401      6.538,10.231 4.083,13.786 3.29,14.033 2.885,14.805 3.132,15.598 1.601,19.639 0.89,20.069 0.681,20.915 1.111,21.627      0.591,25.911 0.003,26.498 0.003,27.372 0.591,27.958 1.112,32.249 0.682,32.958 0.891,33.805 1.602,34.233 3.134,38.274      2.888,39.069 3.292,39.84 4.086,40.088 6.537,43.637 6.488,44.469 7.066,45.12 7.894,45.168 11.131,48.034 11.279,48.852      11.997,49.348 12.815,49.198 16.635,51.202 16.978,51.961 17.792,52.27 18.549,51.928 22.745,52.963 23.257,53.618      24.122,53.721 24.777,53.208 29.098,53.208 29.751,53.721 30.616,53.618 31.129,52.963 35.32,51.928 36.078,52.27 36.892,51.961      37.233,51.202 41.058,49.194 41.877,49.346 42.592,48.85 42.742,48.032 45.974,45.168 46.802,45.12 47.378,44.469 47.33,43.637      49.785,40.083 50.577,39.836 50.983,39.063 50.735,38.27 52.268,34.229 52.981,33.801 53.188,32.954 52.758,32.243      53.276,27.958 53.864,27.372 53.864,26.498 53.276,25.911 52.758,21.621 53.186,20.91 52.979,20.065 52.266,19.635      50.733,15.594 50.981,14.801 50.574,14.03 49.78,13.781 47.33,10.231 47.378,9.401 46.802,8.75 45.974,8.698 42.738,5.834      42.588,5.014 41.872,4.521 41.055,4.671 37.233,2.666 36.892,1.907 36.078,1.598 35.321,1.94 31.124,0.905 30.611,0.251      29.747,0.146    "/>
		</defs>
		<clipPath id="SVGID_2_">
			<use xlink:href="#SVGID_1_" overflow="visible"/>
		</clipPath>
		<path clip-path="url(#SVGID_2_)" fill="#FFFFFF" d="M31.581,3.452c0.21,0.128,0.561,0.312,0.827,0.375    C32.71,3.9,33.044,3.92,33.131,3.566c0.084-0.346-0.347-0.484-0.753-0.723c-0.407-0.238-0.796-0.574-0.619-1.299    c0.199-0.807,1.102-0.982,1.811-0.809c0.417,0.104,0.783,0.294,1.132,0.536l-0.445,0.624c-0.227-0.152-0.553-0.301-0.753-0.35    c-0.467-0.114-0.681,0.011-0.739,0.25c-0.036,0.151,0.04,0.308,0.451,0.507c0.906,0.451,1.071,0.898,0.944,1.425    c-0.227,0.924-1.056,1.096-1.89,0.891c-0.389-0.094-0.775-0.281-1.113-0.496L31.581,3.452z"/>
		<path clip-path="url(#SVGID_2_)" fill="none" stroke="#FFFFFF" stroke-width="0.4" d="M31.581,3.452    c0.21,0.128,0.561,0.312,0.827,0.375C32.71,3.9,33.044,3.92,33.131,3.566c0.084-0.346-0.347-0.484-0.753-0.723    c-0.407-0.238-0.796-0.574-0.619-1.299c0.199-0.807,1.102-0.982,1.811-0.809c0.417,0.104,0.783,0.294,1.132,0.536l-0.445,0.624    c-0.227-0.152-0.553-0.301-0.753-0.35c-0.467-0.114-0.681,0.011-0.739,0.25c-0.036,0.151,0.04,0.308,0.451,0.507    c0.906,0.451,1.071,0.898,0.944,1.425c-0.227,0.924-1.056,1.096-1.89,0.891c-0.389-0.094-0.775-0.281-1.113-0.496L31.581,3.452z"/>
		<path clip-path="url(#SVGID_2_)" fill="#FFFFFF" d="M39.505,2.989c1.16,0.608,1.413,1.781,0.894,2.772    c-0.522,0.994-1.631,1.449-2.79,0.843c-1.165-0.611-1.419-1.783-0.898-2.777C37.232,2.835,38.341,2.379,39.505,2.989     M37.978,5.889c0.512,0.271,1.11,0.142,1.502-0.606c0.394-0.753,0.161-1.316-0.352-1.585c-0.508-0.268-1.103-0.141-1.497,0.61    S37.468,5.623,37.978,5.889"/>
		<path clip-path="url(#SVGID_2_)" fill="none" stroke="#FFFFFF" stroke-width="0.4" d="M39.505,2.989    c1.16,0.608,1.413,1.781,0.894,2.772c-0.522,0.994-1.631,1.449-2.79,0.843c-1.165-0.611-1.419-1.783-0.898-2.777    C37.232,2.835,38.341,2.379,39.505,2.989z M37.978,5.889c0.512,0.271,1.11,0.142,1.502-0.606c0.394-0.753,0.161-1.316-0.352-1.585    c-0.508-0.268-1.103-0.141-1.497,0.61S37.468,5.623,37.978,5.889z"/>
		<path clip-path="url(#SVGID_2_)" fill="#FFFFFF" d="M43.968,5.875l-2.506,3.072c0.658,0.533,1.285,1.098,1.881,1.7l0.606-0.603    C43.558,9.65,43.15,9.271,42.731,8.9l2.04-2.345"/>
		<path clip-path="url(#SVGID_2_)" fill="none" stroke="#FFFFFF" stroke-width="0.4" d="M43.968,5.875l-2.506,3.072    c0.658,0.533,1.285,1.098,1.881,1.7l0.606-0.603C43.558,9.65,43.15,9.271,42.731,8.9l2.04-2.345"/>
		<path clip-path="url(#SVGID_2_)" fill="#FFFFFF" d="M52.446,17.832l-3.75,1.332c-0.1-0.28-0.214-0.578-0.329-0.858l3.702-1.479"/>
		<path clip-path="url(#SVGID_2_)" fill="none" stroke="#FFFFFF" stroke-width="0.4" d="M52.446,17.832l-3.75,1.332    c-0.1-0.28-0.214-0.578-0.329-0.858l3.702-1.479"/>
		<path clip-path="url(#SVGID_2_)" fill="#FFFFFF" d="M53.927,24.703l-3.066-0.619l-0.002-0.01l2.837-1.293l-0.179-1.041    l-3.707,1.935c0.054,0.36,0.093,0.719,0.128,1.08l4.049,0.952"/>
		<path clip-path="url(#SVGID_2_)" fill="none" stroke="#FFFFFF" stroke-width="0.4" d="M53.927,24.703l-3.066-0.619l-0.002-0.01    l2.837-1.293l-0.179-1.041l-3.707,1.935c0.054,0.36,0.093,0.719,0.128,1.08l4.049,0.952"/>
		<path clip-path="url(#SVGID_2_)" fill="#FFFFFF" d="M50.804,28.725c-0.102,0.225-0.239,0.594-0.272,0.865    c-0.037,0.311-0.017,0.645,0.344,0.688c0.355,0.043,0.442-0.402,0.627-0.836c0.189-0.43,0.474-0.857,1.218-0.768    c0.823,0.098,1.106,0.975,1.019,1.699c-0.051,0.43-0.2,0.812-0.395,1.189l-0.676-0.367c0.125-0.242,0.235-0.584,0.258-0.791    c0.057-0.475-0.095-0.674-0.336-0.701c-0.155-0.02-0.302,0.074-0.45,0.51c-0.34,0.951-0.764,1.17-1.3,1.105    c-0.945-0.113-1.216-0.916-1.114-1.768c0.048-0.398,0.185-0.803,0.359-1.162L50.804,28.725z"/>
		<path clip-path="url(#SVGID_2_)" fill="none" stroke="#FFFFFF" stroke-width="0.4" d="M50.804,28.725    c-0.102,0.225-0.239,0.594-0.272,0.865c-0.037,0.311-0.017,0.645,0.344,0.688c0.355,0.043,0.442-0.402,0.627-0.836    c0.189-0.43,0.474-0.857,1.218-0.768c0.823,0.098,1.106,0.975,1.019,1.699c-0.051,0.43-0.2,0.812-0.395,1.189l-0.676-0.367    c0.125-0.242,0.235-0.584,0.258-0.791c0.057-0.475-0.095-0.674-0.336-0.701c-0.155-0.02-0.302,0.074-0.45,0.51    c-0.34,0.951-0.764,1.17-1.3,1.105c-0.945-0.113-1.216-0.916-1.114-1.768c0.048-0.398,0.185-0.803,0.359-1.162L50.804,28.725z"/>
		<path clip-path="url(#SVGID_2_)" fill="#FFFFFF" d="M51.666,37.989l-0.917-0.408c0.134-0.297,0.264-0.604,0.385-0.91l-2.761-1.115    c0.113-0.281,0.224-0.58,0.323-0.861l2.808,1.006c0.107-0.305,0.213-0.611,0.309-0.918l0.951,0.299"/>
		<path clip-path="url(#SVGID_2_)" fill="none" stroke="#FFFFFF" stroke-width="0.4" d="M51.666,37.989l-0.917-0.408    c0.134-0.297,0.264-0.604,0.385-0.91l-2.761-1.115c0.113-0.281,0.224-0.58,0.323-0.861l2.808,1.006    c0.107-0.305,0.213-0.611,0.309-0.918l0.951,0.299"/>
		<path clip-path="url(#SVGID_2_)" fill="#FFFFFF" d="M48.907,42.766l-3.224-2.332c0.175-0.244,0.356-0.51,0.521-0.76l3.318,2.207"/>
		<path clip-path="url(#SVGID_2_)" fill="none" stroke="#FFFFFF" stroke-width="0.4" d="M48.907,42.766l-3.224-2.332    c0.175-0.244,0.356-0.51,0.521-0.76l3.318,2.207"/>
		<path clip-path="url(#SVGID_2_)" fill="#FFFFFF" d="M43.689,48.213l-0.621-0.781c0.258-0.205,0.514-0.412,0.765-0.627    l-1.926-2.273c0.231-0.195,0.467-0.408,0.688-0.611l2.015,2.195c0.24-0.219,0.474-0.441,0.7-0.67l0.703,0.711"/>
		<path clip-path="url(#SVGID_2_)" fill="none" stroke="#FFFFFF" stroke-width="0.4" d="M43.689,48.213l-0.621-0.781    c0.258-0.205,0.514-0.412,0.765-0.627l-1.926-2.273c0.231-0.195,0.467-0.408,0.688-0.611l2.015,2.195    c0.24-0.219,0.474-0.441,0.7-0.67l0.703,0.711"/>
		<path clip-path="url(#SVGID_2_)" fill="#FFFFFF" d="M39.034,51.172l-1.777-3.57c0.27-0.137,0.55-0.283,0.814-0.432l1.916,3.498"/>
		<path clip-path="url(#SVGID_2_)" fill="none" stroke="#FFFFFF" stroke-width="0.4" d="M39.034,51.172l-1.777-3.57    c0.27-0.137,0.55-0.283,0.814-0.432l1.916,3.498"/>
		<path clip-path="url(#SVGID_2_)" fill="#FFFFFF" d="M31.457,53.643l-0.687-3.918c0.779-0.131,1.553-0.303,2.315-0.516l0.294,1.008    c0.415-0.115,0.826-0.244,1.235-0.383l0.202-0.777l0.599,1.346l-0.784,2.504L31.457,53.643z"/>
		<path clip-path="url(#SVGID_2_)" fill="none" stroke="#FFFFFF" stroke-width="0.4" d="M31.457,53.643l-0.687-3.918    c0.779-0.131,1.553-0.303,2.315-0.516l0.294,1.008c0.415-0.115,0.826-0.244,1.235-0.383l0.202-0.777l0.599,1.346l-0.784,2.504    L31.457,53.643z"/>
		<path clip-path="url(#SVGID_2_)" fill="#FFFFFF" d="M19.949,53.106l1.035-3.848c0.292,0.078,0.602,0.15,0.898,0.217l-0.884,3.891"/>
		<path clip-path="url(#SVGID_2_)" fill="none" stroke="#FFFFFF" stroke-width="0.4" d="M19.949,53.106l1.035-3.848    c0.292,0.078,0.602,0.15,0.898,0.217l-0.884,3.891"/>
		<path clip-path="url(#SVGID_2_)" fill="#FFFFFF" d="M15.452,51.469l1.699-3.598c-0.766-0.359-1.512-0.758-2.235-1.197l-0.444,0.73    c0.476,0.289,0.961,0.561,1.456,0.816L14.494,51"/>
		<path clip-path="url(#SVGID_2_)" fill="none" stroke="#FFFFFF" stroke-width="0.4" d="M15.452,51.469l1.699-3.598    c-0.766-0.359-1.512-0.758-2.235-1.197l-0.444,0.73c0.476,0.289,0.961,0.561,1.456,0.816L14.494,51"/>
		<path clip-path="url(#SVGID_2_)" fill="#FFFFFF" d="M9.917,48.002l2.504-3.082c-0.657-0.531-1.286-1.098-1.882-1.699l-0.606,0.604    c0.393,0.396,0.799,0.775,1.218,1.143l-2.045,2.338"/>
		<path clip-path="url(#SVGID_2_)" fill="none" stroke="#FFFFFF" stroke-width="0.4" d="M9.917,48.002l2.504-3.082    c-0.657-0.531-1.286-1.098-1.882-1.699l-0.606,0.604c0.393,0.396,0.799,0.775,1.218,1.143l-2.045,2.338"/>
		<path clip-path="url(#SVGID_2_)" fill="#FFFFFF" d="M3.561,40.618l4.028-1.043c0.198,0.303,0.403,0.602,0.615,0.895l-2.378,3.43    l-0.648-0.832l1.912-2.461l-0.006-0.008l-2.999,0.881"/>
		<path clip-path="url(#SVGID_2_)" fill="none" stroke="#FFFFFF" stroke-width="0.4" d="M3.561,40.618l4.028-1.043    c0.198,0.303,0.403,0.602,0.615,0.895l-2.378,3.43l-0.648-0.832l1.912-2.461l-0.006-0.008l-2.999,0.881"/>
		<path clip-path="url(#SVGID_2_)" fill="#FFFFFF" d="M4.975,36.465c-0.015-0.246-0.064-0.641-0.162-0.895    c-0.111-0.293-0.286-0.578-0.624-0.449c-0.334,0.127-0.203,0.562-0.168,1.031c0.037,0.471-0.019,0.98-0.717,1.246    c-0.776,0.297-1.433-0.348-1.694-1.027c-0.154-0.402-0.203-0.812-0.203-1.238l0.768,0.014c0.003,0.271,0.065,0.623,0.139,0.818    c0.17,0.447,0.396,0.553,0.625,0.463c0.146-0.055,0.231-0.205,0.161-0.658c-0.144-1.002,0.13-1.391,0.636-1.584    c0.89-0.34,1.5,0.242,1.807,1.045c0.144,0.375,0.209,0.797,0.226,1.197L4.975,36.465z"/>
		<path clip-path="url(#SVGID_2_)" fill="none" stroke="#FFFFFF" stroke-width="0.4" d="M4.975,36.465    c-0.015-0.246-0.064-0.641-0.162-0.895c-0.111-0.293-0.286-0.578-0.624-0.449c-0.334,0.127-0.203,0.562-0.168,1.031    c0.037,0.471-0.019,0.98-0.717,1.246c-0.776,0.297-1.433-0.348-1.694-1.027c-0.154-0.402-0.203-0.812-0.203-1.238l0.768,0.014    c0.003,0.271,0.065,0.623,0.139,0.818c0.17,0.447,0.396,0.553,0.625,0.463c0.146-0.055,0.231-0.205,0.161-0.658    c-0.144-1.002,0.13-1.391,0.636-1.584c0.89-0.34,1.5,0.242,1.807,1.045c0.144,0.375,0.209,0.797,0.226,1.197L4.975,36.465z"/>
		<path clip-path="url(#SVGID_2_)" fill="#FFFFFF" d="M-0.092,28.651l0.99-0.062c0.021,0.326,0.049,0.656,0.084,0.986l2.963-0.299    c0.032,0.299,0.072,0.617,0.115,0.914l-2.953,0.416c0.045,0.318,0.097,0.639,0.154,0.955l-0.985,0.178"/>
		<path clip-path="url(#SVGID_2_)" fill="none" stroke="#FFFFFF" stroke-width="0.4" d="M-0.092,28.651l0.99-0.062    c0.021,0.326,0.049,0.656,0.084,0.986l2.963-0.299c0.032,0.299,0.072,0.617,0.115,0.914l-2.953,0.416    c0.045,0.318,0.097,0.639,0.154,0.955l-0.985,0.178"/>
		<path clip-path="url(#SVGID_2_)" fill="#FFFFFF" d="M4.277,22.412c-0.087,0.354-0.14,0.688-0.19,1.033    c0,0-0.612,0.166-0.897,0.272c-0.346,0.125-0.67,0.33-0.72,0.595c-0.01,0.053-0.013,0.116-0.016,0.149l1.493,0.146    c-0.03,0.305-0.055,0.61-0.073,0.916l-3.83-0.218c0.033-0.545,0.083-1.084,0.147-1.625c0.094-0.769,0.471-1.399,1.168-1.349    c0.572,0.039,0.935,0.427,0.947,1.039l0.018,0.004c0.15-0.176,0.283-0.243,0.525-0.381C3.227,22.775,4.277,22.412,4.277,22.412"/>
		<path clip-path="url(#SVGID_2_)" fill="none" stroke="#FFFFFF" stroke-width="0.4" d="M4.277,22.412    c-0.087,0.354-0.14,0.688-0.19,1.033c0,0-0.612,0.166-0.897,0.272c-0.346,0.125-0.67,0.33-0.72,0.595    c-0.01,0.053-0.013,0.116-0.016,0.149l1.493,0.146c-0.03,0.305-0.055,0.61-0.073,0.916l-3.83-0.218    c0.033-0.545,0.083-1.084,0.147-1.625c0.094-0.769,0.471-1.399,1.168-1.349c0.572,0.039,0.935,0.427,0.947,1.039l0.018,0.004    c0.15-0.176,0.283-0.243,0.525-0.381C3.227,22.775,4.277,22.412,4.277,22.412z"/>
		<path clip-path="url(#SVGID_2_)" fill="#FFFFFF" d="M1.813,16.791l4.303,0.117c-0.154,0.319-0.301,0.646-0.441,0.969L4.77,17.836    c-0.172,0.416-0.332,0.839-0.479,1.267l0.707,0.569c-0.108,0.324-0.208,0.652-0.301,0.984l-3.259-2.877"/>
		<path clip-path="url(#SVGID_2_)" fill="none" stroke="#FFFFFF" stroke-width="0.4" d="M1.813,16.791l4.303,0.117    c-0.154,0.319-0.301,0.646-0.441,0.969L4.77,17.836c-0.172,0.416-0.332,0.839-0.479,1.267l0.707,0.569    c-0.108,0.324-0.208,0.652-0.301,0.984l-3.259-2.877"/>
		<path clip-path="url(#SVGID_2_)" fill="#FFFFFF" d="M8.445,7.143l2.908,0.974l-1.679-2.06l0.791-0.623l2.372,3.191    c-0.271,0.209-0.538,0.424-0.799,0.645L9.232,8.342l1.773,1.854c-0.202,0.192-0.4,0.386-0.595,0.588L7.562,8.008"/>
		<path clip-path="url(#SVGID_2_)" fill="none" stroke="#FFFFFF" stroke-width="0.4" d="M8.445,7.143l2.908,0.974l-1.679-2.06    l0.791-0.623l2.372,3.191c-0.271,0.209-0.538,0.424-0.799,0.645L9.232,8.342l1.773,1.854c-0.202,0.192-0.4,0.386-0.595,0.588    L7.562,8.008"/>
		<path clip-path="url(#SVGID_2_)" fill="#FFFFFF" d="M14.363,2.99c1.161-0.61,2.269-0.153,2.791,0.839    c0.52,0.994,0.268,2.164-0.893,2.774c-1.165,0.609-2.273,0.154-2.794-0.84C12.945,4.771,13.199,3.601,14.363,2.99 M15.884,5.895    c0.513-0.271,0.746-0.834,0.352-1.584c-0.395-0.75-0.991-0.879-1.503-0.607c-0.509,0.266-0.742,0.83-0.348,1.581    C14.778,6.032,15.374,6.161,15.884,5.895"/>
		<path clip-path="url(#SVGID_2_)" fill="none" stroke="#FFFFFF" stroke-width="0.4" d="M14.363,2.99    c1.161-0.61,2.269-0.153,2.791,0.839c0.52,0.994,0.268,2.164-0.893,2.774c-1.165,0.609-2.273,0.154-2.794-0.84    C12.945,4.771,13.199,3.601,14.363,2.99z M15.884,5.895c0.513-0.271,0.746-0.834,0.352-1.584c-0.395-0.75-0.991-0.879-1.503-0.607    c-0.509,0.266-0.742,0.83-0.348,1.581C14.778,6.032,15.374,6.161,15.884,5.895z"/>
		<path clip-path="url(#SVGID_2_)" fill="#FFFFFF" d="M20.133,3.983c0.245,0.014,0.641,0.014,0.906-0.052    c0.304-0.076,0.608-0.214,0.522-0.568c-0.087-0.345-0.534-0.269-1.004-0.288c-0.471-0.021-0.971-0.14-1.152-0.863    c-0.2-0.808,0.52-1.381,1.228-1.56c0.417-0.103,0.83-0.103,1.251-0.051l-0.103,0.76c-0.273-0.028-0.629-0.009-0.829,0.04    c-0.466,0.116-0.598,0.327-0.539,0.564c0.037,0.152,0.179,0.254,0.635,0.24c1.011-0.022,1.365,0.297,1.496,0.822    c0.23,0.926-0.423,1.462-1.256,1.67c-0.39,0.096-0.818,0.108-1.216,0.075L20.133,3.983z"/>
		<path clip-path="url(#SVGID_2_)" fill="none" stroke="#FFFFFF" stroke-width="0.4" d="M20.133,3.983    c0.245,0.014,0.641,0.014,0.906-0.052c0.304-0.076,0.608-0.214,0.522-0.568c-0.087-0.345-0.534-0.269-1.004-0.288    c-0.471-0.021-0.971-0.14-1.152-0.863c-0.2-0.808,0.52-1.381,1.228-1.56c0.417-0.103,0.83-0.103,1.251-0.051l-0.103,0.76    c-0.273-0.028-0.629-0.009-0.829,0.04c-0.466,0.116-0.598,0.327-0.539,0.564c0.037,0.152,0.179,0.254,0.635,0.24    c1.011-0.022,1.365,0.297,1.496,0.822c0.23,0.926-0.423,1.462-1.256,1.67c-0.39,0.096-0.818,0.108-1.216,0.075L20.133,3.983z"/>
	</g>
	<g>
		<path fill="#FFFFFF" d="M26.935,2.928c0.538,0,0.974-0.436,0.974-0.974c0-0.536-0.436-0.972-0.974-0.972    c-0.539,0-0.974,0.436-0.974,0.972C25.961,2.492,26.396,2.928,26.935,2.928"/>
		<circle fill="none" stroke="#FFFFFF" stroke-width="0.4" cx="26.935" cy="1.955" r="0.973"/>
		<path fill="#FFFFFF" d="M46.695,13.301c0.304,0.443,0.912,0.556,1.354,0.248c0.442-0.305,0.551-0.91,0.246-1.352    c-0.303-0.443-0.909-0.552-1.351-0.248C46.501,12.254,46.39,12.86,46.695,13.301"/>
		<circle fill="none" stroke="#FFFFFF" stroke-width="0.4" cx="47.495" cy="12.749" r="0.972"/>
		<path fill="#FFFFFF" d="M26.935,50.94c0.538,0,0.974,0.436,0.974,0.975s-0.436,0.973-0.974,0.973    c-0.539,0-0.974-0.434-0.974-0.973S26.396,50.94,26.935,50.94"/>
		<circle fill="none" stroke="#FFFFFF" stroke-width="0.4" cx="26.935" cy="51.914" r="0.974"/>
		<path fill="#FFFFFF" d="M7.173,13.301c0.305-0.44,0.195-1.047-0.248-1.352c-0.442-0.304-1.048-0.195-1.353,0.248    c-0.305,0.441-0.194,1.047,0.248,1.352C6.262,13.856,6.868,13.744,7.173,13.301"/>
		<path fill="none" stroke="#FFFFFF" stroke-width="0.4" d="M7.173,13.301c0.305-0.44,0.195-1.047-0.248-1.352    c-0.442-0.304-1.048-0.195-1.353,0.248c-0.305,0.441-0.194,1.047,0.248,1.352C6.262,13.856,6.868,13.744,7.173,13.301z"/>
		<polyline fill="#FFFFFF" points="29.515,37.395 36.078,52.27 36.892,51.961   "/>
		<polyline fill="#FFFFFF" points="16.446,22.963 0.995,20.017 0.889,20.068 0.68,20.914   "/>
		<polyline fill="#FFFFFF" points="3.29,14.033 2.885,14.806 2.938,14.938 16.446,22.964   "/>
	</g>
	<g>
		<defs>
			<path id="SVGID_3_" d="M0,26.934c0,14.875,12.059,26.934,26.935,26.934c14.875,0,26.932-12.059,26.932-26.934     C53.867,12.062,41.81,0,26.935,0C12.059,0,0,12.062,0,26.934"/>
		</defs>
		<clipPath id="SVGID_4_">
			<use xlink:href="#SVGID_3_" overflow="visible"/>
		</clipPath>
		<polyline clip-path="url(#SVGID_4_)" fill="#231F20" points="24.078,-0.077 26.935,16.16 29.791,-0.077   "/>
		<polyline clip-path="url(#SVGID_4_)" fill="#231F20" points="30.628,0.024 29.514,16.474 36.174,1.392   "/>
		<polyline clip-path="url(#SVGID_4_)" fill="#231F20" points="36.957,1.688 31.941,17.396 42.016,4.344   "/>
		<polyline clip-path="url(#SVGID_4_)" fill="#231F20" points="42.708,4.822 34.08,18.87 46.983,8.611   "/>
		<polyline clip-path="url(#SVGID_4_)" fill="#231F20" points="47.54,9.238 35.801,20.814 50.786,13.939   "/>
		<polyline clip-path="url(#SVGID_4_)" fill="#231F20" points="51.175,14.686 37.008,23.112 53.201,20.026   "/>
		<polyline clip-path="url(#SVGID_4_)" fill="#231F20" points="53.405,20.844 37.631,25.637 54.092,26.515   "/>
		<polyline clip-path="url(#SVGID_4_)" fill="#231F20" points="54.092,27.354 37.631,28.233 53.405,33.026   "/>
		<polyline clip-path="url(#SVGID_4_)" fill="#231F20" points="53.202,33.84 37.008,30.754 51.176,39.184   "/>
		<polyline clip-path="url(#SVGID_4_)" fill="#231F20" points="50.786,39.93 35.802,33.055 47.54,44.629   "/>
		<polyline clip-path="url(#SVGID_4_)" fill="#231F20" points="46.983,45.258 34.08,34.997 42.708,49.045   "/>
		<polyline clip-path="url(#SVGID_4_)" fill="#231F20" points="42.016,49.526 31.941,36.475 36.957,52.18   "/>
		<polyline clip-path="url(#SVGID_4_)" fill="#231F20" points="29.791,53.944 26.935,37.708 24.078,53.944   "/>
		<polyline clip-path="url(#SVGID_4_)" fill="#231F20" points="23.242,53.844 24.355,37.395 17.695,52.475   "/>
		<polyline clip-path="url(#SVGID_4_)" fill="#231F20" points="16.913,52.18 21.928,36.475 11.854,49.526   "/>
		<polyline clip-path="url(#SVGID_4_)" fill="#231F20" points="11.16,49.045 19.79,34.997 6.884,45.258   "/>
		<polyline clip-path="url(#SVGID_4_)" fill="#231F20" points="6.33,44.629 18.068,33.055 3.083,39.93   "/>
		<polyline clip-path="url(#SVGID_4_)" fill="#231F20" points="2.692,39.184 16.86,30.754 0.665,33.84   "/>
		<polyline clip-path="url(#SVGID_4_)" fill="#231F20" points="0.464,33.026 16.239,28.233 -0.225,27.354   "/>
		<polyline clip-path="url(#SVGID_4_)" fill="#231F20" points="-0.224,26.514 16.239,25.637 0.465,20.844   "/>
		<polyline clip-path="url(#SVGID_4_)" fill="#231F20" points="0.666,20.025 16.86,23.112 2.692,14.686   "/>
		<polyline clip-path="url(#SVGID_4_)" fill="#231F20" points="3.083,13.939 18.068,20.814 6.329,9.238   "/>
		<polyline clip-path="url(#SVGID_4_)" fill="#231F20" points="6.884,8.611 19.79,18.87 11.16,4.822   "/>
		<polyline clip-path="url(#SVGID_4_)" fill="#231F20" points="11.854,4.344 21.929,17.395 16.913,1.688   "/>
		<polyline clip-path="url(#SVGID_4_)" fill="#231F20" points="17.696,1.392 24.355,16.474 23.242,0.024   "/>
		<path clip-path="url(#SVGID_4_)" fill="#FFFFFF" d="M43.968,5.875l-2.506,3.072c0.658,0.533,1.285,1.098,1.881,1.7l0.606-0.603    C43.558,9.65,43.15,9.271,42.731,8.9l2.04-2.345"/>
		<path clip-path="url(#SVGID_4_)" fill="#FFFFFF" d="M52.446,17.832l-3.75,1.332c-0.1-0.28-0.214-0.578-0.329-0.858l3.702-1.479"/>
		<path clip-path="url(#SVGID_4_)" fill="#FFFFFF" d="M53.927,24.703l-3.066-0.619l-0.002-0.01l2.837-1.293l-0.179-1.041    l-3.707,1.935c0.054,0.36,0.093,0.719,0.128,1.08l4.049,0.952"/>
		<path clip-path="url(#SVGID_4_)" fill="#FFFFFF" d="M51.666,37.989l-0.917-0.408c0.134-0.297,0.264-0.604,0.385-0.91l-2.761-1.115    c0.113-0.281,0.224-0.58,0.323-0.861l2.808,1.006c0.107-0.305,0.213-0.611,0.309-0.918l0.951,0.299"/>
		<path clip-path="url(#SVGID_4_)" fill="#FFFFFF" d="M48.907,42.766l-3.224-2.332c0.175-0.244,0.356-0.51,0.521-0.76l3.318,2.207"/>
		<path clip-path="url(#SVGID_4_)" fill="#FFFFFF" d="M43.689,48.213l-0.621-0.781c0.258-0.205,0.514-0.412,0.765-0.627    l-1.926-2.273c0.231-0.195,0.467-0.408,0.688-0.611l2.015,2.195c0.24-0.219,0.474-0.441,0.7-0.67l0.703,0.711"/>
		<path clip-path="url(#SVGID_4_)" fill="#FFFFFF" d="M39.034,51.172l-1.777-3.57c0.27-0.137,0.55-0.283,0.814-0.432l1.916,3.498"/>
		<polyline clip-path="url(#SVGID_4_)" fill="#231F20" points="36.174,52.475 29.514,37.395 30.628,53.844   "/>
	</g>
	<g>
		<defs>
			<path id="SVGID_5_" d="M30.613,53.618c1.894-0.258,3.725-0.713,5.472-1.344l-6.571-14.879L30.613,53.618z"/>
		</defs>
		<clipPath id="SVGID_6_">
			<use xlink:href="#SVGID_5_" overflow="visible"/>
		</clipPath>
		<path clip-path="url(#SVGID_6_)" fill="#FFFFFF" d="M34.632,52.907l0.783-2.504l-0.599-1.346l-0.202,0.777    c-0.409,0.139-0.82,0.268-1.235,0.383l-0.293-1.008c-0.763,0.213-1.537,0.385-2.316,0.516l0.141,0.842    c0.478-0.08,0.954-0.174,1.486-0.299l0.168,0.664c-0.5,0.115-0.941,0.205-1.384,0.283l0.125,0.758    c0.468-0.08,0.919-0.174,1.444-0.293l0.162,0.648c-0.579,0.135-1.096,0.238-1.616,0.326l0.161,0.988 M33.941,52.315l-0.369-1.352    c0.266-0.074,0.563-0.162,0.84-0.248l-0.422,1.588L33.941,52.315z"/>
	</g>
	<g>
		<defs>
			<path id="SVGID_7_" d="M0,26.934c0,14.875,12.059,26.934,26.935,26.934c14.875,0,26.932-12.059,26.932-26.934     C53.867,12.062,41.81,0,26.935,0C12.059,0,0,12.062,0,26.934"/>
		</defs>
		<clipPath id="SVGID_8_">
			<use xlink:href="#SVGID_7_" overflow="visible"/>
		</clipPath>
		<path clip-path="url(#SVGID_8_)" fill="#FFFFFF" d="M19.949,53.106l1.035-3.848c0.292,0.078,0.602,0.15,0.898,0.217l-0.884,3.891"/>
		<path clip-path="url(#SVGID_8_)" fill="#FFFFFF" d="M15.452,51.469l1.699-3.598c-0.766-0.359-1.512-0.758-2.235-1.197l-0.444,0.73    c0.476,0.289,0.961,0.561,1.456,0.816L14.494,51"/>
		<path clip-path="url(#SVGID_8_)" fill="#FFFFFF" d="M9.917,48.002l2.504-3.082c-0.657-0.531-1.286-1.098-1.882-1.699l-0.606,0.604    c0.393,0.396,0.799,0.775,1.218,1.143l-2.045,2.338"/>
		<path clip-path="url(#SVGID_8_)" fill="#FFFFFF" d="M3.561,40.618l4.028-1.043c0.198,0.303,0.403,0.602,0.615,0.895l-2.378,3.43    l-0.648-0.832l1.912-2.461l-0.006-0.008l-2.999,0.881"/>
		<path clip-path="url(#SVGID_8_)" fill="#FFFFFF" d="M-0.092,28.651l0.99-0.062c0.021,0.326,0.049,0.656,0.084,0.986l2.963-0.299    c0.032,0.299,0.072,0.617,0.115,0.914l-2.953,0.416c0.045,0.318,0.097,0.639,0.154,0.955l-0.985,0.178"/>
		<path clip-path="url(#SVGID_8_)" fill="#FFFFFF" d="M0.02,23.666l0.172,0.015c0.094-0.769,0.471-1.399,1.168-1.349    c0.572,0.039,0.934,0.427,0.947,1.039l0.018,0.004c0.15-0.176,0.283-0.243,0.525-0.381c0.378-0.219,1.428-0.582,1.428-0.582    c-0.087,0.354-0.14,0.688-0.19,1.033c0,0-0.612,0.166-0.897,0.272c-0.346,0.125-0.671,0.33-0.72,0.595    c-0.011,0.053-0.013,0.116-0.016,0.149l1.493,0.146c-0.03,0.305-0.055,0.61-0.073,0.916l-4.015-0.232 M0.856,23.869    c-0.016,0.146-0.019,0.289-0.036,0.447l0.955,0.096c0.012-0.133,0.031-0.291,0.046-0.43c0.029-0.238-0.019-0.603-0.406-0.646    C1.099,23.3,0.9,23.47,0.856,23.869"/>
		<path clip-path="url(#SVGID_8_)" fill="#FFFFFF" d="M1.813,16.791l4.302,0.118c-0.153,0.317-0.3,0.644-0.44,0.968l-0.906-0.041    c-0.171,0.416-0.331,0.838-0.478,1.266l0.707,0.57c-0.108,0.324-0.208,0.653-0.301,0.985L1.438,17.78 M2.426,17.643l1.248,0.959    c0.101-0.282,0.208-0.561,0.319-0.842L2.43,17.631L2.426,17.643z"/>
		<path clip-path="url(#SVGID_8_)" fill="#FFFFFF" d="M8.445,7.143l2.908,0.974l-1.679-2.06l0.791-0.623l2.372,3.191    c-0.271,0.209-0.538,0.424-0.799,0.645L9.232,8.342l1.773,1.854c-0.202,0.192-0.4,0.386-0.595,0.588L7.562,8.008"/>
		<path clip-path="url(#SVGID_8_)" fill="#FFFFFF" d="M31.581,3.452c0.21,0.128,0.561,0.312,0.827,0.375    C32.71,3.9,33.044,3.92,33.131,3.566c0.084-0.346-0.347-0.484-0.753-0.723c-0.407-0.238-0.796-0.574-0.619-1.299    c0.199-0.807,1.102-0.982,1.811-0.809c0.417,0.104,0.783,0.294,1.132,0.536l-0.445,0.624c-0.227-0.152-0.553-0.301-0.753-0.35    c-0.467-0.114-0.681,0.011-0.739,0.25c-0.036,0.151,0.04,0.308,0.451,0.507c0.906,0.451,1.071,0.898,0.944,1.425    c-0.227,0.924-1.056,1.096-1.89,0.891c-0.389-0.094-0.775-0.281-1.113-0.496L31.581,3.452z"/>
		<path clip-path="url(#SVGID_8_)" fill="#FFFFFF" d="M39.505,2.989c1.16,0.608,1.413,1.781,0.894,2.772    c-0.522,0.994-1.631,1.449-2.79,0.843c-1.165-0.611-1.419-1.783-0.898-2.777C37.232,2.835,38.341,2.379,39.505,2.989     M37.978,5.889c0.512,0.271,1.11,0.142,1.502-0.606c0.394-0.753,0.161-1.316-0.352-1.585c-0.508-0.268-1.103-0.141-1.497,0.61    S37.468,5.623,37.978,5.889"/>
		<path clip-path="url(#SVGID_8_)" fill="#FFFFFF" d="M50.804,28.725c-0.102,0.225-0.239,0.594-0.272,0.865    c-0.037,0.311-0.017,0.645,0.344,0.688c0.355,0.043,0.442-0.402,0.627-0.836c0.189-0.43,0.474-0.857,1.218-0.768    c0.823,0.098,1.106,0.975,1.019,1.699c-0.051,0.43-0.2,0.812-0.395,1.189l-0.676-0.367c0.125-0.242,0.235-0.584,0.258-0.791    c0.057-0.475-0.095-0.674-0.336-0.701c-0.155-0.02-0.302,0.074-0.45,0.51c-0.34,0.951-0.764,1.17-1.3,1.105    c-0.945-0.113-1.216-0.916-1.114-1.768c0.048-0.398,0.185-0.803,0.359-1.162L50.804,28.725z"/>
		<path clip-path="url(#SVGID_8_)" fill="#FFFFFF" d="M4.975,36.465c-0.015-0.246-0.064-0.641-0.162-0.895    c-0.111-0.293-0.286-0.578-0.624-0.449c-0.334,0.127-0.203,0.562-0.168,1.031c0.037,0.471-0.019,0.98-0.717,1.246    c-0.776,0.297-1.433-0.348-1.694-1.027c-0.154-0.402-0.203-0.812-0.203-1.238l0.768,0.014c0.003,0.271,0.065,0.623,0.139,0.818    c0.17,0.447,0.396,0.553,0.625,0.463c0.146-0.055,0.231-0.205,0.161-0.658c-0.144-1.002,0.13-1.391,0.636-1.584    c0.89-0.34,1.5,0.242,1.807,1.045c0.144,0.375,0.209,0.797,0.226,1.197L4.975,36.465z"/>
		<path clip-path="url(#SVGID_8_)" fill="#FFFFFF" d="M14.363,2.99c1.161-0.61,2.269-0.153,2.791,0.839    c0.52,0.994,0.268,2.164-0.893,2.774c-1.165,0.609-2.273,0.154-2.794-0.84C12.945,4.771,13.199,3.601,14.363,2.99 M15.884,5.895    c0.513-0.271,0.746-0.834,0.352-1.584c-0.395-0.75-0.991-0.879-1.503-0.607c-0.509,0.266-0.742,0.83-0.348,1.581    C14.778,6.032,15.374,6.161,15.884,5.895"/>
		<path clip-path="url(#SVGID_8_)" fill="#FFFFFF" d="M20.133,3.983c0.245,0.014,0.641,0.014,0.906-0.052    c0.304-0.076,0.608-0.214,0.522-0.568c-0.087-0.345-0.534-0.269-1.004-0.288c-0.471-0.021-0.971-0.14-1.152-0.863    c-0.2-0.808,0.52-1.381,1.228-1.56c0.417-0.103,0.83-0.103,1.251-0.051l-0.103,0.76c-0.273-0.028-0.629-0.009-0.829,0.04    c-0.466,0.116-0.598,0.327-0.539,0.564c0.037,0.152,0.179,0.254,0.635,0.24c1.011-0.022,1.365,0.297,1.496,0.822    c0.23,0.926-0.423,1.462-1.256,1.67c-0.39,0.096-0.818,0.108-1.216,0.075L20.133,3.983z"/>
		<path clip-path="url(#SVGID_8_)" fill="#FFFFFF" d="M26.935,2.928c0.538,0,0.974-0.436,0.974-0.974    c0-0.536-0.436-0.972-0.974-0.972c-0.539,0-0.974,0.436-0.974,0.972C25.961,2.492,26.396,2.928,26.935,2.928"/>
		<path clip-path="url(#SVGID_8_)" fill="#FFFFFF" d="M46.695,13.301c0.304,0.443,0.912,0.556,1.354,0.248    c0.442-0.305,0.551-0.91,0.246-1.352c-0.303-0.443-0.909-0.552-1.351-0.248C46.501,12.254,46.39,12.86,46.695,13.301"/>
		<path clip-path="url(#SVGID_8_)" fill="#FFFFFF" d="M26.935,50.94c0.538,0,0.974,0.436,0.974,0.975s-0.436,0.973-0.974,0.973    c-0.539,0-0.974-0.434-0.974-0.973S26.396,50.94,26.935,50.94"/>
		<path clip-path="url(#SVGID_8_)" fill="#FFFFFF" d="M7.173,13.301c0.305-0.44,0.195-1.047-0.248-1.352    c-0.442-0.304-1.048-0.195-1.353,0.248c-0.305,0.441-0.194,1.047,0.248,1.352C6.262,13.856,6.868,13.744,7.173,13.301"/>
	</g>
	<g>
		<path fill="#231F20" d="M30.628,30.625c-0.304,0.311-0.725,0.502-1.192,0.502h-0.981c-0.549,0-1.036,0.266-1.34,0.676h-0.361    c-0.304-0.41-0.792-0.676-1.341-0.676h-0.979c-0.922,0-1.668-0.746-1.668-1.668v-6.695"/>
		<path fill="#FFFFFF" d="M22.766,22.764h8.338v6.696c0,0.457-0.181,0.865-0.476,1.166"/>
		<path fill="#231F20" d="M31.539,29.438c0,1.16-0.943,2.1-2.103,2.1h-0.981c-0.514,0-0.956,0.314-1.145,0.76h-0.752    c-0.188-0.445-0.629-0.76-1.145-0.76h-0.979c-1.162,0-2.103-0.939-2.103-2.1v-7.109h9.208V29.438z M30.679,23.191h-7.488v6.247    c0,0.682,0.556,1.24,1.243,1.24h0.979c0.598,0,1.126,0.25,1.508,0.648h0.027c0.383-0.398,0.911-0.648,1.507-0.648h0.981    c0.687,0,1.243-0.559,1.243-1.24V23.191z"/>
		<path fill="#FFFFFF" d="M70.952,20.727h4.875v0.731h-0.134c-1.503,0-1.73,0.657-1.73,1.562v4.682c0,4.195-3.045,4.98-5.283,4.98    c-3.386,0-5.53-1.465-5.53-4.342v-5.602c0-0.944-0.262-1.28-1.316-1.28h-0.321v-0.731h5.887v0.731h-0.316    c-0.795,0-1.336,0.356-1.336,1.28v5.602c0,2.293,1.688,3.084,3.399,3.084c2.466,0,3.691-1.389,3.691-3.461v-4.567    c0-1.336-0.378-1.938-1.545-1.938h-0.341V20.727z"/>
		<path fill="#FFFFFF" d="M78.814,30.336c0,0.695,0.316,0.992,0.863,0.992c0.451,0,0.883-0.279,1.429-0.938l0.265,0.525    c-0.565,1.016-1.694,1.713-2.729,1.713c-1.276,0-2.128-0.719-2.128-2.332v-4.513H75.52v-0.492    c1.128-0.469,2.411-1.842,2.747-2.895h0.547v2.352h2.46l-0.28,1.035h-2.18V30.336z"/>
		<path fill="#FFFFFF" d="M87.464,32.42h-5.23v-0.602h0.131c0.773,0,1.053-0.336,1.053-1.314V27.44c0-0.846-0.111-1.037-0.675-1.26    l-0.509-0.209v-0.47l3.084-1.166h0.397v2.106h0.037c0.694-1.354,0.996-1.899,1.637-1.899c0.129,0,0.282,0.021,0.374,0.056    l1.485,0.547c-0.224,0.791-0.525,1.465-0.897,1.993c-0.588-0.229-1.282-0.47-1.529-0.47c-0.376,0-0.692,0.265-1.107,0.847v3.047    c0,0.902,0.282,1.258,1.261,1.258h0.488V32.42z"/>
		<path fill="#FFFFFF" d="M97.429,30.239c-1.049,1.484-2.574,2.389-4.024,2.389c-2.049,0-3.44-1.58-3.44-3.854    c0-2.484,1.677-4.232,4.023-4.232c1,0,1.79,0.321,2.371,0.903c1.11,1.108,0.585,2.163,1.243,2.5v0.545h-5.21    c0.15,1.561,1.202,2.746,2.313,2.746c0.694,0,1.371-0.395,2.296-1.357L97.429,30.239z M95.006,27.758    c-0.018-1.448-0.526-2.332-1.338-2.332c-0.769,0-1.463,0.994-1.334,2.332H95.006z"/>
		<path fill="#FFFFFF" d="M106.514,30.616c-0.865,1.314-2.184,2.014-3.836,2.014c-2.294,0-3.951-1.564-3.951-3.727    c0-2.462,2.128-4.36,4.87-4.36c1.618,0,2.842,0.676,2.842,1.597c0,0.562-0.375,0.943-0.962,0.943    c-1.313,0-1.593-1.675-2.685-1.675c-0.941,0-1.584,1.147-1.584,2.839c0,2.029,0.963,3.402,2.353,3.402    c0.848,0,1.636-0.43,2.407-1.336L106.514,30.616z"/>
		<path fill="#FFFFFF" d="M110.593,30.524c0,1.182,0.321,1.297,0.979,1.297h0.187v0.6h-4.761v-0.6h0.269    c0.96,0,1.033-0.377,1.033-1.373v-8.22c0-0.543-0.096-0.676-0.603-0.846l-0.545-0.187v-0.435l2.991-0.92h0.449v6.129    c1.055-0.731,2.405-1.428,3.385-1.428c1.377,0,2.053,1.108,2.053,3.328v2.484c0,1.109,0.129,1.467,0.846,1.467h0.186v0.6h-4.438    v-0.6h0.151c0.789,0,0.961-0.305,0.961-1.373v-2.84c0-1.015-0.471-1.655-1.223-1.655c-0.511,0-1.261,0.281-1.92,0.714V30.524z"/>
		<path fill="#FFFFFF" d="M121.164,30.336c0,0.695,0.32,0.992,0.864,0.992c0.451,0,0.881-0.279,1.43-0.938l0.264,0.525    c-0.565,1.016-1.693,1.713-2.729,1.713c-1.277,0-2.125-0.719-2.125-2.332v-4.513h-0.995v-0.492    c1.129-0.469,2.407-1.842,2.743-2.895h0.548v2.352h2.459l-0.276,1.035h-2.183V30.336z"/>
		<path fill="#FFFFFF" d="M138.364,20.659h4.92v0.742h-0.132c-1.521,0-1.748,0.664-1.748,1.576v4.732    c0,4.234-3.078,5.031-5.338,5.031c-3.42,0-5.585-1.479-5.585-4.387v-5.662c0-0.949-0.268-1.291-1.33-1.291h-0.324v-0.742h5.947    v0.742h-0.324c-0.797,0-1.348,0.36-1.348,1.291v5.662c0,2.318,1.71,3.117,3.438,3.117c2.49,0,3.725-1.408,3.725-3.498v-4.617    c0-1.347-0.381-1.955-1.559-1.955h-0.342V20.659z"/>
		<path fill="#FFFFFF" d="M152.785,30.747c0,0.934,0.342,1.121,1.083,1.121v0.607h-4.483v-0.607c0.779-0.057,1.083-0.59,1.083-2.145    v-1.654c0-1.518-0.418-2.108-1.178-2.108c-0.589,0-1.216,0.284-2.013,0.836v3.854c0,0.857,0.36,1.217,1.121,1.217h0.171v0.607    h-4.808v-0.607h0.114c0.798,0,1.083-0.342,1.083-1.33v-3.704c0-0.419-0.228-0.664-0.893-0.854l-0.399-0.115v-0.455l3.248-1.102    h0.362v1.689c1.386-0.909,2.602-1.479,3.514-1.479c1.387,0,1.994,0.988,1.994,3.266V30.747z"/>
		<path fill="#FFFFFF" d="M159.303,32.475h-4.749v-0.607h0.209c0.778,0,1.063-0.342,1.063-1.33v-3.646    c0-0.494-0.114-0.627-0.646-0.818l-0.627-0.226v-0.457l3.248-1.083h0.343v6.365c0,0.777,0.322,1.195,1.158,1.195V32.475z     M158.41,21.286c0,0.761-0.721,1.293-1.501,1.293c-0.874,0-1.52-0.551-1.52-1.293c0-0.684,0.723-1.291,1.52-1.291    C157.783,19.995,158.41,20.565,158.41,21.286"/>
		<path fill="#FFFFFF" d="M159.513,24.726h4.825v0.607h-0.665c-0.397,0-0.569,0.362-0.247,1.065l1.69,3.778l1.483-3.343    c0.436-0.986,0.209-1.367-1.121-1.5v-0.607h3.779v0.607c-0.986,0.096-1.233,0.342-1.596,1.141l-2.716,6.136h-1.141l-2.829-6.099    c-0.362-0.778-0.627-1.082-1.464-1.178V24.726z"/>
		<path fill="#FFFFFF" d="M176.916,30.274c-1.062,1.5-2.602,2.41-4.064,2.41c-2.071,0-3.478-1.596-3.478-3.895    c0-2.506,1.691-4.273,4.066-4.273c1.007,0,1.804,0.322,2.393,0.912c1.121,1.121,0.589,2.185,1.254,2.527v0.549h-5.263    c0.153,1.578,1.216,2.775,2.337,2.775c0.703,0,1.387-0.4,2.319-1.367L176.916,30.274z M174.465,27.764    c-0.018-1.462-0.53-2.354-1.349-2.354c-0.778,0-1.481,1.005-1.348,2.354H174.465z"/>
		<path fill="#FFFFFF" d="M183.376,32.475h-5.281V31.87h0.134c0.778,0,1.063-0.342,1.063-1.33v-3.096    c0-0.857-0.114-1.045-0.684-1.275l-0.514-0.209v-0.474l3.115-1.179h0.4v2.127h0.038c0.702-1.366,1.007-1.918,1.651-1.918    c0.133,0,0.285,0.021,0.38,0.058l1.501,0.55c-0.228,0.799-0.531,1.483-0.911,2.013c-0.59-0.227-1.292-0.473-1.538-0.473    c-0.381,0-0.703,0.264-1.121,0.854v3.076c0,0.912,0.285,1.275,1.271,1.275h0.494V32.475z"/>
		<path fill="#FFFFFF" d="M186.379,30.235h0.609c0.322,1.062,1.158,1.635,1.975,1.635c0.531,0,0.987-0.4,0.987-0.873    c0-1.314-3.571-1.77-3.571-4.068c0-1.443,1.197-2.412,2.983-2.412c0.721,0,1.33,0.114,2.127,0.399l0.039,2.032h-0.609    c-0.342-1.044-0.969-1.614-1.785-1.614c-0.494,0-0.874,0.304-0.874,0.722c0,1.556,3.742,1.615,3.742,4.216    c0,1.406-1.007,2.396-2.47,2.396c-1.311,0-1.747-0.27-2.013-0.27c-0.114,0-0.229,0.076-0.381,0.248h-0.551L186.379,30.235z"/>
		<path fill="#FFFFFF" d="M197.74,32.475h-4.749v-0.607h0.209c0.779,0,1.063-0.342,1.063-1.33v-3.646    c0-0.494-0.113-0.627-0.646-0.818l-0.627-0.226v-0.457l3.248-1.083h0.342v6.365c0,0.777,0.324,1.195,1.159,1.195V32.475z     M196.849,21.286c0,0.761-0.723,1.293-1.502,1.293c-0.873,0-1.52-0.551-1.52-1.293c0-0.684,0.722-1.291,1.52-1.291    C196.221,19.995,196.849,20.565,196.849,21.286"/>
		<path fill="#FFFFFF" d="M202.034,30.368c0,0.701,0.324,1.008,0.874,1.008c0.456,0,0.893-0.285,1.444-0.949l0.266,0.531    c-0.57,1.023-1.71,1.727-2.755,1.727c-1.291,0-2.146-0.719-2.146-2.354v-4.56h-1.007v-0.494c1.141-0.474,2.433-1.86,2.774-2.926    h0.55v2.375h2.49l-0.286,1.045h-2.204V30.368z"/>
		<path fill="#FFFFFF" d="M207.564,27.061c-0.664-1.366-0.988-1.727-1.806-1.727v-0.608h4.846v0.608c-0.989,0-1.141,0.38-0.78,1.14    l1.578,3.269l1.442-2.927c0.399-0.817,0.152-1.463-0.986-1.481v-0.608h3.533v0.608c-0.855,0.188-1.103,0.417-1.635,1.5    l-4.255,8.665c-0.475,0.949-1.063,1.406-1.729,1.406c-0.685,0-1.197-0.457-1.197-1.084c0-0.307,0.115-0.627,0.286-0.799    c0.874-0.875,1.88,0.305,2.887-1.898l0.38-0.836L207.564,27.061z"/>
	</g>
</g>
</svg>