<?xml version="1.0" encoding="UTF-8" standalone="no"?><svg xmlns="http://www.w3.org/2000/svg" xmlns:xlink="http://www.w3.org/1999/xlink" contentScriptType="application/ecmascript" contentStyleType="text/css" height="506px" preserveAspectRatio="none" style="width:435px;height:506px;" version="1.1" viewBox="0 0 435 506" width="435px" zoomAndPan="magnify"><defs/><g><line style="stroke: #A80036; stroke-width: 1.0; stroke-dasharray: 5.0,5.0;" x1="53" x2="53" y1="86.2969" y2="415.3594"/><line style="stroke: #A80036; stroke-width: 1.0; stroke-dasharray: 5.0,5.0;" x1="159" x2="159" y1="86.2969" y2="415.3594"/><line style="stroke: #A80036; stroke-width: 1.0; stroke-dasharray: 5.0,5.0;" x1="314" x2="314" y1="86.2969" y2="415.3594"/><text fill="#000000" font-family="sans-serif" font-size="14" lengthAdjust="spacingAndGlyphs" textLength="80" x="10" y="80.9951">Researcher</text><ellipse cx="53" cy="13" fill="#FEFECE" rx="8" ry="8" style="stroke: #A80036; stroke-width: 2.0;"/><path d="M53,21 L53,48 M40,29 L66,29 M53,48 L40,63 M53,48 L66,63 " fill="none" style="stroke: #A80036; stroke-width: 2.0;"/><text fill="#000000" font-family="sans-serif" font-size="14" lengthAdjust="spacingAndGlyphs" textLength="80" x="10" y="429.3545">Researcher</text><ellipse cx="53" cy="444.6563" fill="#FEFECE" rx="8" ry="8" style="stroke: #A80036; stroke-width: 2.0;"/><path d="M53,452.6563 L53,479.6563 M40,460.6563 L66,460.6563 M53,479.6563 L40,494.6563 M53,479.6563 L66,494.6563 " fill="none" style="stroke: #A80036; stroke-width: 2.0;"/><text fill="#000000" font-family="sans-serif" font-size="14" lengthAdjust="spacingAndGlyphs" textLength="93" x="110" y="80.9951">Datamanager</text><ellipse cx="159.5" cy="13" fill="#FEFECE" rx="8" ry="8" style="stroke: #A80036; stroke-width: 2.0;"/><path d="M159.5,21 L159.5,48 M146.5,29 L172.5,29 M159.5,48 L146.5,63 M159.5,48 L172.5,63 " fill="none" style="stroke: #A80036; stroke-width: 2.0;"/><text fill="#000000" font-family="sans-serif" font-size="14" lengthAdjust="spacingAndGlyphs" textLength="93" x="110" y="429.3545">Datamanager</text><ellipse cx="159.5" cy="444.6563" fill="#FEFECE" rx="8" ry="8" style="stroke: #A80036; stroke-width: 2.0;"/><path d="M159.5,452.6563 L159.5,479.6563 M146.5,460.6563 L172.5,460.6563 M159.5,479.6563 L146.5,494.6563 M159.5,479.6563 L172.5,494.6563 " fill="none" style="stroke: #A80036; stroke-width: 2.0;"/><rect fill="#FEFECE" height="34.2969" style="stroke: #A80036; stroke-width: 1.5;" width="53" x="288" y="51"/><text fill="#000000" font-family="sans-serif" font-size="14" lengthAdjust="spacingAndGlyphs" textLength="35" x="297" y="72.9951">Yoda</text><rect fill="#FEFECE" height="34.2969" style="stroke: #A80036; stroke-width: 1.5;" width="53" x="288" y="414.3594"/><text fill="#000000" font-family="sans-serif" font-size="14" lengthAdjust="spacingAndGlyphs" textLength="35" x="297" y="436.3545">Yoda</text><polygon fill="#A80036" points="302.5,117.4297,312.5,121.4297,302.5,125.4297,306.5,121.4297" style="stroke: #A80036; stroke-width: 1.0;"/><line style="stroke: #A80036; stroke-width: 1.0;" x1="53" x2="308.5" y1="121.4297" y2="121.4297"/><text fill="#000000" font-family="sans-serif" font-size="13" lengthAdjust="spacingAndGlyphs" textLength="102" x="62" y="114.3638">Submit for vault</text><path d="M265,134.4297 L265,163.4297 L364,163.4297 L364,144.4297 L354,134.4297 L265,134.4297 " fill="#FBFB77" style="stroke: #A80036; stroke-width: 1.0;"/><path d="M354,134.4297 L354,144.4297 L364,144.4297 L354,134.4297 " fill="#FBFB77" style="stroke: #A80036; stroke-width: 1.0;"/><text fill="#000000" font-family="sans-serif" font-size="13" lengthAdjust="spacingAndGlyphs" textLength="74" x="273" y="153.4966">SUBMITTED</text><line style="stroke: #A80036; stroke-width: 1.0;" x1="314.5" x2="356.5" y1="193.6953" y2="193.6953"/><line style="stroke: #A80036; stroke-width: 1.0;" x1="356.5" x2="356.5" y1="193.6953" y2="206.6953"/><line style="stroke: #A80036; stroke-width: 1.0;" x1="315.5" x2="356.5" y1="206.6953" y2="206.6953"/><polygon fill="#A80036" points="325.5,202.6953,315.5,206.6953,325.5,210.6953,321.5,206.6953" style="stroke: #A80036; stroke-width: 1.0;"/><text fill="#000000" font-family="sans-serif" font-size="13" lengthAdjust="spacingAndGlyphs" textLength="100" x="323.5" y="186.6294">Accept for vault</text><path d="M263,219.6953 L263,248.6953 L365,248.6953 L365,229.6953 L355,219.6953 L263,219.6953 " fill="#FBFB77" style="stroke: #A80036; stroke-width: 1.0;"/><path d="M355,219.6953 L355,229.6953 L365,229.6953 L355,219.6953 " fill="#FBFB77" style="stroke: #A80036; stroke-width: 1.0;"/><text fill="#000000" font-family="sans-serif" font-size="13" lengthAdjust="spacingAndGlyphs" textLength="77" x="271" y="238.7622">ACCCEPTED</text><line style="stroke: #A80036; stroke-width: 1.0;" x1="314.5" x2="356.5" y1="278.9609" y2="278.9609"/><line style="stroke: #A80036; stroke-width: 1.0;" x1="356.5" x2="356.5" y1="278.9609" y2="291.9609"/><line style="stroke: #A80036; stroke-width: 1.0;" x1="315.5" x2="356.5" y1="291.9609" y2="291.9609"/><polygon fill="#A80036" points="325.5,287.9609,315.5,291.9609,325.5,295.9609,321.5,291.9609" style="stroke: #A80036; stroke-width: 1.0;"/><text fill="#000000" font-family="sans-serif" font-size="13" lengthAdjust="spacingAndGlyphs" textLength="95" x="323.5" y="271.895">Secure in vault</text><path d="M271,304.9609 L271,333.9609 L358,333.9609 L358,314.9609 L348,304.9609 L271,304.9609 " fill="#FBFB77" style="stroke: #A80036; stroke-width: 1.0;"/><path d="M348,304.9609 L348,314.9609 L358,314.9609 L348,304.9609 " fill="#FBFB77" style="stroke: #A80036; stroke-width: 1.0;"/><text fill="#000000" font-family="sans-serif" font-size="13" lengthAdjust="spacingAndGlyphs" textLength="62" x="279" y="324.0278">SECURED</text><polygon fill="#A80036" points="64,360.2266,54,364.2266,64,368.2266,60,364.2266" style="stroke: #A80036; stroke-width: 1.0;"/><line style="stroke: #A80036; stroke-width: 1.0; stroke-dasharray: 2.0,2.0;" x1="58" x2="313.5" y1="364.2266" y2="364.2266"/><text fill="#000000" font-family="sans-serif" font-size="13" lengthAdjust="spacingAndGlyphs" textLength="127" x="72" y="357.1606">Secured notification</text><polygon fill="#A80036" points="170.5,393.3594,160.5,397.3594,170.5,401.3594,166.5,397.3594" style="stroke: #A80036; stroke-width: 1.0;"/><line style="stroke: #A80036; stroke-width: 1.0; stroke-dasharray: 2.0,2.0;" x1="164.5" x2="313.5" y1="397.3594" y2="397.3594"/><text fill="#000000" font-family="sans-serif" font-size="13" lengthAdjust="spacingAndGlyphs" textLength="127" x="178.5" y="390.2935">Secured notification</text><!--
@startuml
skinparam padding 2
skinparam shadowing false

actor       Researcher  as researcher
actor       Datamanager as datamanager
participant Yoda        as yoda

researcher   -> yoda        : Submit for vault
note over yoda              : SUBMITTED
yoda         -> yoda        : Accept for vault
note over yoda              : ACCCEPTED
yoda         -> yoda        : Secure in vault
note over yoda              : SECURED
yoda        - -> researcher  : Secured notification
yoda        - -> datamanager : Secured notification
@enduml

PlantUML version 1.2018.13(Mon Nov 26 18:11:51 CET 2018)
(GPL source distribution)
Java Runtime: OpenJDK Runtime Environment
JVM: OpenJDK 64-Bit Server VM
Java Version: 11.0.11+9-post-Debian-1deb10u1
Operating System: Linux
OS Version: 5.9.0-0.bpo.5-amd64
Default Encoding: UTF-8
Language: en
Country: US
--></g></svg>