<?xml version="1.0" encoding="us-ascii" standalone="no"?><svg xmlns="http://www.w3.org/2000/svg" xmlns:xlink="http://www.w3.org/1999/xlink" contentStyleType="text/css" height="993.75px" preserveAspectRatio="none" style="width:908px;height:993px;background:#282C34;" version="1.1" viewBox="0 0 908 993" width="908.3333px" zoomAndPan="magnify"><defs/><g><rect fill="#282C34" height="993.75" style="stroke:none;stroke-width:2.0833333333333335;" width="908.3333" x="0" y="0"/><path d="M40.625,14.5833 L855.2083,14.5833 A26.0417,26.0417 0 0 1 881.25,40.625 L881.25,80.127 L14.5833,80.127 L14.5833,40.625 A26.0417,26.0417 0 0 1 40.625,14.5833 " fill="#424856" style="stroke:#424856;stroke-width:2.0833333333333335;"/><rect fill="none" height="967.627" rx="26.0417" ry="26.0417" style="stroke:#61AFEF;stroke-width:1.0416666666666667;" width="866.6667" x="14.5833" y="14.5833"/><line style="stroke:#61AFEF;stroke-width:1.0416666666666667;" x1="14.5833" x2="881.25" y1="80.127" y2="80.127"/><text fill="#ABB2BF" font-family="CMU Serif" font-size="31.25" lengthAdjust="spacing" textLength="439.5833" x="228.125" y="58.1736">Copy to Vault Cronjob Status</text><ellipse cx="272.9167" cy="123.877" fill="#98C379" rx="20.8333" ry="20.8333" style="stroke:#222222;stroke-width:2.0833333333333335;"/><g id="CopyToVaultCronjob.PENDING"><rect fill="#424856" height="104.1667" rx="26.0417" ry="26.0417" style="stroke:#61AFEF;stroke-width:1.0416666666666667;" width="187.5" x="179.1667" y="221.7936"/><line style="stroke:#61AFEF;stroke-width:1.0416666666666667;" x1="179.1667" x2="366.6667" y1="287.3372" y2="287.3372"/><text fill="#ABB2BF" font-family="CMU Serif" font-size="31.25" lengthAdjust="spacing" textLength="137.5" x="204.1667" y="265.3839">PENDING</text></g><g id="CopyToVaultCronjob.PROCESSING"><rect fill="#424856" height="104.1667" rx="26.0417" ry="26.0417" style="stroke:#61AFEF;stroke-width:1.0416666666666667;" width="250" x="47.9167" y="403.0436"/><line style="stroke:#61AFEF;stroke-width:1.0416666666666667;" x1="47.9167" x2="297.9167" y1="468.5872" y2="468.5872"/><text fill="#ABB2BF" font-family="CMU Serif" font-size="31.25" lengthAdjust="spacing" textLength="200" x="72.9167" y="446.6339">PROCESSING</text></g><g id="CopyToVaultCronjob.OK"><rect fill="#424856" height="104.1667" rx="26.0417" ry="26.0417" style="stroke:#61AFEF;stroke-width:1.0416666666666667;" width="104.1667" x="39.5833" y="630.127"/><line style="stroke:#61AFEF;stroke-width:1.0416666666666667;" x1="39.5833" x2="143.75" y1="695.6706" y2="695.6706"/><text fill="#ABB2BF" font-family="CMU Serif" font-size="31.25" lengthAdjust="spacing" textLength="45.8333" x="68.75" y="673.7172">OK</text></g><ellipse cx="89.5833" cy="909.2936" fill="none" rx="22.9167" ry="22.9167" style="stroke:#E06C75;stroke-width:2.0833333333333335;"/><ellipse cx="89.5833" cy="909.2936" fill="#222222" rx="12.5" ry="12.5" style="stroke:#E06C75;stroke-width:2.0833333333333335;"/><g id="CopyToVaultCronjob.RETRY"><rect fill="#424856" height="104.1667" rx="26.0417" ry="26.0417" style="stroke:#61AFEF;stroke-width:1.0416666666666667;" width="147.9167" x="236.4583" y="630.127"/><line style="stroke:#61AFEF;stroke-width:1.0416666666666667;" x1="236.4583" x2="384.375" y1="695.6706" y2="695.6706"/><text fill="#ABB2BF" font-family="CMU Serif" font-size="31.25" lengthAdjust="spacing" textLength="97.9167" x="261.4583" y="673.7172">RETRY</text></g><g id="CopyToVaultCronjob.UNRECOVERABLE"><rect fill="#424856" height="104.1667" rx="26.0417" ry="26.0417" style="stroke:#61AFEF;stroke-width:1.0416666666666667;" width="318.75" x="151.0417" y="857.2103"/><line style="stroke:#61AFEF;stroke-width:1.0416666666666667;" x1="151.0417" x2="469.7917" y1="922.7539" y2="922.7539"/><text fill="#ABB2BF" font-family="CMU Serif" font-size="31.25" lengthAdjust="spacing" textLength="268.75" x="176.0417" y="900.8006">UNRECOVERABLE</text></g><!--link *start*CopyToVaultCronjob to PENDING--><g id="link_*start*CopyToVaultCronjob_PENDING"><path d="M272.9167,145.0228 C272.9167,164.3353 272.9167,182.502 272.9167,208.8353 " fill="none" id="*start*CopyToVaultCronjob-to-PENDING" style="stroke:#61AFEF;stroke-width:2.0833333333333335;"/><polygon fill="#61AFEF" points="272.9167,221.3353,281.25,202.5853,272.9167,210.9186,264.5833,202.5853,272.9167,221.3353" style="stroke:#61AFEF;stroke-width:2.0833333333333335;"/></g><!--link PENDING to PROCESSING--><g id="link_PENDING_PROCESSING"><path d="M244.5208,326.2311 C231.0208,350.1686 221.0434,367.8265 207.5226,391.764 " fill="none" id="PENDING-to-PROCESSING" style="stroke:#61AFEF;stroke-width:2.0833333333333335;"/><polygon fill="#61AFEF" points="201.375,402.6478,217.8523,390.4205,206.498,393.578,203.3405,382.2237,201.375,402.6478" style="stroke:#61AFEF;stroke-width:2.0833333333333335;"/></g><!--link PROCESSING to OK--><g id="link_PROCESSING_OK"><path d="M153.3125,508.0228 C148.75,520.0436 143.9583,532.8145 139.5833,544.7103 C129.2708,572.7936 122.2204,592.5189 113.2621,618.0606 " fill="none" id="PROCESSING-to-OK" style="stroke:#61AFEF;stroke-width:2.0833333333333335;"/><polygon fill="#61AFEF" points="109.125,629.8561,123.1943,614.9209,112.5726,620.0265,107.467,609.4048,109.125,629.8561" style="stroke:#61AFEF;stroke-width:2.0833333333333335;"/></g><!--link OK to *end*CopyToVaultCronjob--><g id="link_OK_*end*CopyToVaultCronjob"><path d="M91.2083,734.3145 C90.75,782.0645 90.2249,839.2109 89.8916,873.7109 " fill="none" id="OK-to-*end*CopyToVaultCronjob" style="stroke:#61AFEF;stroke-width:2.0833333333333335;"/><polygon fill="#61AFEF" points="89.7708,886.2103,98.2849,867.5417,89.8715,875.7941,81.619,867.3807,89.7708,886.2103" style="stroke:#61AFEF;stroke-width:2.0833333333333335;"/></g><!--link PENDING to RETRY--><g id="link_PENDING_RETRY"><path d="M294.5417,326.2728 C303.2917,349.2311 312.3125,377.0436 316.6667,403.0436 C329.7708,481.3561 324.7513,561.3905 318.5638,617.2446 " fill="none" id="PENDING-to-RETRY" style="stroke:#61AFEF;stroke-width:2.0833333333333335;"/><polygon fill="#61AFEF" points="317.1875,629.6686,327.5347,611.9502,318.3344,619.3153,310.9693,610.1151,317.1875,629.6686" style="stroke:#61AFEF;stroke-width:2.0833333333333335;"/><text fill="#ABB2BF" font-family="CMU Serif" font-size="31.25" lengthAdjust="spacing" textLength="206.25" x="329.1667" y="466.4256">Error in setup</text></g><!--link PROCESSING to RETRY--><g id="link_PROCESSING_RETRY"><path d="M170.7083,507.2728 C171.6667,534.252 176.5,567.127 191.6667,592.627 C202.5417,610.8978 208.8158,619.0463 225.8991,631.7963 " fill="none" id="PROCESSING-to-RETRY" style="stroke:#61AFEF;stroke-width:2.0833333333333335;"/><polygon fill="#61AFEF" points="235.9167,639.2728,225.8747,621.3796,227.5687,633.0424,215.906,634.7364,235.9167,639.2728" style="stroke:#61AFEF;stroke-width:2.0833333333333335;"/><text fill="#ABB2BF" font-family="CMU Serif" font-size="31.25" lengthAdjust="spacing" textLength="75" x="197.9167" y="579.9672">Error</text></g><!--link RETRY to RETRY--><g id="link_RETRY_RETRY"><path d="M384.8958,661.2311 C405.8125,662.1478 421.875,669.127 421.875,682.2103 C421.875,695.2936 418.3005,701.7255 397.3838,702.6422 " fill="none" id="RETRY-to-RETRY" style="stroke:#61AFEF;stroke-width:2.0833333333333335;"/><polygon fill="#61AFEF" points="384.8958,703.1895,403.9927,710.6939,395.3025,702.7334,403.263,694.0432,384.8958,703.1895" style="stroke:#61AFEF;stroke-width:2.0833333333333335;"/></g><!--link RETRY to PROCESSING--><g id="link_RETRY_PROCESSING"><path d="M306.625,629.5436 C302.7292,602.7103 294.9167,570.1478 279.1667,544.7103 C270.7292,531.1061 268.673,527.0504 256.5897,516.0296 " fill="none" id="RETRY-to-PROCESSING" style="stroke:#61AFEF;stroke-width:2.0833333333333335;"/><polygon fill="#61AFEF" points="247.3542,507.6061,255.5919,526.3983,255.0505,514.6257,266.8231,514.0843,247.3542,507.6061" style="stroke:#61AFEF;stroke-width:2.0833333333333335;"/></g><!--link RETRY to UNRECOVERABLE--><g id="link_RETRY_UNRECOVERABLE"><path d="M310.4167,734.3145 C310.4167,770.7728 310.4167,807.4811 310.4167,844.0853 " fill="none" id="RETRY-to-UNRECOVERABLE" style="stroke:#61AFEF;stroke-width:2.0833333333333335;"/><polygon fill="#61AFEF" points="310.4167,856.5853,318.75,837.8353,310.4167,846.1686,302.0833,837.8353,310.4167,856.5853" style="stroke:#61AFEF;stroke-width:2.0833333333333335;"/><text fill="#ABB2BF" font-family="CMU Serif" font-size="31.25" lengthAdjust="spacing" textLength="539.5833" x="316.6667" y="807.0506">Attempts &gt; max allowed attempts</text></g><!--SRC=[ROxDgi8m44RtUOfFbu9rxqBmrY2Yj9AgS14NqGPKqgOq4rGklhirzLRy6RAOEMVc8wr3ljCkLGY2Nlrehp8L52xJZ5cIf12Quh8mA-aqXQN9ZsOBQT6-Ov215_WtINNYR1j_35MjEnjqkmFCUJIQH6FF7dtDHHpo96bKCteRJpsDftwgiZxk1L-8N_J1ozAKEEImYbpnBUjbqo_Kf75lxErdJx6C10_Z5HV3dncl0eT4AYl8Oe1CdY6rDYULGZumkx8R]--></g></svg>