<?xml version="1.0" encoding="UTF-8" standalone="no"?>
<svg
   xmlns:dc="http://purl.org/dc/elements/1.1/"
   xmlns:cc="http://creativecommons.org/ns#"
   xmlns:rdf="http://www.w3.org/1999/02/22-rdf-syntax-ns#"
   xmlns:svg="http://www.w3.org/2000/svg"
   xmlns="http://www.w3.org/2000/svg"
   viewBox="0 0 430.86533 170.07867"
   height="170.07867"
   width="430.86533"
   xml:space="preserve"
   id="svg2"
   version="1.1"><metadata
     id="metadata8"><rdf:RDF><cc:Work
         rdf:about=""><dc:format>image/svg+xml</dc:format><dc:type
           rdf:resource="http://purl.org/dc/dcmitype/StillImage" /></cc:Work></rdf:RDF></metadata><defs
     id="defs6"><clipPath
       id="clipPath18"
       clipPathUnits="userSpaceOnUse"><path
         id="path16"
         d="m 44.573,63.775 c 0,-14.875 12.059,-26.933 26.935,-26.933 v 0 c 14.874,0 26.932,12.058 26.932,26.933 v 0 c 0,14.873 -12.058,26.934 -26.932,26.934 v 0 c -14.876,0 -26.935,-12.061 -26.935,-26.934" /></clipPath><clipPath
       id="clipPath30"
       clipPathUnits="userSpaceOnUse"><path
         id="path28"
         d="M 0,127.559 H 323.149 V 0 H 0 Z" /></clipPath></defs><g
     transform="matrix(1.3333333,0,0,-1.3333333,0,170.07867)"
     id="g10"><g
       id="g12"><g
         clip-path="url(#clipPath18)"
         id="g14"><g
           transform="translate(76.1113,61.2712)"
           id="g20"><path
             id="path22"
             style="fill:#ffffff;fill-opacity:1;fill-rule:nonzero;stroke:none"
             d="m 0,0 c 0,-1.16 -0.942,-2.1 -2.103,-2.1 h -0.98 c -0.515,0 -0.956,-0.314 -1.145,-0.759 H -4.98 C -5.168,-2.414 -5.61,-2.1 -6.125,-2.1 h -0.98 c -1.162,0 -2.103,0.94 -2.103,2.1 V 7.109 H 0 Z M 22.553,2.924 6.092,3.801 21.866,8.594 21.663,9.412 5.47,6.326 19.636,14.752 19.247,15.498 4.262,8.623 16.001,20.199 15.444,20.826 2.541,10.568 11.169,24.615 10.477,25.094 0.402,12.043 5.418,27.75 4.635,28.046 -2.024,12.965 -0.911,29.414 -1.748,29.515 -4.604,13.277 -7.461,29.515 -8.297,29.414 -7.184,12.965 -13.843,28.046 -14.626,27.75 -9.61,12.043 -19.685,25.094 -20.379,24.615 -11.748,10.568 -24.655,20.826 -25.209,20.199 -13.47,8.623 -28.456,15.498 -28.847,14.752 -14.679,6.326 -30.873,9.412 -31.075,8.594 -15.3,3.801 -31.763,2.924 v -0.84 l 16.463,-0.879 -15.775,-4.793 0.202,-0.814 16.194,3.086 -14.168,-8.43 0.391,-0.746 14.986,6.875 -11.739,-11.574 0.554,-0.629 12.907,10.261 -8.631,-14.048 0.694,-0.481 10.075,13.051 -5.016,-15.705 0.783,-0.295 6.659,15.08 -1.113,-16.449 0.836,-0.1 2.857,16.237 2.856,-16.237 0.837,0.1 -1.113,16.449 6.659,-15.08 0.783,0.295 -5.016,15.705 10.075,-13.051 0.692,0.481 -8.628,14.048 12.903,-10.261 0.557,0.629 -11.739,11.574 14.985,-6.875 0.389,0.746 -14.166,8.43 16.193,-3.086 0.203,0.814 L 6.092,1.205 22.553,2.084 Z M -0.86,0 v 6.246 h -7.485 l 7.122,-7.121 C -0.999,-0.65 -0.86,-0.34 -0.86,0 m -23.506,16.137 c 0.306,0.441 0.195,1.047 -0.247,1.351 -0.443,0.305 -1.049,0.196 -1.354,-0.248 -0.304,-0.441 -0.194,-1.047 0.249,-1.351 0.441,-0.307 1.048,-0.196 1.352,0.248 m 18.788,-38.614 c 0,-0.539 0.436,-0.972 0.974,-0.972 0.538,0 0.974,0.433 0.974,0.972 0,0.54 -0.436,0.975 -0.974,0.975 -0.538,0 -0.974,-0.435 -0.974,-0.975 m 20.734,38.614 c 0.304,-0.444 0.912,-0.555 1.353,-0.248 0.443,0.304 0.552,0.91 0.247,1.351 -0.303,0.444 -0.909,0.553 -1.351,0.248 -0.443,-0.304 -0.554,-0.91 -0.249,-1.351 M -4.604,26.51 c 0.538,0 0.974,0.435 0.974,0.973 0,0.538 -0.436,0.973 -0.974,0.973 -0.538,0 -0.974,-0.435 -0.974,-0.973 0,-0.538 0.436,-0.973 0.974,-0.973 m -6.864,-1.846 c 0.399,-0.033 0.826,-0.019 1.217,0.076 0.833,0.208 1.486,0.744 1.256,1.669 -0.131,0.526 -0.485,0.845 -1.497,0.823 -0.455,-0.014 -0.597,0.088 -0.634,0.24 -0.059,0.238 0.072,0.448 0.539,0.564 0.199,0.049 0.556,0.069 0.828,0.04 l 0.104,0.76 c -0.421,0.052 -0.835,0.052 -1.252,-0.051 -0.707,-0.178 -1.427,-0.752 -1.227,-1.558 0.18,-0.725 0.68,-0.843 1.152,-0.864 0.47,-0.02 0.917,0.056 1.004,-0.289 0.086,-0.354 -0.219,-0.492 -0.522,-0.568 -0.265,-0.065 -0.661,-0.065 -0.906,-0.052 z m -5.687,-0.51 c -0.394,0.751 -0.16,1.315 0.348,1.581 0.513,0.271 1.108,0.142 1.503,-0.608 0.394,-0.75 0.162,-1.313 -0.351,-1.584 -0.51,-0.266 -1.106,-0.137 -1.5,0.611 m -0.917,-0.48 c 0.52,-0.994 1.629,-1.449 2.794,-0.84 1.161,0.611 1.413,1.781 0.892,2.775 -0.522,0.992 -1.63,1.449 -2.79,0.839 -1.164,-0.611 -1.418,-1.782 -0.896,-2.774 M -25.771,-6.99 c -0.016,0.4 -0.081,0.822 -0.225,1.197 -0.307,0.803 -0.917,1.385 -1.808,1.045 -0.505,-0.193 -0.779,-0.582 -0.636,-1.584 0.07,-0.453 -0.014,-0.604 -0.16,-0.658 -0.229,-0.09 -0.455,0.015 -0.625,0.463 -0.074,0.195 -0.137,0.547 -0.14,0.818 l -0.768,0.014 c 10e-4,-0.426 0.05,-0.836 0.203,-1.239 0.261,-0.679 0.919,-1.324 1.695,-1.027 0.697,0.266 0.753,0.775 0.717,1.246 -0.036,0.469 -0.166,0.904 0.168,1.031 0.338,0.129 0.513,-0.156 0.624,-0.449 0.098,-0.254 0.147,-0.648 0.162,-0.894 z m 44.318,8.039 c -0.173,-0.36 -0.311,-0.764 -0.359,-1.162 -0.101,-0.852 0.169,-1.655 1.114,-1.768 0.536,-0.064 0.96,0.154 1.3,1.106 0.149,0.435 0.295,0.529 0.45,0.509 0.242,-0.027 0.393,-0.226 0.336,-0.701 -0.023,-0.207 -0.133,-0.549 -0.258,-0.791 l 0.676,-0.367 c 0.196,0.377 0.344,0.76 0.395,1.189 0.088,0.725 -0.196,1.602 -1.019,1.7 -0.744,0.09 -1.029,-0.338 -1.218,-0.768 -0.185,-0.433 -0.272,-0.879 -0.627,-0.836 -0.361,0.043 -0.38,0.377 -0.343,0.688 0.032,0.271 0.17,0.64 0.271,0.865 z M 6.092,25.129 c 0.393,0.751 0.989,0.879 1.496,0.612 0.514,-0.269 0.747,-0.832 0.353,-1.585 -0.393,-0.748 -0.99,-0.877 -1.502,-0.607 -0.509,0.265 -0.741,0.83 -0.347,1.58 m -0.92,0.482 C 4.651,24.617 4.905,23.445 6.07,22.834 c 1.16,-0.607 2.268,-0.152 2.79,0.842 0.52,0.992 0.267,2.163 -0.893,2.772 -1.165,0.611 -2.274,0.155 -2.795,-0.837 m -5.553,-0.296 c 0.338,-0.215 0.723,-0.402 1.113,-0.497 0.834,-0.205 1.662,-0.033 1.889,0.892 0.128,0.526 -0.037,0.974 -0.943,1.425 -0.411,0.198 -0.487,0.355 -0.451,0.506 0.058,0.239 0.272,0.364 0.739,0.251 0.199,-0.05 0.525,-0.198 0.752,-0.351 l 0.445,0.624 C 2.815,28.407 2.448,28.598 2.031,28.702 1.322,28.876 0.42,28.7 0.221,27.894 0.044,27.168 0.432,26.832 0.839,26.594 1.246,26.356 1.677,26.217 1.592,25.871 1.505,25.518 1.171,25.538 0.868,25.611 0.602,25.675 0.252,25.858 0.042,25.985 Z m -23.595,-3.885 2.847,-2.776 c 0.195,0.201 0.393,0.395 0.594,0.588 l -1.772,1.854 2.806,-0.928 c 0.261,0.221 0.527,0.436 0.798,0.644 l -2.372,3.192 -0.791,-0.623 1.68,-2.059 -2.908,0.973 m -6.015,-10.488 1.563,-0.129 c -0.111,-0.282 -0.218,-0.559 -0.319,-0.842 l -1.248,0.959 z m -0.992,-0.149 3.259,-2.877 c 0.093,0.332 0.193,0.66 0.301,0.985 l -0.707,0.57 c 0.148,0.428 0.307,0.85 0.479,1.266 l 0.905,-0.041 c 0.14,0.324 0.287,0.65 0.441,0.968 l -4.303,0.117 m -0.398,-6.544 c 0.387,-0.043 0.435,-0.409 0.407,-0.647 -0.016,-0.139 -0.034,-0.297 -0.047,-0.43 l -0.954,0.096 c 0.016,0.158 0.019,0.303 0.035,0.447 0.045,0.401 0.244,0.571 0.559,0.534 m -1.555,-1.956 4.014,-0.232 c 0.019,0.307 0.044,0.611 0.074,0.916 l -1.494,0.147 c 0.004,0.033 0.006,0.095 0.017,0.148 0.049,0.266 0.373,0.471 0.72,0.596 0.285,0.105 0.897,0.271 0.897,0.271 0.05,0.346 0.103,0.68 0.189,1.033 0,0 -1.05,-0.363 -1.428,-0.582 -0.241,-0.136 -0.375,-0.205 -0.524,-0.381 l -0.019,0.004 c -0.012,0.614 -0.374,1 -0.946,1.039 -0.698,0.051 -1.075,-0.58 -1.168,-1.347 l -0.173,0.013 m 0.256,-8.072 0.985,0.178 c -0.057,0.316 -0.108,0.637 -0.154,0.955 l 2.954,0.416 c -0.043,0.297 -0.083,0.615 -0.115,0.914 l -2.964,-0.299 c -0.034,0.33 -0.062,0.66 -0.083,0.987 l -0.99,-0.063 m 4.177,-12.828 2.999,0.881 0.006,-0.008 -1.912,-2.461 0.648,-0.832 2.379,3.43 c -0.213,0.293 -0.418,0.592 -0.616,0.894 l -4.028,-1.043 m 6.357,-7.384 2.504,3.082 c -0.658,0.531 -1.287,1.097 -1.883,1.699 l -0.605,-0.604 c 0.392,-0.396 0.798,-0.775 1.217,-1.142 l -2.045,-2.338 m 6.346,-4.164 1.699,3.597 c -0.766,0.36 -1.512,0.758 -2.235,1.198 l -0.443,-0.731 c 0.475,-0.289 0.961,-0.56 1.456,-0.816 l -1.435,-2.779 m 6.505,-2.366 0.883,3.891 c -0.296,0.066 -0.606,0.139 -0.898,0.217 l -1.035,-3.848 m 14.041,0.803 0.422,1.588 c -0.277,-0.086 -0.574,-0.174 -0.84,-0.248 l 0.369,-1.352 z m -2.533,-1.34 -0.161,0.988 c 0.519,0.088 1.037,0.192 1.616,0.326 l -0.162,0.649 c -0.525,-0.119 -0.977,-0.213 -1.444,-0.293 l -0.125,0.758 c 0.443,0.078 0.884,0.168 1.383,0.283 l -0.167,0.664 c -0.532,-0.125 -1.008,-0.219 -1.486,-0.299 l -0.141,0.842 c 0.779,0.131 1.553,0.303 2.315,0.516 l 0.294,-1.008 c 0.415,0.115 0.826,0.244 1.235,0.383 l 0.202,0.777 0.599,-1.346 -0.784,-2.504 m 5.356,2.239 -1.916,3.498 c -0.263,-0.149 -0.544,-0.295 -0.814,-0.432 l 1.777,-3.57 m 6.979,5.015 -0.703,0.711 c -0.226,-0.228 -0.46,-0.451 -0.7,-0.67 l -2.015,2.196 c -0.221,-0.204 -0.457,-0.416 -0.688,-0.612 l 1.926,-2.273 c -0.251,-0.215 -0.507,-0.422 -0.765,-0.627 l 0.621,-0.781 m 5.833,6.332 -3.318,2.207 c -0.165,-0.25 -0.346,-0.516 -0.521,-0.76 l 3.224,-2.332 m 3.856,7.685 -0.95,0.299 c -0.097,-0.306 -0.202,-0.613 -0.31,-0.918 l -2.807,1.006 c -0.1,-0.281 -0.21,-0.58 -0.323,-0.861 l 2.76,-1.115 C 19.473,-7.539 19.343,-7.846 19.21,-8.143 l 0.917,-0.408 m 2.261,13.285 -3.066,0.62 -0.002,0.009 2.838,1.293 -0.18,1.041 -3.707,-1.933 c 0.054,-0.362 0.093,-0.719 0.128,-1.08 l 4.05,-0.954 m -1.919,8.881 -3.702,-1.478 c 0.115,-0.281 0.229,-0.578 0.329,-0.86 l 3.75,1.332 m -7.674,11.278 -2.04,-2.346 c 0.419,-0.369 0.826,-0.75 1.217,-1.144 l -0.606,-0.602 c -0.596,0.602 -1.223,1.166 -1.881,1.699 l 2.506,3.072" /></g></g></g><g
       id="g24"><g
         clip-path="url(#clipPath30)"
         id="g26"><g
           transform="translate(173.2335,68.5435)"
           id="g32"><path
             id="path34"
             style="fill:#ffffff;fill-opacity:1;fill-rule:nonzero;stroke:none"
             d="m 0,0 c 0,-0.784 0.359,-1.118 0.972,-1.118 0.509,0 0.992,0.316 1.61,1.056 L 2.879,-0.654 C 2.242,-1.796 0.972,-2.58 -0.192,-2.58 c -1.439,0 -2.392,0.807 -2.392,2.625 v 5.077 h -1.12 v 0.555 c 1.271,0.527 2.709,2.073 3.087,3.257 H 0 V 6.288 H 2.768 L 2.457,5.122 H 0 Z m -11.898,-0.211 c 0,-1.332 0.362,-1.46 1.101,-1.46 h 0.211 v -0.676 h -5.358 v 0.676 h 0.302 c 1.081,0 1.163,0.425 1.163,1.547 v 9.249 c 0,0.611 -0.108,0.761 -0.678,0.952 l -0.614,0.211 v 0.488 l 3.366,1.036 h 0.507 V 4.914 c 1.187,0.825 2.707,1.607 3.808,1.607 1.551,0 2.312,-1.246 2.312,-3.745 v -2.797 c 0,-1.25 0.145,-1.65 0.952,-1.65 h 0.207 v -0.676 h -4.994 v 0.676 h 0.17 c 0.888,0 1.081,0.342 1.081,1.547 v 3.195 c 0,1.141 -0.53,1.862 -1.375,1.862 -0.575,0 -1.419,-0.315 -2.161,-0.803 z m -4.591,-0.104 c -0.974,-1.481 -2.458,-2.265 -4.318,-2.265 -2.581,0 -4.447,1.759 -4.447,4.193 0,2.771 2.395,4.908 5.482,4.908 1.821,0 3.198,-0.762 3.198,-1.799 0,-0.633 -0.422,-1.06 -1.082,-1.06 -1.478,0 -1.793,1.885 -3.022,1.885 -1.06,0 -1.783,-1.29 -1.783,-3.194 0,-2.287 1.084,-3.831 2.648,-3.831 0.955,0 1.841,0.484 2.709,1.502 z M -29.441,2.9 c -0.021,1.631 -0.593,2.624 -1.506,2.624 -0.866,0 -1.647,-1.118 -1.502,-2.624 z m 2.727,-2.792 c -1.181,-1.669 -2.898,-2.688 -4.529,-2.688 -2.307,0 -3.872,1.778 -3.872,4.339 0,2.794 1.887,4.762 4.527,4.762 1.126,0 2.015,-0.36 2.669,-1.016 1.25,-1.248 0.658,-2.434 1.399,-2.815 V 2.076 h -5.864 c 0.169,-1.757 1.353,-3.089 2.604,-3.089 0.78,0 1.543,0.441 2.584,1.525 z M -37.93,-2.347 h -5.887 v 0.676 h 0.148 c 0.87,0 1.185,0.381 1.185,1.48 V 3.26 c 0,0.952 -0.125,1.166 -0.759,1.419 l -0.574,0.235 v 0.527 l 3.471,1.312 h 0.447 V 4.384 h 0.042 c 0.782,1.524 1.121,2.137 1.842,2.137 0.145,0 0.318,-0.022 0.421,-0.062 l 1.672,-0.616 c -0.253,-0.89 -0.591,-1.648 -1.01,-2.242 -0.662,0.255 -1.443,0.529 -1.721,0.529 -0.422,0 -0.778,-0.298 -1.246,-0.952 v -3.431 c 0,-1.018 0.318,-1.418 1.419,-1.418 h 0.55 z M -47.666,0 c 0,-0.784 0.356,-1.118 0.972,-1.118 0.506,0 0.993,0.316 1.608,1.056 l 0.297,-0.592 c -0.635,-1.142 -1.905,-1.926 -3.071,-1.926 -1.436,0 -2.395,0.807 -2.395,2.625 v 5.077 h -1.118 v 0.555 c 1.269,0.527 2.713,2.073 3.091,3.257 h 0.616 V 6.288 h 2.769 l -0.316,-1.166 h -2.453 z m -8.849,10.817 h 5.487 V 9.992 h -0.151 c -1.692,0 -1.948,-0.739 -1.948,-1.757 V 2.967 c 0,-4.722 -3.427,-5.608 -5.945,-5.608 -3.812,0 -6.224,1.647 -6.224,4.887 v 6.306 c 0,1.061 -0.295,1.44 -1.482,1.44 h -0.36 v 0.825 h 6.625 V 9.992 h -0.356 c -0.895,0 -1.504,-0.401 -1.504,-1.44 V 2.246 c 0,-2.582 1.901,-3.471 3.827,-3.471 2.775,0 4.153,1.564 4.153,3.894 v 5.143 c 0,1.502 -0.425,2.18 -1.739,2.18 h -0.383 z" /></g><g
           transform="translate(197.2979,48.4135)"
           id="g36"><path
             id="path38"
             style="fill:#ffffff;fill-opacity:1;fill-rule:nonzero;stroke:none"
             d="m 0,0 -0.423,-0.93 c -1.121,-2.454 -2.241,-1.143 -3.214,-2.116 -0.191,-0.19 -0.318,-0.549 -0.318,-0.888 0,-0.698 0.571,-1.205 1.332,-1.205 0.74,0 1.396,0.507 1.925,1.565 l 4.736,9.643 c 0.593,1.204 0.868,1.459 1.819,1.67 V 8.416 H 1.924 V 7.739 C 3.193,7.718 3.468,6.999 3.023,6.09 L 1.416,2.833 -0.339,6.47 C -0.74,7.316 -0.572,7.739 0.528,7.739 V 8.416 H -4.865 V 7.739 c 0.91,0 1.27,-0.401 2.009,-1.924 z m -9.004,2.126 c 0,-0.783 0.356,-1.119 0.971,-1.119 0.506,0 0.989,0.319 1.608,1.058 L -6.13,1.47 c -0.634,-1.14 -1.903,-1.924 -3.071,-1.924 -1.436,0 -2.391,0.807 -2.391,2.623 v 5.082 h -1.121 v 0.551 c 1.27,0.528 2.71,2.073 3.09,3.258 h 0.619 V 8.414 h 2.77 L -6.553,7.251 h -2.451 z m -5.784,10.12 c 0,-0.848 -0.802,-1.44 -1.672,-1.44 -0.972,0 -1.692,0.615 -1.692,1.44 0,0.761 0.803,1.439 1.692,1.439 0.973,0 1.672,-0.636 1.672,-1.439 m 0.996,-12.468 h -5.294 v 0.679 h 0.236 c 0.865,0 1.184,0.381 1.184,1.481 v 4.061 c 0,0.553 -0.122,0.703 -0.718,0.912 l -0.702,0.256 v 0.507 l 3.62,1.205 h 0.381 V 1.788 c 0,-0.867 0.36,-1.331 1.293,-1.331 z m -13.293,2.498 h 0.677 c 0.361,-1.186 1.293,-1.819 2.201,-1.819 0.593,0 1.097,0.445 1.097,0.972 0,1.461 -3.975,1.967 -3.975,4.532 0,1.609 1.335,2.688 3.319,2.688 0.806,0 1.486,-0.127 2.374,-0.446 l 0.04,-2.264 h -0.68 c -0.379,1.164 -1.078,1.797 -1.987,1.797 -0.55,0 -0.972,-0.339 -0.972,-0.803 0,-1.735 4.169,-1.8 4.169,-4.701 0,-1.564 -1.121,-2.665 -2.751,-2.665 -1.464,0 -1.949,0.298 -2.245,0.298 -0.126,0 -0.251,-0.087 -0.423,-0.276 h -0.613 z m -3.348,-2.498 h -5.88 v 0.679 h 0.147 c 0.866,0 1.182,0.381 1.182,1.481 v 3.451 c 0,0.952 -0.127,1.163 -0.762,1.417 l -0.567,0.234 v 0.53 l 3.467,1.309 h 0.447 V 6.51 h 0.045 c 0.779,1.524 1.117,2.139 1.838,2.139 0.15,0 0.319,-0.023 0.422,-0.065 l 1.671,-0.615 c -0.251,-0.887 -0.591,-1.649 -1.013,-2.241 -0.658,0.253 -1.441,0.526 -1.717,0.526 -0.422,0 -0.782,-0.293 -1.246,-0.952 V 1.876 c 0,-1.017 0.318,-1.419 1.419,-1.419 h 0.547 z m -9.926,5.251 c -0.019,1.627 -0.592,2.624 -1.504,2.624 -0.868,0 -1.65,-1.122 -1.502,-2.624 z m 2.73,-2.797 c -1.187,-1.668 -2.898,-2.686 -4.527,-2.686 -2.313,0 -3.873,1.78 -3.873,4.337 0,2.797 1.881,4.766 4.527,4.766 1.124,0 2.007,-0.36 2.664,-1.018 1.254,-1.247 0.659,-2.433 1.4,-2.817 V 4.203 h -5.864 c 0.17,-1.758 1.354,-3.09 2.602,-3.09 0.783,0 1.545,0.441 2.583,1.525 z m -19.387,6.182 h 5.376 V 7.736 h -0.74 c -0.449,0 -0.633,-0.4 -0.275,-1.184 l 1.881,-4.215 1.65,3.728 c 0.488,1.102 0.236,1.525 -1.246,1.671 v 0.678 h 4.21 V 7.736 c -1.102,-0.105 -1.374,-0.381 -1.777,-1.267 l -3.024,-6.838 h -1.271 l -3.153,6.792 c -0.4,0.87 -0.703,1.208 -1.631,1.313 z m -1.228,3.832 c 0,-0.848 -0.807,-1.44 -1.672,-1.44 -0.976,0 -1.692,0.615 -1.692,1.44 0,0.761 0.803,1.439 1.692,1.439 0.969,0 1.672,-0.636 1.672,-1.439 m 0.994,-12.468 h -5.291 v 0.679 h 0.234 c 0.868,0 1.183,0.381 1.183,1.481 v 4.061 c 0,0.553 -0.127,0.703 -0.72,0.912 l -0.697,0.256 v 0.507 l 3.619,1.205 h 0.385 V 1.788 c 0,-0.867 0.353,-1.331 1.287,-1.331 z m -7.895,1.926 c 0,-1.036 0.377,-1.247 1.206,-1.247 v -0.679 h -4.997 v 0.679 c 0.868,0.062 1.208,0.656 1.208,2.392 V 4.69 c 0,1.694 -0.468,2.35 -1.312,2.35 -0.657,0 -1.356,-0.318 -2.246,-0.932 V 1.81 c 0,-0.951 0.404,-1.353 1.248,-1.353 h 0.19 v -0.679 h -5.353 v 0.679 h 0.125 c 0.891,0 1.207,0.381 1.207,1.481 v 4.127 c 0,0.466 -0.253,0.741 -0.996,0.952 l -0.441,0.127 v 0.509 l 3.617,1.226 h 0.403 V 6.998 c 1.543,1.015 2.899,1.651 3.915,1.651 1.547,0 2.226,-1.103 2.226,-3.64 z m -15.431,11.241 h 5.482 v -0.826 h -0.149 c -1.691,0 -1.948,-0.741 -1.948,-1.758 V 5.09 c 0,-4.719 -3.427,-5.605 -5.946,-5.605 -3.812,0 -6.224,1.647 -6.224,4.886 v 6.309 c 0,1.057 -0.294,1.439 -1.481,1.439 h -0.361 v 0.826 h 6.629 v -0.826 h -0.36 c -0.891,0 -1.506,-0.402 -1.506,-1.439 V 4.371 c 0,-2.583 1.908,-3.469 3.832,-3.469 2.776,0 4.151,1.566 4.151,3.896 v 5.141 c 0,1.501 -0.427,2.18 -1.739,2.18 h -0.38 z" /></g></g></g></g></svg>
