<svg xmlns="http://www.w3.org/2000/svg" xmlns:xlink="http://www.w3.org/1999/xlink" contentStyleType="text/css" height="1193.75px" preserveAspectRatio="none" style="width:900px;height:1193px;background:#282C34;" version="1.1" viewBox="0 0 900 1193" width="900px" zoomAndPan="magnify"><defs/><g><rect fill="#282C34" height="1193.75" style="stroke:none;stroke-width:2.0833333333333335;" width="900" x="0" y="0"/><path d="M40.625,14.5833 L845.9332,14.5833 A26.0417,26.0417 0 0 1 871.9749,40.625 L871.9749,80.127 L14.5833,80.127 L14.5833,40.625 A26.0417,26.0417 0 0 1 40.625,14.5833 " fill="#424856" style="stroke:#424856;stroke-width:2.0833333333333335;"/><rect fill="none" height="1166.985" rx="26.0417" ry="26.0417" style="stroke:#61AFEF;stroke-width:1.0416666666666667;" width="857.3915" x="14.5833" y="14.5833"/><line style="stroke:#61AFEF;stroke-width:1.0416666666666667;" x1="14.5833" x2="871.9749" y1="80.127" y2="80.127"/><text fill="#ABB2BF" font-family="CMU Serif" font-size="31.25" lengthAdjust="spacing" textLength="250.5951" x="317.9815" y="58.1736">Research Space</text><g id="ResearchSpace.FOLDER"><rect fill="#424856" height="131.0872" rx="26.0417" ry="26.0417" style="stroke:#61AFEF;stroke-width:1.0416666666666667;" width="194.8212" x="241.3241" y="267.627"/><line style="stroke:#61AFEF;stroke-width:1.0416666666666667;" x1="241.3241" x2="436.1453" y1="333.1706" y2="333.1706"/><text fill="#ABB2BF" font-family="CMU Serif" font-size="31.25" lengthAdjust="spacing" textLength="125.5035" x="275.9829" y="311.2172">FOLDER</text><text fill="#ABB2BF" font-family="CMU Serif" font-size="31.25" lengthAdjust="spacing" textLength="144.8212" x="255.9074" y="376.7609">Unlocked</text></g><g id="ResearchSpace.LOCKED"><rect fill="#424856" height="131.0872" rx="26.0417" ry="26.0417" style="stroke:#61AFEF;stroke-width:1.0416666666666667;" width="178.1281" x="55.9074" y="521.627"/><line style="stroke:#61AFEF;stroke-width:1.0416666666666667;" x1="55.9074" x2="234.0355" y1="587.1706" y2="587.1706"/><text fill="#ABB2BF" font-family="CMU Serif" font-size="31.25" lengthAdjust="spacing" textLength="128.1281" x="80.9074" y="565.2172">LOCKED</text><text fill="#ABB2BF" font-family="CMU Serif" font-size="31.25" lengthAdjust="spacing" textLength="110.8704" x="70.4908" y="630.7609">Locked</text></g><g id="ResearchSpace.SUBMITTED"><rect fill="#424856" height="131.0872" rx="26.0417" ry="26.0417" style="stroke:#61AFEF;stroke-width:1.0416666666666667;" width="353.3905" x="237.0324" y="775.6478"/><line style="stroke:#61AFEF;stroke-width:1.0416666666666667;" x1="237.0324" x2="590.4229" y1="841.1914" y2="841.1914"/><text fill="#ABB2BF" font-family="CMU Serif" font-size="31.25" lengthAdjust="spacing" textLength="182.312" x="322.5717" y="819.2381">SUBMITTED</text><text fill="#ABB2BF" font-family="CMU Serif" font-size="31.25" lengthAdjust="spacing" textLength="303.3905" x="251.6158" y="884.7817">Submitted for vault</text></g><g id="ResearchSpace.ACCEPTED"><rect fill="#424856" height="131.0872" rx="26.0417" ry="26.0417" style="stroke:#61AFEF;stroke-width:1.0416666666666667;" width="337.3383" x="515.8866" y="1029.6478"/><line style="stroke:#61AFEF;stroke-width:1.0416666666666667;" x1="515.8866" x2="853.2249" y1="1095.1914" y2="1095.1914"/><text fill="#ABB2BF" font-family="CMU Serif" font-size="31.25" lengthAdjust="spacing" textLength="166.5039" x="601.3038" y="1073.2381">ACCEPTED</text><text fill="#ABB2BF" font-family="CMU Serif" font-size="31.25" lengthAdjust="spacing" textLength="287.3383" x="530.4699" y="1138.7817">Accepted for vault</text></g><g id="ResearchSpace.REJECTED"><rect fill="#424856" height="131.0872" rx="26.0417" ry="26.0417" style="stroke:#61AFEF;stroke-width:1.0416666666666667;" width="328.5645" x="78.6158" y="1029.6478"/><line style="stroke:#61AFEF;stroke-width:1.0416666666666667;" x1="78.6158" x2="407.1802" y1="1095.1914" y2="1095.1914"/><text fill="#ABB2BF" font-family="CMU Serif" font-size="31.25" lengthAdjust="spacing" textLength="155.1361" x="165.3299" y="1073.2381">REJECTED</text><text fill="#ABB2BF" font-family="CMU Serif" font-size="31.25" lengthAdjust="spacing" textLength="278.5645" x="93.1991" y="1138.7817">Rejected for vault</text></g><ellipse cx="338.7408" cy="123.877" fill="#98C379" rx="20.8333" ry="20.8333" style="stroke:#222222;stroke-width:2.0833333333333335;"/><!--link *start*ResearchSpace to FOLDER--><g id="link_*start*ResearchSpace_FOLDER"><path d="M338.7408,145.627 C338.7408,173.3145 338.7408,212.5436 338.7408,254.3561 " fill="none" id="*start*ResearchSpace-to-FOLDER" style="stroke:#61AFEF;stroke-width:2.0833333333333335;"/><polygon fill="#61AFEF" points="338.7408,266.8561,347.0741,248.1061,338.7408,256.4395,330.4074,248.1061,338.7408,266.8561" style="stroke:#61AFEF;stroke-width:2.0833333333333335;"/><text fill="#ABB2BF" font-family="CMU Serif" font-size="31.25" lengthAdjust="spacing" textLength="205.1697" x="344.9908" y="217.4672">Create folder</text></g><!--link FOLDER to LOCKED--><g id="link_FOLDER_LOCKED"><path d="M240.8449,343.1686 C178.3866,353.877 101.8658,378.752 61.6574,436.2103 C42.9699,462.9186 48.1245,484.2201 68.7495,511.1784 " fill="none" id="FOLDER-to-LOCKED" style="stroke:#61AFEF;stroke-width:2.0833333333333335;"/><polygon fill="#61AFEF" points="76.3449,521.1061,71.5703,501.1509,70.0154,512.833,58.3333,511.2781,76.3449,521.1061" style="stroke:#61AFEF;stroke-width:2.0833333333333335;"/><text fill="#ABB2BF" font-family="CMU Serif" font-size="31.25" lengthAdjust="spacing" textLength="71.8079" x="67.9074" y="471.4672">Lock</text></g><!--link FOLDER to SUBMITTED--><g id="link_FOLDER_SUBMITTED"><path d="M341.8033,399.4603 C345.5533,463.8561 353.2824,565.6686 367.9074,652.7311 C374.8033,693.7936 382.6597,727.1132 392.2013,762.8215 " fill="none" id="FOLDER-to-SUBMITTED" style="stroke:#61AFEF;stroke-width:2.0833333333333335;"/><polygon fill="#61AFEF" points="395.4283,774.8978,398.6387,754.6321,392.7392,764.8342,382.537,758.9346,395.4283,774.8978" style="stroke:#61AFEF;stroke-width:2.0833333333333335;"/><text fill="#ABB2BF" font-family="CMU Serif" font-size="31.25" lengthAdjust="spacing" textLength="110.8551" x="374.1574" y="598.4881">Submit</text></g><!--link LOCKED to FOLDER--><g id="link_LOCKED_FOLDER"><path d="M156.0116,520.6895 C163.1366,492.752 174.6158,460.8561 192.9074,436.2103 C205.9283,418.6686 212.9519,410.589 230.7436,397.2349 " fill="none" id="LOCKED-to-FOLDER" style="stroke:#61AFEF;stroke-width:2.0833333333333335;"/><polygon fill="#61AFEF" points="240.7408,389.7311,220.7425,394.3219,232.4098,395.9842,230.7475,407.6515,240.7408,389.7311" style="stroke:#61AFEF;stroke-width:2.0833333333333335;"/><text fill="#ABB2BF" font-family="CMU Serif" font-size="31.25" lengthAdjust="spacing" textLength="105.7587" x="199.1574" y="471.4672">Unlock</text></g><!--link LOCKED to SUBMITTED--><g id="link_LOCKED_SUBMITTED"><path d="M150.6158,653.752 C156.0116,682.377 166.4699,714.7936 186.6574,738.1478 C200.6158,754.2936 207.0675,761.34 225.505,772.9025 " fill="none" id="LOCKED-to-SUBMITTED" style="stroke:#61AFEF;stroke-width:2.0833333333333335;"/><polygon fill="#61AFEF" points="236.0949,779.5436,224.6375,762.522,227.27,774.0094,215.7827,776.6419,236.0949,779.5436" style="stroke:#61AFEF;stroke-width:2.0833333333333335;"/><text fill="#ABB2BF" font-family="CMU Serif" font-size="31.25" lengthAdjust="spacing" textLength="110.8551" x="192.9074" y="725.4881">Submit</text></g><!--link SUBMITTED to FOLDER--><g id="link_SUBMITTED_FOLDER"><path d="M450.9699,774.7103 C483.5324,709.752 521.2616,607.127 490.8241,521.627 C474.4283,475.6061 449.8237,441.8186 418.6362,408.7978 " fill="none" id="SUBMITTED-to-FOLDER" style="stroke:#61AFEF;stroke-width:2.0833333333333335;"/><polygon fill="#61AFEF" points="410.0533,399.7103,416.8694,419.0635,417.2057,407.2832,428.986,407.6196,410.0533,399.7103" style="stroke:#61AFEF;stroke-width:2.0833333333333335;"/><text fill="#ABB2BF" font-family="CMU Serif" font-size="31.25" lengthAdjust="spacing" textLength="149.9786" x="509.5741" y="598.4881">Unsubmit</text></g><!--link SUBMITTED to ACCEPTED--><g id="link_SUBMITTED_ACCEPTED"><path d="M483.4699,907.6061 C523.9074,944.8978 565.4704,983.234 605.8662,1020.5048 " fill="none" id="SUBMITTED-to-ACCEPTED" style="stroke:#61AFEF;stroke-width:2.0833333333333335;"/><polygon fill="#61AFEF" points="615.0533,1028.9811,606.9236,1010.1419,607.3974,1021.9175,595.6218,1022.3913,615.0533,1028.9811" style="stroke:#61AFEF;stroke-width:2.0833333333333335;"/><text fill="#ABB2BF" font-family="CMU Serif" font-size="31.25" lengthAdjust="spacing" textLength="107.0557" x="580.4074" y="979.4881">Accept</text></g><!--link SUBMITTED to REJECTED--><g id="link_SUBMITTED_REJECTED"><path d="M402.8449,907.0436 C395.9699,934.8561 385.0324,966.8353 367.9074,992.1478 C358.9908,1005.3145 356.9736,1009.0878 345.0361,1020.2544 " fill="none" id="SUBMITTED-to-REJECTED" style="stroke:#61AFEF;stroke-width:2.0833333333333335;"/><polygon fill="#61AFEF" points="335.9074,1028.7936,355.2932,1022.0706,343.5146,1021.6776,343.9076,1009.8991,335.9074,1028.7936" style="stroke:#61AFEF;stroke-width:2.0833333333333335;"/><text fill="#ABB2BF" font-family="CMU Serif" font-size="31.25" lengthAdjust="spacing" textLength="98.2819" x="397.0741" y="979.4881">Reject</text></g><!--link REJECTED to LOCKED--><g id="link_REJECTED_LOCKED"><path d="M194.1158,1028.752 C171.1991,994.4811 146.3449,950.4603 134.5741,906.7311 C111.5324,821.2728 119.454,730.5258 130.079,665.505 " fill="none" id="REJECTED-to-LOCKED" style="stroke:#61AFEF;stroke-width:2.0833333333333335;"/><polygon fill="#61AFEF" points="132.0949,653.1686,120.8469,670.3293,130.415,663.4489,137.2954,673.0171,132.0949,653.1686" style="stroke:#61AFEF;stroke-width:2.0833333333333335;"/><text fill="#ABB2BF" font-family="CMU Serif" font-size="31.25" lengthAdjust="spacing" textLength="71.8079" x="140.8241" y="852.4881">Lock</text></g><!--link REJECTED to SUBMITTED--><g id="link_REJECTED_SUBMITTED"><path d="M225.4699,1029.2936 C221.4699,1001.4811 221.9699,969.502 236.6574,944.2311 C244.8241,930.1478 246.2805,925.9988 258.7597,915.3321 " fill="none" id="REJECTED-to-SUBMITTED" style="stroke:#61AFEF;stroke-width:2.0833333333333335;"/><polygon fill="#61AFEF" points="268.2616,907.2103,248.5942,913.0584,260.3433,913.9785,259.4233,925.7276,268.2616,907.2103" style="stroke:#61AFEF;stroke-width:2.0833333333333335;"/><text fill="#ABB2BF" font-family="CMU Serif" font-size="31.25" lengthAdjust="spacing" textLength="110.8551" x="242.9074" y="979.4881">Submit</text></g><!--link ACCEPTED to FOLDER--><g id="link_ACCEPTED_FOLDER"><path d="M703.0741,1028.7103 C731.4283,916.0436 772.4699,680.0436 672.0741,521.627 C619.1783,438.1895 526.7496,392.8147 448.8538,366.0438 " fill="none" id="ACCEPTED-to-FOLDER" style="stroke:#61AFEF;stroke-width:2.0833333333333335;"/><polygon fill="#61AFEF" points="437.0324,361.9811,452.056,375.9561,446.8836,365.3667,457.4729,360.1943,437.0324,361.9811" style="stroke:#61AFEF;stroke-width:2.0833333333333335;"/><text fill="#ABB2BF" font-family="CMU Serif" font-size="31.25" lengthAdjust="spacing" textLength="108.1238" x="738.7408" y="725.4881">Secure</text></g><!--SRC=[bPXjRzCm4CVVvrEOmYiaf57sY0GIIpkUnZQQxHL2o74kMPXh1yTP6OZlZkCqJHoxZJTfqkJxtVdly_dixCapmYaNF-8CDJzlqEJfz7XANkrFWYSRum-QPxTI6_Ud-yS7XvDWOqtxhZYEft7Qimf8EYli7PAZWovm9W1OQpmv9g-EJZhZ0r3ALwtd0TaxYdkIQ0MRi8SlSGffPomgKL1O6ydXqN6Iz1GL8bzYyL1RUy62eBpBMO45Ng8OaxjCy8ebOMtVO5aV-XiWz8x8_3wN3wS3X_NF87s6Wp18qo7D-YWN2TYqkPYWvp3ByPApv7JR8YmnhSDWekqpp0VhD2Mf7U_3aSH2sdY_0WoQ5uxOLcWk7fDpHJyYYrn44WHm-L306MUT-6vxQZ039jqY71eqxDJWa204NncRPXXbdcBYdDanRqixfhPZdswlUsMinnNeD_66zfeun2BnYwj9lvWKbwKTr15IWrPCOxD3ogl4k-8QshVY5491bJzdvVYPxSEZvpNaouApHvHfv-1Pgg4w7e9J7zqDk5lpXZEEdRKP3UCwf0OtmnB7k0JVrMzupyNF8CKLbQxP3MEK_m7qyc3WSe6NWC8lDoW2aQVQMEHekhTN_pbdqd6js9BNt6WbdEKKngDfQZmMfuhmYDPmu_7KRUgzHmtikK4Vu3VEE1kNseAZMZyoLNIgeNhhxHmyDP-3kYeIdxwr9dSthWkUU6lLhAVC2ovXgyZcvTPIsmJ6MHjeUDe7o6Ny4uXt3rlJdkkuKb5nDfQY7kWTDqbobg6f_blTmYGliDs8RVbzUBGSDLnV1iEuKc1MgdUgQkK6vexObCeLYDBdiAovKN5VAwYyQw-1FPExK1kCMKQzetSEdZD4yAi2Lf_Qt-C9wSEZMMdXcNhkEjeesX6_TTbzublwlOfQ-2N8yjgL9NEMypnLlmnshCD5Rrk28r4Ni2hKmOkW_knIR_ErbrFD0bBr9c3RslFWMDXUEvziMwRw0DZZEgmzRt72LtLJI34jGGz9vUPRn0tiMy0IkngqEwohITjFCmqwFltCRpDDERxvZEyzpN7XQBmkVGsugtL5gtn9CVFQm9iIo2CUXItka_T_GL3MorVzfWGio6rKg9iVuH9DsX6aXoRwlmTdb-Up-GAzHZUCSdAdygSkzSlmytocnixRaUZczCl7wsiz65NnCfSI4fGg7VVrKxB-o0l3-LK3l2C4Yg5zCVyq3nlx0khBqR0huDlpx-Z5YxUTe510lOnKl-0wfJLZ23HDjj9kGKRuPhscqUdS3GxyIpTXPS8Yh5pqy-DQds5qYjnCQcYCW5G2Wd__0G00]--></g></svg>