<?xml version="1.0" encoding="UTF-8" standalone="no"?><svg xmlns="http://www.w3.org/2000/svg" xmlns:xlink="http://www.w3.org/1999/xlink" contentScriptType="application/ecmascript" contentStyleType="text/css" height="865px" preserveAspectRatio="none" style="width:438px;height:865px;background:#FFFFFF;" version="1.1" viewBox="0 0 438 865" width="438px" zoomAndPan="magnify"><defs/><g><line style="stroke:#A80036;stroke-width:1.0;stroke-dasharray:5.0,5.0;" x1="48" x2="48" y1="88.4883" y2="779.0781"/><line style="stroke:#A80036;stroke-width:1.0;stroke-dasharray:5.0,5.0;" x1="152" x2="152" y1="88.4883" y2="779.0781"/><line style="stroke:#A80036;stroke-width:1.0;stroke-dasharray:5.0,5.0;" x1="320.5" x2="320.5" y1="88.4883" y2="779.0781"/><text fill="#000000" font-family="sans-serif" font-size="14" lengthAdjust="spacing" textLength="76" x="7" y="83.5352">Researcher</text><ellipse cx="48" cy="15" fill="#FEFECE" rx="8" ry="8" style="stroke:#A80036;stroke-width:2.0;"/><path d="M48,23 L48,50 M35,31 L61,31 M48,50 L35,65 M48,50 L61,65 " fill="none" style="stroke:#A80036;stroke-width:2.0;"/><text fill="#000000" font-family="sans-serif" font-size="14" lengthAdjust="spacing" textLength="76" x="7" y="793.6133">Researcher</text><ellipse cx="48" cy="808.5664" fill="#FEFECE" rx="8" ry="8" style="stroke:#A80036;stroke-width:2.0;"/><path d="M48,816.5664 L48,843.5664 M35,824.5664 L61,824.5664 M48,843.5664 L35,858.5664 M48,843.5664 L61,858.5664 " fill="none" style="stroke:#A80036;stroke-width:2.0;"/><text fill="#000000" font-family="sans-serif" font-size="14" lengthAdjust="spacing" textLength="92" x="103" y="83.5352">Datamanager</text><ellipse cx="152" cy="15" fill="#FEFECE" rx="8" ry="8" style="stroke:#A80036;stroke-width:2.0;"/><path d="M152,23 L152,50 M139,31 L165,31 M152,50 L139,65 M152,50 L165,65 " fill="none" style="stroke:#A80036;stroke-width:2.0;"/><text fill="#000000" font-family="sans-serif" font-size="14" lengthAdjust="spacing" textLength="92" x="103" y="793.6133">Datamanager</text><ellipse cx="152" cy="808.5664" fill="#FEFECE" rx="8" ry="8" style="stroke:#A80036;stroke-width:2.0;"/><path d="M152,816.5664 L152,843.5664 M139,824.5664 L165,824.5664 M152,843.5664 L139,858.5664 M152,843.5664 L165,858.5664 " fill="none" style="stroke:#A80036;stroke-width:2.0;"/><rect fill="#FEFECE" height="34.4883" style="stroke:#A80036;stroke-width:1.5;" width="53" x="294.5" y="53"/><text fill="#000000" font-family="sans-serif" font-size="14" lengthAdjust="spacing" textLength="35" x="303.5" y="75.5352">Yoda</text><rect fill="#FEFECE" height="34.4883" style="stroke:#A80036;stroke-width:1.5;" width="53" x="294.5" y="778.0781"/><text fill="#000000" font-family="sans-serif" font-size="14" lengthAdjust="spacing" textLength="35" x="303.5" y="800.6133">Yoda</text><rect fill="#EEEEEE" height="3" style="stroke:#EEEEEE;stroke-width:1.0;" width="431" x="0" y="121.1436"/><line style="stroke:#000000;stroke-width:1.0;" x1="0" x2="431" y1="121.1436" y2="121.1436"/><line style="stroke:#000000;stroke-width:1.0;" x1="0" x2="431" y1="124.1436" y2="124.1436"/><rect fill="#EEEEEE" height="27.3105" style="stroke:#000000;stroke-width:2.0;" width="129" x="151" y="108.4883"/><text fill="#000000" font-family="sans-serif" font-size="13" font-weight="bold" lengthAdjust="spacing" textLength="107" x="159" y="127.0566">Accepted folder</text><polygon fill="#A80036" points="309,167.1094,319,171.1094,309,175.1094,313,171.1094" style="stroke:#A80036;stroke-width:1.0;"/><line style="stroke:#A80036;stroke-width:1.0;" x1="48" x2="315" y1="171.1094" y2="171.1094"/><text fill="#000000" font-family="sans-serif" font-size="13" lengthAdjust="spacing" textLength="101" x="57" y="164.3672">Submit for vault</text><path d="M273,184.1094 L273,213.1094 L369,213.1094 L369,194.1094 L359,184.1094 L273,184.1094 " fill="#FBFB77" style="stroke:#A80036;stroke-width:1.0;"/><path d="M359,184.1094 L359,194.1094 L369,194.1094 L359,184.1094 " fill="#FBFB77" style="stroke:#A80036;stroke-width:1.0;"/><text fill="#000000" font-family="sans-serif" font-size="13" lengthAdjust="spacing" textLength="71" x="281" y="203.6777">SUBMITTED</text><polygon fill="#A80036" points="163,239.7305,153,243.7305,163,247.7305,159,243.7305" style="stroke:#A80036;stroke-width:1.0;"/><line style="stroke:#A80036;stroke-width:1.0;stroke-dasharray:2.0,2.0;" x1="157" x2="320" y1="243.7305" y2="243.7305"/><text fill="#000000" font-family="sans-serif" font-size="13" lengthAdjust="spacing" textLength="141" x="171" y="236.9883">Submitted notification</text><polygon fill="#A80036" points="309,273.041,319,277.041,309,281.041,313,277.041" style="stroke:#A80036;stroke-width:1.0;"/><line style="stroke:#A80036;stroke-width:1.0;" x1="152" x2="315" y1="277.041" y2="277.041"/><text fill="#000000" font-family="sans-serif" font-size="13" lengthAdjust="spacing" textLength="100" x="161" y="270.2988">Accept for vault</text><polygon fill="#A80036" points="59,306.3516,49,310.3516,59,314.3516,55,310.3516" style="stroke:#A80036;stroke-width:1.0;"/><line style="stroke:#A80036;stroke-width:1.0;stroke-dasharray:2.0,2.0;" x1="53" x2="320" y1="310.3516" y2="310.3516"/><text fill="#000000" font-family="sans-serif" font-size="13" lengthAdjust="spacing" textLength="135" x="67" y="303.6094">Accepted notification</text><path d="M275,323.3516 L275,352.3516 L366,352.3516 L366,333.3516 L356,323.3516 L275,323.3516 " fill="#FBFB77" style="stroke:#A80036;stroke-width:1.0;"/><path d="M356,323.3516 L356,333.3516 L366,333.3516 L356,323.3516 " fill="#FBFB77" style="stroke:#A80036;stroke-width:1.0;"/><text fill="#000000" font-family="sans-serif" font-size="13" lengthAdjust="spacing" textLength="66" x="283" y="342.9199">ACCEPTED</text><line style="stroke:#A80036;stroke-width:1.0;" x1="321" x2="363" y1="382.9727" y2="382.9727"/><line style="stroke:#A80036;stroke-width:1.0;" x1="363" x2="363" y1="382.9727" y2="395.9727"/><line style="stroke:#A80036;stroke-width:1.0;" x1="322" x2="363" y1="395.9727" y2="395.9727"/><polygon fill="#A80036" points="332,391.9727,322,395.9727,332,399.9727,328,395.9727" style="stroke:#A80036;stroke-width:1.0;"/><text fill="#000000" font-family="sans-serif" font-size="13" lengthAdjust="spacing" textLength="92" x="330" y="376.2305">Secure in vault</text><path d="M280,408.9727 L280,437.9727 L362,437.9727 L362,418.9727 L352,408.9727 L280,408.9727 " fill="#FBFB77" style="stroke:#A80036;stroke-width:1.0;"/><path d="M352,408.9727 L352,418.9727 L362,418.9727 L352,408.9727 " fill="#FBFB77" style="stroke:#A80036;stroke-width:1.0;"/><text fill="#000000" font-family="sans-serif" font-size="13" lengthAdjust="spacing" textLength="57" x="288" y="428.541">SECURED</text><polygon fill="#A80036" points="59,464.5938,49,468.5938,59,472.5938,55,468.5938" style="stroke:#A80036;stroke-width:1.0;"/><line style="stroke:#A80036;stroke-width:1.0;stroke-dasharray:2.0,2.0;" x1="53" x2="320" y1="468.5938" y2="468.5938"/><text fill="#000000" font-family="sans-serif" font-size="13" lengthAdjust="spacing" textLength="126" x="67" y="461.8516">Secured notification</text><polygon fill="#A80036" points="163,497.9043,153,501.9043,163,505.9043,159,501.9043" style="stroke:#A80036;stroke-width:1.0;"/><line style="stroke:#A80036;stroke-width:1.0;stroke-dasharray:2.0,2.0;" x1="157" x2="320" y1="501.9043" y2="501.9043"/><text fill="#000000" font-family="sans-serif" font-size="13" lengthAdjust="spacing" textLength="126" x="171" y="495.1621">Secured notification</text><rect fill="#EEEEEE" height="3" style="stroke:#EEEEEE;stroke-width:1.0;" width="431" x="0" y="532.5596"/><line style="stroke:#000000;stroke-width:1.0;" x1="0" x2="431" y1="532.5596" y2="532.5596"/><line style="stroke:#000000;stroke-width:1.0;" x1="0" x2="431" y1="535.5596" y2="535.5596"/><rect fill="#EEEEEE" height="27.3105" style="stroke:#000000;stroke-width:2.0;" width="124" x="153.5" y="519.9043"/><text fill="#000000" font-family="sans-serif" font-size="13" font-weight="bold" lengthAdjust="spacing" textLength="102" x="161.5" y="538.4727">Rejected folder</text><polygon fill="#A80036" points="309,578.5254,319,582.5254,309,586.5254,313,582.5254" style="stroke:#A80036;stroke-width:1.0;"/><line style="stroke:#A80036;stroke-width:1.0;" x1="48" x2="315" y1="582.5254" y2="582.5254"/><text fill="#000000" font-family="sans-serif" font-size="13" lengthAdjust="spacing" textLength="101" x="57" y="575.7832">Submit for vault</text><path d="M273,595.5254 L273,624.5254 L369,624.5254 L369,605.5254 L359,595.5254 L273,595.5254 " fill="#FBFB77" style="stroke:#A80036;stroke-width:1.0;"/><path d="M359,595.5254 L359,605.5254 L369,605.5254 L359,595.5254 " fill="#FBFB77" style="stroke:#A80036;stroke-width:1.0;"/><text fill="#000000" font-family="sans-serif" font-size="13" lengthAdjust="spacing" textLength="71" x="281" y="615.0938">SUBMITTED</text><polygon fill="#A80036" points="163,651.1465,153,655.1465,163,659.1465,159,655.1465" style="stroke:#A80036;stroke-width:1.0;"/><line style="stroke:#A80036;stroke-width:1.0;stroke-dasharray:2.0,2.0;" x1="157" x2="320" y1="655.1465" y2="655.1465"/><text fill="#000000" font-family="sans-serif" font-size="13" lengthAdjust="spacing" textLength="141" x="171" y="648.4043">Submitted notification</text><polygon fill="#A80036" points="309,684.457,319,688.457,309,692.457,313,688.457" style="stroke:#A80036;stroke-width:1.0;"/><line style="stroke:#A80036;stroke-width:1.0;" x1="152" x2="315" y1="688.457" y2="688.457"/><text fill="#000000" font-family="sans-serif" font-size="13" lengthAdjust="spacing" textLength="95" x="161" y="681.7148">Reject for vault</text><polygon fill="#A80036" points="59,717.7676,49,721.7676,59,725.7676,55,721.7676" style="stroke:#A80036;stroke-width:1.0;"/><line style="stroke:#A80036;stroke-width:1.0;stroke-dasharray:2.0,2.0;" x1="53" x2="320" y1="721.7676" y2="721.7676"/><text fill="#000000" font-family="sans-serif" font-size="13" lengthAdjust="spacing" textLength="130" x="67" y="715.0254">Rejected notification</text><path d="M278,734.7676 L278,763.7676 L363,763.7676 L363,744.7676 L353,734.7676 L278,734.7676 " fill="#FBFB77" style="stroke:#A80036;stroke-width:1.0;"/><path d="M353,734.7676 L353,744.7676 L363,744.7676 L353,734.7676 " fill="#FBFB77" style="stroke:#A80036;stroke-width:1.0;"/><text fill="#000000" font-family="sans-serif" font-size="13" lengthAdjust="spacing" textLength="60" x="286" y="754.3359">REJECTED</text><!--MD5=[7aaa78babe9b9293a2e0edfc7a549839]
@startuml
skinparam padding 2
skinparam shadowing false

actor       Researcher  as researcher
actor       Datamanager as datamanager
participant Yoda        as yoda

== Accepted folder ==
researcher   -> yoda        : Submit for vault
note over yoda              : SUBMITTED
yoda        - -> datamanager : Submitted notification
datamanager  -> yoda        : Accept for vault
yoda        - -> researcher  : Accepted notification
note over yoda              : ACCEPTED
yoda         -> yoda        : Secure in vault
note over yoda              : SECURED
yoda        - -> researcher  : Secured notification
yoda        - -> datamanager : Secured notification
== Rejected folder ==
researcher   -> yoda        : Submit for vault
note over yoda              : SUBMITTED
yoda        - -> datamanager : Submitted notification
datamanager  -> yoda        : Reject for vault
yoda        - -> researcher  : Rejected notification
note over yoda              : REJECTED
@enduml

PlantUML version 1.2021.14(Fri Nov 12 17:46:50 CET 2021)
(GPL source distribution)
Java Runtime: OpenJDK Runtime Environment
JVM: OpenJDK 64-Bit Server VM
Default Encoding: UTF-8
Language: nl
Country: NL
--></g></svg>