<?xml version="1.0" encoding="UTF-8" standalone="no"?><svg xmlns="http://www.w3.org/2000/svg" xmlns:xlink="http://www.w3.org/1999/xlink" contentScriptType="application/ecmascript" contentStyleType="text/css" height="864px" preserveAspectRatio="none" style="width:453px;height:864px;" version="1.1" viewBox="0 0 453 864" width="453px" zoomAndPan="magnify"><defs/><g><line style="stroke: #A80036; stroke-width: 1.0; stroke-dasharray: 5.0,5.0;" x1="53" x2="53" y1="86.2969" y2="773.6875"/><line style="stroke: #A80036; stroke-width: 1.0; stroke-dasharray: 5.0,5.0;" x1="159" x2="159" y1="86.2969" y2="773.6875"/><line style="stroke: #A80036; stroke-width: 1.0; stroke-dasharray: 5.0,5.0;" x1="328" x2="328" y1="86.2969" y2="773.6875"/><text fill="#000000" font-family="sans-serif" font-size="14" lengthAdjust="spacingAndGlyphs" textLength="80" x="10" y="80.9951">Researcher</text><ellipse cx="53" cy="13" fill="#FEFECE" rx="8" ry="8" style="stroke: #A80036; stroke-width: 2.0;"/><path d="M53,21 L53,48 M40,29 L66,29 M53,48 L40,63 M53,48 L66,63 " fill="none" style="stroke: #A80036; stroke-width: 2.0;"/><text fill="#000000" font-family="sans-serif" font-size="14" lengthAdjust="spacingAndGlyphs" textLength="80" x="10" y="787.6826">Researcher</text><ellipse cx="53" cy="802.9844" fill="#FEFECE" rx="8" ry="8" style="stroke: #A80036; stroke-width: 2.0;"/><path d="M53,810.9844 L53,837.9844 M40,818.9844 L66,818.9844 M53,837.9844 L40,852.9844 M53,837.9844 L66,852.9844 " fill="none" style="stroke: #A80036; stroke-width: 2.0;"/><text fill="#000000" font-family="sans-serif" font-size="14" lengthAdjust="spacingAndGlyphs" textLength="93" x="110" y="80.9951">Datamanager</text><ellipse cx="159.5" cy="13" fill="#FEFECE" rx="8" ry="8" style="stroke: #A80036; stroke-width: 2.0;"/><path d="M159.5,21 L159.5,48 M146.5,29 L172.5,29 M159.5,48 L146.5,63 M159.5,48 L172.5,63 " fill="none" style="stroke: #A80036; stroke-width: 2.0;"/><text fill="#000000" font-family="sans-serif" font-size="14" lengthAdjust="spacingAndGlyphs" textLength="93" x="110" y="787.6826">Datamanager</text><ellipse cx="159.5" cy="802.9844" fill="#FEFECE" rx="8" ry="8" style="stroke: #A80036; stroke-width: 2.0;"/><path d="M159.5,810.9844 L159.5,837.9844 M146.5,818.9844 L172.5,818.9844 M159.5,837.9844 L146.5,852.9844 M159.5,837.9844 L172.5,852.9844 " fill="none" style="stroke: #A80036; stroke-width: 2.0;"/><rect fill="#FEFECE" height="34.2969" style="stroke: #A80036; stroke-width: 1.5;" width="53" x="302" y="51"/><text fill="#000000" font-family="sans-serif" font-size="14" lengthAdjust="spacingAndGlyphs" textLength="35" x="311" y="72.9951">Yoda</text><rect fill="#FEFECE" height="34.2969" style="stroke: #A80036; stroke-width: 1.5;" width="53" x="302" y="772.6875"/><text fill="#000000" font-family="sans-serif" font-size="14" lengthAdjust="spacingAndGlyphs" textLength="35" x="311" y="794.6826">Yoda</text><rect fill="#EEEEEE" height="3" style="stroke: #EEEEEE; stroke-width: 1.0;" width="438.5" x="3" y="118.8633"/><line style="stroke: #000000; stroke-width: 1.0;" x1="3" x2="441.5" y1="118.8633" y2="118.8633"/><line style="stroke: #000000; stroke-width: 1.0;" x1="3" x2="441.5" y1="121.8633" y2="121.8633"/><rect fill="#EEEEEE" height="27.1328" style="stroke: #000000; stroke-width: 2.0;" width="142" x="151.25" y="106.2969"/><text fill="#000000" font-family="sans-serif" font-size="13" font-weight="bold" lengthAdjust="spacingAndGlyphs" textLength="119" x="159.25" y="124.3638">Accepted folder</text><polygon fill="#A80036" points="316.5,164.5625,326.5,168.5625,316.5,172.5625,320.5,168.5625" style="stroke: #A80036; stroke-width: 1.0;"/><line style="stroke: #A80036; stroke-width: 1.0;" x1="53" x2="322.5" y1="168.5625" y2="168.5625"/><text fill="#000000" font-family="sans-serif" font-size="13" lengthAdjust="spacingAndGlyphs" textLength="102" x="62" y="161.4966">Submit for vault</text><path d="M279,181.5625 L279,210.5625 L378,210.5625 L378,191.5625 L368,181.5625 L279,181.5625 " fill="#FBFB77" style="stroke: #A80036; stroke-width: 1.0;"/><path d="M368,181.5625 L368,191.5625 L378,191.5625 L368,181.5625 " fill="#FBFB77" style="stroke: #A80036; stroke-width: 1.0;"/><text fill="#000000" font-family="sans-serif" font-size="13" lengthAdjust="spacingAndGlyphs" textLength="74" x="287" y="200.6294">SUBMITTED</text><polygon fill="#A80036" points="170.5,236.8281,160.5,240.8281,170.5,244.8281,166.5,240.8281" style="stroke: #A80036; stroke-width: 1.0;"/><line style="stroke: #A80036; stroke-width: 1.0; stroke-dasharray: 2.0,2.0;" x1="164.5" x2="327.5" y1="240.8281" y2="240.8281"/><text fill="#000000" font-family="sans-serif" font-size="13" lengthAdjust="spacingAndGlyphs" textLength="141" x="178.5" y="233.7622">Submitted notification</text><polygon fill="#A80036" points="316.5,269.9609,326.5,273.9609,316.5,277.9609,320.5,273.9609" style="stroke: #A80036; stroke-width: 1.0;"/><line style="stroke: #A80036; stroke-width: 1.0;" x1="159.5" x2="322.5" y1="273.9609" y2="273.9609"/><text fill="#000000" font-family="sans-serif" font-size="13" lengthAdjust="spacingAndGlyphs" textLength="100" x="168.5" y="266.895">Accept for vault</text><polygon fill="#A80036" points="64,303.0938,54,307.0938,64,311.0938,60,307.0938" style="stroke: #A80036; stroke-width: 1.0;"/><line style="stroke: #A80036; stroke-width: 1.0; stroke-dasharray: 2.0,2.0;" x1="58" x2="327.5" y1="307.0938" y2="307.0938"/><text fill="#000000" font-family="sans-serif" font-size="13" lengthAdjust="spacingAndGlyphs" textLength="134" x="72" y="300.0278">Accepted notification</text><path d="M277,320.0938 L277,349.0938 L379,349.0938 L379,330.0938 L369,320.0938 L277,320.0938 " fill="#FBFB77" style="stroke: #A80036; stroke-width: 1.0;"/><path d="M369,320.0938 L369,330.0938 L379,330.0938 L369,320.0938 " fill="#FBFB77" style="stroke: #A80036; stroke-width: 1.0;"/><text fill="#000000" font-family="sans-serif" font-size="13" lengthAdjust="spacingAndGlyphs" textLength="77" x="285" y="339.1606">ACCCEPTED</text><line style="stroke: #A80036; stroke-width: 1.0;" x1="328.5" x2="370.5" y1="379.3594" y2="379.3594"/><line style="stroke: #A80036; stroke-width: 1.0;" x1="370.5" x2="370.5" y1="379.3594" y2="392.3594"/><line style="stroke: #A80036; stroke-width: 1.0;" x1="329.5" x2="370.5" y1="392.3594" y2="392.3594"/><polygon fill="#A80036" points="339.5,388.3594,329.5,392.3594,339.5,396.3594,335.5,392.3594" style="stroke: #A80036; stroke-width: 1.0;"/><text fill="#000000" font-family="sans-serif" font-size="13" lengthAdjust="spacingAndGlyphs" textLength="95" x="337.5" y="372.2935">Secure in vault</text><path d="M285,405.3594 L285,434.3594 L372,434.3594 L372,415.3594 L362,405.3594 L285,405.3594 " fill="#FBFB77" style="stroke: #A80036; stroke-width: 1.0;"/><path d="M362,405.3594 L362,415.3594 L372,415.3594 L362,405.3594 " fill="#FBFB77" style="stroke: #A80036; stroke-width: 1.0;"/><text fill="#000000" font-family="sans-serif" font-size="13" lengthAdjust="spacingAndGlyphs" textLength="62" x="293" y="424.4263">SECURED</text><polygon fill="#A80036" points="64,460.625,54,464.625,64,468.625,60,464.625" style="stroke: #A80036; stroke-width: 1.0;"/><line style="stroke: #A80036; stroke-width: 1.0; stroke-dasharray: 2.0,2.0;" x1="58" x2="327.5" y1="464.625" y2="464.625"/><text fill="#000000" font-family="sans-serif" font-size="13" lengthAdjust="spacingAndGlyphs" textLength="127" x="72" y="457.5591">Secured notification</text><polygon fill="#A80036" points="170.5,493.7578,160.5,497.7578,170.5,501.7578,166.5,497.7578" style="stroke: #A80036; stroke-width: 1.0;"/><line style="stroke: #A80036; stroke-width: 1.0; stroke-dasharray: 2.0,2.0;" x1="164.5" x2="327.5" y1="497.7578" y2="497.7578"/><text fill="#000000" font-family="sans-serif" font-size="13" lengthAdjust="spacingAndGlyphs" textLength="127" x="178.5" y="490.6919">Secured notification</text><rect fill="#EEEEEE" height="3" style="stroke: #EEEEEE; stroke-width: 1.0;" width="438.5" x="3" y="528.3242"/><line style="stroke: #000000; stroke-width: 1.0;" x1="3" x2="441.5" y1="528.3242" y2="528.3242"/><line style="stroke: #000000; stroke-width: 1.0;" x1="3" x2="441.5" y1="531.3242" y2="531.3242"/><rect fill="#EEEEEE" height="27.1328" style="stroke: #000000; stroke-width: 2.0;" width="137" x="153.75" y="515.7578"/><text fill="#000000" font-family="sans-serif" font-size="13" font-weight="bold" lengthAdjust="spacingAndGlyphs" textLength="114" x="161.75" y="533.8247">Rejected folder</text><polygon fill="#A80036" points="316.5,574.0234,326.5,578.0234,316.5,582.0234,320.5,578.0234" style="stroke: #A80036; stroke-width: 1.0;"/><line style="stroke: #A80036; stroke-width: 1.0;" x1="53" x2="322.5" y1="578.0234" y2="578.0234"/><text fill="#000000" font-family="sans-serif" font-size="13" lengthAdjust="spacingAndGlyphs" textLength="102" x="62" y="570.9575">Submit for vault</text><path d="M279,591.0234 L279,620.0234 L378,620.0234 L378,601.0234 L368,591.0234 L279,591.0234 " fill="#FBFB77" style="stroke: #A80036; stroke-width: 1.0;"/><path d="M368,591.0234 L368,601.0234 L378,601.0234 L368,591.0234 " fill="#FBFB77" style="stroke: #A80036; stroke-width: 1.0;"/><text fill="#000000" font-family="sans-serif" font-size="13" lengthAdjust="spacingAndGlyphs" textLength="74" x="287" y="610.0903">SUBMITTED</text><polygon fill="#A80036" points="170.5,646.2891,160.5,650.2891,170.5,654.2891,166.5,650.2891" style="stroke: #A80036; stroke-width: 1.0;"/><line style="stroke: #A80036; stroke-width: 1.0; stroke-dasharray: 2.0,2.0;" x1="164.5" x2="327.5" y1="650.2891" y2="650.2891"/><text fill="#000000" font-family="sans-serif" font-size="13" lengthAdjust="spacingAndGlyphs" textLength="141" x="178.5" y="643.2231">Submitted notification</text><polygon fill="#A80036" points="316.5,679.4219,326.5,683.4219,316.5,687.4219,320.5,683.4219" style="stroke: #A80036; stroke-width: 1.0;"/><line style="stroke: #A80036; stroke-width: 1.0;" x1="159.5" x2="322.5" y1="683.4219" y2="683.4219"/><text fill="#000000" font-family="sans-serif" font-size="13" lengthAdjust="spacingAndGlyphs" textLength="95" x="168.5" y="676.356">Reject for vault</text><polygon fill="#A80036" points="64,712.5547,54,716.5547,64,720.5547,60,716.5547" style="stroke: #A80036; stroke-width: 1.0;"/><line style="stroke: #A80036; stroke-width: 1.0; stroke-dasharray: 2.0,2.0;" x1="58" x2="327.5" y1="716.5547" y2="716.5547"/><text fill="#000000" font-family="sans-serif" font-size="13" lengthAdjust="spacingAndGlyphs" textLength="129" x="72" y="709.4888">Rejected notification</text><path d="M285,729.5547 L285,758.5547 L371,758.5547 L371,739.5547 L361,729.5547 L285,729.5547 " fill="#FBFB77" style="stroke: #A80036; stroke-width: 1.0;"/><path d="M361,729.5547 L361,739.5547 L371,739.5547 L361,729.5547 " fill="#FBFB77" style="stroke: #A80036; stroke-width: 1.0;"/><text fill="#000000" font-family="sans-serif" font-size="13" lengthAdjust="spacingAndGlyphs" textLength="61" x="293" y="748.6216">REJECTED</text><!--
@startuml
skinparam padding 2
skinparam shadowing false

actor       Researcher  as researcher
actor       Datamanager as datamanager
participant Yoda        as yoda

== Accepted folder ==
researcher   -> yoda        : Submit for vault
note over yoda              : SUBMITTED
yoda        - -> datamanager : Submitted notification
datamanager  -> yoda        : Accept for vault
yoda        - -> researcher  : Accepted notification
note over yoda              : ACCCEPTED
yoda         -> yoda        : Secure in vault
note over yoda              : SECURED
yoda        - -> researcher  : Secured notification
yoda        - -> datamanager : Secured notification
== Rejected folder ==
researcher   -> yoda        : Submit for vault
note over yoda              : SUBMITTED
yoda        - -> datamanager : Submitted notification
datamanager  -> yoda        : Reject for vault
yoda        - -> researcher  : Rejected notification
note over yoda              : REJECTED
@enduml

PlantUML version 1.2018.13(Mon Nov 26 18:11:51 CET 2018)
(GPL source distribution)
Java Runtime: OpenJDK Runtime Environment
JVM: OpenJDK 64-Bit Server VM
Java Version: 11.0.9.1+1-post-Debian-1deb10u2
Operating System: Linux
OS Version: 5.9.0-0.bpo.5-amd64
Default Encoding: UTF-8
Language: en
Country: US
--></g></svg>