<svg xmlns="http://www.w3.org/2000/svg" xmlns:xlink="http://www.w3.org/1999/xlink" contentStyleType="text/css" height="1791.6667px" preserveAspectRatio="none" style="width:1039px;height:1791px;background:#282C34;" version="1.1" viewBox="0 0 1039 1791" width="1039.5833px" zoomAndPan="magnify"><defs/><g><rect fill="#282C34" height="1791.6667" style="stroke:none;stroke-width:2.0833333333333335;" width="1039.5833" x="0" y="0"/><line style="stroke:#61AFEF;stroke-width:1.0416666666666667;stroke-dasharray:5.0,5.0;" x1="108.3333" x2="108.3333" y1="180.127" y2="1613.1185"/><line style="stroke:#61AFEF;stroke-width:1.0416666666666667;stroke-dasharray:5.0,5.0;" x1="346.2555" x2="346.2555" y1="180.127" y2="1613.1185"/><line style="stroke:#61AFEF;stroke-width:1.0416666666666667;stroke-dasharray:5.0,5.0;" x1="752.6174" x2="752.6174" y1="180.127" y2="1613.1185"/><text fill="#ABB2BF" font-family="CMU Serif" font-size="31.25" lengthAdjust="spacing" textLength="177.5055" x="14.5833" y="168.5903">Researcher</text><ellipse cx="109.5861" cy="28.125" fill="#424856" rx="16.6667" ry="16.6667" style="stroke:#61AFEF;stroke-width:1.0416666666666667;"/><path d="M109.5861,44.7917 L109.5861,101.0417 M82.5027,61.4583 L136.6694,61.4583 M109.5861,101.0417 L82.5027,132.2917 M109.5861,101.0417 L136.6694,132.2917 " fill="none" style="stroke:#61AFEF;stroke-width:1.0416666666666667;"/><text fill="#ABB2BF" font-family="CMU Serif" font-size="31.25" lengthAdjust="spacing" textLength="177.5055" x="14.5833" y="1644.2088">Researcher</text><ellipse cx="109.5861" cy="1673.4538" fill="#424856" rx="16.6667" ry="16.6667" style="stroke:#61AFEF;stroke-width:1.0416666666666667;"/><path d="M109.5861,1690.1204 L109.5861,1746.3704 M82.5027,1706.7871 L136.6694,1706.7871 M109.5861,1746.3704 L82.5027,1777.6204 M109.5861,1746.3704 L136.6694,1777.6204 " fill="none" style="stroke:#61AFEF;stroke-width:1.0416666666666667;"/><text fill="#ABB2BF" font-family="CMU Serif" font-size="31.25" lengthAdjust="spacing" textLength="215.0726" x="233.7555" y="168.5903">Datamanager</text><ellipse cx="347.5418" cy="28.125" fill="#424856" rx="16.6667" ry="16.6667" style="stroke:#61AFEF;stroke-width:1.0416666666666667;"/><path d="M347.5418,44.7917 L347.5418,101.0417 M320.4585,61.4583 L374.6251,61.4583 M347.5418,101.0417 L320.4585,132.2917 M347.5418,101.0417 L374.6251,132.2917 " fill="none" style="stroke:#61AFEF;stroke-width:1.0416666666666667;"/><text fill="#ABB2BF" font-family="CMU Serif" font-size="31.25" lengthAdjust="spacing" textLength="215.0726" x="233.7555" y="1644.2088">Datamanager</text><ellipse cx="347.5418" cy="1673.4538" fill="#424856" rx="16.6667" ry="16.6667" style="stroke:#61AFEF;stroke-width:1.0416666666666667;"/><path d="M347.5418,1690.1204 L347.5418,1746.3704 M320.4585,1706.7871 L374.6251,1706.7871 M347.5418,1746.3704 L320.4585,1777.6204 M347.5418,1746.3704 L374.6251,1777.6204 " fill="none" style="stroke:#61AFEF;stroke-width:1.0416666666666667;"/><rect fill="#424856" height="73.877" rx="5.2083" ry="5.2083" style="stroke:#61AFEF;stroke-width:1.0416666666666667;" width="114.6942" x="696.3674" y="104.1667"/><text fill="#ABB2BF" font-family="CMU Serif" font-size="31.25" lengthAdjust="spacing" textLength="77.1942" x="715.1174" y="151.9236">Yoda</text><rect fill="#424856" height="73.877" rx="5.2083" ry="5.2083" style="stroke:#61AFEF;stroke-width:1.0416666666666667;" width="114.6942" x="696.3674" y="1611.0352"/><text fill="#ABB2BF" font-family="CMU Serif" font-size="31.25" lengthAdjust="spacing" textLength="77.1942" x="715.1174" y="1658.7921">Yoda</text><rect fill="#424856" height="6.25" style="stroke:#424856;stroke-width:2.0833333333333335;" width="1026.0778" x="0" y="250.3988"/><line style="stroke:#ABB2BF;stroke-width:2.0833333333333335;" x1="0" x2="1026.0778" y1="250.3988" y2="250.3988"/><line style="stroke:#ABB2BF;stroke-width:2.0833333333333335;" x1="0" x2="1026.0778" y1="256.6488" y2="256.6488"/><rect fill="#424856" height="61.377" style="stroke:#ABB2BF;stroke-width:4.166666666666667;" width="327.3102" x="349.3838" y="221.7936"/><text fill="#ABB2BF" font-family="CMU Serif" font-size="31.25" font-weight="bold" lengthAdjust="spacing" textLength="278.9307" x="366.0505" y="263.3006">Accepted folder</text><polygon fill="#61AFEF" points="728.7145,352.8809,749.5478,361.2142,728.7145,369.5475,737.0478,361.2142" style="stroke:#61AFEF;stroke-width:2.0833333333333335;"/><line style="stroke:#61AFEF;stroke-width:2.0833333333333335;" x1="109.5861" x2="741.2145" y1="361.2142" y2="361.2142"/><text fill="#ABB2BF" font-family="CMU Serif" font-size="31.25" lengthAdjust="spacing" textLength="252.0752" x="128.3361" y="345.5109">Submit for vault</text><path d="M635.4167,388.2975 L635.4167,452.8809 L868.75,452.8809 L868.75,409.1309 L847.9167,388.2975 L635.4167,388.2975 " fill="#E5C07B" style="stroke:#282C34;stroke-width:1.0416666666666667;"/><path d="M847.9167,388.2975 L847.9167,409.1309 L868.75,409.1309 L847.9167,388.2975 " fill="#E5C07B" style="stroke:#282C34;stroke-width:1.0416666666666667;"/><text fill="#282C34" font-family="CMU Serif" font-size="31.25" lengthAdjust="spacing" textLength="182.312" x="652.0833" y="431.8878">SUBMITTED</text><polygon fill="#61AFEF" points="370.4585,513.1348,349.6251,521.4681,370.4585,529.8014,362.1251,521.4681" style="stroke:#61AFEF;stroke-width:2.0833333333333335;"/><line style="stroke:#61AFEF;stroke-width:2.0833333333333335;stroke-dasharray:2.0,2.0;" x1="357.9585" x2="751.6312" y1="521.4681" y2="521.4681"/><text fill="#ABB2BF" font-family="CMU Serif" font-size="31.25" lengthAdjust="spacing" textLength="347.8394" x="387.1251" y="505.7648">Submitted notification</text><polygon fill="#61AFEF" points="728.7145,587.0117,749.5478,595.3451,728.7145,603.6784,737.0478,595.3451" style="stroke:#61AFEF;stroke-width:2.0833333333333335;"/><line style="stroke:#61AFEF;stroke-width:2.0833333333333335;" x1="347.5418" x2="741.2145" y1="595.3451" y2="595.3451"/><text fill="#ABB2BF" font-family="CMU Serif" font-size="31.25" lengthAdjust="spacing" textLength="248.2758" x="366.2918" y="579.6417">Accept for vault</text><polygon fill="#61AFEF" points="132.5027,660.8887,111.6694,669.222,132.5027,677.5553,124.1694,669.222" style="stroke:#61AFEF;stroke-width:2.0833333333333335;"/><line style="stroke:#61AFEF;stroke-width:2.0833333333333335;stroke-dasharray:2.0,2.0;" x1="120.0027" x2="751.6312" y1="669.222" y2="669.222"/><text fill="#ABB2BF" font-family="CMU Serif" font-size="31.25" lengthAdjust="spacing" textLength="331.7871" x="149.1694" y="653.5187">Accepted notification</text><path d="M643.75,696.3053 L643.75,760.8887 L860.4167,760.8887 L860.4167,717.1387 L839.5833,696.3053 L643.75,696.3053 " fill="#E5C07B" style="stroke:#282C34;stroke-width:1.0416666666666667;"/><path d="M839.5833,696.3053 L839.5833,717.1387 L860.4167,717.1387 L839.5833,696.3053 " fill="#E5C07B" style="stroke:#282C34;stroke-width:1.0416666666666667;"/><text fill="#282C34" font-family="CMU Serif" font-size="31.25" lengthAdjust="spacing" textLength="166.5039" x="660.4167" y="739.8956">ACCEPTED</text><line style="stroke:#61AFEF;stroke-width:2.0833333333333335;" x1="753.7145" x2="841.2145" y1="829.4759" y2="829.4759"/><line style="stroke:#61AFEF;stroke-width:2.0833333333333335;" x1="841.2145" x2="841.2145" y1="829.4759" y2="856.5592"/><line style="stroke:#61AFEF;stroke-width:2.0833333333333335;" x1="755.7978" x2="841.2145" y1="856.5592" y2="856.5592"/><polygon fill="#61AFEF" points="776.6312,848.2259,755.7978,856.5592,776.6312,864.8926,768.2978,856.5592" style="stroke:#61AFEF;stroke-width:2.0833333333333335;"/><text fill="#ABB2BF" font-family="CMU Serif" font-size="31.25" lengthAdjust="spacing" textLength="234.8633" x="772.4645" y="813.7726">Secure in vault</text><polygon fill="#61AFEF" points="132.5027,922.1029,111.6694,930.4362,132.5027,938.7695,124.1694,930.4362" style="stroke:#61AFEF;stroke-width:2.0833333333333335;"/><line style="stroke:#61AFEF;stroke-width:2.0833333333333335;stroke-dasharray:2.0,2.0;" x1="120.0027" x2="751.6312" y1="930.4362" y2="930.4362"/><text fill="#ABB2BF" font-family="CMU Serif" font-size="31.25" lengthAdjust="spacing" textLength="313.6292" x="149.1694" y="914.7329">Secured notification</text><polygon fill="#61AFEF" points="370.4585,995.9798,349.6251,1004.3132,370.4585,1012.6465,362.1251,1004.3132" style="stroke:#61AFEF;stroke-width:2.0833333333333335;"/><line style="stroke:#61AFEF;stroke-width:2.0833333333333335;stroke-dasharray:2.0,2.0;" x1="357.9585" x2="751.6312" y1="1004.3132" y2="1004.3132"/><text fill="#ABB2BF" font-family="CMU Serif" font-size="31.25" lengthAdjust="spacing" textLength="313.6292" x="387.1251" y="988.6098">Secured notification</text><rect fill="#424856" height="6.25" style="stroke:#424856;stroke-width:2.0833333333333335;" width="1026.0778" x="0" y="1070.4183"/><line style="stroke:#ABB2BF;stroke-width:2.0833333333333335;" x1="0" x2="1026.0778" y1="1070.4183" y2="1070.4183"/><line style="stroke:#ABB2BF;stroke-width:2.0833333333333335;" x1="0" x2="1026.0778" y1="1076.6683" y2="1076.6683"/><rect fill="#424856" height="61.377" style="stroke:#ABB2BF;stroke-width:4.166666666666667;" width="318.2007" x="353.9385" y="1041.8132"/><text fill="#ABB2BF" font-family="CMU Serif" font-size="31.25" font-weight="bold" lengthAdjust="spacing" textLength="269.8212" x="370.6052" y="1083.3201">Rejected folder</text><polygon fill="#61AFEF" points="728.7145,1172.9004,749.5478,1181.2337,728.7145,1189.5671,737.0478,1181.2337" style="stroke:#61AFEF;stroke-width:2.0833333333333335;"/><line style="stroke:#61AFEF;stroke-width:2.0833333333333335;" x1="109.5861" x2="741.2145" y1="1181.2337" y2="1181.2337"/><text fill="#ABB2BF" font-family="CMU Serif" font-size="31.25" lengthAdjust="spacing" textLength="252.0752" x="128.3361" y="1165.5304">Submit for vault</text><path d="M635.4167,1208.3171 L635.4167,1272.9004 L868.75,1272.9004 L868.75,1229.1504 L847.9167,1208.3171 L635.4167,1208.3171 " fill="#E5C07B" style="stroke:#282C34;stroke-width:1.0416666666666667;"/><path d="M847.9167,1208.3171 L847.9167,1229.1504 L868.75,1229.1504 L847.9167,1208.3171 " fill="#E5C07B" style="stroke:#282C34;stroke-width:1.0416666666666667;"/><text fill="#282C34" font-family="CMU Serif" font-size="31.25" lengthAdjust="spacing" textLength="182.312" x="652.0833" y="1251.9073">SUBMITTED</text><polygon fill="#61AFEF" points="370.4585,1333.1543,349.6251,1341.4876,370.4585,1349.821,362.1251,1341.4876" style="stroke:#61AFEF;stroke-width:2.0833333333333335;"/><line style="stroke:#61AFEF;stroke-width:2.0833333333333335;stroke-dasharray:2.0,2.0;" x1="357.9585" x2="751.6312" y1="1341.4876" y2="1341.4876"/><text fill="#ABB2BF" font-family="CMU Serif" font-size="31.25" lengthAdjust="spacing" textLength="347.8394" x="387.1251" y="1325.7843">Submitted notification</text><polygon fill="#61AFEF" points="728.7145,1407.0313,749.5478,1415.3646,728.7145,1423.6979,737.0478,1415.3646" style="stroke:#61AFEF;stroke-width:2.0833333333333335;"/><line style="stroke:#61AFEF;stroke-width:2.0833333333333335;" x1="347.5418" x2="741.2145" y1="1415.3646" y2="1415.3646"/><text fill="#ABB2BF" font-family="CMU Serif" font-size="31.25" lengthAdjust="spacing" textLength="239.502" x="366.2918" y="1399.6613">Reject for vault</text><polygon fill="#61AFEF" points="132.5027,1480.9082,111.6694,1489.2415,132.5027,1497.5749,124.1694,1489.2415" style="stroke:#61AFEF;stroke-width:2.0833333333333335;"/><line style="stroke:#61AFEF;stroke-width:2.0833333333333335;stroke-dasharray:2.0,2.0;" x1="120.0027" x2="751.6312" y1="1489.2415" y2="1489.2415"/><text fill="#ABB2BF" font-family="CMU Serif" font-size="31.25" lengthAdjust="spacing" textLength="323.0133" x="149.1694" y="1473.5382">Rejected notification</text><path d="M650,1516.3249 L650,1580.9082 L856.25,1580.9082 L856.25,1537.1582 L835.4167,1516.3249 L650,1516.3249 " fill="#E5C07B" style="stroke:#282C34;stroke-width:1.0416666666666667;"/><path d="M835.4167,1516.3249 L835.4167,1537.1582 L856.25,1537.1582 L835.4167,1516.3249 " fill="#E5C07B" style="stroke:#282C34;stroke-width:1.0416666666666667;"/><text fill="#282C34" font-family="CMU Serif" font-size="31.25" lengthAdjust="spacing" textLength="155.1361" x="666.6667" y="1559.9152">REJECTED</text><!--SRC=[rPTTZzCw48RlyolCmYtIKlOBf1w9JSkNs6LForwSA-GaawmXjOFZR2c8_yuaQH8xSHFtybHQQTjvPkQrFHxRJvw58XNoQv2G-ZCd9qzdLxFmvTc9zwGrVarPyg0guzdixEhyuiHhhR7kIeDW5iIQLKBKMU7q8hmyxm8d4e0tnbTNuSlBLvrn1sagjetdUNXw6MYIqWBQi1SlQ0nnPymAcQMmDuONbrTHf2dA9DjGkIkjMZ3Foxypdb59DoIWuVT4Ye97VcbliKI7Vdk4l0aLUsHgTzrps7zwqsSuI8Cq7U94HuMCO4YRW_4qXmMZ6y6ZwqE368Xf77g93cTOziPfIi8Lr-6reb8DSRq235fabjY3q48UC-T87p6BGguLI11gby5RmJlntVAKO09SsKLOD5ImLOD5WfHYQooQOLGifg4rioLlGrjI3sDV7wvxD9Q_8-YMkAMT4ljKHcvnAz8jPahpV1ZK4h821p6DnVPJKKJE5LVJhXM7I0fO_eBdqtjMXoVtgoyscU17b6ddu5YgFcuFAL8NtJKuhhdbZ6qtM8oQiMrIWrjGHGEQW-leMzvny0k8QP4gMtR3k6Q_WBmuxxdSqWqG_-QUh46ok39cZCnEJyj_brnPZfMXv3qtMGblMGhJqIfgEfP8aN28LdFJyV0qTLwZ6dPSeFVmaoQ2Jqjjm4cj7pWM7JPKPxsTWwFcJu17HUJIj_RaUEEw5P6prefrb7ah51mKMT_S6kgGm21f0lLtUm_v77o3qBc7xMd7STnXL9fCJP46EiUD8iOJCgl-nrCuP1aTDkAXV1sUBCSABW-3VbmbAS_ndegjtC3i4UjIkGEPksoMFJSfxjy22kVQgs77oLtX0bEUfCxHEmV736luKG0lT-tFwGdHuSbPQU05NdSjRPICn6zSndTyGx_3g9dR10syncR9pFA9nVZ7OMGSDlhG42mJTGlR33VU6ifd5zxDzrvMDIk8yKx03xNdthOOUerUsGwaUW_KuJWiFHze9BPbKuXfcaFraq8troAkOTS2LjJMeErXRKrwU3MhGClJptoRLPJbpMUyzofEI4lZjUchmR7MjTwoJKgvqmBUvn0USIbiS9Tv_-Dvj7m-xgqho87Ay07m1veJsNurgFBMkQ4SXoXBAkg-Ubbt5f3_H4IRj8ZjyAldpUVuNWqXKn2HkBfkaVdSarfUyloVYcrSNvDr4MoOGboIn_8kwd4yWObuH5e7M_p- -kR3bo_BXQTRdsDOJMaRjXI2yLZCGbeUE9uE3RNKuZKj_HpwK5vtOpLIZEj_u_lBkxvyown0M4WWZ3i9gUcUZedviRdW-gsWlAxyJzUl5k-yVkrOZrY_rVBZqaVvVm40]--></g></svg>