<?xml version="1.0" encoding="UTF-8"?>
<svg version="1.1" id="Layer_1" x="0px" y="0px" viewBox="0 0 185 45" style="enable-background:new 0 0 210.5 62.5;" preserveAspectRatio="xMinYMin" xmlns="http://www.w3.org/2000/svg">
  <style type="text/css">
	.Arched_x0020_Green{fill:url(#SVGID_1_);stroke:#FFFFFF;stroke-width:0.25;stroke-miterlimit:1;}
	.st0{fill:#FFFFFF;}
	.st1{fill:#0089CF;}
</style>
  <polygon class="st1" points="180.2 30.7 180.2 24.6 177.6 24.6 177.6 23.6 184.2 23.6 184.2 24.6 181.7 24.6 181.7 30.7"/>
  <polygon points="12.8 43.8 0.5 10.4 7.9 10.4 17.5 36.2 26.8 10.4 31.7 10.4 19.8 43.8"/>
  <path d="M 35.8 10.4 L 42.7 10.4 L 42.7 30.9 C 42.7 34.6 43.3 37 44.6 38.3 C 45.9 39.5 47.5 40.1 49.5 40.1 C 51.5 40.1 53 39.5 54.2 38.3 C 55.4 37.1 55.9 34.8 55.9 31.4 L 55.9 10.4 L 61.9 10.4 L 61.9 30.9 C 61.9 34.8 61.4 37.5 60.4 39.2 C 59.4 40.9 58 42.2 56.2 43.2 C 54.4 44.2 52 44.6 49.2 44.6 C 46.4 44.6 44.1 44.2 42.1 43.3 C 40.1 42.4 38.5 41.1 37.4 39.3 C 36.2 37.5 35.7 34.7 35.7 30.9 L 35.7 10.4 Z"/>
  <path class="st0" d="M 71.5 35.6 L 71.5 36.5 L 71.8 36.3 C 71.7 36.1 71.7 35.8 71.6 35.6 L 71.5 35.6 Z"/>
  <path class="st1" d="M 75.9 25.8 C 75.9 25.7 76 25.5 76.2 25.5 C 76.3 25.5 76.5 25.6 76.5 25.8 C 76.5 25.9 76.4 26.1 76.2 26.1 C 76 26.1 75.9 26 75.9 25.8"/>
  <path class="st1" d="M 92.4 33.9 C 92 32.8 90.9 32.1 89.5 32.2 C 88.7 30.7 87.4 31.4 87 31.8 C 87.4 32.2 87.7 32.3 88.2 32.4 L 88.2 32.7 C 87.3 32.7 87 32.3 86.4 31.6 C 86.1 33.8 88.7 34.6 89.5 32.8 C 90.7 32.8 91.5 33.3 91.7 34.1 C 92 34.9 91.7 35.7 91.3 36.1 C 90.6 37 89.4 37 88.3 36.4 C 87.6 36.1 86.9 35.4 86.3 34.7 C 85.4 33.7 84.9 33.2 84.2 32.9 C 83.8 32.7 83.4 32.6 83.1 32.6 C 82.9 32.6 82.7 32.5 82.4 32.5 C 82.2 32.5 82 32.5 81.8 32.6 C 80.2 32.8 78.6 33.5 76.7 33.7 L 75.7 33.7 C 75.1 34.3 74.5 34.8 74 35.2 L 72.8 36.2 C 72.8 36.2 72.8 36.2 72.8 36.2 C 72.3 36.7 72 36.9 72 36.9 C 72.1 38 72.2 38.6 72.2 39.6 C 72.2 40.5 72.2 40.9 72.2 41.2 C 72.2 41.6 72.1 41.9 72 42.2 C 71.9 42.5 71.7 42.7 71.3 42.7 C 71 42.8 70.2 42.2 69.9 42.6 C 69.7 42.9 69.9 43.6 70.2 43.8 L 72.4 43.8 C 72.7 43.3 72.8 42.9 72.9 42.6 C 73.1 42.3 73.2 41.9 73.4 41.7 C 73.6 41.4 73.7 41.1 73.8 40.8 C 73.8 40.5 73.9 40.3 74 40.1 C 74.2 39.7 74.4 39.3 74.5 39.1 C 74.5 39 74.6 39 74.6 38.9 C 74.7 39 74.8 39.2 74.8 39.3 C 75.3 40.1 75.8 40.7 76.5 41 C 76.8 41.1 77 41.3 77.1 41.4 C 77.2 41.5 77.2 41.8 77.2 42.1 C 77.2 42.4 77.1 42.7 76.8 42.8 C 76.3 43 75.6 42.3 75.3 42.7 C 75 43 75.3 43.5 75.6 43.9 L 77.6 43.9 C 78.1 43.1 78.3 42.1 78.3 41.2 C 78.3 40.3 78.3 40.1 77.7 39.8 C 77.5 39.7 77.3 39.2 77.2 38.8 C 77.2 38.7 77.2 38.7 77.2 38.5 C 78.1 38.2 79.2 37.6 80.3 36.8 C 80.3 37 80.3 37.1 80.3 37.3 C 80.5 38.6 80.6 39.7 81.6 40.6 C 81.9 40.9 82.1 41.1 82.1 41.3 C 82.1 41.4 82 41.8 81.8 42 C 81.6 42.5 81.1 42.9 80.7 42.9 C 80.2 43 79.7 42.3 79.3 42.7 C 79 43 79.4 43.7 79.6 43.9 L 81.6 43.9 C 82.3 42.7 83.2 41.7 83.5 41 C 83.7 40.5 83.7 40.3 83.3 40.2 C 82.6 39.8 82.7 39 82.9 38.1 C 82.9 37.9 83 37.8 83.1 37.6 C 83.6 39 84.3 40.3 85.8 40.7 C 86.1 40.7 86.4 40.9 86.5 41 C 86.5 41.1 86.5 41.4 86.5 41.6 C 86.4 42 86.2 42.6 85.8 42.8 C 85.4 43.1 84.5 42.1 84.2 42.7 C 84 43.1 84.4 43.7 84.5 43.9 L 86.5 43.9 C 87 42.7 87.5 41.6 87.7 40.8 C 87.8 39.9 87.8 39.5 87.1 39.4 C 86.7 39.4 86.4 39.2 86.3 38.7 C 86 37.8 86.1 36.2 85.4 35.2 C 86.2 36.1 87 36.8 87.8 37.2 C 89.5 38.1 91.3 37.8 92.1 36.6 C 92.6 35.6 92.6 34.6 92.4 33.9"/>
  <path class="st1" d="M 109.3 10.6 C 107.8 10.4 104.4 10.8 101.4 11.4 C 103.2 10.5 103.8 10.3 104.4 9.9 C 104.6 9.8 104.7 9.5 104.7 9.1 C 104.7 8.7 104.3 8.6 103.8 8.7 C 103.3 8.7 102.3 9.1 101 9.5 C 98.5 10.5 94.9 12.2 90.6 15.1 C 86.8 17.7 84.3 19.9 81.6 22.6 C 80.9 23.3 80.1 24.2 79.2 25.2 C 79.1 25 79 24.9 78.7 25 C 79.7 22.8 79.8 22.7 80.3 21.5 C 80.5 20.9 80.4 20.5 80.2 20.2 C 79.9 19.7 79.5 20 79.2 20.2 C 78.8 20.7 78.7 20.8 77.8 21.9 C 78.9 18.2 79.5 17.9 80.5 15.8 C 80.6 15.5 80.6 15.1 80.5 14.8 C 80.4 14.5 80.2 14.4 80 14.5 C 79.6 14.7 79.5 14.9 78.7 15.8 C 79.8 13.7 81.3 11.2 81.5 10.8 C 81.7 10.4 81.9 10.3 81.5 9.6 C 81.1 9 80.8 9.5 80.5 9.7 C 80.3 9.8 79.8 10.3 79.1 11.2 C 80.7 8.2 82.2 6.8 82.5 6.3 C 82.9 5.7 82.9 5.6 82.6 4.9 C 82.3 4.3 81.8 4.6 81.6 4.9 C 80.5 6 80.5 5.7 78.6 8 C 79.6 5.4 81.3 3.4 81.9 2.4 C 82.2 2 82.2 1.8 81.9 0.9 C 81.8 0.5 81.4 0.3 81 0.3 C 80.5 0.5 80 0.8 79 1.7 C 76.9 3.6 74.1 6.3 71.8 11.2 C 69.6 15.8 69.1 20.1 69.1 23.1 C 69.1 27.7 70.3 31.7 71.4 34.3 C 71.4 34.2 71.4 34.1 71.4 34 C 71.3 32.8 71.5 31.3 71.8 30.6 C 72.3 28.8 72.9 27.8 73.4 27 L 72.5 25.8 L 73.7 26.2 L 73 24.6 C 73 24.6 73.9 24.7 74.6 25.6 C 75 25.2 75.9 24.9 76.7 25.5 C 77.3 25.5 77.6 25.6 77.9 25.7 C 78.5 26.1 78.4 26.7 78.4 26.9 C 78.1 26.6 77.1 26 76.2 26.8 L 78 27.4 L 75.7 27.6 L 75.7 30 L 72.9 32.5 L 72.9 33.4 L 74.8 31.7 L 74.8 32.6 L 71.5 35.6 L 71.5 36.5 L 75.7 32.7 L 75.7 32.7 L 76.8 31.8 L 76.8 31.8 C 77.4 31.3 77.7 31 78.1 30.8 C 78.5 30.5 78.6 30.8 78.7 31.3 C 78.8 31.7 79.3 32.1 80.3 31.2 C 83.2 28.5 86.3 27.1 89.6 25.5 C 87.8 26.7 84.6 28.5 83.5 29.7 C 83 30.3 83.5 31.6 84.3 31 C 85.7 30.1 87.5 29.9 88.5 30 C 88.9 30 89.4 29.7 89.7 29.3 C 90 29 90 28.6 89.4 28.6 C 92.4 27.7 93.2 27.4 95.7 27.2 C 96.4 27.2 96.8 26.8 96.9 26.2 C 97 25.7 96.8 25.5 96.1 25.5 C 95.4 25.4 94.1 25.6 92.8 25.8 C 95.7 24.6 99.2 23.9 102 23.1 C 102.9 22.8 103 22.6 103 22.1 C 103.1 21.5 102.7 21.5 101.7 21.5 C 99.7 21.6 96.7 21.8 92.1 23.1 C 96.4 20.9 98.9 19.9 102.8 18.9 C 103.9 18.6 104 18.3 104.1 17.8 C 104.3 17.2 103.8 17.2 103.4 17.2 C 102.8 17.2 101.5 17.2 98.8 18 C 101.4 16.9 104.3 15.5 106.3 14.9 C 106.7 14.7 107 14.5 107 14 C 107 13.6 106.9 13.6 106.5 13.6 C 105.6 13.6 104.2 13.9 102.5 14.4 C 106 12.9 107.1 12.4 109.5 12 C 110.3 11.8 110.4 11.6 110.5 11.1 C 110.2 10.6 109.8 10.6 109.3 10.6 M 74.2 22.6 C 74.2 22.3 74 22.1 73.8 22 C 74.3 20.7 74.8 19.8 75.8 18.4 C 74.9 20.2 74.5 21.8 74.2 22.6 M 71 21.5 C 71.7 14 75.1 8.5 77.4 5.9 C 74.1 10.9 72.2 17.8 71 21.5 M 83.5 23.7 C 87.9 19.5 93.9 15.1 101.5 13.3 C 95.1 15.5 86.3 21.5 83.5 23.7"/>
  <polygon class="st1" points="118.9 17.7 116.3 10.5 117.9 10.5 119.9 16.1 121.9 10.5 123 10.5 120.4 17.7"/>
  <g transform="matrix(1, 0, 0, 1, -13, -5)">
    <path class="st1" d="M138.3,18.8h0.3c0.6,0,1-0.1,1.3-0.4c0.2-0.3,0.4-0.6,0.4-0.9c0-0.3-0.1-0.5-0.3-0.7c-0.2-0.2-0.6-0.3-1.2-0.3 h-0.5V18.8z M136.9,22.7v-7.1h2.7c0.5,0,1,0.1,1.2,0.2c0.3,0.1,0.5,0.3,0.7,0.6c0.2,0.3,0.2,0.6,0.2,0.9c0,0.4-0.1,0.8-0.4,1.2 c-0.2,0.4-0.6,0.7-1,0.9l2.3,3.3h-1.8l-1.8-2.9h-0.8v2.9H136.9z"/>
  </g>
  <rect x="130.7" y="10.5" class="st1" width="1.5" height="7.1"/>
  <g transform="matrix(1, 0, 0, 1, -13, -5)">
    <path class="st1" d="M145.8,23.9l0-1.1c0.4,0.2,0.8,0.2,1.2,0.2c0.2,0,0.3,0,0.5-0.1c0.1-0.1,0.2-0.2,0.3-0.3 c0.1-0.1,0.1-0.4,0.1-0.9v-6.3h1.5v6.1c0,0.7-0.1,1.2-0.2,1.5c-0.2,0.3-0.4,0.6-0.7,0.7c-0.3,0.2-0.8,0.3-1.3,0.3 C146.6,24.1,146.2,24.1,145.8,23.9"/>
  </g>
  <polygon class="st1" points="138.1 17.7 138.1 10.5 142.7 10.5 142.7 11.5 139.6 11.5 139.6 13.5 142.2 13.5 142.2 14.5 139.6 14.5 139.6 16.7 142.9 16.7 142.9 17.7"/>
  <g transform="matrix(1, 0, 0, 1, -13, -5)">
    <path class="st1" d="M130,28.6h1.5V33c0,0.8,0.1,1.3,0.4,1.6c0.3,0.3,0.6,0.4,1,0.4c0.4,0,0.8-0.1,1-0.4c0.2-0.3,0.4-0.7,0.4-1.5 v-4.5h1.3V33c0,0.8-0.1,1.4-0.3,1.8c-0.2,0.4-0.5,0.6-0.9,0.8c-0.4,0.2-0.9,0.3-1.5,0.3c-0.6,0-1.1-0.1-1.5-0.3 c-0.4-0.2-0.8-0.5-1-0.9c-0.2-0.4-0.4-1-0.4-1.8V28.6z"/>
  </g>
  <polygon class="st1" points="124.4 30.7 124.4 23.6 125.7 23.6 129 28.5 129 23.6 130.2 23.6 130.2 30.7 128.9 30.7 125.6 25.9 125.6 30.7"/>
  <rect x="132.1" y="23.6" class="st1" width="1.5" height="7.1"/>
  <polygon class="st1" points="137.2 30.7 134.6 23.6 136.2 23.6 138.2 29.1 140.2 23.6 141.3 23.6 138.7 30.7"/>
  <polygon class="st1" points="142.1 30.7 142.1 23.6 146.6 23.6 146.6 24.6 143.6 24.6 143.6 26.6 146.1 26.6 146.1 27.5 143.6 27.5 143.6 29.7 146.9 29.7 146.9 30.7"/>
  <g transform="matrix(1, 0, 0, 1, -13, -5)">
    <path class="st1" d="M162.5,31.8h0.3c0.6,0,1-0.1,1.3-0.4c0.2-0.3,0.4-0.6,0.4-0.9c0-0.3-0.1-0.5-0.3-0.7c-0.2-0.2-0.6-0.3-1.2-0.3 h-0.5V31.8z M161.1,35.7v-7.1h2.7c0.5,0,1,0.1,1.2,0.2c0.3,0.1,0.5,0.3,0.7,0.6c0.2,0.3,0.2,0.6,0.2,0.9c0,0.4-0.1,0.8-0.4,1.2 c-0.2,0.4-0.6,0.7-1,0.8l2.3,3.3h-1.8l-1.8-2.9h-0.8v2.9H161.1z"/>
    <path class="st1" d="M167.3,35.7v-1.2c0.6,0.2,1,0.4,1.3,0.4c0.3,0,0.5,0.1,0.8,0.1c0.4,0,0.7-0.1,0.9-0.3c0.2-0.2,0.3-0.4,0.3-0.7 c0-0.2-0.1-0.4-0.2-0.5c-0.1-0.2-0.4-0.4-0.8-0.6l-0.5-0.3c-0.7-0.4-1.2-0.7-1.4-1.1c-0.2-0.3-0.4-0.7-0.4-1.1c0-0.5,0.2-1,0.6-1.4 c0.4-0.4,1-0.6,1.8-0.6c0.6,0,1.2,0.1,1.9,0.2v1.1c-0.7-0.3-1.3-0.4-1.8-0.4c-0.4,0-0.6,0.1-0.8,0.2c-0.2,0.2-0.3,0.3-0.3,0.6 c0,0.2,0.1,0.3,0.2,0.5c0.1,0.1,0.4,0.3,0.8,0.6l0.5,0.3c0.8,0.4,1.3,0.8,1.5,1.1c0.2,0.3,0.3,0.7,0.3,1.1c0,0.6-0.2,1.1-0.7,1.5 c-0.4,0.4-1.2,0.6-2.1,0.6C168.8,35.9,168.1,35.8,167.3,35.7"/>
  </g>
  <rect x="160.4" y="23.6" class="st1" width="1.5" height="7.1"/>
  <polygon class="st1" points="165 30.7 165 24.6 162.4 24.6 162.4 23.6 169 23.6 169 24.6 166.4 24.6 166.4 30.7"/>
  <polygon class="st1" points="169.6 30.7 169.6 23.6 174.1 23.6 174.1 24.6 171 24.6 171 26.6 173.6 26.6 173.6 27.5 171 27.5 171 29.7 174.4 29.7 174.4 30.7"/>
  <rect x="175.6" y="23.6" class="st1" width="1.5" height="7.1"/>
  <path class="st1" d="M 118.5 40.9 L 120.7 40.9 L 119.6 38.1 L 118.5 40.9 Z M 116.3 43.8 L 119.1 36.7 L 120.6 36.7 L 123.4 43.8 L 121.9 43.8 L 121.2 41.9 L 118.2 41.9 L 117.5 43.8 L 116.3 43.8 Z"/>
  <polygon class="st1" points="124.3 43.8 124.3 36.6 126.2 36.6 128 41.7 129.7 36.6 131.5 36.6 131.5 43.8 130.1 43.8 130.1 38.4 128.3 43.3 127.1 43.3 125.4 38.3 125.4 43.8"/>
  <g transform="matrix(1, 0, 0, 1, -13, -5)">
    <path class="st1" d="M145.9,48.7v-1.2c0.6,0.2,1,0.4,1.2,0.4c0.3,0,0.5,0.1,0.8,0.1c0.4,0,0.7-0.1,0.9-0.3c0.2-0.2,0.3-0.4,0.3-0.7 c0-0.2-0.1-0.4-0.2-0.5c-0.1-0.2-0.4-0.4-0.8-0.6l-0.5-0.3c-0.7-0.4-1.2-0.7-1.4-1.1c-0.2-0.3-0.4-0.7-0.4-1.1c0-0.5,0.2-1,0.6-1.4 c0.4-0.4,1-0.6,1.8-0.6c0.6,0,1.2,0.1,1.9,0.2v1.1c-0.7-0.3-1.3-0.4-1.8-0.4c-0.4,0-0.6,0.1-0.8,0.2c-0.2,0.2-0.3,0.3-0.3,0.6 c0,0.2,0.1,0.3,0.2,0.5c0.1,0.1,0.4,0.3,0.8,0.6l0.5,0.3c0.8,0.4,1.3,0.8,1.5,1.2c0.2,0.3,0.3,0.7,0.3,1.1c0,0.6-0.2,1.1-0.7,1.5 c-0.4,0.4-1.2,0.6-2.1,0.6C147.4,48.9,146.7,48.9,145.9,48.7"/>
  </g>
  <polygon class="st1" points="140.2 43.8 140.2 37.6 137.7 37.6 137.7 36.6 144.3 36.6 144.3 37.6 141.7 37.6 141.7 43.8"/>
  <polygon class="st1" points="144.9 43.8 144.9 36.6 149.4 36.6 149.4 37.6 146.4 37.6 146.4 39.6 148.9 39.6 148.9 40.6 146.4 40.6 146.4 42.8 149.7 42.8 149.7 43.8"/>
  <g transform="matrix(1, 0, 0, 1, -13, -5)">
    <path class="st1" d="M165.2,44.9h0.3c0.6,0,1-0.1,1.3-0.4c0.2-0.3,0.3-0.6,0.3-0.9c0-0.3-0.1-0.5-0.3-0.7c-0.2-0.2-0.6-0.3-1.2-0.3 h-0.5V44.9z M163.8,48.8v-7.1h2.7c0.5,0,1,0.1,1.3,0.2c0.3,0.1,0.5,0.3,0.7,0.6c0.2,0.3,0.3,0.6,0.3,0.9c0,0.4-0.1,0.8-0.4,1.2 c-0.2,0.4-0.6,0.7-1,0.9l2.3,3.3h-1.8l-1.8-2.9h-0.8v2.9H163.8z"/>
    <path class="st1" d="M171.9,47.8h1.1c0.6,0,1-0.1,1.3-0.3c0.3-0.2,0.5-0.5,0.7-0.9c0.2-0.4,0.3-0.9,0.3-1.4c0-0.5-0.1-1-0.3-1.3 c-0.2-0.4-0.4-0.7-0.7-0.9c-0.3-0.2-0.8-0.3-1.6-0.3h-0.9V47.8z M170.4,48.8v-7.1h3.1c0.8,0,1.5,0.1,1.9,0.4 c0.5,0.3,0.8,0.7,1.1,1.2c0.3,0.5,0.4,1.1,0.4,1.9c0,0.7-0.1,1.3-0.4,1.9c-0.3,0.6-0.6,1-1.1,1.3c-0.5,0.3-1.2,0.5-2,0.5H170.4z"/>
  </g>
  <path class="st1" d="M 166.2 40.9 L 168.4 40.9 L 167.3 38.1 L 166.2 40.9 Z M 164 43.8 L 166.8 36.7 L 168.3 36.7 L 171.1 43.8 L 169.6 43.8 L 168.9 41.9 L 165.9 41.9 L 165.2 43.8 L 164 43.8 Z"/>
  <polygon class="st1" points="171.8 43.8 171.8 36.6 173.8 36.6 175.5 41.7 177.3 36.6 179 36.6 179 43.8 177.6 43.8 177.6 38.4 175.9 43.3 174.7 43.3 173 38.3 173 43.8"/>
<script xmlns=""/></svg>