<?xml version="1.0" encoding="UTF-8"?>
<svg xmlns="http://www.w3.org/2000/svg" xmlns:xlink="http://www.w3.org/1999/xlink" width="489.47pt" height="159.6pt" viewBox="-7 -7 499.47 169.6" version="1.1">
<defs>
<clipPath id="clip1">
  <path d="M 401 139 L 415 139 L 415 159.601563 L 401 159.601563 Z M 401 139 "/>
</clipPath>
<clipPath id="clip2">
  <path d="M 480 137 L 489.46875 137 L 489.46875 154 L 480 154 Z M 480 137 "/>
</clipPath>
</defs>
<g id="surface1">
<path style=" stroke:none;fill-rule:nonzero;fill:rgb(100%,100%,100%);fill-opacity:1;" d="M 174.175781 114.277344 L 174.175781 106.210938 L 187.542969 104.566406 L 187.542969 79.078125 L 161.347656 34.402344 L 154.167969 32.578125 L 154.167969 24.6875 L 190.71875 24.6875 L 190.71875 32.578125 L 182.476563 34.402344 L 197.960938 64.773438 L 200.492188 72.425781 L 203.671875 65.070313 L 218.265625 34.402344 L 208.554688 32.578125 L 208.554688 24.6875 L 238.339844 24.6875 L 238.339844 32.578125 L 229.921875 34.402344 L 207.375 78.960938 L 207.375 104.566406 L 221.386719 106.210938 L 221.386719 114.277344 "/>
<path style=" stroke:none;fill-rule:nonzero;fill:rgb(100%,100%,100%);fill-opacity:1;" d="M 263.78125 107.507813 C 265.9375 107.507813 267.800781 107.027344 269.371094 106.066406 C 270.9375 105.101563 272.242188 103.59375 273.285156 101.53125 C 274.324219 99.472656 275.089844 96.832031 275.582031 93.617188 C 276.070313 90.398438 276.316406 86.550781 276.316406 82.078125 C 276.316406 77.488281 276.089844 73.417969 275.640625 69.863281 C 275.191406 66.316406 274.460938 63.34375 273.460938 60.949219 C 272.460938 58.554688 271.148438 56.738281 269.515625 55.503906 C 267.890625 54.269531 265.898438 53.648438 263.546875 53.648438 C 261.382813 53.648438 259.511719 54.128906 257.921875 55.089844 C 256.332031 56.054688 255.007813 57.566406 253.949219 59.621094 C 252.886719 61.683594 252.101563 64.324219 251.59375 67.539063 C 251.085938 70.757813 250.832031 74.601563 250.832031 79.078125 C 250.832031 83.667969 251.066406 87.738281 251.535156 91.289063 C 252.007813 94.84375 252.761719 97.816406 253.800781 100.207031 C 254.839844 102.601563 256.175781 104.417969 257.804688 105.652344 C 259.433594 106.890625 261.425781 107.507813 263.78125 107.507813 M 231.171875 80.960938 C 231.171875 74.996094 232.09375 69.796875 233.9375 65.363281 C 235.78125 60.925781 238.234375 57.238281 241.296875 54.296875 C 244.355469 51.355469 247.894531 49.15625 251.921875 47.703125 C 255.9375 46.253906 260.132813 45.527344 264.484375 45.527344 C 269.585938 45.527344 274.097656 46.320313 278.023438 47.910156 C 281.945313 49.5 285.242188 51.785156 287.910156 54.769531 C 290.582031 57.75 292.601563 61.382813 293.976563 65.65625 C 295.347656 69.933594 296.03125 74.78125 296.03125 80.195313 C 296.03125 86.316406 295.113281 91.617188 293.269531 96.089844 C 291.421875 100.5625 288.972656 104.238281 285.910156 107.125 C 282.851563 110.011719 279.316406 112.148438 275.316406 113.539063 C 271.3125 114.933594 267.136719 115.628906 262.777344 115.628906 C 257.679688 115.628906 253.164063 114.835938 249.242188 113.246094 C 245.316406 111.65625 242.011719 109.371094 239.320313 106.386719 C 236.632813 103.40625 234.601563 99.777344 233.230469 95.5 C 231.859375 91.222656 231.171875 86.375 231.171875 80.960938 "/>
<path style=" stroke:none;fill-rule:nonzero;fill:rgb(100%,100%,100%);fill-opacity:1;" d="M 338.375 104.917969 C 340.765625 104.917969 342.894531 104.464844 344.761719 103.5625 C 346.621094 102.660156 348.046875 101.640625 349.027344 100.503906 L 349.027344 56.121094 C 348.363281 55.414063 347.261719 54.789063 345.734375 54.238281 C 344.199219 53.6875 342.375 53.414063 340.257813 53.414063 C 338.136719 53.414063 336.136719 53.867188 334.253906 54.765625 C 332.371094 55.671875 330.722656 57.160156 329.308594 59.242188 C 327.894531 61.324219 326.765625 64.078125 325.925781 67.511719 C 325.078125 70.945313 324.621094 75.171875 324.542969 80.195313 C 324.464844 84.589844 324.734375 88.347656 325.363281 91.46875 C 325.992188 94.585938 326.90625 97.148438 328.101563 99.148438 C 329.296875 101.152344 330.773438 102.613281 332.519531 103.535156 C 334.265625 104.457031 336.214844 104.917969 338.375 104.917969 M 330.898438 115.570313 C 327.25 115.570313 323.847656 114.914063 320.6875 113.597656 C 317.527344 112.285156 314.769531 110.253906 312.414063 107.507813 C 310.0625 104.761719 308.214844 101.296875 306.886719 97.117188 C 305.550781 92.941406 304.882813 88.003906 304.882813 82.316406 C 304.882813 76.9375 305.675781 72.003906 307.265625 67.511719 C 308.855469 63.019531 311.152344 59.144531 314.152344 55.886719 C 317.15625 52.628906 320.8125 50.085938 325.128906 48.265625 C 329.449219 46.4375 334.332031 45.527344 339.785156 45.527344 C 341.4375 45.527344 343.03125 45.605469 344.585938 45.761719 C 346.132813 45.921875 347.613281 46.15625 349.027344 46.46875 L 349.027344 26.457031 L 338.257813 24.632813 L 338.257813 17.921875 L 363.15625 15.390625 L 363.449219 15.390625 L 367.101563 18.15625 L 367.101563 106.09375 L 373.632813 106.09375 L 373.632813 113.511719 C 371.671875 113.945313 369.433594 114.402344 366.921875 114.894531 C 364.410156 115.382813 361.664063 115.628906 358.683594 115.628906 C 356.285156 115.628906 354.421875 115.101563 353.089844 114.039063 C 351.753906 112.980469 351.089844 111.058594 351.089844 108.273438 L 351.089844 105.976563 C 350.109375 107.234375 348.941406 108.4375 347.585938 109.597656 C 346.230469 110.753906 344.699219 111.773438 342.996094 112.65625 C 341.285156 113.539063 339.425781 114.246094 337.402344 114.777344 C 335.382813 115.304688 333.214844 115.570313 330.898438 115.570313 "/>
<path style=" stroke:none;fill-rule:nonzero;fill:rgb(100%,100%,100%);fill-opacity:1;" d="M 409.792969 104.269531 C 410.5 104.269531 411.304688 104.171875 412.203125 103.976563 C 413.105469 103.78125 414.046875 103.503906 415.03125 103.152344 C 416.011719 102.796875 416.972656 102.378906 417.914063 101.886719 C 418.855469 101.394531 419.679688 100.835938 420.386719 100.207031 L 420.386719 80.726563 C 416.578125 80.726563 413.390625 81.078125 410.820313 81.785156 C 408.253906 82.492188 406.203125 83.433594 404.671875 84.609375 C 403.140625 85.789063 402.050781 87.140625 401.40625 88.671875 C 400.757813 90.203125 400.433594 91.832031 400.433594 93.558594 C 400.433594 97.050781 401.226563 99.707031 402.816406 101.53125 C 404.40625 103.355469 406.730469 104.269531 409.792969 104.269531 M 381.835938 96.382813 C 381.835938 93.480469 382.351563 90.90625 383.394531 88.671875 C 384.433594 86.433594 385.863281 84.472656 387.6875 82.785156 C 389.515625 81.097656 391.664063 79.667969 394.136719 78.488281 C 396.609375 77.3125 399.273438 76.339844 402.136719 75.574219 C 405.003906 74.808594 407.988281 74.25 411.085938 73.898438 C 414.1875 73.542969 417.285156 73.328125 420.386719 73.25 L 420.386719 70.425781 C 420.386719 65.953125 419.472656 62.765625 417.648438 60.859375 C 415.824219 58.957031 412.832031 58.003906 408.675781 58.003906 C 406.554688 58.003906 404.425781 58.171875 402.289063 58.503906 C 400.148438 58.839844 398.101563 59.25 396.136719 59.738281 C 394.171875 60.230469 392.359375 60.78125 390.691406 61.390625 C 389.023438 62 387.601563 62.578125 386.425781 63.125 L 386.367188 63.125 L 382.890625 55.238281 C 383.71875 54.570313 385.109375 53.699219 387.070313 52.621094 C 389.03125 51.539063 391.386719 50.492188 394.136719 49.46875 C 396.882813 48.449219 399.921875 47.566406 403.261719 46.820313 C 406.59375 46.078125 410.027344 45.703125 413.558594 45.703125 C 417.914063 45.703125 421.613281 46.175781 424.652344 47.117188 C 427.691406 48.058594 430.167969 49.507813 432.070313 51.472656 C 433.976563 53.433594 435.367188 55.914063 436.25 58.917969 C 437.132813 61.917969 437.574219 65.460938 437.574219 69.542969 L 437.574219 106.273438 L 444.871094 106.273438 L 444.871094 113.511719 C 444.128906 113.667969 443.203125 113.875 442.105469 114.128906 C 441.007813 114.382813 439.789063 114.617188 438.460938 114.835938 C 437.125 115.050781 435.691406 115.238281 434.160156 115.394531 C 432.628906 115.550781 431.058594 115.628906 429.449219 115.628906 C 428.035156 115.628906 426.832031 115.570313 425.832031 115.453125 C 424.832031 115.335938 424.023438 115.0625 423.417969 114.628906 C 422.808594 114.199219 422.367188 113.582031 422.097656 112.773438 C 421.820313 111.96875 421.679688 110.882813 421.679688 109.507813 L 421.679688 106.09375 C 421.015625 106.996094 420.089844 107.996094 418.917969 109.097656 C 417.738281 110.195313 416.3125 111.234375 414.648438 112.214844 C 412.980469 113.199219 411.085938 114.011719 408.96875 114.660156 C 406.851563 115.304688 404.511719 115.628906 401.964844 115.628906 C 399.175781 115.628906 396.566406 115.253906 394.136719 114.511719 C 391.703125 113.765625 389.574219 112.609375 387.75 111.039063 C 385.925781 109.46875 384.480469 107.46875 383.421875 105.035156 C 382.363281 102.601563 381.835938 99.71875 381.835938 96.382813 "/>
<path style=" stroke:none;fill-rule:nonzero;fill:rgb(100%,83.099365%,0%);fill-opacity:1;" d="M 56.304688 34.554688 L 39.414063 5.296875 C 34.617188 7.359375 30.15625 10.027344 26.039063 13.128906 L 38.445313 34.554688 "/>
<path style=" stroke:none;fill-rule:nonzero;fill:rgb(100%,83.099365%,0%);fill-opacity:1;" d="M 57.28125 43.308594 L 50.644531 43.308594 L 65.085938 69.621094 L 79.523438 43.308594 L 72.777344 43.308594 L 72.777344 0.484375 C 70.261719 0.191406 67.71875 -0.00390625 65.125 -0.00390625 C 62.464844 -0.00390625 59.855469 0.207031 57.28125 0.515625 "/>
<path style=" stroke:none;fill-rule:nonzero;fill:rgb(100%,83.099365%,0%);fill-opacity:1;" d="M 91.664063 34.554688 L 104.050781 13.007813 C 99.925781 9.921875 95.460938 7.257813 90.660156 5.210938 L 73.734375 34.554688 "/>
<path style=" stroke:none;fill-rule:nonzero;fill:rgb(100%,83.099365%,0%);fill-opacity:1;" d="M 57.441406 106.410156 L 57.480469 129.839844 C 59.992188 130.136719 62.535156 130.328125 65.125 130.328125 C 67.789063 130.328125 70.398438 130.121094 72.976563 129.808594 L 72.9375 106.410156 "/>
<path style=" stroke:none;fill-rule:nonzero;fill:rgb(100%,83.099365%,0%);fill-opacity:1;" d="M 130.253906 65.164063 C 130.253906 62.5 130.046875 59.890625 129.734375 57.3125 L 94.03125 57.367188 L 124.960938 39.433594 C 122.894531 34.636719 120.230469 30.175781 117.128906 26.054688 L 102.21875 34.695313 L 102.21875 41.847656 L 96.460938 43.308594 L 75.464844 78.179688 L 75.464844 97.992188 L 86.175781 99.316406 L 86.175781 106.410156 L 80.054688 106.410156 L 90.839844 125.03125 C 95.632813 122.96875 100.09375 120.300781 104.210938 117.199219 L 86.324219 86.3125 L 117.25 104.113281 C 120.339844 99.980469 122.996094 95.515625 125.046875 90.710938 L 94.054688 72.871094 L 129.765625 72.816406 C 130.058594 70.300781 130.253906 67.757813 130.253906 65.164063 "/>
<path style=" stroke:none;fill-rule:nonzero;fill:rgb(100%,83.099365%,0%);fill-opacity:1;" d="M 43.992188 106.410156 L 43.992188 99.316406 L 54.703125 97.992188 L 54.703125 78.179688 L 33.707031 43.308594 L 27.949219 41.847656 L 27.949219 34.820313 L 13.003906 26.214844 C 9.914063 30.34375 7.253906 34.8125 5.207031 39.617188 L 36.199219 57.457031 L 0.488281 57.511719 C 0.195313 60.023438 0 62.570313 0 65.164063 C 0 67.824219 0.207031 70.4375 0.519531 73.015625 L 36.222656 72.960938 L 5.292969 90.890625 C 7.355469 95.691406 10.023438 100.152344 13.125 104.273438 L 43.992188 86.378906 L 26.203125 117.320313 C 30.328125 120.40625 34.792969 123.070313 39.59375 125.117188 L 50.351563 106.410156 "/>
<path style=" stroke:none;fill-rule:nonzero;fill:rgb(100%,100%,100%);fill-opacity:1;" d="M 180.996094 139.9375 C 181.570313 139.9375 182.046875 139.976563 182.414063 140.058594 L 182.136719 142.71875 C 181.730469 142.625 181.3125 142.574219 180.871094 142.574219 C 179.730469 142.574219 178.804688 142.945313 178.097656 143.691406 C 177.386719 144.4375 177.03125 145.40625 177.03125 146.597656 L 177.03125 153.621094 L 174.175781 153.621094 L 174.175781 140.179688 L 176.414063 140.179688 L 176.789063 142.550781 L 176.9375 142.550781 C 177.382813 141.75 177.964844 141.109375 178.679688 140.640625 C 179.394531 140.171875 180.167969 139.9375 180.996094 139.9375 "/>
<path style=" stroke:none;fill-rule:nonzero;fill:rgb(100%,100%,100%);fill-opacity:1;" d="M 189.632813 142.097656 C 188.726563 142.097656 188 142.386719 187.453125 142.960938 C 186.90625 143.539063 186.578125 144.375 186.472656 145.476563 L 192.574219 145.476563 C 192.558594 144.367188 192.289063 143.527344 191.773438 142.957031 C 191.253906 142.386719 190.539063 142.097656 189.632813 142.097656 M 190.15625 153.863281 C 188.066406 153.863281 186.429688 153.253906 185.253906 152.035156 C 184.074219 150.816406 183.484375 149.136719 183.484375 146.996094 C 183.484375 144.800781 184.03125 143.078125 185.125 141.820313 C 186.21875 140.566406 187.722656 139.9375 189.632813 139.9375 C 191.40625 139.9375 192.808594 140.476563 193.839844 141.550781 C 194.867188 142.628906 195.382813 144.113281 195.382813 146 L 195.382813 147.542969 L 186.425781 147.542969 C 186.464844 148.847656 186.816406 149.851563 187.484375 150.550781 C 188.148438 151.253906 189.082031 151.605469 190.289063 151.605469 C 191.082031 151.605469 191.820313 151.53125 192.507813 151.378906 C 193.191406 151.230469 193.925781 150.980469 194.714844 150.632813 L 194.714844 152.953125 C 194.015625 153.285156 193.3125 153.519531 192.597656 153.65625 C 191.886719 153.792969 191.070313 153.863281 190.15625 153.863281 "/>
<path style=" stroke:none;fill-rule:nonzero;fill:rgb(100%,100%,100%);fill-opacity:1;" d="M 207.035156 149.792969 C 207.035156 151.105469 206.554688 152.113281 205.601563 152.8125 C 204.644531 153.511719 203.273438 153.863281 201.492188 153.863281 C 199.703125 153.863281 198.261719 153.59375 197.175781 153.050781 L 197.175781 150.582031 C 198.757813 151.3125 200.226563 151.675781 201.589844 151.675781 C 203.347656 151.675781 204.226563 151.148438 204.226563 150.085938 C 204.226563 149.742188 204.128906 149.460938 203.933594 149.234375 C 203.742188 149.007813 203.421875 148.773438 202.976563 148.527344 C 202.527344 148.285156 201.910156 148.011719 201.117188 147.703125 C 199.566406 147.105469 198.519531 146.503906 197.972656 145.902344 C 197.425781 145.304688 197.152344 144.527344 197.152344 143.570313 C 197.152344 142.417969 197.617188 141.527344 198.546875 140.890625 C 199.472656 140.253906 200.734375 139.9375 202.328125 139.9375 C 203.910156 139.9375 205.40625 140.257813 206.8125 140.898438 L 205.890625 143.046875 C 204.441406 142.449219 203.222656 142.148438 202.230469 142.148438 C 200.726563 142.148438 199.972656 142.578125 199.972656 143.4375 C 199.972656 143.859375 200.171875 144.214844 200.5625 144.507813 C 200.953125 144.796875 201.8125 145.199219 203.132813 145.710938 C 204.242188 146.140625 205.046875 146.53125 205.550781 146.890625 C 206.054688 147.246094 206.425781 147.65625 206.671875 148.121094 C 206.914063 148.589844 207.035156 149.144531 207.035156 149.792969 "/>
<path style=" stroke:none;fill-rule:nonzero;fill:rgb(100%,100%,100%);fill-opacity:1;" d="M 214.84375 142.097656 C 213.9375 142.097656 213.210938 142.386719 212.664063 142.960938 C 212.117188 143.539063 211.789063 144.375 211.6875 145.476563 L 217.785156 145.476563 C 217.769531 144.367188 217.503906 143.527344 216.984375 142.957031 C 216.464844 142.386719 215.753906 142.097656 214.84375 142.097656 M 215.367188 153.863281 C 213.277344 153.863281 211.644531 153.253906 210.464844 152.035156 C 209.285156 150.816406 208.695313 149.136719 208.695313 146.996094 C 208.695313 144.800781 209.242188 143.078125 210.335938 141.820313 C 211.429688 140.566406 212.933594 139.9375 214.84375 139.9375 C 216.617188 139.9375 218.023438 140.476563 219.050781 141.550781 C 220.078125 142.628906 220.59375 144.113281 220.59375 146 L 220.59375 147.542969 L 211.636719 147.542969 C 211.675781 148.847656 212.03125 149.851563 212.695313 150.550781 C 213.359375 151.253906 214.292969 151.605469 215.5 151.605469 C 216.296875 151.605469 217.035156 151.53125 217.71875 151.378906 C 218.40625 151.230469 219.140625 150.980469 219.925781 150.632813 L 219.925781 152.953125 C 219.230469 153.285156 218.523438 153.519531 217.8125 153.65625 C 217.097656 153.792969 216.28125 153.863281 215.367188 153.863281 "/>
<path style=" stroke:none;fill-rule:nonzero;fill:rgb(100%,100%,100%);fill-opacity:1;" d="M 227.371094 151.675781 C 228.410156 151.675781 229.242188 151.386719 229.871094 150.808594 C 230.496094 150.230469 230.8125 149.414063 230.8125 148.371094 L 230.8125 147.203125 L 229.089844 147.277344 C 227.742188 147.324219 226.761719 147.550781 226.152344 147.953125 C 225.539063 148.351563 225.234375 148.964844 225.234375 149.792969 C 225.234375 150.394531 225.414063 150.855469 225.769531 151.183594 C 226.125 151.511719 226.660156 151.675781 227.371094 151.675781 M 231.628906 153.621094 L 231.054688 151.75 L 230.957031 151.75 C 230.3125 152.570313 229.65625 153.125 229.003906 153.421875 C 228.34375 153.714844 227.503906 153.863281 226.472656 153.863281 C 225.152344 153.863281 224.121094 153.507813 223.382813 152.792969 C 222.640625 152.082031 222.269531 151.074219 222.269531 149.769531 C 222.269531 148.382813 222.78125 147.335938 223.8125 146.632813 C 224.839844 145.929688 226.40625 145.542969 228.515625 145.476563 L 230.839844 145.40625 L 230.839844 144.6875 C 230.839844 143.828125 230.636719 143.1875 230.234375 142.761719 C 229.835938 142.335938 229.214844 142.125 228.371094 142.125 C 227.679688 142.125 227.019531 142.226563 226.390625 142.425781 C 225.757813 142.628906 225.148438 142.871094 224.566406 143.144531 L 223.644531 141.101563 C 224.371094 140.722656 225.171875 140.433594 226.035156 140.234375 C 226.902344 140.035156 227.722656 139.9375 228.492188 139.9375 C 230.199219 139.9375 231.488281 140.308594 232.359375 141.054688 C 233.230469 141.800781 233.667969 142.96875 233.667969 144.566406 L 233.667969 153.621094 "/>
<path style=" stroke:none;fill-rule:nonzero;fill:rgb(100%,100%,100%);fill-opacity:1;" d="M 243.851563 139.9375 C 244.425781 139.9375 244.898438 139.976563 245.273438 140.058594 L 244.992188 142.71875 C 244.585938 142.625 244.164063 142.574219 243.730469 142.574219 C 242.585938 142.574219 241.660156 142.945313 240.953125 143.691406 C 240.242188 144.4375 239.886719 145.40625 239.886719 146.597656 L 239.886719 153.621094 L 237.03125 153.621094 L 237.03125 140.179688 L 239.269531 140.179688 L 239.644531 142.550781 L 239.789063 142.550781 C 240.238281 141.75 240.816406 141.109375 241.535156 140.640625 C 242.253906 140.171875 243.023438 139.9375 243.851563 139.9375 "/>
<path style=" stroke:none;fill-rule:nonzero;fill:rgb(100%,100%,100%);fill-opacity:1;" d="M 252.5625 153.863281 C 250.527344 153.863281 248.980469 153.269531 247.925781 152.082031 C 246.867188 150.894531 246.339844 149.191406 246.339844 146.972656 C 246.339844 144.714844 246.890625 142.972656 247.996094 141.761719 C 249.105469 140.542969 250.703125 139.9375 252.789063 139.9375 C 254.210938 139.9375 255.484375 140.199219 256.621094 140.726563 L 255.757813 143.023438 C 254.550781 142.554688 253.554688 142.316406 252.769531 142.316406 C 250.441406 142.316406 249.28125 143.863281 249.28125 146.949219 C 249.28125 148.457031 249.570313 149.589844 250.148438 150.34375 C 250.726563 151.101563 251.578125 151.480469 252.695313 151.480469 C 253.964844 151.480469 255.167969 151.167969 256.304688 150.535156 L 256.304688 153.023438 C 255.792969 153.324219 255.25 153.539063 254.667969 153.667969 C 254.089844 153.800781 253.386719 153.863281 252.5625 153.863281 "/>
<path style=" stroke:none;fill-rule:nonzero;fill:rgb(100%,100%,100%);fill-opacity:1;" d="M 270.664063 153.621094 L 267.796875 153.621094 L 267.796875 145.355469 C 267.796875 144.320313 267.589844 143.546875 267.171875 143.035156 C 266.753906 142.523438 266.09375 142.269531 265.1875 142.269531 C 263.984375 142.269531 263.105469 142.628906 262.542969 143.347656 C 261.976563 144.0625 261.695313 145.265625 261.695313 146.949219 L 261.695313 153.621094 L 258.84375 153.621094 L 258.84375 134.710938 L 261.695313 134.710938 L 261.695313 139.511719 C 261.695313 140.28125 261.648438 141.101563 261.550781 141.976563 L 261.734375 141.976563 C 262.121094 141.332031 262.664063 140.828125 263.355469 140.472656 C 264.050781 140.113281 264.855469 139.9375 265.78125 139.9375 C 269.039063 139.9375 270.664063 141.578125 270.664063 144.859375 "/>
<path style=" stroke:none;fill-rule:nonzero;fill:rgb(100%,100%,100%);fill-opacity:1;" d="M 285.160156 151.554688 C 286.335938 151.554688 287.191406 151.226563 287.726563 150.5625 C 288.261719 149.90625 288.535156 148.832031 288.550781 147.351563 L 288.550781 146.949219 C 288.550781 145.253906 288.277344 144.050781 287.726563 143.339844 C 287.175781 142.625 286.3125 142.269531 285.136719 142.269531 C 284.132813 142.269531 283.359375 142.675781 282.816406 143.492188 C 282.273438 144.304688 282.003906 145.464844 282.003906 146.972656 C 282.003906 148.464844 282.265625 149.601563 282.789063 150.382813 C 283.316406 151.164063 284.105469 151.554688 285.160156 151.554688 M 284.394531 153.863281 C 282.71875 153.863281 281.410156 153.257813 280.472656 152.039063 C 279.53125 150.824219 279.058594 149.121094 279.058594 146.925781 C 279.058594 144.71875 279.535156 143.003906 280.488281 141.777344 C 281.4375 140.550781 282.757813 139.9375 284.441406 139.9375 C 286.210938 139.9375 287.554688 140.589844 288.480469 141.894531 L 288.625 141.894531 C 288.488281 140.929688 288.417969 140.167969 288.417969 139.609375 L 288.417969 134.710938 L 291.285156 134.710938 L 291.285156 153.621094 L 289.050781 153.621094 L 288.550781 151.859375 L 288.417969 151.859375 C 287.503906 153.195313 286.160156 153.863281 284.394531 153.863281 "/>
<path style=" stroke:none;fill-rule:nonzero;fill:rgb(100%,100%,100%);fill-opacity:1;" d="M 298.902344 151.675781 C 299.941406 151.675781 300.773438 151.386719 301.402344 150.808594 C 302.027344 150.230469 302.34375 149.414063 302.34375 148.371094 L 302.34375 147.203125 L 300.617188 147.277344 C 299.269531 147.324219 298.292969 147.550781 297.683594 147.953125 C 297.070313 148.351563 296.765625 148.964844 296.765625 149.792969 C 296.765625 150.394531 296.941406 150.855469 297.300781 151.183594 C 297.65625 151.511719 298.191406 151.675781 298.902344 151.675781 M 303.15625 153.621094 L 302.585938 151.75 L 302.488281 151.75 C 301.839844 152.570313 301.1875 153.125 300.53125 153.421875 C 299.875 153.714844 299.03125 153.863281 298.003906 153.863281 C 296.683594 153.863281 295.652344 153.507813 294.910156 152.792969 C 294.171875 152.082031 293.800781 151.074219 293.800781 149.769531 C 293.800781 148.382813 294.3125 147.335938 295.34375 146.632813 C 296.371094 145.929688 297.9375 145.542969 300.046875 145.476563 L 302.367188 145.40625 L 302.367188 144.6875 C 302.367188 143.828125 302.167969 143.1875 301.765625 142.761719 C 301.363281 142.335938 300.742188 142.125 299.898438 142.125 C 299.210938 142.125 298.550781 142.226563 297.921875 142.425781 C 297.289063 142.628906 296.679688 142.871094 296.097656 143.144531 L 295.171875 141.101563 C 295.902344 140.722656 296.699219 140.433594 297.566406 140.234375 C 298.433594 140.035156 299.253906 139.9375 300.019531 139.9375 C 301.730469 139.9375 303.019531 140.308594 303.890625 141.054688 C 304.761719 141.800781 305.199219 142.96875 305.199219 144.566406 L 305.199219 153.621094 "/>
<path style=" stroke:none;fill-rule:nonzero;fill:rgb(100%,100%,100%);fill-opacity:1;" d="M 313.570313 151.554688 C 314.265625 151.554688 314.964844 151.445313 315.660156 151.226563 L 315.660156 153.378906 C 315.34375 153.515625 314.9375 153.628906 314.4375 153.726563 C 313.941406 153.816406 313.425781 153.863281 312.890625 153.863281 C 310.183594 153.863281 308.828125 152.4375 308.828125 149.585938 L 308.828125 142.34375 L 306.996094 142.34375 L 306.996094 141.078125 L 308.964844 140.035156 L 309.9375 137.191406 L 311.699219 137.191406 L 311.699219 140.179688 L 315.527344 140.179688 L 315.527344 142.34375 L 311.699219 142.34375 L 311.699219 149.539063 C 311.699219 150.226563 311.871094 150.734375 312.214844 151.0625 C 312.558594 151.390625 313.011719 151.554688 313.570313 151.554688 "/>
<path style=" stroke:none;fill-rule:nonzero;fill:rgb(100%,100%,100%);fill-opacity:1;" d="M 321.878906 151.675781 C 322.917969 151.675781 323.75 151.386719 324.378906 150.808594 C 325.003906 150.230469 325.320313 149.414063 325.320313 148.371094 L 325.320313 147.203125 L 323.59375 147.277344 C 322.246094 147.324219 321.269531 147.550781 320.65625 147.953125 C 320.046875 148.351563 319.742188 148.964844 319.742188 149.792969 C 319.742188 150.394531 319.917969 150.855469 320.277344 151.183594 C 320.632813 151.511719 321.167969 151.675781 321.878906 151.675781 M 326.132813 153.621094 L 325.5625 151.75 L 325.464844 151.75 C 324.816406 152.570313 324.164063 153.125 323.507813 153.421875 C 322.851563 153.714844 322.007813 153.863281 320.980469 153.863281 C 319.660156 153.863281 318.628906 153.507813 317.886719 152.792969 C 317.148438 152.082031 316.777344 151.074219 316.777344 149.769531 C 316.777344 148.382813 317.289063 147.335938 318.320313 146.632813 C 319.347656 145.929688 320.914063 145.542969 323.023438 145.476563 L 325.34375 145.40625 L 325.34375 144.6875 C 325.34375 143.828125 325.144531 143.1875 324.742188 142.761719 C 324.339844 142.335938 323.71875 142.125 322.875 142.125 C 322.1875 142.125 321.527344 142.226563 320.894531 142.425781 C 320.265625 142.628906 319.65625 142.871094 319.070313 143.144531 L 318.148438 141.101563 C 318.878906 140.722656 319.675781 140.433594 320.542969 140.234375 C 321.410156 140.035156 322.226563 139.9375 322.996094 139.9375 C 324.707031 139.9375 325.996094 140.308594 326.867188 141.054688 C 327.738281 141.800781 328.175781 142.96875 328.175781 144.566406 L 328.175781 153.621094 "/>
<path style=" stroke:none;fill-rule:nonzero;fill:rgb(100%,100%,100%);fill-opacity:1;" d="M 348.707031 153.621094 L 345.839844 153.621094 L 345.839844 145.332031 C 345.839844 144.304688 345.644531 143.535156 345.257813 143.027344 C 344.867188 142.523438 344.261719 142.269531 343.433594 142.269531 C 342.332031 142.269531 341.523438 142.628906 341.007813 143.347656 C 340.492188 144.0625 340.238281 145.257813 340.238281 146.925781 L 340.238281 153.621094 L 337.382813 153.621094 L 337.382813 140.179688 L 339.617188 140.179688 L 340.019531 141.941406 L 340.164063 141.941406 C 340.539063 141.300781 341.078125 140.808594 341.789063 140.460938 C 342.496094 140.109375 343.273438 139.9375 344.128906 139.9375 C 346.191406 139.9375 347.5625 140.640625 348.234375 142.050781 L 348.429688 142.050781 C 348.824219 141.386719 349.386719 140.867188 350.105469 140.496094 C 350.828125 140.121094 351.652344 139.9375 352.585938 139.9375 C 354.1875 139.9375 355.355469 140.34375 356.089844 141.152344 C 356.824219 141.960938 357.191406 143.199219 357.191406 144.859375 L 357.191406 153.621094 L 354.335938 153.621094 L 354.335938 145.332031 C 354.335938 144.304688 354.140625 143.535156 353.746094 143.027344 C 353.355469 142.523438 352.742188 142.269531 351.917969 142.269531 C 350.808594 142.269531 349.992188 142.617188 349.480469 143.308594 C 348.964844 144.003906 348.707031 145.066406 348.707031 146.5 "/>
<path style=" stroke:none;fill-rule:nonzero;fill:rgb(100%,100%,100%);fill-opacity:1;" d="M 364.710938 151.675781 C 365.75 151.675781 366.582031 151.386719 367.210938 150.808594 C 367.835938 150.230469 368.152344 149.414063 368.152344 148.371094 L 368.152344 147.203125 L 366.425781 147.277344 C 365.078125 147.324219 364.101563 147.550781 363.488281 147.953125 C 362.878906 148.351563 362.574219 148.964844 362.574219 149.792969 C 362.574219 150.394531 362.75 150.855469 363.109375 151.183594 C 363.464844 151.511719 364 151.675781 364.710938 151.675781 M 368.964844 153.621094 L 368.394531 151.75 L 368.296875 151.75 C 367.648438 152.570313 366.996094 153.125 366.339844 153.421875 C 365.683594 153.714844 364.839844 153.863281 363.8125 153.863281 C 362.492188 153.863281 361.460938 153.507813 360.71875 152.792969 C 359.980469 152.082031 359.609375 151.074219 359.609375 149.769531 C 359.609375 148.382813 360.121094 147.335938 361.152344 146.632813 C 362.179688 145.929688 363.746094 145.542969 365.855469 145.476563 L 368.175781 145.40625 L 368.175781 144.6875 C 368.175781 143.828125 367.976563 143.1875 367.574219 142.761719 C 367.171875 142.335938 366.550781 142.125 365.707031 142.125 C 365.019531 142.125 364.359375 142.226563 363.726563 142.425781 C 363.097656 142.628906 362.488281 142.871094 361.902344 143.144531 L 360.980469 141.101563 C 361.710938 140.722656 362.507813 140.433594 363.375 140.234375 C 364.242188 140.035156 365.058594 139.9375 365.828125 139.9375 C 367.539063 139.9375 368.828125 140.308594 369.699219 141.054688 C 370.570313 141.800781 371.007813 142.96875 371.007813 144.566406 L 371.007813 153.621094 "/>
<path style=" stroke:none;fill-rule:nonzero;fill:rgb(100%,100%,100%);fill-opacity:1;" d="M 386.195313 153.621094 L 383.328125 153.621094 L 383.328125 145.355469 C 383.328125 144.320313 383.121094 143.546875 382.703125 143.035156 C 382.285156 142.523438 381.621094 142.269531 380.714844 142.269531 C 379.507813 142.269531 378.625 142.628906 378.066406 143.339844 C 377.507813 144.050781 377.226563 145.246094 377.226563 146.925781 L 377.226563 153.621094 L 374.371094 153.621094 L 374.371094 140.179688 L 376.605469 140.179688 L 377.007813 141.941406 L 377.15625 141.941406 C 377.558594 141.300781 378.132813 140.808594 378.878906 140.460938 C 379.625 140.109375 380.453125 139.9375 381.359375 139.9375 C 384.585938 139.9375 386.195313 141.578125 386.195313 144.859375 "/>
<path style=" stroke:none;fill-rule:nonzero;fill:rgb(100%,100%,100%);fill-opacity:1;" d="M 393.703125 151.675781 C 394.742188 151.675781 395.574219 151.386719 396.203125 150.808594 C 396.828125 150.230469 397.144531 149.414063 397.144531 148.371094 L 397.144531 147.203125 L 395.417969 147.277344 C 394.070313 147.324219 393.09375 147.550781 392.480469 147.953125 C 391.871094 148.351563 391.566406 148.964844 391.566406 149.792969 C 391.566406 150.394531 391.742188 150.855469 392.101563 151.183594 C 392.457031 151.511719 392.992188 151.675781 393.703125 151.675781 M 397.957031 153.621094 L 397.386719 151.75 L 397.289063 151.75 C 396.640625 152.570313 395.988281 153.125 395.332031 153.421875 C 394.675781 153.714844 393.835938 153.863281 392.804688 153.863281 C 391.484375 153.863281 390.453125 153.507813 389.714844 152.792969 C 388.972656 152.082031 388.601563 151.074219 388.601563 149.769531 C 388.601563 148.382813 389.113281 147.335938 390.144531 146.632813 C 391.171875 145.929688 392.738281 145.542969 394.847656 145.476563 L 397.167969 145.40625 L 397.167969 144.6875 C 397.167969 143.828125 396.96875 143.1875 396.566406 142.761719 C 396.164063 142.335938 395.542969 142.125 394.699219 142.125 C 394.011719 142.125 393.351563 142.226563 392.71875 142.425781 C 392.089844 142.628906 391.480469 142.871094 390.894531 143.144531 L 389.972656 141.101563 C 390.703125 140.722656 391.5 140.433594 392.367188 140.234375 C 393.234375 140.035156 394.050781 139.9375 394.820313 139.9375 C 396.53125 139.9375 397.820313 140.308594 398.691406 141.054688 C 399.5625 141.800781 400 142.96875 400 144.566406 L 400 153.621094 "/>
<g clip-path="url(#clip1)" clip-rule="nonzero">
<path style=" stroke:none;fill-rule:nonzero;fill:rgb(100%,100%,100%);fill-opacity:1;" d="M 405.382813 144.53125 C 405.382813 145.371094 405.597656 146.019531 406.03125 146.476563 C 406.464844 146.929688 407.085938 147.15625 407.898438 147.15625 C 409.550781 147.15625 410.375 146.273438 410.375 144.507813 C 410.375 143.632813 410.171875 142.957031 409.761719 142.480469 C 409.351563 142.007813 408.730469 141.769531 407.898438 141.769531 C 407.070313 141.769531 406.441406 142.007813 406.019531 142.476563 C 405.59375 142.945313 405.382813 143.632813 405.382813 144.53125 M 404.152344 155.710938 C 404.152344 156.328125 404.429688 156.800781 404.984375 157.132813 C 405.539063 157.464844 406.320313 157.632813 407.324219 157.632813 C 408.882813 157.632813 410.039063 157.40625 410.800781 156.964844 C 411.5625 156.515625 411.941406 155.925781 411.941406 155.1875 C 411.941406 154.605469 411.734375 154.191406 411.316406 153.941406 C 410.898438 153.695313 410.125 153.574219 408.988281 153.574219 L 406.824219 153.574219 C 406.007813 153.574219 405.359375 153.765625 404.875 154.148438 C 404.394531 154.535156 404.152344 155.054688 404.152344 155.710938 M 414.714844 140.179688 L 414.714844 141.746094 L 412.417969 142.171875 C 412.628906 142.457031 412.800781 142.804688 412.941406 143.21875 C 413.078125 143.632813 413.148438 144.066406 413.148438 144.53125 C 413.148438 145.914063 412.667969 147.007813 411.710938 147.800781 C 410.757813 148.59375 409.441406 148.992188 407.761719 148.992188 C 407.332031 148.992188 406.945313 148.960938 406.597656 148.894531 C 405.980469 149.273438 405.671875 149.71875 405.671875 150.230469 C 405.671875 150.539063 405.816406 150.769531 406.105469 150.921875 C 406.390625 151.078125 406.921875 151.152344 407.691406 151.152344 L 410.035156 151.152344 C 411.519531 151.152344 412.644531 151.46875 413.414063 152.101563 C 414.183594 152.734375 414.570313 153.644531 414.570313 154.835938 C 414.570313 156.359375 413.941406 157.535156 412.683594 158.359375 C 411.429688 159.1875 409.613281 159.601563 407.238281 159.601563 C 405.410156 159.601563 404.011719 159.277344 403.046875 158.628906 C 402.082031 157.980469 401.601563 157.054688 401.601563 155.855469 C 401.601563 155.03125 401.863281 154.335938 402.386719 153.773438 C 402.90625 153.210938 403.640625 152.820313 404.578125 152.601563 C 404.195313 152.4375 403.882813 152.175781 403.636719 151.816406 C 403.390625 151.457031 403.265625 151.078125 403.265625 150.679688 C 403.265625 150.175781 403.40625 149.753906 403.691406 149.402344 C 403.976563 149.054688 404.398438 148.710938 404.953125 148.371094 C 404.257813 148.070313 403.695313 147.582031 403.261719 146.90625 C 402.824219 146.230469 402.609375 145.4375 402.609375 144.53125 C 402.609375 143.074219 403.070313 141.941406 403.988281 141.140625 C 404.90625 140.339844 406.21875 139.9375 407.921875 139.9375 C 408.300781 139.9375 408.699219 139.964844 409.117188 140.015625 C 409.535156 140.066406 409.847656 140.121094 410.058594 140.179688 "/>
</g>
<path style=" stroke:none;fill-rule:nonzero;fill:rgb(100%,100%,100%);fill-opacity:1;" d="M 421.929688 142.097656 C 421.023438 142.097656 420.296875 142.386719 419.75 142.960938 C 419.203125 143.539063 418.875 144.375 418.769531 145.476563 L 424.871094 145.476563 C 424.855469 144.367188 424.585938 143.527344 424.070313 142.957031 C 423.550781 142.386719 422.835938 142.097656 421.929688 142.097656 M 422.453125 153.863281 C 420.363281 153.863281 418.726563 153.253906 417.550781 152.035156 C 416.371094 150.816406 415.78125 149.136719 415.78125 146.996094 C 415.78125 144.800781 416.328125 143.078125 417.421875 141.820313 C 418.515625 140.566406 420.019531 139.9375 421.929688 139.9375 C 423.703125 139.9375 425.105469 140.476563 426.136719 141.550781 C 427.164063 142.628906 427.679688 144.113281 427.679688 146 L 427.679688 147.542969 L 418.722656 147.542969 C 418.761719 148.847656 419.113281 149.851563 419.78125 150.550781 C 420.445313 151.253906 421.378906 151.605469 422.585938 151.605469 C 423.378906 151.605469 424.117188 151.53125 424.804688 151.378906 C 425.488281 151.230469 426.222656 150.980469 427.011719 150.632813 L 427.011719 152.953125 C 426.3125 153.285156 425.609375 153.519531 424.894531 153.65625 C 424.183594 153.792969 423.367188 153.863281 422.453125 153.863281 "/>
<path style=" stroke:none;fill-rule:nonzero;fill:rgb(100%,100%,100%);fill-opacity:1;" d="M 441.628906 153.621094 L 438.761719 153.621094 L 438.761719 145.332031 C 438.761719 144.304688 438.566406 143.535156 438.175781 143.027344 C 437.789063 142.523438 437.179688 142.269531 436.355469 142.269531 C 435.253906 142.269531 434.441406 142.628906 433.929688 143.347656 C 433.414063 144.0625 433.15625 145.257813 433.15625 146.925781 L 433.15625 153.621094 L 430.300781 153.621094 L 430.300781 140.179688 L 432.539063 140.179688 L 432.9375 141.941406 L 433.085938 141.941406 C 433.457031 141.300781 433.996094 140.808594 434.707031 140.460938 C 435.414063 140.109375 436.195313 139.9375 437.046875 139.9375 C 439.113281 139.9375 440.480469 140.640625 441.152344 142.050781 L 441.347656 142.050781 C 441.746094 141.386719 442.304688 140.867188 443.023438 140.496094 C 443.746094 140.121094 444.574219 139.9375 445.503906 139.9375 C 447.109375 139.9375 448.277344 140.34375 449.011719 141.152344 C 449.742188 141.960938 450.109375 143.199219 450.109375 144.859375 L 450.109375 153.621094 L 447.253906 153.621094 L 447.253906 145.332031 C 447.253906 144.304688 447.058594 143.535156 446.664063 143.027344 C 446.273438 142.523438 445.664063 142.269531 444.835938 142.269531 C 443.726563 142.269531 442.914063 142.617188 442.398438 143.308594 C 441.886719 144.003906 441.628906 145.066406 441.628906 146.5 "/>
<path style=" stroke:none;fill-rule:nonzero;fill:rgb(100%,100%,100%);fill-opacity:1;" d="M 458.824219 142.097656 C 457.914063 142.097656 457.1875 142.386719 456.640625 142.960938 C 456.09375 143.539063 455.769531 144.375 455.664063 145.476563 L 461.765625 145.476563 C 461.746094 144.367188 461.480469 143.527344 460.964844 142.957031 C 460.445313 142.386719 459.730469 142.097656 458.824219 142.097656 M 459.347656 153.863281 C 457.253906 153.863281 455.621094 153.253906 454.441406 152.035156 C 453.261719 150.816406 452.671875 149.136719 452.671875 146.996094 C 452.671875 144.800781 453.21875 143.078125 454.3125 141.820313 C 455.40625 140.566406 456.910156 139.9375 458.824219 139.9375 C 460.597656 139.9375 462 140.476563 463.027344 141.550781 C 464.058594 142.628906 464.570313 144.113281 464.570313 146 L 464.570313 147.542969 L 455.613281 147.542969 C 455.65625 148.847656 456.007813 149.851563 456.671875 150.550781 C 457.335938 151.253906 458.269531 151.605469 459.480469 151.605469 C 460.273438 151.605469 461.011719 151.53125 461.699219 151.378906 C 462.382813 151.230469 463.117188 150.980469 463.902344 150.632813 L 463.902344 152.953125 C 463.207031 153.285156 462.503906 153.519531 461.789063 153.65625 C 461.074219 153.792969 460.261719 153.863281 459.347656 153.863281 "/>
<path style=" stroke:none;fill-rule:nonzero;fill:rgb(100%,100%,100%);fill-opacity:1;" d="M 479.019531 153.621094 L 476.148438 153.621094 L 476.148438 145.355469 C 476.148438 144.320313 475.941406 143.546875 475.523438 143.035156 C 475.105469 142.523438 474.445313 142.269531 473.539063 142.269531 C 472.332031 142.269531 471.445313 142.628906 470.886719 143.339844 C 470.328125 144.050781 470.050781 145.246094 470.050781 146.925781 L 470.050781 153.621094 L 467.195313 153.621094 L 467.195313 140.179688 L 469.429688 140.179688 L 469.828125 141.941406 L 469.976563 141.941406 C 470.382813 141.300781 470.957031 140.808594 471.703125 140.460938 C 472.449219 140.109375 473.273438 139.9375 474.179688 139.9375 C 477.40625 139.9375 479.019531 141.578125 479.019531 144.859375 "/>
<g clip-path="url(#clip2)" clip-rule="nonzero">
<path style=" stroke:none;fill-rule:nonzero;fill:rgb(100%,100%,100%);fill-opacity:1;" d="M 487.378906 151.554688 C 488.074219 151.554688 488.769531 151.445313 489.46875 151.226563 L 489.46875 153.378906 C 489.152344 153.515625 488.742188 153.628906 488.246094 153.726563 C 487.746094 153.816406 487.230469 153.863281 486.695313 153.863281 C 483.988281 153.863281 482.636719 152.4375 482.636719 149.585938 L 482.636719 142.34375 L 480.800781 142.34375 L 480.800781 141.078125 L 482.769531 140.035156 L 483.742188 137.191406 L 485.503906 137.191406 L 485.503906 140.179688 L 489.335938 140.179688 L 489.335938 142.34375 L 485.503906 142.34375 L 485.503906 149.539063 C 485.503906 150.226563 485.679688 150.734375 486.023438 151.0625 C 486.367188 151.390625 486.816406 151.554688 487.378906 151.554688 "/>
</g>
</g>
</svg>
