<?xml version="1.0" encoding="UTF-8"?>
<!-- Generator: Adobe Illustrator 25.4.1, SVG Export Plug-In . SVG Version: 6.00 Build 0)  -->
<svg version="1.1" id="UU_logo" xmlns="http://www.w3.org/2000/svg" xmlns:xlink="http://www.w3.org/1999/xlink" x="0px" y="0px" viewBox="0 0 198.4252 53.9" style="enable-background:new 0 0 198.4252 53.9;" xml:space="preserve">
<style type="text/css">
	.st0{fill:#FFCD00;}
	.st1{clip-path:url(#SVGID_00000108307723222024620100000014075953958951584690_);}
	.st2{clip-path:url(#SVGID_00000002377935688678160260000002564944146902727869_);fill:#FFFFFF;}
	.st3{fill:#C00A35;}
	.st4{fill:#FFFFFF;}
</style>
<g>
	<g>
		<polygon class="st0" points="22.727,1.001 23.2357,0.3495 24.0976,0.2445 24.7478,0.7556 29.0471,0.7556 29.6986,0.2445     30.5581,0.3495 31.0687,1 35.2442,2.0296 35.9977,1.689 36.8077,1.9969 37.1473,2.752 40.9501,4.7464 41.7634,4.5983     42.4757,5.0885 42.6249,5.9048 45.8446,8.7538 46.6686,8.8063 47.2419,9.4534 47.1934,10.2794 49.6323,13.8126 50.4224,14.0594     50.8266,14.827 50.5808,15.6161 52.1054,19.637 52.8147,20.0646 53.0207,20.9061 52.5941,21.6135 53.1102,25.8813     53.6951,26.4662 53.6951,27.3349 53.1102,27.9179 52.5941,32.1819 53.0227,32.8892 52.8166,33.7327 52.1073,34.1583     50.5827,38.1792 50.8285,38.9683 50.4243,39.7379 49.6362,39.9828 47.1934,43.5198 47.2419,44.3478 46.6686,44.9949     45.8446,45.0435 42.6293,47.8926 42.4796,48.7068 41.7682,49.2005 40.954,49.0489 37.1463,51.0468 36.8077,51.8027     35.9977,52.1098 35.2432,51.7697 31.0731,52.7997 30.563,53.4508 29.7024,53.5538 29.0524,53.0426 24.752,53.0426     24.1015,53.5538 23.2411,53.4508 22.7314,52.7997 18.5559,51.7697 17.8024,52.1098 16.9924,51.8027 16.6518,51.0468     12.8495,49.0528 12.0362,49.2025 11.3225,48.7088 11.1743,47.8945 7.9545,45.0435 7.13,44.9949 6.5548,44.3478 6.6039,43.5198     4.1648,39.9886 3.3744,39.7418 2.9721,38.9742 3.2179,38.1831 1.6928,34.1622 0.9854,33.7366 0.7774,32.8931 1.205,32.1876     0.6866,27.9179 0.1021,27.3349 0.1021,26.4662 0.6866,25.8813 1.204,21.6194 0.7759,20.91 0.9839,20.0685 1.6914,19.6409     3.216,15.62 2.9696,14.8309 3.3724,14.0633 4.1619,13.8165 6.6049,10.2794 6.5548,9.4534 7.13,8.8063 7.9545,8.7538     11.1699,5.9066 11.3181,5.0924 12.0323,4.6003 12.8451,4.7503 16.6528,2.752 16.9924,1.9969 17.8024,1.689 18.5559,2.0296   "/>
		<g>
			<g>
				<g>
					<g>
						<defs>
							<path id="SVGID_1_" d="M26.9,53.6995c14.8012,0,26.799-11.9987,26.799-26.7999c0-14.7993-11.9979-26.8004-26.799-26.8004         c-14.8021,0-26.8008,12.0011-26.8008,26.8004C0.0992,41.7008,12.098,53.6995,26.9,53.6995z"/>
						</defs>
						<clipPath id="SVGID_00000031904231140412490730000007188009826204696227_">
							<use xlink:href="#SVGID_1_" style="overflow:visible;"/>
						</clipPath>
						<path style="clip-path:url(#SVGID_00000031904231140412490730000007188009826204696227_);" d="M29.7418,0.023L26.9,16.1797        L24.0573,0.023 M30.5751,0.1235l-1.1083,16.3672L36.0934,1.484 M36.8718,1.7793l-4.9902,15.6285L41.9063,4.4215         M42.5947,4.8981l-8.5856,13.9771L46.8484,8.6683 M47.4022,9.2922l-11.68,11.5187l14.91-6.8409 M51.02,14.7123l-14.0962,8.384        l16.1124-3.0706 M53.2384,20.84l-15.6957,4.7691l16.3798,0.8726 M53.9225,27.3174L37.5427,28.192l15.6957,4.7692         M53.0362,33.7715L36.9238,30.701L51.02,39.0888 M50.6322,39.8312l-14.91-6.8409l11.68,11.5168 M46.8484,45.1329        L34.0092,34.9221l8.5856,13.9791 M41.9063,49.3793l-10.0247-12.986l4.9902,15.6271 M29.7418,53.7753L26.9,37.6195        l-2.8427,16.1558 M23.2251,53.6762l1.1082-16.3676l-6.6265,15.0052 M16.9274,52.0204l4.9912-15.6271l-10.0247,12.986         M11.2034,48.9012l8.5876-13.9791L6.9488,45.1329 M6.3969,44.5071l11.6809-11.5168L3.1669,39.8312 M2.7778,39.0888        l14.0976-8.3879L0.7609,33.7715 M0.5607,32.9612l15.6966-4.7692l-16.3816-0.8745 M-0.1243,26.4818l16.3816-0.8726        L0.5607,20.84 M0.7609,20.0257l16.1144,3.0706l-14.0976-8.384 M3.1669,13.97l14.9109,6.8409L6.3969,9.2922 M6.9488,8.6683        L19.791,18.8751l-8.5876-13.977 M11.8939,4.4215l10.0247,12.9864L16.9274,1.7793 M17.7067,1.4839l6.6265,15.0067        L23.2251,0.1235 M36.0935,52.3138l-6.6266-15.0052l1.1083,16.3676"/>
					</g>
				</g>
			</g>
			<g>
				<g>
					<g>
						<defs>
							<path id="SVGID_00000160185171903131496560000016286372142814694796_" d="M26.9,53.6995         c14.8012,0,26.799-11.9987,26.799-26.7999c0-14.7993-11.9979-26.8004-26.799-26.8004         c-14.8021,0-26.8008,12.0011-26.8008,26.8004C0.0992,41.7008,12.098,53.6995,26.9,53.6995z"/>
						</defs>
						<clipPath id="SVGID_00000041285639816937556550000004638760959249160630_">
							<use xlink:href="#SVGID_00000160185171903131496560000016286372142814694796_" style="overflow:visible;"/>
						</clipPath>
						<path style="clip-path:url(#SVGID_00000041285639816937556550000004638760959249160630_);fill:#FFFFFF;" d="M44.6485,6.6219        l-2.03,2.3341c0.4169,0.3673,0.8216,0.7463,1.2108,1.1388l-0.6029,0.5986c-0.5932-0.5986-1.2171-1.1602-1.8716-1.6908        l2.4935-3.057 M51.9091,16.8424l-3.6837,1.4712c0.1146,0.2798,0.2284,0.5752,0.3275,0.8551l3.7314-1.3255 M53.7582,24.6802        l-3.0512-0.616l-0.0019-0.0098l2.8238-1.2865l-0.1788-1.0359l-3.6887,1.924c0.0534,0.3596,0.0923,0.7152,0.1274,1.0747        l4.0297,0.9484 M52.6,35.0057l-0.9455-0.2973c-0.0962,0.3051-0.2012,0.6102-0.3081,0.9133l-2.7937-1.0008        c-0.0991,0.2798-0.209,0.5771-0.3217,0.857l2.7471,1.1097c-0.1205,0.3052-0.2498,0.6103-0.3829,0.9057l0.9124,0.4062         M49.3749,41.7727l-3.3019-2.1961c-0.1642,0.2488-0.344,0.5131-0.5179,0.756l3.2076,2.3204 M45.8835,46.0269l-0.6997-0.7075        c-0.2249,0.2274-0.4576,0.449-0.6962,0.6666l-2.0056-2.1844c-0.2201,0.2021-0.4547,0.4139-0.6846,0.6084l1.9167,2.2621        c-0.2498,0.2137-0.5044,0.4198-0.7609,0.6238l0.6175,0.7774 M39.887,50.5162l-1.906-3.4807        c-0.2624,0.1478-0.5413,0.2934-0.81,0.4296l1.7681,3.5526 M31.3996,53.476l-0.1603-0.9834        c0.5169-0.0875,1.032-0.1905,1.6082-0.3246l-0.1618-0.6452c-0.5218,0.1185-0.9713,0.2118-1.4362,0.2915l-0.1249-0.7541        c0.4407-0.0777,0.8799-0.1671,1.3769-0.2818l-0.1666-0.6607c-0.5292,0.1244-1.0034,0.2176-1.479,0.2973l-0.1399-0.8376        c0.7754-0.1302,1.545-0.3012,2.3039-0.513l0.292,1.0028c0.4129-0.1146,0.8221-0.2429,1.2287-0.3809l0.2012-0.7735        l0.5961,1.339l-0.7798,2.4916 M33.9197,52.1428l0.4198-1.58c-0.275,0.0856-0.5704,0.173-0.8352,0.2469l0.3669,1.3449        L33.9197,52.1428z M20.993,53.2l0.8789-3.8713c-0.2939-0.0661-0.6029-0.138-0.8934-0.2157l-1.0296,3.8286 M15.4741,51.313        l1.6908-3.5798c-0.7628-0.3576-1.5047-0.754-2.2242-1.1914l-0.4412,0.7269c0.4727,0.2877,0.9562,0.5577,1.4489,0.8123        l-1.4275,2.7655 M9.967,47.8634l2.492-3.0668c-0.6545-0.5286-1.2803-1.0922-1.8736-1.6908L9.983,43.7064        c0.3906,0.3945,0.7948,0.7715,1.2117,1.1369l-2.0352,2.3263 M4.1638,41.3723l2.9837-0.8764l0.0058,0.0078l-1.9021,2.4487        l0.6443,0.8279l2.3671-3.4126c-0.2113-0.2915-0.4154-0.5889-0.6122-0.8902L3.642,40.5153 M0.3727,31.6805l0.9799-0.1769        c-0.0568-0.3148-0.1079-0.6335-0.153-0.9503l2.9384-0.4139c-0.0422-0.2954-0.0826-0.6122-0.1141-0.9096l-2.9487,0.2973        c-0.0344-0.3285-0.0622-0.6568-0.0831-0.9814l-0.9853,0.0622 M-0.0408,25.2652l3.9943,0.2312        c0.0185-0.3051,0.0433-0.6083,0.0733-0.9115l-1.4862-0.1458c0.0034-0.033,0.0058-0.0952,0.0165-0.1477        c0.049-0.2643,0.3716-0.4684,0.7166-0.5927c0.2833-0.105,0.8925-0.2702,0.8925-0.2702        c0.0496-0.344,0.1025-0.6763,0.1885-1.0281c0,0-1.0451,0.3615-1.4211,0.5791c-0.24,0.1361-0.3731,0.2041-0.5218,0.379        l-0.0185-0.0039c-0.0121-0.6103-0.3726-0.995-0.9416-1.0339c-0.6942-0.0504-1.0694,0.5772-1.1621,1.341l-0.172-0.0136         M1.5067,23.3198c0.3853,0.0428,0.4329,0.4062,0.4048,0.6433c-0.0156,0.138-0.034,0.2954-0.0462,0.4276l-0.9499-0.0952        c0.0165-0.1574,0.0194-0.3012,0.0354-0.4451C0.9951,23.452,1.1929,23.2829,1.5067,23.3198z M1.5296,17.7908l3.2426,2.8627        c0.0927-0.3305,0.1923-0.6569,0.2997-0.9795l-0.7035-0.5675c0.1468-0.4257,0.3056-0.8454,0.4761-1.2594l0.9013,0.0409        c0.1389-0.3227,0.2852-0.6472,0.4382-0.964l-4.2813-0.1166 M2.5169,17.6431l1.5551,0.1283        c-0.1107,0.2798-0.2166,0.5558-0.3172,0.8376l-1.2419-0.9542L2.5169,17.6431z M7.6242,8.0678l2.833,2.7616        c0.1939-0.2002,0.3907-0.3925,0.5913-0.585L9.2848,8.4001l2.7918,0.9231c0.2599-0.2196,0.5252-0.4333,0.7948-0.6413        l-2.3603-3.1756L9.724,6.1262l1.6714,2.0484L8.5016,7.2069 M31.1018,4.2018c0.3367,0.2137,0.72,0.4003,1.1078,0.4945        c0.8294,0.2036,1.6539,0.0325,1.8797-0.8872c0.1274-0.5237-0.0374-0.9693-0.9386-1.4182        c-0.4092-0.1972-0.4849-0.3531-0.4485-0.5038c0.0573-0.2376,0.2706-0.3625,0.7351-0.2493        c0.1982,0.0491,0.5228,0.1968,0.7487,0.3489l0.4426-0.6214c-0.3464-0.2405-0.7113-0.4305-1.1262-0.5335        c-0.7055-0.1729-1.6038,0.002-1.8016,0.8041c-0.1758,0.722,0.2104,1.0563,0.6156,1.293        c0.4042,0.2366,0.8332,0.375,0.7492,0.7195c-0.0865,0.3512-0.4188,0.3318-0.7205,0.259        c-0.2648-0.0637-0.6131-0.2464-0.8226-0.3726L31.1018,4.2018z M36.6279,3.9074c-0.5184,0.9887-0.2658,2.1548,0.8935,2.763        c1.1538,0.6044,2.2567,0.1516,2.7761-0.8376c0.5169-0.9873,0.2648-2.1529-0.8892-2.7586        C38.2497,2.4668,37.1463,2.9201,36.6279,3.9074z M37.5427,4.3864c0.3916-0.7473,0.9839-0.874,1.4892-0.6083        c0.5107,0.2677,0.7424,0.8279,0.3509,1.5766c-0.3907,0.7443-0.9854,0.8725-1.495,0.6044        C37.3814,5.6948,37.1507,5.1332,37.5427,4.3864z M49.9365,28.3475c-0.1729,0.3575-0.31,0.7598-0.3576,1.1563        c-0.101,0.8473,0.1682,1.6461,1.1088,1.7588c0.5334,0.0641,0.9551-0.1535,1.2933-1.1        c0.1477-0.4334,0.2934-0.5267,0.448-0.5073c0.24,0.0273,0.3907,0.2255,0.3342,0.6977        c-0.0233,0.206-0.1321,0.5461-0.2565,0.7871l0.6725,0.3654c0.1943-0.3751,0.342-0.756,0.3925-1.1836        c0.0875-0.721-0.1943-1.5936-1.0134-1.6908c-0.7405-0.0894-1.0242,0.3362-1.2118,0.7638        c-0.1847,0.4314-0.2711,0.8745-0.6239,0.8318c-0.3595-0.0427-0.3789-0.375-0.342-0.6841        c0.032-0.2701,0.1691-0.6374,0.2702-0.8609L49.9365,28.3475z M5.8381,36.3466c-0.016-0.3984-0.0811-0.8181-0.224-1.1913        c-0.3056-0.7988-0.9123-1.3779-1.7986-1.0398c-0.5033,0.1924-0.7759,0.5792-0.633,1.5761        c0.07,0.451-0.0145,0.6005-0.1594,0.6549c-0.2279,0.0895-0.4527-0.0155-0.6219-0.4606        c-0.0738-0.1943-0.136-0.5441-0.1389-0.8142L1.498,35.0581c0.0005,0.4237,0.049,0.8318,0.2022,1.2322        c0.2594,0.6763,0.9138,1.3176,1.6859,1.0222c0.6942-0.2643,0.7497-0.7715,0.7137-1.2399        c-0.0355-0.4664-0.1652-0.8998,0.1671-1.0261c0.3362-0.1283,0.5102,0.1554,0.621,0.447        c0.0971,0.2526,0.1458,0.6453,0.1608,0.8901L5.8381,36.3466z M13.4987,5.8348c0.5179,0.9892,1.6208,1.442,2.78,0.8356        c1.1554-0.6083,1.4061-1.7724,0.8882-2.7611c-0.5194-0.9873-1.6218-1.4415-2.7762-0.8351        C13.2324,3.6819,12.9798,4.8475,13.4987,5.8348z M14.4116,5.3567c-0.3921-0.7468-0.1594-1.3079,0.3464-1.5728        c0.5102-0.2697,1.1024-0.1414,1.4954,0.6045c0.3921,0.7467,0.1609,1.3064-0.3498,1.5765        C15.3964,6.2293,14.8032,6.1011,14.4116,5.3567z M20.0704,4.8494c0.3964,0.033,0.822,0.0195,1.2103-0.0757        c0.8289-0.2066,1.4789-0.7405,1.2501-1.6607c-0.1301-0.5233-0.4829-0.841-1.4892-0.8186        c-0.4532,0.014-0.5941-0.088-0.6311-0.2386c-0.0593-0.2366,0.0718-0.4465,0.5358-0.5616        c0.1987-0.0491,0.5534-0.0686,0.8246-0.0394l0.103-0.7569c-0.4188-0.051-0.8304-0.051-1.2453,0.0514        c-0.704,0.1769-1.4206,0.7483-1.2209,1.5504c0.1792,0.721,0.6767,0.8381,1.1456,0.859        c0.4679,0.0199,0.9124-0.0558,0.9989,0.2882c0.0856,0.3517-0.2171,0.4893-0.5189,0.5646        c-0.2638,0.0651-0.6578,0.0651-0.9017,0.0519L20.0704,4.8494z M26.9,3.0124c0.5349,0,0.9689-0.4328,0.9689-0.9683        c0-0.5344-0.4339-0.9674-0.9689-0.9674c-0.5358,0-0.9688,0.4329-0.9688,0.9674C25.9312,2.5795,26.3642,3.0124,26.9,3.0124z         M46.5617,13.3345c0.3022,0.4411,0.9076,0.5519,1.3468,0.2468c0.4402-0.3032,0.5491-0.9056,0.2459-1.3448        c-0.3022-0.4412-0.9047-0.5501-1.3449-0.2469C46.3684,12.2928,46.2585,12.8953,46.5617,13.3345z M25.9312,51.7561        c0,0.5363,0.4329,0.9678,0.9688,0.9678c0.5349,0,0.9689-0.4314,0.9689-0.9678S27.435,50.7863,26.9,50.7863        C26.3642,50.7864,25.9312,51.2197,25.9312,51.7561z M7.2364,13.3345c0.3037-0.4392,0.1938-1.0417-0.2463-1.3449        c-0.4402-0.3032-1.0432-0.1943-1.3469,0.2469c-0.3031,0.4392-0.1928,1.0416,0.2474,1.3448        C6.3298,13.8864,6.9332,13.7756,7.2364,13.3345z"/>
					</g>
				</g>
			</g>
		</g>
		<g>
			<path class="st3" d="M30.5751,30.5727c-0.3022,0.309-0.7215,0.4995-1.1865,0.4995H28.413c-0.5461,0-1.031,0.2643-1.3336,0.6723     h-0.3595c-0.3017-0.4081-0.7876-0.6723-1.3336-0.6723h-0.9746c-0.9168,0-1.6597-0.7424-1.6597-1.6597v-6.6621"/>
			<path class="st4" d="M22.7518,22.7504h8.2965v6.6621c0,0.4547-0.1798,0.8609-0.4732,1.1602"/>
			<path d="M31.4812,29.3911c0,1.1544-0.9376,2.0892-2.0926,2.0892H28.413c-0.512,0-0.9513,0.3129-1.1393,0.756h-0.7482     c-0.1871-0.4431-0.6263-0.756-1.1393-0.756h-0.9746c-1.1559,0-2.0927-0.9347-2.0927-2.0892V22.317h9.1623     C31.4812,22.317,31.4812,29.3911,31.4812,29.3911z M30.6256,23.176h-7.4511v6.2151c0,0.6782,0.5538,1.234,1.237,1.234h0.9746     c0.5946,0,1.1203,0.2488,1.5003,0.6453h0.0262c0.3814-0.3965,0.9067-0.6453,1.5003-0.6453h0.9756     c0.6836,0,1.237-0.5558,1.237-1.234V23.176H30.6256z"/>
		</g>
	</g>
	<g>
		<path d="M71.8865,11.3925h5.4596v0.8202h-0.1498c-1.6831,0-1.9379,0.7361-1.9379,1.7489v5.2419    c0,4.6984-3.4102,5.5799-5.9158,5.5799c-3.7929,0-6.1934-1.6393-6.1934-4.8625v-6.2755c0-1.0554-0.2931-1.4327-1.4743-1.4327    h-0.3587v-0.8202h6.5927v0.8202h-0.3543c-0.8903,0-1.4962,0.3993-1.4962,1.4327v6.2755c0,2.5691,1.891,3.4539,3.8071,3.4539    c2.7616,0,4.1331-1.5562,4.1331-3.8748v-5.1174c0-1.495-0.4233-2.1699-1.7303-2.1699h-0.3817L71.8865,11.3925L71.8865,11.3925z     M80.6917,22.1554c0,0.7798,0.3543,1.1122,0.9668,1.1122c0.5042,0,0.9887-0.3138,1.6-1.0509l0.2964,0.5894    c-0.6322,1.1364-1.8965,1.9162-3.0557,1.9162c-1.4295,0-2.3832-0.8028-2.3832-2.6118v-5.0517h-1.1133v-0.5523    c1.2632-0.5239,2.7003-2.0627,3.0766-3.2405h0.6124v2.6325h2.755l-0.3139,1.1604h-2.4411    C80.6917,17.0589,80.6917,22.1554,80.6917,22.1554z M90.3796,24.4903h-5.8577v-0.6726h0.1476c0.8651,0,1.1789-0.3784,1.1789-1.472    v-3.4341c0-0.9471-0.1246-1.1605-0.7557-1.412l-0.5708-0.234v-0.5239l3.4537-1.3058h0.4452v2.3569h0.0415    c0.7776-1.5159,1.1156-2.1262,1.833-2.1262c0.1444,0,0.3162,0.022,0.419,0.0624l1.6634,0.6125    c-0.2515,0.8859-0.5884,1.6393-1.0051,2.231c-0.6583-0.2537-1.436-0.526-1.7127-0.526c-0.42,0-0.7743,0.2964-1.2391,0.9471v3.4134    c0,1.0128,0.316,1.4108,1.4119,1.4108h0.5469V24.4903z M101.5395,22.0482c-1.1747,1.6602-2.883,2.674-4.506,2.674    c-2.2956,0-3.853-1.7685-3.853-4.3168c0-2.7802,1.8779-4.739,4.5049-4.739c1.1199,0,2.0047,0.3587,2.6555,1.0116    c1.2434,1.2413,0.655,2.4214,1.3922,2.8009v0.6102h-5.8347c0.1683,1.7489,1.3463,3.0744,2.5908,3.0744    c0.7766,0,1.5355-0.4397,2.5712-1.5181L101.5395,22.0482z M98.826,19.2702c-0.0207-1.623-0.5895-2.6117-1.4983-2.6117    c-0.8618,0-1.6383,1.1122-1.494,2.6117H98.826z M111.7139,22.4692c-0.969,1.4733-2.4455,2.2531-4.2959,2.2531    c-2.5691,0-4.425-1.7499-4.425-4.1714c0-2.7582,2.3831-4.8843,5.4542-4.8843c1.8123,0,3.1826,0.758,3.1826,1.7904    c0,0.63-0.42,1.0543-1.0773,1.0543c-1.4699,0-1.7838-1.8757-3.0066-1.8757c-1.0543,0-1.7738,1.2839-1.7738,3.1781    c0,2.276,1.0784,3.8126,2.6346,3.8126c0.9504,0,1.8319-0.4822,2.6959-1.495L111.7139,22.4692z M116.2822,22.3654    c0,1.3255,0.3598,1.4523,1.0958,1.4523h0.21v0.6726h-5.3316v-0.6726h0.3008c1.075,0,1.1571-0.4221,1.1571-1.5388v-9.2033    c0-0.608-0.1072-0.7567-0.6749-0.9471l-0.6114-0.21v-0.4856l3.3499-1.0313h0.5042v6.864c1.1812-0.8203,2.6938-1.599,3.7896-1.599    c1.5432,0,2.3,1.2402,2.3,3.7262v2.7834c0,1.2436,0.1444,1.6416,0.9471,1.6416h0.2067v0.6726h-4.9697v-0.6726h0.1696    c0.8836,0,1.075-0.3401,1.075-1.5388v-3.1794c0-1.1352-0.5272-1.8526-1.3681-1.8526c-0.5721,0-1.412,0.3138-2.1503,0.7994v4.319    H116.2822z M128.1213,22.1554c0,0.7798,0.3577,1.1122,0.9668,1.1122c0.5063,0,0.9875-0.3138,1.6023-1.0509l0.2952,0.5894    c-0.6332,1.1364-1.8975,1.9162-3.0557,1.9162c-1.4316,0-2.3798-0.8028-2.3798-2.6118v-5.0517h-1.1144v-0.5523    c1.2643-0.5239,2.6959-2.0627,3.0722-3.2405h0.6135v2.6325h2.7539l-0.3096,1.1604h-2.4444L128.1213,22.1554L128.1213,22.1554z"/>
		<path d="M71.8899,29.305h5.4553v0.8214h-0.1487c-1.682,0-1.938,0.7371-1.938,1.7499v5.2443c0,4.6962-3.4101,5.5777-5.9168,5.5777    c-3.7928,0-6.1924-1.6394-6.1924-4.8625v-6.2776c0-1.0511-0.2931-1.4317-1.4743-1.4317h-0.3587V29.305h6.596v0.8214h-0.3587    c-0.886,0-1.4984,0.4004-1.4984,1.4317v6.2776c0,2.5702,1.8986,3.4517,3.8126,3.4517c2.7626,0,4.1307-1.5575,4.1307-3.8761    v-5.1152c0-1.4939-0.4243-2.1699-1.7302-2.1699h-0.3784C71.8899,30.1262,71.8899,29.305,71.8899,29.305z M87.2441,40.4901    c0,1.0303,0.3752,1.2403,1.2009,1.2403v0.6759h-4.973v-0.6759c0.864-0.0613,1.202-0.6529,1.202-2.3798v-1.832    c0-1.6854-0.4649-2.3383-1.3048-2.3383c-0.654,0-1.3495,0.3162-2.2355,0.9275v4.2762c0,0.9471,0.4025,1.3464,1.2424,1.3464h0.1893    v0.6759H77.238v-0.6759h0.1248c0.8869,0,1.2008-0.3784,1.2008-1.4733v-4.1068c0-0.4636-0.2515-0.7371-0.9908-0.9471    l-0.4386-0.1268V34.57l3.5992-1.2195h0.4003v1.8713c1.5355-1.0094,2.8852-1.6427,3.8958-1.6427    c1.5399,0,2.2147,1.0981,2.2147,3.6223L87.2441,40.4901L87.2441,40.4901z M95.0999,42.4063H89.836v-0.6759h0.2319    c0.864,0,1.1778-0.3784,1.1778-1.4733V36.216c0-0.5501-0.1268-0.6988-0.7163-0.9077l-0.6935-0.2548v-0.5042l3.6004-1.1988h0.3828    v7.0554c0,0.8629,0.3521,1.3244,1.2806,1.3244v0.676H95.0999z M94.1113,30.0006c0,0.8433-0.8028,1.4327-1.6634,1.4327    c-0.9712,0-1.6843-0.6124-1.6843-1.4327c0-0.7579,0.7994-1.4327,1.6843-1.4327C93.4113,28.5679,94.1113,29.2012,94.1113,30.0006z     M95.333,33.8132h5.3491v0.6749h-0.736c-0.4462,0-0.63,0.398-0.2734,1.1778l1.8712,4.1942l1.6417-3.7098    c0.4856-1.0969,0.2351-1.5168-1.2392-1.6623v-0.6749h4.1889v0.6749c-1.096,0.1038-1.3671,0.3784-1.7685,1.2609l-3.0088,6.8038    h-1.2643l-3.1377-6.7589c-0.3981-0.8651-0.6989-1.202-1.623-1.3058V33.8132z M114.6243,39.9641    c-1.1812,1.6602-2.884,2.6729-4.5048,2.6729c-2.3011,0-3.8541-1.7706-3.8541-4.3156c0-2.7823,1.8723-4.7422,4.5048-4.7422    c1.1189,0,1.9971,0.3588,2.6511,1.0127c1.2479,1.2413,0.6552,2.4215,1.3923,2.8032v0.608h-5.8348    c0.1696,1.7499,1.3474,3.0744,2.5898,3.0744c0.7787,0,1.5367-0.4386,2.5701-1.5169L114.6243,39.9641z M111.9077,37.1817    c-0.0186-1.6196-0.5895-2.6117-1.4962-2.6117c-0.864,0-1.6427,1.1167-1.495,2.6117H111.9077z M121.7846,42.4063h-5.8512v-0.6759    h0.1465c0.8619,0,1.1757-0.3784,1.1757-1.4733V36.823c0-0.9471-0.1258-1.1571-0.7579-1.4098l-0.5643-0.2329v-0.5271l3.4495-1.3026    h0.4451v2.3569h0.0449c0.7753-1.5158,1.1111-2.1283,1.8286-2.1283c0.1498,0,0.3172,0.0231,0.42,0.0646l1.6623,0.6124    c-0.2493,0.8826-0.5873,1.6406-1.0073,2.2301c-0.655-0.2516-1.4337-0.5239-1.7083-0.5239c-0.42,0-0.7787,0.292-1.2402,0.9471    v3.4089c0,1.0127,0.316,1.412,1.412,1.412h0.5446C121.7846,41.7304,121.7846,42.4063,121.7846,42.4063z M125.116,39.9204h0.6738    c0.3587,1.1801,1.2861,1.81,2.1895,1.81c0.5906,0,1.0916-0.4429,1.0916-0.9668c0-1.4536-3.9548-1.9577-3.9548-4.5093    c0-1.6012,1.3277-2.6752,3.3018-2.6752c0.8028,0,1.4788,0.1269,2.3624,0.444l0.0405,2.2531h-0.677    c-0.3774-1.1582-1.0729-1.7882-1.9774-1.7882c-0.5468,0-0.9667,0.3369-0.9667,0.7984c0,1.7269,4.1483,1.7914,4.1483,4.6776    c0,1.5564-1.1156,2.6522-2.7375,2.6522c-1.4568,0-1.939-0.2964-2.2344-0.2964c-0.1246,0-0.2494,0.0865-0.42,0.2746h-0.6102    L125.116,39.9204z M138.3429,42.4063h-5.2682v-0.6759h0.2352c0.8608,0,1.1779-0.3784,1.1779-1.4733V36.216    c0-0.5501-0.1214-0.6988-0.7142-0.9077l-0.699-0.2548v-0.5042l3.6026-1.1988h0.3784v7.0554c0,0.8629,0.3587,1.3244,1.2872,1.3244    v0.676H138.3429z M137.3521,30.0006c0,0.8433-0.7984,1.4327-1.6645,1.4327c-0.9668,0-1.6833-0.6124-1.6833-1.4327    c0-0.7579,0.7995-1.4327,1.6833-1.4327C136.6565,28.5679,137.3521,29.2012,137.3521,30.0006z M143.107,40.0701    c0,0.7788,0.3543,1.1134,0.9657,1.1134c0.5042,0,0.9843-0.3172,1.6001-1.0532l0.2942,0.5928    c-0.6311,1.134-1.8943,1.9138-3.0558,1.9138c-1.4294,0-2.3799-0.8028-2.3799-2.6094v-5.0573h-1.1154v-0.5479    c1.2643-0.526,2.697-2.0627,3.0753-3.2417h0.6159v2.6325h2.756l-0.3172,1.1571h-2.4389V40.0701z M152.0662,42.1854l-0.4208,0.9259    c-1.1152,2.4413-2.2303,1.1368-3.1985,2.1048c-0.1893,0.1893-0.3158,0.5462-0.3158,0.8837c0,0.6945,0.5679,1.1995,1.325,1.1995    c0.7366,0,1.3888-0.5051,1.9156-1.5575l4.7125-9.5953c0.5896-1.1984,0.8632-1.4516,1.8096-1.6614v-0.6739h-3.9134v0.6739    c1.2624,0.0205,1.536,0.7355,1.0935,1.6409l-1.5986,3.2405l-1.7469-3.6191c-0.399-0.8415-0.2315-1.2623,0.8631-1.2623v-0.6739    h-5.366v0.6739c0.9054,0,1.2634,0.3991,1.9989,1.9144L152.0662,42.1854z"/>
	</g>
</g>
</svg>